<?xml version="1.0" encoding="UTF-8" standalone="no"?>
<?xml-stylesheet href="styles.css" type="text/css"?>
<!DOCTYPE svg PUBLIC "-//W3C//DTD SVG 1.1//EN"
 "http://www.w3.org/Graphics/SVG/1.1/DTD/svg11.dtd">
<!-- Generated by graphviz version 2.43.20190912.0211 (20190912.0211)
 -->
<!-- Title: Adder Pages: 1 -->
<svg width="2638pt" height="261pt"
 viewBox="0.00 0.00 2638.00 261.00" xmlns="http://www.w3.org/2000/svg" xmlns:xlink="http://www.w3.org/1999/xlink">
<g id="graph0" class="graph" transform="scale(1 1) rotate(0) translate(4 257)">
<title>Adder</title>
<polygon fill="white" stroke="transparent" points="-4,4 -4,-257 2634,-257 2634,4 -4,4"/>
<g id="clust1" class="cluster">
<title>cluster_Adder</title>
<polygon fill="#fff8dc" stroke="black" points="8,-8 8,-245 2622,-245 2622,-8 8,-8"/>
<text text-anchor="middle" x="1315" y="-229.8" font-family="Times,serif" font-size="14.00">Adder</text>
</g>
<!-- cluster_Adder_io_volume -->
<g id="node1" class="node">
<title>cluster_Adder_io_volume</title>
<polygon fill="#cccccc" stroke="black" points="1344.5,-53 1256.5,-53 1256.5,-17 1344.5,-17 1344.5,-53"/>
<text text-anchor="middle" x="1300.5" y="-31.3" font-family="Times,serif" font-size="14.00">io_volume</text>
</g>
<!-- op_cvt_247 -->
<g id="node35" class="node">
<title>op_cvt_247</title>
<polygon fill="#d8bfd8" stroke="transparent" points="1409,-23.5 1409,-48.5 1496,-48.5 1496,-23.5 1409,-23.5"/>
<polygon fill="none" stroke="black" points="1409.5,-23 1409.5,-48 1432.5,-48 1432.5,-23 1409.5,-23"/>
<text text-anchor="start" x="1414.5" y="-31.8" font-family="Times,serif" font-size="14.00">●</text>
<polygon fill="none" stroke="black" points="1432.5,-23 1432.5,-48 1473.5,-48 1473.5,-23 1432.5,-23"/>
<text text-anchor="start" x="1437.5" y="-31.8" font-family="Times,serif" font-size="14.00"> cvt </text>
<polygon fill="none" stroke="black" points="1473.5,-23 1473.5,-48 1496.5,-48 1496.5,-23 1473.5,-23"/>
<text text-anchor="start" x="1478.5" y="-31.8" font-family="Times,serif" font-size="14.00">●</text>
</g>
<!-- cluster_Adder_io_volume&#45;&gt;op_cvt_247 -->
<g id="edge20" class="edge">
<title>cluster_Adder_io_volume&#45;&gt;op_cvt_247:in1</title>
<path fill="none" stroke="black" d="M1344.71,-35C1361.08,-35 1380.14,-35 1398.26,-35"/>
<polygon fill="black" stroke="black" points="1398.5,-38.5 1408.5,-35 1398.5,-31.5 1398.5,-38.5"/>
</g>
<!-- cluster_Adder_io_samples_in_0 -->
<g id="node2" class="node">
<title>cluster_Adder_io_samples_in_0</title>
<polygon fill="#cccccc" stroke="black" points="147,-214 16,-214 16,-178 147,-178 147,-214"/>
<text text-anchor="middle" x="81.5" y="-192.3" font-family="Times,serif" font-size="14.00">io_samples_in_0</text>
</g>
<!-- op_asUInt_233 -->
<g id="node21" class="node">
<title>op_asUInt_233</title>
<polygon fill="#d8bfd8" stroke="transparent" points="191,-183.5 191,-208.5 305,-208.5 305,-183.5 191,-183.5"/>
<polygon fill="none" stroke="black" points="191,-183 191,-208 214,-208 214,-183 191,-183"/>
<text text-anchor="start" x="196" y="-191.8" font-family="Times,serif" font-size="14.00">●</text>
<polygon fill="none" stroke="black" points="214,-183 214,-208 282,-208 282,-183 214,-183"/>
<text text-anchor="start" x="219" y="-191.8" font-family="Times,serif" font-size="14.00"> asUInt </text>
<polygon fill="none" stroke="black" points="282,-183 282,-208 305,-208 305,-183 282,-183"/>
<text text-anchor="start" x="287" y="-191.8" font-family="Times,serif" font-size="14.00">●</text>
</g>
<!-- cluster_Adder_io_samples_in_0&#45;&gt;op_asUInt_233 -->
<g id="edge3" class="edge">
<title>cluster_Adder_io_samples_in_0&#45;&gt;op_asUInt_233:in1</title>
<path fill="none" stroke="black" d="M147.02,-195.2C157.75,-195.11 168.91,-195.04 179.74,-195.01"/>
<polygon fill="black" stroke="black" points="180,-198.51 190,-195 180,-191.51 180,-198.51"/>
</g>
<!-- cluster_Adder_io_samples_in_1 -->
<g id="node3" class="node">
<title>cluster_Adder_io_samples_in_1</title>
<polygon fill="#cccccc" stroke="black" points="147,-160 16,-160 16,-124 147,-124 147,-160"/>
<text text-anchor="middle" x="81.5" y="-138.3" font-family="Times,serif" font-size="14.00">io_samples_in_1</text>
</g>
<!-- op_asUInt_236 -->
<g id="node24" class="node">
<title>op_asUInt_236</title>
<polygon fill="#d8bfd8" stroke="transparent" points="191,-129.5 191,-154.5 305,-154.5 305,-129.5 191,-129.5"/>
<polygon fill="none" stroke="black" points="191,-129 191,-154 214,-154 214,-129 191,-129"/>
<text text-anchor="start" x="196" y="-137.8" font-family="Times,serif" font-size="14.00">●</text>
<polygon fill="none" stroke="black" points="214,-129 214,-154 282,-154 282,-129 214,-129"/>
<text text-anchor="start" x="219" y="-137.8" font-family="Times,serif" font-size="14.00"> asUInt </text>
<polygon fill="none" stroke="black" points="282,-129 282,-154 305,-154 305,-129 282,-129"/>
<text text-anchor="start" x="287" y="-137.8" font-family="Times,serif" font-size="14.00">●</text>
</g>
<!-- cluster_Adder_io_samples_in_1&#45;&gt;op_asUInt_236 -->
<g id="edge29" class="edge">
<title>cluster_Adder_io_samples_in_1&#45;&gt;op_asUInt_236:in1</title>
<path fill="none" stroke="black" d="M147.02,-141.2C157.75,-141.11 168.91,-141.04 179.74,-141.01"/>
<polygon fill="black" stroke="black" points="180,-144.51 190,-141 180,-137.51 180,-144.51"/>
</g>
<!-- cluster_Adder_io_samples_in_2 -->
<g id="node4" class="node">
<title>cluster_Adder_io_samples_in_2</title>
<polygon fill="#cccccc" stroke="black" points="147,-106 16,-106 16,-70 147,-70 147,-106"/>
<text text-anchor="middle" x="81.5" y="-84.3" font-family="Times,serif" font-size="14.00">io_samples_in_2</text>
</g>
<!-- op_asUInt_242 -->
<g id="node30" class="node">
<title>op_asUInt_242</title>
<polygon fill="#d8bfd8" stroke="transparent" points="191,-75.5 191,-100.5 305,-100.5 305,-75.5 191,-75.5"/>
<polygon fill="none" stroke="black" points="191,-75 191,-100 214,-100 214,-75 191,-75"/>
<text text-anchor="start" x="196" y="-83.8" font-family="Times,serif" font-size="14.00">●</text>
<polygon fill="none" stroke="black" points="214,-75 214,-100 282,-100 282,-75 214,-75"/>
<text text-anchor="start" x="219" y="-83.8" font-family="Times,serif" font-size="14.00"> asUInt </text>
<polygon fill="none" stroke="black" points="282,-75 282,-100 305,-100 305,-75 282,-75"/>
<text text-anchor="start" x="287" y="-83.8" font-family="Times,serif" font-size="14.00">●</text>
</g>
<!-- cluster_Adder_io_samples_in_2&#45;&gt;op_asUInt_242 -->
<g id="edge33" class="edge">
<title>cluster_Adder_io_samples_in_2&#45;&gt;op_asUInt_242:in1</title>
<path fill="none" stroke="black" d="M147.02,-87.2C157.75,-87.11 168.91,-87.04 179.74,-87.01"/>
<polygon fill="black" stroke="black" points="180,-90.51 190,-87 180,-83.51 180,-90.51"/>
</g>
<!-- cluster_Adder_io_samples_in_3 -->
<g id="node5" class="node">
<title>cluster_Adder_io_samples_in_3</title>
<polygon fill="#cccccc" stroke="black" points="147,-52 16,-52 16,-16 147,-16 147,-52"/>
<text text-anchor="middle" x="81.5" y="-30.3" font-family="Times,serif" font-size="14.00">io_samples_in_3</text>
</g>
<!-- op_asUInt_245 -->
<g id="node33" class="node">
<title>op_asUInt_245</title>
<polygon fill="#d8bfd8" stroke="transparent" points="191,-21.5 191,-46.5 305,-46.5 305,-21.5 191,-21.5"/>
<polygon fill="none" stroke="black" points="191,-21 191,-46 214,-46 214,-21 191,-21"/>
<text text-anchor="start" x="196" y="-29.8" font-family="Times,serif" font-size="14.00">●</text>
<polygon fill="none" stroke="black" points="214,-21 214,-46 282,-46 282,-21 214,-21"/>
<text text-anchor="start" x="219" y="-29.8" font-family="Times,serif" font-size="14.00"> asUInt </text>
<polygon fill="none" stroke="black" points="282,-21 282,-46 305,-46 305,-21 282,-21"/>
<text text-anchor="start" x="287" y="-29.8" font-family="Times,serif" font-size="14.00">●</text>
</g>
<!-- cluster_Adder_io_samples_in_3&#45;&gt;op_asUInt_245 -->
<g id="edge25" class="edge">
<title>cluster_Adder_io_samples_in_3&#45;&gt;op_asUInt_245:in1</title>
<path fill="none" stroke="black" d="M147.02,-33.2C157.75,-33.11 168.91,-33.04 179.74,-33.01"/>
<polygon fill="black" stroke="black" points="180,-36.51 190,-33 180,-29.51 180,-36.51"/>
</g>
<!-- cluster_Adder_io_sample_out -->
<g id="node6" class="node">
<title>cluster_Adder_io_sample_out</title>
<polygon fill="#e0ffff" stroke="black" points="2614,-71 2497,-71 2497,-35 2614,-35 2614,-71"/>
<text text-anchor="middle" x="2555.5" y="-49.3" font-family="Times,serif" font-size="14.00">io_sample_out</text>
</g>
<!-- op_asSInt_219 -->
<g id="node7" class="node">
<title>op_asSInt_219</title>
<polygon fill="#d8bfd8" stroke="transparent" points="2342,-41.5 2342,-66.5 2453,-66.5 2453,-41.5 2342,-41.5"/>
<polygon fill="none" stroke="black" points="2342.5,-41 2342.5,-66 2365.5,-66 2365.5,-41 2342.5,-41"/>
<text text-anchor="start" x="2347.5" y="-49.8" font-family="Times,serif" font-size="14.00">●</text>
<polygon fill="none" stroke="black" points="2365.5,-41 2365.5,-66 2430.5,-66 2430.5,-41 2365.5,-41"/>
<text text-anchor="start" x="2370.5" y="-49.8" font-family="Times,serif" font-size="14.00"> asSInt </text>
<polygon fill="none" stroke="black" points="2430.5,-41 2430.5,-66 2453.5,-66 2453.5,-41 2430.5,-41"/>
<text text-anchor="start" x="2435.5" y="-49.8" font-family="Times,serif" font-size="14.00">●</text>
</g>
<!-- op_asSInt_219&#45;&gt;cluster_Adder_io_sample_out -->
<g id="edge30" class="edge">
<title>op_asSInt_219:out&#45;&gt;cluster_Adder_io_sample_out</title>
<path fill="none" stroke="black" d="M2454.5,-53C2464.89,-53 2475.89,-53 2486.65,-53"/>
<polygon fill="black" stroke="black" points="2486.86,-56.5 2496.86,-53 2486.86,-49.5 2486.86,-56.5"/>
</g>
<!-- op_bits_220 -->
<g id="node8" class="node">
<title>op_bits_220</title>
<polygon fill="#d8bfd8" stroke="transparent" points="2163,-28 2163,-78 2290,-78 2290,-28 2163,-28"/>
<polygon fill="none" stroke="black" points="2163.5,-53 2163.5,-78 2220.5,-78 2220.5,-53 2163.5,-53"/>
<text text-anchor="start" x="2185.5" y="-61.8" font-family="Times,serif" font-size="14.00">●</text>
<polygon fill="none" stroke="black" points="2220.5,-28 2220.5,-78 2267.5,-78 2267.5,-28 2220.5,-28"/>
<text text-anchor="start" x="2225.5" y="-49.3" font-family="Times,serif" font-size="14.00"> bits </text>
<polygon fill="none" stroke="black" points="2267.5,-28 2267.5,-78 2290.5,-78 2290.5,-28 2267.5,-28"/>
<text text-anchor="start" x="2272.5" y="-49.3" font-family="Times,serif" font-size="14.00">●</text>
<polygon fill="none" stroke="black" points="2163.5,-28 2163.5,-53 2220.5,-53 2220.5,-28 2163.5,-28"/>
<text text-anchor="start" x="2168.5" y="-36.8" font-family="Times,serif" font-size="14.00">(31, 0)</text>
</g>
<!-- op_bits_220&#45;&gt;op_asSInt_219 -->
<g id="edge4" class="edge">
<title>op_bits_220:out&#45;&gt;op_asSInt_219:in1</title>
<path fill="none" stroke="black" d="M2291.5,-53C2309.9,-53 2316.88,-53 2331.35,-53"/>
<polygon fill="black" stroke="black" points="2331.5,-56.5 2341.5,-53 2331.5,-49.5 2331.5,-56.5"/>
</g>
<!-- op_asSInt_221 -->
<g id="node9" class="node">
<title>op_asSInt_221</title>
<polygon fill="#d8bfd8" stroke="transparent" points="2000,-54.5 2000,-79.5 2111,-79.5 2111,-54.5 2000,-54.5"/>
<polygon fill="none" stroke="black" points="2000.5,-54 2000.5,-79 2023.5,-79 2023.5,-54 2000.5,-54"/>
<text text-anchor="start" x="2005.5" y="-62.8" font-family="Times,serif" font-size="14.00">●</text>
<polygon fill="none" stroke="black" points="2023.5,-54 2023.5,-79 2088.5,-79 2088.5,-54 2023.5,-54"/>
<text text-anchor="start" x="2028.5" y="-62.8" font-family="Times,serif" font-size="14.00"> asSInt </text>
<polygon fill="none" stroke="black" points="2088.5,-54 2088.5,-79 2111.5,-79 2111.5,-54 2088.5,-54"/>
<text text-anchor="start" x="2093.5" y="-62.8" font-family="Times,serif" font-size="14.00">●</text>
</g>
<!-- op_asSInt_221&#45;&gt;op_bits_220 -->
<g id="edge9" class="edge">
<title>op_asSInt_221:out&#45;&gt;op_bits_220:in1</title>
<path fill="none" stroke="black" d="M2112.5,-66C2130.9,-66 2137.88,-66 2152.35,-66"/>
<polygon fill="black" stroke="black" points="2152.5,-69.5 2162.5,-66 2152.5,-62.5 2152.5,-69.5"/>
</g>
<!-- op_tail_222 -->
<g id="node10" class="node">
<title>op_tail_222</title>
<polygon fill="#d8bfd8" stroke="transparent" points="1859,-41 1859,-91 1948,-91 1948,-41 1859,-41"/>
<polygon fill="none" stroke="black" points="1859.5,-66 1859.5,-91 1882.5,-91 1882.5,-66 1859.5,-66"/>
<text text-anchor="start" x="1864.5" y="-74.8" font-family="Times,serif" font-size="14.00">●</text>
<polygon fill="none" stroke="black" points="1882.5,-41 1882.5,-91 1925.5,-91 1925.5,-41 1882.5,-41"/>
<text text-anchor="start" x="1887.5" y="-62.3" font-family="Times,serif" font-size="14.00"> tail </text>
<polygon fill="none" stroke="black" points="1925.5,-41 1925.5,-91 1948.5,-91 1948.5,-41 1925.5,-41"/>
<text text-anchor="start" x="1930.5" y="-62.3" font-family="Times,serif" font-size="14.00">●</text>
<polygon fill="none" stroke="black" points="1859.5,-41 1859.5,-66 1882.5,-66 1882.5,-41 1859.5,-41"/>
<text text-anchor="start" x="1866" y="-49.8" font-family="Times,serif" font-size="14.00">1</text>
</g>
<!-- op_tail_222&#45;&gt;op_asSInt_221 -->
<g id="edge6" class="edge">
<title>op_tail_222:out&#45;&gt;op_asSInt_221:in1</title>
<path fill="none" stroke="black" d="M1949.5,-66C1967.9,-66 1974.88,-66 1989.35,-66"/>
<polygon fill="black" stroke="black" points="1989.5,-69.5 1999.5,-66 1989.5,-62.5 1989.5,-69.5"/>
</g>
<!-- op_mul_223 -->
<g id="node11" class="node">
<title>op_mul_223</title>
<polygon fill="#d8bfd8" stroke="transparent" points="1714,-54 1714,-104 1807,-104 1807,-54 1714,-54"/>
<polygon fill="none" stroke="black" points="1714.5,-79 1714.5,-104 1737.5,-104 1737.5,-79 1714.5,-79"/>
<text text-anchor="start" x="1719.5" y="-87.8" font-family="Times,serif" font-size="14.00">●</text>
<polygon fill="none" stroke="black" points="1737.5,-54 1737.5,-104 1784.5,-104 1784.5,-54 1737.5,-54"/>
<text text-anchor="start" x="1742.5" y="-75.3" font-family="Times,serif" font-size="14.00"> mul </text>
<polygon fill="none" stroke="black" points="1784.5,-54 1784.5,-104 1807.5,-104 1807.5,-54 1784.5,-54"/>
<text text-anchor="start" x="1789.5" y="-75.3" font-family="Times,serif" font-size="14.00">●</text>
<polygon fill="none" stroke="black" points="1714.5,-54 1714.5,-79 1737.5,-79 1737.5,-54 1714.5,-54"/>
<text text-anchor="start" x="1719.5" y="-62.8" font-family="Times,serif" font-size="14.00">●</text>
</g>
<!-- op_mul_223&#45;&gt;op_tail_222 -->
<g id="edge19" class="edge">
<title>op_mul_223:out&#45;&gt;op_tail_222:in1</title>
<path fill="none" stroke="black" d="M1808.5,-79C1826.9,-79 1833.88,-79 1848.35,-79"/>
<polygon fill="black" stroke="black" points="1848.5,-82.5 1858.5,-79 1848.5,-75.5 1848.5,-82.5"/>
</g>
<!-- op_div_224 -->
<g id="node12" class="node">
<title>op_div_224</title>
<polygon fill="#d8bfd8" stroke="transparent" points="1560,-76 1560,-126 1662,-126 1662,-76 1560,-76"/>
<polygon fill="none" stroke="black" points="1560,-101 1560,-126 1598,-126 1598,-101 1560,-101"/>
<text text-anchor="start" x="1572.5" y="-109.8" font-family="Times,serif" font-size="14.00">●</text>
<polygon fill="none" stroke="black" points="1598,-76 1598,-126 1639,-126 1639,-76 1598,-76"/>
<text text-anchor="start" x="1603" y="-97.3" font-family="Times,serif" font-size="14.00"> div </text>
<polygon fill="none" stroke="black" points="1639,-76 1639,-126 1662,-126 1662,-76 1639,-76"/>
<text text-anchor="start" x="1644" y="-97.3" font-family="Times,serif" font-size="14.00">●</text>
<polygon fill="none" stroke="black" points="1560,-76 1560,-101 1598,-101 1598,-76 1560,-76"/>
<text text-anchor="start" x="1565" y="-84.8" font-family="Times,serif" font-size="14.00">127</text>
</g>
<!-- op_div_224&#45;&gt;op_mul_223 -->
<g id="edge5" class="edge">
<title>op_div_224:out&#45;&gt;op_mul_223:in1</title>
<path fill="none" stroke="black" d="M1663,-101C1681.88,-101 1688.49,-94.83 1703.15,-92.71"/>
<polygon fill="black" stroke="black" points="1703.76,-96.17 1713.5,-92 1703.28,-89.19 1703.76,-96.17"/>
</g>
<!-- op_asSInt_225 -->
<g id="node13" class="node">
<title>op_asSInt_225</title>
<polygon fill="#d8bfd8" stroke="transparent" points="1397,-102.5 1397,-127.5 1508,-127.5 1508,-102.5 1397,-102.5"/>
<polygon fill="none" stroke="black" points="1397.5,-102 1397.5,-127 1420.5,-127 1420.5,-102 1397.5,-102"/>
<text text-anchor="start" x="1402.5" y="-110.8" font-family="Times,serif" font-size="14.00">●</text>
<polygon fill="none" stroke="black" points="1420.5,-102 1420.5,-127 1485.5,-127 1485.5,-102 1420.5,-102"/>
<text text-anchor="start" x="1425.5" y="-110.8" font-family="Times,serif" font-size="14.00"> asSInt </text>
<polygon fill="none" stroke="black" points="1485.5,-102 1485.5,-127 1508.5,-127 1508.5,-102 1485.5,-102"/>
<text text-anchor="start" x="1490.5" y="-110.8" font-family="Times,serif" font-size="14.00">●</text>
</g>
<!-- op_asSInt_225&#45;&gt;op_div_224 -->
<g id="edge31" class="edge">
<title>op_asSInt_225:out&#45;&gt;op_div_224:in1</title>
<path fill="none" stroke="black" d="M1509.5,-114C1527.72,-114 1534.62,-114 1548.95,-114"/>
<polygon fill="black" stroke="black" points="1549,-117.5 1559,-114 1549,-110.5 1549,-117.5"/>
</g>
<!-- op_tail_226 -->
<g id="node14" class="node">
<title>op_tail_226</title>
<polygon fill="#d8bfd8" stroke="transparent" points="1256,-89 1256,-139 1345,-139 1345,-89 1256,-89"/>
<polygon fill="none" stroke="black" points="1256.5,-114 1256.5,-139 1279.5,-139 1279.5,-114 1256.5,-114"/>
<text text-anchor="start" x="1261.5" y="-122.8" font-family="Times,serif" font-size="14.00">●</text>
<polygon fill="none" stroke="black" points="1279.5,-89 1279.5,-139 1322.5,-139 1322.5,-89 1279.5,-89"/>
<text text-anchor="start" x="1284.5" y="-110.3" font-family="Times,serif" font-size="14.00"> tail </text>
<polygon fill="none" stroke="black" points="1322.5,-89 1322.5,-139 1345.5,-139 1345.5,-89 1322.5,-89"/>
<text text-anchor="start" x="1327.5" y="-110.3" font-family="Times,serif" font-size="14.00">●</text>
<polygon fill="none" stroke="black" points="1256.5,-89 1256.5,-114 1279.5,-114 1279.5,-89 1256.5,-89"/>
<text text-anchor="start" x="1263" y="-97.8" font-family="Times,serif" font-size="14.00">1</text>
</g>
<!-- op_tail_226&#45;&gt;op_asSInt_225 -->
<g id="edge8" class="edge">
<title>op_tail_226:out&#45;&gt;op_asSInt_225:in1</title>
<path fill="none" stroke="black" d="M1346.5,-114C1364.9,-114 1371.88,-114 1386.35,-114"/>
<polygon fill="black" stroke="black" points="1386.5,-117.5 1396.5,-114 1386.5,-110.5 1386.5,-117.5"/>
</g>
<!-- op_add_227 -->
<g id="node15" class="node">
<title>op_add_227</title>
<polygon fill="#d8bfd8" stroke="transparent" points="1112,-102 1112,-152 1204,-152 1204,-102 1112,-102"/>
<polygon fill="none" stroke="black" points="1112,-127 1112,-152 1135,-152 1135,-127 1112,-127"/>
<text text-anchor="start" x="1117" y="-135.8" font-family="Times,serif" font-size="14.00">●</text>
<polygon fill="none" stroke="black" points="1135,-102 1135,-152 1181,-152 1181,-102 1135,-102"/>
<text text-anchor="start" x="1140" y="-123.3" font-family="Times,serif" font-size="14.00"> add </text>
<polygon fill="none" stroke="black" points="1181,-102 1181,-152 1204,-152 1204,-102 1181,-102"/>
<text text-anchor="start" x="1186" y="-123.3" font-family="Times,serif" font-size="14.00">●</text>
<polygon fill="none" stroke="black" points="1112,-102 1112,-127 1135,-127 1135,-102 1112,-102"/>
<text text-anchor="start" x="1117" y="-110.8" font-family="Times,serif" font-size="14.00">●</text>
</g>
<!-- op_add_227&#45;&gt;op_tail_226 -->
<g id="edge21" class="edge">
<title>op_add_227:out&#45;&gt;op_tail_226:in1</title>
<path fill="none" stroke="black" d="M1205,-127C1223.59,-127 1230.63,-127 1245.25,-127"/>
<polygon fill="black" stroke="black" points="1245.5,-130.5 1255.5,-127 1245.5,-123.5 1245.5,-130.5"/>
</g>
<!-- op_asSInt_228 -->
<g id="node16" class="node">
<title>op_asSInt_228</title>
<polygon fill="#d8bfd8" stroke="transparent" points="949,-128.5 949,-153.5 1060,-153.5 1060,-128.5 949,-128.5"/>
<polygon fill="none" stroke="black" points="949.5,-128 949.5,-153 972.5,-153 972.5,-128 949.5,-128"/>
<text text-anchor="start" x="954.5" y="-136.8" font-family="Times,serif" font-size="14.00">●</text>
<polygon fill="none" stroke="black" points="972.5,-128 972.5,-153 1037.5,-153 1037.5,-128 972.5,-128"/>
<text text-anchor="start" x="977.5" y="-136.8" font-family="Times,serif" font-size="14.00"> asSInt </text>
<polygon fill="none" stroke="black" points="1037.5,-128 1037.5,-153 1060.5,-153 1060.5,-128 1037.5,-128"/>
<text text-anchor="start" x="1042.5" y="-136.8" font-family="Times,serif" font-size="14.00">●</text>
</g>
<!-- op_asSInt_228&#45;&gt;op_add_227 -->
<g id="edge14" class="edge">
<title>op_asSInt_228:out&#45;&gt;op_add_227:in1</title>
<path fill="none" stroke="black" d="M1061.5,-140C1079.72,-140 1086.62,-140 1100.95,-140"/>
<polygon fill="black" stroke="black" points="1101,-143.5 1111,-140 1101,-136.5 1101,-143.5"/>
</g>
<!-- op_tail_229 -->
<g id="node17" class="node">
<title>op_tail_229</title>
<polygon fill="#d8bfd8" stroke="transparent" points="808,-116 808,-166 897,-166 897,-116 808,-116"/>
<polygon fill="none" stroke="black" points="808.5,-141 808.5,-166 831.5,-166 831.5,-141 808.5,-141"/>
<text text-anchor="start" x="813.5" y="-149.8" font-family="Times,serif" font-size="14.00">●</text>
<polygon fill="none" stroke="black" points="831.5,-116 831.5,-166 874.5,-166 874.5,-116 831.5,-116"/>
<text text-anchor="start" x="836.5" y="-137.3" font-family="Times,serif" font-size="14.00"> tail </text>
<polygon fill="none" stroke="black" points="874.5,-116 874.5,-166 897.5,-166 897.5,-116 874.5,-116"/>
<text text-anchor="start" x="879.5" y="-137.3" font-family="Times,serif" font-size="14.00">●</text>
<polygon fill="none" stroke="black" points="808.5,-116 808.5,-141 831.5,-141 831.5,-116 808.5,-116"/>
<text text-anchor="start" x="815" y="-124.8" font-family="Times,serif" font-size="14.00">1</text>
</g>
<!-- op_tail_229&#45;&gt;op_asSInt_228 -->
<g id="edge34" class="edge">
<title>op_tail_229:out&#45;&gt;op_asSInt_228:in1</title>
<path fill="none" stroke="black" d="M898.5,-141C916.91,-141 923.87,-140.31 938.35,-140.08"/>
<polygon fill="black" stroke="black" points="938.53,-143.58 948.5,-140 938.47,-136.58 938.53,-143.58"/>
</g>
<!-- op_add_230 -->
<g id="node18" class="node">
<title>op_add_230</title>
<polygon fill="#d8bfd8" stroke="transparent" points="664,-129 664,-179 756,-179 756,-129 664,-129"/>
<polygon fill="none" stroke="black" points="664,-154 664,-179 687,-179 687,-154 664,-154"/>
<text text-anchor="start" x="669" y="-162.8" font-family="Times,serif" font-size="14.00">●</text>
<polygon fill="none" stroke="black" points="687,-129 687,-179 733,-179 733,-129 687,-129"/>
<text text-anchor="start" x="692" y="-150.3" font-family="Times,serif" font-size="14.00"> add </text>
<polygon fill="none" stroke="black" points="733,-129 733,-179 756,-179 756,-129 733,-129"/>
<text text-anchor="start" x="738" y="-150.3" font-family="Times,serif" font-size="14.00">●</text>
<polygon fill="none" stroke="black" points="664,-129 664,-154 687,-154 687,-129 664,-129"/>
<text text-anchor="start" x="669" y="-137.8" font-family="Times,serif" font-size="14.00">●</text>
</g>
<!-- op_add_230&#45;&gt;op_tail_229 -->
<g id="edge16" class="edge">
<title>op_add_230:out&#45;&gt;op_tail_229:in1</title>
<path fill="none" stroke="black" d="M757,-154C775.59,-154 782.63,-154 797.25,-154"/>
<polygon fill="black" stroke="black" points="797.5,-157.5 807.5,-154 797.5,-150.5 797.5,-157.5"/>
</g>
<!-- op_pad_231 -->
<g id="node19" class="node">
<title>op_pad_231</title>
<polygon fill="#d8bfd8" stroke="transparent" points="520,-183.5 520,-208.5 612,-208.5 612,-183.5 520,-183.5"/>
<polygon fill="none" stroke="black" points="520,-183 520,-208 543,-208 543,-183 520,-183"/>
<text text-anchor="start" x="525" y="-191.8" font-family="Times,serif" font-size="14.00">●</text>
<polygon fill="none" stroke="black" points="543,-183 543,-208 589,-208 589,-183 543,-183"/>
<text text-anchor="start" x="548" y="-191.8" font-family="Times,serif" font-size="14.00"> pad </text>
<polygon fill="none" stroke="black" points="589,-183 589,-208 612,-208 612,-183 589,-183"/>
<text text-anchor="start" x="594" y="-191.8" font-family="Times,serif" font-size="14.00">●</text>
</g>
<!-- op_pad_231&#45;&gt;op_add_230 -->
<g id="edge26" class="edge">
<title>op_pad_231:out&#45;&gt;op_add_230:in1</title>
<path fill="none" stroke="black" d="M613,-195C634.49,-195 637.18,-175.07 652.79,-168.84"/>
<polygon fill="black" stroke="black" points="653.78,-172.22 663,-167 652.54,-165.33 653.78,-172.22"/>
</g>
<!-- op_asSInt_232 -->
<g id="node20" class="node">
<title>op_asSInt_232</title>
<polygon fill="#d8bfd8" stroke="transparent" points="357,-183.5 357,-208.5 468,-208.5 468,-183.5 357,-183.5"/>
<polygon fill="none" stroke="black" points="357.5,-183 357.5,-208 380.5,-208 380.5,-183 357.5,-183"/>
<text text-anchor="start" x="362.5" y="-191.8" font-family="Times,serif" font-size="14.00">●</text>
<polygon fill="none" stroke="black" points="380.5,-183 380.5,-208 445.5,-208 445.5,-183 380.5,-183"/>
<text text-anchor="start" x="385.5" y="-191.8" font-family="Times,serif" font-size="14.00"> asSInt </text>
<polygon fill="none" stroke="black" points="445.5,-183 445.5,-208 468.5,-208 468.5,-183 445.5,-183"/>
<text text-anchor="start" x="450.5" y="-191.8" font-family="Times,serif" font-size="14.00">●</text>
</g>
<!-- op_asSInt_232&#45;&gt;op_pad_231 -->
<g id="edge12" class="edge">
<title>op_asSInt_232:out&#45;&gt;op_pad_231:in1</title>
<path fill="none" stroke="black" d="M469.5,-195C487.72,-195 494.62,-195 508.95,-195"/>
<polygon fill="black" stroke="black" points="509,-198.5 519,-195 509,-191.5 509,-198.5"/>
</g>
<!-- op_asUInt_233&#45;&gt;op_asSInt_232 -->
<g id="edge22" class="edge">
<title>op_asUInt_233:out&#45;&gt;op_asSInt_232:in1</title>
<path fill="none" stroke="black" d="M306,-195C324.59,-195 331.63,-195 346.25,-195"/>
<polygon fill="black" stroke="black" points="346.5,-198.5 356.5,-195 346.5,-191.5 346.5,-198.5"/>
</g>
<!-- op_pad_234 -->
<g id="node22" class="node">
<title>op_pad_234</title>
<polygon fill="#d8bfd8" stroke="transparent" points="520,-129.5 520,-154.5 612,-154.5 612,-129.5 520,-129.5"/>
<polygon fill="none" stroke="black" points="520,-129 520,-154 543,-154 543,-129 520,-129"/>
<text text-anchor="start" x="525" y="-137.8" font-family="Times,serif" font-size="14.00">●</text>
<polygon fill="none" stroke="black" points="543,-129 543,-154 589,-154 589,-129 543,-129"/>
<text text-anchor="start" x="548" y="-137.8" font-family="Times,serif" font-size="14.00"> pad </text>
<polygon fill="none" stroke="black" points="589,-129 589,-154 612,-154 612,-129 589,-129"/>
<text text-anchor="start" x="594" y="-137.8" font-family="Times,serif" font-size="14.00">●</text>
</g>
<!-- op_pad_234&#45;&gt;op_add_230 -->
<g id="edge15" class="edge">
<title>op_pad_234:out&#45;&gt;op_add_230:in2</title>
<path fill="none" stroke="black" d="M613,-141C631.4,-141 638.38,-141 652.85,-141"/>
<polygon fill="black" stroke="black" points="653,-144.5 663,-141 653,-137.5 653,-144.5"/>
</g>
<!-- op_asSInt_235 -->
<g id="node23" class="node">
<title>op_asSInt_235</title>
<polygon fill="#d8bfd8" stroke="transparent" points="357,-129.5 357,-154.5 468,-154.5 468,-129.5 357,-129.5"/>
<polygon fill="none" stroke="black" points="357.5,-129 357.5,-154 380.5,-154 380.5,-129 357.5,-129"/>
<text text-anchor="start" x="362.5" y="-137.8" font-family="Times,serif" font-size="14.00">●</text>
<polygon fill="none" stroke="black" points="380.5,-129 380.5,-154 445.5,-154 445.5,-129 380.5,-129"/>
<text text-anchor="start" x="385.5" y="-137.8" font-family="Times,serif" font-size="14.00"> asSInt </text>
<polygon fill="none" stroke="black" points="445.5,-129 445.5,-154 468.5,-154 468.5,-129 445.5,-129"/>
<text text-anchor="start" x="450.5" y="-137.8" font-family="Times,serif" font-size="14.00">●</text>
</g>
<!-- op_asSInt_235&#45;&gt;op_pad_234 -->
<g id="edge1" class="edge">
<title>op_asSInt_235:out&#45;&gt;op_pad_234:in1</title>
<path fill="none" stroke="black" d="M469.5,-141C487.72,-141 494.62,-141 508.95,-141"/>
<polygon fill="black" stroke="black" points="509,-144.5 519,-141 509,-137.5 509,-144.5"/>
</g>
<!-- op_asUInt_236&#45;&gt;op_asSInt_235 -->
<g id="edge17" class="edge">
<title>op_asUInt_236:out&#45;&gt;op_asSInt_235:in1</title>
<path fill="none" stroke="black" d="M306,-141C324.59,-141 331.63,-141 346.25,-141"/>
<polygon fill="black" stroke="black" points="346.5,-144.5 356.5,-141 346.5,-137.5 346.5,-144.5"/>
</g>
<!-- op_asSInt_237 -->
<g id="node25" class="node">
<title>op_asSInt_237</title>
<polygon fill="#d8bfd8" stroke="transparent" points="949,-62.5 949,-87.5 1060,-87.5 1060,-62.5 949,-62.5"/>
<polygon fill="none" stroke="black" points="949.5,-62 949.5,-87 972.5,-87 972.5,-62 949.5,-62"/>
<text text-anchor="start" x="954.5" y="-70.8" font-family="Times,serif" font-size="14.00">●</text>
<polygon fill="none" stroke="black" points="972.5,-62 972.5,-87 1037.5,-87 1037.5,-62 972.5,-62"/>
<text text-anchor="start" x="977.5" y="-70.8" font-family="Times,serif" font-size="14.00"> asSInt </text>
<polygon fill="none" stroke="black" points="1037.5,-62 1037.5,-87 1060.5,-87 1060.5,-62 1037.5,-62"/>
<text text-anchor="start" x="1042.5" y="-70.8" font-family="Times,serif" font-size="14.00">●</text>
</g>
<!-- op_asSInt_237&#45;&gt;op_add_227 -->
<g id="edge2" class="edge">
<title>op_asSInt_237:out&#45;&gt;op_add_227:in2</title>
<path fill="none" stroke="black" d="M1061.5,-74C1085.81,-74 1084,-103.54 1100.97,-111.85"/>
<polygon fill="black" stroke="black" points="1100.49,-115.33 1111,-114 1101.96,-108.48 1100.49,-115.33"/>
</g>
<!-- op_tail_238 -->
<g id="node26" class="node">
<title>op_tail_238</title>
<polygon fill="#d8bfd8" stroke="transparent" points="808,-38 808,-88 897,-88 897,-38 808,-38"/>
<polygon fill="none" stroke="black" points="808.5,-63 808.5,-88 831.5,-88 831.5,-63 808.5,-63"/>
<text text-anchor="start" x="813.5" y="-71.8" font-family="Times,serif" font-size="14.00">●</text>
<polygon fill="none" stroke="black" points="831.5,-38 831.5,-88 874.5,-88 874.5,-38 831.5,-38"/>
<text text-anchor="start" x="836.5" y="-59.3" font-family="Times,serif" font-size="14.00"> tail </text>
<polygon fill="none" stroke="black" points="874.5,-38 874.5,-88 897.5,-88 897.5,-38 874.5,-38"/>
<text text-anchor="start" x="879.5" y="-59.3" font-family="Times,serif" font-size="14.00">●</text>
<polygon fill="none" stroke="black" points="808.5,-38 808.5,-63 831.5,-63 831.5,-38 808.5,-38"/>
<text text-anchor="start" x="815" y="-46.8" font-family="Times,serif" font-size="14.00">1</text>
</g>
<!-- op_tail_238&#45;&gt;op_asSInt_237 -->
<g id="edge28" class="edge">
<title>op_tail_238:out&#45;&gt;op_asSInt_237:in1</title>
<path fill="none" stroke="black" d="M898.5,-63C917.34,-63 923.66,-70.54 938.2,-73.14"/>
<polygon fill="black" stroke="black" points="938.24,-76.65 948.5,-74 938.83,-69.68 938.24,-76.65"/>
</g>
<!-- op_add_239 -->
<g id="node27" class="node">
<title>op_add_239</title>
<polygon fill="#d8bfd8" stroke="transparent" points="664,-49 664,-99 756,-99 756,-49 664,-49"/>
<polygon fill="none" stroke="black" points="664,-74 664,-99 687,-99 687,-74 664,-74"/>
<text text-anchor="start" x="669" y="-82.8" font-family="Times,serif" font-size="14.00">●</text>
<polygon fill="none" stroke="black" points="687,-49 687,-99 733,-99 733,-49 687,-49"/>
<text text-anchor="start" x="692" y="-70.3" font-family="Times,serif" font-size="14.00"> add </text>
<polygon fill="none" stroke="black" points="733,-49 733,-99 756,-99 756,-49 733,-49"/>
<text text-anchor="start" x="738" y="-70.3" font-family="Times,serif" font-size="14.00">●</text>
<polygon fill="none" stroke="black" points="664,-49 664,-74 687,-74 687,-49 664,-49"/>
<text text-anchor="start" x="669" y="-57.8" font-family="Times,serif" font-size="14.00">●</text>
</g>
<!-- op_add_239&#45;&gt;op_tail_238 -->
<g id="edge11" class="edge">
<title>op_add_239:out&#45;&gt;op_tail_238:in1</title>
<path fill="none" stroke="black" d="M757,-74C775.6,-74 782.62,-75.37 797.24,-75.84"/>
<polygon fill="black" stroke="black" points="797.45,-79.35 807.5,-76 797.55,-72.35 797.45,-79.35"/>
</g>
<!-- op_pad_240 -->
<g id="node28" class="node">
<title>op_pad_240</title>
<polygon fill="#d8bfd8" stroke="transparent" points="520,-75.5 520,-100.5 612,-100.5 612,-75.5 520,-75.5"/>
<polygon fill="none" stroke="black" points="520,-75 520,-100 543,-100 543,-75 520,-75"/>
<text text-anchor="start" x="525" y="-83.8" font-family="Times,serif" font-size="14.00">●</text>
<polygon fill="none" stroke="black" points="543,-75 543,-100 589,-100 589,-75 543,-75"/>
<text text-anchor="start" x="548" y="-83.8" font-family="Times,serif" font-size="14.00"> pad </text>
<polygon fill="none" stroke="black" points="589,-75 589,-100 612,-100 612,-75 589,-75"/>
<text text-anchor="start" x="594" y="-83.8" font-family="Times,serif" font-size="14.00">●</text>
</g>
<!-- op_pad_240&#45;&gt;op_add_239 -->
<g id="edge10" class="edge">
<title>op_pad_240:out&#45;&gt;op_add_239:in1</title>
<path fill="none" stroke="black" d="M613,-87C631.4,-87 638.38,-87 652.85,-87"/>
<polygon fill="black" stroke="black" points="653,-90.5 663,-87 653,-83.5 653,-90.5"/>
</g>
<!-- op_asSInt_241 -->
<g id="node29" class="node">
<title>op_asSInt_241</title>
<polygon fill="#d8bfd8" stroke="transparent" points="357,-75.5 357,-100.5 468,-100.5 468,-75.5 357,-75.5"/>
<polygon fill="none" stroke="black" points="357.5,-75 357.5,-100 380.5,-100 380.5,-75 357.5,-75"/>
<text text-anchor="start" x="362.5" y="-83.8" font-family="Times,serif" font-size="14.00">●</text>
<polygon fill="none" stroke="black" points="380.5,-75 380.5,-100 445.5,-100 445.5,-75 380.5,-75"/>
<text text-anchor="start" x="385.5" y="-83.8" font-family="Times,serif" font-size="14.00"> asSInt </text>
<polygon fill="none" stroke="black" points="445.5,-75 445.5,-100 468.5,-100 468.5,-75 445.5,-75"/>
<text text-anchor="start" x="450.5" y="-83.8" font-family="Times,serif" font-size="14.00">●</text>
</g>
<!-- op_asSInt_241&#45;&gt;op_pad_240 -->
<g id="edge7" class="edge">
<title>op_asSInt_241:out&#45;&gt;op_pad_240:in1</title>
<path fill="none" stroke="black" d="M469.5,-87C487.72,-87 494.62,-87 508.95,-87"/>
<polygon fill="black" stroke="black" points="509,-90.5 519,-87 509,-83.5 509,-90.5"/>
</g>
<!-- op_asUInt_242&#45;&gt;op_asSInt_241 -->
<g id="edge18" class="edge">
<title>op_asUInt_242:out&#45;&gt;op_asSInt_241:in1</title>
<path fill="none" stroke="black" d="M306,-87C324.59,-87 331.63,-87 346.25,-87"/>
<polygon fill="black" stroke="black" points="346.5,-90.5 356.5,-87 346.5,-83.5 346.5,-90.5"/>
</g>
<!-- op_pad_243 -->
<g id="node31" class="node">
<title>op_pad_243</title>
<polygon fill="#d8bfd8" stroke="transparent" points="520,-21.5 520,-46.5 612,-46.5 612,-21.5 520,-21.5"/>
<polygon fill="none" stroke="black" points="520,-21 520,-46 543,-46 543,-21 520,-21"/>
<text text-anchor="start" x="525" y="-29.8" font-family="Times,serif" font-size="14.00">●</text>
<polygon fill="none" stroke="black" points="543,-21 543,-46 589,-46 589,-21 543,-21"/>
<text text-anchor="start" x="548" y="-29.8" font-family="Times,serif" font-size="14.00"> pad </text>
<polygon fill="none" stroke="black" points="589,-21 589,-46 612,-46 612,-21 589,-21"/>
<text text-anchor="start" x="594" y="-29.8" font-family="Times,serif" font-size="14.00">●</text>
</g>
<!-- op_pad_243&#45;&gt;op_add_239 -->
<g id="edge27" class="edge">
<title>op_pad_243:out&#45;&gt;op_add_239:in2</title>
<path fill="none" stroke="black" d="M613,-33C634.49,-33 637.18,-52.93 652.79,-59.16"/>
<polygon fill="black" stroke="black" points="652.54,-62.67 663,-61 653.78,-55.78 652.54,-62.67"/>
</g>
<!-- op_asSInt_244 -->
<g id="node32" class="node">
<title>op_asSInt_244</title>
<polygon fill="#d8bfd8" stroke="transparent" points="357,-21.5 357,-46.5 468,-46.5 468,-21.5 357,-21.5"/>
<polygon fill="none" stroke="black" points="357.5,-21 357.5,-46 380.5,-46 380.5,-21 357.5,-21"/>
<text text-anchor="start" x="362.5" y="-29.8" font-family="Times,serif" font-size="14.00">●</text>
<polygon fill="none" stroke="black" points="380.5,-21 380.5,-46 445.5,-46 445.5,-21 380.5,-21"/>
<text text-anchor="start" x="385.5" y="-29.8" font-family="Times,serif" font-size="14.00"> asSInt </text>
<polygon fill="none" stroke="black" points="445.5,-21 445.5,-46 468.5,-46 468.5,-21 445.5,-21"/>
<text text-anchor="start" x="450.5" y="-29.8" font-family="Times,serif" font-size="14.00">●</text>
</g>
<!-- op_asSInt_244&#45;&gt;op_pad_243 -->
<g id="edge32" class="edge">
<title>op_asSInt_244:out&#45;&gt;op_pad_243:in1</title>
<path fill="none" stroke="black" d="M469.5,-33C487.72,-33 494.62,-33 508.95,-33"/>
<polygon fill="black" stroke="black" points="509,-36.5 519,-33 509,-29.5 509,-36.5"/>
</g>
<!-- op_asUInt_245&#45;&gt;op_asSInt_244 -->
<g id="edge13" class="edge">
<title>op_asUInt_245:out&#45;&gt;op_asSInt_244:in1</title>
<path fill="none" stroke="black" d="M306,-33C324.59,-33 331.63,-33 346.25,-33"/>
<polygon fill="black" stroke="black" points="346.5,-36.5 356.5,-33 346.5,-29.5 346.5,-36.5"/>
</g>
<!-- op_pad_246 -->
<g id="node34" class="node">
<title>op_pad_246</title>
<polygon fill="#d8bfd8" stroke="transparent" points="1565,-23.5 1565,-48.5 1657,-48.5 1657,-23.5 1565,-23.5"/>
<polygon fill="none" stroke="black" points="1565,-23 1565,-48 1588,-48 1588,-23 1565,-23"/>
<text text-anchor="start" x="1570" y="-31.8" font-family="Times,serif" font-size="14.00">●</text>
<polygon fill="none" stroke="black" points="1588,-23 1588,-48 1634,-48 1634,-23 1588,-23"/>
<text text-anchor="start" x="1593" y="-31.8" font-family="Times,serif" font-size="14.00"> pad </text>
<polygon fill="none" stroke="black" points="1634,-23 1634,-48 1657,-48 1657,-23 1634,-23"/>
<text text-anchor="start" x="1639" y="-31.8" font-family="Times,serif" font-size="14.00">●</text>
</g>
<!-- op_pad_246&#45;&gt;op_mul_223 -->
<g id="edge24" class="edge">
<title>op_pad_246:out&#45;&gt;op_mul_223:in2</title>
<path fill="none" stroke="black" d="M1658,-35C1682.39,-35 1684.97,-58.1 1703.4,-64.42"/>
<polygon fill="black" stroke="black" points="1703.08,-67.91 1713.5,-66 1704.16,-61 1703.08,-67.91"/>
</g>
<!-- op_cvt_247&#45;&gt;op_pad_246 -->
<g id="edge23" class="edge">
<title>op_cvt_247:out&#45;&gt;op_pad_246:in1</title>
<path fill="none" stroke="black" d="M1497.5,-35C1523.36,-35 1532.25,-35 1553.87,-35"/>
<polygon fill="black" stroke="black" points="1554,-38.5 1564,-35 1554,-31.5 1554,-38.5"/>
</g>
</g>
</svg>
