<?xml version="1.0" encoding="UTF-8" standalone="no"?>
<?xml-stylesheet href="styles.css" type="text/css"?>
<!DOCTYPE svg PUBLIC "-//W3C//DTD SVG 1.1//EN"
 "http://www.w3.org/Graphics/SVG/1.1/DTD/svg11.dtd">
<!-- Generated by graphviz version 2.40.1 (0)
 -->
<!-- Title: GeneratorStateDecoder Pages: 1 -->
<svg width="837pt" height="197pt"
 viewBox="0.00 0.00 837.00 197.00" xmlns="http://www.w3.org/2000/svg" xmlns:xlink="http://www.w3.org/1999/xlink">
<g id="graph0" class="graph" transform="scale(1 1) rotate(0) translate(4 193)">
<title>GeneratorStateDecoder</title>
<polygon fill="#ffffff" stroke="transparent" points="-4,4 -4,-193 833,-193 833,4 -4,4"/>
<g id="clust1" class="cluster">
<title>cluster_GeneratorStateDecoder</title>
<polygon fill="#fff8dc" stroke="#000000" points="8,-8 8,-181 821,-181 821,-8 8,-8"/>
<text text-anchor="middle" x="414.5" y="-165.8" font-family="Times,serif" font-size="14.00" fill="#000000">GeneratorStateDecoder</text>
</g>
<!-- cluster_GeneratorStateDecoder_io_packetIn_generatorUpdatePacket -->
<g id="node1" class="node">
<title>cluster_GeneratorStateDecoder_io_packetIn_generatorUpdatePacket</title>
<polygon fill="#cccccc" stroke="#000000" points="291,-113 16,-113 16,-77 291,-77 291,-113"/>
<text text-anchor="middle" x="153.5" y="-91.3" font-family="Times,serif" font-size="14.00" fill="#000000">io_packetIn_generatorUpdatePacket</text>
</g>
<!-- op_bits_1057 -->
<g id="node4" class="node">
<title>op_bits_1057</title>
<polygon fill="#d8bfd8" stroke="transparent" points="339.5,-20 339.5,-70 466.5,-70 466.5,-20 339.5,-20"/>
<polygon fill="none" stroke="#000000" points="340,-45 340,-70 397,-70 397,-45 340,-45"/>
<text text-anchor="start" x="362" y="-53.8" font-family="Times,serif" font-size="14.00" fill="#000000">●</text>
<polygon fill="none" stroke="#000000" points="397,-20 397,-70 444,-70 444,-20 397,-20"/>
<text text-anchor="start" x="402" y="-41.3" font-family="Times,serif" font-size="14.00" fill="#000000"> bits </text>
<polygon fill="none" stroke="#000000" points="444,-20 444,-70 467,-70 467,-20 444,-20"/>
<text text-anchor="start" x="449" y="-41.3" font-family="Times,serif" font-size="14.00" fill="#000000">●</text>
<polygon fill="none" stroke="#000000" points="340,-20 340,-45 397,-45 397,-20 340,-20"/>
<text text-anchor="start" x="345" y="-28.8" font-family="Times,serif" font-size="14.00" fill="#000000">(15, 0)</text>
</g>
<!-- cluster_GeneratorStateDecoder_io_packetIn_generatorUpdatePacket&#45;&gt;op_bits_1057 -->
<g id="edge1" class="edge">
<title>cluster_GeneratorStateDecoder_io_packetIn_generatorUpdatePacket&#45;&gt;op_bits_1057:in1</title>
<path fill="none" stroke="#000000" d="M213.3783,-76.9336C246.8298,-68.2751 289.7458,-59.4899 329.8673,-58.1701"/>
<polygon fill="#000000" stroke="#000000" points="330.0602,-61.6674 340,-58 329.9426,-54.6684 330.0602,-61.6674"/>
</g>
<!-- op_bits_1058 -->
<g id="node5" class="node">
<title>op_bits_1058</title>
<polygon fill="#d8bfd8" stroke="transparent" points="335,-96 335,-146 471,-146 471,-96 335,-96"/>
<polygon fill="none" stroke="#000000" points="335,-121 335,-146 401,-146 401,-121 335,-121"/>
<text text-anchor="start" x="361.5" y="-129.8" font-family="Times,serif" font-size="14.00" fill="#000000">●</text>
<polygon fill="none" stroke="#000000" points="401,-96 401,-146 448,-146 448,-96 401,-96"/>
<text text-anchor="start" x="406" y="-117.3" font-family="Times,serif" font-size="14.00" fill="#000000"> bits </text>
<polygon fill="none" stroke="#000000" points="448,-96 448,-146 471,-146 471,-96 448,-96"/>
<text text-anchor="start" x="453" y="-117.3" font-family="Times,serif" font-size="14.00" fill="#000000">●</text>
<polygon fill="none" stroke="#000000" points="335,-96 335,-121 401,-121 401,-96 335,-96"/>
<text text-anchor="start" x="340" y="-104.8" font-family="Times,serif" font-size="14.00" fill="#000000">(87, 16)</text>
</g>
<!-- cluster_GeneratorStateDecoder_io_packetIn_generatorUpdatePacket&#45;&gt;op_bits_1058 -->
<g id="edge2" class="edge">
<title>cluster_GeneratorStateDecoder_io_packetIn_generatorUpdatePacket&#45;&gt;op_bits_1058:in1</title>
<path fill="none" stroke="#000000" d="M208.0498,-113.0159C240.9628,-122.4363 284.2413,-132.3212 324.7648,-133.8083"/>
<polygon fill="#000000" stroke="#000000" points="324.9362,-137.312 335,-134 325.0673,-130.3132 324.9362,-137.312"/>
</g>
<!-- cluster_GeneratorStateDecoder_io_indexOut -->
<g id="node2" class="node">
<title>cluster_GeneratorStateDecoder_io_indexOut</title>
<polygon fill="#e0ffff" stroke="#000000" points="714.5,-63 613.5,-63 613.5,-27 714.5,-27 714.5,-63"/>
<text text-anchor="middle" x="664" y="-41.3" font-family="Times,serif" font-size="14.00" fill="#000000">io_indexOut</text>
</g>
<!-- cluster_GeneratorStateDecoder_io_GeneratorPacketOut_generatorInput -->
<g id="node3" class="node">
<title>cluster_GeneratorStateDecoder_io_GeneratorPacketOut_generatorInput</title>
<polygon fill="#e0ffff" stroke="#000000" points="813,-139 515,-139 515,-103 813,-103 813,-139"/>
<text text-anchor="middle" x="664" y="-117.3" font-family="Times,serif" font-size="14.00" fill="#000000">io_GeneratorPacketOut_generatorInput</text>
</g>
<!-- op_bits_1057&#45;&gt;cluster_GeneratorStateDecoder_io_indexOut -->
<g id="edge4" class="edge">
<title>op_bits_1057:out&#45;&gt;cluster_GeneratorStateDecoder_io_indexOut</title>
<path fill="none" stroke="#000000" d="M467,-45C512.6809,-45 564.3201,-45 603.2656,-45"/>
<polygon fill="#000000" stroke="#000000" points="603.389,-48.5001 613.3889,-45 603.3889,-41.5001 603.389,-48.5001"/>
</g>
<!-- op_bits_1058&#45;&gt;cluster_GeneratorStateDecoder_io_GeneratorPacketOut_generatorInput -->
<g id="edge3" class="edge">
<title>op_bits_1058:out&#45;&gt;cluster_GeneratorStateDecoder_io_GeneratorPacketOut_generatorInput</title>
<path fill="none" stroke="#000000" d="M471,-121C482.0141,-121 493.3818,-121 504.8306,-121"/>
<polygon fill="#000000" stroke="#000000" points="504.9058,-124.5001 514.9057,-121 504.9057,-117.5001 504.9058,-124.5001"/>
</g>
</g>
</svg>
