<?xml version="1.0" encoding="UTF-8" standalone="no"?>
<?xml-stylesheet href="styles.css" type="text/css"?>
<!DOCTYPE svg PUBLIC "-//W3C//DTD SVG 1.1//EN"
 "http://www.w3.org/Graphics/SVG/1.1/DTD/svg11.dtd">
<!-- Generated by graphviz version 2.40.1 (0)
 -->
<!-- Title: GlobalStateDecoder Pages: 1 -->
<svg width="716pt" height="249pt"
 viewBox="0.00 0.00 716.00 249.00" xmlns="http://www.w3.org/2000/svg" xmlns:xlink="http://www.w3.org/1999/xlink">
<g id="graph0" class="graph" transform="scale(1 1) rotate(0) translate(4 245)">
<title>GlobalStateDecoder</title>
<polygon fill="#ffffff" stroke="transparent" points="-4,4 -4,-245 712,-245 712,4 -4,4"/>
<g id="clust1" class="cluster">
<title>cluster_GlobalStateDecoder</title>
<polygon fill="#fff8dc" stroke="#000000" points="8,-8 8,-233 700,-233 700,-8 8,-8"/>
<text text-anchor="middle" x="354" y="-217.8" font-family="Times,serif" font-size="14.00" fill="#000000">GlobalStateDecoder</text>
</g>
<!-- cluster_GlobalStateDecoder_clock -->
<g id="node1" class="node">
<title>cluster_GlobalStateDecoder_clock</title>
<polygon fill="#cccccc" stroke="#000000" points="70,-160 16,-160 16,-124 70,-124 70,-160"/>
<text text-anchor="middle" x="43" y="-138.3" font-family="Times,serif" font-size="14.00" fill="#000000">clock</text>
</g>
<!-- cluster_GlobalStateDecoder_reset -->
<g id="node2" class="node">
<title>cluster_GlobalStateDecoder_reset</title>
<polygon fill="#cccccc" stroke="#000000" points="70,-83 16,-83 16,-47 70,-47 70,-83"/>
<text text-anchor="middle" x="43" y="-61.3" font-family="Times,serif" font-size="14.00" fill="#000000">reset</text>
</g>
<!-- mux_1272730676 -->
<g id="node7" class="node">
<title>mux_1272730676</title>
<polygon fill="#afeeee" stroke="transparent" points="194,-40 194,-90 266,-90 266,-40 194,-40"/>
<polygon fill="none" stroke="#000000" points="194,-65 194,-90 217,-90 217,-65 194,-65"/>
<text text-anchor="start" x="200.5" y="-73.8" font-family="Times,serif" font-size="14.00" fill="#000000">0</text>
<polygon fill="none" stroke="#000000" points="217,-40 217,-90 243,-90 243,-40 217,-40"/>
<text text-anchor="start" x="222" y="-61.3" font-family="Times,serif" font-size="14.00" fill="#000000">a?</text>
<polygon fill="none" stroke="#000000" points="243,-40 243,-90 266,-90 266,-40 243,-40"/>
<text text-anchor="start" x="248" y="-61.3" font-family="Times,serif" font-size="14.00" fill="#000000">●</text>
<polygon fill="none" stroke="#000000" points="194,-40 194,-65 217,-65 217,-40 194,-40"/>
<text text-anchor="start" x="199" y="-48.8" font-family="Times,serif" font-size="14.00" fill="#000000">●</text>
</g>
<!-- cluster_GlobalStateDecoder_reset&#45;&gt;mux_1272730676 -->
<g id="edge2" class="edge">
<title>cluster_GlobalStateDecoder_reset&#45;&gt;mux_1272730676:select</title>
<path fill="none" stroke="#000000" d="M70.1914,-50.3347C119.0165,-25.3755 217.5428,18.2091 228.9212,-29.9206"/>
<polygon fill="#000000" stroke="#000000" points="225.4556,-30.4293 230,-40 232.4158,-29.6843 225.4556,-30.4293"/>
</g>
<!-- cluster_GlobalStateDecoder_io_packetIn_globalUpdatePacket -->
<g id="node3" class="node">
<title>cluster_GlobalStateDecoder_io_packetIn_globalUpdatePacket</title>
<polygon fill="#cccccc" stroke="#000000" points="354,-202 106,-202 106,-166 354,-166 354,-202"/>
<text text-anchor="middle" x="230" y="-180.3" font-family="Times,serif" font-size="14.00" fill="#000000">io_packetIn_globalUpdatePacket</text>
</g>
<!-- op_bits_1131 -->
<g id="node9" class="node">
<title>op_bits_1131</title>
<polygon fill="#d8bfd8" stroke="transparent" points="402.5,-148 402.5,-198 529.5,-198 529.5,-148 402.5,-148"/>
<polygon fill="none" stroke="#000000" points="403,-173 403,-198 460,-198 460,-173 403,-173"/>
<text text-anchor="start" x="425" y="-181.8" font-family="Times,serif" font-size="14.00" fill="#000000">●</text>
<polygon fill="none" stroke="#000000" points="460,-148 460,-198 507,-198 507,-148 460,-148"/>
<text text-anchor="start" x="465" y="-169.3" font-family="Times,serif" font-size="14.00" fill="#000000"> bits </text>
<polygon fill="none" stroke="#000000" points="507,-148 507,-198 530,-198 530,-148 507,-148"/>
<text text-anchor="start" x="512" y="-169.3" font-family="Times,serif" font-size="14.00" fill="#000000">●</text>
<polygon fill="none" stroke="#000000" points="403,-148 403,-173 460,-173 460,-148 403,-148"/>
<text text-anchor="start" x="408" y="-156.8" font-family="Times,serif" font-size="14.00" fill="#000000">(15, 0)</text>
</g>
<!-- cluster_GlobalStateDecoder_io_packetIn_globalUpdatePacket&#45;&gt;op_bits_1131 -->
<g id="edge8" class="edge">
<title>cluster_GlobalStateDecoder_io_packetIn_globalUpdatePacket&#45;&gt;op_bits_1131:in1</title>
<path fill="none" stroke="#000000" d="M354.2628,-185.7822C367.196,-185.8877 380.2455,-185.9623 392.9225,-185.9891"/>
<polygon fill="#000000" stroke="#000000" points="392.9962,-189.4891 403,-186 393.0038,-182.4891 392.9962,-189.4891"/>
</g>
<!-- cluster_GlobalStateDecoder_io_writeEnable -->
<g id="node4" class="node">
<title>cluster_GlobalStateDecoder_io_writeEnable</title>
<polygon fill="#cccccc" stroke="#000000" points="527.5,-126 404.5,-126 404.5,-90 527.5,-90 527.5,-126"/>
<text text-anchor="middle" x="466" y="-104.3" font-family="Times,serif" font-size="14.00" fill="#000000">io_writeEnable</text>
</g>
<!-- mux_87964082 -->
<g id="node8" class="node">
<title>mux_87964082</title>
<polygon fill="#afeeee" stroke="transparent" points="599,-78 599,-128 671,-128 671,-78 599,-78"/>
<polygon fill="none" stroke="#000000" points="599,-103 599,-128 622,-128 622,-103 599,-103"/>
<text text-anchor="start" x="604" y="-111.8" font-family="Times,serif" font-size="14.00" fill="#000000">●</text>
<polygon fill="none" stroke="#000000" points="622,-78 622,-128 648,-128 648,-78 622,-78"/>
<text text-anchor="start" x="627" y="-99.3" font-family="Times,serif" font-size="14.00" fill="#000000">a?</text>
<polygon fill="none" stroke="#000000" points="648,-78 648,-128 671,-128 671,-78 648,-78"/>
<text text-anchor="start" x="653" y="-99.3" font-family="Times,serif" font-size="14.00" fill="#000000">●</text>
<polygon fill="none" stroke="#000000" points="599,-78 599,-103 622,-103 622,-78 599,-78"/>
<text text-anchor="start" x="604" y="-86.8" font-family="Times,serif" font-size="14.00" fill="#000000">●</text>
</g>
<!-- cluster_GlobalStateDecoder_io_writeEnable&#45;&gt;mux_87964082 -->
<g id="edge4" class="edge">
<title>cluster_GlobalStateDecoder_io_writeEnable&#45;&gt;mux_87964082:select</title>
<path fill="none" stroke="#000000" d="M526.0589,-126.084C566.2855,-136.8162 614.5976,-146.5874 630.0166,-136.7931"/>
<polygon fill="#000000" stroke="#000000" points="633.1143,-138.4257 635,-128 627.0243,-134.9742 633.1143,-138.4257"/>
</g>
<!-- cluster_GlobalStateDecoder_io_volumeOut -->
<g id="node5" class="node">
<title>cluster_GlobalStateDecoder_io_volumeOut</title>
<polygon fill="#e0ffff" stroke="#000000" points="692,-52 578,-52 578,-16 692,-16 692,-52"/>
<text text-anchor="middle" x="635" y="-30.3" font-family="Times,serif" font-size="14.00" fill="#000000">io_volumeOut</text>
</g>
<!-- struct_cluster_GlobalStateDecoder_volumeReg -->
<g id="node6" class="node">
<title>struct_cluster_GlobalStateDecoder_volumeReg</title>
<polygon fill="#ffe4b5" stroke="transparent" points="398,-21.5 398,-46.5 534,-46.5 534,-21.5 398,-21.5"/>
<polygon fill="none" stroke="#000000" points="398,-21 398,-46 421,-46 421,-21 398,-21"/>
<text text-anchor="start" x="403" y="-29.8" font-family="Times,serif" font-size="14.00" fill="#000000">●</text>
<polygon fill="none" stroke="#000000" points="421,-21 421,-46 511,-46 511,-21 421,-21"/>
<text text-anchor="start" x="426" y="-29.8" font-family="Times,serif" font-size="14.00" fill="#000000">volumeReg</text>
<polygon fill="none" stroke="#000000" points="511,-21 511,-46 534,-46 534,-21 511,-21"/>
<text text-anchor="start" x="516" y="-29.8" font-family="Times,serif" font-size="14.00" fill="#000000">●</text>
</g>
<!-- struct_cluster_GlobalStateDecoder_volumeReg&#45;&gt;cluster_GlobalStateDecoder_io_volumeOut -->
<g id="edge1" class="edge">
<title>struct_cluster_GlobalStateDecoder_volumeReg:out&#45;&gt;cluster_GlobalStateDecoder_io_volumeOut</title>
<path fill="none" stroke="#000000" d="M534,-33C544.8748,-33 556.4079,-33.0587 567.6422,-33.1476"/>
<polygon fill="#000000" stroke="#000000" points="567.8176,-36.6492 577.8479,-33.237 567.879,-29.6495 567.8176,-36.6492"/>
</g>
<!-- struct_cluster_GlobalStateDecoder_volumeReg&#45;&gt;mux_87964082 -->
<g id="edge5" class="edge">
<title>struct_cluster_GlobalStateDecoder_volumeReg:out&#45;&gt;mux_87964082:in2</title>
<path fill="none" stroke="#000000" d="M534,-33C568.671,-33 562.4111,-79.4108 589.0878,-88.4754"/>
<polygon fill="#000000" stroke="#000000" points="588.5841,-91.939 599,-90 589.6483,-85.0204 588.5841,-91.939"/>
</g>
<!-- mux_1272730676&#45;&gt;struct_cluster_GlobalStateDecoder_volumeReg -->
<g id="edge3" class="edge">
<title>mux_1272730676:out&#45;&gt;struct_cluster_GlobalStateDecoder_volumeReg:in</title>
<path fill="none" stroke="#000000" d="M266,-65C322.8289,-65 336.145,-36.6401 387.8747,-33.3167"/>
<polygon fill="#000000" stroke="#000000" points="388.1143,-36.811 398,-33 387.8954,-29.8145 388.1143,-36.811"/>
</g>
<!-- mux_87964082&#45;&gt;mux_1272730676 -->
<g id="edge6" class="edge">
<title>mux_87964082:out&#45;&gt;mux_1272730676:in2</title>
<path fill="none" stroke="#000000" d="M660,-78C660,-62.9703 404.9198,-62.814 390,-61 337.9894,-54.6765 326.1836,-44.6854 274,-40 247.99,-37.6646 216.2423,-17.0685 207.3903,-29.9427"/>
<polygon fill="#000000" stroke="#000000" points="203.9072,-29.4617 205,-40 210.7175,-31.0803 203.9072,-29.4617"/>
</g>
<!-- op_bits_1131&#45;&gt;mux_87964082 -->
<g id="edge7" class="edge">
<title>op_bits_1131:out&#45;&gt;mux_87964082:in1</title>
<path fill="none" stroke="#000000" d="M519,-148C519,-144.1481 567.7022,-125.7747 589.2207,-118.7445"/>
<polygon fill="#000000" stroke="#000000" points="590.3177,-122.0719 599,-116 588.4262,-115.3323 590.3177,-122.0719"/>
</g>
</g>
</svg>
