<?xml version="1.0" encoding="UTF-8" standalone="no"?>
<?xml-stylesheet href="styles.css" type="text/css"?>
<!DOCTYPE svg PUBLIC "-//W3C//DTD SVG 1.1//EN"
 "http://www.w3.org/Graphics/SVG/1.1/DTD/svg11.dtd">
<!-- Generated by graphviz version 2.40.1 (20161225.0304)
 -->
<!-- Title: PWM Pages: 1 -->
<svg width="747pt" height="270pt"
 viewBox="0.00 0.00 747.00 270.27" xmlns="http://www.w3.org/2000/svg" xmlns:xlink="http://www.w3.org/1999/xlink">
<g id="graph0" class="graph" transform="scale(1 1) rotate(0) translate(4 266.2667)">
<title>PWM</title>
<polygon fill="#ffffff" stroke="transparent" points="-4,4 -4,-266.2667 743,-266.2667 743,4 -4,4"/>
<g id="clust1" class="cluster">
<title>cluster_PWM</title>
<polygon fill="#fff8dc" stroke="#000000" points="8,-61.2667 8,-254.2667 731,-254.2667 731,-61.2667 8,-61.2667"/>
<text text-anchor="middle" x="369.5" y="-239.0667" font-family="Times,serif" font-size="14.00" fill="#000000">PWM</text>
</g>
<!-- cluster_PWM_clock -->
<g id="node1" class="node">
<title>cluster_PWM_clock</title>
<polygon fill="#cccccc" stroke="#000000" points="70,-209.2667 16,-209.2667 16,-173.2667 70,-173.2667 70,-209.2667"/>
<text text-anchor="middle" x="43" y="-187.5667" font-family="Times,serif" font-size="14.00" fill="#000000">clock</text>
</g>
<!-- cluster_PWM_reset -->
<g id="node2" class="node">
<title>cluster_PWM_reset</title>
<polygon fill="#cccccc" stroke="#000000" points="70,-129.2667 16,-129.2667 16,-93.2667 70,-93.2667 70,-129.2667"/>
<text text-anchor="middle" x="43" y="-107.5667" font-family="Times,serif" font-size="14.00" fill="#000000">reset</text>
</g>
<!-- mux_807391045 -->
<g id="node8" class="node">
<title>mux_807391045</title>
<polygon fill="#afeeee" stroke="transparent" points="114,-86.2667 114,-136.2667 175,-136.2667 175,-86.2667 114,-86.2667"/>
<polygon fill="none" stroke="#000000" points="114.5,-111.2667 114.5,-136.2667 133.5,-136.2667 133.5,-111.2667 114.5,-111.2667"/>
<text text-anchor="start" x="120.5" y="-120.0667" font-family="Times,serif" font-size="14.00" fill="#000000">0</text>
<polygon fill="none" stroke="#000000" points="133.5,-86.2667 133.5,-136.2667 156.5,-136.2667 156.5,-86.2667 133.5,-86.2667"/>
<text text-anchor="start" x="138.5" y="-107.5667" font-family="Times,serif" font-size="14.00" fill="#000000">a?</text>
<polygon fill="none" stroke="#000000" points="156.5,-86.2667 156.5,-136.2667 175.5,-136.2667 175.5,-86.2667 156.5,-86.2667"/>
<text text-anchor="start" x="161.5" y="-107.5667" font-family="Times,serif" font-size="14.00" fill="#000000">●</text>
<polygon fill="none" stroke="#000000" points="114.5,-86.2667 114.5,-111.2667 133.5,-111.2667 133.5,-86.2667 114.5,-86.2667"/>
<text text-anchor="start" x="119.5" y="-95.0667" font-family="Times,serif" font-size="14.00" fill="#000000">●</text>
</g>
<!-- cluster_PWM_reset&#45;&gt;mux_807391045 -->
<g id="edge9" class="edge">
<title>cluster_PWM_reset&#45;&gt;mux_807391045:select</title>
<path fill="none" stroke="#000000" d="M70.199,-93.9989C96.2949,-78.742 133.1502,-61.0685 142.9997,-76.1041"/>
<polygon fill="#000000" stroke="#000000" points="139.7122,-77.3925 145.5,-86.2667 146.5095,-75.7201 139.7122,-77.3925"/>
</g>
<!-- cluster_PWM_io_target -->
<g id="node3" class="node">
<title>cluster_PWM_io_target</title>
<polygon fill="#cccccc" stroke="#000000" points="304,-201.2667 239,-201.2667 239,-165.2667 304,-165.2667 304,-201.2667"/>
<text text-anchor="middle" x="271.5" y="-179.5667" font-family="Times,serif" font-size="14.00" fill="#000000">io_target</text>
</g>
<!-- op_gt_187 -->
<g id="node7" class="node">
<title>op_gt_187</title>
<polygon fill="#d8bfd8" stroke="transparent" points="398.5,-169.2667 398.5,-219.2667 465.5,-219.2667 465.5,-169.2667 398.5,-169.2667"/>
<polygon fill="none" stroke="#000000" points="399,-194.2667 399,-219.2667 418,-219.2667 418,-194.2667 399,-194.2667"/>
<text text-anchor="start" x="404" y="-203.0667" font-family="Times,serif" font-size="14.00" fill="#000000">●</text>
<polygon fill="none" stroke="#000000" points="418,-169.2667 418,-219.2667 447,-219.2667 447,-169.2667 418,-169.2667"/>
<text text-anchor="start" x="423" y="-190.5667" font-family="Times,serif" font-size="14.00" fill="#000000"> gt </text>
<polygon fill="none" stroke="#000000" points="447,-169.2667 447,-219.2667 466,-219.2667 466,-169.2667 447,-169.2667"/>
<text text-anchor="start" x="452" y="-190.5667" font-family="Times,serif" font-size="14.00" fill="#000000">●</text>
<polygon fill="none" stroke="#000000" points="399,-169.2667 399,-194.2667 418,-194.2667 418,-169.2667 399,-169.2667"/>
<text text-anchor="start" x="404" y="-178.0667" font-family="Times,serif" font-size="14.00" fill="#000000">●</text>
</g>
<!-- cluster_PWM_io_target&#45;&gt;op_gt_187 -->
<g id="edge1" class="edge">
<title>cluster_PWM_io_target&#45;&gt;op_gt_187:in2</title>
<path fill="none" stroke="#000000" d="M304.2537,-182.4705C327.2901,-181.9716 359.1528,-181.402 388.674,-181.2874"/>
<polygon fill="#000000" stroke="#000000" points="389.0071,-184.7868 399,-181.2667 388.993,-177.7868 389.0071,-184.7868"/>
</g>
<!-- cluster_PWM_io_high -->
<g id="node4" class="node">
<title>cluster_PWM_io_high</title>
<polygon fill="#e0ffff" stroke="#000000" points="723,-212.2667 665,-212.2667 665,-176.2667 723,-176.2667 723,-212.2667"/>
<text text-anchor="middle" x="694" y="-190.5667" font-family="Times,serif" font-size="14.00" fill="#000000">io_high</text>
</g>
<!-- struct_cluster_PWM_counter -->
<g id="node5" class="node">
<title>struct_cluster_PWM_counter</title>
<polygon fill="#ffe4b5" stroke="transparent" points="227,-116.7667 227,-141.7667 316,-141.7667 316,-116.7667 227,-116.7667"/>
<polygon fill="none" stroke="#000000" points="227.5,-116.2667 227.5,-141.2667 246.5,-141.2667 246.5,-116.2667 227.5,-116.2667"/>
<text text-anchor="start" x="232.5" y="-125.0667" font-family="Times,serif" font-size="14.00" fill="#000000">●</text>
<polygon fill="none" stroke="#000000" points="246.5,-116.2667 246.5,-141.2667 297.5,-141.2667 297.5,-116.2667 246.5,-116.2667"/>
<text text-anchor="start" x="251.5" y="-125.0667" font-family="Times,serif" font-size="14.00" fill="#000000">counter</text>
<polygon fill="none" stroke="#000000" points="297.5,-116.2667 297.5,-141.2667 316.5,-141.2667 316.5,-116.2667 297.5,-116.2667"/>
<text text-anchor="start" x="302.5" y="-125.0667" font-family="Times,serif" font-size="14.00" fill="#000000">●</text>
</g>
<!-- struct_cluster_PWM_counter&#45;&gt;op_gt_187 -->
<g id="edge5" class="edge">
<title>struct_cluster_PWM_counter:out&#45;&gt;op_gt_187:in1</title>
<path fill="none" stroke="#000000" d="M316.5,-128.2667C363.4986,-128.2667 350.6742,-195.9753 388.7929,-206.0258"/>
<polygon fill="#000000" stroke="#000000" points="388.6507,-209.5342 399,-207.2667 389.4955,-202.5854 388.6507,-209.5342"/>
</g>
<!-- op_add_189 -->
<g id="node10" class="node">
<title>op_add_189</title>
<polygon fill="#d8bfd8" stroke="transparent" points="368,-93.2667 368,-143.2667 496,-143.2667 496,-93.2667 368,-93.2667"/>
<polygon fill="none" stroke="#000000" points="368,-118.2667 368,-143.2667 439,-143.2667 439,-118.2667 368,-118.2667"/>
<text text-anchor="start" x="399" y="-127.0667" font-family="Times,serif" font-size="14.00" fill="#000000">●</text>
<polygon fill="none" stroke="#000000" points="439,-93.2667 439,-143.2667 477,-143.2667 477,-93.2667 439,-93.2667"/>
<text text-anchor="start" x="444" y="-114.5667" font-family="Times,serif" font-size="14.00" fill="#000000"> add </text>
<polygon fill="none" stroke="#000000" points="477,-93.2667 477,-143.2667 496,-143.2667 496,-93.2667 477,-93.2667"/>
<text text-anchor="start" x="482" y="-114.5667" font-family="Times,serif" font-size="14.00" fill="#000000">●</text>
<polygon fill="none" stroke="#000000" points="368,-93.2667 368,-118.2667 439,-118.2667 439,-93.2667 368,-93.2667"/>
<text text-anchor="start" x="373" y="-102.0667" font-family="Times,serif" font-size="14.00" fill="#000000">808464432</text>
</g>
<!-- struct_cluster_PWM_counter&#45;&gt;op_add_189 -->
<g id="edge3" class="edge">
<title>struct_cluster_PWM_counter:out&#45;&gt;op_add_189:in1</title>
<path fill="none" stroke="#000000" d="M316.5,-128.2667C335.6661,-128.2667 342.755,-130.3631 357.9582,-131.0509"/>
<polygon fill="#000000" stroke="#000000" points="357.9271,-134.551 368,-131.2667 358.0775,-127.5526 357.9271,-134.551"/>
</g>
<!-- mux_659478800 -->
<g id="node6" class="node">
<title>mux_659478800</title>
<polygon fill="#afeeee" stroke="transparent" points="555,-169.2667 555,-219.2667 614,-219.2667 614,-169.2667 555,-169.2667"/>
<polygon fill="none" stroke="#000000" points="555.5,-194.2667 555.5,-219.2667 572.5,-219.2667 572.5,-194.2667 555.5,-194.2667"/>
<text text-anchor="start" x="560.5" y="-203.0667" font-family="Times,serif" font-size="14.00" fill="#000000">0</text>
<polygon fill="none" stroke="#000000" points="572.5,-169.2667 572.5,-219.2667 595.5,-219.2667 595.5,-169.2667 572.5,-169.2667"/>
<text text-anchor="start" x="577.5" y="-190.5667" font-family="Times,serif" font-size="14.00" fill="#000000">a?</text>
<polygon fill="none" stroke="#000000" points="595.5,-169.2667 595.5,-219.2667 614.5,-219.2667 614.5,-169.2667 595.5,-169.2667"/>
<text text-anchor="start" x="600.5" y="-190.5667" font-family="Times,serif" font-size="14.00" fill="#000000">●</text>
<polygon fill="none" stroke="#000000" points="555.5,-169.2667 555.5,-194.2667 572.5,-194.2667 572.5,-169.2667 555.5,-169.2667"/>
<text text-anchor="start" x="560.5" y="-178.0667" font-family="Times,serif" font-size="14.00" fill="#000000">1</text>
</g>
<!-- mux_659478800&#45;&gt;cluster_PWM_io_high -->
<g id="edge8" class="edge">
<title>mux_659478800:out&#45;&gt;cluster_PWM_io_high</title>
<path fill="none" stroke="#000000" d="M614.5,-194.2667C627.5473,-194.2667 641.799,-194.2667 654.5867,-194.2667"/>
<polygon fill="#000000" stroke="#000000" points="654.9254,-197.7668 664.9253,-194.2667 654.9253,-190.7668 654.9254,-197.7668"/>
</g>
<!-- op_gt_187&#45;&gt;mux_659478800 -->
<g id="edge6" class="edge">
<title>op_gt_187:out&#45;&gt;mux_659478800:select</title>
<path fill="none" stroke="#000000" d="M466,-194.2667C515.22,-194.2667 573.5484,-127.6457 582.3618,-159.0659"/>
<polygon fill="#000000" stroke="#000000" points="578.9126,-159.7165 583.5,-169.2667 585.8694,-158.9402 578.9126,-159.7165"/>
</g>
<!-- mux_807391045&#45;&gt;struct_cluster_PWM_counter -->
<g id="edge7" class="edge">
<title>mux_807391045:out&#45;&gt;struct_cluster_PWM_counter:in</title>
<path fill="none" stroke="#000000" d="M175.5,-111.2667C196.0156,-111.2667 201.6206,-123.3692 217.4767,-127.1513"/>
<polygon fill="#000000" stroke="#000000" points="217.1742,-130.6391 227.5,-128.2667 217.9485,-123.6821 217.1742,-130.6391"/>
</g>
<!-- op_tail_188 -->
<g id="node9" class="node">
<title>op_tail_188</title>
<polygon fill="#d8bfd8" stroke="transparent" points="548,-77.2667 548,-127.2667 621,-127.2667 621,-77.2667 548,-77.2667"/>
<polygon fill="none" stroke="#000000" points="548.5,-102.2667 548.5,-127.2667 567.5,-127.2667 567.5,-102.2667 548.5,-102.2667"/>
<text text-anchor="start" x="553.5" y="-111.0667" font-family="Times,serif" font-size="14.00" fill="#000000">●</text>
<polygon fill="none" stroke="#000000" points="567.5,-77.2667 567.5,-127.2667 602.5,-127.2667 602.5,-77.2667 567.5,-77.2667"/>
<text text-anchor="start" x="572.5" y="-98.5667" font-family="Times,serif" font-size="14.00" fill="#000000"> tail </text>
<polygon fill="none" stroke="#000000" points="602.5,-77.2667 602.5,-127.2667 621.5,-127.2667 621.5,-77.2667 602.5,-77.2667"/>
<text text-anchor="start" x="607.5" y="-98.5667" font-family="Times,serif" font-size="14.00" fill="#000000">●</text>
<polygon fill="none" stroke="#000000" points="548.5,-77.2667 548.5,-102.2667 567.5,-102.2667 567.5,-77.2667 548.5,-77.2667"/>
<text text-anchor="start" x="554.5" y="-86.0667" font-family="Times,serif" font-size="14.00" fill="#000000">1</text>
</g>
<!-- op_tail_188&#45;&gt;mux_807391045 -->
<g id="edge2" class="edge">
<title>op_tail_188:out&#45;&gt;mux_807391045:in2</title>
<path fill="none" stroke="#000000" d="M612.5,-77.2667C612.5,27.9158 154.5097,22.8762 124.9908,-76.0702"/>
<polygon fill="#000000" stroke="#000000" points="121.4836,-75.8655 123.5,-86.2667 128.41,-76.8783 121.4836,-75.8655"/>
</g>
<!-- op_add_189&#45;&gt;op_tail_188 -->
<g id="edge4" class="edge">
<title>op_add_189:out&#45;&gt;op_tail_188:in1</title>
<path fill="none" stroke="#000000" d="M496,-118.2667C515.537,-118.2667 522.7654,-116.1703 538.2637,-115.4825"/>
<polygon fill="#000000" stroke="#000000" points="538.576,-118.9767 548.5,-115.2667 538.4284,-111.9783 538.576,-118.9767"/>
</g>
</g>
</svg>
