<?xml version="1.0" encoding="UTF-8" standalone="no"?>
<?xml-stylesheet href="styles.css" type="text/css"?>
<!DOCTYPE svg PUBLIC "-//W3C//DTD SVG 1.1//EN"
 "http://www.w3.org/Graphics/SVG/1.1/DTD/svg11.dtd">
<!-- Generated by graphviz version 2.43.20190912.0211 (20190912.0211)
 -->
<!-- Title: PWM Pages: 1 -->
<svg width="839pt" height="217pt"
 viewBox="0.00 0.00 839.00 217.00" xmlns="http://www.w3.org/2000/svg" xmlns:xlink="http://www.w3.org/1999/xlink">
<g id="graph0" class="graph" transform="scale(1 1) rotate(0) translate(4 213)">
<title>PWM</title>
<polygon fill="white" stroke="transparent" points="-4,4 -4,-213 835,-213 835,4 -4,4"/>
<g id="clust1" class="cluster">
<title>cluster_PWM</title>
<polygon fill="#fff8dc" stroke="black" points="8,-8 8,-201 823,-201 823,-8 8,-8"/>
<text text-anchor="middle" x="415.5" y="-185.8" font-family="Times,serif" font-size="14.00">PWM</text>
</g>
<!-- cluster_PWM_clock -->
<g id="node1" class="node">
<title>cluster_PWM_clock</title>
<polygon fill="#cccccc" stroke="black" points="70,-156 16,-156 16,-120 70,-120 70,-156"/>
<text text-anchor="middle" x="43" y="-134.3" font-family="Times,serif" font-size="14.00">clock</text>
</g>
<!-- cluster_PWM_reset -->
<g id="node2" class="node">
<title>cluster_PWM_reset</title>
<polygon fill="#cccccc" stroke="black" points="70,-76 16,-76 16,-40 70,-40 70,-76"/>
<text text-anchor="middle" x="43" y="-54.3" font-family="Times,serif" font-size="14.00">reset</text>
</g>
<!-- mux_412402672 -->
<g id="node8" class="node">
<title>mux_412402672</title>
<polygon fill="#afeeee" stroke="transparent" points="114,-33 114,-83 186,-83 186,-33 114,-33"/>
<polygon fill="none" stroke="black" points="114,-58 114,-83 137,-83 137,-58 114,-58"/>
<text text-anchor="start" x="120.5" y="-66.8" font-family="Times,serif" font-size="14.00">0</text>
<polygon fill="none" stroke="black" points="137,-33 137,-83 163,-83 163,-33 137,-33"/>
<text text-anchor="start" x="142" y="-54.3" font-family="Times,serif" font-size="14.00">a?</text>
<polygon fill="none" stroke="black" points="163,-33 163,-83 186,-83 186,-33 163,-33"/>
<text text-anchor="start" x="168" y="-54.3" font-family="Times,serif" font-size="14.00">●</text>
<polygon fill="none" stroke="black" points="114,-33 114,-58 137,-58 137,-33 114,-33"/>
<text text-anchor="start" x="119" y="-41.8" font-family="Times,serif" font-size="14.00">●</text>
</g>
<!-- cluster_PWM_reset&#45;&gt;mux_412402672 -->
<g id="edge8" class="edge">
<title>cluster_PWM_reset&#45;&gt;mux_412402672:select</title>
<path fill="none" stroke="black" d="M70.2,-41.24C97.67,-24.94 138.16,-4.99 147.86,-22.22"/>
<polygon fill="black" stroke="black" points="144.44,-22.98 150,-32 151.28,-21.48 144.44,-22.98"/>
</g>
<!-- cluster_PWM_io_target -->
<g id="node3" class="node">
<title>cluster_PWM_io_target</title>
<polygon fill="#cccccc" stroke="black" points="333.5,-148 253.5,-148 253.5,-112 333.5,-112 333.5,-148"/>
<text text-anchor="middle" x="293.5" y="-126.3" font-family="Times,serif" font-size="14.00">io_target</text>
</g>
<!-- op_gt_108 -->
<g id="node7" class="node">
<title>op_gt_108</title>
<polygon fill="#d8bfd8" stroke="transparent" points="441,-116 441,-166 522,-166 522,-116 441,-116"/>
<polygon fill="none" stroke="black" points="441.5,-141 441.5,-166 464.5,-166 464.5,-141 441.5,-141"/>
<text text-anchor="start" x="446.5" y="-149.8" font-family="Times,serif" font-size="14.00">●</text>
<polygon fill="none" stroke="black" points="464.5,-116 464.5,-166 499.5,-166 499.5,-116 464.5,-116"/>
<text text-anchor="start" x="469.5" y="-137.3" font-family="Times,serif" font-size="14.00"> gt </text>
<polygon fill="none" stroke="black" points="499.5,-116 499.5,-166 522.5,-166 522.5,-116 499.5,-116"/>
<text text-anchor="start" x="504.5" y="-137.3" font-family="Times,serif" font-size="14.00">●</text>
<polygon fill="none" stroke="black" points="441.5,-116 441.5,-141 464.5,-141 464.5,-116 441.5,-116"/>
<text text-anchor="start" x="446.5" y="-124.8" font-family="Times,serif" font-size="14.00">●</text>
</g>
<!-- cluster_PWM_io_target&#45;&gt;op_gt_108 -->
<g id="edge9" class="edge">
<title>cluster_PWM_io_target&#45;&gt;op_gt_108:in2</title>
<path fill="none" stroke="black" d="M333.54,-129.17C360.19,-128.68 396.61,-128.12 430.19,-128.02"/>
<polygon fill="black" stroke="black" points="430.51,-131.52 440.5,-128 430.49,-124.52 430.51,-131.52"/>
</g>
<!-- cluster_PWM_io_high -->
<g id="node4" class="node">
<title>cluster_PWM_io_high</title>
<polygon fill="#e0ffff" stroke="black" points="815,-159 747,-159 747,-123 815,-123 815,-159"/>
<text text-anchor="middle" x="781" y="-137.3" font-family="Times,serif" font-size="14.00">io_high</text>
</g>
<!-- struct_cluster_PWM_counter -->
<g id="node5" class="node">
<title>struct_cluster_PWM_counter</title>
<polygon fill="#ffe4b5" stroke="transparent" points="238,-63.5 238,-88.5 349,-88.5 349,-63.5 238,-63.5"/>
<polygon fill="none" stroke="black" points="238.5,-63 238.5,-88 261.5,-88 261.5,-63 238.5,-63"/>
<text text-anchor="start" x="243.5" y="-71.8" font-family="Times,serif" font-size="14.00">●</text>
<polygon fill="none" stroke="black" points="261.5,-63 261.5,-88 326.5,-88 326.5,-63 261.5,-63"/>
<text text-anchor="start" x="266.5" y="-71.8" font-family="Times,serif" font-size="14.00">counter</text>
<polygon fill="none" stroke="black" points="326.5,-63 326.5,-88 349.5,-88 349.5,-63 326.5,-63"/>
<text text-anchor="start" x="331.5" y="-71.8" font-family="Times,serif" font-size="14.00">●</text>
</g>
<!-- struct_cluster_PWM_counter&#45;&gt;op_gt_108 -->
<g id="edge3" class="edge">
<title>struct_cluster_PWM_counter:out&#45;&gt;op_gt_108:in1</title>
<path fill="none" stroke="black" d="M350.5,-75C400.09,-75 389.2,-143.57 430.52,-152.94"/>
<polygon fill="black" stroke="black" points="430.19,-156.43 440.5,-154 430.92,-149.47 430.19,-156.43"/>
</g>
<!-- op_add_110 -->
<g id="node10" class="node">
<title>op_add_110</title>
<polygon fill="#d8bfd8" stroke="transparent" points="401,-40 401,-90 562,-90 562,-40 401,-40"/>
<polygon fill="none" stroke="black" points="401.5,-65 401.5,-90 493.5,-90 493.5,-65 401.5,-65"/>
<text text-anchor="start" x="441" y="-73.8" font-family="Times,serif" font-size="14.00">●</text>
<polygon fill="none" stroke="black" points="493.5,-40 493.5,-90 539.5,-90 539.5,-40 493.5,-40"/>
<text text-anchor="start" x="498.5" y="-61.3" font-family="Times,serif" font-size="14.00"> add </text>
<polygon fill="none" stroke="black" points="539.5,-40 539.5,-90 562.5,-90 562.5,-40 539.5,-40"/>
<text text-anchor="start" x="544.5" y="-61.3" font-family="Times,serif" font-size="14.00">●</text>
<polygon fill="none" stroke="black" points="401.5,-40 401.5,-65 493.5,-65 493.5,-40 401.5,-40"/>
<text text-anchor="start" x="406.5" y="-48.8" font-family="Times,serif" font-size="14.00">808464432</text>
</g>
<!-- struct_cluster_PWM_counter&#45;&gt;op_add_110 -->
<g id="edge7" class="edge">
<title>struct_cluster_PWM_counter:out&#45;&gt;op_add_110:in1</title>
<path fill="none" stroke="black" d="M350.5,-75C368.94,-75 375.86,-77.06 390.34,-77.76"/>
<polygon fill="black" stroke="black" points="390.42,-81.27 400.5,-78 390.58,-74.27 390.42,-81.27"/>
</g>
<!-- mux_457861333 -->
<g id="node6" class="node">
<title>mux_457861333</title>
<polygon fill="#afeeee" stroke="transparent" points="624,-116 624,-166 693,-166 693,-116 624,-116"/>
<polygon fill="none" stroke="black" points="624.5,-141 624.5,-166 644.5,-166 644.5,-141 624.5,-141"/>
<text text-anchor="start" x="629.5" y="-149.8" font-family="Times,serif" font-size="14.00">0</text>
<polygon fill="none" stroke="black" points="644.5,-116 644.5,-166 670.5,-166 670.5,-116 644.5,-116"/>
<text text-anchor="start" x="649.5" y="-137.3" font-family="Times,serif" font-size="14.00">a?</text>
<polygon fill="none" stroke="black" points="670.5,-116 670.5,-166 693.5,-166 693.5,-116 670.5,-116"/>
<text text-anchor="start" x="675.5" y="-137.3" font-family="Times,serif" font-size="14.00">●</text>
<polygon fill="none" stroke="black" points="624.5,-116 624.5,-141 644.5,-141 644.5,-116 624.5,-116"/>
<text text-anchor="start" x="629.5" y="-124.8" font-family="Times,serif" font-size="14.00">1</text>
</g>
<!-- mux_457861333&#45;&gt;cluster_PWM_io_high -->
<g id="edge6" class="edge">
<title>mux_457861333:out&#45;&gt;cluster_PWM_io_high</title>
<path fill="none" stroke="black" d="M694.5,-141C708.22,-141 723.18,-141 736.7,-141"/>
<polygon fill="black" stroke="black" points="736.7,-144.5 746.7,-141 736.7,-137.5 736.7,-144.5"/>
</g>
<!-- op_gt_108&#45;&gt;mux_457861333 -->
<g id="edge1" class="edge">
<title>op_gt_108:out&#45;&gt;mux_457861333:select</title>
<path fill="none" stroke="black" d="M523.5,-141C580.14,-141 647.82,-65.46 656.56,-104.79"/>
<polygon fill="black" stroke="black" points="653.09,-105.37 657.5,-115 660.06,-104.72 653.09,-105.37"/>
</g>
<!-- mux_412402672&#45;&gt;struct_cluster_PWM_counter -->
<g id="edge5" class="edge">
<title>mux_412402672:out&#45;&gt;struct_cluster_PWM_counter:in</title>
<path fill="none" stroke="black" d="M187,-58C206.8,-58 212.24,-69.88 227.32,-73.78"/>
<polygon fill="black" stroke="black" points="227.15,-77.28 237.5,-75 227.99,-70.33 227.15,-77.28"/>
</g>
<!-- op_tail_109 -->
<g id="node9" class="node">
<title>op_tail_109</title>
<polygon fill="#d8bfd8" stroke="transparent" points="614,-24 614,-74 703,-74 703,-24 614,-24"/>
<polygon fill="none" stroke="black" points="614.5,-49 614.5,-74 637.5,-74 637.5,-49 614.5,-49"/>
<text text-anchor="start" x="619.5" y="-57.8" font-family="Times,serif" font-size="14.00">●</text>
<polygon fill="none" stroke="black" points="637.5,-24 637.5,-74 680.5,-74 680.5,-24 637.5,-24"/>
<text text-anchor="start" x="642.5" y="-45.3" font-family="Times,serif" font-size="14.00"> tail </text>
<polygon fill="none" stroke="black" points="680.5,-24 680.5,-74 703.5,-74 703.5,-24 680.5,-24"/>
<text text-anchor="start" x="685.5" y="-45.3" font-family="Times,serif" font-size="14.00">●</text>
<polygon fill="none" stroke="black" points="614.5,-24 614.5,-49 637.5,-49 637.5,-24 614.5,-24"/>
<text text-anchor="start" x="621" y="-32.8" font-family="Times,serif" font-size="14.00">1</text>
</g>
<!-- op_tail_109&#45;&gt;mux_412402672 -->
<g id="edge4" class="edge">
<title>op_tail_109:out&#45;&gt;mux_412402672:in2</title>
<path fill="none" stroke="black" d="M692.5,-23C692.5,-20.48 212.25,-25.63 135.33,-30.69"/>
<polygon fill="black" stroke="black" points="134.48,-27.27 125,-32 135.36,-34.21 134.48,-27.27"/>
</g>
<!-- op_add_110&#45;&gt;op_tail_109 -->
<g id="edge2" class="edge">
<title>op_add_110:out&#45;&gt;op_tail_109:in1</title>
<path fill="none" stroke="black" d="M563.5,-65C581.94,-65 588.86,-62.94 603.34,-62.24"/>
<polygon fill="black" stroke="black" points="603.58,-65.73 613.5,-62 603.42,-58.73 603.58,-65.73"/>
</g>
</g>
</svg>
