<?xml version="1.0" encoding="UTF-8" standalone="no"?>
<?xml-stylesheet href="styles.css" type="text/css"?>
<!DOCTYPE svg PUBLIC "-//W3C//DTD SVG 1.1//EN"
 "http://www.w3.org/Graphics/SVG/1.1/DTD/svg11.dtd">
<!-- Generated by graphviz version 2.40.1 (0)
 -->
<!-- Title: PWM Pages: 1 -->
<svg width="770pt" height="272pt"
 viewBox="0.00 0.00 770.00 271.85" xmlns="http://www.w3.org/2000/svg" xmlns:xlink="http://www.w3.org/1999/xlink">
<g id="graph0" class="graph" transform="scale(1 1) rotate(0) translate(4 267.8517)">
<title>PWM</title>
<polygon fill="#ffffff" stroke="transparent" points="-4,4 -4,-267.8517 766,-267.8517 766,4 -4,4"/>
<g id="clust1" class="cluster">
<title>cluster_PWM</title>
<polygon fill="#fff8dc" stroke="#000000" points="8,-62.8517 8,-255.8517 754,-255.8517 754,-62.8517 8,-62.8517"/>
<text text-anchor="middle" x="381" y="-240.6517" font-family="Times,serif" font-size="14.00" fill="#000000">PWM</text>
</g>
<!-- cluster_PWM_clock -->
<g id="node1" class="node">
<title>cluster_PWM_clock</title>
<polygon fill="#cccccc" stroke="#000000" points="70,-210.8517 16,-210.8517 16,-174.8517 70,-174.8517 70,-210.8517"/>
<text text-anchor="middle" x="43" y="-189.1517" font-family="Times,serif" font-size="14.00" fill="#000000">clock</text>
</g>
<!-- cluster_PWM_reset -->
<g id="node2" class="node">
<title>cluster_PWM_reset</title>
<polygon fill="#cccccc" stroke="#000000" points="70,-130.8517 16,-130.8517 16,-94.8517 70,-94.8517 70,-130.8517"/>
<text text-anchor="middle" x="43" y="-109.1517" font-family="Times,serif" font-size="14.00" fill="#000000">reset</text>
</g>
<!-- mux_580258008 -->
<g id="node8" class="node">
<title>mux_580258008</title>
<polygon fill="#afeeee" stroke="transparent" points="114,-87.8517 114,-137.8517 186,-137.8517 186,-87.8517 114,-87.8517"/>
<polygon fill="none" stroke="#000000" points="114,-112.8517 114,-137.8517 137,-137.8517 137,-112.8517 114,-112.8517"/>
<text text-anchor="start" x="120.5" y="-121.6517" font-family="Times,serif" font-size="14.00" fill="#000000">0</text>
<polygon fill="none" stroke="#000000" points="137,-87.8517 137,-137.8517 163,-137.8517 163,-87.8517 137,-87.8517"/>
<text text-anchor="start" x="142" y="-109.1517" font-family="Times,serif" font-size="14.00" fill="#000000">a?</text>
<polygon fill="none" stroke="#000000" points="163,-87.8517 163,-137.8517 186,-137.8517 186,-87.8517 163,-87.8517"/>
<text text-anchor="start" x="168" y="-109.1517" font-family="Times,serif" font-size="14.00" fill="#000000">●</text>
<polygon fill="none" stroke="#000000" points="114,-87.8517 114,-112.8517 137,-112.8517 137,-87.8517 114,-87.8517"/>
<text text-anchor="start" x="119" y="-96.6517" font-family="Times,serif" font-size="14.00" fill="#000000">●</text>
</g>
<!-- cluster_PWM_reset&#45;&gt;mux_580258008 -->
<g id="edge2" class="edge">
<title>cluster_PWM_reset&#45;&gt;mux_580258008:select</title>
<path fill="none" stroke="#000000" d="M70.0006,-95.945C97.7363,-79.8969 138.1841,-60.6149 147.8626,-78.0266"/>
<polygon fill="#000000" stroke="#000000" points="144.4542,-78.8243 150,-87.8517 151.2942,-77.3362 144.4542,-78.8243"/>
</g>
<!-- cluster_PWM_io_target -->
<g id="node3" class="node">
<title>cluster_PWM_io_target</title>
<polygon fill="#cccccc" stroke="#000000" points="333.5,-202.8517 253.5,-202.8517 253.5,-166.8517 333.5,-166.8517 333.5,-202.8517"/>
<text text-anchor="middle" x="293.5" y="-181.1517" font-family="Times,serif" font-size="14.00" fill="#000000">io_target</text>
</g>
<!-- op_gt_1124 -->
<g id="node7" class="node">
<title>op_gt_1124</title>
<polygon fill="#d8bfd8" stroke="transparent" points="406.5,-170.8517 406.5,-220.8517 487.5,-220.8517 487.5,-170.8517 406.5,-170.8517"/>
<polygon fill="none" stroke="#000000" points="407,-195.8517 407,-220.8517 430,-220.8517 430,-195.8517 407,-195.8517"/>
<text text-anchor="start" x="412" y="-204.6517" font-family="Times,serif" font-size="14.00" fill="#000000">●</text>
<polygon fill="none" stroke="#000000" points="430,-170.8517 430,-220.8517 465,-220.8517 465,-170.8517 430,-170.8517"/>
<text text-anchor="start" x="435" y="-192.1517" font-family="Times,serif" font-size="14.00" fill="#000000"> gt </text>
<polygon fill="none" stroke="#000000" points="465,-170.8517 465,-220.8517 488,-220.8517 488,-170.8517 465,-170.8517"/>
<text text-anchor="start" x="470" y="-192.1517" font-family="Times,serif" font-size="14.00" fill="#000000">●</text>
<polygon fill="none" stroke="#000000" points="407,-170.8517 407,-195.8517 430,-195.8517 430,-170.8517 407,-170.8517"/>
<text text-anchor="start" x="412" y="-179.6517" font-family="Times,serif" font-size="14.00" fill="#000000">●</text>
</g>
<!-- cluster_PWM_io_target&#45;&gt;op_gt_1124 -->
<g id="edge9" class="edge">
<title>cluster_PWM_io_target&#45;&gt;op_gt_1124:in2</title>
<path fill="none" stroke="#000000" d="M333.6809,-183.799C352.422,-183.383 375.3079,-182.9793 396.8744,-182.8767"/>
<polygon fill="#000000" stroke="#000000" points="397.0087,-186.3764 407,-182.8517 396.9914,-179.3765 397.0087,-186.3764"/>
</g>
<!-- cluster_PWM_io_high -->
<g id="node4" class="node">
<title>cluster_PWM_io_high</title>
<polygon fill="#e0ffff" stroke="#000000" points="746,-213.8517 678,-213.8517 678,-177.8517 746,-177.8517 746,-213.8517"/>
<text text-anchor="middle" x="712" y="-192.1517" font-family="Times,serif" font-size="14.00" fill="#000000">io_high</text>
</g>
<!-- struct_cluster_PWM_counter -->
<g id="node5" class="node">
<title>struct_cluster_PWM_counter</title>
<polygon fill="#ffe4b5" stroke="transparent" points="238,-118.3517 238,-143.3517 349,-143.3517 349,-118.3517 238,-118.3517"/>
<polygon fill="none" stroke="#000000" points="238.5,-117.8517 238.5,-142.8517 261.5,-142.8517 261.5,-117.8517 238.5,-117.8517"/>
<text text-anchor="start" x="243.5" y="-126.6517" font-family="Times,serif" font-size="14.00" fill="#000000">●</text>
<polygon fill="none" stroke="#000000" points="261.5,-117.8517 261.5,-142.8517 326.5,-142.8517 326.5,-117.8517 261.5,-117.8517"/>
<text text-anchor="start" x="266.5" y="-126.6517" font-family="Times,serif" font-size="14.00" fill="#000000">counter</text>
<polygon fill="none" stroke="#000000" points="326.5,-117.8517 326.5,-142.8517 349.5,-142.8517 349.5,-117.8517 326.5,-117.8517"/>
<text text-anchor="start" x="331.5" y="-126.6517" font-family="Times,serif" font-size="14.00" fill="#000000">●</text>
</g>
<!-- struct_cluster_PWM_counter&#45;&gt;op_gt_1124 -->
<g id="edge5" class="edge">
<title>struct_cluster_PWM_counter:out&#45;&gt;op_gt_1124:in1</title>
<path fill="none" stroke="#000000" d="M349.5,-129.8517C389.0251,-129.8517 368.2603,-195.2941 396.952,-207.0533"/>
<polygon fill="#000000" stroke="#000000" points="396.5397,-210.535 407,-208.8517 397.7731,-203.6445 396.5397,-210.535"/>
</g>
<!-- op_add_1126 -->
<g id="node10" class="node">
<title>op_add_1126</title>
<polygon fill="#d8bfd8" stroke="transparent" points="401,-94.8517 401,-144.8517 493,-144.8517 493,-94.8517 401,-94.8517"/>
<polygon fill="none" stroke="#000000" points="401,-119.8517 401,-144.8517 424,-144.8517 424,-119.8517 401,-119.8517"/>
<text text-anchor="start" x="406" y="-128.6517" font-family="Times,serif" font-size="14.00" fill="#000000">●</text>
<polygon fill="none" stroke="#000000" points="424,-94.8517 424,-144.8517 470,-144.8517 470,-94.8517 424,-94.8517"/>
<text text-anchor="start" x="429" y="-116.1517" font-family="Times,serif" font-size="14.00" fill="#000000"> add </text>
<polygon fill="none" stroke="#000000" points="470,-94.8517 470,-144.8517 493,-144.8517 493,-94.8517 470,-94.8517"/>
<text text-anchor="start" x="475" y="-116.1517" font-family="Times,serif" font-size="14.00" fill="#000000">●</text>
<polygon fill="none" stroke="#000000" points="401,-94.8517 401,-119.8517 424,-119.8517 424,-94.8517 401,-94.8517"/>
<text text-anchor="start" x="407.5" y="-103.6517" font-family="Times,serif" font-size="14.00" fill="#000000">1</text>
</g>
<!-- struct_cluster_PWM_counter&#45;&gt;op_add_1126 -->
<g id="edge3" class="edge">
<title>struct_cluster_PWM_counter:out&#45;&gt;op_add_1126:in1</title>
<path fill="none" stroke="#000000" d="M349.5,-129.8517C368.6661,-129.8517 375.755,-131.9481 390.9582,-132.636"/>
<polygon fill="#000000" stroke="#000000" points="390.9271,-136.136 401,-132.8517 391.0775,-129.1376 390.9271,-136.136"/>
</g>
<!-- mux_457861333 -->
<g id="node6" class="node">
<title>mux_457861333</title>
<polygon fill="#afeeee" stroke="transparent" points="555,-170.8517 555,-220.8517 624,-220.8517 624,-170.8517 555,-170.8517"/>
<polygon fill="none" stroke="#000000" points="555.5,-195.8517 555.5,-220.8517 575.5,-220.8517 575.5,-195.8517 555.5,-195.8517"/>
<text text-anchor="start" x="560.5" y="-204.6517" font-family="Times,serif" font-size="14.00" fill="#000000">0</text>
<polygon fill="none" stroke="#000000" points="575.5,-170.8517 575.5,-220.8517 601.5,-220.8517 601.5,-170.8517 575.5,-170.8517"/>
<text text-anchor="start" x="580.5" y="-192.1517" font-family="Times,serif" font-size="14.00" fill="#000000">a?</text>
<polygon fill="none" stroke="#000000" points="601.5,-170.8517 601.5,-220.8517 624.5,-220.8517 624.5,-170.8517 601.5,-170.8517"/>
<text text-anchor="start" x="606.5" y="-192.1517" font-family="Times,serif" font-size="14.00" fill="#000000">●</text>
<polygon fill="none" stroke="#000000" points="555.5,-170.8517 555.5,-195.8517 575.5,-195.8517 575.5,-170.8517 555.5,-170.8517"/>
<text text-anchor="start" x="560.5" y="-179.6517" font-family="Times,serif" font-size="14.00" fill="#000000">1</text>
</g>
<!-- mux_457861333&#45;&gt;cluster_PWM_io_high -->
<g id="edge7" class="edge">
<title>mux_457861333:out&#45;&gt;cluster_PWM_io_high</title>
<path fill="none" stroke="#000000" d="M624.5,-195.8517C638.5422,-195.8517 653.8519,-195.8517 667.683,-195.8517"/>
<polygon fill="#000000" stroke="#000000" points="667.926,-199.3518 677.926,-195.8517 667.926,-192.3518 667.926,-199.3518"/>
</g>
<!-- op_gt_1124&#45;&gt;mux_457861333 -->
<g id="edge1" class="edge">
<title>op_gt_1124:out&#45;&gt;mux_457861333:select</title>
<path fill="none" stroke="#000000" d="M488,-195.8517C516.4791,-195.8517 519.0908,-176.5207 547,-170.8517 559.8504,-168.2415 575.4046,-160.0203 583.3231,-162.1131"/>
<polygon fill="#000000" stroke="#000000" points="580.3918,-164.0321 588.5,-170.8517 586.4143,-160.4642 580.3918,-164.0321"/>
</g>
<!-- mux_580258008&#45;&gt;struct_cluster_PWM_counter -->
<g id="edge6" class="edge">
<title>mux_580258008:out&#45;&gt;struct_cluster_PWM_counter:in</title>
<path fill="none" stroke="#000000" d="M186,-112.8517C206.6939,-112.8517 212.3818,-124.9542 228.3864,-128.7363"/>
<polygon fill="#000000" stroke="#000000" points="228.1766,-132.2343 238.5,-129.8517 228.944,-125.2765 228.1766,-132.2343"/>
</g>
<!-- op_tail_1125 -->
<g id="node9" class="node">
<title>op_tail_1125</title>
<polygon fill="#d8bfd8" stroke="transparent" points="545,-78.8517 545,-128.8517 634,-128.8517 634,-78.8517 545,-78.8517"/>
<polygon fill="none" stroke="#000000" points="545.5,-103.8517 545.5,-128.8517 568.5,-128.8517 568.5,-103.8517 545.5,-103.8517"/>
<text text-anchor="start" x="550.5" y="-112.6517" font-family="Times,serif" font-size="14.00" fill="#000000">●</text>
<polygon fill="none" stroke="#000000" points="568.5,-78.8517 568.5,-128.8517 611.5,-128.8517 611.5,-78.8517 568.5,-78.8517"/>
<text text-anchor="start" x="573.5" y="-100.1517" font-family="Times,serif" font-size="14.00" fill="#000000"> tail </text>
<polygon fill="none" stroke="#000000" points="611.5,-78.8517 611.5,-128.8517 634.5,-128.8517 634.5,-78.8517 611.5,-78.8517"/>
<text text-anchor="start" x="616.5" y="-100.1517" font-family="Times,serif" font-size="14.00" fill="#000000">●</text>
<polygon fill="none" stroke="#000000" points="545.5,-78.8517 545.5,-103.8517 568.5,-103.8517 568.5,-78.8517 545.5,-78.8517"/>
<text text-anchor="start" x="552" y="-87.6517" font-family="Times,serif" font-size="14.00" fill="#000000">1</text>
</g>
<!-- op_tail_1125&#45;&gt;mux_580258008 -->
<g id="edge4" class="edge">
<title>op_tail_1125:out&#45;&gt;mux_580258008:in2</title>
<path fill="none" stroke="#000000" d="M623.5,-78.8517C623.5,28.4817 155.6694,23.3896 126.43,-77.7634"/>
<polygon fill="#000000" stroke="#000000" points="122.9382,-77.4594 125,-87.8517 129.8689,-78.4419 122.9382,-77.4594"/>
</g>
<!-- op_add_1126&#45;&gt;op_tail_1125 -->
<g id="edge8" class="edge">
<title>op_add_1126:out&#45;&gt;op_tail_1125:in1</title>
<path fill="none" stroke="#000000" d="M493,-119.8517C512.537,-119.8517 519.7654,-117.7553 535.2637,-117.0675"/>
<polygon fill="#000000" stroke="#000000" points="535.576,-120.5618 545.5,-116.8517 535.4284,-113.5633 535.576,-120.5618"/>
</g>
</g>
</svg>
