<?xml version="1.0" encoding="UTF-8" standalone="no"?>
<?xml-stylesheet href="styles.css" type="text/css"?>
<!DOCTYPE svg PUBLIC "-//W3C//DTD SVG 1.1//EN"
 "http://www.w3.org/Graphics/SVG/1.1/DTD/svg11.dtd">
<!-- Generated by graphviz version 2.43.20190912.0211 (20190912.0211)
 -->
<!-- Title: Sawtooth Pages: 1 -->
<svg width="1716pt" height="229pt"
 viewBox="0.00 0.00 1716.00 229.00" xmlns="http://www.w3.org/2000/svg" xmlns:xlink="http://www.w3.org/1999/xlink">
<g id="graph0" class="graph" transform="scale(1 1) rotate(0) translate(4 225)">
<title>Sawtooth</title>
<polygon fill="white" stroke="transparent" points="-4,4 -4,-225 1712,-225 1712,4 -4,4"/>
<g id="clust1" class="cluster">
<title>cluster_Sawtooth</title>
<polygon fill="#fff8dc" stroke="black" points="8,-8 8,-213 1700,-213 1700,-8 8,-8"/>
<text text-anchor="middle" x="854" y="-197.8" font-family="Times,serif" font-size="14.00">Sawtooth</text>
</g>
<!-- cluster_Sawtooth_io_wavelength -->
<g id="node1" class="node">
<title>cluster_Sawtooth_io_wavelength</title>
<polygon fill="#cccccc" stroke="black" points="150.5,-79 31.5,-79 31.5,-43 150.5,-43 150.5,-79"/>
<text text-anchor="middle" x="91" y="-57.3" font-family="Times,serif" font-size="14.00">io_wavelength</text>
</g>
<!-- op_pad_58 -->
<g id="node13" class="node">
<title>op_pad_58</title>
<polygon fill="#d8bfd8" stroke="transparent" points="219.5,-75.5 219.5,-100.5 311.5,-100.5 311.5,-75.5 219.5,-75.5"/>
<polygon fill="none" stroke="black" points="219.5,-75 219.5,-100 242.5,-100 242.5,-75 219.5,-75"/>
<text text-anchor="start" x="224.5" y="-83.8" font-family="Times,serif" font-size="14.00">●</text>
<polygon fill="none" stroke="black" points="242.5,-75 242.5,-100 288.5,-100 288.5,-75 242.5,-75"/>
<text text-anchor="start" x="247.5" y="-83.8" font-family="Times,serif" font-size="14.00"> pad </text>
<polygon fill="none" stroke="black" points="288.5,-75 288.5,-100 311.5,-100 311.5,-75 288.5,-75"/>
<text text-anchor="start" x="293.5" y="-83.8" font-family="Times,serif" font-size="14.00">●</text>
</g>
<!-- cluster_Sawtooth_io_wavelength&#45;&gt;op_pad_58 -->
<g id="edge10" class="edge">
<title>cluster_Sawtooth_io_wavelength&#45;&gt;op_pad_58:in1</title>
<path fill="none" stroke="black" d="M150.7,-78.2C168.73,-82.32 188.96,-85.8 208.41,-86.75"/>
<polygon fill="black" stroke="black" points="208.42,-90.25 218.5,-87 208.59,-83.25 208.42,-90.25"/>
</g>
<!-- op_asSInt_60 -->
<g id="node15" class="node">
<title>op_asSInt_60</title>
<polygon fill="#d8bfd8" stroke="transparent" points="210,-21.5 210,-46.5 321,-46.5 321,-21.5 210,-21.5"/>
<polygon fill="none" stroke="black" points="210.5,-21 210.5,-46 233.5,-46 233.5,-21 210.5,-21"/>
<text text-anchor="start" x="215.5" y="-29.8" font-family="Times,serif" font-size="14.00">●</text>
<polygon fill="none" stroke="black" points="233.5,-21 233.5,-46 298.5,-46 298.5,-21 233.5,-21"/>
<text text-anchor="start" x="238.5" y="-29.8" font-family="Times,serif" font-size="14.00"> asSInt </text>
<polygon fill="none" stroke="black" points="298.5,-21 298.5,-46 321.5,-46 321.5,-21 298.5,-21"/>
<text text-anchor="start" x="303.5" y="-29.8" font-family="Times,serif" font-size="14.00">●</text>
</g>
<!-- cluster_Sawtooth_io_wavelength&#45;&gt;op_asSInt_60 -->
<g id="edge5" class="edge">
<title>cluster_Sawtooth_io_wavelength&#45;&gt;op_asSInt_60:in1</title>
<path fill="none" stroke="black" d="M144.6,-42.95C161.53,-38.38 180.72,-34.44 199.27,-33.32"/>
<polygon fill="black" stroke="black" points="199.61,-36.81 209.5,-33 199.4,-29.81 199.61,-36.81"/>
</g>
<!-- cluster_Sawtooth_io_wavelength_pos -->
<g id="node2" class="node">
<title>cluster_Sawtooth_io_wavelength_pos</title>
<polygon fill="#cccccc" stroke="black" points="166,-182 16,-182 16,-146 166,-146 166,-182"/>
<text text-anchor="middle" x="91" y="-160.3" font-family="Times,serif" font-size="14.00">io_wavelength_pos</text>
</g>
<!-- op_shl_57 -->
<g id="node12" class="node">
<title>op_shl_57</title>
<polygon fill="#d8bfd8" stroke="transparent" points="222,-128 222,-178 309,-178 309,-128 222,-128"/>
<polygon fill="none" stroke="black" points="222.5,-153 222.5,-178 245.5,-178 245.5,-153 222.5,-153"/>
<text text-anchor="start" x="227.5" y="-161.8" font-family="Times,serif" font-size="14.00">●</text>
<polygon fill="none" stroke="black" points="245.5,-128 245.5,-178 286.5,-178 286.5,-128 245.5,-128"/>
<text text-anchor="start" x="250.5" y="-149.3" font-family="Times,serif" font-size="14.00"> shl </text>
<polygon fill="none" stroke="black" points="286.5,-128 286.5,-178 309.5,-178 309.5,-128 286.5,-128"/>
<text text-anchor="start" x="291.5" y="-149.3" font-family="Times,serif" font-size="14.00">●</text>
<polygon fill="none" stroke="black" points="222.5,-128 222.5,-153 245.5,-153 245.5,-128 222.5,-128"/>
<text text-anchor="start" x="229" y="-136.8" font-family="Times,serif" font-size="14.00">1</text>
</g>
<!-- cluster_Sawtooth_io_wavelength_pos&#45;&gt;op_shl_57 -->
<g id="edge8" class="edge">
<title>cluster_Sawtooth_io_wavelength_pos&#45;&gt;op_shl_57:in1</title>
<path fill="none" stroke="black" d="M166.3,-165.54C180.98,-165.76 196.44,-165.93 211.32,-165.98"/>
<polygon fill="black" stroke="black" points="211.49,-169.48 221.5,-166 211.51,-162.48 211.49,-169.48"/>
</g>
<!-- cluster_Sawtooth_io_sample_out -->
<g id="node3" class="node">
<title>cluster_Sawtooth_io_sample_out</title>
<polygon fill="#e0ffff" stroke="black" points="1692,-72 1575,-72 1575,-36 1692,-36 1692,-72"/>
<text text-anchor="middle" x="1633.5" y="-50.3" font-family="Times,serif" font-size="14.00">io_sample_out</text>
</g>
<!-- op_div_49 -->
<g id="node4" class="node">
<title>op_div_49</title>
<polygon fill="#d8bfd8" stroke="transparent" points="1444,-29 1444,-79 1531,-79 1531,-29 1444,-29"/>
<polygon fill="none" stroke="black" points="1444.5,-54 1444.5,-79 1467.5,-79 1467.5,-54 1444.5,-54"/>
<text text-anchor="start" x="1449.5" y="-62.8" font-family="Times,serif" font-size="14.00">●</text>
<polygon fill="none" stroke="black" points="1467.5,-29 1467.5,-79 1508.5,-79 1508.5,-29 1467.5,-29"/>
<text text-anchor="start" x="1472.5" y="-50.3" font-family="Times,serif" font-size="14.00"> div </text>
<polygon fill="none" stroke="black" points="1508.5,-29 1508.5,-79 1531.5,-79 1531.5,-29 1508.5,-29"/>
<text text-anchor="start" x="1513.5" y="-50.3" font-family="Times,serif" font-size="14.00">●</text>
<polygon fill="none" stroke="black" points="1444.5,-29 1444.5,-54 1467.5,-54 1467.5,-29 1444.5,-29"/>
<text text-anchor="start" x="1449.5" y="-37.8" font-family="Times,serif" font-size="14.00">●</text>
</g>
<!-- op_div_49&#45;&gt;cluster_Sawtooth_io_sample_out -->
<g id="edge6" class="edge">
<title>op_div_49:out&#45;&gt;cluster_Sawtooth_io_sample_out</title>
<path fill="none" stroke="black" d="M1532.5,-54C1542.89,-54 1553.89,-54 1564.65,-54"/>
<polygon fill="black" stroke="black" points="1564.86,-57.5 1574.86,-54 1564.86,-50.5 1564.86,-57.5"/>
</g>
<!-- op_asSInt_50 -->
<g id="node5" class="node">
<title>op_asSInt_50</title>
<polygon fill="#d8bfd8" stroke="transparent" points="1281,-66.5 1281,-91.5 1392,-91.5 1392,-66.5 1281,-66.5"/>
<polygon fill="none" stroke="black" points="1281.5,-66 1281.5,-91 1304.5,-91 1304.5,-66 1281.5,-66"/>
<text text-anchor="start" x="1286.5" y="-74.8" font-family="Times,serif" font-size="14.00">●</text>
<polygon fill="none" stroke="black" points="1304.5,-66 1304.5,-91 1369.5,-91 1369.5,-66 1304.5,-66"/>
<text text-anchor="start" x="1309.5" y="-74.8" font-family="Times,serif" font-size="14.00"> asSInt </text>
<polygon fill="none" stroke="black" points="1369.5,-66 1369.5,-91 1392.5,-91 1392.5,-66 1369.5,-66"/>
<text text-anchor="start" x="1374.5" y="-74.8" font-family="Times,serif" font-size="14.00">●</text>
</g>
<!-- op_asSInt_50&#45;&gt;op_div_49 -->
<g id="edge7" class="edge">
<title>op_asSInt_50:out&#45;&gt;op_div_49:in1</title>
<path fill="none" stroke="black" d="M1393.5,-78C1412.34,-78 1418.66,-70.46 1433.2,-67.86"/>
<polygon fill="black" stroke="black" points="1433.83,-71.32 1443.5,-67 1433.24,-64.35 1433.83,-71.32"/>
</g>
<!-- op_tail_51 -->
<g id="node6" class="node">
<title>op_tail_51</title>
<polygon fill="#d8bfd8" stroke="transparent" points="1140,-60 1140,-110 1229,-110 1229,-60 1140,-60"/>
<polygon fill="none" stroke="black" points="1140.5,-85 1140.5,-110 1163.5,-110 1163.5,-85 1140.5,-85"/>
<text text-anchor="start" x="1145.5" y="-93.8" font-family="Times,serif" font-size="14.00">●</text>
<polygon fill="none" stroke="black" points="1163.5,-60 1163.5,-110 1206.5,-110 1206.5,-60 1163.5,-60"/>
<text text-anchor="start" x="1168.5" y="-81.3" font-family="Times,serif" font-size="14.00"> tail </text>
<polygon fill="none" stroke="black" points="1206.5,-60 1206.5,-110 1229.5,-110 1229.5,-60 1206.5,-60"/>
<text text-anchor="start" x="1211.5" y="-81.3" font-family="Times,serif" font-size="14.00">●</text>
<polygon fill="none" stroke="black" points="1140.5,-60 1140.5,-85 1163.5,-85 1163.5,-60 1140.5,-60"/>
<text text-anchor="start" x="1147" y="-68.8" font-family="Times,serif" font-size="14.00">1</text>
</g>
<!-- op_tail_51&#45;&gt;op_asSInt_50 -->
<g id="edge15" class="edge">
<title>op_tail_51:out&#45;&gt;op_asSInt_50:in1</title>
<path fill="none" stroke="black" d="M1230.5,-85C1249.08,-85 1255.79,-80.2 1270.29,-78.55"/>
<polygon fill="black" stroke="black" points="1270.7,-82.03 1280.5,-78 1270.33,-75.04 1270.7,-82.03"/>
</g>
<!-- op_mul_52 -->
<g id="node7" class="node">
<title>op_mul_52</title>
<polygon fill="#d8bfd8" stroke="transparent" points="962,-73 962,-123 1088,-123 1088,-73 962,-73"/>
<polygon fill="none" stroke="black" points="962,-98 962,-123 1018,-123 1018,-98 962,-98"/>
<text text-anchor="start" x="967" y="-106.8" font-family="Times,serif" font-size="14.00">32767</text>
<polygon fill="none" stroke="black" points="1018,-73 1018,-123 1065,-123 1065,-73 1018,-73"/>
<text text-anchor="start" x="1023" y="-94.3" font-family="Times,serif" font-size="14.00"> mul </text>
<polygon fill="none" stroke="black" points="1065,-73 1065,-123 1088,-123 1088,-73 1065,-73"/>
<text text-anchor="start" x="1070" y="-94.3" font-family="Times,serif" font-size="14.00">●</text>
<polygon fill="none" stroke="black" points="962,-73 962,-98 1018,-98 1018,-73 962,-73"/>
<text text-anchor="start" x="983.5" y="-81.8" font-family="Times,serif" font-size="14.00">●</text>
</g>
<!-- op_mul_52&#45;&gt;op_tail_51 -->
<g id="edge2" class="edge">
<title>op_mul_52:out&#45;&gt;op_tail_51:in1</title>
<path fill="none" stroke="black" d="M1089,-98C1107.59,-98 1114.63,-98 1129.25,-98"/>
<polygon fill="black" stroke="black" points="1129.5,-101.5 1139.5,-98 1129.5,-94.5 1129.5,-101.5"/>
</g>
<!-- op_cvt_53 -->
<g id="node8" class="node">
<title>op_cvt_53</title>
<polygon fill="#d8bfd8" stroke="transparent" points="823,-74.5 823,-99.5 910,-99.5 910,-74.5 823,-74.5"/>
<polygon fill="none" stroke="black" points="823.5,-74 823.5,-99 846.5,-99 846.5,-74 823.5,-74"/>
<text text-anchor="start" x="828.5" y="-82.8" font-family="Times,serif" font-size="14.00">●</text>
<polygon fill="none" stroke="black" points="846.5,-74 846.5,-99 887.5,-99 887.5,-74 846.5,-74"/>
<text text-anchor="start" x="851.5" y="-82.8" font-family="Times,serif" font-size="14.00"> cvt </text>
<polygon fill="none" stroke="black" points="887.5,-74 887.5,-99 910.5,-99 910.5,-74 887.5,-74"/>
<text text-anchor="start" x="892.5" y="-82.8" font-family="Times,serif" font-size="14.00">●</text>
</g>
<!-- op_cvt_53&#45;&gt;op_mul_52 -->
<g id="edge4" class="edge">
<title>op_cvt_53:out&#45;&gt;op_mul_52:in2</title>
<path fill="none" stroke="black" d="M911.5,-86C929.72,-86 936.62,-85.31 950.95,-85.08"/>
<polygon fill="black" stroke="black" points="951.03,-88.58 961,-85 950.97,-81.58 951.03,-88.58"/>
</g>
<!-- op_tail_54 -->
<g id="node9" class="node">
<title>op_tail_54</title>
<polygon fill="#d8bfd8" stroke="transparent" points="682,-62 682,-112 771,-112 771,-62 682,-62"/>
<polygon fill="none" stroke="black" points="682.5,-87 682.5,-112 705.5,-112 705.5,-87 682.5,-87"/>
<text text-anchor="start" x="687.5" y="-95.8" font-family="Times,serif" font-size="14.00">●</text>
<polygon fill="none" stroke="black" points="705.5,-62 705.5,-112 748.5,-112 748.5,-62 705.5,-62"/>
<text text-anchor="start" x="710.5" y="-83.3" font-family="Times,serif" font-size="14.00"> tail </text>
<polygon fill="none" stroke="black" points="748.5,-62 748.5,-112 771.5,-112 771.5,-62 748.5,-62"/>
<text text-anchor="start" x="753.5" y="-83.3" font-family="Times,serif" font-size="14.00">●</text>
<polygon fill="none" stroke="black" points="682.5,-62 682.5,-87 705.5,-87 705.5,-62 682.5,-62"/>
<text text-anchor="start" x="689" y="-70.8" font-family="Times,serif" font-size="14.00">1</text>
</g>
<!-- op_tail_54&#45;&gt;op_cvt_53 -->
<g id="edge14" class="edge">
<title>op_tail_54:out&#45;&gt;op_cvt_53:in1</title>
<path fill="none" stroke="black" d="M772.5,-87C790.91,-87 797.87,-86.31 812.35,-86.08"/>
<polygon fill="black" stroke="black" points="812.53,-89.58 822.5,-86 812.47,-82.58 812.53,-89.58"/>
</g>
<!-- op_asUInt_55 -->
<g id="node10" class="node">
<title>op_asUInt_55</title>
<polygon fill="#d8bfd8" stroke="transparent" points="516,-88.5 516,-113.5 630,-113.5 630,-88.5 516,-88.5"/>
<polygon fill="none" stroke="black" points="516,-88 516,-113 539,-113 539,-88 516,-88"/>
<text text-anchor="start" x="521" y="-96.8" font-family="Times,serif" font-size="14.00">●</text>
<polygon fill="none" stroke="black" points="539,-88 539,-113 607,-113 607,-88 539,-88"/>
<text text-anchor="start" x="544" y="-96.8" font-family="Times,serif" font-size="14.00"> asUInt </text>
<polygon fill="none" stroke="black" points="607,-88 607,-113 630,-113 630,-88 607,-88"/>
<text text-anchor="start" x="612" y="-96.8" font-family="Times,serif" font-size="14.00">●</text>
</g>
<!-- op_asUInt_55&#45;&gt;op_tail_54 -->
<g id="edge12" class="edge">
<title>op_asUInt_55:out&#45;&gt;op_tail_54:in1</title>
<path fill="none" stroke="black" d="M631,-100C649.59,-100 656.63,-100 671.25,-100"/>
<polygon fill="black" stroke="black" points="671.5,-103.5 681.5,-100 671.5,-96.5 671.5,-103.5"/>
</g>
<!-- op_sub_56 -->
<g id="node11" class="node">
<title>op_sub_56</title>
<polygon fill="#d8bfd8" stroke="transparent" points="373,-75 373,-125 464,-125 464,-75 373,-75"/>
<polygon fill="none" stroke="black" points="373.5,-100 373.5,-125 396.5,-125 396.5,-100 373.5,-100"/>
<text text-anchor="start" x="378.5" y="-108.8" font-family="Times,serif" font-size="14.00">●</text>
<polygon fill="none" stroke="black" points="396.5,-75 396.5,-125 441.5,-125 441.5,-75 396.5,-75"/>
<text text-anchor="start" x="401.5" y="-96.3" font-family="Times,serif" font-size="14.00"> sub </text>
<polygon fill="none" stroke="black" points="441.5,-75 441.5,-125 464.5,-125 464.5,-75 441.5,-75"/>
<text text-anchor="start" x="446.5" y="-96.3" font-family="Times,serif" font-size="14.00">●</text>
<polygon fill="none" stroke="black" points="373.5,-75 373.5,-100 396.5,-100 396.5,-75 373.5,-75"/>
<text text-anchor="start" x="378.5" y="-83.8" font-family="Times,serif" font-size="14.00">●</text>
</g>
<!-- op_sub_56&#45;&gt;op_asUInt_55 -->
<g id="edge9" class="edge">
<title>op_sub_56:out&#45;&gt;op_asUInt_55:in1</title>
<path fill="none" stroke="black" d="M465.5,-100C483.72,-100 490.62,-100 504.95,-100"/>
<polygon fill="black" stroke="black" points="505,-103.5 515,-100 505,-96.5 505,-103.5"/>
</g>
<!-- op_shl_57&#45;&gt;op_sub_56 -->
<g id="edge13" class="edge">
<title>op_shl_57:out&#45;&gt;op_sub_56:in1</title>
<path fill="none" stroke="black" d="M310.5,-153C339.45,-153 340.05,-121.83 362.35,-114.52"/>
<polygon fill="black" stroke="black" points="363.13,-117.94 372.5,-113 362.09,-111.02 363.13,-117.94"/>
</g>
<!-- op_pad_58&#45;&gt;op_sub_56 -->
<g id="edge11" class="edge">
<title>op_pad_58:out&#45;&gt;op_sub_56:in2</title>
<path fill="none" stroke="black" d="M312.5,-87C335.42,-87 343.56,-87 362.33,-87"/>
<polygon fill="black" stroke="black" points="362.5,-90.5 372.5,-87 362.5,-83.5 362.5,-90.5"/>
</g>
<!-- op_pad_59 -->
<g id="node14" class="node">
<title>op_pad_59</title>
<polygon fill="#d8bfd8" stroke="transparent" points="527,-24.5 527,-49.5 619,-49.5 619,-24.5 527,-24.5"/>
<polygon fill="none" stroke="black" points="527,-24 527,-49 550,-49 550,-24 527,-24"/>
<text text-anchor="start" x="532" y="-32.8" font-family="Times,serif" font-size="14.00">●</text>
<polygon fill="none" stroke="black" points="550,-24 550,-49 596,-49 596,-24 550,-24"/>
<text text-anchor="start" x="555" y="-32.8" font-family="Times,serif" font-size="14.00"> pad </text>
<polygon fill="none" stroke="black" points="596,-24 596,-49 619,-49 619,-24 596,-24"/>
<text text-anchor="start" x="601" y="-32.8" font-family="Times,serif" font-size="14.00">●</text>
</g>
<!-- op_pad_59&#45;&gt;op_div_49 -->
<g id="edge3" class="edge">
<title>op_pad_59:out&#45;&gt;op_div_49:in2</title>
<path fill="none" stroke="black" d="M620,-36C729.11,-36 756.39,-36 865.5,-36 865.5,-36 865.5,-36 1185.5,-36 1296.72,-36 1327,-40.7 1433.32,-40.99"/>
<polygon fill="black" stroke="black" points="1433.5,-44.49 1443.5,-41 1433.5,-37.49 1433.5,-44.49"/>
</g>
<!-- op_asSInt_60&#45;&gt;op_pad_59 -->
<g id="edge1" class="edge">
<title>op_asSInt_60:out&#45;&gt;op_pad_59:in1</title>
<path fill="none" stroke="black" d="M322.5,-33C409.51,-33 433.73,-35.78 515.95,-35.99"/>
<polygon fill="black" stroke="black" points="516,-39.49 526,-36 516,-32.49 516,-39.49"/>
</g>
</g>
</svg>
