<?xml version="1.0" encoding="UTF-8" standalone="no"?>
<?xml-stylesheet href="styles.css" type="text/css"?>
<!DOCTYPE svg PUBLIC "-//W3C//DTD SVG 1.1//EN"
 "http://www.w3.org/Graphics/SVG/1.1/DTD/svg11.dtd">
<!-- Generated by graphviz version 2.40.1 (20161225.0304)
 -->
<!-- Title: Sawtooth Pages: 1 -->
<svg width="1506pt" height="195pt"
 viewBox="0.00 0.00 1506.00 195.00" xmlns="http://www.w3.org/2000/svg" xmlns:xlink="http://www.w3.org/1999/xlink">
<g id="graph0" class="graph" transform="scale(1 1) rotate(0) translate(4 191)">
<title>Sawtooth</title>
<polygon fill="#ffffff" stroke="transparent" points="-4,4 -4,-191 1502,-191 1502,4 -4,4"/>
<g id="clust1" class="cluster">
<title>cluster_Sawtooth</title>
<polygon fill="#fff8dc" stroke="#000000" points="8,-8 8,-179 1490,-179 1490,-8 8,-8"/>
<text text-anchor="middle" x="749" y="-163.8" font-family="Times,serif" font-size="14.00" fill="#000000">Sawtooth</text>
</g>
<!-- cluster_Sawtooth_io_wavelength -->
<g id="node1" class="node">
<title>cluster_Sawtooth_io_wavelength</title>
<polygon fill="#cccccc" stroke="#000000" points="125,-62 29,-62 29,-26 125,-26 125,-62"/>
<text text-anchor="middle" x="77" y="-40.3" font-family="Times,serif" font-size="14.00" fill="#000000">io_wavelength</text>
</g>
<!-- op_pad_115 -->
<g id="node13" class="node">
<title>op_pad_115</title>
<polygon fill="#d8bfd8" stroke="transparent" points="182,-41.5 182,-66.5 258,-66.5 258,-41.5 182,-41.5"/>
<polygon fill="none" stroke="#000000" points="182,-41 182,-66 201,-66 201,-41 182,-41"/>
<text text-anchor="start" x="187" y="-49.8" font-family="Times,serif" font-size="14.00" fill="#000000">●</text>
<polygon fill="none" stroke="#000000" points="201,-41 201,-66 239,-66 239,-41 201,-41"/>
<text text-anchor="start" x="206" y="-49.8" font-family="Times,serif" font-size="14.00" fill="#000000"> pad </text>
<polygon fill="none" stroke="#000000" points="239,-41 239,-66 258,-66 258,-41 239,-41"/>
<text text-anchor="start" x="244" y="-49.8" font-family="Times,serif" font-size="14.00" fill="#000000">●</text>
</g>
<!-- cluster_Sawtooth_io_wavelength&#45;&gt;op_pad_115 -->
<g id="edge3" class="edge">
<title>cluster_Sawtooth_io_wavelength&#45;&gt;op_pad_115:in1</title>
<path fill="none" stroke="#000000" d="M125.0161,-49.8522C139.6687,-51.2623 156.0692,-52.4772 171.7914,-52.8682"/>
<polygon fill="#000000" stroke="#000000" points="171.9556,-56.3705 182,-53 172.046,-49.3711 171.9556,-56.3705"/>
</g>
<!-- op_asSInt_117 -->
<g id="node15" class="node">
<title>op_asSInt_117</title>
<polygon fill="#d8bfd8" stroke="transparent" points="310,-21.5 310,-46.5 400,-46.5 400,-21.5 310,-21.5"/>
<polygon fill="none" stroke="#000000" points="310,-21 310,-46 329,-46 329,-21 310,-21"/>
<text text-anchor="start" x="315" y="-29.8" font-family="Times,serif" font-size="14.00" fill="#000000">●</text>
<polygon fill="none" stroke="#000000" points="329,-21 329,-46 381,-46 381,-21 329,-21"/>
<text text-anchor="start" x="334" y="-29.8" font-family="Times,serif" font-size="14.00" fill="#000000"> asSInt </text>
<polygon fill="none" stroke="#000000" points="381,-21 381,-46 400,-46 400,-21 381,-21"/>
<text text-anchor="start" x="386" y="-29.8" font-family="Times,serif" font-size="14.00" fill="#000000">●</text>
</g>
<!-- cluster_Sawtooth_io_wavelength&#45;&gt;op_asSInt_117 -->
<g id="edge14" class="edge">
<title>cluster_Sawtooth_io_wavelength&#45;&gt;op_asSInt_117:in1</title>
<path fill="none" stroke="#000000" d="M125.1352,-33.8657C140.6583,-31.0543 157.9893,-28.3924 174,-27 214.7351,-23.4574 225.205,-24.2313 266,-27 281.8453,-28.0754 287.9007,-31.3052 299.9454,-32.5258"/>
<polygon fill="#000000" stroke="#000000" points="299.8462,-36.0249 310,-33 300.176,-29.0327 299.8462,-36.0249"/>
</g>
<!-- cluster_Sawtooth_io_wavelength_pos -->
<g id="node2" class="node">
<title>cluster_Sawtooth_io_wavelength_pos</title>
<polygon fill="#cccccc" stroke="#000000" points="138,-148 16,-148 16,-112 138,-112 138,-148"/>
<text text-anchor="middle" x="77" y="-126.3" font-family="Times,serif" font-size="14.00" fill="#000000">io_wavelength_pos</text>
</g>
<!-- op_shl_114 -->
<g id="node12" class="node">
<title>op_shl_114</title>
<polygon fill="#d8bfd8" stroke="transparent" points="184,-94 184,-144 256,-144 256,-94 184,-94"/>
<polygon fill="none" stroke="#000000" points="184,-119 184,-144 203,-144 203,-119 184,-119"/>
<text text-anchor="start" x="189" y="-127.8" font-family="Times,serif" font-size="14.00" fill="#000000">●</text>
<polygon fill="none" stroke="#000000" points="203,-94 203,-144 237,-144 237,-94 203,-94"/>
<text text-anchor="start" x="208" y="-115.3" font-family="Times,serif" font-size="14.00" fill="#000000"> shl </text>
<polygon fill="none" stroke="#000000" points="237,-94 237,-144 256,-144 256,-94 237,-94"/>
<text text-anchor="start" x="242" y="-115.3" font-family="Times,serif" font-size="14.00" fill="#000000">●</text>
<polygon fill="none" stroke="#000000" points="184,-94 184,-119 203,-119 203,-94 184,-94"/>
<text text-anchor="start" x="190" y="-102.8" font-family="Times,serif" font-size="14.00" fill="#000000">1</text>
</g>
<!-- cluster_Sawtooth_io_wavelength_pos&#45;&gt;op_shl_114 -->
<g id="edge11" class="edge">
<title>cluster_Sawtooth_io_wavelength_pos&#45;&gt;op_shl_114:in1</title>
<path fill="none" stroke="#000000" d="M138.1068,-131.5361C149.7133,-131.7438 161.928,-131.9077 173.7441,-131.9713"/>
<polygon fill="#000000" stroke="#000000" points="173.9902,-135.4719 184,-132 174.0099,-128.472 173.9902,-135.4719"/>
</g>
<!-- cluster_Sawtooth_io_sample_out -->
<g id="node3" class="node">
<title>cluster_Sawtooth_io_sample_out</title>
<polygon fill="#e0ffff" stroke="#000000" points="1482,-71 1385,-71 1385,-35 1482,-35 1482,-71"/>
<text text-anchor="middle" x="1433.5" y="-49.3" font-family="Times,serif" font-size="14.00" fill="#000000">io_sample_out</text>
</g>
<!-- op_div_106 -->
<g id="node4" class="node">
<title>op_div_106</title>
<polygon fill="#d8bfd8" stroke="transparent" points="1268,-28 1268,-78 1341,-78 1341,-28 1268,-28"/>
<polygon fill="none" stroke="#000000" points="1268.5,-53 1268.5,-78 1287.5,-78 1287.5,-53 1268.5,-53"/>
<text text-anchor="start" x="1273.5" y="-61.8" font-family="Times,serif" font-size="14.00" fill="#000000">●</text>
<polygon fill="none" stroke="#000000" points="1287.5,-28 1287.5,-78 1322.5,-78 1322.5,-28 1287.5,-28"/>
<text text-anchor="start" x="1292.5" y="-49.3" font-family="Times,serif" font-size="14.00" fill="#000000"> div </text>
<polygon fill="none" stroke="#000000" points="1322.5,-28 1322.5,-78 1341.5,-78 1341.5,-28 1322.5,-28"/>
<text text-anchor="start" x="1327.5" y="-49.3" font-family="Times,serif" font-size="14.00" fill="#000000">●</text>
<polygon fill="none" stroke="#000000" points="1268.5,-28 1268.5,-53 1287.5,-53 1287.5,-28 1268.5,-28"/>
<text text-anchor="start" x="1273.5" y="-36.8" font-family="Times,serif" font-size="14.00" fill="#000000">●</text>
</g>
<!-- op_div_106&#45;&gt;cluster_Sawtooth_io_sample_out -->
<g id="edge6" class="edge">
<title>op_div_106:out&#45;&gt;cluster_Sawtooth_io_sample_out</title>
<path fill="none" stroke="#000000" d="M1341.5,-53C1352.2613,-53 1363.7306,-53 1374.7899,-53"/>
<polygon fill="#000000" stroke="#000000" points="1374.7991,-56.5001 1384.7991,-53 1374.799,-49.5001 1374.7991,-56.5001"/>
</g>
<!-- op_asSInt_107 -->
<g id="node5" class="node">
<title>op_asSInt_107</title>
<polygon fill="#d8bfd8" stroke="transparent" points="1126,-65.5 1126,-90.5 1216,-90.5 1216,-65.5 1126,-65.5"/>
<polygon fill="none" stroke="#000000" points="1126,-65 1126,-90 1145,-90 1145,-65 1126,-65"/>
<text text-anchor="start" x="1131" y="-73.8" font-family="Times,serif" font-size="14.00" fill="#000000">●</text>
<polygon fill="none" stroke="#000000" points="1145,-65 1145,-90 1197,-90 1197,-65 1145,-65"/>
<text text-anchor="start" x="1150" y="-73.8" font-family="Times,serif" font-size="14.00" fill="#000000"> asSInt </text>
<polygon fill="none" stroke="#000000" points="1197,-65 1197,-90 1216,-90 1216,-65 1197,-65"/>
<text text-anchor="start" x="1202" y="-73.8" font-family="Times,serif" font-size="14.00" fill="#000000">●</text>
</g>
<!-- op_asSInt_107&#45;&gt;op_div_106 -->
<g id="edge7" class="edge">
<title>op_asSInt_107:out&#45;&gt;op_div_106:in1</title>
<path fill="none" stroke="#000000" d="M1216,-77C1235.9288,-77 1242.5665,-69.3133 1258.1341,-66.7911"/>
<polygon fill="#000000" stroke="#000000" points="1258.7954,-70.2509 1268.5,-66 1258.2626,-63.2712 1258.7954,-70.2509"/>
</g>
<!-- op_tail_108 -->
<g id="node6" class="node">
<title>op_tail_108</title>
<polygon fill="#d8bfd8" stroke="transparent" points="1001,-58 1001,-108 1074,-108 1074,-58 1001,-58"/>
<polygon fill="none" stroke="#000000" points="1001.5,-83 1001.5,-108 1020.5,-108 1020.5,-83 1001.5,-83"/>
<text text-anchor="start" x="1006.5" y="-91.8" font-family="Times,serif" font-size="14.00" fill="#000000">●</text>
<polygon fill="none" stroke="#000000" points="1020.5,-58 1020.5,-108 1055.5,-108 1055.5,-58 1020.5,-58"/>
<text text-anchor="start" x="1025.5" y="-79.3" font-family="Times,serif" font-size="14.00" fill="#000000"> tail </text>
<polygon fill="none" stroke="#000000" points="1055.5,-58 1055.5,-108 1074.5,-108 1074.5,-58 1055.5,-58"/>
<text text-anchor="start" x="1060.5" y="-79.3" font-family="Times,serif" font-size="14.00" fill="#000000">●</text>
<polygon fill="none" stroke="#000000" points="1001.5,-58 1001.5,-83 1020.5,-83 1020.5,-58 1001.5,-58"/>
<text text-anchor="start" x="1007.5" y="-66.8" font-family="Times,serif" font-size="14.00" fill="#000000">1</text>
</g>
<!-- op_tail_108&#45;&gt;op_asSInt_107 -->
<g id="edge12" class="edge">
<title>op_tail_108:out&#45;&gt;op_asSInt_107:in1</title>
<path fill="none" stroke="#000000" d="M1074.5,-83C1093.7631,-83 1100.7057,-78.8073 1115.9262,-77.4315"/>
<polygon fill="#000000" stroke="#000000" points="1116.159,-80.9248 1126,-77 1115.8593,-73.9313 1116.159,-80.9248"/>
</g>
<!-- op_mul_109 -->
<g id="node7" class="node">
<title>op_mul_109</title>
<polygon fill="#d8bfd8" stroke="transparent" points="846,-71 846,-121 949,-121 949,-71 846,-71"/>
<polygon fill="none" stroke="#000000" points="846.5,-96 846.5,-121 890.5,-121 890.5,-96 846.5,-96"/>
<text text-anchor="start" x="851.5" y="-104.8" font-family="Times,serif" font-size="14.00" fill="#000000">32767</text>
<polygon fill="none" stroke="#000000" points="890.5,-71 890.5,-121 930.5,-121 930.5,-71 890.5,-71"/>
<text text-anchor="start" x="895.5" y="-92.3" font-family="Times,serif" font-size="14.00" fill="#000000"> mul </text>
<polygon fill="none" stroke="#000000" points="930.5,-71 930.5,-121 949.5,-121 949.5,-71 930.5,-71"/>
<text text-anchor="start" x="935.5" y="-92.3" font-family="Times,serif" font-size="14.00" fill="#000000">●</text>
<polygon fill="none" stroke="#000000" points="846.5,-71 846.5,-96 890.5,-96 890.5,-71 846.5,-71"/>
<text text-anchor="start" x="864" y="-79.8" font-family="Times,serif" font-size="14.00" fill="#000000">●</text>
</g>
<!-- op_mul_109&#45;&gt;op_tail_108 -->
<g id="edge1" class="edge">
<title>op_mul_109:out&#45;&gt;op_tail_108:in1</title>
<path fill="none" stroke="#000000" d="M949.5,-96C968.8194,-96 976.0265,-96 991.3716,-96"/>
<polygon fill="#000000" stroke="#000000" points="991.5,-99.5001 1001.5,-96 991.5,-92.5001 991.5,-99.5001"/>
</g>
<!-- op_cvt_110 -->
<g id="node8" class="node">
<title>op_cvt_110</title>
<polygon fill="#d8bfd8" stroke="transparent" points="721,-72.5 721,-97.5 794,-97.5 794,-72.5 721,-72.5"/>
<polygon fill="none" stroke="#000000" points="721.5,-72 721.5,-97 740.5,-97 740.5,-72 721.5,-72"/>
<text text-anchor="start" x="726.5" y="-80.8" font-family="Times,serif" font-size="14.00" fill="#000000">●</text>
<polygon fill="none" stroke="#000000" points="740.5,-72 740.5,-97 775.5,-97 775.5,-72 740.5,-72"/>
<text text-anchor="start" x="745.5" y="-80.8" font-family="Times,serif" font-size="14.00" fill="#000000"> cvt </text>
<polygon fill="none" stroke="#000000" points="775.5,-72 775.5,-97 794.5,-97 794.5,-72 775.5,-72"/>
<text text-anchor="start" x="780.5" y="-80.8" font-family="Times,serif" font-size="14.00" fill="#000000">●</text>
</g>
<!-- op_cvt_110&#45;&gt;op_mul_109 -->
<g id="edge4" class="edge">
<title>op_cvt_110:out&#45;&gt;op_mul_109:in2</title>
<path fill="none" stroke="#000000" d="M794.5,-84C813.823,-84 821.0247,-83.3012 836.3704,-83.0719"/>
<polygon fill="#000000" stroke="#000000" points="836.5251,-86.571 846.5,-83 836.4754,-79.5712 836.5251,-86.571"/>
</g>
<!-- op_tail_111 -->
<g id="node9" class="node">
<title>op_tail_111</title>
<polygon fill="#d8bfd8" stroke="transparent" points="596,-60 596,-110 669,-110 669,-60 596,-60"/>
<polygon fill="none" stroke="#000000" points="596.5,-85 596.5,-110 615.5,-110 615.5,-85 596.5,-85"/>
<text text-anchor="start" x="601.5" y="-93.8" font-family="Times,serif" font-size="14.00" fill="#000000">●</text>
<polygon fill="none" stroke="#000000" points="615.5,-60 615.5,-110 650.5,-110 650.5,-60 615.5,-60"/>
<text text-anchor="start" x="620.5" y="-81.3" font-family="Times,serif" font-size="14.00" fill="#000000"> tail </text>
<polygon fill="none" stroke="#000000" points="650.5,-60 650.5,-110 669.5,-110 669.5,-60 650.5,-60"/>
<text text-anchor="start" x="655.5" y="-81.3" font-family="Times,serif" font-size="14.00" fill="#000000">●</text>
<polygon fill="none" stroke="#000000" points="596.5,-60 596.5,-85 615.5,-85 615.5,-60 596.5,-60"/>
<text text-anchor="start" x="602.5" y="-68.8" font-family="Times,serif" font-size="14.00" fill="#000000">1</text>
</g>
<!-- op_tail_111&#45;&gt;op_cvt_110 -->
<g id="edge9" class="edge">
<title>op_tail_111:out&#45;&gt;op_cvt_110:in1</title>
<path fill="none" stroke="#000000" d="M669.5,-85C688.823,-85 696.0247,-84.3012 711.3704,-84.0719"/>
<polygon fill="#000000" stroke="#000000" points="711.5251,-87.571 721.5,-84 711.4754,-80.5712 711.5251,-87.571"/>
</g>
<!-- op_asUInt_112 -->
<g id="node10" class="node">
<title>op_asUInt_112</title>
<polygon fill="#d8bfd8" stroke="transparent" points="452,-86.5 452,-111.5 544,-111.5 544,-86.5 452,-86.5"/>
<polygon fill="none" stroke="#000000" points="452,-86 452,-111 471,-111 471,-86 452,-86"/>
<text text-anchor="start" x="457" y="-94.8" font-family="Times,serif" font-size="14.00" fill="#000000">●</text>
<polygon fill="none" stroke="#000000" points="471,-86 471,-111 525,-111 525,-86 471,-86"/>
<text text-anchor="start" x="476" y="-94.8" font-family="Times,serif" font-size="14.00" fill="#000000"> asUInt </text>
<polygon fill="none" stroke="#000000" points="525,-86 525,-111 544,-111 544,-86 525,-86"/>
<text text-anchor="start" x="530" y="-94.8" font-family="Times,serif" font-size="14.00" fill="#000000">●</text>
</g>
<!-- op_asUInt_112&#45;&gt;op_tail_111 -->
<g id="edge5" class="edge">
<title>op_asUInt_112:out&#45;&gt;op_tail_111:in1</title>
<path fill="none" stroke="#000000" d="M544,-98C563.5052,-98 570.7816,-98 586.2742,-98"/>
<polygon fill="#000000" stroke="#000000" points="586.5,-101.5001 596.5,-98 586.5,-94.5001 586.5,-101.5001"/>
</g>
<!-- op_sub_113 -->
<g id="node11" class="node">
<title>op_sub_113</title>
<polygon fill="#d8bfd8" stroke="transparent" points="317.5,-74 317.5,-124 392.5,-124 392.5,-74 317.5,-74"/>
<polygon fill="none" stroke="#000000" points="318,-99 318,-124 337,-124 337,-99 318,-99"/>
<text text-anchor="start" x="323" y="-107.8" font-family="Times,serif" font-size="14.00" fill="#000000">●</text>
<polygon fill="none" stroke="#000000" points="337,-74 337,-124 374,-124 374,-74 337,-74"/>
<text text-anchor="start" x="342" y="-95.3" font-family="Times,serif" font-size="14.00" fill="#000000"> sub </text>
<polygon fill="none" stroke="#000000" points="374,-74 374,-124 393,-124 393,-74 374,-74"/>
<text text-anchor="start" x="379" y="-95.3" font-family="Times,serif" font-size="14.00" fill="#000000">●</text>
<polygon fill="none" stroke="#000000" points="318,-74 318,-99 337,-99 337,-74 318,-74"/>
<text text-anchor="start" x="323" y="-82.8" font-family="Times,serif" font-size="14.00" fill="#000000">●</text>
</g>
<!-- op_sub_113&#45;&gt;op_asUInt_112 -->
<g id="edge13" class="edge">
<title>op_sub_113:out&#45;&gt;op_asUInt_112:in1</title>
<path fill="none" stroke="#000000" d="M393,-99C415.538,-99 423.5432,-98.2615 441.9939,-98.0538"/>
<polygon fill="#000000" stroke="#000000" points="442.019,-101.5538 452,-98 441.9813,-94.5539 442.019,-101.5538"/>
</g>
<!-- op_shl_114&#45;&gt;op_sub_113 -->
<g id="edge15" class="edge">
<title>op_shl_114:out&#45;&gt;op_sub_113:in1</title>
<path fill="none" stroke="#000000" d="M256,-119C280.0477,-119 288.1587,-113.7359 307.9732,-112.3376"/>
<polygon fill="#000000" stroke="#000000" points="308.1235,-115.8346 318,-112 307.8878,-108.8386 308.1235,-115.8346"/>
</g>
<!-- op_pad_115&#45;&gt;op_sub_113 -->
<g id="edge10" class="edge">
<title>op_pad_115:out&#45;&gt;op_sub_113:in2</title>
<path fill="none" stroke="#000000" d="M258,-53C284.6297,-53 287.294,-78.2656 307.9323,-84.582"/>
<polygon fill="#000000" stroke="#000000" points="307.6096,-88.071 318,-86 308.5859,-81.1395 307.6096,-88.071"/>
</g>
<!-- op_pad_116 -->
<g id="node14" class="node">
<title>op_pad_116</title>
<polygon fill="#d8bfd8" stroke="transparent" points="460,-23.5 460,-48.5 536,-48.5 536,-23.5 460,-23.5"/>
<polygon fill="none" stroke="#000000" points="460,-23 460,-48 479,-48 479,-23 460,-23"/>
<text text-anchor="start" x="465" y="-31.8" font-family="Times,serif" font-size="14.00" fill="#000000">●</text>
<polygon fill="none" stroke="#000000" points="479,-23 479,-48 517,-48 517,-23 479,-23"/>
<text text-anchor="start" x="484" y="-31.8" font-family="Times,serif" font-size="14.00" fill="#000000"> pad </text>
<polygon fill="none" stroke="#000000" points="517,-23 517,-48 536,-48 536,-23 517,-23"/>
<text text-anchor="start" x="522" y="-31.8" font-family="Times,serif" font-size="14.00" fill="#000000">●</text>
</g>
<!-- op_pad_116&#45;&gt;op_div_106 -->
<g id="edge2" class="edge">
<title>op_pad_116:out&#45;&gt;op_div_106:in2</title>
<path fill="none" stroke="#000000" d="M536,-35C634.4444,-35 659.0556,-35 757.5,-35 757.5,-35 757.5,-35 1037.5,-35 1136.6808,-35 1163.968,-39.664 1258.2342,-39.9829"/>
<polygon fill="#000000" stroke="#000000" points="1258.4941,-43.4832 1268.5,-40 1258.5059,-36.4832 1258.4941,-43.4832"/>
</g>
<!-- op_asSInt_117&#45;&gt;op_pad_116 -->
<g id="edge8" class="edge">
<title>op_asSInt_117:out&#45;&gt;op_pad_116:in1</title>
<path fill="none" stroke="#000000" d="M400,-33C422.9294,-33 431.0555,-34.4771 449.8214,-34.8925"/>
<polygon fill="#000000" stroke="#000000" points="449.9636,-38.3941 460,-35 450.0376,-31.3945 449.9636,-38.3941"/>
</g>
</g>
</svg>
