<?xml version="1.0" encoding="UTF-8" standalone="no"?>
<?xml-stylesheet href="styles.css" type="text/css"?>
<!DOCTYPE svg PUBLIC "-//W3C//DTD SVG 1.1//EN"
 "http://www.w3.org/Graphics/SVG/1.1/DTD/svg11.dtd">
<!-- Generated by graphviz version 2.40.1 (20161225.0304)
 -->
<!-- Title: Sine Pages: 1 -->
<svg width="2430pt" height="293pt"
 viewBox="0.00 0.00 2430.00 293.00" xmlns="http://www.w3.org/2000/svg" xmlns:xlink="http://www.w3.org/1999/xlink">
<g id="graph0" class="graph" transform="scale(1 1) rotate(0) translate(4 289)">
<title>Sine</title>
<polygon fill="#ffffff" stroke="transparent" points="-4,4 -4,-289 2426,-289 2426,4 -4,4"/>
<g id="clust1" class="cluster">
<title>cluster_Sine</title>
<polygon fill="#fff8dc" stroke="#000000" points="8,-8 8,-277 2414,-277 2414,-8 8,-8"/>
<text text-anchor="middle" x="1211" y="-261.8" font-family="Times,serif" font-size="14.00" fill="#000000">Sine</text>
</g>
<!-- cluster_Sine_io_wavelength -->
<g id="node1" class="node">
<title>cluster_Sine_io_wavelength</title>
<polygon fill="#cccccc" stroke="#000000" points="382,-100 286,-100 286,-64 382,-64 382,-100"/>
<text text-anchor="middle" x="334" y="-78.3" font-family="Times,serif" font-size="14.00" fill="#000000">io_wavelength</text>
</g>
<!-- op_asSInt_170 -->
<g id="node13" class="node">
<title>op_asSInt_170</title>
<polygon fill="#d8bfd8" stroke="transparent" points="426,-70.5 426,-95.5 516,-95.5 516,-70.5 426,-70.5"/>
<polygon fill="none" stroke="#000000" points="426,-70 426,-95 445,-95 445,-70 426,-70"/>
<text text-anchor="start" x="431" y="-78.8" font-family="Times,serif" font-size="14.00" fill="#000000">●</text>
<polygon fill="none" stroke="#000000" points="445,-70 445,-95 497,-95 497,-70 445,-70"/>
<text text-anchor="start" x="450" y="-78.8" font-family="Times,serif" font-size="14.00" fill="#000000"> asSInt </text>
<polygon fill="none" stroke="#000000" points="497,-70 497,-95 516,-95 516,-70 497,-70"/>
<text text-anchor="start" x="502" y="-78.8" font-family="Times,serif" font-size="14.00" fill="#000000">●</text>
</g>
<!-- cluster_Sine_io_wavelength&#45;&gt;op_asSInt_170 -->
<g id="edge6" class="edge">
<title>cluster_Sine_io_wavelength&#45;&gt;op_asSInt_170:in1</title>
<path fill="none" stroke="#000000" d="M382.2248,-82C393.0271,-82 404.6159,-82 415.8345,-82"/>
<polygon fill="#000000" stroke="#000000" points="416,-85.5001 426,-82 416,-78.5001 416,-85.5001"/>
</g>
<!-- cluster_Sine_io_note_life -->
<g id="node2" class="node">
<title>cluster_Sine_io_note_life</title>
<polygon fill="#cccccc" stroke="#000000" points="110,-146 28,-146 28,-110 110,-110 110,-146"/>
<text text-anchor="middle" x="69" y="-124.3" font-family="Times,serif" font-size="14.00" fill="#000000">io_note_life</text>
</g>
<!-- op_cvt_168 -->
<g id="node11" class="node">
<title>op_cvt_168</title>
<polygon fill="#d8bfd8" stroke="transparent" points="167.5,-119.5 167.5,-144.5 240.5,-144.5 240.5,-119.5 167.5,-119.5"/>
<polygon fill="none" stroke="#000000" points="168,-119 168,-144 187,-144 187,-119 168,-119"/>
<text text-anchor="start" x="173" y="-127.8" font-family="Times,serif" font-size="14.00" fill="#000000">●</text>
<polygon fill="none" stroke="#000000" points="187,-119 187,-144 222,-144 222,-119 187,-119"/>
<text text-anchor="start" x="192" y="-127.8" font-family="Times,serif" font-size="14.00" fill="#000000"> cvt </text>
<polygon fill="none" stroke="#000000" points="222,-119 222,-144 241,-144 241,-119 222,-119"/>
<text text-anchor="start" x="227" y="-127.8" font-family="Times,serif" font-size="14.00" fill="#000000">●</text>
</g>
<!-- cluster_Sine_io_note_life&#45;&gt;op_cvt_168 -->
<g id="edge21" class="edge">
<title>cluster_Sine_io_note_life&#45;&gt;op_cvt_168:in1</title>
<path fill="none" stroke="#000000" d="M110.416,-129.8143C124.9607,-130.3326 141.6639,-130.7984 157.638,-130.9491"/>
<polygon fill="#000000" stroke="#000000" points="157.9829,-134.4508 168,-131 158.0173,-127.4508 157.9829,-134.4508"/>
</g>
<!-- cluster_Sine_io_sample_out -->
<g id="node3" class="node">
<title>cluster_Sine_io_sample_out</title>
<polygon fill="#e0ffff" stroke="#000000" points="2406,-168 2309,-168 2309,-132 2406,-132 2406,-168"/>
<text text-anchor="middle" x="2357.5" y="-146.3" font-family="Times,serif" font-size="14.00" fill="#000000">io_sample_out</text>
</g>
<!-- cluster_Sine_angleValue -->
<g id="node4" class="node">
<title>cluster_Sine_angleValue</title>
<polygon fill="none" stroke="#000000" points="905,-131 827,-131 827,-95 905,-95 905,-131"/>
<text text-anchor="middle" x="866" y="-109.3" font-family="Times,serif" font-size="14.00" fill="#000000">angleValue</text>
</g>
<!-- op_mul_174 -->
<g id="node17" class="node">
<title>op_mul_174</title>
<polygon fill="#d8bfd8" stroke="transparent" points="1088,-192 1088,-242 1166,-242 1166,-192 1088,-192"/>
<polygon fill="none" stroke="#000000" points="1088,-217 1088,-242 1107,-242 1107,-217 1088,-217"/>
<text text-anchor="start" x="1094" y="-225.8" font-family="Times,serif" font-size="14.00" fill="#000000">4</text>
<polygon fill="none" stroke="#000000" points="1107,-192 1107,-242 1147,-242 1147,-192 1107,-192"/>
<text text-anchor="start" x="1112" y="-213.3" font-family="Times,serif" font-size="14.00" fill="#000000"> mul </text>
<polygon fill="none" stroke="#000000" points="1147,-192 1147,-242 1166,-242 1166,-192 1147,-192"/>
<text text-anchor="start" x="1152" y="-213.3" font-family="Times,serif" font-size="14.00" fill="#000000">●</text>
<polygon fill="none" stroke="#000000" points="1088,-192 1088,-217 1107,-217 1107,-192 1088,-192"/>
<text text-anchor="start" x="1093" y="-200.8" font-family="Times,serif" font-size="14.00" fill="#000000">●</text>
</g>
<!-- cluster_Sine_angleValue&#45;&gt;op_mul_174 -->
<g id="edge4" class="edge">
<title>cluster_Sine_angleValue&#45;&gt;op_mul_174:in2</title>
<path fill="none" stroke="#000000" d="M879.2506,-131.1585C892.7395,-148.1401 915.2806,-172.6785 941,-185 997.2779,-211.9612 1019.7284,-204.8925 1077.9345,-204.072"/>
<polygon fill="#000000" stroke="#000000" points="1078.0253,-207.5715 1088,-204 1077.9752,-200.5717 1078.0253,-207.5715"/>
</g>
<!-- op_sub_178 -->
<g id="node21" class="node">
<title>op_sub_178</title>
<polygon fill="#d8bfd8" stroke="transparent" points="949,-122 949,-172 1036,-172 1036,-122 949,-122"/>
<polygon fill="none" stroke="#000000" points="949.5,-147 949.5,-172 980.5,-172 980.5,-147 949.5,-147"/>
<text text-anchor="start" x="954.5" y="-155.8" font-family="Times,serif" font-size="14.00" fill="#000000">180</text>
<polygon fill="none" stroke="#000000" points="980.5,-122 980.5,-172 1017.5,-172 1017.5,-122 980.5,-122"/>
<text text-anchor="start" x="985.5" y="-143.3" font-family="Times,serif" font-size="14.00" fill="#000000"> sub </text>
<polygon fill="none" stroke="#000000" points="1017.5,-122 1017.5,-172 1036.5,-172 1036.5,-122 1017.5,-122"/>
<text text-anchor="start" x="1022.5" y="-143.3" font-family="Times,serif" font-size="14.00" fill="#000000">●</text>
<polygon fill="none" stroke="#000000" points="949.5,-122 949.5,-147 980.5,-147 980.5,-122 949.5,-122"/>
<text text-anchor="start" x="960.5" y="-130.8" font-family="Times,serif" font-size="14.00" fill="#000000">●</text>
</g>
<!-- cluster_Sine_angleValue&#45;&gt;op_sub_178 -->
<g id="edge31" class="edge">
<title>cluster_Sine_angleValue&#45;&gt;op_sub_178:in2</title>
<path fill="none" stroke="#000000" d="M905.4187,-127.1238C916.0631,-130.0619 927.8485,-132.5685 939.4201,-133.5535"/>
<polygon fill="#000000" stroke="#000000" points="939.3549,-137.0539 949.5,-134 939.6647,-130.0608 939.3549,-137.0539"/>
</g>
<!-- op_mul_183 -->
<g id="node26" class="node">
<title>op_mul_183</title>
<polygon fill="#d8bfd8" stroke="transparent" points="1360,-53 1360,-103 1438,-103 1438,-53 1360,-53"/>
<polygon fill="none" stroke="#000000" points="1360,-78 1360,-103 1379,-103 1379,-78 1360,-78"/>
<text text-anchor="start" x="1365" y="-86.8" font-family="Times,serif" font-size="14.00" fill="#000000">●</text>
<polygon fill="none" stroke="#000000" points="1379,-53 1379,-103 1419,-103 1419,-53 1379,-53"/>
<text text-anchor="start" x="1384" y="-74.3" font-family="Times,serif" font-size="14.00" fill="#000000"> mul </text>
<polygon fill="none" stroke="#000000" points="1419,-53 1419,-103 1438,-103 1438,-53 1419,-53"/>
<text text-anchor="start" x="1424" y="-74.3" font-family="Times,serif" font-size="14.00" fill="#000000">●</text>
<polygon fill="none" stroke="#000000" points="1360,-53 1360,-78 1379,-78 1379,-53 1360,-53"/>
<text text-anchor="start" x="1365" y="-61.8" font-family="Times,serif" font-size="14.00" fill="#000000">●</text>
</g>
<!-- cluster_Sine_angleValue&#45;&gt;op_mul_183 -->
<g id="edge15" class="edge">
<title>cluster_Sine_angleValue&#45;&gt;op_mul_183:in1</title>
<path fill="none" stroke="#000000" d="M905.0377,-110.0786C986.8161,-104.2139 1182.4096,-91.5214 1349.7792,-91.0156"/>
<polygon fill="#000000" stroke="#000000" points="1350.0054,-94.5153 1360,-91 1349.9946,-87.5153 1350.0054,-94.5153"/>
</g>
<!-- op_sub_186 -->
<g id="node29" class="node">
<title>op_sub_186</title>
<polygon fill="#d8bfd8" stroke="transparent" points="949,-20 949,-70 1036,-70 1036,-20 949,-20"/>
<polygon fill="none" stroke="#000000" points="949.5,-45 949.5,-70 980.5,-70 980.5,-45 949.5,-45"/>
<text text-anchor="start" x="954.5" y="-53.8" font-family="Times,serif" font-size="14.00" fill="#000000">180</text>
<polygon fill="none" stroke="#000000" points="980.5,-20 980.5,-70 1017.5,-70 1017.5,-20 980.5,-20"/>
<text text-anchor="start" x="985.5" y="-41.3" font-family="Times,serif" font-size="14.00" fill="#000000"> sub </text>
<polygon fill="none" stroke="#000000" points="1017.5,-20 1017.5,-70 1036.5,-70 1036.5,-20 1017.5,-20"/>
<text text-anchor="start" x="1022.5" y="-41.3" font-family="Times,serif" font-size="14.00" fill="#000000">●</text>
<polygon fill="none" stroke="#000000" points="949.5,-20 949.5,-45 980.5,-45 980.5,-20 949.5,-20"/>
<text text-anchor="start" x="960.5" y="-28.8" font-family="Times,serif" font-size="14.00" fill="#000000">●</text>
</g>
<!-- cluster_Sine_angleValue&#45;&gt;op_sub_186 -->
<g id="edge24" class="edge">
<title>cluster_Sine_angleValue&#45;&gt;op_sub_186:in2</title>
<path fill="none" stroke="#000000" d="M874.7346,-94.6198C886.2716,-73.0553 908.7568,-39.4214 939.3029,-33.058"/>
<polygon fill="#000000" stroke="#000000" points="939.9146,-36.5134 949.5,-32 939.1922,-29.5507 939.9146,-36.5134"/>
</g>
<!-- op_div_162 -->
<g id="node5" class="node">
<title>op_div_162</title>
<polygon fill="#d8bfd8" stroke="transparent" points="710,-88 710,-138 783,-138 783,-88 710,-88"/>
<polygon fill="none" stroke="#000000" points="710.5,-113 710.5,-138 729.5,-138 729.5,-113 710.5,-113"/>
<text text-anchor="start" x="715.5" y="-121.8" font-family="Times,serif" font-size="14.00" fill="#000000">●</text>
<polygon fill="none" stroke="#000000" points="729.5,-88 729.5,-138 764.5,-138 764.5,-88 729.5,-88"/>
<text text-anchor="start" x="734.5" y="-109.3" font-family="Times,serif" font-size="14.00" fill="#000000"> div </text>
<polygon fill="none" stroke="#000000" points="764.5,-88 764.5,-138 783.5,-138 783.5,-88 764.5,-88"/>
<text text-anchor="start" x="769.5" y="-109.3" font-family="Times,serif" font-size="14.00" fill="#000000">●</text>
<polygon fill="none" stroke="#000000" points="710.5,-88 710.5,-113 729.5,-113 729.5,-88 710.5,-88"/>
<text text-anchor="start" x="715.5" y="-96.8" font-family="Times,serif" font-size="14.00" fill="#000000">●</text>
</g>
<!-- op_div_162&#45;&gt;cluster_Sine_angleValue -->
<g id="edge25" class="edge">
<title>op_div_162:out&#45;&gt;cluster_Sine_angleValue</title>
<path fill="none" stroke="#000000" d="M783.5,-113C794.2455,-113 805.7784,-113 816.7141,-113"/>
<polygon fill="#000000" stroke="#000000" points="816.9709,-116.5001 826.9708,-113 816.9708,-109.5001 816.9709,-116.5001"/>
</g>
<!-- op_asSInt_163 -->
<g id="node6" class="node">
<title>op_asSInt_163</title>
<polygon fill="#d8bfd8" stroke="transparent" points="568,-130.5 568,-155.5 658,-155.5 658,-130.5 568,-130.5"/>
<polygon fill="none" stroke="#000000" points="568,-130 568,-155 587,-155 587,-130 568,-130"/>
<text text-anchor="start" x="573" y="-138.8" font-family="Times,serif" font-size="14.00" fill="#000000">●</text>
<polygon fill="none" stroke="#000000" points="587,-130 587,-155 639,-155 639,-130 587,-130"/>
<text text-anchor="start" x="592" y="-138.8" font-family="Times,serif" font-size="14.00" fill="#000000"> asSInt </text>
<polygon fill="none" stroke="#000000" points="639,-130 639,-155 658,-155 658,-130 639,-130"/>
<text text-anchor="start" x="644" y="-138.8" font-family="Times,serif" font-size="14.00" fill="#000000">●</text>
</g>
<!-- op_asSInt_163&#45;&gt;op_div_162 -->
<g id="edge16" class="edge">
<title>op_asSInt_163:out&#45;&gt;op_div_162:in1</title>
<path fill="none" stroke="#000000" d="M658,-142C678.5815,-142 684.4416,-130.6094 700.4226,-127.0498"/>
<polygon fill="#000000" stroke="#000000" points="700.9165,-130.5174 710.5,-126 700.1911,-123.5551 700.9165,-130.5174"/>
</g>
<!-- op_tail_164 -->
<g id="node7" class="node">
<title>op_tail_164</title>
<polygon fill="#d8bfd8" stroke="transparent" points="434.5,-123 434.5,-173 507.5,-173 507.5,-123 434.5,-123"/>
<polygon fill="none" stroke="#000000" points="435,-148 435,-173 454,-173 454,-148 435,-148"/>
<text text-anchor="start" x="440" y="-156.8" font-family="Times,serif" font-size="14.00" fill="#000000">●</text>
<polygon fill="none" stroke="#000000" points="454,-123 454,-173 489,-173 489,-123 454,-123"/>
<text text-anchor="start" x="459" y="-144.3" font-family="Times,serif" font-size="14.00" fill="#000000"> tail </text>
<polygon fill="none" stroke="#000000" points="489,-123 489,-173 508,-173 508,-123 489,-123"/>
<text text-anchor="start" x="494" y="-144.3" font-family="Times,serif" font-size="14.00" fill="#000000">●</text>
<polygon fill="none" stroke="#000000" points="435,-123 435,-148 454,-148 454,-123 435,-123"/>
<text text-anchor="start" x="441" y="-131.8" font-family="Times,serif" font-size="14.00" fill="#000000">1</text>
</g>
<!-- op_tail_164&#45;&gt;op_asSInt_163 -->
<g id="edge29" class="edge">
<title>op_tail_164:out&#45;&gt;op_asSInt_163:in1</title>
<path fill="none" stroke="#000000" d="M508,-148C531.031,-148 538.9967,-143.5688 557.7906,-142.3226"/>
<polygon fill="#000000" stroke="#000000" points="558.1156,-145.8142 568,-142 557.8944,-138.8177 558.1156,-145.8142"/>
</g>
<!-- op_mul_165 -->
<g id="node8" class="node">
<title>op_mul_165</title>
<polygon fill="#d8bfd8" stroke="transparent" points="295,-136 295,-186 373,-186 373,-136 295,-136"/>
<polygon fill="none" stroke="#000000" points="295,-161 295,-186 314,-186 314,-161 295,-161"/>
<text text-anchor="start" x="300" y="-169.8" font-family="Times,serif" font-size="14.00" fill="#000000">●</text>
<polygon fill="none" stroke="#000000" points="314,-136 314,-186 354,-186 354,-136 314,-136"/>
<text text-anchor="start" x="319" y="-157.3" font-family="Times,serif" font-size="14.00" fill="#000000"> mul </text>
<polygon fill="none" stroke="#000000" points="354,-136 354,-186 373,-186 373,-136 354,-136"/>
<text text-anchor="start" x="359" y="-157.3" font-family="Times,serif" font-size="14.00" fill="#000000">●</text>
<polygon fill="none" stroke="#000000" points="295,-136 295,-161 314,-161 314,-136 295,-136"/>
<text text-anchor="start" x="300" y="-144.8" font-family="Times,serif" font-size="14.00" fill="#000000">●</text>
</g>
<!-- op_mul_165&#45;&gt;op_tail_164 -->
<g id="edge7" class="edge">
<title>op_mul_165:out&#45;&gt;op_tail_164:in1</title>
<path fill="none" stroke="#000000" d="M373,-161C396.7882,-161 405.1745,-161 424.7512,-161"/>
<polygon fill="#000000" stroke="#000000" points="425,-164.5001 435,-161 425,-157.5001 425,-164.5001"/>
</g>
<!-- op_pad_166 -->
<g id="node9" class="node">
<title>op_pad_166</title>
<polygon fill="#d8bfd8" stroke="transparent" points="166,-178.5 166,-203.5 242,-203.5 242,-178.5 166,-178.5"/>
<polygon fill="none" stroke="#000000" points="166,-178 166,-203 185,-203 185,-178 166,-178"/>
<text text-anchor="start" x="171" y="-186.8" font-family="Times,serif" font-size="14.00" fill="#000000">●</text>
<polygon fill="none" stroke="#000000" points="185,-178 185,-203 223,-203 223,-178 185,-178"/>
<text text-anchor="start" x="190" y="-186.8" font-family="Times,serif" font-size="14.00" fill="#000000"> pad </text>
<polygon fill="none" stroke="#000000" points="223,-178 223,-203 242,-203 242,-178 223,-178"/>
<text text-anchor="start" x="228" y="-186.8" font-family="Times,serif" font-size="14.00" fill="#000000">●</text>
</g>
<!-- op_pad_166&#45;&gt;op_mul_165 -->
<g id="edge26" class="edge">
<title>op_pad_166:out&#45;&gt;op_mul_165:in1</title>
<path fill="none" stroke="#000000" d="M242,-190C262.7609,-190 268.7022,-178.6094 284.832,-175.0498"/>
<polygon fill="#000000" stroke="#000000" points="285.4124,-178.5086 295,-174 284.6934,-171.5456 285.4124,-178.5086"/>
</g>
<!-- op_mul_167 -->
<g id="node10" class="node">
<title>op_mul_167</title>
<polygon fill="#d8bfd8" stroke="transparent" points="24,-168 24,-218 114,-218 114,-168 24,-168"/>
<polygon fill="none" stroke="#000000" points="24,-193 24,-218 55,-218 55,-193 24,-193"/>
<text text-anchor="start" x="36" y="-201.8" font-family="Times,serif" font-size="14.00" fill="#000000">2</text>
<polygon fill="none" stroke="#000000" points="55,-168 55,-218 95,-218 95,-168 55,-168"/>
<text text-anchor="start" x="60" y="-189.3" font-family="Times,serif" font-size="14.00" fill="#000000"> mul </text>
<polygon fill="none" stroke="#000000" points="95,-168 95,-218 114,-218 114,-168 95,-168"/>
<text text-anchor="start" x="100" y="-189.3" font-family="Times,serif" font-size="14.00" fill="#000000">●</text>
<polygon fill="none" stroke="#000000" points="24,-168 24,-193 55,-193 55,-168 24,-168"/>
<text text-anchor="start" x="29" y="-176.8" font-family="Times,serif" font-size="14.00" fill="#000000">314</text>
</g>
<!-- op_mul_167&#45;&gt;op_pad_166 -->
<g id="edge17" class="edge">
<title>op_mul_167:out&#45;&gt;op_pad_166:in1</title>
<path fill="none" stroke="#000000" d="M114,-193C133.3516,-193 140.5102,-190.9036 155.8609,-190.2158"/>
<polygon fill="#000000" stroke="#000000" points="156.0768,-193.712 166,-190 155.9278,-186.7136 156.0768,-193.712"/>
</g>
<!-- op_cvt_168&#45;&gt;op_mul_165 -->
<g id="edge11" class="edge">
<title>op_cvt_168:out&#45;&gt;op_mul_165:in2</title>
<path fill="none" stroke="#000000" d="M241,-131C262.2298,-131 268.165,-143.1025 284.6153,-146.8846"/>
<polygon fill="#000000" stroke="#000000" points="284.6834,-150.4119 295,-148 285.431,-143.452 284.6834,-150.4119"/>
</g>
<!-- op_pad_169 -->
<g id="node12" class="node">
<title>op_pad_169</title>
<polygon fill="#d8bfd8" stroke="transparent" points="575,-73.5 575,-98.5 651,-98.5 651,-73.5 575,-73.5"/>
<polygon fill="none" stroke="#000000" points="575,-73 575,-98 594,-98 594,-73 575,-73"/>
<text text-anchor="start" x="580" y="-81.8" font-family="Times,serif" font-size="14.00" fill="#000000">●</text>
<polygon fill="none" stroke="#000000" points="594,-73 594,-98 632,-98 632,-73 594,-73"/>
<text text-anchor="start" x="599" y="-81.8" font-family="Times,serif" font-size="14.00" fill="#000000"> pad </text>
<polygon fill="none" stroke="#000000" points="632,-73 632,-98 651,-98 651,-73 632,-73"/>
<text text-anchor="start" x="637" y="-81.8" font-family="Times,serif" font-size="14.00" fill="#000000">●</text>
</g>
<!-- op_pad_169&#45;&gt;op_div_162 -->
<g id="edge1" class="edge">
<title>op_pad_169:out&#45;&gt;op_div_162:in2</title>
<path fill="none" stroke="#000000" d="M651,-85C674.5433,-85 681.4558,-96.1788 700.4516,-99.2355"/>
<polygon fill="#000000" stroke="#000000" points="700.2633,-102.7312 710.5,-100 700.7944,-95.7514 700.2633,-102.7312"/>
</g>
<!-- op_asSInt_170&#45;&gt;op_pad_169 -->
<g id="edge5" class="edge">
<title>op_asSInt_170:out&#45;&gt;op_pad_169:in1</title>
<path fill="none" stroke="#000000" d="M516,-82C538.5638,-82 546.5283,-84.2156 564.986,-84.8387"/>
<polygon fill="#000000" stroke="#000000" points="564.9449,-88.3384 575,-85 565.0577,-81.3393 564.9449,-88.3384"/>
</g>
<!-- op_mul_171 -->
<g id="node14" class="node">
<title>op_mul_171</title>
<polygon fill="#d8bfd8" stroke="transparent" points="2162,-125 2162,-175 2265,-175 2265,-125 2162,-125"/>
<polygon fill="none" stroke="#000000" points="2162.5,-150 2162.5,-175 2206.5,-175 2206.5,-150 2162.5,-150"/>
<text text-anchor="start" x="2167.5" y="-158.8" font-family="Times,serif" font-size="14.00" fill="#000000">32767</text>
<polygon fill="none" stroke="#000000" points="2206.5,-125 2206.5,-175 2246.5,-175 2246.5,-125 2206.5,-125"/>
<text text-anchor="start" x="2211.5" y="-146.3" font-family="Times,serif" font-size="14.00" fill="#000000"> mul </text>
<polygon fill="none" stroke="#000000" points="2246.5,-125 2246.5,-175 2265.5,-175 2265.5,-125 2246.5,-125"/>
<text text-anchor="start" x="2251.5" y="-146.3" font-family="Times,serif" font-size="14.00" fill="#000000">●</text>
<polygon fill="none" stroke="#000000" points="2162.5,-125 2162.5,-150 2206.5,-150 2206.5,-125 2162.5,-125"/>
<text text-anchor="start" x="2180" y="-133.8" font-family="Times,serif" font-size="14.00" fill="#000000">●</text>
</g>
<!-- op_mul_171&#45;&gt;cluster_Sine_io_sample_out -->
<g id="edge19" class="edge">
<title>op_mul_171:out&#45;&gt;cluster_Sine_io_sample_out</title>
<path fill="none" stroke="#000000" d="M2265.5,-150C2276.2613,-150 2287.7306,-150 2298.7899,-150"/>
<polygon fill="#000000" stroke="#000000" points="2298.7991,-153.5001 2308.7991,-150 2298.799,-146.5001 2298.7991,-153.5001"/>
</g>
<!-- op_div_172 -->
<g id="node15" class="node">
<title>op_div_172</title>
<polygon fill="#d8bfd8" stroke="transparent" points="2037,-112 2037,-162 2110,-162 2110,-112 2037,-112"/>
<polygon fill="none" stroke="#000000" points="2037.5,-137 2037.5,-162 2056.5,-162 2056.5,-137 2037.5,-137"/>
<text text-anchor="start" x="2042.5" y="-145.8" font-family="Times,serif" font-size="14.00" fill="#000000">●</text>
<polygon fill="none" stroke="#000000" points="2056.5,-112 2056.5,-162 2091.5,-162 2091.5,-112 2056.5,-112"/>
<text text-anchor="start" x="2061.5" y="-133.3" font-family="Times,serif" font-size="14.00" fill="#000000"> div </text>
<polygon fill="none" stroke="#000000" points="2091.5,-112 2091.5,-162 2110.5,-162 2110.5,-112 2091.5,-112"/>
<text text-anchor="start" x="2096.5" y="-133.3" font-family="Times,serif" font-size="14.00" fill="#000000">●</text>
<polygon fill="none" stroke="#000000" points="2037.5,-112 2037.5,-137 2056.5,-137 2056.5,-112 2037.5,-112"/>
<text text-anchor="start" x="2042.5" y="-120.8" font-family="Times,serif" font-size="14.00" fill="#000000">●</text>
</g>
<!-- op_div_172&#45;&gt;op_mul_171 -->
<g id="edge18" class="edge">
<title>op_div_172:out&#45;&gt;op_mul_171:in2</title>
<path fill="none" stroke="#000000" d="M2110.5,-137C2129.8194,-137 2137.0265,-137 2152.3716,-137"/>
<polygon fill="#000000" stroke="#000000" points="2152.5,-140.5001 2162.5,-137 2152.5,-133.5001 2152.5,-140.5001"/>
</g>
<!-- op_mul_173 -->
<g id="node16" class="node">
<title>op_mul_173</title>
<polygon fill="#d8bfd8" stroke="transparent" points="1501,-142 1501,-192 1579,-192 1579,-142 1501,-142"/>
<polygon fill="none" stroke="#000000" points="1501,-167 1501,-192 1520,-192 1520,-167 1501,-167"/>
<text text-anchor="start" x="1506" y="-175.8" font-family="Times,serif" font-size="14.00" fill="#000000">●</text>
<polygon fill="none" stroke="#000000" points="1520,-142 1520,-192 1560,-192 1560,-142 1520,-142"/>
<text text-anchor="start" x="1525" y="-163.3" font-family="Times,serif" font-size="14.00" fill="#000000"> mul </text>
<polygon fill="none" stroke="#000000" points="1560,-142 1560,-192 1579,-192 1579,-142 1560,-142"/>
<text text-anchor="start" x="1565" y="-163.3" font-family="Times,serif" font-size="14.00" fill="#000000">●</text>
<polygon fill="none" stroke="#000000" points="1501,-142 1501,-167 1520,-167 1520,-142 1501,-142"/>
<text text-anchor="start" x="1506" y="-150.8" font-family="Times,serif" font-size="14.00" fill="#000000">●</text>
</g>
<!-- op_mul_173&#45;&gt;op_div_172 -->
<g id="edge22" class="edge">
<title>op_mul_173:out&#45;&gt;op_div_172:in1</title>
<path fill="none" stroke="#000000" d="M1579,-167C1779.5324,-167 1831.8577,-150.5598 2027.4693,-150.0139"/>
<polygon fill="#000000" stroke="#000000" points="2027.5049,-153.514 2037.5,-150 2027.4951,-146.514 2027.5049,-153.514"/>
</g>
<!-- op_mul_174&#45;&gt;op_mul_173 -->
<g id="edge9" class="edge">
<title>op_mul_174:out&#45;&gt;op_mul_173:in1</title>
<path fill="none" stroke="#000000" d="M1166,-217C1312.2835,-217 1349.483,-181.7141 1490.6531,-180.06"/>
<polygon fill="#000000" stroke="#000000" points="1491.0205,-183.558 1501,-180 1490.9798,-176.5582 1491.0205,-183.558"/>
</g>
<!-- op_pad_175 -->
<g id="node18" class="node">
<title>op_pad_175</title>
<polygon fill="#d8bfd8" stroke="transparent" points="1361,-138.5 1361,-163.5 1437,-163.5 1437,-138.5 1361,-138.5"/>
<polygon fill="none" stroke="#000000" points="1361,-138 1361,-163 1380,-163 1380,-138 1361,-138"/>
<text text-anchor="start" x="1366" y="-146.8" font-family="Times,serif" font-size="14.00" fill="#000000">●</text>
<polygon fill="none" stroke="#000000" points="1380,-138 1380,-163 1418,-163 1418,-138 1380,-138"/>
<text text-anchor="start" x="1385" y="-146.8" font-family="Times,serif" font-size="14.00" fill="#000000"> pad </text>
<polygon fill="none" stroke="#000000" points="1418,-138 1418,-163 1437,-163 1437,-138 1418,-138"/>
<text text-anchor="start" x="1423" y="-146.8" font-family="Times,serif" font-size="14.00" fill="#000000">●</text>
</g>
<!-- op_pad_175&#45;&gt;op_mul_173 -->
<g id="edge30" class="edge">
<title>op_pad_175:out&#45;&gt;op_mul_173:in2</title>
<path fill="none" stroke="#000000" d="M1437,-150C1461.8261,-150 1470.3381,-153.0352 1490.9582,-153.8177"/>
<polygon fill="#000000" stroke="#000000" points="1490.9381,-157.3178 1501,-154 1491.0652,-150.319 1490.9381,-157.3178"/>
</g>
<!-- op_asSInt_176 -->
<g id="node19" class="node">
<title>op_asSInt_176</title>
<polygon fill="#d8bfd8" stroke="transparent" points="1218,-131.5 1218,-156.5 1308,-156.5 1308,-131.5 1218,-131.5"/>
<polygon fill="none" stroke="#000000" points="1218,-131 1218,-156 1237,-156 1237,-131 1218,-131"/>
<text text-anchor="start" x="1223" y="-139.8" font-family="Times,serif" font-size="14.00" fill="#000000">●</text>
<polygon fill="none" stroke="#000000" points="1237,-131 1237,-156 1289,-156 1289,-131 1237,-131"/>
<text text-anchor="start" x="1242" y="-139.8" font-family="Times,serif" font-size="14.00" fill="#000000"> asSInt </text>
<polygon fill="none" stroke="#000000" points="1289,-131 1289,-156 1308,-156 1308,-131 1289,-131"/>
<text text-anchor="start" x="1294" y="-139.8" font-family="Times,serif" font-size="14.00" fill="#000000">●</text>
</g>
<!-- op_asSInt_176&#45;&gt;op_pad_175 -->
<g id="edge12" class="edge">
<title>op_asSInt_176:out&#45;&gt;op_pad_175:in1</title>
<path fill="none" stroke="#000000" d="M1308,-143C1327.862,-143 1334.9498,-147.8915 1350.6202,-149.4966"/>
<polygon fill="#000000" stroke="#000000" points="1350.8422,-153.0114 1361,-150 1351.1813,-146.0196 1350.8422,-153.0114"/>
</g>
<!-- op_tail_177 -->
<g id="node20" class="node">
<title>op_tail_177</title>
<polygon fill="#d8bfd8" stroke="transparent" points="1090.5,-116 1090.5,-166 1163.5,-166 1163.5,-116 1090.5,-116"/>
<polygon fill="none" stroke="#000000" points="1091,-141 1091,-166 1110,-166 1110,-141 1091,-141"/>
<text text-anchor="start" x="1096" y="-149.8" font-family="Times,serif" font-size="14.00" fill="#000000">●</text>
<polygon fill="none" stroke="#000000" points="1110,-116 1110,-166 1145,-166 1145,-116 1110,-116"/>
<text text-anchor="start" x="1115" y="-137.3" font-family="Times,serif" font-size="14.00" fill="#000000"> tail </text>
<polygon fill="none" stroke="#000000" points="1145,-116 1145,-166 1164,-166 1164,-116 1145,-116"/>
<text text-anchor="start" x="1150" y="-137.3" font-family="Times,serif" font-size="14.00" fill="#000000">●</text>
<polygon fill="none" stroke="#000000" points="1091,-116 1091,-141 1110,-141 1110,-116 1091,-116"/>
<text text-anchor="start" x="1097" y="-124.8" font-family="Times,serif" font-size="14.00" fill="#000000">1</text>
</g>
<!-- op_tail_177&#45;&gt;op_asSInt_176 -->
<g id="edge27" class="edge">
<title>op_tail_177:out&#45;&gt;op_asSInt_176:in1</title>
<path fill="none" stroke="#000000" d="M1164,-141C1184.2639,-141 1191.6782,-142.4238 1207.9266,-142.8688"/>
<polygon fill="#000000" stroke="#000000" points="1207.9552,-146.3693 1218,-143 1208.0465,-139.3699 1207.9552,-146.3693"/>
</g>
<!-- op_sub_178&#45;&gt;op_tail_177 -->
<g id="edge3" class="edge">
<title>op_sub_178:out&#45;&gt;op_tail_177:in1</title>
<path fill="none" stroke="#000000" d="M1036.5,-147C1057.1054,-147 1064.3527,-151.9834 1080.7837,-153.5407"/>
<polygon fill="#000000" stroke="#000000" points="1080.8529,-157.0473 1091,-154 1081.1673,-150.0543 1080.8529,-157.0473"/>
</g>
<!-- op_pad_179 -->
<g id="node22" class="node">
<title>op_pad_179</title>
<polygon fill="#d8bfd8" stroke="transparent" points="1909,-101.5 1909,-126.5 1985,-126.5 1985,-101.5 1909,-101.5"/>
<polygon fill="none" stroke="#000000" points="1909,-101 1909,-126 1928,-126 1928,-101 1909,-101"/>
<text text-anchor="start" x="1914" y="-109.8" font-family="Times,serif" font-size="14.00" fill="#000000">●</text>
<polygon fill="none" stroke="#000000" points="1928,-101 1928,-126 1966,-126 1966,-101 1928,-101"/>
<text text-anchor="start" x="1933" y="-109.8" font-family="Times,serif" font-size="14.00" fill="#000000"> pad </text>
<polygon fill="none" stroke="#000000" points="1966,-101 1966,-126 1985,-126 1985,-101 1966,-101"/>
<text text-anchor="start" x="1971" y="-109.8" font-family="Times,serif" font-size="14.00" fill="#000000">●</text>
</g>
<!-- op_pad_179&#45;&gt;op_div_172 -->
<g id="edge8" class="edge">
<title>op_pad_179:out&#45;&gt;op_div_172:in2</title>
<path fill="none" stroke="#000000" d="M1985,-113C2004.9288,-113 2011.5665,-120.6867 2027.1341,-123.2089"/>
<polygon fill="#000000" stroke="#000000" points="2027.2626,-126.7288 2037.5,-124 2027.7954,-119.7491 2027.2626,-126.7288"/>
</g>
<!-- op_asSInt_180 -->
<g id="node23" class="node">
<title>op_asSInt_180</title>
<polygon fill="#d8bfd8" stroke="transparent" points="1767,-91.5 1767,-116.5 1857,-116.5 1857,-91.5 1767,-91.5"/>
<polygon fill="none" stroke="#000000" points="1767,-91 1767,-116 1786,-116 1786,-91 1767,-91"/>
<text text-anchor="start" x="1772" y="-99.8" font-family="Times,serif" font-size="14.00" fill="#000000">●</text>
<polygon fill="none" stroke="#000000" points="1786,-91 1786,-116 1838,-116 1838,-91 1786,-91"/>
<text text-anchor="start" x="1791" y="-99.8" font-family="Times,serif" font-size="14.00" fill="#000000"> asSInt </text>
<polygon fill="none" stroke="#000000" points="1838,-91 1838,-116 1857,-116 1857,-91 1838,-91"/>
<text text-anchor="start" x="1843" y="-99.8" font-family="Times,serif" font-size="14.00" fill="#000000">●</text>
</g>
<!-- op_asSInt_180&#45;&gt;op_pad_179 -->
<g id="edge14" class="edge">
<title>op_asSInt_180:out&#45;&gt;op_pad_179:in1</title>
<path fill="none" stroke="#000000" d="M1857,-103C1876.6734,-103 1883.3467,-109.9879 1898.7545,-112.2808"/>
<polygon fill="#000000" stroke="#000000" points="1898.7794,-115.7911 1909,-113 1899.2697,-108.8083 1898.7794,-115.7911"/>
</g>
<!-- op_tail_181 -->
<g id="node24" class="node">
<title>op_tail_181</title>
<polygon fill="#d8bfd8" stroke="transparent" points="1642,-73 1642,-123 1715,-123 1715,-73 1642,-73"/>
<polygon fill="none" stroke="#000000" points="1642.5,-98 1642.5,-123 1661.5,-123 1661.5,-98 1642.5,-98"/>
<text text-anchor="start" x="1647.5" y="-106.8" font-family="Times,serif" font-size="14.00" fill="#000000">●</text>
<polygon fill="none" stroke="#000000" points="1661.5,-73 1661.5,-123 1696.5,-123 1696.5,-73 1661.5,-73"/>
<text text-anchor="start" x="1666.5" y="-94.3" font-family="Times,serif" font-size="14.00" fill="#000000"> tail </text>
<polygon fill="none" stroke="#000000" points="1696.5,-73 1696.5,-123 1715.5,-123 1715.5,-73 1696.5,-73"/>
<text text-anchor="start" x="1701.5" y="-94.3" font-family="Times,serif" font-size="14.00" fill="#000000">●</text>
<polygon fill="none" stroke="#000000" points="1642.5,-73 1642.5,-98 1661.5,-98 1661.5,-73 1642.5,-73"/>
<text text-anchor="start" x="1648.5" y="-81.8" font-family="Times,serif" font-size="14.00" fill="#000000">1</text>
</g>
<!-- op_tail_181&#45;&gt;op_asSInt_180 -->
<g id="edge13" class="edge">
<title>op_tail_181:out&#45;&gt;op_asSInt_180:in1</title>
<path fill="none" stroke="#000000" d="M1715.5,-98C1734.7236,-98 1741.7258,-101.494 1756.9392,-102.6404"/>
<polygon fill="#000000" stroke="#000000" points="1756.8813,-106.1405 1767,-103 1757.1314,-99.145 1756.8813,-106.1405"/>
</g>
<!-- op_sub_182 -->
<g id="node25" class="node">
<title>op_sub_182</title>
<polygon fill="#d8bfd8" stroke="transparent" points="1490,-66 1490,-116 1590,-116 1590,-66 1490,-66"/>
<polygon fill="none" stroke="#000000" points="1490,-91 1490,-116 1534,-116 1534,-91 1490,-91"/>
<text text-anchor="start" x="1495" y="-99.8" font-family="Times,serif" font-size="14.00" fill="#000000">40500</text>
<polygon fill="none" stroke="#000000" points="1534,-66 1534,-116 1571,-116 1571,-66 1534,-66"/>
<text text-anchor="start" x="1539" y="-87.3" font-family="Times,serif" font-size="14.00" fill="#000000"> sub </text>
<polygon fill="none" stroke="#000000" points="1571,-66 1571,-116 1590,-116 1590,-66 1571,-66"/>
<text text-anchor="start" x="1576" y="-87.3" font-family="Times,serif" font-size="14.00" fill="#000000">●</text>
<polygon fill="none" stroke="#000000" points="1490,-66 1490,-91 1534,-91 1534,-66 1490,-66"/>
<text text-anchor="start" x="1507.5" y="-74.8" font-family="Times,serif" font-size="14.00" fill="#000000">●</text>
</g>
<!-- op_sub_182&#45;&gt;op_tail_181 -->
<g id="edge23" class="edge">
<title>op_sub_182:out&#45;&gt;op_tail_181:in1</title>
<path fill="none" stroke="#000000" d="M1590,-91C1611.0677,-91 1616.1833,-105.2383 1632.2659,-109.6877"/>
<polygon fill="#000000" stroke="#000000" points="1632.136,-113.1997 1642.5,-111 1633.0264,-106.2565 1632.136,-113.1997"/>
</g>
<!-- op_mul_183&#45;&gt;op_sub_182 -->
<g id="edge20" class="edge">
<title>op_mul_183:out&#45;&gt;op_sub_182:in2</title>
<path fill="none" stroke="#000000" d="M1438,-78C1457.3194,-78 1464.5265,-78 1479.8716,-78"/>
<polygon fill="#000000" stroke="#000000" points="1480,-81.5001 1490,-78 1480,-74.5001 1480,-81.5001"/>
</g>
<!-- op_asSInt_184 -->
<g id="node27" class="node">
<title>op_asSInt_184</title>
<polygon fill="#d8bfd8" stroke="transparent" points="1218,-38.5 1218,-63.5 1308,-63.5 1308,-38.5 1218,-38.5"/>
<polygon fill="none" stroke="#000000" points="1218,-38 1218,-63 1237,-63 1237,-38 1218,-38"/>
<text text-anchor="start" x="1223" y="-46.8" font-family="Times,serif" font-size="14.00" fill="#000000">●</text>
<polygon fill="none" stroke="#000000" points="1237,-38 1237,-63 1289,-63 1289,-38 1237,-38"/>
<text text-anchor="start" x="1242" y="-46.8" font-family="Times,serif" font-size="14.00" fill="#000000"> asSInt </text>
<polygon fill="none" stroke="#000000" points="1289,-38 1289,-63 1308,-63 1308,-38 1289,-38"/>
<text text-anchor="start" x="1294" y="-46.8" font-family="Times,serif" font-size="14.00" fill="#000000">●</text>
</g>
<!-- op_asSInt_184&#45;&gt;op_mul_183 -->
<g id="edge2" class="edge">
<title>op_asSInt_184:out&#45;&gt;op_mul_183:in2</title>
<path fill="none" stroke="#000000" d="M1308,-50C1328.2951,-50 1334.2378,-60.6787 1350.0477,-64.0158"/>
<polygon fill="#000000" stroke="#000000" points="1349.7041,-67.4988 1360,-65 1350.393,-60.5328 1349.7041,-67.4988"/>
</g>
<!-- op_tail_185 -->
<g id="node28" class="node">
<title>op_tail_185</title>
<polygon fill="#d8bfd8" stroke="transparent" points="1090.5,-20 1090.5,-70 1163.5,-70 1163.5,-20 1090.5,-20"/>
<polygon fill="none" stroke="#000000" points="1091,-45 1091,-70 1110,-70 1110,-45 1091,-45"/>
<text text-anchor="start" x="1096" y="-53.8" font-family="Times,serif" font-size="14.00" fill="#000000">●</text>
<polygon fill="none" stroke="#000000" points="1110,-20 1110,-70 1145,-70 1145,-20 1110,-20"/>
<text text-anchor="start" x="1115" y="-41.3" font-family="Times,serif" font-size="14.00" fill="#000000"> tail </text>
<polygon fill="none" stroke="#000000" points="1145,-20 1145,-70 1164,-70 1164,-20 1145,-20"/>
<text text-anchor="start" x="1150" y="-41.3" font-family="Times,serif" font-size="14.00" fill="#000000">●</text>
<polygon fill="none" stroke="#000000" points="1091,-20 1091,-45 1110,-45 1110,-20 1091,-20"/>
<text text-anchor="start" x="1097" y="-28.8" font-family="Times,serif" font-size="14.00" fill="#000000">1</text>
</g>
<!-- op_tail_185&#45;&gt;op_asSInt_184 -->
<g id="edge10" class="edge">
<title>op_tail_185:out&#45;&gt;op_asSInt_184:in1</title>
<path fill="none" stroke="#000000" d="M1164,-45C1184.3366,-45 1191.6395,-48.5596 1207.9031,-49.6719"/>
<polygon fill="#000000" stroke="#000000" points="1207.8916,-53.1733 1218,-50 1208.119,-46.177 1207.8916,-53.1733"/>
</g>
<!-- op_sub_186&#45;&gt;op_tail_185 -->
<g id="edge28" class="edge">
<title>op_sub_186:out&#45;&gt;op_tail_185:in1</title>
<path fill="none" stroke="#000000" d="M1036.5,-45C1057.5109,-45 1064.1373,-54.2549 1080.653,-57.147"/>
<polygon fill="#000000" stroke="#000000" points="1080.7462,-60.6665 1091,-58 1081.3214,-53.6902 1080.7462,-60.6665"/>
</g>
</g>
</svg>
