<?xml version="1.0" encoding="UTF-8" standalone="no"?>
<?xml-stylesheet href="styles.css" type="text/css"?>
<!DOCTYPE svg PUBLIC "-//W3C//DTD SVG 1.1//EN"
 "http://www.w3.org/Graphics/SVG/1.1/DTD/svg11.dtd">
<!-- Generated by graphviz version 2.43.20190912.0211 (20190912.0211)
 -->
<!-- Title: Sine Pages: 1 -->
<svg width="2764pt" height="293pt"
 viewBox="0.00 0.00 2764.00 293.00" xmlns="http://www.w3.org/2000/svg" xmlns:xlink="http://www.w3.org/1999/xlink">
<g id="graph0" class="graph" transform="scale(1 1) rotate(0) translate(4 289)">
<title>Sine</title>
<polygon fill="white" stroke="transparent" points="-4,4 -4,-289 2760,-289 2760,4 -4,4"/>
<g id="clust1" class="cluster">
<title>cluster_Sine</title>
<polygon fill="#fff8dc" stroke="black" points="8,-8 8,-277 2748,-277 2748,-8 8,-8"/>
<text text-anchor="middle" x="1378" y="-261.8" font-family="Times,serif" font-size="14.00">Sine</text>
</g>
<!-- cluster_Sine_io_wavelength -->
<g id="node1" class="node">
<title>cluster_Sine_io_wavelength</title>
<polygon fill="#cccccc" stroke="black" points="439,-100 320,-100 320,-64 439,-64 439,-100"/>
<text text-anchor="middle" x="379.5" y="-78.3" font-family="Times,serif" font-size="14.00">io_wavelength</text>
</g>
<!-- op_asSInt_113 -->
<g id="node13" class="node">
<title>op_asSInt_113</title>
<polygon fill="#d8bfd8" stroke="transparent" points="483,-70.5 483,-95.5 594,-95.5 594,-70.5 483,-70.5"/>
<polygon fill="none" stroke="black" points="483.5,-70 483.5,-95 506.5,-95 506.5,-70 483.5,-70"/>
<text text-anchor="start" x="488.5" y="-78.8" font-family="Times,serif" font-size="14.00">●</text>
<polygon fill="none" stroke="black" points="506.5,-70 506.5,-95 571.5,-95 571.5,-70 506.5,-70"/>
<text text-anchor="start" x="511.5" y="-78.8" font-family="Times,serif" font-size="14.00"> asSInt </text>
<polygon fill="none" stroke="black" points="571.5,-70 571.5,-95 594.5,-95 594.5,-70 571.5,-70"/>
<text text-anchor="start" x="576.5" y="-78.8" font-family="Times,serif" font-size="14.00">●</text>
</g>
<!-- cluster_Sine_io_wavelength&#45;&gt;op_asSInt_113 -->
<g id="edge24" class="edge">
<title>cluster_Sine_io_wavelength&#45;&gt;op_asSInt_113:in1</title>
<path fill="none" stroke="black" d="M439.02,-82C449.92,-82 461.36,-82 472.45,-82"/>
<polygon fill="black" stroke="black" points="472.5,-85.5 482.5,-82 472.5,-78.5 472.5,-85.5"/>
</g>
<!-- cluster_Sine_io_note_life -->
<g id="node2" class="node">
<title>cluster_Sine_io_note_life</title>
<polygon fill="#cccccc" stroke="black" points="126.5,-146 29.5,-146 29.5,-110 126.5,-110 126.5,-146"/>
<text text-anchor="middle" x="78" y="-124.3" font-family="Times,serif" font-size="14.00">io_note_life</text>
</g>
<!-- op_cvt_111 -->
<g id="node11" class="node">
<title>op_cvt_111</title>
<polygon fill="#d8bfd8" stroke="transparent" points="186.5,-119.5 186.5,-144.5 273.5,-144.5 273.5,-119.5 186.5,-119.5"/>
<polygon fill="none" stroke="black" points="187,-119 187,-144 210,-144 210,-119 187,-119"/>
<text text-anchor="start" x="192" y="-127.8" font-family="Times,serif" font-size="14.00">●</text>
<polygon fill="none" stroke="black" points="210,-119 210,-144 251,-144 251,-119 210,-119"/>
<text text-anchor="start" x="215" y="-127.8" font-family="Times,serif" font-size="14.00"> cvt </text>
<polygon fill="none" stroke="black" points="251,-119 251,-144 274,-144 274,-119 251,-119"/>
<text text-anchor="start" x="256" y="-127.8" font-family="Times,serif" font-size="14.00">●</text>
</g>
<!-- cluster_Sine_io_note_life&#45;&gt;op_cvt_111 -->
<g id="edge26" class="edge">
<title>cluster_Sine_io_note_life&#45;&gt;op_cvt_111:in1</title>
<path fill="none" stroke="black" d="M126.66,-129.91C142,-130.4 159.31,-130.83 175.84,-130.96"/>
<polygon fill="black" stroke="black" points="175.99,-134.46 186,-131 176.01,-127.46 175.99,-134.46"/>
</g>
<!-- cluster_Sine_io_sample_out -->
<g id="node3" class="node">
<title>cluster_Sine_io_sample_out</title>
<polygon fill="#e0ffff" stroke="black" points="2740,-168 2623,-168 2623,-132 2740,-132 2740,-168"/>
<text text-anchor="middle" x="2681.5" y="-146.3" font-family="Times,serif" font-size="14.00">io_sample_out</text>
</g>
<!-- cluster_Sine_angleValue -->
<g id="node4" class="node">
<title>cluster_Sine_angleValue</title>
<polygon fill="none" stroke="black" points="1035,-131 940,-131 940,-95 1035,-95 1035,-131"/>
<text text-anchor="middle" x="987.5" y="-109.3" font-family="Times,serif" font-size="14.00">angleValue</text>
</g>
<!-- op_mul_117 -->
<g id="node17" class="node">
<title>op_mul_117</title>
<polygon fill="#d8bfd8" stroke="transparent" points="1237,-192 1237,-242 1330,-242 1330,-192 1237,-192"/>
<polygon fill="none" stroke="black" points="1237.5,-217 1237.5,-242 1260.5,-242 1260.5,-217 1237.5,-217"/>
<text text-anchor="start" x="1244" y="-225.8" font-family="Times,serif" font-size="14.00">4</text>
<polygon fill="none" stroke="black" points="1260.5,-192 1260.5,-242 1307.5,-242 1307.5,-192 1260.5,-192"/>
<text text-anchor="start" x="1265.5" y="-213.3" font-family="Times,serif" font-size="14.00"> mul </text>
<polygon fill="none" stroke="black" points="1307.5,-192 1307.5,-242 1330.5,-242 1330.5,-192 1307.5,-192"/>
<text text-anchor="start" x="1312.5" y="-213.3" font-family="Times,serif" font-size="14.00">●</text>
<polygon fill="none" stroke="black" points="1237.5,-192 1237.5,-217 1260.5,-217 1260.5,-192 1237.5,-192"/>
<text text-anchor="start" x="1242.5" y="-200.8" font-family="Times,serif" font-size="14.00">●</text>
</g>
<!-- cluster_Sine_angleValue&#45;&gt;op_mul_117 -->
<g id="edge31" class="edge">
<title>cluster_Sine_angleValue&#45;&gt;op_mul_117:in2</title>
<path fill="none" stroke="black" d="M1003.43,-131.24C1018.54,-148.28 1043.52,-172.86 1071,-185 1135.55,-213.51 1160.14,-204.93 1226.41,-204.07"/>
<polygon fill="black" stroke="black" points="1226.52,-207.57 1236.5,-204 1226.48,-200.57 1226.52,-207.57"/>
</g>
<!-- op_sub_121 -->
<g id="node21" class="node">
<title>op_sub_121</title>
<polygon fill="#d8bfd8" stroke="transparent" points="1079,-122 1079,-172 1185,-172 1185,-122 1079,-122"/>
<polygon fill="none" stroke="black" points="1079,-147 1079,-172 1117,-172 1117,-147 1079,-147"/>
<text text-anchor="start" x="1084" y="-155.8" font-family="Times,serif" font-size="14.00">180</text>
<polygon fill="none" stroke="black" points="1117,-122 1117,-172 1162,-172 1162,-122 1117,-122"/>
<text text-anchor="start" x="1122" y="-143.3" font-family="Times,serif" font-size="14.00"> sub </text>
<polygon fill="none" stroke="black" points="1162,-122 1162,-172 1185,-172 1185,-122 1162,-122"/>
<text text-anchor="start" x="1167" y="-143.3" font-family="Times,serif" font-size="14.00">●</text>
<polygon fill="none" stroke="black" points="1079,-122 1079,-147 1117,-147 1117,-122 1079,-122"/>
<text text-anchor="start" x="1091.5" y="-130.8" font-family="Times,serif" font-size="14.00">●</text>
</g>
<!-- cluster_Sine_angleValue&#45;&gt;op_sub_121 -->
<g id="edge7" class="edge">
<title>cluster_Sine_angleValue&#45;&gt;op_sub_121:in2</title>
<path fill="none" stroke="black" d="M1035.4,-128.26C1045.8,-130.76 1057.02,-132.79 1068,-133.61"/>
<polygon fill="black" stroke="black" points="1067.87,-137.11 1078,-134 1068.14,-130.12 1067.87,-137.11"/>
</g>
<!-- op_mul_126 -->
<g id="node26" class="node">
<title>op_mul_126</title>
<polygon fill="#d8bfd8" stroke="transparent" points="1545,-53 1545,-103 1638,-103 1638,-53 1545,-53"/>
<polygon fill="none" stroke="black" points="1545.5,-78 1545.5,-103 1568.5,-103 1568.5,-78 1545.5,-78"/>
<text text-anchor="start" x="1550.5" y="-86.8" font-family="Times,serif" font-size="14.00">●</text>
<polygon fill="none" stroke="black" points="1568.5,-53 1568.5,-103 1615.5,-103 1615.5,-53 1568.5,-53"/>
<text text-anchor="start" x="1573.5" y="-74.3" font-family="Times,serif" font-size="14.00"> mul </text>
<polygon fill="none" stroke="black" points="1615.5,-53 1615.5,-103 1638.5,-103 1638.5,-53 1615.5,-53"/>
<text text-anchor="start" x="1620.5" y="-74.3" font-family="Times,serif" font-size="14.00">●</text>
<polygon fill="none" stroke="black" points="1545.5,-53 1545.5,-78 1568.5,-78 1568.5,-53 1545.5,-53"/>
<text text-anchor="start" x="1550.5" y="-61.8" font-family="Times,serif" font-size="14.00">●</text>
</g>
<!-- cluster_Sine_angleValue&#45;&gt;op_mul_126 -->
<g id="edge10" class="edge">
<title>cluster_Sine_angleValue&#45;&gt;op_mul_126:in1</title>
<path fill="none" stroke="black" d="M1035.34,-109.89C1129.25,-103.94 1347.56,-91.46 1534.23,-91.01"/>
<polygon fill="black" stroke="black" points="1534.5,-94.51 1544.5,-91 1534.5,-87.51 1534.5,-94.51"/>
</g>
<!-- op_sub_129 -->
<g id="node29" class="node">
<title>op_sub_129</title>
<polygon fill="#d8bfd8" stroke="transparent" points="1079,-20 1079,-70 1185,-70 1185,-20 1079,-20"/>
<polygon fill="none" stroke="black" points="1079,-45 1079,-70 1117,-70 1117,-45 1079,-45"/>
<text text-anchor="start" x="1084" y="-53.8" font-family="Times,serif" font-size="14.00">180</text>
<polygon fill="none" stroke="black" points="1117,-20 1117,-70 1162,-70 1162,-20 1117,-20"/>
<text text-anchor="start" x="1122" y="-41.3" font-family="Times,serif" font-size="14.00"> sub </text>
<polygon fill="none" stroke="black" points="1162,-20 1162,-70 1185,-70 1185,-20 1162,-20"/>
<text text-anchor="start" x="1167" y="-41.3" font-family="Times,serif" font-size="14.00">●</text>
<polygon fill="none" stroke="black" points="1079,-20 1079,-45 1117,-45 1117,-20 1079,-20"/>
<text text-anchor="start" x="1091.5" y="-28.8" font-family="Times,serif" font-size="14.00">●</text>
</g>
<!-- cluster_Sine_angleValue&#45;&gt;op_sub_129 -->
<g id="edge11" class="edge">
<title>cluster_Sine_angleValue&#45;&gt;op_sub_129:in2</title>
<path fill="none" stroke="black" d="M998.21,-94.62C1011,-72.96 1035.67,-39.13 1067.8,-32.98"/>
<polygon fill="black" stroke="black" points="1068.38,-36.44 1078,-32 1067.71,-29.47 1068.38,-36.44"/>
</g>
<!-- op_div_105 -->
<g id="node5" class="node">
<title>op_div_105</title>
<polygon fill="#d8bfd8" stroke="transparent" points="809,-88 809,-138 896,-138 896,-88 809,-88"/>
<polygon fill="none" stroke="black" points="809.5,-113 809.5,-138 832.5,-138 832.5,-113 809.5,-113"/>
<text text-anchor="start" x="814.5" y="-121.8" font-family="Times,serif" font-size="14.00">●</text>
<polygon fill="none" stroke="black" points="832.5,-88 832.5,-138 873.5,-138 873.5,-88 832.5,-88"/>
<text text-anchor="start" x="837.5" y="-109.3" font-family="Times,serif" font-size="14.00"> div </text>
<polygon fill="none" stroke="black" points="873.5,-88 873.5,-138 896.5,-138 896.5,-88 873.5,-88"/>
<text text-anchor="start" x="878.5" y="-109.3" font-family="Times,serif" font-size="14.00">●</text>
<polygon fill="none" stroke="black" points="809.5,-88 809.5,-113 832.5,-113 832.5,-88 809.5,-88"/>
<text text-anchor="start" x="814.5" y="-96.8" font-family="Times,serif" font-size="14.00">●</text>
</g>
<!-- op_div_105&#45;&gt;cluster_Sine_angleValue -->
<g id="edge22" class="edge">
<title>op_div_105:out&#45;&gt;cluster_Sine_angleValue</title>
<path fill="none" stroke="black" d="M897.5,-113C907.92,-113 919.03,-113 929.74,-113"/>
<polygon fill="black" stroke="black" points="929.85,-116.5 939.85,-113 929.85,-109.5 929.85,-116.5"/>
</g>
<!-- op_asSInt_106 -->
<g id="node6" class="node">
<title>op_asSInt_106</title>
<polygon fill="#d8bfd8" stroke="transparent" points="646,-130.5 646,-155.5 757,-155.5 757,-130.5 646,-130.5"/>
<polygon fill="none" stroke="black" points="646.5,-130 646.5,-155 669.5,-155 669.5,-130 646.5,-130"/>
<text text-anchor="start" x="651.5" y="-138.8" font-family="Times,serif" font-size="14.00">●</text>
<polygon fill="none" stroke="black" points="669.5,-130 669.5,-155 734.5,-155 734.5,-130 669.5,-130"/>
<text text-anchor="start" x="674.5" y="-138.8" font-family="Times,serif" font-size="14.00"> asSInt </text>
<polygon fill="none" stroke="black" points="734.5,-130 734.5,-155 757.5,-155 757.5,-130 734.5,-130"/>
<text text-anchor="start" x="739.5" y="-138.8" font-family="Times,serif" font-size="14.00">●</text>
</g>
<!-- op_asSInt_106&#45;&gt;op_div_105 -->
<g id="edge9" class="edge">
<title>op_asSInt_106:out&#45;&gt;op_div_105:in1</title>
<path fill="none" stroke="black" d="M758.5,-142C778,-142 783.54,-130.82 798.45,-127.15"/>
<polygon fill="black" stroke="black" points="798.96,-130.62 808.5,-126 798.17,-123.66 798.96,-130.62"/>
</g>
<!-- op_tail_107 -->
<g id="node7" class="node">
<title>op_tail_107</title>
<polygon fill="#d8bfd8" stroke="transparent" points="494,-123 494,-173 583,-173 583,-123 494,-123"/>
<polygon fill="none" stroke="black" points="494.5,-148 494.5,-173 517.5,-173 517.5,-148 494.5,-148"/>
<text text-anchor="start" x="499.5" y="-156.8" font-family="Times,serif" font-size="14.00">●</text>
<polygon fill="none" stroke="black" points="517.5,-123 517.5,-173 560.5,-173 560.5,-123 517.5,-123"/>
<text text-anchor="start" x="522.5" y="-144.3" font-family="Times,serif" font-size="14.00"> tail </text>
<polygon fill="none" stroke="black" points="560.5,-123 560.5,-173 583.5,-173 583.5,-123 560.5,-123"/>
<text text-anchor="start" x="565.5" y="-144.3" font-family="Times,serif" font-size="14.00">●</text>
<polygon fill="none" stroke="black" points="494.5,-123 494.5,-148 517.5,-148 517.5,-123 494.5,-123"/>
<text text-anchor="start" x="501" y="-131.8" font-family="Times,serif" font-size="14.00">1</text>
</g>
<!-- op_tail_107&#45;&gt;op_asSInt_106 -->
<g id="edge14" class="edge">
<title>op_tail_107:out&#45;&gt;op_asSInt_106:in1</title>
<path fill="none" stroke="black" d="M584.5,-148C608.02,-148 616.09,-143.53 635.38,-142.31"/>
<polygon fill="black" stroke="black" points="635.61,-145.8 645.5,-142 635.4,-138.8 635.61,-145.8"/>
</g>
<!-- op_mul_108 -->
<g id="node8" class="node">
<title>op_mul_108</title>
<polygon fill="#d8bfd8" stroke="transparent" points="333,-136 333,-186 426,-186 426,-136 333,-136"/>
<polygon fill="none" stroke="black" points="333.5,-161 333.5,-186 356.5,-186 356.5,-161 333.5,-161"/>
<text text-anchor="start" x="338.5" y="-169.8" font-family="Times,serif" font-size="14.00">●</text>
<polygon fill="none" stroke="black" points="356.5,-136 356.5,-186 403.5,-186 403.5,-136 356.5,-136"/>
<text text-anchor="start" x="361.5" y="-157.3" font-family="Times,serif" font-size="14.00"> mul </text>
<polygon fill="none" stroke="black" points="403.5,-136 403.5,-186 426.5,-186 426.5,-136 403.5,-136"/>
<text text-anchor="start" x="408.5" y="-157.3" font-family="Times,serif" font-size="14.00">●</text>
<polygon fill="none" stroke="black" points="333.5,-136 333.5,-161 356.5,-161 356.5,-136 333.5,-136"/>
<text text-anchor="start" x="338.5" y="-144.8" font-family="Times,serif" font-size="14.00">●</text>
</g>
<!-- op_mul_108&#45;&gt;op_tail_107 -->
<g id="edge25" class="edge">
<title>op_mul_108:out&#45;&gt;op_tail_107:in1</title>
<path fill="none" stroke="black" d="M427.5,-161C453.17,-161 461.99,-161 483.45,-161"/>
<polygon fill="black" stroke="black" points="483.5,-164.5 493.5,-161 483.5,-157.5 483.5,-164.5"/>
</g>
<!-- op_pad_109 -->
<g id="node9" class="node">
<title>op_pad_109</title>
<polygon fill="#d8bfd8" stroke="transparent" points="184,-178.5 184,-203.5 276,-203.5 276,-178.5 184,-178.5"/>
<polygon fill="none" stroke="black" points="184,-178 184,-203 207,-203 207,-178 184,-178"/>
<text text-anchor="start" x="189" y="-186.8" font-family="Times,serif" font-size="14.00">●</text>
<polygon fill="none" stroke="black" points="207,-178 207,-203 253,-203 253,-178 207,-178"/>
<text text-anchor="start" x="212" y="-186.8" font-family="Times,serif" font-size="14.00"> pad </text>
<polygon fill="none" stroke="black" points="253,-178 253,-203 276,-203 276,-178 253,-178"/>
<text text-anchor="start" x="258" y="-186.8" font-family="Times,serif" font-size="14.00">●</text>
</g>
<!-- op_pad_109&#45;&gt;op_mul_108 -->
<g id="edge13" class="edge">
<title>op_pad_109:out&#45;&gt;op_mul_108:in1</title>
<path fill="none" stroke="black" d="M277,-190C298.86,-190 305.12,-178.4 322.35,-174.95"/>
<polygon fill="black" stroke="black" points="322.87,-178.42 332.5,-174 322.22,-171.45 322.87,-178.42"/>
</g>
<!-- op_mul_110 -->
<g id="node10" class="node">
<title>op_mul_110</title>
<polygon fill="#d8bfd8" stroke="transparent" points="24,-168 24,-218 132,-218 132,-168 24,-168"/>
<polygon fill="none" stroke="black" points="24,-193 24,-218 62,-218 62,-193 24,-193"/>
<text text-anchor="start" x="38" y="-201.8" font-family="Times,serif" font-size="14.00">2</text>
<polygon fill="none" stroke="black" points="62,-168 62,-218 109,-218 109,-168 62,-168"/>
<text text-anchor="start" x="67" y="-189.3" font-family="Times,serif" font-size="14.00"> mul </text>
<polygon fill="none" stroke="black" points="109,-168 109,-218 132,-218 132,-168 109,-168"/>
<text text-anchor="start" x="114" y="-189.3" font-family="Times,serif" font-size="14.00">●</text>
<polygon fill="none" stroke="black" points="24,-168 24,-193 62,-193 62,-168 24,-168"/>
<text text-anchor="start" x="29" y="-176.8" font-family="Times,serif" font-size="14.00">314</text>
</g>
<!-- op_mul_110&#45;&gt;op_pad_109 -->
<g id="edge2" class="edge">
<title>op_mul_110:out&#45;&gt;op_pad_109:in1</title>
<path fill="none" stroke="black" d="M133,-193C151.44,-193 158.36,-190.94 172.84,-190.24"/>
<polygon fill="black" stroke="black" points="173.08,-193.73 183,-190 172.92,-186.73 173.08,-193.73"/>
</g>
<!-- op_cvt_111&#45;&gt;op_mul_108 -->
<g id="edge29" class="edge">
<title>op_cvt_111:out&#45;&gt;op_mul_108:in2</title>
<path fill="none" stroke="black" d="M275,-131C297.9,-131 304.23,-143.55 322.46,-147.09"/>
<polygon fill="black" stroke="black" points="322.22,-150.58 332.5,-148 322.86,-143.61 322.22,-150.58"/>
</g>
<!-- op_pad_112 -->
<g id="node12" class="node">
<title>op_pad_112</title>
<polygon fill="#d8bfd8" stroke="transparent" points="655.5,-73.5 655.5,-98.5 747.5,-98.5 747.5,-73.5 655.5,-73.5"/>
<polygon fill="none" stroke="black" points="655.5,-73 655.5,-98 678.5,-98 678.5,-73 655.5,-73"/>
<text text-anchor="start" x="660.5" y="-81.8" font-family="Times,serif" font-size="14.00">●</text>
<polygon fill="none" stroke="black" points="678.5,-73 678.5,-98 724.5,-98 724.5,-73 678.5,-73"/>
<text text-anchor="start" x="683.5" y="-81.8" font-family="Times,serif" font-size="14.00"> pad </text>
<polygon fill="none" stroke="black" points="724.5,-73 724.5,-98 747.5,-98 747.5,-73 724.5,-73"/>
<text text-anchor="start" x="729.5" y="-81.8" font-family="Times,serif" font-size="14.00">●</text>
</g>
<!-- op_pad_112&#45;&gt;op_div_105 -->
<g id="edge28" class="edge">
<title>op_pad_112:out&#45;&gt;op_div_105:in2</title>
<path fill="none" stroke="black" d="M748.5,-85C772.23,-85 779.22,-96.18 798.37,-99.24"/>
<polygon fill="black" stroke="black" points="798.26,-102.74 808.5,-100 798.79,-95.76 798.26,-102.74"/>
</g>
<!-- op_asSInt_113&#45;&gt;op_pad_112 -->
<g id="edge18" class="edge">
<title>op_asSInt_113:out&#45;&gt;op_pad_112:in1</title>
<path fill="none" stroke="black" d="M595.5,-82C618.06,-82 626.03,-84.22 644.49,-84.84"/>
<polygon fill="black" stroke="black" points="644.44,-88.34 654.5,-85 644.56,-81.34 644.44,-88.34"/>
</g>
<!-- op_mul_114 -->
<g id="node14" class="node">
<title>op_mul_114</title>
<polygon fill="#d8bfd8" stroke="transparent" points="2453,-125 2453,-175 2579,-175 2579,-125 2453,-125"/>
<polygon fill="none" stroke="black" points="2453,-150 2453,-175 2509,-175 2509,-150 2453,-150"/>
<text text-anchor="start" x="2458" y="-158.8" font-family="Times,serif" font-size="14.00">32767</text>
<polygon fill="none" stroke="black" points="2509,-125 2509,-175 2556,-175 2556,-125 2509,-125"/>
<text text-anchor="start" x="2514" y="-146.3" font-family="Times,serif" font-size="14.00"> mul </text>
<polygon fill="none" stroke="black" points="2556,-125 2556,-175 2579,-175 2579,-125 2556,-125"/>
<text text-anchor="start" x="2561" y="-146.3" font-family="Times,serif" font-size="14.00">●</text>
<polygon fill="none" stroke="black" points="2453,-125 2453,-150 2509,-150 2509,-125 2453,-125"/>
<text text-anchor="start" x="2474.5" y="-133.8" font-family="Times,serif" font-size="14.00">●</text>
</g>
<!-- op_mul_114&#45;&gt;cluster_Sine_io_sample_out -->
<g id="edge19" class="edge">
<title>op_mul_114:out&#45;&gt;cluster_Sine_io_sample_out</title>
<path fill="none" stroke="black" d="M2580,-150C2590.51,-150 2601.64,-150 2612.52,-150"/>
<polygon fill="black" stroke="black" points="2612.84,-153.5 2622.84,-150 2612.84,-146.5 2612.84,-153.5"/>
</g>
<!-- op_div_115 -->
<g id="node15" class="node">
<title>op_div_115</title>
<polygon fill="#d8bfd8" stroke="transparent" points="2314,-112 2314,-162 2401,-162 2401,-112 2314,-112"/>
<polygon fill="none" stroke="black" points="2314.5,-137 2314.5,-162 2337.5,-162 2337.5,-137 2314.5,-137"/>
<text text-anchor="start" x="2319.5" y="-145.8" font-family="Times,serif" font-size="14.00">●</text>
<polygon fill="none" stroke="black" points="2337.5,-112 2337.5,-162 2378.5,-162 2378.5,-112 2337.5,-112"/>
<text text-anchor="start" x="2342.5" y="-133.3" font-family="Times,serif" font-size="14.00"> div </text>
<polygon fill="none" stroke="black" points="2378.5,-112 2378.5,-162 2401.5,-162 2401.5,-112 2378.5,-112"/>
<text text-anchor="start" x="2383.5" y="-133.3" font-family="Times,serif" font-size="14.00">●</text>
<polygon fill="none" stroke="black" points="2314.5,-112 2314.5,-137 2337.5,-137 2337.5,-112 2314.5,-112"/>
<text text-anchor="start" x="2319.5" y="-120.8" font-family="Times,serif" font-size="14.00">●</text>
</g>
<!-- op_div_115&#45;&gt;op_mul_114 -->
<g id="edge4" class="edge">
<title>op_div_115:out&#45;&gt;op_mul_114:in2</title>
<path fill="none" stroke="black" d="M2402.5,-137C2420.72,-137 2427.62,-137 2441.95,-137"/>
<polygon fill="black" stroke="black" points="2442,-140.5 2452,-137 2442,-133.5 2442,-140.5"/>
</g>
<!-- op_mul_116 -->
<g id="node16" class="node">
<title>op_mul_116</title>
<polygon fill="#d8bfd8" stroke="transparent" points="1705.5,-142 1705.5,-192 1798.5,-192 1798.5,-142 1705.5,-142"/>
<polygon fill="none" stroke="black" points="1706,-167 1706,-192 1729,-192 1729,-167 1706,-167"/>
<text text-anchor="start" x="1711" y="-175.8" font-family="Times,serif" font-size="14.00">●</text>
<polygon fill="none" stroke="black" points="1729,-142 1729,-192 1776,-192 1776,-142 1729,-142"/>
<text text-anchor="start" x="1734" y="-163.3" font-family="Times,serif" font-size="14.00"> mul </text>
<polygon fill="none" stroke="black" points="1776,-142 1776,-192 1799,-192 1799,-142 1776,-142"/>
<text text-anchor="start" x="1781" y="-163.3" font-family="Times,serif" font-size="14.00">●</text>
<polygon fill="none" stroke="black" points="1706,-142 1706,-167 1729,-167 1729,-142 1706,-142"/>
<text text-anchor="start" x="1711" y="-150.8" font-family="Times,serif" font-size="14.00">●</text>
</g>
<!-- op_mul_116&#45;&gt;op_div_115 -->
<g id="edge16" class="edge">
<title>op_mul_116:out&#45;&gt;op_div_115:in1</title>
<path fill="none" stroke="black" d="M1800,-167C2024.89,-167 2083.39,-150.51 2303.25,-150.01"/>
<polygon fill="black" stroke="black" points="2303.5,-153.51 2313.5,-150 2303.5,-146.51 2303.5,-153.51"/>
</g>
<!-- op_mul_117&#45;&gt;op_mul_116 -->
<g id="edge3" class="edge">
<title>op_mul_117:out&#45;&gt;op_mul_116:in1</title>
<path fill="none" stroke="black" d="M1331.5,-217C1494.89,-217 1536.5,-181.5 1694.9,-180.05"/>
<polygon fill="black" stroke="black" points="1695.02,-183.55 1705,-180 1694.98,-176.55 1695.02,-183.55"/>
</g>
<!-- op_pad_118 -->
<g id="node18" class="node">
<title>op_pad_118</title>
<polygon fill="#d8bfd8" stroke="transparent" points="1545.5,-138.5 1545.5,-163.5 1637.5,-163.5 1637.5,-138.5 1545.5,-138.5"/>
<polygon fill="none" stroke="black" points="1545.5,-138 1545.5,-163 1568.5,-163 1568.5,-138 1545.5,-138"/>
<text text-anchor="start" x="1550.5" y="-146.8" font-family="Times,serif" font-size="14.00">●</text>
<polygon fill="none" stroke="black" points="1568.5,-138 1568.5,-163 1614.5,-163 1614.5,-138 1568.5,-138"/>
<text text-anchor="start" x="1573.5" y="-146.8" font-family="Times,serif" font-size="14.00"> pad </text>
<polygon fill="none" stroke="black" points="1614.5,-138 1614.5,-163 1637.5,-163 1637.5,-138 1614.5,-138"/>
<text text-anchor="start" x="1619.5" y="-146.8" font-family="Times,serif" font-size="14.00">●</text>
</g>
<!-- op_pad_118&#45;&gt;op_mul_116 -->
<g id="edge23" class="edge">
<title>op_pad_118:out&#45;&gt;op_mul_116:in2</title>
<path fill="none" stroke="black" d="M1638.5,-150C1664.41,-150 1673.22,-153.06 1694.86,-153.83"/>
<polygon fill="black" stroke="black" points="1694.94,-157.33 1705,-154 1695.06,-150.33 1694.94,-157.33"/>
</g>
<!-- op_asSInt_119 -->
<g id="node19" class="node">
<title>op_asSInt_119</title>
<polygon fill="#d8bfd8" stroke="transparent" points="1382,-131.5 1382,-156.5 1493,-156.5 1493,-131.5 1382,-131.5"/>
<polygon fill="none" stroke="black" points="1382.5,-131 1382.5,-156 1405.5,-156 1405.5,-131 1382.5,-131"/>
<text text-anchor="start" x="1387.5" y="-139.8" font-family="Times,serif" font-size="14.00">●</text>
<polygon fill="none" stroke="black" points="1405.5,-131 1405.5,-156 1470.5,-156 1470.5,-131 1405.5,-131"/>
<text text-anchor="start" x="1410.5" y="-139.8" font-family="Times,serif" font-size="14.00"> asSInt </text>
<polygon fill="none" stroke="black" points="1470.5,-131 1470.5,-156 1493.5,-156 1493.5,-131 1470.5,-131"/>
<text text-anchor="start" x="1475.5" y="-139.8" font-family="Times,serif" font-size="14.00">●</text>
</g>
<!-- op_asSInt_119&#45;&gt;op_pad_118 -->
<g id="edge6" class="edge">
<title>op_asSInt_119:out&#45;&gt;op_pad_118:in1</title>
<path fill="none" stroke="black" d="M1494.5,-143C1513.08,-143 1519.79,-147.8 1534.29,-149.45"/>
<polygon fill="black" stroke="black" points="1534.33,-152.96 1544.5,-150 1534.7,-145.97 1534.33,-152.96"/>
</g>
<!-- op_tail_120 -->
<g id="node20" class="node">
<title>op_tail_120</title>
<polygon fill="#d8bfd8" stroke="transparent" points="1239,-116 1239,-166 1328,-166 1328,-116 1239,-116"/>
<polygon fill="none" stroke="black" points="1239.5,-141 1239.5,-166 1262.5,-166 1262.5,-141 1239.5,-141"/>
<text text-anchor="start" x="1244.5" y="-149.8" font-family="Times,serif" font-size="14.00">●</text>
<polygon fill="none" stroke="black" points="1262.5,-116 1262.5,-166 1305.5,-166 1305.5,-116 1262.5,-116"/>
<text text-anchor="start" x="1267.5" y="-137.3" font-family="Times,serif" font-size="14.00"> tail </text>
<polygon fill="none" stroke="black" points="1305.5,-116 1305.5,-166 1328.5,-166 1328.5,-116 1305.5,-116"/>
<text text-anchor="start" x="1310.5" y="-137.3" font-family="Times,serif" font-size="14.00">●</text>
<polygon fill="none" stroke="black" points="1239.5,-116 1239.5,-141 1262.5,-141 1262.5,-116 1239.5,-116"/>
<text text-anchor="start" x="1246" y="-124.8" font-family="Times,serif" font-size="14.00">1</text>
</g>
<!-- op_tail_120&#45;&gt;op_asSInt_119 -->
<g id="edge12" class="edge">
<title>op_tail_120:out&#45;&gt;op_asSInt_119:in1</title>
<path fill="none" stroke="black" d="M1329.5,-141C1348.83,-141 1356.02,-142.4 1371.37,-142.86"/>
<polygon fill="black" stroke="black" points="1371.45,-146.36 1381.5,-143 1371.55,-139.36 1371.45,-146.36"/>
</g>
<!-- op_sub_121&#45;&gt;op_tail_120 -->
<g id="edge15" class="edge">
<title>op_sub_121:out&#45;&gt;op_tail_120:in1</title>
<path fill="none" stroke="black" d="M1186,-147C1205.68,-147 1212.69,-151.89 1228.22,-153.5"/>
<polygon fill="black" stroke="black" points="1228.34,-157.01 1238.5,-154 1228.68,-150.02 1228.34,-157.01"/>
</g>
<!-- op_pad_122 -->
<g id="node22" class="node">
<title>op_pad_122</title>
<polygon fill="#d8bfd8" stroke="transparent" points="2170,-101.5 2170,-126.5 2262,-126.5 2262,-101.5 2170,-101.5"/>
<polygon fill="none" stroke="black" points="2170,-101 2170,-126 2193,-126 2193,-101 2170,-101"/>
<text text-anchor="start" x="2175" y="-109.8" font-family="Times,serif" font-size="14.00">●</text>
<polygon fill="none" stroke="black" points="2193,-101 2193,-126 2239,-126 2239,-101 2193,-101"/>
<text text-anchor="start" x="2198" y="-109.8" font-family="Times,serif" font-size="14.00"> pad </text>
<polygon fill="none" stroke="black" points="2239,-101 2239,-126 2262,-126 2262,-101 2239,-101"/>
<text text-anchor="start" x="2244" y="-109.8" font-family="Times,serif" font-size="14.00">●</text>
</g>
<!-- op_pad_122&#45;&gt;op_div_115 -->
<g id="edge1" class="edge">
<title>op_pad_122:out&#45;&gt;op_div_115:in2</title>
<path fill="none" stroke="black" d="M2263,-113C2282.2,-113 2288.54,-120.69 2303.52,-123.21"/>
<polygon fill="black" stroke="black" points="2303.25,-126.7 2313.5,-124 2303.81,-119.72 2303.25,-126.7"/>
</g>
<!-- op_asSInt_123 -->
<g id="node23" class="node">
<title>op_asSInt_123</title>
<polygon fill="#d8bfd8" stroke="transparent" points="2007,-91.5 2007,-116.5 2118,-116.5 2118,-91.5 2007,-91.5"/>
<polygon fill="none" stroke="black" points="2007.5,-91 2007.5,-116 2030.5,-116 2030.5,-91 2007.5,-91"/>
<text text-anchor="start" x="2012.5" y="-99.8" font-family="Times,serif" font-size="14.00">●</text>
<polygon fill="none" stroke="black" points="2030.5,-91 2030.5,-116 2095.5,-116 2095.5,-91 2030.5,-91"/>
<text text-anchor="start" x="2035.5" y="-99.8" font-family="Times,serif" font-size="14.00"> asSInt </text>
<polygon fill="none" stroke="black" points="2095.5,-91 2095.5,-116 2118.5,-116 2118.5,-91 2095.5,-91"/>
<text text-anchor="start" x="2100.5" y="-99.8" font-family="Times,serif" font-size="14.00">●</text>
</g>
<!-- op_asSInt_123&#45;&gt;op_pad_122 -->
<g id="edge21" class="edge">
<title>op_asSInt_123:out&#45;&gt;op_pad_122:in1</title>
<path fill="none" stroke="black" d="M2119.5,-103C2138.09,-103 2144.44,-109.86 2158.83,-112.22"/>
<polygon fill="black" stroke="black" points="2158.76,-115.72 2169,-113 2159.3,-108.74 2158.76,-115.72"/>
</g>
<!-- op_tail_124 -->
<g id="node24" class="node">
<title>op_tail_124</title>
<polygon fill="#d8bfd8" stroke="transparent" points="1866,-73 1866,-123 1955,-123 1955,-73 1866,-73"/>
<polygon fill="none" stroke="black" points="1866.5,-98 1866.5,-123 1889.5,-123 1889.5,-98 1866.5,-98"/>
<text text-anchor="start" x="1871.5" y="-106.8" font-family="Times,serif" font-size="14.00">●</text>
<polygon fill="none" stroke="black" points="1889.5,-73 1889.5,-123 1932.5,-123 1932.5,-73 1889.5,-73"/>
<text text-anchor="start" x="1894.5" y="-94.3" font-family="Times,serif" font-size="14.00"> tail </text>
<polygon fill="none" stroke="black" points="1932.5,-73 1932.5,-123 1955.5,-123 1955.5,-73 1932.5,-73"/>
<text text-anchor="start" x="1937.5" y="-94.3" font-family="Times,serif" font-size="14.00">●</text>
<polygon fill="none" stroke="black" points="1866.5,-73 1866.5,-98 1889.5,-98 1889.5,-73 1866.5,-73"/>
<text text-anchor="start" x="1873" y="-81.8" font-family="Times,serif" font-size="14.00">1</text>
</g>
<!-- op_tail_124&#45;&gt;op_asSInt_123 -->
<g id="edge30" class="edge">
<title>op_tail_124:out&#45;&gt;op_asSInt_123:in1</title>
<path fill="none" stroke="black" d="M1956.5,-98C1974.99,-98 1981.83,-101.43 1996.32,-102.61"/>
<polygon fill="black" stroke="black" points="1996.37,-106.11 2006.5,-103 1996.64,-99.12 1996.37,-106.11"/>
</g>
<!-- op_sub_125 -->
<g id="node25" class="node">
<title>op_sub_125</title>
<polygon fill="#d8bfd8" stroke="transparent" points="1690,-66 1690,-116 1814,-116 1814,-66 1690,-66"/>
<polygon fill="none" stroke="black" points="1690,-91 1690,-116 1746,-116 1746,-91 1690,-91"/>
<text text-anchor="start" x="1695" y="-99.8" font-family="Times,serif" font-size="14.00">40500</text>
<polygon fill="none" stroke="black" points="1746,-66 1746,-116 1791,-116 1791,-66 1746,-66"/>
<text text-anchor="start" x="1751" y="-87.3" font-family="Times,serif" font-size="14.00"> sub </text>
<polygon fill="none" stroke="black" points="1791,-66 1791,-116 1814,-116 1814,-66 1791,-66"/>
<text text-anchor="start" x="1796" y="-87.3" font-family="Times,serif" font-size="14.00">●</text>
<polygon fill="none" stroke="black" points="1690,-66 1690,-91 1746,-91 1746,-66 1690,-66"/>
<text text-anchor="start" x="1711.5" y="-74.8" font-family="Times,serif" font-size="14.00">●</text>
</g>
<!-- op_sub_125&#45;&gt;op_tail_124 -->
<g id="edge17" class="edge">
<title>op_sub_125:out&#45;&gt;op_tail_124:in1</title>
<path fill="none" stroke="black" d="M1815,-91C1835.18,-91 1840.04,-104.98 1855.19,-109.56"/>
<polygon fill="black" stroke="black" points="1855.11,-113.08 1865.5,-111 1856.08,-106.15 1855.11,-113.08"/>
</g>
<!-- op_mul_126&#45;&gt;op_sub_125 -->
<g id="edge8" class="edge">
<title>op_mul_126:out&#45;&gt;op_sub_125:in2</title>
<path fill="none" stroke="black" d="M1639.5,-78C1657.72,-78 1664.62,-78 1678.95,-78"/>
<polygon fill="black" stroke="black" points="1679,-81.5 1689,-78 1679,-74.5 1679,-81.5"/>
</g>
<!-- op_asSInt_127 -->
<g id="node27" class="node">
<title>op_asSInt_127</title>
<polygon fill="#d8bfd8" stroke="transparent" points="1382,-38.5 1382,-63.5 1493,-63.5 1493,-38.5 1382,-38.5"/>
<polygon fill="none" stroke="black" points="1382.5,-38 1382.5,-63 1405.5,-63 1405.5,-38 1382.5,-38"/>
<text text-anchor="start" x="1387.5" y="-46.8" font-family="Times,serif" font-size="14.00">●</text>
<polygon fill="none" stroke="black" points="1405.5,-38 1405.5,-63 1470.5,-63 1470.5,-38 1405.5,-38"/>
<text text-anchor="start" x="1410.5" y="-46.8" font-family="Times,serif" font-size="14.00"> asSInt </text>
<polygon fill="none" stroke="black" points="1470.5,-38 1470.5,-63 1493.5,-63 1493.5,-38 1470.5,-38"/>
<text text-anchor="start" x="1475.5" y="-46.8" font-family="Times,serif" font-size="14.00">●</text>
</g>
<!-- op_asSInt_127&#45;&gt;op_mul_126 -->
<g id="edge27" class="edge">
<title>op_asSInt_127:out&#45;&gt;op_mul_126:in2</title>
<path fill="none" stroke="black" d="M1494.5,-50C1513.89,-50 1519.59,-60.48 1534.49,-63.92"/>
<polygon fill="black" stroke="black" points="1534.18,-67.41 1544.5,-65 1534.93,-60.45 1534.18,-67.41"/>
</g>
<!-- op_tail_128 -->
<g id="node28" class="node">
<title>op_tail_128</title>
<polygon fill="#d8bfd8" stroke="transparent" points="1239,-20 1239,-70 1328,-70 1328,-20 1239,-20"/>
<polygon fill="none" stroke="black" points="1239.5,-45 1239.5,-70 1262.5,-70 1262.5,-45 1239.5,-45"/>
<text text-anchor="start" x="1244.5" y="-53.8" font-family="Times,serif" font-size="14.00">●</text>
<polygon fill="none" stroke="black" points="1262.5,-20 1262.5,-70 1305.5,-70 1305.5,-20 1262.5,-20"/>
<text text-anchor="start" x="1267.5" y="-41.3" font-family="Times,serif" font-size="14.00"> tail </text>
<polygon fill="none" stroke="black" points="1305.5,-20 1305.5,-70 1328.5,-70 1328.5,-20 1305.5,-20"/>
<text text-anchor="start" x="1310.5" y="-41.3" font-family="Times,serif" font-size="14.00">●</text>
<polygon fill="none" stroke="black" points="1239.5,-20 1239.5,-45 1262.5,-45 1262.5,-20 1239.5,-20"/>
<text text-anchor="start" x="1246" y="-28.8" font-family="Times,serif" font-size="14.00">1</text>
</g>
<!-- op_tail_128&#45;&gt;op_asSInt_127 -->
<g id="edge5" class="edge">
<title>op_tail_128:out&#45;&gt;op_asSInt_127:in1</title>
<path fill="none" stroke="black" d="M1329.5,-45C1348.91,-45 1355.98,-48.49 1371.34,-49.64"/>
<polygon fill="black" stroke="black" points="1371.38,-53.14 1381.5,-50 1371.63,-46.15 1371.38,-53.14"/>
</g>
<!-- op_sub_129&#45;&gt;op_tail_128 -->
<g id="edge20" class="edge">
<title>op_sub_129:out&#45;&gt;op_tail_128:in1</title>
<path fill="none" stroke="black" d="M1186,-45C1206.28,-45 1212.6,-54.25 1228.52,-57.15"/>
<polygon fill="black" stroke="black" points="1228.24,-60.64 1238.5,-58 1228.83,-53.66 1228.24,-60.64"/>
</g>
</g>
</svg>
