<?xml version="1.0" encoding="UTF-8" standalone="no"?>
<?xml-stylesheet href="styles.css" type="text/css"?>
<!DOCTYPE svg PUBLIC "-//W3C//DTD SVG 1.1//EN"
 "http://www.w3.org/Graphics/SVG/1.1/DTD/svg11.dtd">
<!-- Generated by graphviz version 2.40.1 (20161225.0304)
 -->
<!-- Title: SPI_Slave_nandland Pages: 1 -->
<svg width="137pt" height="585pt"
 viewBox="0.00 0.00 137.00 585.00" xmlns="http://www.w3.org/2000/svg" xmlns:xlink="http://www.w3.org/1999/xlink">
<g id="graph0" class="graph" transform="scale(1 1) rotate(0) translate(4 581)">
<title>SPI_Slave_nandland</title>
<polygon fill="#ffffff" stroke="transparent" points="-4,4 -4,-581 133,-581 133,4 -4,4"/>
<g id="clust1" class="cluster">
<title>cluster_SPI_Slave_nandland</title>
<polygon fill="#fff8dc" stroke="#000000" points="0,-8 0,-569 129,-569 129,-8 0,-8"/>
<text text-anchor="middle" x="64.5" y="-553.8" font-family="Times,serif" font-size="14.00" fill="#000000">SPI_Slave_nandland</text>
</g>
<!-- cluster_SPI_Slave_nandland_i_Clk -->
<g id="node1" class="node">
<title>cluster_SPI_Slave_nandland_i_Clk</title>
<polygon fill="#cccccc" stroke="#000000" points="91.5,-538 37.5,-538 37.5,-502 91.5,-502 91.5,-538"/>
<text text-anchor="middle" x="64.5" y="-516.3" font-family="Times,serif" font-size="14.00" fill="#000000">i_Clk</text>
</g>
<!-- cluster_SPI_Slave_nandland_i_Rst_L -->
<g id="node2" class="node">
<title>cluster_SPI_Slave_nandland_i_Rst_L</title>
<polygon fill="#cccccc" stroke="#000000" points="94.5,-484 34.5,-484 34.5,-448 94.5,-448 94.5,-484"/>
<text text-anchor="middle" x="64.5" y="-462.3" font-family="Times,serif" font-size="14.00" fill="#000000">i_Rst_L</text>
</g>
<!-- cluster_SPI_Slave_nandland_i_TX_DV -->
<g id="node3" class="node">
<title>cluster_SPI_Slave_nandland_i_TX_DV</title>
<polygon fill="#cccccc" stroke="#000000" points="100,-430 29,-430 29,-394 100,-394 100,-430"/>
<text text-anchor="middle" x="64.5" y="-408.3" font-family="Times,serif" font-size="14.00" fill="#000000">i_TX_DV</text>
</g>
<!-- cluster_SPI_Slave_nandland_i_TX_Byte -->
<g id="node4" class="node">
<title>cluster_SPI_Slave_nandland_i_TX_Byte</title>
<polygon fill="#cccccc" stroke="#000000" points="103,-376 26,-376 26,-340 103,-340 103,-376"/>
<text text-anchor="middle" x="64.5" y="-354.3" font-family="Times,serif" font-size="14.00" fill="#000000">i_TX_Byte</text>
</g>
<!-- cluster_SPI_Slave_nandland_i_SPI_Clk -->
<g id="node5" class="node">
<title>cluster_SPI_Slave_nandland_i_SPI_Clk</title>
<polygon fill="#cccccc" stroke="#000000" points="101,-322 28,-322 28,-286 101,-286 101,-322"/>
<text text-anchor="middle" x="64.5" y="-300.3" font-family="Times,serif" font-size="14.00" fill="#000000">i_SPI_Clk</text>
</g>
<!-- cluster_SPI_Slave_nandland_i_SPI_MOSI -->
<g id="node6" class="node">
<title>cluster_SPI_Slave_nandland_i_SPI_MOSI</title>
<polygon fill="#cccccc" stroke="#000000" points="108.5,-268 20.5,-268 20.5,-232 108.5,-232 108.5,-268"/>
<text text-anchor="middle" x="64.5" y="-246.3" font-family="Times,serif" font-size="14.00" fill="#000000">i_SPI_MOSI</text>
</g>
<!-- cluster_SPI_Slave_nandland_i_SPI_CS_n -->
<g id="node7" class="node">
<title>cluster_SPI_Slave_nandland_i_SPI_CS_n</title>
<polygon fill="#cccccc" stroke="#000000" points="106,-214 23,-214 23,-178 106,-178 106,-214"/>
<text text-anchor="middle" x="64.5" y="-192.3" font-family="Times,serif" font-size="14.00" fill="#000000">i_SPI_CS_n</text>
</g>
<!-- cluster_SPI_Slave_nandland_o_RX_DV -->
<g id="node8" class="node">
<title>cluster_SPI_Slave_nandland_o_RX_DV</title>
<polygon fill="#e0ffff" stroke="#000000" points="102,-160 27,-160 27,-124 102,-124 102,-160"/>
<text text-anchor="middle" x="64.5" y="-138.3" font-family="Times,serif" font-size="14.00" fill="#000000">o_RX_DV</text>
</g>
<!-- cluster_SPI_Slave_nandland_o_RX_Byte -->
<g id="node9" class="node">
<title>cluster_SPI_Slave_nandland_o_RX_Byte</title>
<polygon fill="#e0ffff" stroke="#000000" points="105,-106 24,-106 24,-70 105,-70 105,-106"/>
<text text-anchor="middle" x="64.5" y="-84.3" font-family="Times,serif" font-size="14.00" fill="#000000">o_RX_Byte</text>
</g>
<!-- cluster_SPI_Slave_nandland_o_SPI_MISO -->
<g id="node10" class="node">
<title>cluster_SPI_Slave_nandland_o_SPI_MISO</title>
<polygon fill="#e0ffff" stroke="#000000" points="110,-52 19,-52 19,-16 110,-16 110,-52"/>
<text text-anchor="middle" x="64.5" y="-30.3" font-family="Times,serif" font-size="14.00" fill="#000000">o_SPI_MISO</text>
</g>
</g>
</svg>
