<?xml version="1.0" encoding="UTF-8" standalone="no"?>
<?xml-stylesheet href="styles.css" type="text/css"?>
<!DOCTYPE svg PUBLIC "-//W3C//DTD SVG 1.1//EN"
 "http://www.w3.org/Graphics/SVG/1.1/DTD/svg11.dtd">
<!-- Generated by graphviz version 2.40.1 (0)
 -->
<!-- Title: SPI_Slave Pages: 1 -->
<svg width="144pt" height="585pt"
 viewBox="0.00 0.00 144.00 585.00" xmlns="http://www.w3.org/2000/svg" xmlns:xlink="http://www.w3.org/1999/xlink">
<g id="graph0" class="graph" transform="scale(1 1) rotate(0) translate(4 581)">
<title>SPI_Slave</title>
<polygon fill="#ffffff" stroke="transparent" points="-4,4 -4,-581 140,-581 140,4 -4,4"/>
<g id="clust1" class="cluster">
<title>cluster_SPI_Slave</title>
<polygon fill="#fff8dc" stroke="#000000" points="8,-8 8,-569 128,-569 128,-8 8,-8"/>
<text text-anchor="middle" x="68" y="-553.8" font-family="Times,serif" font-size="14.00" fill="#000000">SPI_Slave</text>
</g>
<!-- cluster_SPI_Slave_i_Clk -->
<g id="node1" class="node">
<title>cluster_SPI_Slave_i_Clk</title>
<polygon fill="#cccccc" stroke="#000000" points="95,-538 41,-538 41,-502 95,-502 95,-538"/>
<text text-anchor="middle" x="68" y="-516.3" font-family="Times,serif" font-size="14.00" fill="#000000">i_Clk</text>
</g>
<!-- cluster_SPI_Slave_i_Rst_L -->
<g id="node2" class="node">
<title>cluster_SPI_Slave_i_Rst_L</title>
<polygon fill="#cccccc" stroke="#000000" points="102,-484 34,-484 34,-448 102,-448 102,-484"/>
<text text-anchor="middle" x="68" y="-462.3" font-family="Times,serif" font-size="14.00" fill="#000000">i_Rst_L</text>
</g>
<!-- cluster_SPI_Slave_i_TX_DV -->
<g id="node3" class="node">
<title>cluster_SPI_Slave_i_TX_DV</title>
<polygon fill="#cccccc" stroke="#000000" points="105,-430 31,-430 31,-394 105,-394 105,-430"/>
<text text-anchor="middle" x="68" y="-408.3" font-family="Times,serif" font-size="14.00" fill="#000000">i_TX_DV</text>
</g>
<!-- cluster_SPI_Slave_i_TX_Byte -->
<g id="node4" class="node">
<title>cluster_SPI_Slave_i_TX_Byte</title>
<polygon fill="#cccccc" stroke="#000000" points="111,-376 25,-376 25,-340 111,-340 111,-376"/>
<text text-anchor="middle" x="68" y="-354.3" font-family="Times,serif" font-size="14.00" fill="#000000">i_TX_Byte</text>
</g>
<!-- cluster_SPI_Slave_i_SPI_Clk -->
<g id="node5" class="node">
<title>cluster_SPI_Slave_i_SPI_Clk</title>
<polygon fill="#cccccc" stroke="#000000" points="109.5,-322 26.5,-322 26.5,-286 109.5,-286 109.5,-322"/>
<text text-anchor="middle" x="68" y="-300.3" font-family="Times,serif" font-size="14.00" fill="#000000">i_SPI_Clk</text>
</g>
<!-- cluster_SPI_Slave_i_SPI_MOSI -->
<g id="node6" class="node">
<title>cluster_SPI_Slave_i_SPI_MOSI</title>
<polygon fill="#cccccc" stroke="#000000" points="118,-268 18,-268 18,-232 118,-232 118,-268"/>
<text text-anchor="middle" x="68" y="-246.3" font-family="Times,serif" font-size="14.00" fill="#000000">i_SPI_MOSI</text>
</g>
<!-- cluster_SPI_Slave_i_SPI_CS_n -->
<g id="node7" class="node">
<title>cluster_SPI_Slave_i_SPI_CS_n</title>
<polygon fill="#cccccc" stroke="#000000" points="115.5,-214 20.5,-214 20.5,-178 115.5,-178 115.5,-214"/>
<text text-anchor="middle" x="68" y="-192.3" font-family="Times,serif" font-size="14.00" fill="#000000">i_SPI_CS_n</text>
</g>
<!-- cluster_SPI_Slave_o_RX_DV -->
<g id="node8" class="node">
<title>cluster_SPI_Slave_o_RX_DV</title>
<polygon fill="#e0ffff" stroke="#000000" points="108,-160 28,-160 28,-124 108,-124 108,-160"/>
<text text-anchor="middle" x="68" y="-138.3" font-family="Times,serif" font-size="14.00" fill="#000000">o_RX_DV</text>
</g>
<!-- cluster_SPI_Slave_o_RX_Byte -->
<g id="node9" class="node">
<title>cluster_SPI_Slave_o_RX_Byte</title>
<polygon fill="#e0ffff" stroke="#000000" points="114,-106 22,-106 22,-70 114,-70 114,-106"/>
<text text-anchor="middle" x="68" y="-84.3" font-family="Times,serif" font-size="14.00" fill="#000000">o_RX_Byte</text>
</g>
<!-- cluster_SPI_Slave_o_SPI_MISO -->
<g id="node10" class="node">
<title>cluster_SPI_Slave_o_SPI_MISO</title>
<polygon fill="#e0ffff" stroke="#000000" points="120,-52 16,-52 16,-16 120,-16 120,-52"/>
<text text-anchor="middle" x="68" y="-30.3" font-family="Times,serif" font-size="14.00" fill="#000000">o_SPI_MISO</text>
</g>
</g>
</svg>
