<?xml version="1.0" encoding="UTF-8" standalone="no"?>
<?xml-stylesheet href="styles.css" type="text/css"?>
<!DOCTYPE svg PUBLIC "-//W3C//DTD SVG 1.1//EN"
 "http://www.w3.org/Graphics/SVG/1.1/DTD/svg11.dtd">
<!-- Generated by graphviz version 2.43.20190912.0211 (20190912.0211)
 -->
<!-- Title: SPISlave Pages: 1 -->
<svg width="582pt" height="624pt"
 viewBox="0.00 0.00 582.00 624.00" xmlns="http://www.w3.org/2000/svg" xmlns:xlink="http://www.w3.org/1999/xlink">
<g id="graph0" class="graph" transform="scale(1 1) rotate(0) translate(4 620)">
<title>SPISlave</title>
<polygon fill="white" stroke="transparent" points="-4,4 -4,-620 578,-620 578,4 -4,4"/>
<g id="clust1" class="cluster">
<title>cluster_SPISlave</title>
<polygon fill="#fff8dc" stroke="black" points="8,-8 8,-608 566,-608 566,-8 8,-8"/>
<text text-anchor="middle" x="287" y="-592.8" font-family="Times,serif" font-size="14.00">SPISlave</text>
</g>
<g id="clust2" class="cluster">
<title>cluster_SPISlave_spi</title>
<g id="a_clust2"><a xlink:href="SPI_Slave_nandland.dot.svg" xlink:title="spi">
<polygon fill="#add8e6" stroke="black" points="274,-16 274,-577 394,-577 394,-16 274,-16"/>
<text text-anchor="middle" x="334" y="-561.8" font-family="Times,serif" font-size="14.00">spi</text>
</a>
</g>
</g>
<!-- cluster_SPISlave_clock -->
<g id="node1" class="node">
<title>cluster_SPISlave_clock</title>
<polygon fill="#cccccc" stroke="black" points="223.5,-568 169.5,-568 169.5,-532 223.5,-532 223.5,-568"/>
<text text-anchor="middle" x="196.5" y="-546.3" font-family="Times,serif" font-size="14.00">clock</text>
</g>
<!-- cluster_SPISlave_spi_i_Clk -->
<g id="node9" class="node">
<title>cluster_SPISlave_spi_i_Clk</title>
<polygon fill="#cccccc" stroke="black" points="361,-546 307,-546 307,-510 361,-510 361,-546"/>
<text text-anchor="middle" x="334" y="-524.3" font-family="Times,serif" font-size="14.00">i_Clk</text>
</g>
<!-- cluster_SPISlave_clock&#45;&gt;cluster_SPISlave_spi_i_Clk -->
<g id="edge6" class="edge">
<title>cluster_SPISlave_clock&#45;&gt;cluster_SPISlave_spi_i_Clk</title>
<path fill="none" stroke="black" d="M223.63,-545.76C244.43,-542.38 273.79,-537.61 296.85,-533.87"/>
<polygon fill="black" stroke="black" points="297.64,-537.29 306.95,-532.23 296.52,-530.38 297.64,-537.29"/>
</g>
<!-- cluster_SPISlave_reset -->
<g id="node2" class="node">
<title>cluster_SPISlave_reset</title>
<polygon fill="#cccccc" stroke="black" points="90.5,-516 36.5,-516 36.5,-480 90.5,-480 90.5,-516"/>
<text text-anchor="middle" x="63.5" y="-494.3" font-family="Times,serif" font-size="14.00">reset</text>
</g>
<!-- op_eq_111 -->
<g id="node19" class="node">
<title>op_eq_111</title>
<polygon fill="#d8bfd8" stroke="transparent" points="155,-460 155,-510 238,-510 238,-460 155,-460"/>
<polygon fill="none" stroke="black" points="155.5,-485 155.5,-510 178.5,-510 178.5,-485 155.5,-485"/>
<text text-anchor="start" x="160.5" y="-493.8" font-family="Times,serif" font-size="14.00">●</text>
<polygon fill="none" stroke="black" points="178.5,-460 178.5,-510 215.5,-510 215.5,-460 178.5,-460"/>
<text text-anchor="start" x="183.5" y="-481.3" font-family="Times,serif" font-size="14.00"> eq </text>
<polygon fill="none" stroke="black" points="215.5,-460 215.5,-510 238.5,-510 238.5,-460 215.5,-460"/>
<text text-anchor="start" x="220.5" y="-481.3" font-family="Times,serif" font-size="14.00">●</text>
<polygon fill="none" stroke="black" points="155.5,-460 155.5,-485 178.5,-485 178.5,-460 155.5,-460"/>
<text text-anchor="start" x="162" y="-468.8" font-family="Times,serif" font-size="14.00">0</text>
</g>
<!-- cluster_SPISlave_reset&#45;&gt;op_eq_111 -->
<g id="edge10" class="edge">
<title>cluster_SPISlave_reset&#45;&gt;op_eq_111:in1</title>
<path fill="none" stroke="black" d="M90.89,-498C106.02,-498 125.66,-498 144.29,-498"/>
<polygon fill="black" stroke="black" points="144.5,-501.5 154.5,-498 144.5,-494.5 144.5,-501.5"/>
</g>
<!-- cluster_SPISlave_io_spi_mosi -->
<g id="node3" class="node">
<title>cluster_SPISlave_io_spi_mosi</title>
<polygon fill="#cccccc" stroke="black" points="245.5,-438 147.5,-438 147.5,-402 245.5,-402 245.5,-438"/>
<text text-anchor="middle" x="196.5" y="-416.3" font-family="Times,serif" font-size="14.00">io_spi_mosi</text>
</g>
<!-- cluster_SPISlave_spi_i_SPI_MOSI -->
<g id="node14" class="node">
<title>cluster_SPISlave_spi_i_SPI_MOSI</title>
<polygon fill="#cccccc" stroke="black" points="384,-438 284,-438 284,-402 384,-402 384,-438"/>
<text text-anchor="middle" x="334" y="-416.3" font-family="Times,serif" font-size="14.00">i_SPI_MOSI</text>
</g>
<!-- cluster_SPISlave_io_spi_mosi&#45;&gt;cluster_SPISlave_spi_i_SPI_MOSI -->
<g id="edge3" class="edge">
<title>cluster_SPISlave_io_spi_mosi&#45;&gt;cluster_SPISlave_spi_i_SPI_MOSI</title>
<path fill="none" stroke="black" d="M245.65,-420C254.7,-420 264.26,-420 273.61,-420"/>
<polygon fill="black" stroke="black" points="273.63,-423.5 283.63,-420 273.63,-416.5 273.63,-423.5"/>
</g>
<!-- cluster_SPISlave_io_spi_clk -->
<g id="node4" class="node">
<title>cluster_SPISlave_io_spi_clk</title>
<polygon fill="#cccccc" stroke="black" points="238.5,-384 154.5,-384 154.5,-348 238.5,-348 238.5,-384"/>
<text text-anchor="middle" x="196.5" y="-362.3" font-family="Times,serif" font-size="14.00">io_spi_clk</text>
</g>
<!-- cluster_SPISlave_spi_i_SPI_Clk -->
<g id="node13" class="node">
<title>cluster_SPISlave_spi_i_SPI_Clk</title>
<polygon fill="#cccccc" stroke="black" points="375.5,-384 292.5,-384 292.5,-348 375.5,-348 375.5,-384"/>
<text text-anchor="middle" x="334" y="-362.3" font-family="Times,serif" font-size="14.00">i_SPI_Clk</text>
</g>
<!-- cluster_SPISlave_io_spi_clk&#45;&gt;cluster_SPISlave_spi_i_SPI_Clk -->
<g id="edge9" class="edge">
<title>cluster_SPISlave_io_spi_clk&#45;&gt;cluster_SPISlave_spi_i_SPI_Clk</title>
<path fill="none" stroke="black" d="M238.52,-366C252.19,-366 267.58,-366 281.91,-366"/>
<polygon fill="black" stroke="black" points="282.12,-369.5 292.12,-366 282.12,-362.5 282.12,-369.5"/>
</g>
<!-- cluster_SPISlave_io_spi_cs_n -->
<g id="node5" class="node">
<title>cluster_SPISlave_io_spi_cs_n</title>
<polygon fill="#cccccc" stroke="black" points="111,-332 16,-332 16,-296 111,-296 111,-332"/>
<text text-anchor="middle" x="63.5" y="-310.3" font-family="Times,serif" font-size="14.00">io_spi_cs_n</text>
</g>
<!-- op_eq_114 -->
<g id="node22" class="node">
<title>op_eq_114</title>
<polygon fill="#d8bfd8" stroke="transparent" points="155,-276 155,-326 238,-326 238,-276 155,-276"/>
<polygon fill="none" stroke="black" points="155.5,-301 155.5,-326 178.5,-326 178.5,-301 155.5,-301"/>
<text text-anchor="start" x="160.5" y="-309.8" font-family="Times,serif" font-size="14.00">●</text>
<polygon fill="none" stroke="black" points="178.5,-276 178.5,-326 215.5,-326 215.5,-276 178.5,-276"/>
<text text-anchor="start" x="183.5" y="-297.3" font-family="Times,serif" font-size="14.00"> eq </text>
<polygon fill="none" stroke="black" points="215.5,-276 215.5,-326 238.5,-326 238.5,-276 215.5,-276"/>
<text text-anchor="start" x="220.5" y="-297.3" font-family="Times,serif" font-size="14.00">●</text>
<polygon fill="none" stroke="black" points="155.5,-276 155.5,-301 178.5,-301 178.5,-276 155.5,-276"/>
<text text-anchor="start" x="162" y="-284.8" font-family="Times,serif" font-size="14.00">0</text>
</g>
<!-- cluster_SPISlave_io_spi_cs_n&#45;&gt;op_eq_114 -->
<g id="edge5" class="edge">
<title>cluster_SPISlave_io_spi_cs_n&#45;&gt;op_eq_114:in1</title>
<path fill="none" stroke="black" d="M111.21,-314C121.87,-314 133.34,-314 144.44,-314"/>
<polygon fill="black" stroke="black" points="144.5,-317.5 154.5,-314 144.5,-310.5 144.5,-317.5"/>
</g>
<!-- cluster_SPISlave_io_RX_data_valid -->
<g id="node6" class="node">
<title>cluster_SPISlave_io_RX_data_valid</title>
<polygon fill="#e0ffff" stroke="black" points="558,-60 422,-60 422,-24 558,-24 558,-60"/>
<text text-anchor="middle" x="490" y="-38.3" font-family="Times,serif" font-size="14.00">io_RX_data_valid</text>
</g>
<!-- cluster_SPISlave_io_RX_data -->
<g id="node7" class="node">
<title>cluster_SPISlave_io_RX_data</title>
<polygon fill="#e0ffff" stroke="black" points="537.5,-114 442.5,-114 442.5,-78 537.5,-78 537.5,-114"/>
<text text-anchor="middle" x="490" y="-92.3" font-family="Times,serif" font-size="14.00">io_RX_data</text>
</g>
<!-- cluster_SPISlave_io_spi_miso -->
<g id="node8" class="node">
<title>cluster_SPISlave_io_spi_miso</title>
<polygon fill="#e0ffff" stroke="black" points="539,-168 441,-168 441,-132 539,-132 539,-168"/>
<text text-anchor="middle" x="490" y="-146.3" font-family="Times,serif" font-size="14.00">io_spi_miso</text>
</g>
<!-- cluster_SPISlave_spi_i_Rst_L -->
<g id="node10" class="node">
<title>cluster_SPISlave_spi_i_Rst_L</title>
<polygon fill="#cccccc" stroke="black" points="368,-492 300,-492 300,-456 368,-456 368,-492"/>
<text text-anchor="middle" x="334" y="-470.3" font-family="Times,serif" font-size="14.00">i_Rst_L</text>
</g>
<!-- cluster_SPISlave_spi_i_TX_DV -->
<g id="node11" class="node">
<title>cluster_SPISlave_spi_i_TX_DV</title>
<polygon fill="#cccccc" stroke="black" points="371,-276 297,-276 297,-240 371,-240 371,-276"/>
<text text-anchor="middle" x="334" y="-254.3" font-family="Times,serif" font-size="14.00">i_TX_DV</text>
</g>
<!-- cluster_SPISlave_spi_i_TX_Byte -->
<g id="node12" class="node">
<title>cluster_SPISlave_spi_i_TX_Byte</title>
<polygon fill="#cccccc" stroke="black" points="377,-222 291,-222 291,-186 377,-186 377,-222"/>
<text text-anchor="middle" x="334" y="-200.3" font-family="Times,serif" font-size="14.00">i_TX_Byte</text>
</g>
<!-- cluster_SPISlave_spi_i_SPI_CS_n -->
<g id="node15" class="node">
<title>cluster_SPISlave_spi_i_SPI_CS_n</title>
<polygon fill="#cccccc" stroke="black" points="381.5,-330 286.5,-330 286.5,-294 381.5,-294 381.5,-330"/>
<text text-anchor="middle" x="334" y="-308.3" font-family="Times,serif" font-size="14.00">i_SPI_CS_n</text>
</g>
<!-- cluster_SPISlave_spi_o_RX_DV -->
<g id="node16" class="node">
<title>cluster_SPISlave_spi_o_RX_DV</title>
<polygon fill="#e0ffff" stroke="black" points="374,-60 294,-60 294,-24 374,-24 374,-60"/>
<text text-anchor="middle" x="334" y="-38.3" font-family="Times,serif" font-size="14.00">o_RX_DV</text>
</g>
<!-- cluster_SPISlave_spi_o_RX_DV&#45;&gt;cluster_SPISlave_io_RX_data_valid -->
<g id="edge12" class="edge">
<title>cluster_SPISlave_spi_o_RX_DV&#45;&gt;cluster_SPISlave_io_RX_data_valid</title>
<path fill="none" stroke="black" d="M374.26,-42C385.72,-42 398.66,-42 411.62,-42"/>
<polygon fill="black" stroke="black" points="411.99,-45.5 421.99,-42 411.99,-38.5 411.99,-45.5"/>
</g>
<!-- cluster_SPISlave_spi_o_RX_Byte -->
<g id="node17" class="node">
<title>cluster_SPISlave_spi_o_RX_Byte</title>
<polygon fill="#e0ffff" stroke="black" points="380,-114 288,-114 288,-78 380,-78 380,-114"/>
<text text-anchor="middle" x="334" y="-92.3" font-family="Times,serif" font-size="14.00">o_RX_Byte</text>
</g>
<!-- cluster_SPISlave_spi_o_RX_Byte&#45;&gt;cluster_SPISlave_io_RX_data -->
<g id="edge11" class="edge">
<title>cluster_SPISlave_spi_o_RX_Byte&#45;&gt;cluster_SPISlave_io_RX_data</title>
<path fill="none" stroke="black" d="M380.37,-96C396.54,-96 414.95,-96 431.97,-96"/>
<polygon fill="black" stroke="black" points="432.35,-99.5 442.35,-96 432.35,-92.5 432.35,-99.5"/>
</g>
<!-- cluster_SPISlave_spi_o_SPI_MISO -->
<g id="node18" class="node">
<title>cluster_SPISlave_spi_o_SPI_MISO</title>
<polygon fill="#e0ffff" stroke="black" points="386,-168 282,-168 282,-132 386,-132 386,-168"/>
<text text-anchor="middle" x="334" y="-146.3" font-family="Times,serif" font-size="14.00">o_SPI_MISO</text>
</g>
<!-- cluster_SPISlave_spi_o_SPI_MISO&#45;&gt;cluster_SPISlave_io_spi_miso -->
<g id="edge8" class="edge">
<title>cluster_SPISlave_spi_o_SPI_MISO&#45;&gt;cluster_SPISlave_io_spi_miso</title>
<path fill="none" stroke="black" d="M386.28,-150C400.43,-150 415.89,-150 430.42,-150"/>
<polygon fill="black" stroke="black" points="430.81,-153.5 440.81,-150 430.81,-146.5 430.81,-153.5"/>
</g>
<!-- op_eq_111&#45;&gt;cluster_SPISlave_spi_i_Rst_L -->
<g id="edge7" class="edge">
<title>op_eq_111:out&#45;&gt;cluster_SPISlave_spi_i_Rst_L</title>
<path fill="none" stroke="black" d="M239.5,-485C255.99,-485 274.01,-483.29 289.78,-481.22"/>
<polygon fill="black" stroke="black" points="290.37,-484.67 299.79,-479.82 289.4,-477.74 290.37,-484.67"/>
</g>
<!-- cluster_SPISlave_lit112 -->
<g id="node20" class="node">
<title>cluster_SPISlave_lit112</title>
<ellipse fill="lightgrey" stroke="black" cx="196.5" cy="-236" rx="18" ry="18"/>
<text text-anchor="middle" x="196.5" y="-232.3" font-family="Times,serif" font-size="14.00">0</text>
</g>
<!-- cluster_SPISlave_lit112&#45;&gt;cluster_SPISlave_spi_i_TX_DV -->
<g id="edge4" class="edge">
<title>cluster_SPISlave_lit112&#45;&gt;cluster_SPISlave_spi_i_TX_DV</title>
<path fill="none" stroke="black" d="M214.39,-238.74C232.41,-241.67 261.74,-246.43 286.73,-250.49"/>
<polygon fill="black" stroke="black" points="286.33,-253.97 296.77,-252.12 287.46,-247.06 286.33,-253.97"/>
</g>
<!-- cluster_SPISlave_lit113 -->
<g id="node21" class="node">
<title>cluster_SPISlave_lit113</title>
<ellipse fill="lightgrey" stroke="black" cx="196.5" cy="-182" rx="18" ry="18"/>
<text text-anchor="middle" x="196.5" y="-178.3" font-family="Times,serif" font-size="14.00">0</text>
</g>
<!-- cluster_SPISlave_lit113&#45;&gt;cluster_SPISlave_spi_i_TX_Byte -->
<g id="edge1" class="edge">
<title>cluster_SPISlave_lit113&#45;&gt;cluster_SPISlave_spi_i_TX_Byte</title>
<path fill="none" stroke="black" d="M214.39,-184.74C231.02,-187.44 257.3,-191.71 280.9,-195.54"/>
<polygon fill="black" stroke="black" points="280.38,-199 290.81,-197.15 281.5,-192.09 280.38,-199"/>
</g>
<!-- op_eq_114&#45;&gt;cluster_SPISlave_spi_i_SPI_CS_n -->
<g id="edge2" class="edge">
<title>op_eq_114:out&#45;&gt;cluster_SPISlave_spi_i_SPI_CS_n</title>
<path fill="none" stroke="black" d="M239.5,-301C251.38,-301 264.04,-301.89 276.09,-303.16"/>
<polygon fill="black" stroke="black" points="275.71,-306.63 286.04,-304.3 276.51,-299.68 275.71,-306.63"/>
</g>
</g>
</svg>
