<?xml version="1.0" encoding="UTF-8" standalone="no"?>
<?xml-stylesheet href="styles.css" type="text/css"?>
<!DOCTYPE svg PUBLIC "-//W3C//DTD SVG 1.1//EN"
 "http://www.w3.org/Graphics/SVG/1.1/DTD/svg11.dtd">
<!-- Generated by graphviz version 2.40.1 (0)
 -->
<!-- Title: SPISlave Pages: 1 -->
<svg width="582pt" height="624pt"
 viewBox="0.00 0.00 582.00 624.00" xmlns="http://www.w3.org/2000/svg" xmlns:xlink="http://www.w3.org/1999/xlink">
<g id="graph0" class="graph" transform="scale(1 1) rotate(0) translate(4 620)">
<title>SPISlave</title>
<polygon fill="#ffffff" stroke="transparent" points="-4,4 -4,-620 578,-620 578,4 -4,4"/>
<g id="clust1" class="cluster">
<title>cluster_SPISlave</title>
<polygon fill="#fff8dc" stroke="#000000" points="8,-8 8,-608 566,-608 566,-8 8,-8"/>
<text text-anchor="middle" x="287" y="-592.8" font-family="Times,serif" font-size="14.00" fill="#000000">SPISlave</text>
</g>
<g id="clust2" class="cluster">
<title>cluster_SPISlave_spi</title>
<g id="a_clust2"><a xlink:href="SPI_Slave_nandland.dot.svg" xlink:title="spi">
<polygon fill="#add8e6" stroke="#000000" points="274,-16 274,-577 394,-577 394,-16 274,-16"/>
<text text-anchor="middle" x="334" y="-561.8" font-family="Times,serif" font-size="14.00" fill="#000000">spi</text>
</a>
</g>
</g>
<!-- cluster_SPISlave_clock -->
<g id="node1" class="node">
<title>cluster_SPISlave_clock</title>
<polygon fill="#cccccc" stroke="#000000" points="223.5,-568 169.5,-568 169.5,-532 223.5,-532 223.5,-568"/>
<text text-anchor="middle" x="196.5" y="-546.3" font-family="Times,serif" font-size="14.00" fill="#000000">clock</text>
</g>
<!-- cluster_SPISlave_spi_i_Clk -->
<g id="node9" class="node">
<title>cluster_SPISlave_spi_i_Clk</title>
<polygon fill="#cccccc" stroke="#000000" points="361,-546 307,-546 307,-510 361,-510 361,-546"/>
<text text-anchor="middle" x="334" y="-524.3" font-family="Times,serif" font-size="14.00" fill="#000000">i_Clk</text>
</g>
<!-- cluster_SPISlave_clock&#45;&gt;cluster_SPISlave_spi_i_Clk -->
<g id="edge6" class="edge">
<title>cluster_SPISlave_clock&#45;&gt;cluster_SPISlave_spi_i_Clk</title>
<path fill="none" stroke="#000000" d="M223.6656,-545.6535C244.5697,-542.3089 273.6899,-537.6496 296.7653,-533.9576"/>
<polygon fill="#000000" stroke="#000000" points="297.5694,-537.3735 306.8909,-532.3375 296.4635,-530.4614 297.5694,-537.3735"/>
</g>
<!-- cluster_SPISlave_reset -->
<g id="node2" class="node">
<title>cluster_SPISlave_reset</title>
<polygon fill="#cccccc" stroke="#000000" points="90.5,-516 36.5,-516 36.5,-480 90.5,-480 90.5,-516"/>
<text text-anchor="middle" x="63.5" y="-494.3" font-family="Times,serif" font-size="14.00" fill="#000000">reset</text>
</g>
<!-- op_eq_47 -->
<g id="node19" class="node">
<title>op_eq_47</title>
<polygon fill="#d8bfd8" stroke="transparent" points="155,-460 155,-510 238,-510 238,-460 155,-460"/>
<polygon fill="none" stroke="#000000" points="155.5,-485 155.5,-510 178.5,-510 178.5,-485 155.5,-485"/>
<text text-anchor="start" x="160.5" y="-493.8" font-family="Times,serif" font-size="14.00" fill="#000000">●</text>
<polygon fill="none" stroke="#000000" points="178.5,-460 178.5,-510 215.5,-510 215.5,-460 178.5,-460"/>
<text text-anchor="start" x="183.5" y="-481.3" font-family="Times,serif" font-size="14.00" fill="#000000"> eq </text>
<polygon fill="none" stroke="#000000" points="215.5,-460 215.5,-510 238.5,-510 238.5,-460 215.5,-460"/>
<text text-anchor="start" x="220.5" y="-481.3" font-family="Times,serif" font-size="14.00" fill="#000000">●</text>
<polygon fill="none" stroke="#000000" points="155.5,-460 155.5,-485 178.5,-485 178.5,-460 155.5,-460"/>
<text text-anchor="start" x="162" y="-468.8" font-family="Times,serif" font-size="14.00" fill="#000000">0</text>
</g>
<!-- cluster_SPISlave_reset&#45;&gt;op_eq_47 -->
<g id="edge10" class="edge">
<title>cluster_SPISlave_reset&#45;&gt;op_eq_47:in1</title>
<path fill="none" stroke="#000000" d="M90.8743,-498C106.3832,-498 126.4267,-498 145.4039,-498"/>
<polygon fill="#000000" stroke="#000000" points="145.5,-501.5001 155.5,-498 145.5,-494.5001 145.5,-501.5001"/>
</g>
<!-- cluster_SPISlave_io_spi_mosi -->
<g id="node3" class="node">
<title>cluster_SPISlave_io_spi_mosi</title>
<polygon fill="#cccccc" stroke="#000000" points="245.5,-438 147.5,-438 147.5,-402 245.5,-402 245.5,-438"/>
<text text-anchor="middle" x="196.5" y="-416.3" font-family="Times,serif" font-size="14.00" fill="#000000">io_spi_mosi</text>
</g>
<!-- cluster_SPISlave_spi_i_SPI_MOSI -->
<g id="node14" class="node">
<title>cluster_SPISlave_spi_i_SPI_MOSI</title>
<polygon fill="#cccccc" stroke="#000000" points="384,-438 284,-438 284,-402 384,-402 384,-438"/>
<text text-anchor="middle" x="334" y="-416.3" font-family="Times,serif" font-size="14.00" fill="#000000">i_SPI_MOSI</text>
</g>
<!-- cluster_SPISlave_io_spi_mosi&#45;&gt;cluster_SPISlave_spi_i_SPI_MOSI -->
<g id="edge4" class="edge">
<title>cluster_SPISlave_io_spi_mosi&#45;&gt;cluster_SPISlave_spi_i_SPI_MOSI</title>
<path fill="none" stroke="#000000" d="M245.7523,-420C254.8067,-420 264.353,-420 273.6885,-420"/>
<polygon fill="#000000" stroke="#000000" points="273.7027,-423.5001 283.7026,-420 273.7026,-416.5001 273.7027,-423.5001"/>
</g>
<!-- cluster_SPISlave_io_spi_clk -->
<g id="node4" class="node">
<title>cluster_SPISlave_io_spi_clk</title>
<polygon fill="#cccccc" stroke="#000000" points="238.5,-384 154.5,-384 154.5,-348 238.5,-348 238.5,-384"/>
<text text-anchor="middle" x="196.5" y="-362.3" font-family="Times,serif" font-size="14.00" fill="#000000">io_spi_clk</text>
</g>
<!-- cluster_SPISlave_spi_i_SPI_Clk -->
<g id="node13" class="node">
<title>cluster_SPISlave_spi_i_SPI_Clk</title>
<polygon fill="#cccccc" stroke="#000000" points="375.5,-384 292.5,-384 292.5,-348 375.5,-348 375.5,-384"/>
<text text-anchor="middle" x="334" y="-362.3" font-family="Times,serif" font-size="14.00" fill="#000000">i_SPI_Clk</text>
</g>
<!-- cluster_SPISlave_io_spi_clk&#45;&gt;cluster_SPISlave_spi_i_SPI_Clk -->
<g id="edge9" class="edge">
<title>cluster_SPISlave_io_spi_clk&#45;&gt;cluster_SPISlave_spi_i_SPI_Clk</title>
<path fill="none" stroke="#000000" d="M238.5017,-366C252.2289,-366 267.6416,-366 282.0135,-366"/>
<polygon fill="#000000" stroke="#000000" points="282.2556,-369.5001 292.2555,-366 282.2555,-362.5001 282.2556,-369.5001"/>
</g>
<!-- cluster_SPISlave_io_spi_cs_n -->
<g id="node5" class="node">
<title>cluster_SPISlave_io_spi_cs_n</title>
<polygon fill="#cccccc" stroke="#000000" points="111,-332 16,-332 16,-296 111,-296 111,-332"/>
<text text-anchor="middle" x="63.5" y="-310.3" font-family="Times,serif" font-size="14.00" fill="#000000">io_spi_cs_n</text>
</g>
<!-- op_eq_50 -->
<g id="node22" class="node">
<title>op_eq_50</title>
<polygon fill="#d8bfd8" stroke="transparent" points="155,-276 155,-326 238,-326 238,-276 155,-276"/>
<polygon fill="none" stroke="#000000" points="155.5,-301 155.5,-326 178.5,-326 178.5,-301 155.5,-301"/>
<text text-anchor="start" x="160.5" y="-309.8" font-family="Times,serif" font-size="14.00" fill="#000000">●</text>
<polygon fill="none" stroke="#000000" points="178.5,-276 178.5,-326 215.5,-326 215.5,-276 178.5,-276"/>
<text text-anchor="start" x="183.5" y="-297.3" font-family="Times,serif" font-size="14.00" fill="#000000"> eq </text>
<polygon fill="none" stroke="#000000" points="215.5,-276 215.5,-326 238.5,-326 238.5,-276 215.5,-276"/>
<text text-anchor="start" x="220.5" y="-297.3" font-family="Times,serif" font-size="14.00" fill="#000000">●</text>
<polygon fill="none" stroke="#000000" points="155.5,-276 155.5,-301 178.5,-301 178.5,-276 155.5,-276"/>
<text text-anchor="start" x="162" y="-284.8" font-family="Times,serif" font-size="14.00" fill="#000000">0</text>
</g>
<!-- cluster_SPISlave_io_spi_cs_n&#45;&gt;op_eq_50 -->
<g id="edge1" class="edge">
<title>cluster_SPISlave_io_spi_cs_n&#45;&gt;op_eq_50:in1</title>
<path fill="none" stroke="#000000" d="M111.2498,-314C122.1498,-314 133.8715,-314 145.2187,-314"/>
<polygon fill="#000000" stroke="#000000" points="145.5,-317.5001 155.5,-314 145.5,-310.5001 145.5,-317.5001"/>
</g>
<!-- cluster_SPISlave_io_RX_data_valid -->
<g id="node6" class="node">
<title>cluster_SPISlave_io_RX_data_valid</title>
<polygon fill="#e0ffff" stroke="#000000" points="558,-60 422,-60 422,-24 558,-24 558,-60"/>
<text text-anchor="middle" x="490" y="-38.3" font-family="Times,serif" font-size="14.00" fill="#000000">io_RX_data_valid</text>
</g>
<!-- cluster_SPISlave_io_RX_data -->
<g id="node7" class="node">
<title>cluster_SPISlave_io_RX_data</title>
<polygon fill="#e0ffff" stroke="#000000" points="537.5,-114 442.5,-114 442.5,-78 537.5,-78 537.5,-114"/>
<text text-anchor="middle" x="490" y="-92.3" font-family="Times,serif" font-size="14.00" fill="#000000">io_RX_data</text>
</g>
<!-- cluster_SPISlave_io_spi_miso -->
<g id="node8" class="node">
<title>cluster_SPISlave_io_spi_miso</title>
<polygon fill="#e0ffff" stroke="#000000" points="539,-168 441,-168 441,-132 539,-132 539,-168"/>
<text text-anchor="middle" x="490" y="-146.3" font-family="Times,serif" font-size="14.00" fill="#000000">io_spi_miso</text>
</g>
<!-- cluster_SPISlave_spi_i_Rst_L -->
<g id="node10" class="node">
<title>cluster_SPISlave_spi_i_Rst_L</title>
<polygon fill="#cccccc" stroke="#000000" points="368,-492 300,-492 300,-456 368,-456 368,-492"/>
<text text-anchor="middle" x="334" y="-470.3" font-family="Times,serif" font-size="14.00" fill="#000000">i_Rst_L</text>
</g>
<!-- cluster_SPISlave_spi_i_TX_DV -->
<g id="node11" class="node">
<title>cluster_SPISlave_spi_i_TX_DV</title>
<polygon fill="#cccccc" stroke="#000000" points="371,-276 297,-276 297,-240 371,-240 371,-276"/>
<text text-anchor="middle" x="334" y="-254.3" font-family="Times,serif" font-size="14.00" fill="#000000">i_TX_DV</text>
</g>
<!-- cluster_SPISlave_spi_i_TX_Byte -->
<g id="node12" class="node">
<title>cluster_SPISlave_spi_i_TX_Byte</title>
<polygon fill="#cccccc" stroke="#000000" points="377,-222 291,-222 291,-186 377,-186 377,-222"/>
<text text-anchor="middle" x="334" y="-200.3" font-family="Times,serif" font-size="14.00" fill="#000000">i_TX_Byte</text>
</g>
<!-- cluster_SPISlave_spi_i_SPI_CS_n -->
<g id="node15" class="node">
<title>cluster_SPISlave_spi_i_SPI_CS_n</title>
<polygon fill="#cccccc" stroke="#000000" points="381.5,-330 286.5,-330 286.5,-294 381.5,-294 381.5,-330"/>
<text text-anchor="middle" x="334" y="-308.3" font-family="Times,serif" font-size="14.00" fill="#000000">i_SPI_CS_n</text>
</g>
<!-- cluster_SPISlave_spi_o_RX_DV -->
<g id="node16" class="node">
<title>cluster_SPISlave_spi_o_RX_DV</title>
<polygon fill="#e0ffff" stroke="#000000" points="374,-60 294,-60 294,-24 374,-24 374,-60"/>
<text text-anchor="middle" x="334" y="-38.3" font-family="Times,serif" font-size="14.00" fill="#000000">o_RX_DV</text>
</g>
<!-- cluster_SPISlave_spi_o_RX_DV&#45;&gt;cluster_SPISlave_io_RX_data_valid -->
<g id="edge12" class="edge">
<title>cluster_SPISlave_spi_o_RX_DV&#45;&gt;cluster_SPISlave_io_RX_data_valid</title>
<path fill="none" stroke="#000000" d="M374.1739,-42C385.6425,-42 398.5508,-42 411.4781,-42"/>
<polygon fill="#000000" stroke="#000000" points="411.8226,-45.5001 421.8226,-42 411.8225,-38.5001 411.8226,-45.5001"/>
</g>
<!-- cluster_SPISlave_spi_o_RX_Byte -->
<g id="node17" class="node">
<title>cluster_SPISlave_spi_o_RX_Byte</title>
<polygon fill="#e0ffff" stroke="#000000" points="380,-114 288,-114 288,-78 380,-78 380,-114"/>
<text text-anchor="middle" x="334" y="-92.3" font-family="Times,serif" font-size="14.00" fill="#000000">o_RX_Byte</text>
</g>
<!-- cluster_SPISlave_spi_o_RX_Byte&#45;&gt;cluster_SPISlave_io_RX_data -->
<g id="edge11" class="edge">
<title>cluster_SPISlave_spi_o_RX_Byte&#45;&gt;cluster_SPISlave_io_RX_data</title>
<path fill="none" stroke="#000000" d="M380.3828,-96C396.5969,-96 415.0052,-96 432.0445,-96"/>
<polygon fill="#000000" stroke="#000000" points="432.4451,-99.5001 442.4451,-96 432.445,-92.5001 432.4451,-99.5001"/>
</g>
<!-- cluster_SPISlave_spi_o_SPI_MISO -->
<g id="node18" class="node">
<title>cluster_SPISlave_spi_o_SPI_MISO</title>
<polygon fill="#e0ffff" stroke="#000000" points="386,-168 282,-168 282,-132 386,-132 386,-168"/>
<text text-anchor="middle" x="334" y="-146.3" font-family="Times,serif" font-size="14.00" fill="#000000">o_SPI_MISO</text>
</g>
<!-- cluster_SPISlave_spi_o_SPI_MISO&#45;&gt;cluster_SPISlave_io_spi_miso -->
<g id="edge8" class="edge">
<title>cluster_SPISlave_spi_o_SPI_MISO&#45;&gt;cluster_SPISlave_io_spi_miso</title>
<path fill="none" stroke="#000000" d="M386.3797,-150C400.5539,-150 415.9978,-150 430.5307,-150"/>
<polygon fill="#000000" stroke="#000000" points="430.9208,-153.5001 440.9208,-150 430.9207,-146.5001 430.9208,-153.5001"/>
</g>
<!-- op_eq_47&#45;&gt;cluster_SPISlave_spi_i_Rst_L -->
<g id="edge7" class="edge">
<title>op_eq_47:out&#45;&gt;cluster_SPISlave_spi_i_Rst_L</title>
<path fill="none" stroke="#000000" d="M238.5,-485C255.2025,-485 273.4409,-483.3189 289.4618,-481.2711"/>
<polygon fill="#000000" stroke="#000000" points="290.1948,-484.7037 299.6311,-479.8864 289.2503,-477.7677 290.1948,-484.7037"/>
</g>
<!-- cluster_SPISlave_lit48 -->
<g id="node20" class="node">
<title>cluster_SPISlave_lit48</title>
<ellipse fill="#d3d3d3" stroke="#000000" cx="196.5" cy="-236" rx="18" ry="18"/>
<text text-anchor="middle" x="196.5" y="-232.3" font-family="Times,serif" font-size="14.00" fill="#000000">0</text>
</g>
<!-- cluster_SPISlave_lit48&#45;&gt;cluster_SPISlave_spi_i_TX_DV -->
<g id="edge5" class="edge">
<title>cluster_SPISlave_lit48&#45;&gt;cluster_SPISlave_spi_i_TX_DV</title>
<path fill="none" stroke="#000000" d="M214.4757,-238.8761C232.774,-241.8038 261.9145,-246.4663 286.8407,-250.4545"/>
<polygon fill="#000000" stroke="#000000" points="286.4367,-253.9343 296.8641,-252.0583 287.5427,-247.0222 286.4367,-253.9343"/>
</g>
<!-- cluster_SPISlave_lit49 -->
<g id="node21" class="node">
<title>cluster_SPISlave_lit49</title>
<ellipse fill="#d3d3d3" stroke="#000000" cx="196.5" cy="-182" rx="18" ry="18"/>
<text text-anchor="middle" x="196.5" y="-178.3" font-family="Times,serif" font-size="14.00" fill="#000000">0</text>
</g>
<!-- cluster_SPISlave_lit49&#45;&gt;cluster_SPISlave_spi_i_TX_Byte -->
<g id="edge2" class="edge">
<title>cluster_SPISlave_lit49&#45;&gt;cluster_SPISlave_spi_i_TX_Byte</title>
<path fill="none" stroke="#000000" d="M214.4757,-184.8761C231.3551,-187.5768 257.4603,-191.7536 280.973,-195.5157"/>
<polygon fill="#000000" stroke="#000000" points="280.4293,-198.9731 290.8567,-197.0971 281.5353,-192.061 280.4293,-198.9731"/>
</g>
<!-- op_eq_50&#45;&gt;cluster_SPISlave_spi_i_SPI_CS_n -->
<g id="edge3" class="edge">
<title>op_eq_50:out&#45;&gt;cluster_SPISlave_spi_i_SPI_CS_n</title>
<path fill="none" stroke="#000000" d="M238.5,-301C250.626,-301 263.5614,-301.8861 275.8702,-303.1552"/>
<polygon fill="#000000" stroke="#000000" points="275.7014,-306.6583 286.0306,-304.3004 276.4855,-299.7023 275.7014,-306.6583"/>
</g>
</g>
</svg>
