<?xml version="1.0" encoding="UTF-8" standalone="no"?>
<?xml-stylesheet href="styles.css" type="text/css"?>
<!DOCTYPE svg PUBLIC "-//W3C//DTD SVG 1.1//EN"
 "http://www.w3.org/Graphics/SVG/1.1/DTD/svg11.dtd">
<!-- Generated by graphviz version 2.40.1 (20161225.0304)
 -->
<!-- Title: SPISlave Pages: 1 -->
<svg width="521pt" height="624pt"
 viewBox="0.00 0.00 521.00 624.00" xmlns="http://www.w3.org/2000/svg" xmlns:xlink="http://www.w3.org/1999/xlink">
<g id="graph0" class="graph" transform="scale(1 1) rotate(0) translate(4 620)">
<title>SPISlave</title>
<polygon fill="#ffffff" stroke="transparent" points="-4,4 -4,-620 517,-620 517,4 -4,4"/>
<g id="clust1" class="cluster">
<title>cluster_SPISlave</title>
<polygon fill="#fff8dc" stroke="#000000" points="8,-8 8,-608 505,-608 505,-8 8,-8"/>
<text text-anchor="middle" x="256.5" y="-592.8" font-family="Times,serif" font-size="14.00" fill="#000000">SPISlave</text>
</g>
<g id="clust2" class="cluster">
<title>cluster_SPISlave_spi</title>
<g id="a_clust2"><a xlink:href="SPI_Slave_nandland.dot.svg" xlink:title="spi">
<polygon fill="#add8e6" stroke="#000000" points="246,-16 246,-577 353,-577 353,-16 246,-16"/>
<text text-anchor="middle" x="299.5" y="-561.8" font-family="Times,serif" font-size="14.00" fill="#000000">spi</text>
</a>
</g>
</g>
<!-- cluster_SPISlave_clock -->
<g id="node1" class="node">
<title>cluster_SPISlave_clock</title>
<polygon fill="#cccccc" stroke="#000000" points="202.5,-568 148.5,-568 148.5,-532 202.5,-532 202.5,-568"/>
<text text-anchor="middle" x="175.5" y="-546.3" font-family="Times,serif" font-size="14.00" fill="#000000">clock</text>
</g>
<!-- cluster_SPISlave_spi_i_Clk -->
<g id="node9" class="node">
<title>cluster_SPISlave_spi_i_Clk</title>
<polygon fill="#cccccc" stroke="#000000" points="326.5,-546 272.5,-546 272.5,-510 326.5,-510 326.5,-546"/>
<text text-anchor="middle" x="299.5" y="-524.3" font-family="Times,serif" font-size="14.00" fill="#000000">i_Clk</text>
</g>
<!-- cluster_SPISlave_clock&#45;&gt;cluster_SPISlave_spi_i_Clk -->
<g id="edge6" class="edge">
<title>cluster_SPISlave_clock&#45;&gt;cluster_SPISlave_spi_i_Clk</title>
<path fill="none" stroke="#000000" d="M202.7123,-545.172C220.2373,-542.0627 243.245,-537.9807 262.431,-534.5768"/>
<polygon fill="#000000" stroke="#000000" points="263.1164,-538.0099 272.3512,-532.8167 261.8935,-531.1175 263.1164,-538.0099"/>
</g>
<!-- cluster_SPISlave_reset -->
<g id="node2" class="node">
<title>cluster_SPISlave_reset</title>
<polygon fill="#cccccc" stroke="#000000" points="83.5,-516 29.5,-516 29.5,-480 83.5,-480 83.5,-516"/>
<text text-anchor="middle" x="56.5" y="-494.3" font-family="Times,serif" font-size="14.00" fill="#000000">reset</text>
</g>
<!-- op_eq_235 -->
<g id="node19" class="node">
<title>op_eq_235</title>
<polygon fill="#d8bfd8" stroke="transparent" points="141,-460 141,-510 210,-510 210,-460 141,-460"/>
<polygon fill="none" stroke="#000000" points="141.5,-485 141.5,-510 160.5,-510 160.5,-485 141.5,-485"/>
<text text-anchor="start" x="146.5" y="-493.8" font-family="Times,serif" font-size="14.00" fill="#000000">●</text>
<polygon fill="none" stroke="#000000" points="160.5,-460 160.5,-510 191.5,-510 191.5,-460 160.5,-460"/>
<text text-anchor="start" x="165.5" y="-481.3" font-family="Times,serif" font-size="14.00" fill="#000000"> eq </text>
<polygon fill="none" stroke="#000000" points="191.5,-460 191.5,-510 210.5,-510 210.5,-460 191.5,-460"/>
<text text-anchor="start" x="196.5" y="-481.3" font-family="Times,serif" font-size="14.00" fill="#000000">●</text>
<polygon fill="none" stroke="#000000" points="141.5,-460 141.5,-485 160.5,-485 160.5,-460 141.5,-460"/>
<text text-anchor="start" x="147.5" y="-468.8" font-family="Times,serif" font-size="14.00" fill="#000000">0</text>
</g>
<!-- cluster_SPISlave_reset&#45;&gt;op_eq_235 -->
<g id="edge1" class="edge">
<title>cluster_SPISlave_reset&#45;&gt;op_eq_235:in1</title>
<path fill="none" stroke="#000000" d="M83.6791,-498C97.4961,-498 114.8243,-498 131.3515,-498"/>
<polygon fill="#000000" stroke="#000000" points="131.5,-501.5001 141.5,-498 131.5,-494.5001 131.5,-501.5001"/>
</g>
<!-- cluster_SPISlave_io_spi_mosi -->
<g id="node3" class="node">
<title>cluster_SPISlave_io_spi_mosi</title>
<polygon fill="#cccccc" stroke="#000000" points="217,-438 134,-438 134,-402 217,-402 217,-438"/>
<text text-anchor="middle" x="175.5" y="-416.3" font-family="Times,serif" font-size="14.00" fill="#000000">io_spi_mosi</text>
</g>
<!-- cluster_SPISlave_spi_i_SPI_MOSI -->
<g id="node14" class="node">
<title>cluster_SPISlave_spi_i_SPI_MOSI</title>
<polygon fill="#cccccc" stroke="#000000" points="343.5,-438 255.5,-438 255.5,-402 343.5,-402 343.5,-438"/>
<text text-anchor="middle" x="299.5" y="-416.3" font-family="Times,serif" font-size="14.00" fill="#000000">i_SPI_MOSI</text>
</g>
<!-- cluster_SPISlave_io_spi_mosi&#45;&gt;cluster_SPISlave_spi_i_SPI_MOSI -->
<g id="edge4" class="edge">
<title>cluster_SPISlave_io_spi_mosi&#45;&gt;cluster_SPISlave_spi_i_SPI_MOSI</title>
<path fill="none" stroke="#000000" d="M217.1352,-420C226.1256,-420 235.7587,-420 245.1537,-420"/>
<polygon fill="#000000" stroke="#000000" points="245.2133,-423.5001 255.2132,-420 245.2132,-416.5001 245.2133,-423.5001"/>
</g>
<!-- cluster_SPISlave_io_spi_clk -->
<g id="node4" class="node">
<title>cluster_SPISlave_io_spi_clk</title>
<polygon fill="#cccccc" stroke="#000000" points="212,-384 139,-384 139,-348 212,-348 212,-384"/>
<text text-anchor="middle" x="175.5" y="-362.3" font-family="Times,serif" font-size="14.00" fill="#000000">io_spi_clk</text>
</g>
<!-- cluster_SPISlave_spi_i_SPI_Clk -->
<g id="node13" class="node">
<title>cluster_SPISlave_spi_i_SPI_Clk</title>
<polygon fill="#cccccc" stroke="#000000" points="336,-384 263,-384 263,-348 336,-348 336,-384"/>
<text text-anchor="middle" x="299.5" y="-362.3" font-family="Times,serif" font-size="14.00" fill="#000000">i_SPI_Clk</text>
</g>
<!-- cluster_SPISlave_io_spi_clk&#45;&gt;cluster_SPISlave_spi_i_SPI_Clk -->
<g id="edge10" class="edge">
<title>cluster_SPISlave_io_spi_clk&#45;&gt;cluster_SPISlave_spi_i_SPI_Clk</title>
<path fill="none" stroke="#000000" d="M212.0334,-366C224.7853,-366 239.2769,-366 252.7452,-366"/>
<polygon fill="#000000" stroke="#000000" points="252.7992,-369.5001 262.7992,-366 252.7992,-362.5001 252.7992,-369.5001"/>
</g>
<!-- cluster_SPISlave_io_spi_cs_n -->
<g id="node5" class="node">
<title>cluster_SPISlave_io_spi_cs_n</title>
<polygon fill="#cccccc" stroke="#000000" points="97,-332 16,-332 16,-296 97,-296 97,-332"/>
<text text-anchor="middle" x="56.5" y="-310.3" font-family="Times,serif" font-size="14.00" fill="#000000">io_spi_cs_n</text>
</g>
<!-- op_eq_238 -->
<g id="node22" class="node">
<title>op_eq_238</title>
<polygon fill="#d8bfd8" stroke="transparent" points="141,-276 141,-326 210,-326 210,-276 141,-276"/>
<polygon fill="none" stroke="#000000" points="141.5,-301 141.5,-326 160.5,-326 160.5,-301 141.5,-301"/>
<text text-anchor="start" x="146.5" y="-309.8" font-family="Times,serif" font-size="14.00" fill="#000000">●</text>
<polygon fill="none" stroke="#000000" points="160.5,-276 160.5,-326 191.5,-326 191.5,-276 160.5,-276"/>
<text text-anchor="start" x="165.5" y="-297.3" font-family="Times,serif" font-size="14.00" fill="#000000"> eq </text>
<polygon fill="none" stroke="#000000" points="191.5,-276 191.5,-326 210.5,-326 210.5,-276 191.5,-276"/>
<text text-anchor="start" x="196.5" y="-297.3" font-family="Times,serif" font-size="14.00" fill="#000000">●</text>
<polygon fill="none" stroke="#000000" points="141.5,-276 141.5,-301 160.5,-301 160.5,-276 141.5,-276"/>
<text text-anchor="start" x="147.5" y="-284.8" font-family="Times,serif" font-size="14.00" fill="#000000">0</text>
</g>
<!-- cluster_SPISlave_io_spi_cs_n&#45;&gt;op_eq_238 -->
<g id="edge9" class="edge">
<title>cluster_SPISlave_io_spi_cs_n&#45;&gt;op_eq_238:in1</title>
<path fill="none" stroke="#000000" d="M97.1414,-314C108.0089,-314 119.9502,-314 131.4943,-314"/>
<polygon fill="#000000" stroke="#000000" points="131.5,-317.5001 141.5,-314 131.5,-310.5001 131.5,-317.5001"/>
</g>
<!-- cluster_SPISlave_io_RX_data_valid -->
<g id="node6" class="node">
<title>cluster_SPISlave_io_RX_data_valid</title>
<polygon fill="#e0ffff" stroke="#000000" points="497,-60 381,-60 381,-24 497,-24 497,-60"/>
<text text-anchor="middle" x="439" y="-38.3" font-family="Times,serif" font-size="14.00" fill="#000000">io_RX_data_valid</text>
</g>
<!-- cluster_SPISlave_io_RX_data -->
<g id="node7" class="node">
<title>cluster_SPISlave_io_RX_data</title>
<polygon fill="#e0ffff" stroke="#000000" points="480,-114 398,-114 398,-78 480,-78 480,-114"/>
<text text-anchor="middle" x="439" y="-92.3" font-family="Times,serif" font-size="14.00" fill="#000000">io_RX_data</text>
</g>
<!-- cluster_SPISlave_io_spi_miso -->
<g id="node8" class="node">
<title>cluster_SPISlave_io_spi_miso</title>
<polygon fill="#e0ffff" stroke="#000000" points="480.5,-168 397.5,-168 397.5,-132 480.5,-132 480.5,-168"/>
<text text-anchor="middle" x="439" y="-146.3" font-family="Times,serif" font-size="14.00" fill="#000000">io_spi_miso</text>
</g>
<!-- cluster_SPISlave_spi_i_Rst_L -->
<g id="node10" class="node">
<title>cluster_SPISlave_spi_i_Rst_L</title>
<polygon fill="#cccccc" stroke="#000000" points="329.5,-492 269.5,-492 269.5,-456 329.5,-456 329.5,-492"/>
<text text-anchor="middle" x="299.5" y="-470.3" font-family="Times,serif" font-size="14.00" fill="#000000">i_Rst_L</text>
</g>
<!-- cluster_SPISlave_spi_i_TX_DV -->
<g id="node11" class="node">
<title>cluster_SPISlave_spi_i_TX_DV</title>
<polygon fill="#cccccc" stroke="#000000" points="335,-276 264,-276 264,-240 335,-240 335,-276"/>
<text text-anchor="middle" x="299.5" y="-254.3" font-family="Times,serif" font-size="14.00" fill="#000000">i_TX_DV</text>
</g>
<!-- cluster_SPISlave_spi_i_TX_Byte -->
<g id="node12" class="node">
<title>cluster_SPISlave_spi_i_TX_Byte</title>
<polygon fill="#cccccc" stroke="#000000" points="338,-222 261,-222 261,-186 338,-186 338,-222"/>
<text text-anchor="middle" x="299.5" y="-200.3" font-family="Times,serif" font-size="14.00" fill="#000000">i_TX_Byte</text>
</g>
<!-- cluster_SPISlave_spi_i_SPI_CS_n -->
<g id="node15" class="node">
<title>cluster_SPISlave_spi_i_SPI_CS_n</title>
<polygon fill="#cccccc" stroke="#000000" points="341,-330 258,-330 258,-294 341,-294 341,-330"/>
<text text-anchor="middle" x="299.5" y="-308.3" font-family="Times,serif" font-size="14.00" fill="#000000">i_SPI_CS_n</text>
</g>
<!-- cluster_SPISlave_spi_o_RX_DV -->
<g id="node16" class="node">
<title>cluster_SPISlave_spi_o_RX_DV</title>
<polygon fill="#e0ffff" stroke="#000000" points="337,-60 262,-60 262,-24 337,-24 337,-60"/>
<text text-anchor="middle" x="299.5" y="-38.3" font-family="Times,serif" font-size="14.00" fill="#000000">o_RX_DV</text>
</g>
<!-- cluster_SPISlave_spi_o_RX_DV&#45;&gt;cluster_SPISlave_io_RX_data_valid -->
<g id="edge12" class="edge">
<title>cluster_SPISlave_spi_o_RX_DV&#45;&gt;cluster_SPISlave_io_RX_data_valid</title>
<path fill="none" stroke="#000000" d="M337.2507,-42C347.6106,-42 359.173,-42 370.6832,-42"/>
<polygon fill="#000000" stroke="#000000" points="370.7534,-45.5001 380.7534,-42 370.7534,-38.5001 370.7534,-45.5001"/>
</g>
<!-- cluster_SPISlave_spi_o_RX_Byte -->
<g id="node17" class="node">
<title>cluster_SPISlave_spi_o_RX_Byte</title>
<polygon fill="#e0ffff" stroke="#000000" points="340,-114 259,-114 259,-78 340,-78 340,-114"/>
<text text-anchor="middle" x="299.5" y="-92.3" font-family="Times,serif" font-size="14.00" fill="#000000">o_RX_Byte</text>
</g>
<!-- cluster_SPISlave_spi_o_RX_Byte&#45;&gt;cluster_SPISlave_io_RX_data -->
<g id="edge11" class="edge">
<title>cluster_SPISlave_spi_o_RX_Byte&#45;&gt;cluster_SPISlave_io_RX_data</title>
<path fill="none" stroke="#000000" d="M340.2242,-96C355.1334,-96 372.1961,-96 387.8981,-96"/>
<polygon fill="#000000" stroke="#000000" points="387.9837,-99.5001 397.9837,-96 387.9836,-92.5001 387.9837,-99.5001"/>
</g>
<!-- cluster_SPISlave_spi_o_SPI_MISO -->
<g id="node18" class="node">
<title>cluster_SPISlave_spi_o_SPI_MISO</title>
<polygon fill="#e0ffff" stroke="#000000" points="345,-168 254,-168 254,-132 345,-132 345,-168"/>
<text text-anchor="middle" x="299.5" y="-146.3" font-family="Times,serif" font-size="14.00" fill="#000000">o_SPI_MISO</text>
</g>
<!-- cluster_SPISlave_spi_o_SPI_MISO&#45;&gt;cluster_SPISlave_io_spi_miso -->
<g id="edge8" class="edge">
<title>cluster_SPISlave_spi_o_SPI_MISO&#45;&gt;cluster_SPISlave_io_spi_miso</title>
<path fill="none" stroke="#000000" d="M345.1775,-150C358.6015,-150 373.3814,-150 387.1609,-150"/>
<polygon fill="#000000" stroke="#000000" points="387.4642,-153.5001 397.4641,-150 387.4641,-146.5001 387.4642,-153.5001"/>
</g>
<!-- op_eq_235&#45;&gt;cluster_SPISlave_spi_i_Rst_L -->
<g id="edge7" class="edge">
<title>op_eq_235:out&#45;&gt;cluster_SPISlave_spi_i_Rst_L</title>
<path fill="none" stroke="#000000" d="M210.5,-485C226.4387,-485 243.8626,-483.2409 259.0349,-481.1295"/>
<polygon fill="#000000" stroke="#000000" points="259.7563,-484.5609 269.1331,-479.6289 258.7273,-477.6369 259.7563,-484.5609"/>
</g>
<!-- cluster_SPISlave_lit236 -->
<g id="node20" class="node">
<title>cluster_SPISlave_lit236</title>
<ellipse fill="#d3d3d3" stroke="#000000" cx="175.5" cy="-236" rx="18" ry="18"/>
<text text-anchor="middle" x="175.5" y="-232.3" font-family="Times,serif" font-size="14.00" fill="#000000">0</text>
</g>
<!-- cluster_SPISlave_lit236&#45;&gt;cluster_SPISlave_spi_i_TX_DV -->
<g id="edge5" class="edge">
<title>cluster_SPISlave_lit236&#45;&gt;cluster_SPISlave_spi_i_TX_DV</title>
<path fill="none" stroke="#000000" d="M193.2662,-239.1521C209.0348,-241.9497 232.7688,-246.1606 253.8063,-249.8931"/>
<polygon fill="#000000" stroke="#000000" points="253.4129,-253.3778 263.8705,-251.6786 254.6358,-246.4855 253.4129,-253.3778"/>
</g>
<!-- cluster_SPISlave_lit237 -->
<g id="node21" class="node">
<title>cluster_SPISlave_lit237</title>
<ellipse fill="#d3d3d3" stroke="#000000" cx="175.5" cy="-182" rx="18" ry="18"/>
<text text-anchor="middle" x="175.5" y="-178.3" font-family="Times,serif" font-size="14.00" fill="#000000">0</text>
</g>
<!-- cluster_SPISlave_lit237&#45;&gt;cluster_SPISlave_spi_i_TX_Byte -->
<g id="edge2" class="edge">
<title>cluster_SPISlave_lit237&#45;&gt;cluster_SPISlave_spi_i_TX_Byte</title>
<path fill="none" stroke="#000000" d="M193.2662,-185.1521C208.2757,-187.815 230.502,-191.7584 250.7504,-195.3509"/>
<polygon fill="#000000" stroke="#000000" points="250.3419,-198.833 260.7996,-197.1338 251.5648,-191.9406 250.3419,-198.833"/>
</g>
<!-- op_eq_238&#45;&gt;cluster_SPISlave_spi_i_SPI_CS_n -->
<g id="edge3" class="edge">
<title>op_eq_238:out&#45;&gt;cluster_SPISlave_spi_i_SPI_CS_n</title>
<path fill="none" stroke="#000000" d="M210.5,-301C222.6632,-301 235.6914,-302.0245 247.9238,-303.4481"/>
<polygon fill="#000000" stroke="#000000" points="247.6142,-306.9368 257.9754,-304.7241 248.4958,-299.9925 247.6142,-306.9368"/>
</g>
</g>
</svg>
