<?xml version="1.0" encoding="UTF-8" standalone="no"?>
<?xml-stylesheet href="styles.css" type="text/css"?>
<!DOCTYPE svg PUBLIC "-//W3C//DTD SVG 1.1//EN"
 "http://www.w3.org/Graphics/SVG/1.1/DTD/svg11.dtd">
<!-- Generated by graphviz version 2.40.1 (20161225.0304)
 -->
<!-- Title: Square Pages: 1 -->
<svg width="685pt" height="175pt"
 viewBox="0.00 0.00 685.00 175.00" xmlns="http://www.w3.org/2000/svg" xmlns:xlink="http://www.w3.org/1999/xlink">
<g id="graph0" class="graph" transform="scale(1 1) rotate(0) translate(4 171)">
<title>Square</title>
<polygon fill="#ffffff" stroke="transparent" points="-4,4 -4,-171 681,-171 681,4 -4,4"/>
<g id="clust1" class="cluster">
<title>cluster_Square</title>
<polygon fill="#fff8dc" stroke="#000000" points="8,-8 8,-159 669,-159 669,-8 8,-8"/>
<text text-anchor="middle" x="338.5" y="-143.8" font-family="Times,serif" font-size="14.00" fill="#000000">Square</text>
</g>
<!-- cluster_Square_io_wavelength -->
<g id="node1" class="node">
<title>cluster_Square_io_wavelength</title>
<polygon fill="#cccccc" stroke="#000000" points="125,-52 29,-52 29,-16 125,-16 125,-52"/>
<text text-anchor="middle" x="77" y="-30.3" font-family="Times,serif" font-size="14.00" fill="#000000">io_wavelength</text>
</g>
<!-- op_pad_141 -->
<g id="node7" class="node">
<title>op_pad_141</title>
<polygon fill="#d8bfd8" stroke="transparent" points="182,-21.5 182,-46.5 258,-46.5 258,-21.5 182,-21.5"/>
<polygon fill="none" stroke="#000000" points="182,-21 182,-46 201,-46 201,-21 182,-21"/>
<text text-anchor="start" x="187" y="-29.8" font-family="Times,serif" font-size="14.00" fill="#000000">●</text>
<polygon fill="none" stroke="#000000" points="201,-21 201,-46 239,-46 239,-21 201,-21"/>
<text text-anchor="start" x="206" y="-29.8" font-family="Times,serif" font-size="14.00" fill="#000000"> pad </text>
<polygon fill="none" stroke="#000000" points="239,-21 239,-46 258,-46 258,-21 239,-21"/>
<text text-anchor="start" x="244" y="-29.8" font-family="Times,serif" font-size="14.00" fill="#000000">●</text>
</g>
<!-- cluster_Square_io_wavelength&#45;&gt;op_pad_141 -->
<g id="edge5" class="edge">
<title>cluster_Square_io_wavelength&#45;&gt;op_pad_141:in1</title>
<path fill="none" stroke="#000000" d="M125.0892,-33.3498C139.7483,-33.1931 156.1408,-33.0581 171.8227,-33.0146"/>
<polygon fill="#000000" stroke="#000000" points="172.0051,-36.5145 182,-33 171.9949,-29.5145 172.0051,-36.5145"/>
</g>
<!-- cluster_Square_io_wavelength_pos -->
<g id="node2" class="node">
<title>cluster_Square_io_wavelength_pos</title>
<polygon fill="#cccccc" stroke="#000000" points="138,-128 16,-128 16,-92 138,-92 138,-128"/>
<text text-anchor="middle" x="77" y="-106.3" font-family="Times,serif" font-size="14.00" fill="#000000">io_wavelength_pos</text>
</g>
<!-- op_shl_140 -->
<g id="node6" class="node">
<title>op_shl_140</title>
<polygon fill="#d8bfd8" stroke="transparent" points="184,-74 184,-124 256,-124 256,-74 184,-74"/>
<polygon fill="none" stroke="#000000" points="184,-99 184,-124 203,-124 203,-99 184,-99"/>
<text text-anchor="start" x="189" y="-107.8" font-family="Times,serif" font-size="14.00" fill="#000000">●</text>
<polygon fill="none" stroke="#000000" points="203,-74 203,-124 237,-124 237,-74 203,-74"/>
<text text-anchor="start" x="208" y="-95.3" font-family="Times,serif" font-size="14.00" fill="#000000"> shl </text>
<polygon fill="none" stroke="#000000" points="237,-74 237,-124 256,-124 256,-74 237,-74"/>
<text text-anchor="start" x="242" y="-95.3" font-family="Times,serif" font-size="14.00" fill="#000000">●</text>
<polygon fill="none" stroke="#000000" points="184,-74 184,-99 203,-99 203,-74 184,-74"/>
<text text-anchor="start" x="190" y="-82.8" font-family="Times,serif" font-size="14.00" fill="#000000">1</text>
</g>
<!-- cluster_Square_io_wavelength_pos&#45;&gt;op_shl_140 -->
<g id="edge2" class="edge">
<title>cluster_Square_io_wavelength_pos&#45;&gt;op_shl_140:in1</title>
<path fill="none" stroke="#000000" d="M138.1068,-111.5361C149.7133,-111.7438 161.928,-111.9077 173.7441,-111.9713"/>
<polygon fill="#000000" stroke="#000000" points="173.9902,-115.4719 184,-112 174.0099,-108.472 173.9902,-115.4719"/>
</g>
<!-- cluster_Square_io_sample_out -->
<g id="node3" class="node">
<title>cluster_Square_io_sample_out</title>
<polygon fill="#e0ffff" stroke="#000000" points="661,-84 564,-84 564,-48 661,-48 661,-84"/>
<text text-anchor="middle" x="612.5" y="-62.3" font-family="Times,serif" font-size="14.00" fill="#000000">io_sample_out</text>
</g>
<!-- mux_4578551 -->
<g id="node4" class="node">
<title>mux_4578551</title>
<polygon fill="#afeeee" stroke="transparent" points="429,-41 429,-91 520,-91 520,-41 429,-41"/>
<polygon fill="none" stroke="#000000" points="429.5,-66 429.5,-91 478.5,-91 478.5,-66 429.5,-66"/>
<text text-anchor="start" x="434.5" y="-74.8" font-family="Times,serif" font-size="14.00" fill="#000000">&#45;32767</text>
<polygon fill="none" stroke="#000000" points="478.5,-41 478.5,-91 501.5,-91 501.5,-41 478.5,-41"/>
<text text-anchor="start" x="483.5" y="-62.3" font-family="Times,serif" font-size="14.00" fill="#000000">a?</text>
<polygon fill="none" stroke="#000000" points="501.5,-41 501.5,-91 520.5,-91 520.5,-41 501.5,-41"/>
<text text-anchor="start" x="506.5" y="-62.3" font-family="Times,serif" font-size="14.00" fill="#000000">●</text>
<polygon fill="none" stroke="#000000" points="429.5,-41 429.5,-66 478.5,-66 478.5,-41 429.5,-41"/>
<text text-anchor="start" x="437" y="-49.8" font-family="Times,serif" font-size="14.00" fill="#000000">32767</text>
</g>
<!-- mux_4578551&#45;&gt;cluster_Square_io_sample_out -->
<g id="edge4" class="edge">
<title>mux_4578551:out&#45;&gt;cluster_Square_io_sample_out</title>
<path fill="none" stroke="#000000" d="M520.5,-66C531.2613,-66 542.7306,-66 553.7899,-66"/>
<polygon fill="#000000" stroke="#000000" points="553.7991,-69.5001 563.7991,-66 553.799,-62.5001 553.7991,-69.5001"/>
</g>
<!-- op_gt_139 -->
<g id="node5" class="node">
<title>op_gt_139</title>
<polygon fill="#d8bfd8" stroke="transparent" points="310,-41 310,-91 377,-91 377,-41 310,-41"/>
<polygon fill="none" stroke="#000000" points="310.5,-66 310.5,-91 329.5,-91 329.5,-66 310.5,-66"/>
<text text-anchor="start" x="315.5" y="-74.8" font-family="Times,serif" font-size="14.00" fill="#000000">●</text>
<polygon fill="none" stroke="#000000" points="329.5,-41 329.5,-91 358.5,-91 358.5,-41 329.5,-41"/>
<text text-anchor="start" x="334.5" y="-62.3" font-family="Times,serif" font-size="14.00" fill="#000000"> gt </text>
<polygon fill="none" stroke="#000000" points="358.5,-41 358.5,-91 377.5,-91 377.5,-41 358.5,-41"/>
<text text-anchor="start" x="363.5" y="-62.3" font-family="Times,serif" font-size="14.00" fill="#000000">●</text>
<polygon fill="none" stroke="#000000" points="310.5,-41 310.5,-66 329.5,-66 329.5,-41 310.5,-41"/>
<text text-anchor="start" x="315.5" y="-49.8" font-family="Times,serif" font-size="14.00" fill="#000000">●</text>
</g>
<!-- op_gt_139&#45;&gt;mux_4578551 -->
<g id="edge3" class="edge">
<title>op_gt_139:out&#45;&gt;mux_4578551:select</title>
<path fill="none" stroke="#000000" d="M377.5,-66C399.7988,-66 399.4554,-46.75 421,-41 446.6474,-34.155 479.5409,-16.2626 488.2849,-30.97"/>
<polygon fill="#000000" stroke="#000000" points="484.9258,-31.9901 490.5,-41 491.7611,-30.4805 484.9258,-31.9901"/>
</g>
<!-- op_shl_140&#45;&gt;op_gt_139 -->
<g id="edge1" class="edge">
<title>op_shl_140:out&#45;&gt;op_gt_139:in1</title>
<path fill="none" stroke="#000000" d="M256,-99C277.9718,-99 283.3337,-84.4968 300.3744,-80.1912"/>
<polygon fill="#000000" stroke="#000000" points="300.9774,-83.6445 310.5,-79 300.1595,-76.6924 300.9774,-83.6445"/>
</g>
<!-- op_pad_141&#45;&gt;op_gt_139 -->
<g id="edge6" class="edge">
<title>op_pad_141:out&#45;&gt;op_gt_139:in2</title>
<path fill="none" stroke="#000000" d="M258,-33C279.0677,-33 284.1833,-47.2383 300.2659,-51.6877"/>
<polygon fill="#000000" stroke="#000000" points="300.136,-55.1997 310.5,-53 301.0264,-48.2565 300.136,-55.1997"/>
</g>
</g>
</svg>
