<?xml version="1.0" encoding="UTF-8" standalone="no"?>
<?xml-stylesheet href="styles.css" type="text/css"?>
<!DOCTYPE svg PUBLIC "-//W3C//DTD SVG 1.1//EN"
 "http://www.w3.org/Graphics/SVG/1.1/DTD/svg11.dtd">
<!-- Generated by graphviz version 2.43.20190912.0211 (20190912.0211)
 -->
<!-- Title: Square Pages: 1 -->
<svg width="781pt" height="175pt"
 viewBox="0.00 0.00 781.00 175.00" xmlns="http://www.w3.org/2000/svg" xmlns:xlink="http://www.w3.org/1999/xlink">
<g id="graph0" class="graph" transform="scale(1 1) rotate(0) translate(4 171)">
<title>Square</title>
<polygon fill="white" stroke="transparent" points="-4,4 -4,-171 777,-171 777,4 -4,4"/>
<g id="clust1" class="cluster">
<title>cluster_Square</title>
<polygon fill="#fff8dc" stroke="black" points="8,-8 8,-159 765,-159 765,-8 8,-8"/>
<text text-anchor="middle" x="386.5" y="-143.8" font-family="Times,serif" font-size="14.00">Square</text>
</g>
<!-- cluster_Square_io_wavelength -->
<g id="node1" class="node">
<title>cluster_Square_io_wavelength</title>
<polygon fill="#cccccc" stroke="black" points="150.5,-52 31.5,-52 31.5,-16 150.5,-16 150.5,-52"/>
<text text-anchor="middle" x="91" y="-30.3" font-family="Times,serif" font-size="14.00">io_wavelength</text>
</g>
<!-- op_pad_104 -->
<g id="node7" class="node">
<title>op_pad_104</title>
<polygon fill="#d8bfd8" stroke="transparent" points="210,-21.5 210,-46.5 302,-46.5 302,-21.5 210,-21.5"/>
<polygon fill="none" stroke="black" points="210,-21 210,-46 233,-46 233,-21 210,-21"/>
<text text-anchor="start" x="215" y="-29.8" font-family="Times,serif" font-size="14.00">●</text>
<polygon fill="none" stroke="black" points="233,-21 233,-46 279,-46 279,-21 233,-21"/>
<text text-anchor="start" x="238" y="-29.8" font-family="Times,serif" font-size="14.00"> pad </text>
<polygon fill="none" stroke="black" points="279,-21 279,-46 302,-46 302,-21 279,-21"/>
<text text-anchor="start" x="284" y="-29.8" font-family="Times,serif" font-size="14.00">●</text>
</g>
<!-- cluster_Square_io_wavelength&#45;&gt;op_pad_104 -->
<g id="edge6" class="edge">
<title>cluster_Square_io_wavelength&#45;&gt;op_pad_104:in1</title>
<path fill="none" stroke="black" d="M150.62,-33.3C165.93,-33.16 182.63,-33.05 198.62,-33.01"/>
<polygon fill="black" stroke="black" points="199,-36.51 209,-33 199,-29.51 199,-36.51"/>
</g>
<!-- cluster_Square_io_wavelength_pos -->
<g id="node2" class="node">
<title>cluster_Square_io_wavelength_pos</title>
<polygon fill="#cccccc" stroke="black" points="166,-128 16,-128 16,-92 166,-92 166,-128"/>
<text text-anchor="middle" x="91" y="-106.3" font-family="Times,serif" font-size="14.00">io_wavelength_pos</text>
</g>
<!-- op_shl_103 -->
<g id="node6" class="node">
<title>op_shl_103</title>
<polygon fill="#d8bfd8" stroke="transparent" points="212.5,-74 212.5,-124 299.5,-124 299.5,-74 212.5,-74"/>
<polygon fill="none" stroke="black" points="213,-99 213,-124 236,-124 236,-99 213,-99"/>
<text text-anchor="start" x="218" y="-107.8" font-family="Times,serif" font-size="14.00">●</text>
<polygon fill="none" stroke="black" points="236,-74 236,-124 277,-124 277,-74 236,-74"/>
<text text-anchor="start" x="241" y="-95.3" font-family="Times,serif" font-size="14.00"> shl </text>
<polygon fill="none" stroke="black" points="277,-74 277,-124 300,-124 300,-74 277,-74"/>
<text text-anchor="start" x="282" y="-95.3" font-family="Times,serif" font-size="14.00">●</text>
<polygon fill="none" stroke="black" points="213,-74 213,-99 236,-99 236,-74 213,-74"/>
<text text-anchor="start" x="219.5" y="-82.8" font-family="Times,serif" font-size="14.00">1</text>
</g>
<!-- cluster_Square_io_wavelength_pos&#45;&gt;op_shl_103 -->
<g id="edge1" class="edge">
<title>cluster_Square_io_wavelength_pos&#45;&gt;op_shl_103:in1</title>
<path fill="none" stroke="black" d="M166.25,-111.62C177.96,-111.8 190.07,-111.93 201.81,-111.98"/>
<polygon fill="black" stroke="black" points="201.99,-115.48 212,-112 202.01,-108.48 201.99,-115.48"/>
</g>
<!-- cluster_Square_io_sample_out -->
<g id="node3" class="node">
<title>cluster_Square_io_sample_out</title>
<polygon fill="#e0ffff" stroke="black" points="757,-84 640,-84 640,-48 757,-48 757,-84"/>
<text text-anchor="middle" x="698.5" y="-62.3" font-family="Times,serif" font-size="14.00">io_sample_out</text>
</g>
<!-- mux_200864072 -->
<g id="node4" class="node">
<title>mux_200864072</title>
<polygon fill="#afeeee" stroke="transparent" points="487,-41 487,-91 596,-91 596,-41 487,-41"/>
<polygon fill="none" stroke="black" points="487.5,-66 487.5,-91 547.5,-91 547.5,-66 487.5,-66"/>
<text text-anchor="start" x="492.5" y="-74.8" font-family="Times,serif" font-size="14.00">&#45;32767</text>
<polygon fill="none" stroke="black" points="547.5,-41 547.5,-91 573.5,-91 573.5,-41 547.5,-41"/>
<text text-anchor="start" x="552.5" y="-62.3" font-family="Times,serif" font-size="14.00">a?</text>
<polygon fill="none" stroke="black" points="573.5,-41 573.5,-91 596.5,-91 596.5,-41 573.5,-41"/>
<text text-anchor="start" x="578.5" y="-62.3" font-family="Times,serif" font-size="14.00">●</text>
<polygon fill="none" stroke="black" points="487.5,-41 487.5,-66 547.5,-66 547.5,-41 487.5,-41"/>
<text text-anchor="start" x="494.5" y="-49.8" font-family="Times,serif" font-size="14.00">32767</text>
</g>
<!-- mux_200864072&#45;&gt;cluster_Square_io_sample_out -->
<g id="edge4" class="edge">
<title>mux_200864072:out&#45;&gt;cluster_Square_io_sample_out</title>
<path fill="none" stroke="black" d="M597.5,-66C607.89,-66 618.89,-66 629.65,-66"/>
<polygon fill="black" stroke="black" points="629.86,-69.5 639.86,-66 629.86,-62.5 629.86,-69.5"/>
</g>
<!-- op_gt_102 -->
<g id="node5" class="node">
<title>op_gt_102</title>
<polygon fill="#d8bfd8" stroke="transparent" points="354,-41 354,-91 435,-91 435,-41 354,-41"/>
<polygon fill="none" stroke="black" points="354.5,-66 354.5,-91 377.5,-91 377.5,-66 354.5,-66"/>
<text text-anchor="start" x="359.5" y="-74.8" font-family="Times,serif" font-size="14.00">●</text>
<polygon fill="none" stroke="black" points="377.5,-41 377.5,-91 412.5,-91 412.5,-41 377.5,-41"/>
<text text-anchor="start" x="382.5" y="-62.3" font-family="Times,serif" font-size="14.00"> gt </text>
<polygon fill="none" stroke="black" points="412.5,-41 412.5,-91 435.5,-91 435.5,-41 412.5,-41"/>
<text text-anchor="start" x="417.5" y="-62.3" font-family="Times,serif" font-size="14.00">●</text>
<polygon fill="none" stroke="black" points="354.5,-41 354.5,-66 377.5,-66 377.5,-41 354.5,-41"/>
<text text-anchor="start" x="359.5" y="-49.8" font-family="Times,serif" font-size="14.00">●</text>
</g>
<!-- op_gt_102&#45;&gt;mux_200864072 -->
<g id="edge3" class="edge">
<title>op_gt_102:out&#45;&gt;mux_200864072:select</title>
<path fill="none" stroke="black" d="M436.5,-66C458.41,-66 457.89,-46.89 479,-41 509.94,-32.37 550.09,-9.78 558.79,-30.02"/>
<polygon fill="black" stroke="black" points="555.36,-30.73 560.5,-40 562.26,-29.55 555.36,-30.73"/>
</g>
<!-- op_shl_103&#45;&gt;op_gt_102 -->
<g id="edge5" class="edge">
<title>op_shl_103:out&#45;&gt;op_gt_102:in1</title>
<path fill="none" stroke="black" d="M301,-99C322.07,-99 327.18,-84.76 343.27,-80.31"/>
<polygon fill="black" stroke="black" points="344.03,-83.74 353.5,-79 343.14,-76.8 344.03,-83.74"/>
</g>
<!-- op_pad_104&#45;&gt;op_gt_102 -->
<g id="edge2" class="edge">
<title>op_pad_104:out&#45;&gt;op_gt_102:in2</title>
<path fill="none" stroke="black" d="M303,-33C323.18,-33 328.04,-46.98 343.19,-51.56"/>
<polygon fill="black" stroke="black" points="343.11,-55.08 353.5,-53 344.08,-48.15 343.11,-55.08"/>
</g>
</g>
</svg>
