<?xml version="1.0" encoding="UTF-8" standalone="no"?>
<?xml-stylesheet href="styles.css" type="text/css"?>
<!DOCTYPE svg PUBLIC "-//W3C//DTD SVG 1.1//EN"
 "http://www.w3.org/Graphics/SVG/1.1/DTD/svg11.dtd">
<!-- Generated by graphviz version 2.40.1 (0)
 -->
<!-- Title: Top Pages: 1 -->
<svg width="2359pt" height="626pt"
 viewBox="0.00 0.00 2359.00 626.00" xmlns="http://www.w3.org/2000/svg" xmlns:xlink="http://www.w3.org/1999/xlink">
<g id="graph0" class="graph" transform="scale(1 1) rotate(0) translate(4 622)">
<title>Top</title>
<polygon fill="#ffffff" stroke="transparent" points="-4,4 -4,-622 2355,-622 2355,4 -4,4"/>
<g id="clust1" class="cluster">
<title>cluster_Top</title>
<polygon fill="#fff8dc" stroke="#000000" points="8,-8 8,-610 2343,-610 2343,-8 8,-8"/>
<text text-anchor="middle" x="1175.5" y="-594.8" font-family="Times,serif" font-size="14.00" fill="#000000">Top</text>
</g>
<g id="clust2" class="cluster">
<title>cluster_Top_SoundTopLevel</title>
<g id="a_clust2"><a xlink:href="SoundTopLevel.dot.svg" xlink:title="SoundTopLevel">
<polygon fill="#add8e6" stroke="#000000" points="1077,-166 1077,-511 1394,-511 1394,-166 1077,-166"/>
<text text-anchor="middle" x="1235.5" y="-495.8" font-family="Times,serif" font-size="14.00" fill="#000000">SoundTopLevel</text>
</a>
</g>
</g>
<g id="clust22" class="cluster">
<title>cluster_Top_SPISlave</title>
<g id="a_clust22"><a xlink:href="SPISlave.dot.svg" xlink:title="SPISlave">
<polygon fill="#add8e6" stroke="#000000" points="142,-16 142,-469 294,-469 294,-16 142,-16"/>
<text text-anchor="middle" x="218" y="-453.8" font-family="Times,serif" font-size="14.00" fill="#000000">SPISlave</text>
</a>
</g>
</g>
<g id="clust24" class="cluster">
<title>cluster_Top_SPIInputHandler</title>
<g id="a_clust24"><a xlink:href="SPIInputHandler.dot.svg" xlink:title="SPIInputHandler">
<polygon fill="#add8e6" stroke="#000000" points="314,-184 314,-529 466,-529 466,-184 314,-184"/>
<text text-anchor="middle" x="390" y="-513.8" font-family="Times,serif" font-size="14.00" fill="#000000">SPIInputHandler</text>
</a>
</g>
</g>
<g id="clust25" class="cluster">
<title>cluster_Top_PWM</title>
<g id="a_clust25"><a xlink:href="PWM.dot.svg" xlink:title="PWM">
<polygon fill="#add8e6" stroke="#000000" points="2110,-342 2110,-579 2206,-579 2206,-342 2110,-342"/>
<text text-anchor="middle" x="2158" y="-563.8" font-family="Times,serif" font-size="14.00" fill="#000000">PWM</text>
</a>
</g>
</g>
<!-- cluster_Top_clock -->
<g id="node1" class="node">
<title>cluster_Top_clock</title>
<polygon fill="#cccccc" stroke="#000000" points="92,-564 38,-564 38,-528 92,-528 92,-564"/>
<text text-anchor="middle" x="65" y="-542.3" font-family="Times,serif" font-size="14.00" fill="#000000">clock</text>
</g>
<!-- cluster_Top_SoundTopLevel_clock -->
<g id="node8" class="node">
<title>cluster_Top_SoundTopLevel_clock</title>
<polygon fill="#cccccc" stroke="#000000" points="1262.5,-480 1208.5,-480 1208.5,-444 1262.5,-444 1262.5,-480"/>
<text text-anchor="middle" x="1235.5" y="-458.3" font-family="Times,serif" font-size="14.00" fill="#000000">clock</text>
</g>
<!-- cluster_Top_clock&#45;&gt;cluster_Top_SoundTopLevel_clock -->
<g id="edge23" class="edge">
<title>cluster_Top_clock&#45;&gt;cluster_Top_SoundTopLevel_clock</title>
<path fill="none" stroke="#000000" d="M92.0953,-545.2688C167.6997,-543.294 387.3968,-538 570,-538 570,-538 570,-538 861,-538 946.6153,-538 967.5271,-522.3087 1049,-496 1061.8841,-491.8396 1063.9564,-487.6297 1077,-484 1117.5175,-472.7251 1165.542,-467.0917 1198.026,-464.3704"/>
<polygon fill="#000000" stroke="#000000" points="1198.7178,-467.827 1208.4133,-463.5552 1198.17,-460.8484 1198.7178,-467.827"/>
</g>
<!-- cluster_Top_SPISlave_clock -->
<g id="node14" class="node">
<title>cluster_Top_SPISlave_clock</title>
<polygon fill="#cccccc" stroke="#000000" points="245,-438 191,-438 191,-402 245,-402 245,-438"/>
<text text-anchor="middle" x="218" y="-416.3" font-family="Times,serif" font-size="14.00" fill="#000000">clock</text>
</g>
<!-- cluster_Top_clock&#45;&gt;cluster_Top_SPISlave_clock -->
<g id="edge30" class="edge">
<title>cluster_Top_clock&#45;&gt;cluster_Top_SPISlave_clock</title>
<path fill="none" stroke="#000000" d="M92.103,-533.6911C99.9995,-529.0581 108.0839,-523.1451 114,-516 136.4262,-488.9148 116.161,-465.8514 142,-442 152.5365,-432.274 167.1173,-426.8218 180.6921,-423.7753"/>
<polygon fill="#000000" stroke="#000000" points="181.6082,-427.1646 190.793,-421.8835 180.3196,-420.2843 181.6082,-427.1646"/>
</g>
<!-- cluster_Top_SPIInputHandler_clock -->
<g id="node22" class="node">
<title>cluster_Top_SPIInputHandler_clock</title>
<polygon fill="#cccccc" stroke="#000000" points="417,-498 363,-498 363,-462 417,-462 417,-498"/>
<text text-anchor="middle" x="390" y="-476.3" font-family="Times,serif" font-size="14.00" fill="#000000">clock</text>
</g>
<!-- cluster_Top_clock&#45;&gt;cluster_Top_SPIInputHandler_clock -->
<g id="edge31" class="edge">
<title>cluster_Top_clock&#45;&gt;cluster_Top_SPIInputHandler_clock</title>
<path fill="none" stroke="#000000" d="M92.1503,-540.4864C150.22,-528.6938 286.5666,-501.0049 352.7085,-487.573"/>
<polygon fill="#000000" stroke="#000000" points="353.595,-490.9645 362.6984,-485.5443 352.2018,-484.1046 353.595,-490.9645"/>
</g>
<!-- cluster_Top_PWM_clock -->
<g id="node28" class="node">
<title>cluster_Top_PWM_clock</title>
<polygon fill="#cccccc" stroke="#000000" points="2185,-548 2131,-548 2131,-512 2185,-512 2185,-548"/>
<text text-anchor="middle" x="2158" y="-526.3" font-family="Times,serif" font-size="14.00" fill="#000000">clock</text>
</g>
<!-- cluster_Top_clock&#45;&gt;cluster_Top_PWM_clock -->
<g id="edge25" class="edge">
<title>cluster_Top_clock&#45;&gt;cluster_Top_PWM_clock</title>
<path fill="none" stroke="#000000" d="M92.3034,-550.5169C148.0718,-559.3378 279.1584,-578 390,-578 390,-578 390,-578 1852.5,-578 1950.3008,-578 2063.6019,-553.696 2120.8245,-539.6761"/>
<polygon fill="#000000" stroke="#000000" points="2121.98,-542.9954 2130.8402,-537.1861 2120.2911,-536.2022 2121.98,-542.9954"/>
</g>
<!-- cluster_Top_reset -->
<g id="node2" class="node">
<title>cluster_Top_reset</title>
<polygon fill="#cccccc" stroke="#000000" points="92,-507 38,-507 38,-471 92,-471 92,-507"/>
<text text-anchor="middle" x="65" y="-485.3" font-family="Times,serif" font-size="14.00" fill="#000000">reset</text>
</g>
<!-- cluster_Top_SoundTopLevel_reset -->
<g id="node9" class="node">
<title>cluster_Top_SoundTopLevel_reset</title>
<polygon fill="#cccccc" stroke="#000000" points="1262.5,-264 1208.5,-264 1208.5,-228 1262.5,-228 1262.5,-264"/>
<text text-anchor="middle" x="1235.5" y="-242.3" font-family="Times,serif" font-size="14.00" fill="#000000">reset</text>
</g>
<!-- cluster_Top_reset&#45;&gt;cluster_Top_SoundTopLevel_reset -->
<g id="edge32" class="edge">
<title>cluster_Top_reset&#45;&gt;cluster_Top_SoundTopLevel_reset</title>
<path fill="none" stroke="#000000" d="M92.0767,-486.8099C106.8322,-485.6366 125.4161,-484.1916 142,-483 158.8819,-481.787 282.0172,-484.9533 294,-473 340.2043,-426.9091 266.9202,-225.1963 314,-180 396.1088,-101.1761 456.1797,-173 570,-173 570,-173 570,-173 861,-173 959.1528,-173 980.6002,-200.5326 1077,-219 1118.2567,-226.9036 1165.7798,-234.8452 1197.9453,-240.0489"/>
<polygon fill="#000000" stroke="#000000" points="1197.8045,-243.5712 1208.2336,-241.7047 1198.9168,-236.6601 1197.8045,-243.5712"/>
</g>
<!-- cluster_Top_SPISlave_reset -->
<g id="node15" class="node">
<title>cluster_Top_SPISlave_reset</title>
<polygon fill="#cccccc" stroke="#000000" points="245,-384 191,-384 191,-348 245,-348 245,-384"/>
<text text-anchor="middle" x="218" y="-362.3" font-family="Times,serif" font-size="14.00" fill="#000000">reset</text>
</g>
<!-- cluster_Top_reset&#45;&gt;cluster_Top_SPISlave_reset -->
<g id="edge15" class="edge">
<title>cluster_Top_reset&#45;&gt;cluster_Top_SPISlave_reset</title>
<path fill="none" stroke="#000000" d="M75.2088,-470.9028C88.1559,-449.4749 112.3982,-414.0469 142,-393 153.6401,-384.7239 168.0697,-378.7565 181.218,-374.5719"/>
<polygon fill="#000000" stroke="#000000" points="182.3477,-377.888 190.9554,-371.7107 180.3743,-371.1719 182.3477,-377.888"/>
</g>
<!-- cluster_Top_SPIInputHandler_reset -->
<g id="node23" class="node">
<title>cluster_Top_SPIInputHandler_reset</title>
<polygon fill="#cccccc" stroke="#000000" points="417,-444 363,-444 363,-408 417,-408 417,-444"/>
<text text-anchor="middle" x="390" y="-422.3" font-family="Times,serif" font-size="14.00" fill="#000000">reset</text>
</g>
<!-- cluster_Top_reset&#45;&gt;cluster_Top_SPIInputHandler_reset -->
<g id="edge16" class="edge">
<title>cluster_Top_reset&#45;&gt;cluster_Top_SPIInputHandler_reset</title>
<path fill="none" stroke="#000000" d="M92.113,-495.8408C137.2058,-505.651 229.0683,-518.8522 294,-483 308.0283,-475.2542 301.361,-462.8512 314,-453 325.3528,-444.1512 339.8426,-438.0554 353.1195,-433.9283"/>
<polygon fill="#000000" stroke="#000000" points="354.2945,-437.2334 362.964,-431.1432 352.3888,-430.4977 354.2945,-437.2334"/>
</g>
<!-- cluster_Top_PWM_reset -->
<g id="node29" class="node">
<title>cluster_Top_PWM_reset</title>
<polygon fill="#cccccc" stroke="#000000" points="2185,-494 2131,-494 2131,-458 2185,-458 2185,-494"/>
<text text-anchor="middle" x="2158" y="-472.3" font-family="Times,serif" font-size="14.00" fill="#000000">reset</text>
</g>
<!-- cluster_Top_reset&#45;&gt;cluster_Top_PWM_reset -->
<g id="edge3" class="edge">
<title>cluster_Top_reset&#45;&gt;cluster_Top_PWM_reset</title>
<path fill="none" stroke="#000000" d="M92.1919,-495.3677C167.6003,-512.4492 385.9445,-558 570,-558 570,-558 570,-558 1852.5,-558 1952.6908,-558 2065.2403,-516.3515 2121.6452,-492.4184"/>
<polygon fill="#000000" stroke="#000000" points="2123.0554,-495.6219 2130.8575,-488.454 2120.2884,-489.192 2123.0554,-495.6219"/>
</g>
<!-- cluster_Top_io_spi_mosi -->
<g id="node3" class="node">
<title>cluster_Top_io_spi_mosi</title>
<polygon fill="#cccccc" stroke="#000000" points="114,-330 16,-330 16,-294 114,-294 114,-330"/>
<text text-anchor="middle" x="65" y="-308.3" font-family="Times,serif" font-size="14.00" fill="#000000">io_spi_mosi</text>
</g>
<!-- cluster_Top_SPISlave_io_spi_mosi -->
<g id="node16" class="node">
<title>cluster_Top_SPISlave_io_spi_mosi</title>
<polygon fill="#cccccc" stroke="#000000" points="267,-330 169,-330 169,-294 267,-294 267,-330"/>
<text text-anchor="middle" x="218" y="-308.3" font-family="Times,serif" font-size="14.00" fill="#000000">io_spi_mosi</text>
</g>
<!-- cluster_Top_io_spi_mosi&#45;&gt;cluster_Top_SPISlave_io_spi_mosi -->
<g id="edge9" class="edge">
<title>cluster_Top_io_spi_mosi&#45;&gt;cluster_Top_SPISlave_io_spi_mosi</title>
<path fill="none" stroke="#000000" d="M114.2523,-312C128.4479,-312 144.0832,-312 158.8146,-312"/>
<polygon fill="#000000" stroke="#000000" points="158.84,-315.5001 168.8399,-312 158.8399,-308.5001 158.84,-315.5001"/>
</g>
<!-- cluster_Top_io_spi_clk -->
<g id="node4" class="node">
<title>cluster_Top_io_spi_clk</title>
<polygon fill="#cccccc" stroke="#000000" points="107,-276 23,-276 23,-240 107,-240 107,-276"/>
<text text-anchor="middle" x="65" y="-254.3" font-family="Times,serif" font-size="14.00" fill="#000000">io_spi_clk</text>
</g>
<!-- cluster_Top_SPISlave_io_spi_clk -->
<g id="node17" class="node">
<title>cluster_Top_SPISlave_io_spi_clk</title>
<polygon fill="#cccccc" stroke="#000000" points="260,-276 176,-276 176,-240 260,-240 260,-276"/>
<text text-anchor="middle" x="218" y="-254.3" font-family="Times,serif" font-size="14.00" fill="#000000">io_spi_clk</text>
</g>
<!-- cluster_Top_io_spi_clk&#45;&gt;cluster_Top_SPISlave_io_spi_clk -->
<g id="edge6" class="edge">
<title>cluster_Top_io_spi_clk&#45;&gt;cluster_Top_SPISlave_io_spi_clk</title>
<path fill="none" stroke="#000000" d="M107.2129,-258C125.3572,-258 146.7461,-258 165.8671,-258"/>
<polygon fill="#000000" stroke="#000000" points="165.9249,-261.5001 175.9248,-258 165.9248,-254.5001 165.9249,-261.5001"/>
</g>
<!-- cluster_Top_io_spi_cs_n -->
<g id="node5" class="node">
<title>cluster_Top_io_spi_cs_n</title>
<polygon fill="#cccccc" stroke="#000000" points="112.5,-222 17.5,-222 17.5,-186 112.5,-186 112.5,-222"/>
<text text-anchor="middle" x="65" y="-200.3" font-family="Times,serif" font-size="14.00" fill="#000000">io_spi_cs_n</text>
</g>
<!-- cluster_Top_SPISlave_io_spi_cs_n -->
<g id="node18" class="node">
<title>cluster_Top_SPISlave_io_spi_cs_n</title>
<polygon fill="#cccccc" stroke="#000000" points="265.5,-222 170.5,-222 170.5,-186 265.5,-186 265.5,-222"/>
<text text-anchor="middle" x="218" y="-200.3" font-family="Times,serif" font-size="14.00" fill="#000000">io_spi_cs_n</text>
</g>
<!-- cluster_Top_io_spi_cs_n&#45;&gt;cluster_Top_SPISlave_io_spi_cs_n -->
<g id="edge21" class="edge">
<title>cluster_Top_io_spi_cs_n&#45;&gt;cluster_Top_SPISlave_io_spi_cs_n</title>
<path fill="none" stroke="#000000" d="M112.5715,-204C127.6829,-204 144.5605,-204 160.3051,-204"/>
<polygon fill="#000000" stroke="#000000" points="160.458,-207.5001 170.4579,-204 160.4579,-200.5001 160.458,-207.5001"/>
</g>
<!-- cluster_Top_io_spi_miso -->
<g id="node6" class="node">
<title>cluster_Top_io_spi_miso</title>
<polygon fill="#e0ffff" stroke="#000000" points="439,-60 341,-60 341,-24 439,-24 439,-60"/>
<text text-anchor="middle" x="390" y="-38.3" font-family="Times,serif" font-size="14.00" fill="#000000">io_spi_miso</text>
</g>
<!-- cluster_Top_io_pwm_out -->
<g id="node7" class="node">
<title>cluster_Top_io_pwm_out</title>
<polygon fill="#e0ffff" stroke="#000000" points="2335,-386 2234,-386 2234,-350 2335,-350 2335,-386"/>
<text text-anchor="middle" x="2284.5" y="-364.3" font-family="Times,serif" font-size="14.00" fill="#000000">io_pwm_out</text>
</g>
<!-- cluster_Top_SoundTopLevel_io_genPacketIn_generatorUpdatePacket -->
<g id="node10" class="node">
<title>cluster_Top_SoundTopLevel_io_genPacketIn_generatorUpdatePacket</title>
<polygon fill="#cccccc" stroke="#000000" points="1386,-372 1085,-372 1085,-336 1386,-336 1386,-372"/>
<text text-anchor="middle" x="1235.5" y="-350.3" font-family="Times,serif" font-size="14.00" fill="#000000">io_genPacketIn_generatorUpdatePacket</text>
</g>
<!-- cluster_Top_SoundTopLevel_io_gloPacketIn_globalUpdatePacket -->
<g id="node11" class="node">
<title>cluster_Top_SoundTopLevel_io_gloPacketIn_globalUpdatePacket</title>
<polygon fill="#cccccc" stroke="#000000" points="1370,-318 1101,-318 1101,-282 1370,-282 1370,-318"/>
<text text-anchor="middle" x="1235.5" y="-296.3" font-family="Times,serif" font-size="14.00" fill="#000000">io_gloPacketIn_globalUpdatePacket</text>
</g>
<!-- cluster_Top_SoundTopLevel_io_gloWriteEnable -->
<g id="node12" class="node">
<title>cluster_Top_SoundTopLevel_io_gloWriteEnable</title>
<polygon fill="#cccccc" stroke="#000000" points="1309,-426 1162,-426 1162,-390 1309,-390 1309,-426"/>
<text text-anchor="middle" x="1235.5" y="-404.3" font-family="Times,serif" font-size="14.00" fill="#000000">io_gloWriteEnable</text>
</g>
<!-- cluster_Top_SoundTopLevel_io_resultOut -->
<g id="node13" class="node">
<title>cluster_Top_SoundTopLevel_io_resultOut</title>
<polygon fill="#e0ffff" stroke="#000000" points="1287.5,-210 1183.5,-210 1183.5,-174 1287.5,-174 1287.5,-210"/>
<text text-anchor="middle" x="1235.5" y="-188.3" font-family="Times,serif" font-size="14.00" fill="#000000">io_resultOut</text>
</g>
<!-- op_add_1212 -->
<g id="node43" class="node">
<title>op_add_1212</title>
<polygon fill="#d8bfd8" stroke="transparent" points="1430,-178 1430,-228 1604,-228 1604,-178 1430,-178"/>
<polygon fill="none" stroke="#000000" points="1430,-203 1430,-228 1535,-228 1535,-203 1430,-203"/>
<text text-anchor="start" x="1476" y="-211.8" font-family="Times,serif" font-size="14.00" fill="#000000">●</text>
<polygon fill="none" stroke="#000000" points="1535,-178 1535,-228 1581,-228 1581,-178 1535,-178"/>
<text text-anchor="start" x="1540" y="-199.3" font-family="Times,serif" font-size="14.00" fill="#000000"> add </text>
<polygon fill="none" stroke="#000000" points="1581,-178 1581,-228 1604,-228 1604,-178 1581,-178"/>
<text text-anchor="start" x="1586" y="-199.3" font-family="Times,serif" font-size="14.00" fill="#000000">●</text>
<polygon fill="none" stroke="#000000" points="1430,-178 1430,-203 1535,-203 1535,-178 1430,-178"/>
<text text-anchor="start" x="1435" y="-186.8" font-family="Times,serif" font-size="14.00" fill="#000000">&#45;2147483648</text>
</g>
<!-- cluster_Top_SoundTopLevel_io_resultOut&#45;&gt;op_add_1212 -->
<g id="edge20" class="edge">
<title>cluster_Top_SoundTopLevel_io_resultOut&#45;&gt;op_add_1212:in1</title>
<path fill="none" stroke="#000000" d="M1287.705,-201.9697C1324.0746,-208.1129 1374.1016,-214.9872 1419.976,-215.8984"/>
<polygon fill="#000000" stroke="#000000" points="1419.965,-219.3984 1430,-216 1420.036,-212.3987 1419.965,-219.3984"/>
</g>
<!-- cluster_Top_SPISlave_io_RX_data_valid -->
<g id="node19" class="node">
<title>cluster_Top_SPISlave_io_RX_data_valid</title>
<polygon fill="#e0ffff" stroke="#000000" points="286,-168 150,-168 150,-132 286,-132 286,-168"/>
<text text-anchor="middle" x="218" y="-146.3" font-family="Times,serif" font-size="14.00" fill="#000000">io_RX_data_valid</text>
</g>
<!-- cluster_Top_SPIInputHandler_io_RX_data_valid -->
<g id="node25" class="node">
<title>cluster_Top_SPIInputHandler_io_RX_data_valid</title>
<polygon fill="#cccccc" stroke="#000000" points="458,-390 322,-390 322,-354 458,-354 458,-390"/>
<text text-anchor="middle" x="390" y="-368.3" font-family="Times,serif" font-size="14.00" fill="#000000">io_RX_data_valid</text>
</g>
<!-- cluster_Top_SPISlave_io_RX_data_valid&#45;&gt;cluster_Top_SPIInputHandler_io_RX_data_valid -->
<g id="edge1" class="edge">
<title>cluster_Top_SPISlave_io_RX_data_valid&#45;&gt;cluster_Top_SPIInputHandler_io_RX_data_valid</title>
<path fill="none" stroke="#000000" d="M284.6487,-168.0482C288.1236,-170.6422 291.291,-173.6084 294,-177 340.9277,-235.753 267.0723,-286.247 314,-345 314.5926,-345.7419 315.2071,-346.4635 315.842,-347.1652"/>
<polygon fill="#000000" stroke="#000000" points="313.5854,-349.8434 323.3513,-353.9518 318.279,-344.6501 313.5854,-349.8434"/>
</g>
<!-- cluster_Top_SPISlave_io_RX_data -->
<g id="node20" class="node">
<title>cluster_Top_SPISlave_io_RX_data</title>
<polygon fill="#e0ffff" stroke="#000000" points="265.5,-114 170.5,-114 170.5,-78 265.5,-78 265.5,-114"/>
<text text-anchor="middle" x="218" y="-92.3" font-family="Times,serif" font-size="14.00" fill="#000000">io_RX_data</text>
</g>
<!-- cluster_Top_SPIInputHandler_io_RX_data -->
<g id="node24" class="node">
<title>cluster_Top_SPIInputHandler_io_RX_data</title>
<polygon fill="#cccccc" stroke="#000000" points="437.5,-336 342.5,-336 342.5,-300 437.5,-300 437.5,-336"/>
<text text-anchor="middle" x="390" y="-314.3" font-family="Times,serif" font-size="14.00" fill="#000000">io_RX_data</text>
</g>
<!-- cluster_Top_SPISlave_io_RX_data&#45;&gt;cluster_Top_SPIInputHandler_io_RX_data -->
<g id="edge10" class="edge">
<title>cluster_Top_SPISlave_io_RX_data&#45;&gt;cluster_Top_SPIInputHandler_io_RX_data</title>
<path fill="none" stroke="#000000" d="M265.6713,-104.0303C276.4615,-108.0342 286.8343,-114.0286 294,-123 340.9277,-181.753 267.0723,-232.247 314,-291 319.0384,-297.308 325.6624,-302.1442 332.9021,-305.8516"/>
<polygon fill="#000000" stroke="#000000" points="331.7638,-309.1737 342.3287,-309.9697 334.5661,-302.7591 331.7638,-309.1737"/>
</g>
<!-- cluster_Top_SPISlave_io_spi_miso -->
<g id="node21" class="node">
<title>cluster_Top_SPISlave_io_spi_miso</title>
<polygon fill="#e0ffff" stroke="#000000" points="267,-60 169,-60 169,-24 267,-24 267,-60"/>
<text text-anchor="middle" x="218" y="-38.3" font-family="Times,serif" font-size="14.00" fill="#000000">io_spi_miso</text>
</g>
<!-- cluster_Top_SPISlave_io_spi_miso&#45;&gt;cluster_Top_io_spi_miso -->
<g id="edge14" class="edge">
<title>cluster_Top_SPISlave_io_spi_miso&#45;&gt;cluster_Top_io_spi_miso</title>
<path fill="none" stroke="#000000" d="M267.2883,-42C286.9901,-42 309.8564,-42 330.4735,-42"/>
<polygon fill="#000000" stroke="#000000" points="330.7045,-45.5001 340.7045,-42 330.7045,-38.5001 330.7045,-45.5001"/>
</g>
<!-- cluster_Top_SPIInputHandler_io_packet_valid -->
<g id="node26" class="node">
<title>cluster_Top_SPIInputHandler_io_packet_valid</title>
<polygon fill="#e0ffff" stroke="#000000" points="452.5,-282 327.5,-282 327.5,-246 452.5,-246 452.5,-282"/>
<text text-anchor="middle" x="390" y="-260.3" font-family="Times,serif" font-size="14.00" fill="#000000">io_packet_valid</text>
</g>
<!-- op_and_1204 -->
<g id="node34" class="node">
<title>op_and_1204</title>
<polygon fill="#d8bfd8" stroke="transparent" points="949,-433 949,-483 1041,-483 1041,-433 949,-433"/>
<polygon fill="none" stroke="#000000" points="949,-458 949,-483 972,-483 972,-458 949,-458"/>
<text text-anchor="start" x="954" y="-466.8" font-family="Times,serif" font-size="14.00" fill="#000000">●</text>
<polygon fill="none" stroke="#000000" points="972,-433 972,-483 1018,-483 1018,-433 972,-433"/>
<text text-anchor="start" x="977" y="-454.3" font-family="Times,serif" font-size="14.00" fill="#000000"> and </text>
<polygon fill="none" stroke="#000000" points="1018,-433 1018,-483 1041,-483 1041,-433 1018,-433"/>
<text text-anchor="start" x="1023" y="-454.3" font-family="Times,serif" font-size="14.00" fill="#000000">●</text>
<polygon fill="none" stroke="#000000" points="949,-433 949,-458 972,-458 972,-433 949,-433"/>
<text text-anchor="start" x="954" y="-441.8" font-family="Times,serif" font-size="14.00" fill="#000000">●</text>
</g>
<!-- cluster_Top_SPIInputHandler_io_packet_valid&#45;&gt;op_and_1204 -->
<g id="edge26" class="edge">
<title>cluster_Top_SPIInputHandler_io_packet_valid&#45;&gt;op_and_1204:in1</title>
<path fill="none" stroke="#000000" d="M452.7278,-279.5158C457.7286,-282.6631 462.2762,-286.4481 466,-291 521.7179,-359.1082 428.6078,-428.1182 494,-487 561.8759,-548.1182 815.0952,-499.1153 905,-483 921.055,-480.1222 926.6373,-474.1056 938.7671,-471.8651"/>
<polygon fill="#000000" stroke="#000000" points="939.3304,-475.3301 949,-471 938.7407,-468.355 939.3304,-475.3301"/>
</g>
<!-- cluster_Top_SPIInputHandler_io_packet_data -->
<g id="node27" class="node">
<title>cluster_Top_SPIInputHandler_io_packet_data</title>
<polygon fill="#e0ffff" stroke="#000000" points="451,-228 329,-228 329,-192 451,-192 451,-228"/>
<text text-anchor="middle" x="390" y="-206.3" font-family="Times,serif" font-size="14.00" fill="#000000">io_packet_data</text>
</g>
<!-- op_bits_1202 -->
<g id="node32" class="node">
<title>op_bits_1202</title>
<polygon fill="#d8bfd8" stroke="transparent" points="506.5,-272 506.5,-322 633.5,-322 633.5,-272 506.5,-272"/>
<polygon fill="none" stroke="#000000" points="507,-297 507,-322 564,-322 564,-297 507,-297"/>
<text text-anchor="start" x="529" y="-305.8" font-family="Times,serif" font-size="14.00" fill="#000000">●</text>
<polygon fill="none" stroke="#000000" points="564,-272 564,-322 611,-322 611,-272 564,-272"/>
<text text-anchor="start" x="569" y="-293.3" font-family="Times,serif" font-size="14.00" fill="#000000"> bits </text>
<polygon fill="none" stroke="#000000" points="611,-272 611,-322 634,-322 634,-272 611,-272"/>
<text text-anchor="start" x="616" y="-293.3" font-family="Times,serif" font-size="14.00" fill="#000000">●</text>
<polygon fill="none" stroke="#000000" points="507,-272 507,-297 564,-297 564,-272 507,-272"/>
<text text-anchor="start" x="512" y="-280.8" font-family="Times,serif" font-size="14.00" fill="#000000">(87, 0)</text>
</g>
<!-- cluster_Top_SPIInputHandler_io_packet_data&#45;&gt;op_bits_1202 -->
<g id="edge17" class="edge">
<title>cluster_Top_SPIInputHandler_io_packet_data&#45;&gt;op_bits_1202:in1</title>
<path fill="none" stroke="#000000" d="M451.1064,-227.1139C456.4355,-229.9376 461.5028,-233.2104 466,-237 491.3436,-258.3555 474.549,-299.5761 496.8603,-308.3376"/>
<polygon fill="#000000" stroke="#000000" points="496.5655,-311.8359 507,-310 497.698,-304.9281 496.5655,-311.8359"/>
</g>
<!-- op_bits_1203 -->
<g id="node33" class="node">
<title>op_bits_1203</title>
<polygon fill="#d8bfd8" stroke="transparent" points="502,-196 502,-246 638,-246 638,-196 502,-196"/>
<polygon fill="none" stroke="#000000" points="502,-221 502,-246 568,-246 568,-221 502,-221"/>
<text text-anchor="start" x="528.5" y="-229.8" font-family="Times,serif" font-size="14.00" fill="#000000">●</text>
<polygon fill="none" stroke="#000000" points="568,-196 568,-246 615,-246 615,-196 568,-196"/>
<text text-anchor="start" x="573" y="-217.3" font-family="Times,serif" font-size="14.00" fill="#000000"> bits </text>
<polygon fill="none" stroke="#000000" points="615,-196 615,-246 638,-246 638,-196 615,-196"/>
<text text-anchor="start" x="620" y="-217.3" font-family="Times,serif" font-size="14.00" fill="#000000">●</text>
<polygon fill="none" stroke="#000000" points="502,-196 502,-221 568,-221 568,-196 502,-196"/>
<text text-anchor="start" x="507" y="-204.8" font-family="Times,serif" font-size="14.00" fill="#000000">(199, 0)</text>
</g>
<!-- cluster_Top_SPIInputHandler_io_packet_data&#45;&gt;op_bits_1203 -->
<g id="edge24" class="edge">
<title>cluster_Top_SPIInputHandler_io_packet_data&#45;&gt;op_bits_1203:in1</title>
<path fill="none" stroke="#000000" d="M451.1161,-227.9438C464.1682,-230.7107 478.123,-232.9136 491.7063,-233.6944"/>
<polygon fill="#000000" stroke="#000000" points="491.9005,-237.2016 502,-234 492.1083,-230.2047 491.9005,-237.2016"/>
</g>
<!-- op_bits_1206 -->
<g id="node37" class="node">
<title>op_bits_1206</title>
<polygon fill="#d8bfd8" stroke="transparent" points="511,-424 511,-474 629,-474 629,-424 511,-424"/>
<polygon fill="none" stroke="#000000" points="511,-449 511,-474 559,-474 559,-449 511,-449"/>
<text text-anchor="start" x="528.5" y="-457.8" font-family="Times,serif" font-size="14.00" fill="#000000">●</text>
<polygon fill="none" stroke="#000000" points="559,-424 559,-474 606,-474 606,-424 559,-424"/>
<text text-anchor="start" x="564" y="-445.3" font-family="Times,serif" font-size="14.00" fill="#000000"> bits </text>
<polygon fill="none" stroke="#000000" points="606,-424 606,-474 629,-474 629,-424 606,-424"/>
<text text-anchor="start" x="611" y="-445.3" font-family="Times,serif" font-size="14.00" fill="#000000">●</text>
<polygon fill="none" stroke="#000000" points="511,-424 511,-449 559,-449 559,-424 511,-424"/>
<text text-anchor="start" x="516" y="-432.8" font-family="Times,serif" font-size="14.00" fill="#000000">(7, 0)</text>
</g>
<!-- cluster_Top_SPIInputHandler_io_packet_data&#45;&gt;op_bits_1206 -->
<g id="edge18" class="edge">
<title>cluster_Top_SPIInputHandler_io_packet_data&#45;&gt;op_bits_1206:in1</title>
<path fill="none" stroke="#000000" d="M451.1985,-224.7069C456.783,-228.0085 461.8777,-232.0508 466,-237 528.909,-312.528 417.6091,-451.4921 500.8043,-461.4358"/>
<polygon fill="#000000" stroke="#000000" points="500.8219,-464.942 511,-462 501.2087,-457.9527 500.8219,-464.942"/>
</g>
<!-- op_bits_1208 -->
<g id="node39" class="node">
<title>op_bits_1208</title>
<polygon fill="#d8bfd8" stroke="transparent" points="511,-348 511,-398 629,-398 629,-348 511,-348"/>
<polygon fill="none" stroke="#000000" points="511,-373 511,-398 559,-398 559,-373 511,-373"/>
<text text-anchor="start" x="528.5" y="-381.8" font-family="Times,serif" font-size="14.00" fill="#000000">●</text>
<polygon fill="none" stroke="#000000" points="559,-348 559,-398 606,-398 606,-348 559,-348"/>
<text text-anchor="start" x="564" y="-369.3" font-family="Times,serif" font-size="14.00" fill="#000000"> bits </text>
<polygon fill="none" stroke="#000000" points="606,-348 606,-398 629,-398 629,-348 606,-348"/>
<text text-anchor="start" x="611" y="-369.3" font-family="Times,serif" font-size="14.00" fill="#000000">●</text>
<polygon fill="none" stroke="#000000" points="511,-348 511,-373 559,-373 559,-348 511,-348"/>
<text text-anchor="start" x="516" y="-356.8" font-family="Times,serif" font-size="14.00" fill="#000000">(7, 0)</text>
</g>
<!-- cluster_Top_SPIInputHandler_io_packet_data&#45;&gt;op_bits_1208 -->
<g id="edge2" class="edge">
<title>cluster_Top_SPIInputHandler_io_packet_data&#45;&gt;op_bits_1208:in1</title>
<path fill="none" stroke="#000000" d="M451.3604,-225.6403C456.7704,-228.7631 461.783,-232.5083 466,-237 510.7595,-284.6747 449.2911,-375.3632 500.8707,-385.1396"/>
<polygon fill="#000000" stroke="#000000" points="500.7396,-388.641 511,-386 501.3321,-381.6661 500.7396,-388.641"/>
</g>
<!-- cluster_Top_PWM_io_target -->
<g id="node30" class="node">
<title>cluster_Top_PWM_io_target</title>
<polygon fill="#cccccc" stroke="#000000" points="2198,-440 2118,-440 2118,-404 2198,-404 2198,-440"/>
<text text-anchor="middle" x="2158" y="-418.3" font-family="Times,serif" font-size="14.00" fill="#000000">io_target</text>
</g>
<!-- cluster_Top_PWM_io_high -->
<g id="node31" class="node">
<title>cluster_Top_PWM_io_high</title>
<polygon fill="#e0ffff" stroke="#000000" points="2192,-386 2124,-386 2124,-350 2192,-350 2192,-386"/>
<text text-anchor="middle" x="2158" y="-364.3" font-family="Times,serif" font-size="14.00" fill="#000000">io_high</text>
</g>
<!-- cluster_Top_PWM_io_high&#45;&gt;cluster_Top_io_pwm_out -->
<g id="edge19" class="edge">
<title>cluster_Top_PWM_io_high&#45;&gt;cluster_Top_io_pwm_out</title>
<path fill="none" stroke="#000000" d="M2192.2327,-368C2201.881,-368 2212.6794,-368 2223.3955,-368"/>
<polygon fill="#000000" stroke="#000000" points="2223.6044,-371.5001 2233.6044,-368 2223.6043,-364.5001 2223.6044,-371.5001"/>
</g>
<!-- op_bits_1202&#45;&gt;cluster_Top_SoundTopLevel_io_genPacketIn_generatorUpdatePacket -->
<g id="edge12" class="edge">
<title>op_bits_1202:out&#45;&gt;cluster_Top_SoundTopLevel_io_genPacketIn_generatorUpdatePacket</title>
<path fill="none" stroke="#000000" d="M634,-297C797.2427,-297 984.2988,-318.0646 1105.8884,-334.5831"/>
<polygon fill="#000000" stroke="#000000" points="1105.6035,-338.0766 1115.9857,-335.9648 1106.5526,-331.1413 1105.6035,-338.0766"/>
</g>
<!-- op_bits_1203&#45;&gt;cluster_Top_SoundTopLevel_io_gloPacketIn_globalUpdatePacket -->
<g id="edge27" class="edge">
<title>op_bits_1203:out&#45;&gt;cluster_Top_SoundTopLevel_io_gloPacketIn_globalUpdatePacket</title>
<path fill="none" stroke="#000000" d="M638,-221C728.3945,-221 968.9436,-256.9861 1115.7855,-280.3826"/>
<polygon fill="#000000" stroke="#000000" points="1115.3292,-283.854 1125.7561,-281.9748 1116.4331,-276.9416 1115.3292,-283.854"/>
</g>
<!-- op_and_1204&#45;&gt;cluster_Top_SoundTopLevel_io_gloWriteEnable -->
<g id="edge4" class="edge">
<title>op_and_1204:out&#45;&gt;cluster_Top_SoundTopLevel_io_gloWriteEnable</title>
<path fill="none" stroke="#000000" d="M1041,-458C1059.9867,-458 1059.2888,-441.8415 1077,-435 1100.4576,-425.9387 1127.0338,-419.9112 1151.6287,-415.9045"/>
<polygon fill="#000000" stroke="#000000" points="1152.3165,-419.34 1161.6684,-414.3608 1151.2526,-412.4213 1152.3165,-419.34"/>
</g>
<!-- mux_1189120291 -->
<g id="node35" class="node">
<title>mux_1189120291</title>
<polygon fill="#afeeee" stroke="transparent" points="825,-420 825,-470 897,-470 897,-420 825,-420"/>
<polygon fill="none" stroke="#000000" points="825,-445 825,-470 848,-470 848,-445 825,-445"/>
<text text-anchor="start" x="831.5" y="-453.8" font-family="Times,serif" font-size="14.00" fill="#000000">0</text>
<polygon fill="none" stroke="#000000" points="848,-420 848,-470 874,-470 874,-420 848,-420"/>
<text text-anchor="start" x="853" y="-441.3" font-family="Times,serif" font-size="14.00" fill="#000000">a?</text>
<polygon fill="none" stroke="#000000" points="874,-420 874,-470 897,-470 897,-420 874,-420"/>
<text text-anchor="start" x="879" y="-441.3" font-family="Times,serif" font-size="14.00" fill="#000000">●</text>
<polygon fill="none" stroke="#000000" points="825,-420 825,-445 848,-445 848,-420 825,-420"/>
<text text-anchor="start" x="830" y="-428.8" font-family="Times,serif" font-size="14.00" fill="#000000">●</text>
</g>
<!-- mux_1189120291&#45;&gt;op_and_1204 -->
<g id="edge13" class="edge">
<title>mux_1189120291:out&#45;&gt;op_and_1204:in2</title>
<path fill="none" stroke="#000000" d="M897,-445C916.3194,-445 923.5265,-445 938.8716,-445"/>
<polygon fill="#000000" stroke="#000000" points="939,-448.5001 949,-445 939,-441.5001 939,-448.5001"/>
</g>
<!-- op_eq_1205 -->
<g id="node36" class="node">
<title>op_eq_1205</title>
<polygon fill="#d8bfd8" stroke="transparent" points="690,-431 690,-481 773,-481 773,-431 690,-431"/>
<polygon fill="none" stroke="#000000" points="690.5,-456 690.5,-481 713.5,-481 713.5,-456 690.5,-456"/>
<text text-anchor="start" x="697" y="-464.8" font-family="Times,serif" font-size="14.00" fill="#000000">0</text>
<polygon fill="none" stroke="#000000" points="713.5,-431 713.5,-481 750.5,-481 750.5,-431 713.5,-431"/>
<text text-anchor="start" x="718.5" y="-452.3" font-family="Times,serif" font-size="14.00" fill="#000000"> eq </text>
<polygon fill="none" stroke="#000000" points="750.5,-431 750.5,-481 773.5,-481 773.5,-431 750.5,-431"/>
<text text-anchor="start" x="755.5" y="-452.3" font-family="Times,serif" font-size="14.00" fill="#000000">●</text>
<polygon fill="none" stroke="#000000" points="690.5,-431 690.5,-456 713.5,-456 713.5,-431 690.5,-431"/>
<text text-anchor="start" x="695.5" y="-439.8" font-family="Times,serif" font-size="14.00" fill="#000000">●</text>
</g>
<!-- op_eq_1205&#45;&gt;mux_1189120291 -->
<g id="edge33" class="edge">
<title>op_eq_1205:out&#45;&gt;mux_1189120291:select</title>
<path fill="none" stroke="#000000" d="M773.5,-456C808.2683,-456 849.8426,-497.6049 859.1092,-480.2591"/>
<polygon fill="#000000" stroke="#000000" points="862.6294,-480.4688 861,-470 855.7453,-479.1999 862.6294,-480.4688"/>
</g>
<!-- op_bits_1206&#45;&gt;op_eq_1205 -->
<g id="edge22" class="edge">
<title>op_bits_1206:out&#45;&gt;op_eq_1205:in2</title>
<path fill="none" stroke="#000000" d="M629,-449C652.7084,-449 660.8489,-444.5285 680.3005,-443.3058"/>
<polygon fill="#000000" stroke="#000000" points="680.6094,-446.7982 690.5,-443 680.3996,-439.8013 680.6094,-446.7982"/>
</g>
<!-- op_eq_1207 -->
<g id="node38" class="node">
<title>op_eq_1207</title>
<polygon fill="#d8bfd8" stroke="transparent" points="690,-355 690,-405 773,-405 773,-355 690,-355"/>
<polygon fill="none" stroke="#000000" points="690.5,-380 690.5,-405 713.5,-405 713.5,-380 690.5,-380"/>
<text text-anchor="start" x="697" y="-388.8" font-family="Times,serif" font-size="14.00" fill="#000000">1</text>
<polygon fill="none" stroke="#000000" points="713.5,-355 713.5,-405 750.5,-405 750.5,-355 713.5,-355"/>
<text text-anchor="start" x="718.5" y="-376.3" font-family="Times,serif" font-size="14.00" fill="#000000"> eq </text>
<polygon fill="none" stroke="#000000" points="750.5,-355 750.5,-405 773.5,-405 773.5,-355 750.5,-355"/>
<text text-anchor="start" x="755.5" y="-376.3" font-family="Times,serif" font-size="14.00" fill="#000000">●</text>
<polygon fill="none" stroke="#000000" points="690.5,-355 690.5,-380 713.5,-380 713.5,-355 690.5,-355"/>
<text text-anchor="start" x="695.5" y="-363.8" font-family="Times,serif" font-size="14.00" fill="#000000">●</text>
</g>
<!-- op_eq_1207&#45;&gt;mux_1189120291 -->
<g id="edge8" class="edge">
<title>op_eq_1207:out&#45;&gt;mux_1189120291:in2</title>
<path fill="none" stroke="#000000" d="M762.5,-405C762.5,-410.9986 797.0433,-424.4614 815.1182,-429.7787"/>
<polygon fill="#000000" stroke="#000000" points="814.4758,-433.2216 825,-432 816.0111,-426.392 814.4758,-433.2216"/>
</g>
<!-- op_bits_1208&#45;&gt;op_eq_1207 -->
<g id="edge5" class="edge">
<title>op_bits_1208:out&#45;&gt;op_eq_1207:in2</title>
<path fill="none" stroke="#000000" d="M629,-373C652.7084,-373 660.8489,-368.5285 680.3005,-367.3058"/>
<polygon fill="#000000" stroke="#000000" points="680.6094,-370.7982 690.5,-367 680.3996,-363.8013 680.6094,-370.7982"/>
</g>
<!-- op_asUInt_1209 -->
<g id="node40" class="node">
<title>op_asUInt_1209</title>
<polygon fill="#d8bfd8" stroke="transparent" points="1960,-301.5 1960,-326.5 2074,-326.5 2074,-301.5 1960,-301.5"/>
<polygon fill="none" stroke="#000000" points="1960,-301 1960,-326 1983,-326 1983,-301 1960,-301"/>
<text text-anchor="start" x="1965" y="-309.8" font-family="Times,serif" font-size="14.00" fill="#000000">●</text>
<polygon fill="none" stroke="#000000" points="1983,-301 1983,-326 2051,-326 2051,-301 1983,-301"/>
<text text-anchor="start" x="1988" y="-309.8" font-family="Times,serif" font-size="14.00" fill="#000000"> asUInt </text>
<polygon fill="none" stroke="#000000" points="2051,-301 2051,-326 2074,-326 2074,-301 2051,-301"/>
<text text-anchor="start" x="2056" y="-309.8" font-family="Times,serif" font-size="14.00" fill="#000000">●</text>
</g>
<!-- op_asUInt_1209&#45;&gt;cluster_Top_PWM_io_target -->
<g id="edge11" class="edge">
<title>op_asUInt_1209:out&#45;&gt;cluster_Top_PWM_io_target</title>
<path fill="none" stroke="#000000" d="M2063,-326C2063,-357.1475 2088.5792,-381.8188 2113.1917,-398.3482"/>
<polygon fill="#000000" stroke="#000000" points="2111.5014,-401.4215 2121.8136,-403.8525 2115.2682,-395.5213 2111.5014,-401.4215"/>
</g>
<!-- op_asSInt_1210 -->
<g id="node41" class="node">
<title>op_asSInt_1210</title>
<polygon fill="#d8bfd8" stroke="transparent" points="1797,-247.5 1797,-272.5 1908,-272.5 1908,-247.5 1797,-247.5"/>
<polygon fill="none" stroke="#000000" points="1797.5,-247 1797.5,-272 1820.5,-272 1820.5,-247 1797.5,-247"/>
<text text-anchor="start" x="1802.5" y="-255.8" font-family="Times,serif" font-size="14.00" fill="#000000">●</text>
<polygon fill="none" stroke="#000000" points="1820.5,-247 1820.5,-272 1885.5,-272 1885.5,-247 1820.5,-247"/>
<text text-anchor="start" x="1825.5" y="-255.8" font-family="Times,serif" font-size="14.00" fill="#000000"> asSInt </text>
<polygon fill="none" stroke="#000000" points="1885.5,-247 1885.5,-272 1908.5,-272 1908.5,-247 1885.5,-247"/>
<text text-anchor="start" x="1890.5" y="-255.8" font-family="Times,serif" font-size="14.00" fill="#000000">●</text>
</g>
<!-- op_asSInt_1210&#45;&gt;op_asUInt_1209 -->
<g id="edge28" class="edge">
<title>op_asSInt_1210:out&#45;&gt;op_asUInt_1209:in1</title>
<path fill="none" stroke="#000000" d="M1908.5,-259C1937.7783,-259 1929.6518,-301.0853 1950.1633,-310.9491"/>
<polygon fill="#000000" stroke="#000000" points="1949.4961,-314.3852 1960,-313 1950.9249,-307.5325 1949.4961,-314.3852"/>
</g>
<!-- op_tail_1211 -->
<g id="node42" class="node">
<title>op_tail_1211</title>
<polygon fill="#d8bfd8" stroke="transparent" points="1656,-211 1656,-261 1745,-261 1745,-211 1656,-211"/>
<polygon fill="none" stroke="#000000" points="1656.5,-236 1656.5,-261 1679.5,-261 1679.5,-236 1656.5,-236"/>
<text text-anchor="start" x="1661.5" y="-244.8" font-family="Times,serif" font-size="14.00" fill="#000000">●</text>
<polygon fill="none" stroke="#000000" points="1679.5,-211 1679.5,-261 1722.5,-261 1722.5,-211 1679.5,-211"/>
<text text-anchor="start" x="1684.5" y="-232.3" font-family="Times,serif" font-size="14.00" fill="#000000"> tail </text>
<polygon fill="none" stroke="#000000" points="1722.5,-211 1722.5,-261 1745.5,-261 1745.5,-211 1722.5,-211"/>
<text text-anchor="start" x="1727.5" y="-232.3" font-family="Times,serif" font-size="14.00" fill="#000000">●</text>
<polygon fill="none" stroke="#000000" points="1656.5,-211 1656.5,-236 1679.5,-236 1679.5,-211 1656.5,-211"/>
<text text-anchor="start" x="1663" y="-219.8" font-family="Times,serif" font-size="14.00" fill="#000000">1</text>
</g>
<!-- op_tail_1211&#45;&gt;op_asSInt_1210 -->
<g id="edge29" class="edge">
<title>op_tail_1211:out&#45;&gt;op_asSInt_1210:in1</title>
<path fill="none" stroke="#000000" d="M1745.5,-236C1766.8223,-236 1771.1921,-252.374 1787.2167,-257.4909"/>
<polygon fill="#000000" stroke="#000000" points="1787.0978,-261.0109 1797.5,-259 1788.1142,-254.085 1787.0978,-261.0109"/>
</g>
<!-- op_add_1212&#45;&gt;op_tail_1211 -->
<g id="edge7" class="edge">
<title>op_add_1212:out&#45;&gt;op_tail_1211:in1</title>
<path fill="none" stroke="#000000" d="M1604,-203C1631.145,-203 1627.2297,-238.2188 1646.6096,-247.0234"/>
<polygon fill="#000000" stroke="#000000" points="1646.008,-250.4723 1656.5,-249 1647.3798,-243.6081 1646.008,-250.4723"/>
</g>
</g>
</svg>
