<?xml version="1.0" encoding="UTF-8" standalone="no"?>
<?xml-stylesheet href="styles.css" type="text/css"?>
<!DOCTYPE svg PUBLIC "-//W3C//DTD SVG 1.1//EN"
 "http://www.w3.org/Graphics/SVG/1.1/DTD/svg11.dtd">
<!-- Generated by graphviz version 2.43.20190912.0211 (20190912.0211)
 -->
<!-- Title: TopModule_hierarchy Pages: 1 -->
<svg width="713pt" height="622pt"
 viewBox="0.00 0.00 713.00 622.00" xmlns="http://www.w3.org/2000/svg" xmlns:xlink="http://www.w3.org/1999/xlink">
<g id="graph0" class="graph" transform="scale(1 1) rotate(0) translate(4 618)">
<title>TopModule_hierarchy</title>
<polygon fill="white" stroke="transparent" points="-4,4 -4,-618 709,-618 709,4 -4,4"/>
<!-- module_1 -->
<g id="node1" class="node">
<title>module_1</title>
<g id="a_node1"><a xlink:href="TopModule.dot.svg" xlink:title="&lt;TABLE&gt;">
<polygon fill="#ffdead" stroke="transparent" points="8.5,-536 8.5,-561 107.5,-561 107.5,-536 8.5,-536"/>
<polygon fill="none" stroke="black" points="8.5,-536 8.5,-561 107.5,-561 107.5,-536 8.5,-536"/>
<text text-anchor="start" x="13.5" y="-544.8" font-family="Times,serif" font-size="14.00"> TopModule </text>
<polygon fill="#fff8dc" stroke="transparent" points="8.5,-511 8.5,-536 107.5,-536 107.5,-511 8.5,-511"/>
<polygon fill="none" stroke="black" points="8.5,-511 8.5,-536 107.5,-536 107.5,-511 8.5,-511"/>
<text text-anchor="start" x="44.5" y="-519.8" font-family="Times,serif" font-size="14.00">Top</text>
</a>
</g>
</g>
<!-- module_2 -->
<g id="node2" class="node">
<title>module_2</title>
<g id="a_node2"><a xlink:href="Top.dot.svg" xlink:title="&lt;TABLE&gt;">
<polygon fill="#ffdead" stroke="transparent" points="159.5,-560 159.5,-585 290.5,-585 290.5,-560 159.5,-560"/>
<polygon fill="none" stroke="black" points="159.5,-560 159.5,-585 290.5,-585 290.5,-560 159.5,-560"/>
<text text-anchor="start" x="207" y="-568.8" font-family="Times,serif" font-size="14.00"> Top </text>
<polygon fill="#fff8dc" stroke="transparent" points="159.5,-535 159.5,-560 290.5,-560 290.5,-535 159.5,-535"/>
<polygon fill="none" stroke="black" points="159.5,-535 159.5,-560 290.5,-560 290.5,-535 159.5,-535"/>
<text text-anchor="start" x="205.5" y="-543.8" font-family="Times,serif" font-size="14.00">PWM</text>
<polygon fill="#fff8dc" stroke="transparent" points="159.5,-510 159.5,-535 290.5,-535 290.5,-510 159.5,-510"/>
<polygon fill="none" stroke="black" points="159.5,-510 159.5,-535 290.5,-535 290.5,-510 159.5,-510"/>
<text text-anchor="start" x="164.5" y="-518.8" font-family="Times,serif" font-size="14.00">SPIInputHandler</text>
<polygon fill="#fff8dc" stroke="transparent" points="159.5,-485 159.5,-510 290.5,-510 290.5,-485 159.5,-485"/>
<polygon fill="none" stroke="black" points="159.5,-485 159.5,-510 290.5,-510 290.5,-485 159.5,-485"/>
<text text-anchor="start" x="193" y="-493.8" font-family="Times,serif" font-size="14.00">SPISlave</text>
<polygon fill="#fff8dc" stroke="transparent" points="159.5,-460 159.5,-485 290.5,-485 290.5,-460 159.5,-460"/>
<polygon fill="none" stroke="black" points="159.5,-460 159.5,-485 290.5,-485 290.5,-460 159.5,-460"/>
<text text-anchor="start" x="170" y="-468.8" font-family="Times,serif" font-size="14.00">SoundTopLevel</text>
</a>
</g>
</g>
<!-- module_1&#45;&gt;module_2 -->
<g id="edge15" class="edge">
<title>module_1:module_2&#45;&gt;module_2</title>
<path fill="none" stroke="black" d="M108.5,-523C118.86,-523 129.75,-523 140.53,-523"/>
<polygon fill="black" stroke="black" points="140.8,-526.5 150.8,-523 140.8,-519.5 140.8,-526.5"/>
</g>
<!-- module_3 -->
<g id="node3" class="node">
<title>module_3</title>
<g id="a_node3"><a xlink:href="SPIInputHandler.dot.svg" xlink:title="&lt;TABLE&gt;">
<polygon fill="#ffdead" stroke="transparent" points="342,-529 342,-554 482,-554 482,-529 342,-529"/>
<polygon fill="none" stroke="black" points="342,-529 342,-554 482,-554 482,-529 342,-529"/>
<text text-anchor="start" x="347" y="-537.8" font-family="Times,serif" font-size="14.00"> SPIInputHandler </text>
</a>
</g>
</g>
<!-- module_2&#45;&gt;module_3 -->
<g id="edge1" class="edge">
<title>module_2:module_3&#45;&gt;module_3</title>
<path fill="none" stroke="black" d="M291.5,-522C302.05,-522 313.05,-522.77 323.92,-524"/>
<polygon fill="black" stroke="black" points="323.49,-527.48 333.85,-525.26 324.37,-520.53 323.49,-527.48"/>
</g>
<!-- module_4 -->
<g id="node4" class="node">
<title>module_4</title>
<g id="a_node4"><a xlink:href="PWM.dot.svg" xlink:title="&lt;TABLE&gt;">
<polygon fill="#ffdead" stroke="transparent" points="383,-583 383,-608 441,-608 441,-583 383,-583"/>
<polygon fill="none" stroke="black" points="383,-583 383,-608 441,-608 441,-583 383,-583"/>
<text text-anchor="start" x="388" y="-591.8" font-family="Times,serif" font-size="14.00"> PWM </text>
</a>
</g>
</g>
<!-- module_2&#45;&gt;module_4 -->
<g id="edge2" class="edge">
<title>module_2:module_4&#45;&gt;module_4</title>
<path fill="none" stroke="black" d="M291.5,-548C312.57,-548 314.58,-560.83 334,-569 343.9,-573.16 354.68,-577.23 364.96,-580.88"/>
<polygon fill="black" stroke="black" points="364.02,-584.26 374.62,-584.26 366.33,-577.66 364.02,-584.26"/>
</g>
<!-- module_5 -->
<g id="node5" class="node">
<title>module_5</title>
<g id="a_node5"><a xlink:href="SPISlave.dot.svg" xlink:title="&lt;TABLE&gt;">
<polygon fill="#ffdead" stroke="transparent" points="371,-477 371,-502 454,-502 454,-477 371,-477"/>
<polygon fill="none" stroke="black" points="371,-477 371,-502 454,-502 454,-477 371,-477"/>
<text text-anchor="start" x="376" y="-485.8" font-family="Times,serif" font-size="14.00"> SPISlave </text>
<polygon fill="#fff8dc" stroke="transparent" points="371,-452 371,-477 454,-477 454,-452 371,-452"/>
<polygon fill="none" stroke="black" points="371,-452 371,-477 454,-477 454,-452 371,-452"/>
<text text-anchor="start" x="401.5" y="-460.8" font-family="Times,serif" font-size="14.00">spi</text>
</a>
</g>
</g>
<!-- module_2&#45;&gt;module_5 -->
<g id="edge4" class="edge">
<title>module_2:module_5&#45;&gt;module_5</title>
<path fill="none" stroke="black" d="M291.5,-497C311.56,-497 333.26,-494.22 352.6,-490.74"/>
<polygon fill="black" stroke="black" points="353.3,-494.17 362.47,-488.87 351.99,-487.29 353.3,-494.17"/>
</g>
<!-- module_7 -->
<g id="node7" class="node">
<title>module_7</title>
<g id="a_node7"><a xlink:href="SoundTopLevel.dot.svg" xlink:title="&lt;TABLE&gt;">
<polygon fill="#ffdead" stroke="transparent" points="348,-361 348,-386 477,-386 477,-361 348,-361"/>
<polygon fill="none" stroke="black" points="348,-361 348,-386 477,-386 477,-361 348,-361"/>
<text text-anchor="start" x="353" y="-369.8" font-family="Times,serif" font-size="14.00"> SoundTopLevel </text>
<polygon fill="#fff8dc" stroke="transparent" points="348,-336 348,-361 477,-361 477,-336 348,-336"/>
<polygon fill="none" stroke="black" points="348,-336 348,-361 477,-361 477,-336 348,-336"/>
<text text-anchor="start" x="391" y="-344.8" font-family="Times,serif" font-size="14.00">Adder</text>
<polygon fill="#fff8dc" stroke="transparent" points="348,-311 348,-336 477,-336 477,-311 348,-311"/>
<polygon fill="none" stroke="black" points="348,-311 348,-336 477,-336 477,-311 348,-311"/>
<text text-anchor="start" x="376" y="-319.8" font-family="Times,serif" font-size="14.00">Generator</text>
<polygon fill="#fff8dc" stroke="transparent" points="348,-286 348,-311 477,-311 477,-286 348,-286"/>
<polygon fill="none" stroke="black" points="348,-286 348,-311 477,-311 477,-286 348,-286"/>
<text text-anchor="start" x="368" y="-294.8" font-family="Times,serif" font-size="14.00">Generator_1</text>
<polygon fill="#fff8dc" stroke="transparent" points="348,-261 348,-286 477,-286 477,-261 348,-261"/>
<polygon fill="none" stroke="black" points="348,-261 348,-286 477,-286 477,-261 348,-261"/>
<text text-anchor="start" x="368" y="-269.8" font-family="Times,serif" font-size="14.00">Generator_2</text>
<polygon fill="#fff8dc" stroke="transparent" points="348,-236 348,-261 477,-261 477,-236 348,-236"/>
<polygon fill="none" stroke="black" points="348,-236 348,-261 477,-261 477,-236 348,-236"/>
<text text-anchor="start" x="368" y="-244.8" font-family="Times,serif" font-size="14.00">Generator_3</text>
<polygon fill="#fff8dc" stroke="transparent" points="348,-211 348,-236 477,-236 477,-211 348,-211"/>
<polygon fill="none" stroke="black" points="348,-211 348,-236 477,-236 477,-211 348,-211"/>
<text text-anchor="start" x="368" y="-219.8" font-family="Times,serif" font-size="14.00">Generator_4</text>
<polygon fill="#fff8dc" stroke="transparent" points="348,-186 348,-211 477,-211 477,-186 348,-186"/>
<polygon fill="none" stroke="black" points="348,-186 348,-211 477,-211 477,-186 348,-186"/>
<text text-anchor="start" x="368" y="-194.8" font-family="Times,serif" font-size="14.00">Generator_5</text>
<polygon fill="#fff8dc" stroke="transparent" points="348,-161 348,-186 477,-186 477,-161 348,-161"/>
<polygon fill="none" stroke="black" points="348,-161 348,-186 477,-186 477,-161 348,-161"/>
<text text-anchor="start" x="368" y="-169.8" font-family="Times,serif" font-size="14.00">Generator_6</text>
<polygon fill="#fff8dc" stroke="transparent" points="348,-136 348,-161 477,-161 477,-136 348,-136"/>
<polygon fill="none" stroke="black" points="348,-136 348,-161 477,-161 477,-136 348,-136"/>
<text text-anchor="start" x="368" y="-144.8" font-family="Times,serif" font-size="14.00">Generator_7</text>
</a>
</g>
</g>
<!-- module_2&#45;&gt;module_7 -->
<g id="edge14" class="edge">
<title>module_2:module_7&#45;&gt;module_7</title>
<path fill="none" stroke="black" d="M291.5,-472C312.78,-472 335.89,-439.09 356.07,-399.26"/>
<polygon fill="black" stroke="black" points="359.29,-400.63 360.59,-390.12 353.02,-397.53 359.29,-400.63"/>
</g>
<!-- module_6 -->
<g id="node6" class="node">
<title>module_6</title>
<g id="a_node6"><a xlink:href="SPI_Slave_nandland.dot.svg" xlink:title="&lt;TABLE&gt;">
<polygon fill="#ffdead" stroke="transparent" points="534.5,-491 534.5,-516 697.5,-516 697.5,-491 534.5,-491"/>
<polygon fill="none" stroke="black" points="534.5,-491 534.5,-516 697.5,-516 697.5,-491 534.5,-491"/>
<text text-anchor="start" x="539.5" y="-499.8" font-family="Times,serif" font-size="14.00"> SPI_Slave_nandland </text>
</a>
</g>
</g>
<!-- module_5&#45;&gt;module_6 -->
<g id="edge3" class="edge">
<title>module_5:module_6&#45;&gt;module_6</title>
<path fill="none" stroke="black" d="M455,-464C472.81,-464 511.15,-473.5 545.77,-483.24"/>
<polygon fill="black" stroke="black" points="544.84,-486.62 555.42,-485.99 546.76,-479.89 544.84,-486.62"/>
</g>
<!-- module_8 -->
<g id="node8" class="node">
<title>module_8</title>
<g id="a_node8"><a xlink:href="Generator.dot.svg" xlink:title="&lt;TABLE&gt;">
<polygon fill="#ffdead" stroke="transparent" points="569.5,-383 569.5,-408 661.5,-408 661.5,-383 569.5,-383"/>
<polygon fill="none" stroke="black" points="569.5,-383 569.5,-408 661.5,-408 661.5,-383 569.5,-383"/>
<text text-anchor="start" x="574.5" y="-391.8" font-family="Times,serif" font-size="14.00"> Generator </text>
</a>
</g>
</g>
<!-- module_7&#45;&gt;module_8 -->
<g id="edge5" class="edge">
<title>module_7:module_8&#45;&gt;module_8</title>
<path fill="none" stroke="black" d="M478,-324C507.24,-324 500.69,-354.35 526,-369 533.96,-373.61 542.79,-377.51 551.71,-380.78"/>
<polygon fill="black" stroke="black" points="550.78,-384.16 561.37,-384.09 553.05,-377.54 550.78,-384.16"/>
</g>
<!-- module_9 -->
<g id="node9" class="node">
<title>module_9</title>
<g id="a_node9"><a xlink:href="Generator.dot.svg" xlink:title="&lt;TABLE&gt;">
<polygon fill="#ffdead" stroke="transparent" points="569.5,-59 569.5,-84 661.5,-84 661.5,-59 569.5,-59"/>
<polygon fill="none" stroke="black" points="569.5,-59 569.5,-84 661.5,-84 661.5,-59 569.5,-59"/>
<text text-anchor="start" x="574.5" y="-67.8" font-family="Times,serif" font-size="14.00"> Generator </text>
</a>
</g>
</g>
<!-- module_7&#45;&gt;module_9 -->
<g id="edge6" class="edge">
<title>module_7:module_9&#45;&gt;module_9</title>
<path fill="none" stroke="black" d="M478,-173C517.2,-173 494.69,-122.59 526,-99 533.62,-93.26 542.46,-88.73 551.55,-85.16"/>
<polygon fill="black" stroke="black" points="552.83,-88.42 561.08,-81.77 550.48,-81.82 552.83,-88.42"/>
</g>
<!-- module_10 -->
<g id="node10" class="node">
<title>module_10</title>
<g id="a_node10"><a xlink:href="Generator.dot.svg" xlink:title="&lt;TABLE&gt;">
<polygon fill="#ffdead" stroke="transparent" points="569.5,-221 569.5,-246 661.5,-246 661.5,-221 569.5,-221"/>
<polygon fill="none" stroke="black" points="569.5,-221 569.5,-246 661.5,-246 661.5,-221 569.5,-221"/>
<text text-anchor="start" x="574.5" y="-229.8" font-family="Times,serif" font-size="14.00"> Generator </text>
</a>
</g>
</g>
<!-- module_7&#45;&gt;module_10 -->
<g id="edge7" class="edge">
<title>module_7:module_10&#45;&gt;module_10</title>
<path fill="none" stroke="black" d="M478,-248C502.07,-248 528.41,-245.82 551.47,-243.18"/>
<polygon fill="black" stroke="black" points="551.96,-246.64 561.47,-241.98 551.13,-239.69 551.96,-246.64"/>
</g>
<!-- module_11 -->
<g id="node11" class="node">
<title>module_11</title>
<g id="a_node11"><a xlink:href="Adder.dot.svg" xlink:title="&lt;TABLE&gt;">
<polygon fill="#ffdead" stroke="transparent" points="584.5,-437 584.5,-462 646.5,-462 646.5,-437 584.5,-437"/>
<polygon fill="none" stroke="black" points="584.5,-437 584.5,-462 646.5,-462 646.5,-437 584.5,-437"/>
<text text-anchor="start" x="589.5" y="-445.8" font-family="Times,serif" font-size="14.00"> Adder </text>
</a>
</g>
</g>
<!-- module_7&#45;&gt;module_11 -->
<g id="edge8" class="edge">
<title>module_7:module_11&#45;&gt;module_11</title>
<path fill="none" stroke="black" d="M478,-349C517.2,-349 494.69,-399.41 526,-423 537.67,-431.79 552.21,-437.74 566.12,-441.76"/>
<polygon fill="black" stroke="black" points="565.52,-445.22 576.08,-444.36 567.29,-438.45 565.52,-445.22"/>
</g>
<!-- module_12 -->
<g id="node12" class="node">
<title>module_12</title>
<g id="a_node12"><a xlink:href="Generator.dot.svg" xlink:title="&lt;TABLE&gt;">
<polygon fill="#ffdead" stroke="transparent" points="569.5,-113 569.5,-138 661.5,-138 661.5,-113 569.5,-113"/>
<polygon fill="none" stroke="black" points="569.5,-113 569.5,-138 661.5,-138 661.5,-113 569.5,-113"/>
<text text-anchor="start" x="574.5" y="-121.8" font-family="Times,serif" font-size="14.00"> Generator </text>
</a>
</g>
</g>
<!-- module_7&#45;&gt;module_12 -->
<g id="edge9" class="edge">
<title>module_7:module_12&#45;&gt;module_12</title>
<path fill="none" stroke="black" d="M478,-198C507.24,-198 500.69,-167.65 526,-153 533.96,-148.39 542.79,-144.49 551.71,-141.22"/>
<polygon fill="black" stroke="black" points="553.05,-144.46 561.37,-137.91 550.78,-137.84 553.05,-144.46"/>
</g>
<!-- module_13 -->
<g id="node13" class="node">
<title>module_13</title>
<g id="a_node13"><a xlink:href="Generator.dot.svg" xlink:title="&lt;TABLE&gt;">
<polygon fill="#ffdead" stroke="transparent" points="569.5,-275 569.5,-300 661.5,-300 661.5,-275 569.5,-275"/>
<polygon fill="none" stroke="black" points="569.5,-275 569.5,-300 661.5,-300 661.5,-275 569.5,-275"/>
<text text-anchor="start" x="574.5" y="-283.8" font-family="Times,serif" font-size="14.00"> Generator </text>
</a>
</g>
</g>
<!-- module_7&#45;&gt;module_13 -->
<g id="edge10" class="edge">
<title>module_7:module_13&#45;&gt;module_13</title>
<path fill="none" stroke="black" d="M478,-274C502.07,-274 528.41,-276.18 551.47,-278.82"/>
<polygon fill="black" stroke="black" points="551.13,-282.31 561.47,-280.02 551.96,-275.36 551.13,-282.31"/>
</g>
<!-- module_14 -->
<g id="node14" class="node">
<title>module_14</title>
<g id="a_node14"><a xlink:href="Generator.dot.svg" xlink:title="&lt;TABLE&gt;">
<polygon fill="#ffdead" stroke="transparent" points="569.5,-329 569.5,-354 661.5,-354 661.5,-329 569.5,-329"/>
<polygon fill="none" stroke="black" points="569.5,-329 569.5,-354 661.5,-354 661.5,-329 569.5,-329"/>
<text text-anchor="start" x="574.5" y="-337.8" font-family="Times,serif" font-size="14.00"> Generator </text>
</a>
</g>
</g>
<!-- module_7&#45;&gt;module_14 -->
<g id="edge11" class="edge">
<title>module_7:module_14&#45;&gt;module_14</title>
<path fill="none" stroke="black" d="M478,-299C500.49,-299 504.58,-308.16 526,-315 534.23,-317.63 542.9,-320.34 551.48,-322.99"/>
<polygon fill="black" stroke="black" points="550.49,-326.35 561.08,-325.94 552.55,-319.66 550.49,-326.35"/>
</g>
<!-- module_15 -->
<g id="node15" class="node">
<title>module_15</title>
<g id="a_node15"><a xlink:href="Generator.dot.svg" xlink:title="&lt;TABLE&gt;">
<polygon fill="#ffdead" stroke="transparent" points="569.5,-5 569.5,-30 661.5,-30 661.5,-5 569.5,-5"/>
<polygon fill="none" stroke="black" points="569.5,-5 569.5,-30 661.5,-30 661.5,-5 569.5,-5"/>
<text text-anchor="start" x="574.5" y="-13.8" font-family="Times,serif" font-size="14.00"> Generator </text>
</a>
</g>
</g>
<!-- module_7&#45;&gt;module_15 -->
<g id="edge12" class="edge">
<title>module_7:module_15&#45;&gt;module_15</title>
<path fill="none" stroke="black" d="M478,-148C528.5,-148 487.88,-78.13 526,-45 533.46,-38.52 542.44,-33.6 551.78,-29.85"/>
<polygon fill="black" stroke="black" points="552.96,-33.15 561.2,-26.49 550.61,-26.56 552.96,-33.15"/>
</g>
<!-- module_16 -->
<g id="node16" class="node">
<title>module_16</title>
<g id="a_node16"><a xlink:href="Generator.dot.svg" xlink:title="&lt;TABLE&gt;">
<polygon fill="#ffdead" stroke="transparent" points="569.5,-167 569.5,-192 661.5,-192 661.5,-167 569.5,-167"/>
<polygon fill="none" stroke="black" points="569.5,-167 569.5,-192 661.5,-192 661.5,-167 569.5,-167"/>
<text text-anchor="start" x="574.5" y="-175.8" font-family="Times,serif" font-size="14.00"> Generator </text>
</a>
</g>
</g>
<!-- module_7&#45;&gt;module_16 -->
<g id="edge13" class="edge">
<title>module_7:module_16&#45;&gt;module_16</title>
<path fill="none" stroke="black" d="M478,-223C500.49,-223 504.58,-213.84 526,-207 534.23,-204.37 542.9,-201.66 551.48,-199.01"/>
<polygon fill="black" stroke="black" points="552.55,-202.34 561.08,-196.06 550.49,-195.65 552.55,-202.34"/>
</g>
</g>
</svg>
