<?xml version="1.0" encoding="UTF-8" standalone="no"?>
<?xml-stylesheet href="styles.css" type="text/css"?>
<!DOCTYPE svg PUBLIC "-//W3C//DTD SVG 1.1//EN"
 "http://www.w3.org/Graphics/SVG/1.1/DTD/svg11.dtd">
<!-- Generated by graphviz version 2.40.1 (20161225.0304)
 -->
<!-- Title: TopModule_hierarchy Pages: 1 -->
<svg width="606pt" height="622pt"
 viewBox="0.00 0.00 606.00 622.00" xmlns="http://www.w3.org/2000/svg" xmlns:xlink="http://www.w3.org/1999/xlink">
<g id="graph0" class="graph" transform="scale(1 1) rotate(0) translate(4 618)">
<title>TopModule_hierarchy</title>
<polygon fill="#ffffff" stroke="transparent" points="-4,4 -4,-618 602,-618 602,4 -4,4"/>
<!-- module_1 -->
<g id="node1" class="node">
<title>module_1</title>
<g id="a_node1"><a xlink:href="TopModule.dot.svg" xlink:title="&lt;TABLE&gt;">
<polygon fill="#ffdead" stroke="transparent" points="8.5,-536 8.5,-561 91.5,-561 91.5,-536 8.5,-536"/>
<polygon fill="none" stroke="#000000" points="8.5,-536 8.5,-561 91.5,-561 91.5,-536 8.5,-536"/>
<text text-anchor="start" x="13.5" y="-544.8" font-family="Times,serif" font-size="14.00" fill="#000000"> TopModule </text>
<polygon fill="#fff8dc" stroke="transparent" points="8.5,-511 8.5,-536 91.5,-536 91.5,-511 8.5,-511"/>
<polygon fill="none" stroke="#000000" points="8.5,-511 8.5,-536 91.5,-536 91.5,-511 8.5,-511"/>
<text text-anchor="start" x="39" y="-519.8" font-family="Times,serif" font-size="14.00" fill="#000000">Top</text>
</a>
</g>
</g>
<!-- module_2 -->
<g id="node2" class="node">
<title>module_2</title>
<g id="a_node2"><a xlink:href="Top.dot.svg" xlink:title="&lt;TABLE&gt;">
<polygon fill="#ffdead" stroke="transparent" points="143,-560 143,-585 245,-585 245,-560 143,-560"/>
<polygon fill="none" stroke="#000000" points="143,-560 143,-585 245,-585 245,-560 143,-560"/>
<text text-anchor="start" x="179" y="-568.8" font-family="Times,serif" font-size="14.00" fill="#000000"> Top </text>
<polygon fill="#fff8dc" stroke="transparent" points="143,-535 143,-560 245,-560 245,-535 143,-535"/>
<polygon fill="none" stroke="#000000" points="143,-535 143,-560 245,-560 245,-535 143,-535"/>
<text text-anchor="start" x="177" y="-543.8" font-family="Times,serif" font-size="14.00" fill="#000000">PWM</text>
<polygon fill="#fff8dc" stroke="transparent" points="143,-510 143,-535 245,-535 245,-510 143,-510"/>
<polygon fill="none" stroke="#000000" points="143,-510 143,-535 245,-535 245,-510 143,-510"/>
<text text-anchor="start" x="148" y="-518.8" font-family="Times,serif" font-size="14.00" fill="#000000">SPIInputHandler</text>
<polygon fill="#fff8dc" stroke="transparent" points="143,-485 143,-510 245,-510 245,-485 143,-485"/>
<polygon fill="none" stroke="#000000" points="143,-485 143,-510 245,-510 245,-485 143,-485"/>
<text text-anchor="start" x="169" y="-493.8" font-family="Times,serif" font-size="14.00" fill="#000000">SPISlave</text>
<polygon fill="#fff8dc" stroke="transparent" points="143,-460 143,-485 245,-485 245,-460 143,-460"/>
<polygon fill="none" stroke="#000000" points="143,-460 143,-485 245,-485 245,-460 143,-460"/>
<text text-anchor="start" x="150" y="-468.8" font-family="Times,serif" font-size="14.00" fill="#000000">SoundTopLevel</text>
</a>
</g>
</g>
<!-- module_1&#45;&gt;module_2 -->
<g id="edge15" class="edge">
<title>module_1:module_2&#45;&gt;module_2</title>
<path fill="none" stroke="#000000" d="M91.5,-523C102.2633,-523 113.6623,-523 124.7958,-523"/>
<polygon fill="#000000" stroke="#000000" points="124.9201,-526.5001 134.92,-523 124.92,-519.5001 124.9201,-526.5001"/>
</g>
<!-- module_3 -->
<g id="node3" class="node">
<title>module_3</title>
<g id="a_node3"><a xlink:href="SPIInputHandler.dot.svg" xlink:title="&lt;TABLE&gt;">
<polygon fill="#ffdead" stroke="transparent" points="297,-529 297,-554 407,-554 407,-529 297,-529"/>
<polygon fill="none" stroke="#000000" points="297,-529 297,-554 407,-554 407,-529 297,-529"/>
<text text-anchor="start" x="302" y="-537.8" font-family="Times,serif" font-size="14.00" fill="#000000"> SPIInputHandler </text>
</a>
</g>
</g>
<!-- module_2&#45;&gt;module_3 -->
<g id="edge1" class="edge">
<title>module_2:module_3&#45;&gt;module_3</title>
<path fill="none" stroke="#000000" d="M245,-522C256.1085,-522 267.7571,-523.0545 279.1119,-524.6791"/>
<polygon fill="#000000" stroke="#000000" points="278.5699,-528.1368 288.9938,-526.2415 279.6631,-521.2227 278.5699,-528.1368"/>
</g>
<!-- module_4 -->
<g id="node4" class="node">
<title>module_4</title>
<g id="a_node4"><a xlink:href="PWM.dot.svg" xlink:title="&lt;TABLE&gt;">
<polygon fill="#ffdead" stroke="transparent" points="326,-583 326,-608 378,-608 378,-583 326,-583"/>
<polygon fill="none" stroke="#000000" points="326,-583 326,-608 378,-608 378,-583 326,-583"/>
<text text-anchor="start" x="331" y="-591.8" font-family="Times,serif" font-size="14.00" fill="#000000"> PWM </text>
</a>
</g>
</g>
<!-- module_2&#45;&gt;module_4 -->
<g id="edge2" class="edge">
<title>module_2:module_4&#45;&gt;module_4</title>
<path fill="none" stroke="#000000" d="M245,-548C266.6687,-548 269.2599,-560.0637 289,-569 295.2638,-571.8356 301.9095,-574.7667 308.4456,-577.6057"/>
<polygon fill="#000000" stroke="#000000" points="307.3176,-580.9308 317.8861,-581.6773 310.0899,-574.5031 307.3176,-580.9308"/>
</g>
<!-- module_5 -->
<g id="node5" class="node">
<title>module_5</title>
<g id="a_node5"><a xlink:href="SPISlave.dot.svg" xlink:title="&lt;TABLE&gt;">
<polygon fill="#ffdead" stroke="transparent" points="318,-477 318,-502 386,-502 386,-477 318,-477"/>
<polygon fill="none" stroke="#000000" points="318,-477 318,-502 386,-502 386,-477 318,-477"/>
<text text-anchor="start" x="323" y="-485.8" font-family="Times,serif" font-size="14.00" fill="#000000"> SPISlave </text>
<polygon fill="#fff8dc" stroke="transparent" points="318,-452 318,-477 386,-477 386,-452 318,-452"/>
<polygon fill="none" stroke="#000000" points="318,-452 318,-477 386,-477 386,-452 318,-452"/>
<text text-anchor="start" x="344" y="-460.8" font-family="Times,serif" font-size="14.00" fill="#000000">spi</text>
</a>
</g>
</g>
<!-- module_2&#45;&gt;module_5 -->
<g id="edge4" class="edge">
<title>module_2:module_5&#45;&gt;module_5</title>
<path fill="none" stroke="#000000" d="M245,-497C263.0883,-497 282.6083,-494.2042 299.9608,-490.7032"/>
<polygon fill="#000000" stroke="#000000" points="300.8539,-494.0914 309.9,-488.5762 299.389,-487.2464 300.8539,-494.0914"/>
</g>
<!-- module_7 -->
<g id="node7" class="node">
<title>module_7</title>
<g id="a_node7"><a xlink:href="SoundTopLevel.dot.svg" xlink:title="&lt;TABLE&gt;">
<polygon fill="#ffdead" stroke="transparent" points="300,-361 300,-386 405,-386 405,-361 300,-361"/>
<polygon fill="none" stroke="#000000" points="300,-361 300,-386 405,-386 405,-361 300,-361"/>
<text text-anchor="start" x="305" y="-369.8" font-family="Times,serif" font-size="14.00" fill="#000000"> SoundTopLevel </text>
<polygon fill="#fff8dc" stroke="transparent" points="300,-336 300,-361 405,-361 405,-336 300,-336"/>
<polygon fill="none" stroke="#000000" points="300,-336 300,-361 405,-361 405,-336 300,-336"/>
<text text-anchor="start" x="335.5" y="-344.8" font-family="Times,serif" font-size="14.00" fill="#000000">Adder</text>
<polygon fill="#fff8dc" stroke="transparent" points="300,-311 300,-336 405,-336 405,-311 300,-311"/>
<polygon fill="none" stroke="#000000" points="300,-311 300,-336 405,-336 405,-311 300,-311"/>
<text text-anchor="start" x="325" y="-319.8" font-family="Times,serif" font-size="14.00" fill="#000000">Generator</text>
<polygon fill="#fff8dc" stroke="transparent" points="300,-286 300,-311 405,-311 405,-286 300,-286"/>
<polygon fill="none" stroke="#000000" points="300,-286 300,-311 405,-311 405,-286 300,-286"/>
<text text-anchor="start" x="318.5" y="-294.8" font-family="Times,serif" font-size="14.00" fill="#000000">Generator_1</text>
<polygon fill="#fff8dc" stroke="transparent" points="300,-261 300,-286 405,-286 405,-261 300,-261"/>
<polygon fill="none" stroke="#000000" points="300,-261 300,-286 405,-286 405,-261 300,-261"/>
<text text-anchor="start" x="318.5" y="-269.8" font-family="Times,serif" font-size="14.00" fill="#000000">Generator_2</text>
<polygon fill="#fff8dc" stroke="transparent" points="300,-236 300,-261 405,-261 405,-236 300,-236"/>
<polygon fill="none" stroke="#000000" points="300,-236 300,-261 405,-261 405,-236 300,-236"/>
<text text-anchor="start" x="318.5" y="-244.8" font-family="Times,serif" font-size="14.00" fill="#000000">Generator_3</text>
<polygon fill="#fff8dc" stroke="transparent" points="300,-211 300,-236 405,-236 405,-211 300,-211"/>
<polygon fill="none" stroke="#000000" points="300,-211 300,-236 405,-236 405,-211 300,-211"/>
<text text-anchor="start" x="318.5" y="-219.8" font-family="Times,serif" font-size="14.00" fill="#000000">Generator_4</text>
<polygon fill="#fff8dc" stroke="transparent" points="300,-186 300,-211 405,-211 405,-186 300,-186"/>
<polygon fill="none" stroke="#000000" points="300,-186 300,-211 405,-211 405,-186 300,-186"/>
<text text-anchor="start" x="318.5" y="-194.8" font-family="Times,serif" font-size="14.00" fill="#000000">Generator_5</text>
<polygon fill="#fff8dc" stroke="transparent" points="300,-161 300,-186 405,-186 405,-161 300,-161"/>
<polygon fill="none" stroke="#000000" points="300,-161 300,-186 405,-186 405,-161 300,-161"/>
<text text-anchor="start" x="318.5" y="-169.8" font-family="Times,serif" font-size="14.00" fill="#000000">Generator_6</text>
<polygon fill="#fff8dc" stroke="transparent" points="300,-136 300,-161 405,-161 405,-136 300,-136"/>
<polygon fill="none" stroke="#000000" points="300,-136 300,-161 405,-161 405,-136 300,-136"/>
<text text-anchor="start" x="318.5" y="-144.8" font-family="Times,serif" font-size="14.00" fill="#000000">Generator_7</text>
</a>
</g>
</g>
<!-- module_2&#45;&gt;module_7 -->
<g id="edge14" class="edge">
<title>module_2:module_7&#45;&gt;module_7</title>
<path fill="none" stroke="#000000" d="M245,-472C265.7194,-472 286.7268,-439.2276 304.5769,-399.5144"/>
<polygon fill="#000000" stroke="#000000" points="307.8854,-400.6842 308.6891,-390.1199 301.4728,-397.8772 307.8854,-400.6842"/>
</g>
<!-- module_6 -->
<g id="node6" class="node">
<title>module_6</title>
<g id="a_node6"><a xlink:href="SPI_Slave_nandland.dot.svg" xlink:title="&lt;TABLE&gt;">
<polygon fill="#ffdead" stroke="transparent" points="459.5,-491 459.5,-516 590.5,-516 590.5,-491 459.5,-491"/>
<polygon fill="none" stroke="#000000" points="459.5,-491 459.5,-516 590.5,-516 590.5,-491 459.5,-491"/>
<text text-anchor="start" x="464.5" y="-499.8" font-family="Times,serif" font-size="14.00" fill="#000000"> SPI_Slave_nandland </text>
</a>
</g>
</g>
<!-- module_5&#45;&gt;module_6 -->
<g id="edge3" class="edge">
<title>module_5:module_6&#45;&gt;module_6</title>
<path fill="none" stroke="#000000" d="M386,-464C401.4134,-464 434.0562,-473.2595 463.7811,-482.8685"/>
<polygon fill="#000000" stroke="#000000" points="462.7112,-486.201 473.304,-485.9893 464.8912,-479.5491 462.7112,-486.201"/>
</g>
<!-- module_8 -->
<g id="node8" class="node">
<title>module_8</title>
<g id="a_node8"><a xlink:href="Generator.dot.svg" xlink:title="&lt;TABLE&gt;">
<polygon fill="#ffdead" stroke="transparent" points="488.5,-383 488.5,-408 560.5,-408 560.5,-383 488.5,-383"/>
<polygon fill="none" stroke="#000000" points="488.5,-383 488.5,-408 560.5,-408 560.5,-383 488.5,-383"/>
<text text-anchor="start" x="493.5" y="-391.8" font-family="Times,serif" font-size="14.00" fill="#000000"> Generator </text>
</a>
</g>
</g>
<!-- module_7&#45;&gt;module_8 -->
<g id="edge5" class="edge">
<title>module_7:module_8&#45;&gt;module_8</title>
<path fill="none" stroke="#000000" d="M405,-324C433.6003,-324 426.8174,-353.7298 451,-369 457.1638,-372.8922 463.9705,-376.3385 470.8801,-379.3549"/>
<polygon fill="#000000" stroke="#000000" points="469.7343,-382.6674 480.3155,-383.2033 472.3779,-376.1858 469.7343,-382.6674"/>
</g>
<!-- module_9 -->
<g id="node9" class="node">
<title>module_9</title>
<g id="a_node9"><a xlink:href="Generator.dot.svg" xlink:title="&lt;TABLE&gt;">
<polygon fill="#ffdead" stroke="transparent" points="488.5,-59 488.5,-84 560.5,-84 560.5,-59 488.5,-59"/>
<polygon fill="none" stroke="#000000" points="488.5,-59 488.5,-84 560.5,-84 560.5,-59 488.5,-59"/>
<text text-anchor="start" x="493.5" y="-67.8" font-family="Times,serif" font-size="14.00" fill="#000000"> Generator </text>
</a>
</g>
</g>
<!-- module_7&#45;&gt;module_9 -->
<g id="edge6" class="edge">
<title>module_7:module_9&#45;&gt;module_9</title>
<path fill="none" stroke="#000000" d="M405,-173C443.7254,-173 420.9696,-123.4506 451,-99 456.8705,-94.2203 463.6649,-90.2424 470.7035,-86.9437"/>
<polygon fill="#000000" stroke="#000000" points="472.5377,-89.9686 480.3892,-82.8549 469.8152,-83.5196 472.5377,-89.9686"/>
</g>
<!-- module_10 -->
<g id="node10" class="node">
<title>module_10</title>
<g id="a_node10"><a xlink:href="Generator.dot.svg" xlink:title="&lt;TABLE&gt;">
<polygon fill="#ffdead" stroke="transparent" points="488.5,-221 488.5,-246 560.5,-246 560.5,-221 488.5,-221"/>
<polygon fill="none" stroke="#000000" points="488.5,-221 488.5,-246 560.5,-246 560.5,-221 488.5,-221"/>
<text text-anchor="start" x="493.5" y="-229.8" font-family="Times,serif" font-size="14.00" fill="#000000"> Generator </text>
</a>
</g>
</g>
<!-- module_7&#45;&gt;module_10 -->
<g id="edge7" class="edge">
<title>module_7:module_10&#45;&gt;module_10</title>
<path fill="none" stroke="#000000" d="M405,-248C426.4433,-248 449.9048,-245.7488 470.3178,-243.0518"/>
<polygon fill="#000000" stroke="#000000" points="470.9548,-246.497 480.3787,-241.6554 469.9924,-239.5635 470.9548,-246.497"/>
</g>
<!-- module_11 -->
<g id="node11" class="node">
<title>module_11</title>
<g id="a_node11"><a xlink:href="Adder.dot.svg" xlink:title="&lt;TABLE&gt;">
<polygon fill="#ffdead" stroke="transparent" points="498.5,-437 498.5,-462 550.5,-462 550.5,-437 498.5,-437"/>
<polygon fill="none" stroke="#000000" points="498.5,-437 498.5,-462 550.5,-462 550.5,-437 498.5,-437"/>
<text text-anchor="start" x="503.5" y="-445.8" font-family="Times,serif" font-size="14.00" fill="#000000"> Adder </text>
</a>
</g>
</g>
<!-- module_7&#45;&gt;module_11 -->
<g id="edge8" class="edge">
<title>module_7:module_11&#45;&gt;module_11</title>
<path fill="none" stroke="#000000" d="M405,-349C443.7254,-349 420.9696,-398.5494 451,-423 459.6361,-430.0315 470.2717,-435.3276 480.7427,-439.279"/>
<polygon fill="#000000" stroke="#000000" points="479.656,-442.6064 490.2506,-442.541 481.9276,-435.9852 479.656,-442.6064"/>
</g>
<!-- module_12 -->
<g id="node12" class="node">
<title>module_12</title>
<g id="a_node12"><a xlink:href="Generator.dot.svg" xlink:title="&lt;TABLE&gt;">
<polygon fill="#ffdead" stroke="transparent" points="488.5,-113 488.5,-138 560.5,-138 560.5,-113 488.5,-113"/>
<polygon fill="none" stroke="#000000" points="488.5,-113 488.5,-138 560.5,-138 560.5,-113 488.5,-113"/>
<text text-anchor="start" x="493.5" y="-121.8" font-family="Times,serif" font-size="14.00" fill="#000000"> Generator </text>
</a>
</g>
</g>
<!-- module_7&#45;&gt;module_12 -->
<g id="edge9" class="edge">
<title>module_7:module_12&#45;&gt;module_12</title>
<path fill="none" stroke="#000000" d="M405,-198C433.6003,-198 426.8174,-168.2702 451,-153 457.1638,-149.1078 463.9705,-145.6615 470.8801,-142.6451"/>
<polygon fill="#000000" stroke="#000000" points="472.3779,-145.8142 480.3155,-138.7967 469.7343,-139.3326 472.3779,-145.8142"/>
</g>
<!-- module_13 -->
<g id="node13" class="node">
<title>module_13</title>
<g id="a_node13"><a xlink:href="Generator.dot.svg" xlink:title="&lt;TABLE&gt;">
<polygon fill="#ffdead" stroke="transparent" points="488.5,-275 488.5,-300 560.5,-300 560.5,-275 488.5,-275"/>
<polygon fill="none" stroke="#000000" points="488.5,-275 488.5,-300 560.5,-300 560.5,-275 488.5,-275"/>
<text text-anchor="start" x="493.5" y="-283.8" font-family="Times,serif" font-size="14.00" fill="#000000"> Generator </text>
</a>
</g>
</g>
<!-- module_7&#45;&gt;module_13 -->
<g id="edge10" class="edge">
<title>module_7:module_13&#45;&gt;module_13</title>
<path fill="none" stroke="#000000" d="M405,-274C426.4433,-274 449.9048,-276.2512 470.3178,-278.9482"/>
<polygon fill="#000000" stroke="#000000" points="469.9924,-282.4365 480.3787,-280.3446 470.9548,-275.503 469.9924,-282.4365"/>
</g>
<!-- module_14 -->
<g id="node14" class="node">
<title>module_14</title>
<g id="a_node14"><a xlink:href="Generator.dot.svg" xlink:title="&lt;TABLE&gt;">
<polygon fill="#ffdead" stroke="transparent" points="488.5,-329 488.5,-354 560.5,-354 560.5,-329 488.5,-329"/>
<polygon fill="none" stroke="#000000" points="488.5,-329 488.5,-354 560.5,-354 560.5,-329 488.5,-329"/>
<text text-anchor="start" x="493.5" y="-337.8" font-family="Times,serif" font-size="14.00" fill="#000000"> Generator </text>
</a>
</g>
</g>
<!-- module_7&#45;&gt;module_14 -->
<g id="edge11" class="edge">
<title>module_7:module_14&#45;&gt;module_14</title>
<path fill="none" stroke="#000000" d="M405,-299C406.8608,-299 440.0059,-310.9635 470.9148,-322.2698"/>
<polygon fill="#000000" stroke="#000000" points="469.8046,-325.5905 480.3983,-325.7435 472.2122,-319.0175 469.8046,-325.5905"/>
</g>
<!-- module_15 -->
<g id="node15" class="node">
<title>module_15</title>
<g id="a_node15"><a xlink:href="Generator.dot.svg" xlink:title="&lt;TABLE&gt;">
<polygon fill="#ffdead" stroke="transparent" points="488.5,-5 488.5,-30 560.5,-30 560.5,-5 488.5,-5"/>
<polygon fill="none" stroke="#000000" points="488.5,-5 488.5,-30 560.5,-30 560.5,-5 488.5,-5"/>
<text text-anchor="start" x="493.5" y="-13.8" font-family="Times,serif" font-size="14.00" fill="#000000"> Generator </text>
</a>
</g>
</g>
<!-- module_7&#45;&gt;module_15 -->
<g id="edge12" class="edge">
<title>module_7:module_15&#45;&gt;module_15</title>
<path fill="none" stroke="#000000" d="M405,-148C455.1356,-148 414.3645,-79.226 451,-45 456.7972,-39.5841 463.771,-35.2343 471.0836,-31.746"/>
<polygon fill="#000000" stroke="#000000" points="472.6213,-34.8958 480.4644,-27.7729 469.8912,-28.4501 472.6213,-34.8958"/>
</g>
<!-- module_16 -->
<g id="node16" class="node">
<title>module_16</title>
<g id="a_node16"><a xlink:href="Generator.dot.svg" xlink:title="&lt;TABLE&gt;">
<polygon fill="#ffdead" stroke="transparent" points="488.5,-167 488.5,-192 560.5,-192 560.5,-167 488.5,-167"/>
<polygon fill="none" stroke="#000000" points="488.5,-167 488.5,-192 560.5,-192 560.5,-167 488.5,-167"/>
<text text-anchor="start" x="493.5" y="-175.8" font-family="Times,serif" font-size="14.00" fill="#000000"> Generator </text>
</a>
</g>
</g>
<!-- module_7&#45;&gt;module_16 -->
<g id="edge13" class="edge">
<title>module_7:module_16&#45;&gt;module_16</title>
<path fill="none" stroke="#000000" d="M405,-223C406.8608,-223 440.0059,-211.0365 470.9148,-199.7302"/>
<polygon fill="#000000" stroke="#000000" points="472.2122,-202.9825 480.3983,-196.2565 469.8046,-196.4095 472.2122,-202.9825"/>
</g>
</g>
</svg>
