<?xml version="1.0" encoding="UTF-8" standalone="no"?>
<?xml-stylesheet href="styles.css" type="text/css"?>
<!DOCTYPE svg PUBLIC "-//W3C//DTD SVG 1.1//EN"
 "http://www.w3.org/Graphics/SVG/1.1/DTD/svg11.dtd">
<!-- Generated by graphviz version 2.43.20190912.0211 (20190912.0211)
 -->
<!-- Title: TopModule Pages: 1 -->
<svg width="535pt" height="661pt"
 viewBox="0.00 0.00 535.00 661.00" xmlns="http://www.w3.org/2000/svg" xmlns:xlink="http://www.w3.org/1999/xlink">
<g id="graph0" class="graph" transform="scale(1 1) rotate(0) translate(4 657)">
<title>TopModule</title>
<polygon fill="white" stroke="transparent" points="-4,4 -4,-657 531,-657 531,4 -4,4"/>
<g id="clust1" class="cluster">
<title>cluster_TopModule</title>
<polygon fill="#fff8dc" stroke="black" points="8,-8 8,-645 519,-645 519,-8 8,-8"/>
<text text-anchor="middle" x="263.5" y="-629.8" font-family="Times,serif" font-size="14.00">TopModule</text>
</g>
<g id="clust2" class="cluster">
<title>cluster_TopModule_Top</title>
<g id="a_clust2"><a xlink:href="Top.dot.svg" xlink:title="Top">
<polygon fill="#add8e6" stroke="black" points="239,-107 239,-614 369,-614 369,-107 239,-107"/>
<text text-anchor="middle" x="304" y="-598.8" font-family="Times,serif" font-size="14.00">Top</text>
</a>
</g>
</g>
<!-- cluster_TopModule_clock -->
<g id="node1" class="node">
<title>cluster_TopModule_clock</title>
<polygon fill="#cccccc" stroke="black" points="188.5,-614 134.5,-614 134.5,-578 188.5,-578 188.5,-614"/>
<text text-anchor="middle" x="161.5" y="-592.3" font-family="Times,serif" font-size="14.00">clock</text>
</g>
<!-- cluster_TopModule_Top_clock -->
<g id="node16" class="node">
<title>cluster_TopModule_Top_clock</title>
<polygon fill="#cccccc" stroke="black" points="331,-583 277,-583 277,-547 331,-547 331,-583"/>
<text text-anchor="middle" x="304" y="-561.3" font-family="Times,serif" font-size="14.00">clock</text>
</g>
<!-- cluster_TopModule_clock&#45;&gt;cluster_TopModule_Top_clock -->
<g id="edge3" class="edge">
<title>cluster_TopModule_clock&#45;&gt;cluster_TopModule_Top_clock</title>
<path fill="none" stroke="black" d="M188.6,-590.24C210.54,-585.4 242.15,-578.43 266.58,-573.04"/>
<polygon fill="black" stroke="black" points="267.55,-576.41 276.57,-570.83 266.05,-569.57 267.55,-576.41"/>
</g>
<!-- cluster_TopModule_reset -->
<g id="node2" class="node">
<title>cluster_TopModule_reset</title>
<polygon fill="#cccccc" stroke="black" points="73,-562 19,-562 19,-526 73,-526 73,-562"/>
<text text-anchor="middle" x="46" y="-540.3" font-family="Times,serif" font-size="14.00">reset</text>
</g>
<!-- op_eq_6 -->
<g id="node30" class="node">
<title>op_eq_6</title>
<polygon fill="#d8bfd8" stroke="transparent" points="120,-506 120,-556 203,-556 203,-506 120,-506"/>
<polygon fill="none" stroke="black" points="120.5,-531 120.5,-556 143.5,-556 143.5,-531 120.5,-531"/>
<text text-anchor="start" x="125.5" y="-539.8" font-family="Times,serif" font-size="14.00">●</text>
<polygon fill="none" stroke="black" points="143.5,-506 143.5,-556 180.5,-556 180.5,-506 143.5,-506"/>
<text text-anchor="start" x="148.5" y="-527.3" font-family="Times,serif" font-size="14.00"> eq </text>
<polygon fill="none" stroke="black" points="180.5,-506 180.5,-556 203.5,-556 203.5,-506 180.5,-506"/>
<text text-anchor="start" x="185.5" y="-527.3" font-family="Times,serif" font-size="14.00">●</text>
<polygon fill="none" stroke="black" points="120.5,-506 120.5,-531 143.5,-531 143.5,-506 120.5,-506"/>
<text text-anchor="start" x="127" y="-514.8" font-family="Times,serif" font-size="14.00">0</text>
</g>
<!-- cluster_TopModule_reset&#45;&gt;op_eq_6 -->
<g id="edge14" class="edge">
<title>cluster_TopModule_reset&#45;&gt;op_eq_6:in1</title>
<path fill="none" stroke="black" d="M73.18,-544C83.94,-544 96.79,-544 109.21,-544"/>
<polygon fill="black" stroke="black" points="109.5,-547.5 119.5,-544 109.5,-540.5 109.5,-547.5"/>
</g>
<!-- cluster_TopModule_io_spi_mosi -->
<g id="node3" class="node">
<title>cluster_TopModule_io_spi_mosi</title>
<polygon fill="#cccccc" stroke="black" points="210.5,-484 112.5,-484 112.5,-448 210.5,-448 210.5,-484"/>
<text text-anchor="middle" x="161.5" y="-462.3" font-family="Times,serif" font-size="14.00">io_spi_mosi</text>
</g>
<!-- cluster_TopModule_Top_io_spi_mosi -->
<g id="node18" class="node">
<title>cluster_TopModule_Top_io_spi_mosi</title>
<polygon fill="#cccccc" stroke="black" points="353,-475 255,-475 255,-439 353,-439 353,-475"/>
<text text-anchor="middle" x="304" y="-453.3" font-family="Times,serif" font-size="14.00">io_spi_mosi</text>
</g>
<!-- cluster_TopModule_io_spi_mosi&#45;&gt;cluster_TopModule_Top_io_spi_mosi -->
<g id="edge1" class="edge">
<title>cluster_TopModule_io_spi_mosi&#45;&gt;cluster_TopModule_Top_io_spi_mosi</title>
<path fill="none" stroke="black" d="M210.85,-462.9C221.67,-462.21 233.26,-461.47 244.44,-460.75"/>
<polygon fill="black" stroke="black" points="244.8,-464.24 254.56,-460.1 244.36,-457.25 244.8,-464.24"/>
</g>
<!-- cluster_TopModule_io_spi_clk -->
<g id="node4" class="node">
<title>cluster_TopModule_io_spi_clk</title>
<polygon fill="#cccccc" stroke="black" points="203.5,-430 119.5,-430 119.5,-394 203.5,-394 203.5,-430"/>
<text text-anchor="middle" x="161.5" y="-408.3" font-family="Times,serif" font-size="14.00">io_spi_clk</text>
</g>
<!-- cluster_TopModule_Top_io_spi_clk -->
<g id="node19" class="node">
<title>cluster_TopModule_Top_io_spi_clk</title>
<polygon fill="#cccccc" stroke="black" points="346,-421 262,-421 262,-385 346,-385 346,-421"/>
<text text-anchor="middle" x="304" y="-399.3" font-family="Times,serif" font-size="14.00">io_spi_clk</text>
</g>
<!-- cluster_TopModule_io_spi_clk&#45;&gt;cluster_TopModule_Top_io_spi_clk -->
<g id="edge15" class="edge">
<title>cluster_TopModule_io_spi_clk&#45;&gt;cluster_TopModule_Top_io_spi_clk</title>
<path fill="none" stroke="black" d="M203.52,-409.37C218.53,-408.41 235.72,-407.31 251.53,-406.3"/>
<polygon fill="black" stroke="black" points="251.93,-409.78 261.69,-405.65 251.49,-402.79 251.93,-409.78"/>
</g>
<!-- cluster_TopModule_io_spi_cs_n -->
<g id="node5" class="node">
<title>cluster_TopModule_io_spi_cs_n</title>
<polygon fill="#cccccc" stroke="black" points="209,-376 114,-376 114,-340 209,-340 209,-376"/>
<text text-anchor="middle" x="161.5" y="-354.3" font-family="Times,serif" font-size="14.00">io_spi_cs_n</text>
</g>
<!-- cluster_TopModule_Top_io_spi_cs_n -->
<g id="node20" class="node">
<title>cluster_TopModule_Top_io_spi_cs_n</title>
<polygon fill="#cccccc" stroke="black" points="351.5,-367 256.5,-367 256.5,-331 351.5,-331 351.5,-367"/>
<text text-anchor="middle" x="304" y="-345.3" font-family="Times,serif" font-size="14.00">io_spi_cs_n</text>
</g>
<!-- cluster_TopModule_io_spi_cs_n&#45;&gt;cluster_TopModule_Top_io_spi_cs_n -->
<g id="edge5" class="edge">
<title>cluster_TopModule_io_spi_cs_n&#45;&gt;cluster_TopModule_Top_io_spi_cs_n</title>
<path fill="none" stroke="black" d="M209.28,-355C221.13,-354.24 233.99,-353.42 246.27,-352.63"/>
<polygon fill="black" stroke="black" points="246.66,-356.12 256.42,-351.98 246.22,-349.13 246.66,-356.12"/>
</g>
<!-- cluster_TopModule_io_sw -->
<g id="node6" class="node">
<title>cluster_TopModule_io_sw</title>
<polygon fill="#cccccc" stroke="black" points="189.5,-322 133.5,-322 133.5,-286 189.5,-286 189.5,-322"/>
<text text-anchor="middle" x="161.5" y="-300.3" font-family="Times,serif" font-size="14.00">io_sw</text>
</g>
<!-- cluster_TopModule_Top_io_sw -->
<g id="node21" class="node">
<title>cluster_TopModule_Top_io_sw</title>
<polygon fill="#cccccc" stroke="black" points="332,-313 276,-313 276,-277 332,-277 332,-313"/>
<text text-anchor="middle" x="304" y="-291.3" font-family="Times,serif" font-size="14.00">io_sw</text>
</g>
<!-- cluster_TopModule_io_sw&#45;&gt;cluster_TopModule_Top_io_sw -->
<g id="edge13" class="edge">
<title>cluster_TopModule_io_sw&#45;&gt;cluster_TopModule_Top_io_sw</title>
<path fill="none" stroke="black" d="M189.59,-302.26C211.26,-300.88 241.88,-298.92 265.84,-297.38"/>
<polygon fill="black" stroke="black" points="266.24,-300.86 275.99,-296.73 265.79,-293.88 266.24,-300.86"/>
</g>
<!-- cluster_TopModule_io_btn -->
<g id="node7" class="node">
<title>cluster_TopModule_io_btn</title>
<polygon fill="#cccccc" stroke="black" points="76,-415 16,-415 16,-379 76,-379 76,-415"/>
<text text-anchor="middle" x="46" y="-393.3" font-family="Times,serif" font-size="14.00">io_btn</text>
</g>
<!-- cluster_TopModule_io_spi_miso -->
<g id="node8" class="node">
<title>cluster_TopModule_io_spi_miso</title>
<polygon fill="#e0ffff" stroke="black" points="503,-151 405,-151 405,-115 503,-115 503,-151"/>
<text text-anchor="middle" x="454" y="-129.3" font-family="Times,serif" font-size="14.00">io_spi_miso</text>
</g>
<!-- cluster_TopModule_io_pwm_out_l -->
<g id="node9" class="node">
<title>cluster_TopModule_io_pwm_out_l</title>
<polygon fill="#e0ffff" stroke="black" points="510,-205 398,-205 398,-169 510,-169 510,-205"/>
<text text-anchor="middle" x="454" y="-183.3" font-family="Times,serif" font-size="14.00">io_pwm_out_l</text>
</g>
<!-- cluster_TopModule_io_pwm_out_r -->
<g id="node10" class="node">
<title>cluster_TopModule_io_pwm_out_r</title>
<polygon fill="#e0ffff" stroke="black" points="511,-259 397,-259 397,-223 511,-223 511,-259"/>
<text text-anchor="middle" x="454" y="-237.3" font-family="Times,serif" font-size="14.00">io_pwm_out_r</text>
</g>
<!-- cluster_TopModule_io_led -->
<g id="node11" class="node">
<title>cluster_TopModule_io_led</title>
<polygon fill="#e0ffff" stroke="black" points="190.5,-268 132.5,-268 132.5,-232 190.5,-232 190.5,-268"/>
<text text-anchor="middle" x="161.5" y="-246.3" font-family="Times,serif" font-size="14.00">io_led</text>
</g>
<!-- cluster_TopModule_io_rgbled_0 -->
<g id="node12" class="node">
<title>cluster_TopModule_io_rgbled_0</title>
<polygon fill="#e0ffff" stroke="black" points="210.5,-214 112.5,-214 112.5,-178 210.5,-178 210.5,-214"/>
<text text-anchor="middle" x="161.5" y="-192.3" font-family="Times,serif" font-size="14.00">io_rgbled_0</text>
</g>
<!-- cluster_TopModule_io_rgbled_1 -->
<g id="node13" class="node">
<title>cluster_TopModule_io_rgbled_1</title>
<polygon fill="#e0ffff" stroke="black" points="210.5,-160 112.5,-160 112.5,-124 210.5,-124 210.5,-160"/>
<text text-anchor="middle" x="161.5" y="-138.3" font-family="Times,serif" font-size="14.00">io_rgbled_1</text>
</g>
<!-- cluster_TopModule_io_rgbled_2 -->
<g id="node14" class="node">
<title>cluster_TopModule_io_rgbled_2</title>
<polygon fill="#e0ffff" stroke="black" points="210.5,-106 112.5,-106 112.5,-70 210.5,-70 210.5,-106"/>
<text text-anchor="middle" x="161.5" y="-84.3" font-family="Times,serif" font-size="14.00">io_rgbled_2</text>
</g>
<!-- cluster_TopModule_io_rgbled_3 -->
<g id="node15" class="node">
<title>cluster_TopModule_io_rgbled_3</title>
<polygon fill="#e0ffff" stroke="black" points="210.5,-52 112.5,-52 112.5,-16 210.5,-16 210.5,-52"/>
<text text-anchor="middle" x="161.5" y="-30.3" font-family="Times,serif" font-size="14.00">io_rgbled_3</text>
</g>
<!-- cluster_TopModule_Top_reset -->
<g id="node17" class="node">
<title>cluster_TopModule_Top_reset</title>
<polygon fill="#cccccc" stroke="black" points="331,-529 277,-529 277,-493 331,-493 331,-529"/>
<text text-anchor="middle" x="304" y="-507.3" font-family="Times,serif" font-size="14.00">reset</text>
</g>
<!-- cluster_TopModule_Top_io_spi_miso -->
<g id="node22" class="node">
<title>cluster_TopModule_Top_io_spi_miso</title>
<polygon fill="#e0ffff" stroke="black" points="353,-151 255,-151 255,-115 353,-115 353,-151"/>
<text text-anchor="middle" x="304" y="-129.3" font-family="Times,serif" font-size="14.00">io_spi_miso</text>
</g>
<!-- cluster_TopModule_Top_io_spi_miso&#45;&gt;cluster_TopModule_io_spi_miso -->
<g id="edge8" class="edge">
<title>cluster_TopModule_Top_io_spi_miso&#45;&gt;cluster_TopModule_io_spi_miso</title>
<path fill="none" stroke="black" d="M353.05,-133C366.3,-133 380.82,-133 394.59,-133"/>
<polygon fill="black" stroke="black" points="394.94,-136.5 404.94,-133 394.94,-129.5 394.94,-136.5"/>
</g>
<!-- cluster_TopModule_Top_io_pwm_out_l -->
<g id="node23" class="node">
<title>cluster_TopModule_Top_io_pwm_out_l</title>
<polygon fill="#e0ffff" stroke="black" points="360,-205 248,-205 248,-169 360,-169 360,-205"/>
<text text-anchor="middle" x="304" y="-183.3" font-family="Times,serif" font-size="14.00">io_pwm_out_l</text>
</g>
<!-- cluster_TopModule_Top_io_pwm_out_l&#45;&gt;cluster_TopModule_io_pwm_out_l -->
<g id="edge6" class="edge">
<title>cluster_TopModule_Top_io_pwm_out_l&#45;&gt;cluster_TopModule_io_pwm_out_l</title>
<path fill="none" stroke="black" d="M360.11,-187C369.07,-187 378.42,-187 387.59,-187"/>
<polygon fill="black" stroke="black" points="387.84,-190.5 397.84,-187 387.84,-183.5 387.84,-190.5"/>
</g>
<!-- cluster_TopModule_Top_io_pwm_out_r -->
<g id="node24" class="node">
<title>cluster_TopModule_Top_io_pwm_out_r</title>
<polygon fill="#e0ffff" stroke="black" points="361,-259 247,-259 247,-223 361,-223 361,-259"/>
<text text-anchor="middle" x="304" y="-237.3" font-family="Times,serif" font-size="14.00">io_pwm_out_r</text>
</g>
<!-- cluster_TopModule_Top_io_pwm_out_r&#45;&gt;cluster_TopModule_io_pwm_out_r -->
<g id="edge12" class="edge">
<title>cluster_TopModule_Top_io_pwm_out_r&#45;&gt;cluster_TopModule_io_pwm_out_r</title>
<path fill="none" stroke="black" d="M361.37,-241C369.62,-241 378.18,-241 386.6,-241"/>
<polygon fill="black" stroke="black" points="386.78,-244.5 396.78,-241 386.78,-237.5 386.78,-244.5"/>
</g>
<!-- cluster_TopModule_lit1 -->
<g id="node25" class="node">
<title>cluster_TopModule_lit1</title>
<ellipse fill="lightgrey" stroke="black" cx="46" cy="-250" rx="18" ry="18"/>
<text text-anchor="middle" x="46" y="-246.3" font-family="Times,serif" font-size="14.00">0</text>
</g>
<!-- cluster_TopModule_lit1&#45;&gt;cluster_TopModule_io_led -->
<g id="edge7" class="edge">
<title>cluster_TopModule_lit1&#45;&gt;cluster_TopModule_io_led</title>
<path fill="none" stroke="black" d="M64.24,-250C79.59,-250 102.59,-250 122.27,-250"/>
<polygon fill="black" stroke="black" points="122.48,-253.5 132.48,-250 122.48,-246.5 122.48,-253.5"/>
</g>
<!-- cluster_TopModule_lit2 -->
<g id="node26" class="node">
<title>cluster_TopModule_lit2</title>
<ellipse fill="lightgrey" stroke="black" cx="46" cy="-196" rx="18" ry="18"/>
<text text-anchor="middle" x="46" y="-192.3" font-family="Times,serif" font-size="14.00">0</text>
</g>
<!-- cluster_TopModule_lit2&#45;&gt;cluster_TopModule_io_rgbled_0 -->
<g id="edge10" class="edge">
<title>cluster_TopModule_lit2&#45;&gt;cluster_TopModule_io_rgbled_0</title>
<path fill="none" stroke="black" d="M64.24,-196C74.52,-196 88.23,-196 102.08,-196"/>
<polygon fill="black" stroke="black" points="102.14,-199.5 112.14,-196 102.14,-192.5 102.14,-199.5"/>
</g>
<!-- cluster_TopModule_lit3 -->
<g id="node27" class="node">
<title>cluster_TopModule_lit3</title>
<ellipse fill="lightgrey" stroke="black" cx="46" cy="-142" rx="18" ry="18"/>
<text text-anchor="middle" x="46" y="-138.3" font-family="Times,serif" font-size="14.00">0</text>
</g>
<!-- cluster_TopModule_lit3&#45;&gt;cluster_TopModule_io_rgbled_1 -->
<g id="edge4" class="edge">
<title>cluster_TopModule_lit3&#45;&gt;cluster_TopModule_io_rgbled_1</title>
<path fill="none" stroke="black" d="M64.24,-142C74.52,-142 88.23,-142 102.08,-142"/>
<polygon fill="black" stroke="black" points="102.14,-145.5 112.14,-142 102.14,-138.5 102.14,-145.5"/>
</g>
<!-- cluster_TopModule_lit4 -->
<g id="node28" class="node">
<title>cluster_TopModule_lit4</title>
<ellipse fill="lightgrey" stroke="black" cx="46" cy="-88" rx="18" ry="18"/>
<text text-anchor="middle" x="46" y="-84.3" font-family="Times,serif" font-size="14.00">0</text>
</g>
<!-- cluster_TopModule_lit4&#45;&gt;cluster_TopModule_io_rgbled_2 -->
<g id="edge2" class="edge">
<title>cluster_TopModule_lit4&#45;&gt;cluster_TopModule_io_rgbled_2</title>
<path fill="none" stroke="black" d="M64.24,-88C74.52,-88 88.23,-88 102.08,-88"/>
<polygon fill="black" stroke="black" points="102.14,-91.5 112.14,-88 102.14,-84.5 102.14,-91.5"/>
</g>
<!-- cluster_TopModule_lit5 -->
<g id="node29" class="node">
<title>cluster_TopModule_lit5</title>
<ellipse fill="lightgrey" stroke="black" cx="46" cy="-34" rx="18" ry="18"/>
<text text-anchor="middle" x="46" y="-30.3" font-family="Times,serif" font-size="14.00">0</text>
</g>
<!-- cluster_TopModule_lit5&#45;&gt;cluster_TopModule_io_rgbled_3 -->
<g id="edge11" class="edge">
<title>cluster_TopModule_lit5&#45;&gt;cluster_TopModule_io_rgbled_3</title>
<path fill="none" stroke="black" d="M64.24,-34C74.52,-34 88.23,-34 102.08,-34"/>
<polygon fill="black" stroke="black" points="102.14,-37.5 112.14,-34 102.14,-30.5 102.14,-37.5"/>
</g>
<!-- op_eq_6&#45;&gt;cluster_TopModule_Top_reset -->
<g id="edge9" class="edge">
<title>op_eq_6:out&#45;&gt;cluster_TopModule_Top_reset</title>
<path fill="none" stroke="black" d="M204.5,-531C225.55,-531 248.64,-526.56 267.17,-521.86"/>
<polygon fill="black" stroke="black" points="268.19,-525.21 276.95,-519.25 266.39,-518.45 268.19,-525.21"/>
</g>
</g>
</svg>
