<?xml version="1.0" encoding="UTF-8" standalone="no"?>
<?xml-stylesheet href="styles.css" type="text/css"?>
<!DOCTYPE svg PUBLIC "-//W3C//DTD SVG 1.1//EN"
 "http://www.w3.org/Graphics/SVG/1.1/DTD/svg11.dtd">
<!-- Generated by graphviz version 2.40.1 (0)
 -->
<!-- Title: TopModule_hierarchy Pages: 1 -->
<svg width="273pt" height="68pt"
 viewBox="0.00 0.00 273.00 68.00" xmlns="http://www.w3.org/2000/svg" xmlns:xlink="http://www.w3.org/1999/xlink">
<g id="graph0" class="graph" transform="scale(1 1) rotate(0) translate(4 64)">
<title>TopModule_hierarchy</title>
<polygon fill="#ffffff" stroke="transparent" points="-4,4 -4,-64 269,-64 269,4 -4,4"/>
<!-- module_1 -->
<g id="node1" class="node">
<title>module_1</title>
<g id="a_node1"><a xlink:href="TopModule.dot.svg" xlink:title="&lt;TABLE&gt;">
<polygon fill="#ffdead" stroke="transparent" points="8.5,-31 8.5,-56 107.5,-56 107.5,-31 8.5,-31"/>
<polygon fill="none" stroke="#000000" points="8.5,-31 8.5,-56 107.5,-56 107.5,-31 8.5,-31"/>
<text text-anchor="start" x="13.5" y="-39.8" font-family="Times,serif" font-size="14.00" fill="#000000"> TopModule </text>
<polygon fill="#fff8dc" stroke="transparent" points="8.5,-6 8.5,-31 107.5,-31 107.5,-6 8.5,-6"/>
<polygon fill="none" stroke="#000000" points="8.5,-6 8.5,-31 107.5,-31 107.5,-6 8.5,-6"/>
<text text-anchor="start" x="18.5" y="-14.8" font-family="Times,serif" font-size="14.00" fill="#000000">VivadoTest</text>
</a>
</g>
</g>
<!-- module_2 -->
<g id="node2" class="node">
<title>module_2</title>
<g id="a_node2"><a xlink:href="VivadoTest.dot.svg" xlink:title="&lt;TABLE&gt;">
<polygon fill="#ffdead" stroke="transparent" points="159,-5 159,-30 257,-30 257,-5 159,-5"/>
<polygon fill="none" stroke="#000000" points="159,-5 159,-30 257,-30 257,-5 159,-5"/>
<text text-anchor="start" x="164" y="-13.8" font-family="Times,serif" font-size="14.00" fill="#000000"> VivadoTest </text>
</a>
</g>
</g>
<!-- module_1&#45;&gt;module_2 -->
<g id="edge1" class="edge">
<title>module_1:module_2&#45;&gt;module_2</title>
<path fill="none" stroke="#000000" d="M107.5,-18C118.2536,-18 129.6545,-18 140.7677,-18"/>
<polygon fill="#000000" stroke="#000000" points="140.866,-21.5001 150.866,-18 140.8659,-14.5001 140.866,-21.5001"/>
</g>
</g>
</svg>
