<?xml version="1.0" encoding="UTF-8" standalone="no"?>
<?xml-stylesheet href="styles.css" type="text/css"?>
<!DOCTYPE svg PUBLIC "-//W3C//DTD SVG 1.1//EN"
 "http://www.w3.org/Graphics/SVG/1.1/DTD/svg11.dtd">
<!-- Generated by graphviz version 2.40.1 (20161225.0304)
 -->
<!-- Title: TopModule Pages: 1 -->
<svg width="481pt" height="661pt"
 viewBox="0.00 0.00 481.00 661.00" xmlns="http://www.w3.org/2000/svg" xmlns:xlink="http://www.w3.org/1999/xlink">
<g id="graph0" class="graph" transform="scale(1 1) rotate(0) translate(4 657)">
<title>TopModule</title>
<polygon fill="#ffffff" stroke="transparent" points="-4,4 -4,-657 477,-657 477,4 -4,4"/>
<g id="clust1" class="cluster">
<title>cluster_TopModule</title>
<polygon fill="#fff8dc" stroke="#000000" points="8,-8 8,-645 465,-645 465,-8 8,-8"/>
<text text-anchor="middle" x="236.5" y="-629.8" font-family="Times,serif" font-size="14.00" fill="#000000">TopModule</text>
</g>
<g id="clust2" class="cluster">
<title>cluster_TopModule_Top</title>
<g id="a_clust2"><a xlink:href="Top.dot.svg" xlink:title="Top">
<polygon fill="#add8e6" stroke="#000000" points="219,-107 219,-614 332,-614 332,-107 219,-107"/>
<text text-anchor="middle" x="275.5" y="-598.8" font-family="Times,serif" font-size="14.00" fill="#000000">Top</text>
</a>
</g>
</g>
<!-- cluster_TopModule_clock -->
<g id="node1" class="node">
<title>cluster_TopModule_clock</title>
<polygon fill="#cccccc" stroke="#000000" points="175.5,-614 121.5,-614 121.5,-578 175.5,-578 175.5,-614"/>
<text text-anchor="middle" x="148.5" y="-592.3" font-family="Times,serif" font-size="14.00" fill="#000000">clock</text>
</g>
<!-- cluster_TopModule_Top_clock -->
<g id="node16" class="node">
<title>cluster_TopModule_Top_clock</title>
<polygon fill="#cccccc" stroke="#000000" points="302.5,-583 248.5,-583 248.5,-547 302.5,-547 302.5,-583"/>
<text text-anchor="middle" x="275.5" y="-561.3" font-family="Times,serif" font-size="14.00" fill="#000000">clock</text>
</g>
<!-- cluster_TopModule_clock&#45;&gt;cluster_TopModule_Top_clock -->
<g id="edge3" class="edge">
<title>cluster_TopModule_clock&#45;&gt;cluster_TopModule_Top_clock</title>
<path fill="none" stroke="#000000" d="M175.7447,-589.3497C194.0757,-584.8752 218.4686,-578.921 238.5446,-574.0206"/>
<polygon fill="#000000" stroke="#000000" points="239.4156,-577.4108 248.3004,-571.6393 237.7556,-570.6105 239.4156,-577.4108"/>
</g>
<!-- cluster_TopModule_reset -->
<g id="node2" class="node">
<title>cluster_TopModule_reset</title>
<polygon fill="#cccccc" stroke="#000000" points="70,-562 16,-562 16,-526 70,-526 70,-562"/>
<text text-anchor="middle" x="43" y="-540.3" font-family="Times,serif" font-size="14.00" fill="#000000">reset</text>
</g>
<!-- op_eq_6 -->
<g id="node30" class="node">
<title>op_eq_6</title>
<polygon fill="#d8bfd8" stroke="transparent" points="114,-506 114,-556 183,-556 183,-506 114,-506"/>
<polygon fill="none" stroke="#000000" points="114.5,-531 114.5,-556 133.5,-556 133.5,-531 114.5,-531"/>
<text text-anchor="start" x="119.5" y="-539.8" font-family="Times,serif" font-size="14.00" fill="#000000">●</text>
<polygon fill="none" stroke="#000000" points="133.5,-506 133.5,-556 164.5,-556 164.5,-506 133.5,-506"/>
<text text-anchor="start" x="138.5" y="-527.3" font-family="Times,serif" font-size="14.00" fill="#000000"> eq </text>
<polygon fill="none" stroke="#000000" points="164.5,-506 164.5,-556 183.5,-556 183.5,-506 164.5,-506"/>
<text text-anchor="start" x="169.5" y="-527.3" font-family="Times,serif" font-size="14.00" fill="#000000">●</text>
<polygon fill="none" stroke="#000000" points="114.5,-506 114.5,-531 133.5,-531 133.5,-506 114.5,-506"/>
<text text-anchor="start" x="120.5" y="-514.8" font-family="Times,serif" font-size="14.00" fill="#000000">0</text>
</g>
<!-- cluster_TopModule_reset&#45;&gt;op_eq_6 -->
<g id="edge14" class="edge">
<title>cluster_TopModule_reset&#45;&gt;op_eq_6:in1</title>
<path fill="none" stroke="#000000" d="M70.1617,-544C80.4912,-544 92.6034,-544 104.3386,-544"/>
<polygon fill="#000000" stroke="#000000" points="104.5,-547.5001 114.5,-544 104.5,-540.5001 104.5,-547.5001"/>
</g>
<!-- cluster_TopModule_io_spi_mosi -->
<g id="node3" class="node">
<title>cluster_TopModule_io_spi_mosi</title>
<polygon fill="#cccccc" stroke="#000000" points="190,-484 107,-484 107,-448 190,-448 190,-484"/>
<text text-anchor="middle" x="148.5" y="-462.3" font-family="Times,serif" font-size="14.00" fill="#000000">io_spi_mosi</text>
</g>
<!-- cluster_TopModule_Top_io_spi_mosi -->
<g id="node18" class="node">
<title>cluster_TopModule_Top_io_spi_mosi</title>
<polygon fill="#cccccc" stroke="#000000" points="317,-475 234,-475 234,-439 317,-439 317,-475"/>
<text text-anchor="middle" x="275.5" y="-453.3" font-family="Times,serif" font-size="14.00" fill="#000000">io_spi_mosi</text>
</g>
<!-- cluster_TopModule_io_spi_mosi&#45;&gt;cluster_TopModule_Top_io_spi_mosi -->
<g id="edge1" class="edge">
<title>cluster_TopModule_io_spi_mosi&#45;&gt;cluster_TopModule_Top_io_spi_mosi</title>
<path fill="none" stroke="#000000" d="M190.0845,-463.0531C200.8294,-462.2916 212.5285,-461.4625 223.724,-460.6692"/>
<polygon fill="#000000" stroke="#000000" points="224.0945,-464.1518 233.822,-459.9536 223.5996,-457.1693 224.0945,-464.1518"/>
</g>
<!-- cluster_TopModule_io_spi_clk -->
<g id="node4" class="node">
<title>cluster_TopModule_io_spi_clk</title>
<polygon fill="#cccccc" stroke="#000000" points="185,-430 112,-430 112,-394 185,-394 185,-430"/>
<text text-anchor="middle" x="148.5" y="-408.3" font-family="Times,serif" font-size="14.00" fill="#000000">io_spi_clk</text>
</g>
<!-- cluster_TopModule_Top_io_spi_clk -->
<g id="node19" class="node">
<title>cluster_TopModule_Top_io_spi_clk</title>
<polygon fill="#cccccc" stroke="#000000" points="312,-421 239,-421 239,-385 312,-385 312,-421"/>
<text text-anchor="middle" x="275.5" y="-399.3" font-family="Times,serif" font-size="14.00" fill="#000000">io_spi_clk</text>
</g>
<!-- cluster_TopModule_io_spi_clk&#45;&gt;cluster_TopModule_Top_io_spi_clk -->
<g id="edge15" class="edge">
<title>cluster_TopModule_io_spi_clk&#45;&gt;cluster_TopModule_Top_io_spi_clk</title>
<path fill="none" stroke="#000000" d="M185.2337,-409.3968C198.7921,-408.436 214.3432,-407.3339 228.6748,-406.3183"/>
<polygon fill="#000000" stroke="#000000" points="229.1214,-409.7955 238.8489,-405.5973 228.6265,-402.8131 229.1214,-409.7955"/>
</g>
<!-- cluster_TopModule_io_spi_cs_n -->
<g id="node5" class="node">
<title>cluster_TopModule_io_spi_cs_n</title>
<polygon fill="#cccccc" stroke="#000000" points="189,-376 108,-376 108,-340 189,-340 189,-376"/>
<text text-anchor="middle" x="148.5" y="-354.3" font-family="Times,serif" font-size="14.00" fill="#000000">io_spi_cs_n</text>
</g>
<!-- cluster_TopModule_Top_io_spi_cs_n -->
<g id="node20" class="node">
<title>cluster_TopModule_Top_io_spi_cs_n</title>
<polygon fill="#cccccc" stroke="#000000" points="316,-367 235,-367 235,-331 316,-331 316,-367"/>
<text text-anchor="middle" x="275.5" y="-345.3" font-family="Times,serif" font-size="14.00" fill="#000000">io_spi_cs_n</text>
</g>
<!-- cluster_TopModule_io_spi_cs_n&#45;&gt;cluster_TopModule_Top_io_spi_cs_n -->
<g id="edge5" class="edge">
<title>cluster_TopModule_io_spi_cs_n&#45;&gt;cluster_TopModule_Top_io_spi_cs_n</title>
<path fill="none" stroke="#000000" d="M189.0328,-355.1276C200.3742,-354.3239 212.8454,-353.4401 224.7007,-352.5999"/>
<polygon fill="#000000" stroke="#000000" points="225.1892,-356.0742 234.9167,-351.876 224.6943,-349.0917 225.1892,-356.0742"/>
</g>
<!-- cluster_TopModule_io_sw -->
<g id="node6" class="node">
<title>cluster_TopModule_io_sw</title>
<polygon fill="#cccccc" stroke="#000000" points="175.5,-322 121.5,-322 121.5,-286 175.5,-286 175.5,-322"/>
<text text-anchor="middle" x="148.5" y="-300.3" font-family="Times,serif" font-size="14.00" fill="#000000">io_sw</text>
</g>
<!-- cluster_TopModule_Top_io_sw -->
<g id="node21" class="node">
<title>cluster_TopModule_Top_io_sw</title>
<polygon fill="#cccccc" stroke="#000000" points="302.5,-313 248.5,-313 248.5,-277 302.5,-277 302.5,-313"/>
<text text-anchor="middle" x="275.5" y="-291.3" font-family="Times,serif" font-size="14.00" fill="#000000">io_sw</text>
</g>
<!-- cluster_TopModule_io_sw&#45;&gt;cluster_TopModule_Top_io_sw -->
<g id="edge13" class="edge">
<title>cluster_TopModule_io_sw&#45;&gt;cluster_TopModule_Top_io_sw</title>
<path fill="none" stroke="#000000" d="M175.7447,-302.0693C193.992,-300.7762 218.246,-299.0574 238.2693,-297.6384"/>
<polygon fill="#000000" stroke="#000000" points="238.5728,-301.1258 248.3004,-296.9275 238.0779,-294.1433 238.5728,-301.1258"/>
</g>
<!-- cluster_TopModule_io_btn -->
<g id="node7" class="node">
<title>cluster_TopModule_io_btn</title>
<polygon fill="#cccccc" stroke="#000000" points="70,-415 16,-415 16,-379 70,-379 70,-415"/>
<text text-anchor="middle" x="43" y="-393.3" font-family="Times,serif" font-size="14.00" fill="#000000">io_btn</text>
</g>
<!-- cluster_TopModule_io_spi_miso -->
<g id="node8" class="node">
<title>cluster_TopModule_io_spi_miso</title>
<polygon fill="#e0ffff" stroke="#000000" points="450,-151 367,-151 367,-115 450,-115 450,-151"/>
<text text-anchor="middle" x="408.5" y="-129.3" font-family="Times,serif" font-size="14.00" fill="#000000">io_spi_miso</text>
</g>
<!-- cluster_TopModule_io_pwm_out_l -->
<g id="node9" class="node">
<title>cluster_TopModule_io_pwm_out_l</title>
<polygon fill="#e0ffff" stroke="#000000" points="456.5,-205 360.5,-205 360.5,-169 456.5,-169 456.5,-205"/>
<text text-anchor="middle" x="408.5" y="-183.3" font-family="Times,serif" font-size="14.00" fill="#000000">io_pwm_out_l</text>
</g>
<!-- cluster_TopModule_io_pwm_out_r -->
<g id="node10" class="node">
<title>cluster_TopModule_io_pwm_out_r</title>
<polygon fill="#e0ffff" stroke="#000000" points="457,-259 360,-259 360,-223 457,-223 457,-259"/>
<text text-anchor="middle" x="408.5" y="-237.3" font-family="Times,serif" font-size="14.00" fill="#000000">io_pwm_out_r</text>
</g>
<!-- cluster_TopModule_io_led -->
<g id="node11" class="node">
<title>cluster_TopModule_io_led</title>
<polygon fill="#e0ffff" stroke="#000000" points="175.5,-268 121.5,-268 121.5,-232 175.5,-232 175.5,-268"/>
<text text-anchor="middle" x="148.5" y="-246.3" font-family="Times,serif" font-size="14.00" fill="#000000">io_led</text>
</g>
<!-- cluster_TopModule_io_rgbled_0 -->
<g id="node12" class="node">
<title>cluster_TopModule_io_rgbled_0</title>
<polygon fill="#e0ffff" stroke="#000000" points="189.5,-214 107.5,-214 107.5,-178 189.5,-178 189.5,-214"/>
<text text-anchor="middle" x="148.5" y="-192.3" font-family="Times,serif" font-size="14.00" fill="#000000">io_rgbled_0</text>
</g>
<!-- cluster_TopModule_io_rgbled_1 -->
<g id="node13" class="node">
<title>cluster_TopModule_io_rgbled_1</title>
<polygon fill="#e0ffff" stroke="#000000" points="189.5,-160 107.5,-160 107.5,-124 189.5,-124 189.5,-160"/>
<text text-anchor="middle" x="148.5" y="-138.3" font-family="Times,serif" font-size="14.00" fill="#000000">io_rgbled_1</text>
</g>
<!-- cluster_TopModule_io_rgbled_2 -->
<g id="node14" class="node">
<title>cluster_TopModule_io_rgbled_2</title>
<polygon fill="#e0ffff" stroke="#000000" points="189.5,-106 107.5,-106 107.5,-70 189.5,-70 189.5,-106"/>
<text text-anchor="middle" x="148.5" y="-84.3" font-family="Times,serif" font-size="14.00" fill="#000000">io_rgbled_2</text>
</g>
<!-- cluster_TopModule_io_rgbled_3 -->
<g id="node15" class="node">
<title>cluster_TopModule_io_rgbled_3</title>
<polygon fill="#e0ffff" stroke="#000000" points="189.5,-52 107.5,-52 107.5,-16 189.5,-16 189.5,-52"/>
<text text-anchor="middle" x="148.5" y="-30.3" font-family="Times,serif" font-size="14.00" fill="#000000">io_rgbled_3</text>
</g>
<!-- cluster_TopModule_Top_reset -->
<g id="node17" class="node">
<title>cluster_TopModule_Top_reset</title>
<polygon fill="#cccccc" stroke="#000000" points="302.5,-529 248.5,-529 248.5,-493 302.5,-493 302.5,-529"/>
<text text-anchor="middle" x="275.5" y="-507.3" font-family="Times,serif" font-size="14.00" fill="#000000">reset</text>
</g>
<!-- cluster_TopModule_Top_io_spi_miso -->
<g id="node22" class="node">
<title>cluster_TopModule_Top_io_spi_miso</title>
<polygon fill="#e0ffff" stroke="#000000" points="317,-151 234,-151 234,-115 317,-115 317,-151"/>
<text text-anchor="middle" x="275.5" y="-129.3" font-family="Times,serif" font-size="14.00" fill="#000000">io_spi_miso</text>
</g>
<!-- cluster_TopModule_Top_io_spi_miso&#45;&gt;cluster_TopModule_io_spi_miso -->
<g id="edge8" class="edge">
<title>cluster_TopModule_Top_io_spi_miso&#45;&gt;cluster_TopModule_io_spi_miso</title>
<path fill="none" stroke="#000000" d="M317.2171,-133C329.7203,-133 343.5874,-133 356.6593,-133"/>
<polygon fill="#000000" stroke="#000000" points="356.9309,-136.5001 366.9309,-133 356.9309,-129.5001 356.9309,-136.5001"/>
</g>
<!-- cluster_TopModule_Top_io_pwm_out_l -->
<g id="node23" class="node">
<title>cluster_TopModule_Top_io_pwm_out_l</title>
<polygon fill="#e0ffff" stroke="#000000" points="323.5,-205 227.5,-205 227.5,-169 323.5,-169 323.5,-205"/>
<text text-anchor="middle" x="275.5" y="-183.3" font-family="Times,serif" font-size="14.00" fill="#000000">io_pwm_out_l</text>
</g>
<!-- cluster_TopModule_Top_io_pwm_out_l&#45;&gt;cluster_TopModule_io_pwm_out_l -->
<g id="edge6" class="edge">
<title>cluster_TopModule_Top_io_pwm_out_l&#45;&gt;cluster_TopModule_io_pwm_out_l</title>
<path fill="none" stroke="#000000" d="M323.5161,-187C332.0728,-187 341.0731,-187 349.886,-187"/>
<polygon fill="#000000" stroke="#000000" points="350.1077,-190.5001 360.1077,-187 350.1077,-183.5001 350.1077,-190.5001"/>
</g>
<!-- cluster_TopModule_Top_io_pwm_out_r -->
<g id="node24" class="node">
<title>cluster_TopModule_Top_io_pwm_out_r</title>
<polygon fill="#e0ffff" stroke="#000000" points="324,-259 227,-259 227,-223 324,-223 324,-259"/>
<text text-anchor="middle" x="275.5" y="-237.3" font-family="Times,serif" font-size="14.00" fill="#000000">io_pwm_out_r</text>
</g>
<!-- cluster_TopModule_Top_io_pwm_out_r&#45;&gt;cluster_TopModule_io_pwm_out_r -->
<g id="edge12" class="edge">
<title>cluster_TopModule_Top_io_pwm_out_r&#45;&gt;cluster_TopModule_io_pwm_out_r</title>
<path fill="none" stroke="#000000" d="M324.2691,-241C332.4913,-241 341.1037,-241 349.5514,-241"/>
<polygon fill="#000000" stroke="#000000" points="349.7368,-244.5001 359.7368,-241 349.7368,-237.5001 349.7368,-244.5001"/>
</g>
<!-- cluster_TopModule_lit1 -->
<g id="node25" class="node">
<title>cluster_TopModule_lit1</title>
<ellipse fill="#d3d3d3" stroke="#000000" cx="43" cy="-250" rx="18" ry="18"/>
<text text-anchor="middle" x="43" y="-246.3" font-family="Times,serif" font-size="14.00" fill="#000000">0</text>
</g>
<!-- cluster_TopModule_lit1&#45;&gt;cluster_TopModule_io_led -->
<g id="edge7" class="edge">
<title>cluster_TopModule_lit1&#45;&gt;cluster_TopModule_io_led</title>
<path fill="none" stroke="#000000" d="M61.3767,-250C75.0657,-250 94.2248,-250 111.0918,-250"/>
<polygon fill="#000000" stroke="#000000" points="111.2283,-253.5001 121.2282,-250 111.2282,-246.5001 111.2283,-253.5001"/>
</g>
<!-- cluster_TopModule_lit2 -->
<g id="node26" class="node">
<title>cluster_TopModule_lit2</title>
<ellipse fill="#d3d3d3" stroke="#000000" cx="43" cy="-196" rx="18" ry="18"/>
<text text-anchor="middle" x="43" y="-192.3" font-family="Times,serif" font-size="14.00" fill="#000000">0</text>
</g>
<!-- cluster_TopModule_lit2&#45;&gt;cluster_TopModule_io_rgbled_0 -->
<g id="edge10" class="edge">
<title>cluster_TopModule_lit2&#45;&gt;cluster_TopModule_io_rgbled_0</title>
<path fill="none" stroke="#000000" d="M61.3767,-196C71.3455,-196 84.2152,-196 96.9881,-196"/>
<polygon fill="#000000" stroke="#000000" points="97.1537,-199.5001 107.1537,-196 97.1537,-192.5001 97.1537,-199.5001"/>
</g>
<!-- cluster_TopModule_lit3 -->
<g id="node27" class="node">
<title>cluster_TopModule_lit3</title>
<ellipse fill="#d3d3d3" stroke="#000000" cx="43" cy="-142" rx="18" ry="18"/>
<text text-anchor="middle" x="43" y="-138.3" font-family="Times,serif" font-size="14.00" fill="#000000">0</text>
</g>
<!-- cluster_TopModule_lit3&#45;&gt;cluster_TopModule_io_rgbled_1 -->
<g id="edge4" class="edge">
<title>cluster_TopModule_lit3&#45;&gt;cluster_TopModule_io_rgbled_1</title>
<path fill="none" stroke="#000000" d="M61.3767,-142C71.3455,-142 84.2152,-142 96.9881,-142"/>
<polygon fill="#000000" stroke="#000000" points="97.1537,-145.5001 107.1537,-142 97.1537,-138.5001 97.1537,-145.5001"/>
</g>
<!-- cluster_TopModule_lit4 -->
<g id="node28" class="node">
<title>cluster_TopModule_lit4</title>
<ellipse fill="#d3d3d3" stroke="#000000" cx="43" cy="-88" rx="18" ry="18"/>
<text text-anchor="middle" x="43" y="-84.3" font-family="Times,serif" font-size="14.00" fill="#000000">0</text>
</g>
<!-- cluster_TopModule_lit4&#45;&gt;cluster_TopModule_io_rgbled_2 -->
<g id="edge2" class="edge">
<title>cluster_TopModule_lit4&#45;&gt;cluster_TopModule_io_rgbled_2</title>
<path fill="none" stroke="#000000" d="M61.3767,-88C71.3455,-88 84.2152,-88 96.9881,-88"/>
<polygon fill="#000000" stroke="#000000" points="97.1537,-91.5001 107.1537,-88 97.1537,-84.5001 97.1537,-91.5001"/>
</g>
<!-- cluster_TopModule_lit5 -->
<g id="node29" class="node">
<title>cluster_TopModule_lit5</title>
<ellipse fill="#d3d3d3" stroke="#000000" cx="43" cy="-34" rx="18" ry="18"/>
<text text-anchor="middle" x="43" y="-30.3" font-family="Times,serif" font-size="14.00" fill="#000000">0</text>
</g>
<!-- cluster_TopModule_lit5&#45;&gt;cluster_TopModule_io_rgbled_3 -->
<g id="edge11" class="edge">
<title>cluster_TopModule_lit5&#45;&gt;cluster_TopModule_io_rgbled_3</title>
<path fill="none" stroke="#000000" d="M61.3767,-34C71.3455,-34 84.2152,-34 96.9881,-34"/>
<polygon fill="#000000" stroke="#000000" points="97.1537,-37.5001 107.1537,-34 97.1537,-30.5001 97.1537,-37.5001"/>
</g>
<!-- op_eq_6&#45;&gt;cluster_TopModule_Top_reset -->
<g id="edge9" class="edge">
<title>op_eq_6:out&#45;&gt;cluster_TopModule_Top_reset</title>
<path fill="none" stroke="#000000" d="M183.5,-531C201.9089,-531 221.9266,-527.129 238.5745,-522.7931"/>
<polygon fill="#000000" stroke="#000000" points="239.7523,-526.0989 248.4602,-520.0637 237.8893,-519.3514 239.7523,-526.0989"/>
</g>
</g>
</svg>
