<?xml version="1.0" encoding="UTF-8" standalone="no"?>
<?xml-stylesheet href="styles.css" type="text/css"?>
<!DOCTYPE svg PUBLIC "-//W3C//DTD SVG 1.1//EN"
 "http://www.w3.org/Graphics/SVG/1.1/DTD/svg11.dtd">
<!-- Generated by graphviz version 2.40.1 (0)
 -->
<!-- Title: TopModule_hierarchy Pages: 1 -->
<svg width="550pt" height="127pt"
 viewBox="0.00 0.00 550.00 127.00" xmlns="http://www.w3.org/2000/svg" xmlns:xlink="http://www.w3.org/1999/xlink">
<g id="graph0" class="graph" transform="scale(1 1) rotate(0) translate(4 123)">
<title>TopModule_hierarchy</title>
<polygon fill="#ffffff" stroke="transparent" points="-4,4 -4,-123 546,-123 546,4 -4,4"/>
<!-- module_1 -->
<g id="node1" class="node">
<title>module_1</title>
<g id="a_node1"><a xlink:href="TopModule.dot.svg" xlink:title="&lt;TABLE&gt;">
<polygon fill="#ffdead" stroke="transparent" points="8.5,-90 8.5,-115 107.5,-115 107.5,-90 8.5,-90"/>
<polygon fill="none" stroke="#000000" points="8.5,-90 8.5,-115 107.5,-115 107.5,-90 8.5,-90"/>
<text text-anchor="start" x="13.5" y="-98.8" font-family="Times,serif" font-size="14.00" fill="#000000"> TopModule </text>
<polygon fill="#fff8dc" stroke="transparent" points="8.5,-65 8.5,-90 107.5,-90 107.5,-65 8.5,-65"/>
<polygon fill="none" stroke="#000000" points="8.5,-65 8.5,-90 107.5,-90 107.5,-65 8.5,-65"/>
<text text-anchor="start" x="18.5" y="-73.8" font-family="Times,serif" font-size="14.00" fill="#000000">VivadoTest</text>
</a>
</g>
</g>
<!-- module_2 -->
<g id="node2" class="node">
<title>module_2</title>
<g id="a_node2"><a xlink:href="VivadoTest.dot.svg" xlink:title="&lt;TABLE&gt;">
<polygon fill="#ffdead" stroke="transparent" points="159,-89 159,-114 257,-114 257,-89 159,-89"/>
<polygon fill="none" stroke="#000000" points="159,-89 159,-114 257,-114 257,-89 159,-89"/>
<text text-anchor="start" x="164" y="-97.8" font-family="Times,serif" font-size="14.00" fill="#000000"> VivadoTest </text>
<polygon fill="#fff8dc" stroke="transparent" points="159,-64 159,-89 257,-89 257,-64 159,-64"/>
<polygon fill="none" stroke="#000000" points="159,-64 159,-89 257,-89 257,-64 159,-64"/>
<text text-anchor="start" x="188.5" y="-72.8" font-family="Times,serif" font-size="14.00" fill="#000000">PWM</text>
<polygon fill="#fff8dc" stroke="transparent" points="159,-39 159,-64 257,-64 257,-39 159,-39"/>
<polygon fill="none" stroke="#000000" points="159,-39 159,-64 257,-64 257,-39 159,-39"/>
<text text-anchor="start" x="176" y="-47.8" font-family="Times,serif" font-size="14.00" fill="#000000">SPISlave</text>
</a>
</g>
</g>
<!-- module_1&#45;&gt;module_2 -->
<g id="edge4" class="edge">
<title>module_1:module_2&#45;&gt;module_2</title>
<path fill="none" stroke="#000000" d="M107.5,-77C118.2536,-77 129.6545,-77 140.7677,-77"/>
<polygon fill="#000000" stroke="#000000" points="140.866,-80.5001 150.866,-77 140.8659,-73.5001 140.866,-80.5001"/>
</g>
<!-- module_3 -->
<g id="node3" class="node">
<title>module_3</title>
<g id="a_node3"><a xlink:href="PWM.dot.svg" xlink:title="&lt;TABLE&gt;">
<polygon fill="#ffdead" stroke="transparent" points="321.5,-83 321.5,-108 379.5,-108 379.5,-83 321.5,-83"/>
<polygon fill="none" stroke="#000000" points="321.5,-83 321.5,-108 379.5,-108 379.5,-83 321.5,-83"/>
<text text-anchor="start" x="326.5" y="-91.8" font-family="Times,serif" font-size="14.00" fill="#000000"> PWM </text>
</a>
</g>
</g>
<!-- module_2&#45;&gt;module_3 -->
<g id="edge1" class="edge">
<title>module_2:module_3&#45;&gt;module_3</title>
<path fill="none" stroke="#000000" d="M257,-76C272.2407,-76 288.5759,-78.5725 303.2602,-81.8723"/>
<polygon fill="#000000" stroke="#000000" points="302.587,-85.3102 313.1287,-84.2502 304.2269,-78.5049 302.587,-85.3102"/>
</g>
<!-- module_4 -->
<g id="node4" class="node">
<title>module_4</title>
<g id="a_node4"><a xlink:href="SPISlave.dot.svg" xlink:title="&lt;TABLE&gt;">
<polygon fill="#ffdead" stroke="transparent" points="309.5,-31 309.5,-56 392.5,-56 392.5,-31 309.5,-31"/>
<polygon fill="none" stroke="#000000" points="309.5,-31 309.5,-56 392.5,-56 392.5,-31 309.5,-31"/>
<text text-anchor="start" x="314.5" y="-39.8" font-family="Times,serif" font-size="14.00" fill="#000000"> SPISlave </text>
<polygon fill="#fff8dc" stroke="transparent" points="309.5,-6 309.5,-31 392.5,-31 392.5,-6 309.5,-6"/>
<polygon fill="none" stroke="#000000" points="309.5,-6 309.5,-31 392.5,-31 392.5,-6 309.5,-6"/>
<text text-anchor="start" x="340" y="-14.8" font-family="Times,serif" font-size="14.00" fill="#000000">spi</text>
</a>
</g>
</g>
<!-- module_2&#45;&gt;module_4 -->
<g id="edge3" class="edge">
<title>module_2:module_4&#45;&gt;module_4</title>
<path fill="none" stroke="#000000" d="M257,-51C268.0571,-51 279.6902,-49.646 290.851,-47.6426"/>
<polygon fill="#000000" stroke="#000000" points="291.8107,-51.0205 300.9379,-45.6404 290.4477,-44.1544 291.8107,-51.0205"/>
</g>
<!-- module_5 -->
<g id="node5" class="node">
<title>module_5</title>
<g id="a_node5"><a xlink:href="SPI_Slave.dot.svg" xlink:title="&lt;TABLE&gt;">
<polygon fill="#ffdead" stroke="transparent" points="444,-5 444,-30 534,-30 534,-5 444,-5"/>
<polygon fill="none" stroke="#000000" points="444,-5 444,-30 534,-30 534,-5 444,-5"/>
<text text-anchor="start" x="449" y="-13.8" font-family="Times,serif" font-size="14.00" fill="#000000"> SPI_Slave </text>
</a>
</g>
</g>
<!-- module_4&#45;&gt;module_5 -->
<g id="edge2" class="edge">
<title>module_4:module_5&#45;&gt;module_5</title>
<path fill="none" stroke="#000000" d="M392.5,-18C403.2746,-18 414.7259,-18 425.8338,-18"/>
<polygon fill="#000000" stroke="#000000" points="425.9093,-21.5001 435.9092,-18 425.9092,-14.5001 425.9093,-21.5001"/>
</g>
</g>
</svg>
