<?xml version="1.0" encoding="UTF-8" standalone="no"?>
<?xml-stylesheet href="styles.css" type="text/css"?>
<!DOCTYPE svg PUBLIC "-//W3C//DTD SVG 1.1//EN"
 "http://www.w3.org/Graphics/SVG/1.1/DTD/svg11.dtd">
<!-- Generated by graphviz version 2.40.1 (0)
 -->
<!-- Title: TopModule Pages: 1 -->
<svg width="497pt" height="570pt"
 viewBox="0.00 0.00 497.00 570.00" xmlns="http://www.w3.org/2000/svg" xmlns:xlink="http://www.w3.org/1999/xlink">
<g id="graph0" class="graph" transform="scale(1 1) rotate(0) translate(4 566)">
<title>TopModule</title>
<polygon fill="#ffffff" stroke="transparent" points="-4,4 -4,-566 493,-566 493,4 -4,4"/>
<g id="clust1" class="cluster">
<title>cluster_TopModule</title>
<polygon fill="#fff8dc" stroke="#000000" points="8,-8 8,-554 481,-554 481,-8 8,-8"/>
<text text-anchor="middle" x="244.5" y="-538.8" font-family="Times,serif" font-size="14.00" fill="#000000">TopModule</text>
</g>
<g id="clust2" class="cluster">
<title>cluster_TopModule_VivadoTest</title>
<g id="a_clust2"><a xlink:href="VivadoTest.dot.svg" xlink:title="VivadoTest">
<polygon fill="#add8e6" stroke="#000000" points="233,-16 233,-523 347,-523 347,-16 233,-16"/>
<text text-anchor="middle" x="290" y="-507.8" font-family="Times,serif" font-size="14.00" fill="#000000">VivadoTest</text>
</a>
</g>
</g>
<!-- cluster_TopModule_clock -->
<g id="node1" class="node">
<title>cluster_TopModule_clock</title>
<polygon fill="#cccccc" stroke="#000000" points="182.5,-508 128.5,-508 128.5,-472 182.5,-472 182.5,-508"/>
<text text-anchor="middle" x="155.5" y="-486.3" font-family="Times,serif" font-size="14.00" fill="#000000">clock</text>
</g>
<!-- cluster_TopModule_VivadoTest_clock -->
<g id="node10" class="node">
<title>cluster_TopModule_VivadoTest_clock</title>
<polygon fill="#cccccc" stroke="#000000" points="317,-492 263,-492 263,-456 317,-456 317,-492"/>
<text text-anchor="middle" x="290" y="-470.3" font-family="Times,serif" font-size="14.00" fill="#000000">clock</text>
</g>
<!-- cluster_TopModule_clock&#45;&gt;cluster_TopModule_VivadoTest_clock -->
<g id="edge6" class="edge">
<title>cluster_TopModule_clock&#45;&gt;cluster_TopModule_VivadoTest_clock</title>
<path fill="none" stroke="#000000" d="M182.7181,-486.7622C202.8629,-484.3658 230.5426,-481.073 252.7402,-478.4324"/>
<polygon fill="#000000" stroke="#000000" points="253.3059,-481.8899 262.8224,-477.233 252.4789,-474.9389 253.3059,-481.8899"/>
</g>
<!-- cluster_TopModule_reset -->
<g id="node2" class="node">
<title>cluster_TopModule_reset</title>
<polygon fill="#cccccc" stroke="#000000" points="70,-456 16,-456 16,-420 70,-420 70,-456"/>
<text text-anchor="middle" x="43" y="-434.3" font-family="Times,serif" font-size="14.00" fill="#000000">reset</text>
</g>
<!-- op_eq_1 -->
<g id="node19" class="node">
<title>op_eq_1</title>
<polygon fill="#d8bfd8" stroke="transparent" points="114,-400 114,-450 197,-450 197,-400 114,-400"/>
<polygon fill="none" stroke="#000000" points="114.5,-425 114.5,-450 137.5,-450 137.5,-425 114.5,-425"/>
<text text-anchor="start" x="119.5" y="-433.8" font-family="Times,serif" font-size="14.00" fill="#000000">●</text>
<polygon fill="none" stroke="#000000" points="137.5,-400 137.5,-450 174.5,-450 174.5,-400 137.5,-400"/>
<text text-anchor="start" x="142.5" y="-421.3" font-family="Times,serif" font-size="14.00" fill="#000000"> eq </text>
<polygon fill="none" stroke="#000000" points="174.5,-400 174.5,-450 197.5,-450 197.5,-400 174.5,-400"/>
<text text-anchor="start" x="179.5" y="-421.3" font-family="Times,serif" font-size="14.00" fill="#000000">●</text>
<polygon fill="none" stroke="#000000" points="114.5,-400 114.5,-425 137.5,-425 137.5,-400 114.5,-400"/>
<text text-anchor="start" x="121" y="-408.8" font-family="Times,serif" font-size="14.00" fill="#000000">0</text>
</g>
<!-- cluster_TopModule_reset&#45;&gt;op_eq_1 -->
<g id="edge3" class="edge">
<title>cluster_TopModule_reset&#45;&gt;op_eq_1:in1</title>
<path fill="none" stroke="#000000" d="M70.1617,-438C80.4912,-438 92.6034,-438 104.3386,-438"/>
<polygon fill="#000000" stroke="#000000" points="104.5,-441.5001 114.5,-438 104.5,-434.5001 104.5,-441.5001"/>
</g>
<!-- cluster_TopModule_io_btn -->
<g id="node3" class="node">
<title>cluster_TopModule_io_btn</title>
<polygon fill="#cccccc" stroke="#000000" points="185.5,-378 125.5,-378 125.5,-342 185.5,-342 185.5,-378"/>
<text text-anchor="middle" x="155.5" y="-356.3" font-family="Times,serif" font-size="14.00" fill="#000000">io_btn</text>
</g>
<!-- cluster_TopModule_VivadoTest_io_btn -->
<g id="node12" class="node">
<title>cluster_TopModule_VivadoTest_io_btn</title>
<polygon fill="#cccccc" stroke="#000000" points="320,-384 260,-384 260,-348 320,-348 320,-384"/>
<text text-anchor="middle" x="290" y="-362.3" font-family="Times,serif" font-size="14.00" fill="#000000">io_btn</text>
</g>
<!-- cluster_TopModule_io_btn&#45;&gt;cluster_TopModule_VivadoTest_io_btn -->
<g id="edge5" class="edge">
<title>cluster_TopModule_io_btn&#45;&gt;cluster_TopModule_VivadoTest_io_btn</title>
<path fill="none" stroke="#000000" d="M185.6844,-361.3465C204.634,-362.1919 229.2935,-363.2919 249.8788,-364.2102"/>
<polygon fill="#000000" stroke="#000000" points="249.7702,-367.7088 259.9163,-364.658 250.0823,-360.7157 249.7702,-367.7088"/>
</g>
<!-- cluster_TopModule_io_sw -->
<g id="node4" class="node">
<title>cluster_TopModule_io_sw</title>
<polygon fill="#cccccc" stroke="#000000" points="183.5,-324 127.5,-324 127.5,-288 183.5,-288 183.5,-324"/>
<text text-anchor="middle" x="155.5" y="-302.3" font-family="Times,serif" font-size="14.00" fill="#000000">io_sw</text>
</g>
<!-- cluster_TopModule_VivadoTest_io_sw -->
<g id="node13" class="node">
<title>cluster_TopModule_VivadoTest_io_sw</title>
<polygon fill="#cccccc" stroke="#000000" points="318,-330 262,-330 262,-294 318,-294 318,-330"/>
<text text-anchor="middle" x="290" y="-308.3" font-family="Times,serif" font-size="14.00" fill="#000000">io_sw</text>
</g>
<!-- cluster_TopModule_io_sw&#45;&gt;cluster_TopModule_VivadoTest_io_sw -->
<g id="edge2" class="edge">
<title>cluster_TopModule_io_sw&#45;&gt;cluster_TopModule_VivadoTest_io_sw</title>
<path fill="none" stroke="#000000" d="M183.6956,-307.2578C203.4227,-308.1378 230.011,-309.3239 251.6615,-310.2897"/>
<polygon fill="#000000" stroke="#000000" points="251.6954,-313.7946 261.8415,-310.7439 252.0075,-306.8016 251.6954,-313.7946"/>
</g>
<!-- cluster_TopModule_io_led -->
<g id="node5" class="node">
<title>cluster_TopModule_io_led</title>
<polygon fill="#e0ffff" stroke="#000000" points="453,-60 395,-60 395,-24 453,-24 453,-60"/>
<text text-anchor="middle" x="424" y="-38.3" font-family="Times,serif" font-size="14.00" fill="#000000">io_led</text>
</g>
<!-- cluster_TopModule_io_rgbled_0 -->
<g id="node6" class="node">
<title>cluster_TopModule_io_rgbled_0</title>
<polygon fill="#e0ffff" stroke="#000000" points="473,-114 375,-114 375,-78 473,-78 473,-114"/>
<text text-anchor="middle" x="424" y="-92.3" font-family="Times,serif" font-size="14.00" fill="#000000">io_rgbled_0</text>
</g>
<!-- cluster_TopModule_io_rgbled_1 -->
<g id="node7" class="node">
<title>cluster_TopModule_io_rgbled_1</title>
<polygon fill="#e0ffff" stroke="#000000" points="473,-168 375,-168 375,-132 473,-132 473,-168"/>
<text text-anchor="middle" x="424" y="-146.3" font-family="Times,serif" font-size="14.00" fill="#000000">io_rgbled_1</text>
</g>
<!-- cluster_TopModule_io_rgbled_2 -->
<g id="node8" class="node">
<title>cluster_TopModule_io_rgbled_2</title>
<polygon fill="#e0ffff" stroke="#000000" points="473,-222 375,-222 375,-186 473,-186 473,-222"/>
<text text-anchor="middle" x="424" y="-200.3" font-family="Times,serif" font-size="14.00" fill="#000000">io_rgbled_2</text>
</g>
<!-- cluster_TopModule_io_rgbled_3 -->
<g id="node9" class="node">
<title>cluster_TopModule_io_rgbled_3</title>
<polygon fill="#e0ffff" stroke="#000000" points="473,-276 375,-276 375,-240 473,-240 473,-276"/>
<text text-anchor="middle" x="424" y="-254.3" font-family="Times,serif" font-size="14.00" fill="#000000">io_rgbled_3</text>
</g>
<!-- cluster_TopModule_VivadoTest_reset -->
<g id="node11" class="node">
<title>cluster_TopModule_VivadoTest_reset</title>
<polygon fill="#cccccc" stroke="#000000" points="317,-438 263,-438 263,-402 317,-402 317,-438"/>
<text text-anchor="middle" x="290" y="-416.3" font-family="Times,serif" font-size="14.00" fill="#000000">reset</text>
</g>
<!-- cluster_TopModule_VivadoTest_io_led -->
<g id="node14" class="node">
<title>cluster_TopModule_VivadoTest_io_led</title>
<polygon fill="#e0ffff" stroke="#000000" points="319,-60 261,-60 261,-24 319,-24 319,-60"/>
<text text-anchor="middle" x="290" y="-38.3" font-family="Times,serif" font-size="14.00" fill="#000000">io_led</text>
</g>
<!-- cluster_TopModule_VivadoTest_io_led&#45;&gt;cluster_TopModule_io_led -->
<g id="edge7" class="edge">
<title>cluster_TopModule_VivadoTest_io_led&#45;&gt;cluster_TopModule_io_led</title>
<path fill="none" stroke="#000000" d="M319.076,-42C338.3038,-42 363.7449,-42 384.7597,-42"/>
<polygon fill="#000000" stroke="#000000" points="384.9808,-45.5001 394.9807,-42 384.9807,-38.5001 384.9808,-45.5001"/>
</g>
<!-- cluster_TopModule_VivadoTest_io_rgbled_0 -->
<g id="node15" class="node">
<title>cluster_TopModule_VivadoTest_io_rgbled_0</title>
<polygon fill="#e0ffff" stroke="#000000" points="339,-114 241,-114 241,-78 339,-78 339,-114"/>
<text text-anchor="middle" x="290" y="-92.3" font-family="Times,serif" font-size="14.00" fill="#000000">io_rgbled_0</text>
</g>
<!-- cluster_TopModule_VivadoTest_io_rgbled_0&#45;&gt;cluster_TopModule_io_rgbled_0 -->
<g id="edge8" class="edge">
<title>cluster_TopModule_VivadoTest_io_rgbled_0&#45;&gt;cluster_TopModule_io_rgbled_0</title>
<path fill="none" stroke="#000000" d="M339.1358,-96C347.4198,-96 356.097,-96 364.6082,-96"/>
<polygon fill="#000000" stroke="#000000" points="364.8702,-99.5001 374.8702,-96 364.8701,-92.5001 364.8702,-99.5001"/>
</g>
<!-- cluster_TopModule_VivadoTest_io_rgbled_1 -->
<g id="node16" class="node">
<title>cluster_TopModule_VivadoTest_io_rgbled_1</title>
<polygon fill="#e0ffff" stroke="#000000" points="339,-168 241,-168 241,-132 339,-132 339,-168"/>
<text text-anchor="middle" x="290" y="-146.3" font-family="Times,serif" font-size="14.00" fill="#000000">io_rgbled_1</text>
</g>
<!-- cluster_TopModule_VivadoTest_io_rgbled_1&#45;&gt;cluster_TopModule_io_rgbled_1 -->
<g id="edge4" class="edge">
<title>cluster_TopModule_VivadoTest_io_rgbled_1&#45;&gt;cluster_TopModule_io_rgbled_1</title>
<path fill="none" stroke="#000000" d="M339.1358,-150C347.4198,-150 356.097,-150 364.6082,-150"/>
<polygon fill="#000000" stroke="#000000" points="364.8702,-153.5001 374.8702,-150 364.8701,-146.5001 364.8702,-153.5001"/>
</g>
<!-- cluster_TopModule_VivadoTest_io_rgbled_2 -->
<g id="node17" class="node">
<title>cluster_TopModule_VivadoTest_io_rgbled_2</title>
<polygon fill="#e0ffff" stroke="#000000" points="339,-222 241,-222 241,-186 339,-186 339,-222"/>
<text text-anchor="middle" x="290" y="-200.3" font-family="Times,serif" font-size="14.00" fill="#000000">io_rgbled_2</text>
</g>
<!-- cluster_TopModule_VivadoTest_io_rgbled_2&#45;&gt;cluster_TopModule_io_rgbled_2 -->
<g id="edge1" class="edge">
<title>cluster_TopModule_VivadoTest_io_rgbled_2&#45;&gt;cluster_TopModule_io_rgbled_2</title>
<path fill="none" stroke="#000000" d="M339.1358,-204C347.4198,-204 356.097,-204 364.6082,-204"/>
<polygon fill="#000000" stroke="#000000" points="364.8702,-207.5001 374.8702,-204 364.8701,-200.5001 364.8702,-207.5001"/>
</g>
<!-- cluster_TopModule_VivadoTest_io_rgbled_3 -->
<g id="node18" class="node">
<title>cluster_TopModule_VivadoTest_io_rgbled_3</title>
<polygon fill="#e0ffff" stroke="#000000" points="339,-276 241,-276 241,-240 339,-240 339,-276"/>
<text text-anchor="middle" x="290" y="-254.3" font-family="Times,serif" font-size="14.00" fill="#000000">io_rgbled_3</text>
</g>
<!-- cluster_TopModule_VivadoTest_io_rgbled_3&#45;&gt;cluster_TopModule_io_rgbled_3 -->
<g id="edge9" class="edge">
<title>cluster_TopModule_VivadoTest_io_rgbled_3&#45;&gt;cluster_TopModule_io_rgbled_3</title>
<path fill="none" stroke="#000000" d="M339.1358,-258C347.4198,-258 356.097,-258 364.6082,-258"/>
<polygon fill="#000000" stroke="#000000" points="364.8702,-261.5001 374.8702,-258 364.8701,-254.5001 364.8702,-261.5001"/>
</g>
<!-- op_eq_1&#45;&gt;cluster_TopModule_VivadoTest_reset -->
<g id="edge10" class="edge">
<title>op_eq_1:out&#45;&gt;cluster_TopModule_VivadoTest_reset</title>
<path fill="none" stroke="#000000" d="M197.5,-425C215.7461,-425 235.9872,-424.018 252.8714,-422.9243"/>
<polygon fill="#000000" stroke="#000000" points="253.1653,-426.4125 262.9025,-422.2368 252.6866,-419.4289 253.1653,-426.4125"/>
</g>
</g>
</svg>
