<?xml version="1.0" encoding="UTF-8" standalone="no"?>
<?xml-stylesheet href="styles.css" type="text/css"?>
<!DOCTYPE svg PUBLIC "-//W3C//DTD SVG 1.1//EN"
 "http://www.w3.org/Graphics/SVG/1.1/DTD/svg11.dtd">
<!-- Generated by graphviz version 2.43.20190912.0211 (20190912.0211)
 -->
<!-- Title: TopModule_hierarchy Pages: 1 -->
<svg width="883pt" height="1070pt"
 viewBox="0.00 0.00 883.00 1070.00" xmlns="http://www.w3.org/2000/svg" xmlns:xlink="http://www.w3.org/1999/xlink">
<g id="graph0" class="graph" transform="scale(1 1) rotate(0) translate(4 1066)">
<title>TopModule_hierarchy</title>
<polygon fill="white" stroke="transparent" points="-4,4 -4,-1066 879,-1066 879,4 -4,4"/>
<!-- module_1 -->
<g id="node1" class="node">
<title>module_1</title>
<g id="a_node1"><a xlink:href="TopModule.dot.svg" xlink:title="&lt;TABLE&gt;">
<polygon fill="#ffdead" stroke="transparent" points="8.5,-665 8.5,-690 107.5,-690 107.5,-665 8.5,-665"/>
<polygon fill="none" stroke="black" points="8.5,-665 8.5,-690 107.5,-690 107.5,-665 8.5,-665"/>
<text text-anchor="start" x="13.5" y="-673.8" font-family="Times,serif" font-size="14.00"> TopModule </text>
<polygon fill="#fff8dc" stroke="transparent" points="8.5,-640 8.5,-665 107.5,-665 107.5,-640 8.5,-640"/>
<polygon fill="none" stroke="black" points="8.5,-640 8.5,-665 107.5,-665 107.5,-640 8.5,-640"/>
<text text-anchor="start" x="44.5" y="-648.8" font-family="Times,serif" font-size="14.00">Top</text>
</a>
</g>
</g>
<!-- module_2 -->
<g id="node2" class="node">
<title>module_2</title>
<g id="a_node2"><a xlink:href="Top.dot.svg" xlink:title="&lt;TABLE&gt;">
<polygon fill="#ffdead" stroke="transparent" points="159.5,-689 159.5,-714 290.5,-714 290.5,-689 159.5,-689"/>
<polygon fill="none" stroke="black" points="159.5,-689 159.5,-714 290.5,-714 290.5,-689 159.5,-689"/>
<text text-anchor="start" x="207" y="-697.8" font-family="Times,serif" font-size="14.00"> Top </text>
<polygon fill="#fff8dc" stroke="transparent" points="159.5,-664 159.5,-689 290.5,-689 290.5,-664 159.5,-664"/>
<polygon fill="none" stroke="black" points="159.5,-664 159.5,-689 290.5,-689 290.5,-664 159.5,-664"/>
<text text-anchor="start" x="205.5" y="-672.8" font-family="Times,serif" font-size="14.00">PWM</text>
<polygon fill="#fff8dc" stroke="transparent" points="159.5,-639 159.5,-664 290.5,-664 290.5,-639 159.5,-639"/>
<polygon fill="none" stroke="black" points="159.5,-639 159.5,-664 290.5,-664 290.5,-639 159.5,-639"/>
<text text-anchor="start" x="164.5" y="-647.8" font-family="Times,serif" font-size="14.00">SPIInputHandler</text>
<polygon fill="#fff8dc" stroke="transparent" points="159.5,-614 159.5,-639 290.5,-639 290.5,-614 159.5,-614"/>
<polygon fill="none" stroke="black" points="159.5,-614 159.5,-639 290.5,-639 290.5,-614 159.5,-614"/>
<text text-anchor="start" x="193" y="-622.8" font-family="Times,serif" font-size="14.00">SPISlave</text>
<polygon fill="#fff8dc" stroke="transparent" points="159.5,-589 159.5,-614 290.5,-614 290.5,-589 159.5,-589"/>
<polygon fill="none" stroke="black" points="159.5,-589 159.5,-614 290.5,-614 290.5,-589 159.5,-589"/>
<text text-anchor="start" x="170" y="-597.8" font-family="Times,serif" font-size="14.00">SoundTopLevel</text>
</a>
</g>
</g>
<!-- module_1&#45;&gt;module_2 -->
<g id="edge31" class="edge">
<title>module_1:module_2&#45;&gt;module_2</title>
<path fill="none" stroke="black" d="M108.5,-652C118.86,-652 129.75,-652 140.53,-652"/>
<polygon fill="black" stroke="black" points="140.8,-655.5 150.8,-652 140.8,-648.5 140.8,-655.5"/>
</g>
<!-- module_3 -->
<g id="node3" class="node">
<title>module_3</title>
<g id="a_node3"><a xlink:href="SoundTopLevel.dot.svg" xlink:title="&lt;TABLE&gt;">
<polygon fill="#ffdead" stroke="transparent" points="348,-619 348,-644 477,-644 477,-619 348,-619"/>
<polygon fill="none" stroke="black" points="348,-619 348,-644 477,-644 477,-619 348,-619"/>
<text text-anchor="start" x="353" y="-627.8" font-family="Times,serif" font-size="14.00"> SoundTopLevel </text>
<polygon fill="#fff8dc" stroke="transparent" points="348,-594 348,-619 477,-619 477,-594 348,-594"/>
<polygon fill="none" stroke="black" points="348,-594 348,-619 477,-619 477,-594 348,-594"/>
<text text-anchor="start" x="391" y="-602.8" font-family="Times,serif" font-size="14.00">Adder</text>
<polygon fill="#fff8dc" stroke="transparent" points="348,-569 348,-594 477,-594 477,-569 348,-569"/>
<polygon fill="none" stroke="black" points="348,-569 348,-594 477,-594 477,-569 348,-569"/>
<text text-anchor="start" x="376" y="-577.8" font-family="Times,serif" font-size="14.00">Generator</text>
<polygon fill="#fff8dc" stroke="transparent" points="348,-544 348,-569 477,-569 477,-544 348,-544"/>
<polygon fill="none" stroke="black" points="348,-544 348,-569 477,-569 477,-544 348,-544"/>
<text text-anchor="start" x="368" y="-552.8" font-family="Times,serif" font-size="14.00">Generator_1</text>
<polygon fill="#fff8dc" stroke="transparent" points="348,-519 348,-544 477,-544 477,-519 348,-519"/>
<polygon fill="none" stroke="black" points="348,-519 348,-544 477,-544 477,-519 348,-519"/>
<text text-anchor="start" x="368" y="-527.8" font-family="Times,serif" font-size="14.00">Generator_2</text>
<polygon fill="#fff8dc" stroke="transparent" points="348,-494 348,-519 477,-519 477,-494 348,-494"/>
<polygon fill="none" stroke="black" points="348,-494 348,-519 477,-519 477,-494 348,-494"/>
<text text-anchor="start" x="368" y="-502.8" font-family="Times,serif" font-size="14.00">Generator_3</text>
</a>
</g>
</g>
<!-- module_2&#45;&gt;module_3 -->
<g id="edge26" class="edge">
<title>module_2:module_3&#45;&gt;module_3</title>
<path fill="none" stroke="black" d="M291.5,-601C303.96,-601 316.9,-599.36 329.48,-596.82"/>
<polygon fill="black" stroke="black" points="330.46,-600.18 339.46,-594.6 328.94,-593.35 330.46,-600.18"/>
</g>
<!-- module_29 -->
<g id="node29" class="node">
<title>module_29</title>
<g id="a_node29"><a xlink:href="SPIInputHandler.dot.svg" xlink:title="&lt;TABLE&gt;">
<polygon fill="#ffdead" stroke="transparent" points="342,-671 342,-696 482,-696 482,-671 342,-671"/>
<polygon fill="none" stroke="black" points="342,-671 342,-696 482,-696 482,-671 342,-671"/>
<text text-anchor="start" x="347" y="-679.8" font-family="Times,serif" font-size="14.00"> SPIInputHandler </text>
</a>
</g>
</g>
<!-- module_2&#45;&gt;module_29 -->
<g id="edge27" class="edge">
<title>module_2:module_29&#45;&gt;module_29</title>
<path fill="none" stroke="black" d="M291.5,-651C302.75,-651 324.74,-656.5 346.82,-663.01"/>
<polygon fill="black" stroke="black" points="346.01,-666.42 356.59,-665.96 348.02,-659.72 346.01,-666.42"/>
</g>
<!-- module_30 -->
<g id="node30" class="node">
<title>module_30</title>
<g id="a_node30"><a xlink:href="PWM.dot.svg" xlink:title="&lt;TABLE&gt;">
<polygon fill="#ffdead" stroke="transparent" points="383,-725 383,-750 441,-750 441,-725 383,-725"/>
<polygon fill="none" stroke="black" points="383,-725 383,-750 441,-750 441,-725 383,-725"/>
<text text-anchor="start" x="388" y="-733.8" font-family="Times,serif" font-size="14.00"> PWM </text>
</a>
</g>
</g>
<!-- module_2&#45;&gt;module_30 -->
<g id="edge28" class="edge">
<title>module_2:module_30&#45;&gt;module_30</title>
<path fill="none" stroke="black" d="M291.5,-677C315.69,-677 312.84,-699.28 334,-711 343.68,-716.36 354.61,-720.97 365.14,-724.77"/>
<polygon fill="black" stroke="black" points="364.06,-728.1 374.65,-728.05 366.34,-721.48 364.06,-728.1"/>
</g>
<!-- module_31 -->
<g id="node31" class="node">
<title>module_31</title>
<g id="a_node31"><a xlink:href="SPISlave.dot.svg" xlink:title="&lt;TABLE&gt;">
<polygon fill="#ffdead" stroke="transparent" points="371,-315 371,-340 454,-340 454,-315 371,-315"/>
<polygon fill="none" stroke="black" points="371,-315 371,-340 454,-340 454,-315 371,-315"/>
<text text-anchor="start" x="376" y="-323.8" font-family="Times,serif" font-size="14.00"> SPISlave </text>
<polygon fill="#fff8dc" stroke="transparent" points="371,-290 371,-315 454,-315 454,-290 371,-290"/>
<polygon fill="none" stroke="black" points="371,-290 371,-315 454,-315 454,-290 371,-290"/>
<text text-anchor="start" x="401.5" y="-298.8" font-family="Times,serif" font-size="14.00">spi</text>
</a>
</g>
</g>
<!-- module_2&#45;&gt;module_31 -->
<g id="edge30" class="edge">
<title>module_2:module_31&#45;&gt;module_31</title>
<path fill="none" stroke="black" d="M291.5,-626C358.66,-626 310.36,-543.86 334,-481 350.84,-436.21 374.53,-386.66 391.17,-353.45"/>
<polygon fill="black" stroke="black" points="394.5,-354.62 395.87,-344.12 388.25,-351.47 394.5,-354.62"/>
</g>
<!-- module_4 -->
<g id="node4" class="node">
<title>module_4</title>
<g id="a_node4"><a xlink:href="Generator.dot.svg" xlink:title="&lt;TABLE&gt;">
<polygon fill="#ffdead" stroke="transparent" points="561.5,-473 561.5,-498 670.5,-498 670.5,-473 561.5,-473"/>
<polygon fill="none" stroke="black" points="561.5,-473 561.5,-498 670.5,-498 670.5,-473 561.5,-473"/>
<text text-anchor="start" x="575" y="-481.8" font-family="Times,serif" font-size="14.00"> Generator </text>
<polygon fill="#fff8dc" stroke="transparent" points="561.5,-448 561.5,-473 670.5,-473 670.5,-448 561.5,-448"/>
<polygon fill="none" stroke="black" points="561.5,-448 561.5,-473 670.5,-473 670.5,-448 561.5,-448"/>
<text text-anchor="start" x="566.5" y="-456.8" font-family="Times,serif" font-size="14.00">EnvelopeImpl</text>
<polygon fill="#fff8dc" stroke="transparent" points="561.5,-423 561.5,-448 670.5,-448 670.5,-423 561.5,-423"/>
<polygon fill="none" stroke="black" points="561.5,-423 561.5,-448 670.5,-448 670.5,-423 561.5,-423"/>
<text text-anchor="start" x="582" y="-431.8" font-family="Times,serif" font-size="14.00">Sawtooth</text>
<polygon fill="#fff8dc" stroke="transparent" points="561.5,-398 561.5,-423 670.5,-423 670.5,-398 561.5,-398"/>
<polygon fill="none" stroke="black" points="561.5,-398 561.5,-423 670.5,-423 670.5,-398 561.5,-398"/>
<text text-anchor="start" x="600" y="-406.8" font-family="Times,serif" font-size="14.00">Sine</text>
<polygon fill="#fff8dc" stroke="transparent" points="561.5,-373 561.5,-398 670.5,-398 670.5,-373 561.5,-373"/>
<polygon fill="none" stroke="black" points="561.5,-373 561.5,-398 670.5,-398 670.5,-373 561.5,-373"/>
<text text-anchor="start" x="590" y="-381.8" font-family="Times,serif" font-size="14.00">Square</text>
<polygon fill="#fff8dc" stroke="transparent" points="561.5,-348 561.5,-373 670.5,-373 670.5,-348 561.5,-348"/>
<polygon fill="none" stroke="black" points="561.5,-348 561.5,-373 670.5,-373 670.5,-348 561.5,-348"/>
<text text-anchor="start" x="586" y="-356.8" font-family="Times,serif" font-size="14.00">Triangle</text>
</a>
</g>
</g>
<!-- module_3&#45;&gt;module_4 -->
<g id="edge6" class="edge">
<title>module_3:module_4&#45;&gt;module_4</title>
<path fill="none" stroke="black" d="M478,-531C502.57,-531 525.3,-520.11 544.88,-505.24"/>
<polygon fill="black" stroke="black" points="547.18,-507.88 552.79,-498.89 542.8,-502.42 547.18,-507.88"/>
</g>
<!-- module_10 -->
<g id="node10" class="node">
<title>module_10</title>
<g id="a_node10"><a xlink:href="Generator.dot.svg" xlink:title="&lt;TABLE&gt;">
<polygon fill="#ffdead" stroke="transparent" points="561.5,-714 561.5,-739 670.5,-739 670.5,-714 561.5,-714"/>
<polygon fill="none" stroke="black" points="561.5,-714 561.5,-739 670.5,-739 670.5,-714 561.5,-714"/>
<text text-anchor="start" x="575" y="-722.8" font-family="Times,serif" font-size="14.00"> Generator </text>
<polygon fill="#fff8dc" stroke="transparent" points="561.5,-689 561.5,-714 670.5,-714 670.5,-689 561.5,-689"/>
<polygon fill="none" stroke="black" points="561.5,-689 561.5,-714 670.5,-714 670.5,-689 561.5,-689"/>
<text text-anchor="start" x="566.5" y="-697.8" font-family="Times,serif" font-size="14.00">EnvelopeImpl</text>
<polygon fill="#fff8dc" stroke="transparent" points="561.5,-664 561.5,-689 670.5,-689 670.5,-664 561.5,-664"/>
<polygon fill="none" stroke="black" points="561.5,-664 561.5,-689 670.5,-689 670.5,-664 561.5,-664"/>
<text text-anchor="start" x="582" y="-672.8" font-family="Times,serif" font-size="14.00">Sawtooth</text>
<polygon fill="#fff8dc" stroke="transparent" points="561.5,-639 561.5,-664 670.5,-664 670.5,-639 561.5,-639"/>
<polygon fill="none" stroke="black" points="561.5,-639 561.5,-664 670.5,-664 670.5,-639 561.5,-639"/>
<text text-anchor="start" x="600" y="-647.8" font-family="Times,serif" font-size="14.00">Sine</text>
<polygon fill="#fff8dc" stroke="transparent" points="561.5,-614 561.5,-639 670.5,-639 670.5,-614 561.5,-614"/>
<polygon fill="none" stroke="black" points="561.5,-614 561.5,-639 670.5,-639 670.5,-614 561.5,-614"/>
<text text-anchor="start" x="590" y="-622.8" font-family="Times,serif" font-size="14.00">Square</text>
<polygon fill="#fff8dc" stroke="transparent" points="561.5,-589 561.5,-614 670.5,-614 670.5,-589 561.5,-589"/>
<polygon fill="none" stroke="black" points="561.5,-589 561.5,-614 670.5,-614 670.5,-589 561.5,-589"/>
<text text-anchor="start" x="586" y="-597.8" font-family="Times,serif" font-size="14.00">Triangle</text>
</a>
</g>
</g>
<!-- module_3&#45;&gt;module_10 -->
<g id="edge12" class="edge">
<title>module_3:module_10&#45;&gt;module_10</title>
<path fill="none" stroke="black" d="M478,-556C502.57,-556 525.3,-566.89 544.88,-581.76"/>
<polygon fill="black" stroke="black" points="542.8,-584.58 552.79,-588.11 547.18,-579.12 542.8,-584.58"/>
</g>
<!-- module_16 -->
<g id="node16" class="node">
<title>module_16</title>
<g id="a_node16"><a xlink:href="Generator.dot.svg" xlink:title="&lt;TABLE&gt;">
<polygon fill="#ffdead" stroke="transparent" points="561.5,-217 561.5,-242 670.5,-242 670.5,-217 561.5,-217"/>
<polygon fill="none" stroke="black" points="561.5,-217 561.5,-242 670.5,-242 670.5,-217 561.5,-217"/>
<text text-anchor="start" x="575" y="-225.8" font-family="Times,serif" font-size="14.00"> Generator </text>
<polygon fill="#fff8dc" stroke="transparent" points="561.5,-192 561.5,-217 670.5,-217 670.5,-192 561.5,-192"/>
<polygon fill="none" stroke="black" points="561.5,-192 561.5,-217 670.5,-217 670.5,-192 561.5,-192"/>
<text text-anchor="start" x="566.5" y="-200.8" font-family="Times,serif" font-size="14.00">EnvelopeImpl</text>
<polygon fill="#fff8dc" stroke="transparent" points="561.5,-167 561.5,-192 670.5,-192 670.5,-167 561.5,-167"/>
<polygon fill="none" stroke="black" points="561.5,-167 561.5,-192 670.5,-192 670.5,-167 561.5,-167"/>
<text text-anchor="start" x="582" y="-175.8" font-family="Times,serif" font-size="14.00">Sawtooth</text>
<polygon fill="#fff8dc" stroke="transparent" points="561.5,-142 561.5,-167 670.5,-167 670.5,-142 561.5,-142"/>
<polygon fill="none" stroke="black" points="561.5,-142 561.5,-167 670.5,-167 670.5,-142 561.5,-142"/>
<text text-anchor="start" x="600" y="-150.8" font-family="Times,serif" font-size="14.00">Sine</text>
<polygon fill="#fff8dc" stroke="transparent" points="561.5,-117 561.5,-142 670.5,-142 670.5,-117 561.5,-117"/>
<polygon fill="none" stroke="black" points="561.5,-117 561.5,-142 670.5,-142 670.5,-117 561.5,-117"/>
<text text-anchor="start" x="590" y="-125.8" font-family="Times,serif" font-size="14.00">Square</text>
<polygon fill="#fff8dc" stroke="transparent" points="561.5,-92 561.5,-117 670.5,-117 670.5,-92 561.5,-92"/>
<polygon fill="none" stroke="black" points="561.5,-92 561.5,-117 670.5,-117 670.5,-92 561.5,-92"/>
<text text-anchor="start" x="586" y="-100.8" font-family="Times,serif" font-size="14.00">Triangle</text>
</a>
</g>
</g>
<!-- module_3&#45;&gt;module_16 -->
<g id="edge18" class="edge">
<title>module_3:module_16&#45;&gt;module_16</title>
<path fill="none" stroke="black" d="M478,-506C556.94,-506 496.78,-408.33 526,-335 536.64,-308.29 550.31,-280.28 563.7,-254.96"/>
<polygon fill="black" stroke="black" points="566.8,-256.59 568.42,-246.12 560.62,-253.29 566.8,-256.59"/>
</g>
<!-- module_22 -->
<g id="node22" class="node">
<title>module_22</title>
<g id="a_node22"><a xlink:href="Adder.dot.svg" xlink:title="&lt;TABLE&gt;">
<polygon fill="#ffdead" stroke="transparent" points="584.5,-1022 584.5,-1047 646.5,-1047 646.5,-1022 584.5,-1022"/>
<polygon fill="none" stroke="black" points="584.5,-1022 584.5,-1047 646.5,-1047 646.5,-1022 584.5,-1022"/>
<text text-anchor="start" x="589.5" y="-1030.8" font-family="Times,serif" font-size="14.00"> Adder </text>
</a>
</g>
</g>
<!-- module_3&#45;&gt;module_22 -->
<g id="edge19" class="edge">
<title>module_3:module_22&#45;&gt;module_22</title>
<path fill="none" stroke="black" d="M478,-607C567.75,-607 468.98,-938.69 526,-1008 536.05,-1020.21 551.45,-1027.02 566.61,-1030.78"/>
<polygon fill="black" stroke="black" points="565.97,-1034.23 576.48,-1032.84 567.4,-1027.37 565.97,-1034.23"/>
</g>
<!-- module_23 -->
<g id="node23" class="node">
<title>module_23</title>
<g id="a_node23"><a xlink:href="Generator.dot.svg" xlink:title="&lt;TABLE&gt;">
<polygon fill="#ffdead" stroke="transparent" points="561.5,-970 561.5,-995 670.5,-995 670.5,-970 561.5,-970"/>
<polygon fill="none" stroke="black" points="561.5,-970 561.5,-995 670.5,-995 670.5,-970 561.5,-970"/>
<text text-anchor="start" x="575" y="-978.8" font-family="Times,serif" font-size="14.00"> Generator </text>
<polygon fill="#fff8dc" stroke="transparent" points="561.5,-945 561.5,-970 670.5,-970 670.5,-945 561.5,-945"/>
<polygon fill="none" stroke="black" points="561.5,-945 561.5,-970 670.5,-970 670.5,-945 561.5,-945"/>
<text text-anchor="start" x="566.5" y="-953.8" font-family="Times,serif" font-size="14.00">EnvelopeImpl</text>
<polygon fill="#fff8dc" stroke="transparent" points="561.5,-920 561.5,-945 670.5,-945 670.5,-920 561.5,-920"/>
<polygon fill="none" stroke="black" points="561.5,-920 561.5,-945 670.5,-945 670.5,-920 561.5,-920"/>
<text text-anchor="start" x="582" y="-928.8" font-family="Times,serif" font-size="14.00">Sawtooth</text>
<polygon fill="#fff8dc" stroke="transparent" points="561.5,-895 561.5,-920 670.5,-920 670.5,-895 561.5,-895"/>
<polygon fill="none" stroke="black" points="561.5,-895 561.5,-920 670.5,-920 670.5,-895 561.5,-895"/>
<text text-anchor="start" x="600" y="-903.8" font-family="Times,serif" font-size="14.00">Sine</text>
<polygon fill="#fff8dc" stroke="transparent" points="561.5,-870 561.5,-895 670.5,-895 670.5,-870 561.5,-870"/>
<polygon fill="none" stroke="black" points="561.5,-870 561.5,-895 670.5,-895 670.5,-870 561.5,-870"/>
<text text-anchor="start" x="590" y="-878.8" font-family="Times,serif" font-size="14.00">Square</text>
<polygon fill="#fff8dc" stroke="transparent" points="561.5,-845 561.5,-870 670.5,-870 670.5,-845 561.5,-845"/>
<polygon fill="none" stroke="black" points="561.5,-845 561.5,-870 670.5,-870 670.5,-845 561.5,-845"/>
<text text-anchor="start" x="586" y="-853.8" font-family="Times,serif" font-size="14.00">Triangle</text>
</a>
</g>
</g>
<!-- module_3&#45;&gt;module_23 -->
<g id="edge25" class="edge">
<title>module_3:module_23&#45;&gt;module_23</title>
<path fill="none" stroke="black" d="M478,-582C556.51,-582 496.88,-679.09 526,-752 536.67,-778.7 550.34,-806.71 563.73,-832.03"/>
<polygon fill="black" stroke="black" points="560.65,-833.7 568.44,-840.87 566.82,-830.4 560.65,-833.7"/>
</g>
<!-- module_5 -->
<g id="node5" class="node">
<title>module_5</title>
<g id="a_node5"><a xlink:href="Square.dot.svg" xlink:title="&lt;TABLE&gt;">
<polygon fill="#ffdead" stroke="transparent" points="773,-329 773,-354 844,-354 844,-329 773,-329"/>
<polygon fill="none" stroke="black" points="773,-329 773,-354 844,-354 844,-329 773,-329"/>
<text text-anchor="start" x="778" y="-337.8" font-family="Times,serif" font-size="14.00"> Square </text>
</a>
</g>
</g>
<!-- module_4&#45;&gt;module_5 -->
<g id="edge1" class="edge">
<title>module_4:module_5&#45;&gt;module_5</title>
<path fill="none" stroke="black" d="M671.5,-385C687.92,-385 723.9,-373.38 754.65,-362.22"/>
<polygon fill="black" stroke="black" points="756.24,-365.36 764.42,-358.62 753.83,-358.79 756.24,-365.36"/>
</g>
<!-- module_6 -->
<g id="node6" class="node">
<title>module_6</title>
<g id="a_node6"><a xlink:href="EnvelopeImpl.dot.svg" xlink:title="&lt;TABLE&gt;">
<polygon fill="#ffdead" stroke="transparent" points="749,-491 749,-516 867,-516 867,-491 749,-491"/>
<polygon fill="none" stroke="black" points="749,-491 749,-516 867,-516 867,-491 749,-491"/>
<text text-anchor="start" x="754" y="-499.8" font-family="Times,serif" font-size="14.00"> EnvelopeImpl </text>
</a>
</g>
</g>
<!-- module_4&#45;&gt;module_6 -->
<g id="edge2" class="edge">
<title>module_4:module_6&#45;&gt;module_6</title>
<path fill="none" stroke="black" d="M671.5,-461C687.26,-461 721,-471.7 750.87,-482.42"/>
<polygon fill="black" stroke="black" points="749.81,-485.76 760.41,-485.89 752.21,-479.18 749.81,-485.76"/>
</g>
<!-- module_7 -->
<g id="node7" class="node">
<title>module_7</title>
<g id="a_node7"><a xlink:href="Triangle.dot.svg" xlink:title="&lt;TABLE&gt;">
<polygon fill="#ffdead" stroke="transparent" points="769,-275 769,-300 848,-300 848,-275 769,-275"/>
<polygon fill="none" stroke="black" points="769,-275 769,-300 848,-300 848,-275 769,-275"/>
<text text-anchor="start" x="774" y="-283.8" font-family="Times,serif" font-size="14.00"> Triangle </text>
</a>
</g>
</g>
<!-- module_4&#45;&gt;module_7 -->
<g id="edge3" class="edge">
<title>module_4:module_7&#45;&gt;module_7</title>
<path fill="none" stroke="black" d="M671.5,-360C708.3,-360 708.38,-332.04 741,-315 744.26,-313.29 747.66,-311.62 751.12,-309.99"/>
<polygon fill="black" stroke="black" points="752.68,-313.13 760.34,-305.81 749.79,-306.75 752.68,-313.13"/>
</g>
<!-- module_8 -->
<g id="node8" class="node">
<title>module_8</title>
<g id="a_node8"><a xlink:href="Sine.dot.svg" xlink:title="&lt;TABLE&gt;">
<polygon fill="#ffdead" stroke="transparent" points="783,-383 783,-408 834,-408 834,-383 783,-383"/>
<polygon fill="none" stroke="black" points="783,-383 783,-408 834,-408 834,-383 783,-383"/>
<text text-anchor="start" x="788" y="-391.8" font-family="Times,serif" font-size="14.00"> Sine </text>
</a>
</g>
</g>
<!-- module_4&#45;&gt;module_8 -->
<g id="edge4" class="edge">
<title>module_4:module_8&#45;&gt;module_8</title>
<path fill="none" stroke="black" d="M671.5,-410C702.61,-410 737.52,-406.3 764.12,-402.71"/>
<polygon fill="black" stroke="black" points="764.82,-406.15 774.24,-401.29 763.85,-399.21 764.82,-406.15"/>
</g>
<!-- module_9 -->
<g id="node9" class="node">
<title>module_9</title>
<g id="a_node9"><a xlink:href="Sawtooth.dot.svg" xlink:title="&lt;TABLE&gt;">
<polygon fill="#ffdead" stroke="transparent" points="765,-437 765,-462 852,-462 852,-437 765,-437"/>
<polygon fill="none" stroke="black" points="765,-437 765,-462 852,-462 852,-437 765,-437"/>
<text text-anchor="start" x="770" y="-445.8" font-family="Times,serif" font-size="14.00"> Sawtooth </text>
</a>
</g>
</g>
<!-- module_4&#45;&gt;module_9 -->
<g id="edge5" class="edge">
<title>module_4:module_9&#45;&gt;module_9</title>
<path fill="none" stroke="black" d="M671.5,-436C696.02,-436 722.89,-438.3 746.2,-441.03"/>
<polygon fill="black" stroke="black" points="745.94,-444.52 756.3,-442.26 746.8,-437.57 745.94,-444.52"/>
</g>
<!-- module_11 -->
<g id="node11" class="node">
<title>module_11</title>
<g id="a_node11"><a xlink:href="Square.dot.svg" xlink:title="&lt;TABLE&gt;">
<polygon fill="#ffdead" stroke="transparent" points="773,-599 773,-624 844,-624 844,-599 773,-599"/>
<polygon fill="none" stroke="black" points="773,-599 773,-624 844,-624 844,-599 773,-599"/>
<text text-anchor="start" x="778" y="-607.8" font-family="Times,serif" font-size="14.00"> Square </text>
</a>
</g>
</g>
<!-- module_10&#45;&gt;module_11 -->
<g id="edge7" class="edge">
<title>module_10:module_11&#45;&gt;module_11</title>
<path fill="none" stroke="black" d="M671.5,-626C698.94,-626 729.33,-623.12 754.37,-619.98"/>
<polygon fill="black" stroke="black" points="754.93,-623.44 764.4,-618.67 754.03,-616.5 754.93,-623.44"/>
</g>
<!-- module_12 -->
<g id="node12" class="node">
<title>module_12</title>
<g id="a_node12"><a xlink:href="EnvelopeImpl.dot.svg" xlink:title="&lt;TABLE&gt;">
<polygon fill="#ffdead" stroke="transparent" points="749,-761 749,-786 867,-786 867,-761 749,-761"/>
<polygon fill="none" stroke="black" points="749,-761 749,-786 867,-786 867,-761 749,-761"/>
<text text-anchor="start" x="754" y="-769.8" font-family="Times,serif" font-size="14.00"> EnvelopeImpl </text>
</a>
</g>
</g>
<!-- module_10&#45;&gt;module_12 -->
<g id="edge8" class="edge">
<title>module_10:module_12&#45;&gt;module_12</title>
<path fill="none" stroke="black" d="M671.5,-702C708.3,-702 708.38,-729.96 741,-747 744.06,-748.6 747.23,-750.16 750.45,-751.69"/>
<polygon fill="black" stroke="black" points="749.09,-754.92 759.64,-755.88 751.99,-748.55 749.09,-754.92"/>
</g>
<!-- module_13 -->
<g id="node13" class="node">
<title>module_13</title>
<g id="a_node13"><a xlink:href="Triangle.dot.svg" xlink:title="&lt;TABLE&gt;">
<polygon fill="#ffdead" stroke="transparent" points="769,-545 769,-570 848,-570 848,-545 769,-545"/>
<polygon fill="none" stroke="black" points="769,-545 769,-570 848,-570 848,-545 769,-545"/>
<text text-anchor="start" x="774" y="-553.8" font-family="Times,serif" font-size="14.00"> Triangle </text>
</a>
</g>
</g>
<!-- module_10&#45;&gt;module_13 -->
<g id="edge9" class="edge">
<title>module_10:module_13&#45;&gt;module_13</title>
<path fill="none" stroke="black" d="M671.5,-601C687.26,-601 721,-590.3 750.87,-579.58"/>
<polygon fill="black" stroke="black" points="752.21,-582.82 760.41,-576.11 749.81,-576.24 752.21,-582.82"/>
</g>
<!-- module_14 -->
<g id="node14" class="node">
<title>module_14</title>
<g id="a_node14"><a xlink:href="Sine.dot.svg" xlink:title="&lt;TABLE&gt;">
<polygon fill="#ffdead" stroke="transparent" points="783,-653 783,-678 834,-678 834,-653 783,-653"/>
<polygon fill="none" stroke="black" points="783,-653 783,-678 834,-678 834,-653 783,-653"/>
<text text-anchor="start" x="788" y="-661.8" font-family="Times,serif" font-size="14.00"> Sine </text>
</a>
</g>
</g>
<!-- module_10&#45;&gt;module_14 -->
<g id="edge10" class="edge">
<title>module_10:module_14&#45;&gt;module_14</title>
<path fill="none" stroke="black" d="M671.5,-651C702.63,-651 737.55,-654.96 764.14,-658.81"/>
<polygon fill="black" stroke="black" points="763.85,-662.31 774.26,-660.33 764.89,-655.38 763.85,-662.31"/>
</g>
<!-- module_15 -->
<g id="node15" class="node">
<title>module_15</title>
<g id="a_node15"><a xlink:href="Sawtooth.dot.svg" xlink:title="&lt;TABLE&gt;">
<polygon fill="#ffdead" stroke="transparent" points="765,-707 765,-732 852,-732 852,-707 765,-707"/>
<polygon fill="none" stroke="black" points="765,-707 765,-732 852,-732 852,-707 765,-707"/>
<text text-anchor="start" x="770" y="-715.8" font-family="Times,serif" font-size="14.00"> Sawtooth </text>
</a>
</g>
</g>
<!-- module_10&#45;&gt;module_15 -->
<g id="edge11" class="edge">
<title>module_10:module_15&#45;&gt;module_15</title>
<path fill="none" stroke="black" d="M671.5,-677C687.26,-677 721,-687.7 750.87,-698.42"/>
<polygon fill="black" stroke="black" points="749.81,-701.76 760.41,-701.89 752.21,-695.18 749.81,-701.76"/>
</g>
<!-- module_17 -->
<g id="node17" class="node">
<title>module_17</title>
<g id="a_node17"><a xlink:href="Square.dot.svg" xlink:title="&lt;TABLE&gt;">
<polygon fill="#ffdead" stroke="transparent" points="773,-59 773,-84 844,-84 844,-59 773,-59"/>
<polygon fill="none" stroke="black" points="773,-59 773,-84 844,-84 844,-59 773,-59"/>
<text text-anchor="start" x="778" y="-67.8" font-family="Times,serif" font-size="14.00"> Square </text>
</a>
</g>
</g>
<!-- module_16&#45;&gt;module_17 -->
<g id="edge13" class="edge">
<title>module_16:module_17&#45;&gt;module_17</title>
<path fill="none" stroke="black" d="M671.5,-129C705.14,-129 709.98,-112.04 741,-99 745.47,-97.12 750.12,-95.18 754.79,-93.25"/>
<polygon fill="black" stroke="black" points="756.44,-96.36 764.35,-89.31 753.77,-89.89 756.44,-96.36"/>
</g>
<!-- module_18 -->
<g id="node18" class="node">
<title>module_18</title>
<g id="a_node18"><a xlink:href="EnvelopeImpl.dot.svg" xlink:title="&lt;TABLE&gt;">
<polygon fill="#ffdead" stroke="transparent" points="749,-221 749,-246 867,-246 867,-221 749,-221"/>
<polygon fill="none" stroke="black" points="749,-221 749,-246 867,-246 867,-221 749,-221"/>
<text text-anchor="start" x="754" y="-229.8" font-family="Times,serif" font-size="14.00"> EnvelopeImpl </text>
</a>
</g>
</g>
<!-- module_16&#45;&gt;module_18 -->
<g id="edge14" class="edge">
<title>module_16:module_18&#45;&gt;module_18</title>
<path fill="none" stroke="black" d="M671.5,-205C693.72,-205 717.55,-208.78 738.93,-213.6"/>
<polygon fill="black" stroke="black" points="738.35,-217.06 748.89,-215.96 739.96,-210.25 738.35,-217.06"/>
</g>
<!-- module_19 -->
<g id="node19" class="node">
<title>module_19</title>
<g id="a_node19"><a xlink:href="Triangle.dot.svg" xlink:title="&lt;TABLE&gt;">
<polygon fill="#ffdead" stroke="transparent" points="769,-5 769,-30 848,-30 848,-5 769,-5"/>
<polygon fill="none" stroke="black" points="769,-5 769,-30 848,-30 848,-5 769,-5"/>
<text text-anchor="start" x="774" y="-13.8" font-family="Times,serif" font-size="14.00"> Triangle </text>
</a>
</g>
</g>
<!-- module_16&#45;&gt;module_19 -->
<g id="edge15" class="edge">
<title>module_16:module_19&#45;&gt;module_19</title>
<path fill="none" stroke="black" d="M671.5,-104C712.02,-104 706.94,-66.95 741,-45 744.3,-42.87 747.8,-40.86 751.39,-38.96"/>
<polygon fill="black" stroke="black" points="753.04,-42.05 760.46,-34.49 749.94,-35.77 753.04,-42.05"/>
</g>
<!-- module_20 -->
<g id="node20" class="node">
<title>module_20</title>
<g id="a_node20"><a xlink:href="Sine.dot.svg" xlink:title="&lt;TABLE&gt;">
<polygon fill="#ffdead" stroke="transparent" points="783,-113 783,-138 834,-138 834,-113 783,-113"/>
<polygon fill="none" stroke="black" points="783,-113 783,-138 834,-138 834,-113 783,-113"/>
<text text-anchor="start" x="788" y="-121.8" font-family="Times,serif" font-size="14.00"> Sine </text>
</a>
</g>
</g>
<!-- module_16&#45;&gt;module_20 -->
<g id="edge16" class="edge">
<title>module_16:module_20&#45;&gt;module_20</title>
<path fill="none" stroke="black" d="M671.5,-154C703.13,-154 738.07,-146.59 764.55,-139.4"/>
<polygon fill="black" stroke="black" points="765.58,-142.74 774.26,-136.67 763.68,-136 765.58,-142.74"/>
</g>
<!-- module_21 -->
<g id="node21" class="node">
<title>module_21</title>
<g id="a_node21"><a xlink:href="Sawtooth.dot.svg" xlink:title="&lt;TABLE&gt;">
<polygon fill="#ffdead" stroke="transparent" points="765,-167 765,-192 852,-192 852,-167 765,-167"/>
<polygon fill="none" stroke="black" points="765,-167 765,-192 852,-192 852,-167 765,-167"/>
<text text-anchor="start" x="770" y="-175.8" font-family="Times,serif" font-size="14.00"> Sawtooth </text>
</a>
</g>
</g>
<!-- module_16&#45;&gt;module_21 -->
<g id="edge17" class="edge">
<title>module_16:module_21&#45;&gt;module_21</title>
<path fill="none" stroke="black" d="M671.5,-180C695.99,-180 722.96,-180 746.36,-180"/>
<polygon fill="black" stroke="black" points="746.49,-183.5 756.49,-180 746.49,-176.5 746.49,-183.5"/>
</g>
<!-- module_24 -->
<g id="node24" class="node">
<title>module_24</title>
<g id="a_node24"><a xlink:href="Square.dot.svg" xlink:title="&lt;TABLE&gt;">
<polygon fill="#ffdead" stroke="transparent" points="773,-869 773,-894 844,-894 844,-869 773,-869"/>
<polygon fill="none" stroke="black" points="773,-869 773,-894 844,-894 844,-869 773,-869"/>
<text text-anchor="start" x="778" y="-877.8" font-family="Times,serif" font-size="14.00"> Square </text>
</a>
</g>
</g>
<!-- module_23&#45;&gt;module_24 -->
<g id="edge20" class="edge">
<title>module_23:module_24&#45;&gt;module_24</title>
<path fill="none" stroke="black" d="M671.5,-882C698.79,-882 729.18,-882 754.24,-882"/>
<polygon fill="black" stroke="black" points="754.28,-885.5 764.28,-882 754.28,-878.5 754.28,-885.5"/>
</g>
<!-- module_25 -->
<g id="node25" class="node">
<title>module_25</title>
<g id="a_node25"><a xlink:href="EnvelopeImpl.dot.svg" xlink:title="&lt;TABLE&gt;">
<polygon fill="#ffdead" stroke="transparent" points="749,-1031 749,-1056 867,-1056 867,-1031 749,-1031"/>
<polygon fill="none" stroke="black" points="749,-1031 749,-1056 867,-1056 867,-1031 749,-1031"/>
<text text-anchor="start" x="754" y="-1039.8" font-family="Times,serif" font-size="14.00"> EnvelopeImpl </text>
</a>
</g>
</g>
<!-- module_23&#45;&gt;module_25 -->
<g id="edge21" class="edge">
<title>module_23:module_25&#45;&gt;module_25</title>
<path fill="none" stroke="black" d="M671.5,-958C712.02,-958 706.37,-995.96 741,-1017 743.48,-1018.51 746.06,-1019.96 748.7,-1021.37"/>
<polygon fill="black" stroke="black" points="747.33,-1024.6 757.85,-1025.93 750.46,-1018.34 747.33,-1024.6"/>
</g>
<!-- module_26 -->
<g id="node26" class="node">
<title>module_26</title>
<g id="a_node26"><a xlink:href="Triangle.dot.svg" xlink:title="&lt;TABLE&gt;">
<polygon fill="#ffdead" stroke="transparent" points="769,-815 769,-840 848,-840 848,-815 769,-815"/>
<polygon fill="none" stroke="black" points="769,-815 769,-840 848,-840 848,-815 769,-815"/>
<text text-anchor="start" x="774" y="-823.8" font-family="Times,serif" font-size="14.00"> Triangle </text>
</a>
</g>
</g>
<!-- module_23&#45;&gt;module_26 -->
<g id="edge22" class="edge">
<title>module_23:module_26&#45;&gt;module_26</title>
<path fill="none" stroke="black" d="M671.5,-857C697.93,-857 726.63,-851.66 750.78,-845.56"/>
<polygon fill="black" stroke="black" points="751.71,-848.94 760.49,-843.01 749.93,-842.17 751.71,-848.94"/>
</g>
<!-- module_27 -->
<g id="node27" class="node">
<title>module_27</title>
<g id="a_node27"><a xlink:href="Sine.dot.svg" xlink:title="&lt;TABLE&gt;">
<polygon fill="#ffdead" stroke="transparent" points="783,-923 783,-948 834,-948 834,-923 783,-923"/>
<polygon fill="none" stroke="black" points="783,-923 783,-948 834,-948 834,-923 783,-923"/>
<text text-anchor="start" x="788" y="-931.8" font-family="Times,serif" font-size="14.00"> Sine </text>
</a>
</g>
</g>
<!-- module_23&#45;&gt;module_27 -->
<g id="edge23" class="edge">
<title>module_23:module_27&#45;&gt;module_27</title>
<path fill="none" stroke="black" d="M671.5,-907C703.18,-907 738.12,-914.67 764.58,-922.12"/>
<polygon fill="black" stroke="black" points="763.71,-925.51 774.29,-924.95 765.66,-918.79 763.71,-925.51"/>
</g>
<!-- module_28 -->
<g id="node28" class="node">
<title>module_28</title>
<g id="a_node28"><a xlink:href="Sawtooth.dot.svg" xlink:title="&lt;TABLE&gt;">
<polygon fill="#ffdead" stroke="transparent" points="765,-977 765,-1002 852,-1002 852,-977 765,-977"/>
<polygon fill="none" stroke="black" points="765,-977 765,-1002 852,-1002 852,-977 765,-977"/>
<text text-anchor="start" x="770" y="-985.8" font-family="Times,serif" font-size="14.00"> Sawtooth </text>
</a>
</g>
</g>
<!-- module_23&#45;&gt;module_28 -->
<g id="edge24" class="edge">
<title>module_23:module_28&#45;&gt;module_28</title>
<path fill="none" stroke="black" d="M671.5,-933C705.14,-933 709.98,-949.96 741,-963 744.92,-964.65 748.97,-966.34 753.05,-968.03"/>
<polygon fill="black" stroke="black" points="752,-971.38 762.57,-971.96 754.67,-964.91 752,-971.38"/>
</g>
<!-- module_32 -->
<g id="node32" class="node">
<title>module_32</title>
<g id="a_node32"><a xlink:href="SPI_Slave_nandland.dot.svg" xlink:title="&lt;TABLE&gt;">
<polygon fill="#ffdead" stroke="transparent" points="534.5,-39 534.5,-64 697.5,-64 697.5,-39 534.5,-39"/>
<polygon fill="none" stroke="black" points="534.5,-39 534.5,-64 697.5,-64 697.5,-39 534.5,-39"/>
<text text-anchor="start" x="539.5" y="-47.8" font-family="Times,serif" font-size="14.00"> SPI_Slave_nandland </text>
</a>
</g>
</g>
<!-- module_31&#45;&gt;module_32 -->
<g id="edge29" class="edge">
<title>module_31:module_32&#45;&gt;module_32</title>
<path fill="none" stroke="black" d="M455,-302C559.01,-302 452.01,-152.1 526,-79 526.96,-78.05 527.96,-77.13 528.99,-76.24"/>
<polygon fill="black" stroke="black" points="531.41,-78.81 537.38,-70.06 527.25,-73.17 531.41,-78.81"/>
</g>
</g>
</svg>
