<?xml version="1.0" encoding="UTF-8" standalone="no"?>
<?xml-stylesheet href="styles.css" type="text/css"?>
<!DOCTYPE svg PUBLIC "-//W3C//DTD SVG 1.1//EN"
 "http://www.w3.org/Graphics/SVG/1.1/DTD/svg11.dtd">
<!-- Generated by graphviz version 2.40.1 (0)
 -->
<!-- Title: TopModule Pages: 1 -->
<svg width="497pt" height="786pt"
 viewBox="0.00 0.00 497.00 786.00" xmlns="http://www.w3.org/2000/svg" xmlns:xlink="http://www.w3.org/1999/xlink">
<g id="graph0" class="graph" transform="scale(1 1) rotate(0) translate(4 782)">
<title>TopModule</title>
<polygon fill="#ffffff" stroke="transparent" points="-4,4 -4,-782 493,-782 493,4 -4,4"/>
<g id="clust1" class="cluster">
<title>cluster_TopModule</title>
<polygon fill="#fff8dc" stroke="#000000" points="8,-8 8,-770 481,-770 481,-8 8,-8"/>
<text text-anchor="middle" x="244.5" y="-754.8" font-family="Times,serif" font-size="14.00" fill="#000000">TopModule</text>
</g>
<g id="clust2" class="cluster">
<title>cluster_TopModule_VivadoTest</title>
<g id="a_clust2"><a xlink:href="VivadoTest.dot.svg" xlink:title="VivadoTest">
<polygon fill="#add8e6" stroke="#000000" points="233,-16 233,-739 347,-739 347,-16 233,-16"/>
<text text-anchor="middle" x="290" y="-723.8" font-family="Times,serif" font-size="14.00" fill="#000000">VivadoTest</text>
</a>
</g>
</g>
<!-- cluster_TopModule_clock -->
<g id="node1" class="node">
<title>cluster_TopModule_clock</title>
<polygon fill="#cccccc" stroke="#000000" points="182.5,-730 128.5,-730 128.5,-694 182.5,-694 182.5,-730"/>
<text text-anchor="middle" x="155.5" y="-708.3" font-family="Times,serif" font-size="14.00" fill="#000000">clock</text>
</g>
<!-- cluster_TopModule_VivadoTest_clock -->
<g id="node14" class="node">
<title>cluster_TopModule_VivadoTest_clock</title>
<polygon fill="#cccccc" stroke="#000000" points="317,-708 263,-708 263,-672 317,-672 317,-708"/>
<text text-anchor="middle" x="290" y="-686.3" font-family="Times,serif" font-size="14.00" fill="#000000">clock</text>
</g>
<!-- cluster_TopModule_clock&#45;&gt;cluster_TopModule_VivadoTest_clock -->
<g id="edge9" class="edge">
<title>cluster_TopModule_clock&#45;&gt;cluster_TopModule_VivadoTest_clock</title>
<path fill="none" stroke="#000000" d="M182.7181,-707.548C202.8629,-704.2529 230.5426,-699.7254 252.7402,-696.0945"/>
<polygon fill="#000000" stroke="#000000" points="253.5186,-699.5138 262.8224,-694.4454 252.3885,-692.6056 253.5186,-699.5138"/>
</g>
<!-- cluster_TopModule_reset -->
<g id="node2" class="node">
<title>cluster_TopModule_reset</title>
<polygon fill="#cccccc" stroke="#000000" points="70,-678 16,-678 16,-642 70,-642 70,-678"/>
<text text-anchor="middle" x="43" y="-656.3" font-family="Times,serif" font-size="14.00" fill="#000000">reset</text>
</g>
<!-- op_eq_1 -->
<g id="node27" class="node">
<title>op_eq_1</title>
<polygon fill="#d8bfd8" stroke="transparent" points="114,-622 114,-672 197,-672 197,-622 114,-622"/>
<polygon fill="none" stroke="#000000" points="114.5,-647 114.5,-672 137.5,-672 137.5,-647 114.5,-647"/>
<text text-anchor="start" x="119.5" y="-655.8" font-family="Times,serif" font-size="14.00" fill="#000000">●</text>
<polygon fill="none" stroke="#000000" points="137.5,-622 137.5,-672 174.5,-672 174.5,-622 137.5,-622"/>
<text text-anchor="start" x="142.5" y="-643.3" font-family="Times,serif" font-size="14.00" fill="#000000"> eq </text>
<polygon fill="none" stroke="#000000" points="174.5,-622 174.5,-672 197.5,-672 197.5,-622 174.5,-622"/>
<text text-anchor="start" x="179.5" y="-643.3" font-family="Times,serif" font-size="14.00" fill="#000000">●</text>
<polygon fill="none" stroke="#000000" points="114.5,-622 114.5,-647 137.5,-647 137.5,-622 114.5,-622"/>
<text text-anchor="start" x="121" y="-630.8" font-family="Times,serif" font-size="14.00" fill="#000000">0</text>
</g>
<!-- cluster_TopModule_reset&#45;&gt;op_eq_1 -->
<g id="edge4" class="edge">
<title>cluster_TopModule_reset&#45;&gt;op_eq_1:in1</title>
<path fill="none" stroke="#000000" d="M70.1617,-660C80.4912,-660 92.6034,-660 104.3386,-660"/>
<polygon fill="#000000" stroke="#000000" points="104.5,-663.5001 114.5,-660 104.5,-656.5001 104.5,-663.5001"/>
</g>
<!-- cluster_TopModule_io_btn -->
<g id="node3" class="node">
<title>cluster_TopModule_io_btn</title>
<polygon fill="#cccccc" stroke="#000000" points="185.5,-600 125.5,-600 125.5,-564 185.5,-564 185.5,-600"/>
<text text-anchor="middle" x="155.5" y="-578.3" font-family="Times,serif" font-size="14.00" fill="#000000">io_btn</text>
</g>
<!-- cluster_TopModule_VivadoTest_io_btn -->
<g id="node16" class="node">
<title>cluster_TopModule_VivadoTest_io_btn</title>
<polygon fill="#cccccc" stroke="#000000" points="320,-600 260,-600 260,-564 320,-564 320,-600"/>
<text text-anchor="middle" x="290" y="-578.3" font-family="Times,serif" font-size="14.00" fill="#000000">io_btn</text>
</g>
<!-- cluster_TopModule_io_btn&#45;&gt;cluster_TopModule_VivadoTest_io_btn -->
<g id="edge5" class="edge">
<title>cluster_TopModule_io_btn&#45;&gt;cluster_TopModule_VivadoTest_io_btn</title>
<path fill="none" stroke="#000000" d="M185.6844,-582C204.634,-582 229.2935,-582 249.8788,-582"/>
<polygon fill="#000000" stroke="#000000" points="249.9164,-585.5001 259.9163,-582 249.9163,-578.5001 249.9164,-585.5001"/>
</g>
<!-- cluster_TopModule_io_sw -->
<g id="node4" class="node">
<title>cluster_TopModule_io_sw</title>
<polygon fill="#cccccc" stroke="#000000" points="183.5,-546 127.5,-546 127.5,-510 183.5,-510 183.5,-546"/>
<text text-anchor="middle" x="155.5" y="-524.3" font-family="Times,serif" font-size="14.00" fill="#000000">io_sw</text>
</g>
<!-- cluster_TopModule_VivadoTest_io_sw -->
<g id="node17" class="node">
<title>cluster_TopModule_VivadoTest_io_sw</title>
<polygon fill="#cccccc" stroke="#000000" points="318,-546 262,-546 262,-510 318,-510 318,-546"/>
<text text-anchor="middle" x="290" y="-524.3" font-family="Times,serif" font-size="14.00" fill="#000000">io_sw</text>
</g>
<!-- cluster_TopModule_io_sw&#45;&gt;cluster_TopModule_VivadoTest_io_sw -->
<g id="edge2" class="edge">
<title>cluster_TopModule_io_sw&#45;&gt;cluster_TopModule_VivadoTest_io_sw</title>
<path fill="none" stroke="#000000" d="M183.6956,-528C203.4227,-528 230.011,-528 251.6615,-528"/>
<polygon fill="#000000" stroke="#000000" points="251.8415,-531.5001 261.8415,-528 251.8415,-524.5001 251.8415,-531.5001"/>
</g>
<!-- cluster_TopModule_io_spi_mosi -->
<g id="node5" class="node">
<title>cluster_TopModule_io_spi_mosi</title>
<polygon fill="#cccccc" stroke="#000000" points="204.5,-492 106.5,-492 106.5,-456 204.5,-456 204.5,-492"/>
<text text-anchor="middle" x="155.5" y="-470.3" font-family="Times,serif" font-size="14.00" fill="#000000">io_spi_mosi</text>
</g>
<!-- cluster_TopModule_VivadoTest_io_spi_mosi -->
<g id="node18" class="node">
<title>cluster_TopModule_VivadoTest_io_spi_mosi</title>
<polygon fill="#cccccc" stroke="#000000" points="339,-492 241,-492 241,-456 339,-456 339,-492"/>
<text text-anchor="middle" x="290" y="-470.3" font-family="Times,serif" font-size="14.00" fill="#000000">io_spi_mosi</text>
</g>
<!-- cluster_TopModule_io_spi_mosi&#45;&gt;cluster_TopModule_VivadoTest_io_spi_mosi -->
<g id="edge6" class="edge">
<title>cluster_TopModule_io_spi_mosi&#45;&gt;cluster_TopModule_VivadoTest_io_spi_mosi</title>
<path fill="none" stroke="#000000" d="M204.8191,-474C213.2255,-474 222.0351,-474 230.6682,-474"/>
<polygon fill="#000000" stroke="#000000" points="230.6869,-477.5001 240.6869,-474 230.6868,-470.5001 230.6869,-477.5001"/>
</g>
<!-- cluster_TopModule_io_spi_clk -->
<g id="node6" class="node">
<title>cluster_TopModule_io_spi_clk</title>
<polygon fill="#cccccc" stroke="#000000" points="197.5,-438 113.5,-438 113.5,-402 197.5,-402 197.5,-438"/>
<text text-anchor="middle" x="155.5" y="-416.3" font-family="Times,serif" font-size="14.00" fill="#000000">io_spi_clk</text>
</g>
<!-- cluster_TopModule_VivadoTest_io_spi_clk -->
<g id="node19" class="node">
<title>cluster_TopModule_VivadoTest_io_spi_clk</title>
<polygon fill="#cccccc" stroke="#000000" points="332,-438 248,-438 248,-402 332,-402 332,-438"/>
<text text-anchor="middle" x="290" y="-416.3" font-family="Times,serif" font-size="14.00" fill="#000000">io_spi_clk</text>
</g>
<!-- cluster_TopModule_io_spi_clk&#45;&gt;cluster_TopModule_VivadoTest_io_spi_clk -->
<g id="edge12" class="edge">
<title>cluster_TopModule_io_spi_clk&#45;&gt;cluster_TopModule_VivadoTest_io_spi_clk</title>
<path fill="none" stroke="#000000" d="M197.6876,-420C210.3318,-420 224.3553,-420 237.5746,-420"/>
<polygon fill="#000000" stroke="#000000" points="237.9621,-423.5001 247.9621,-420 237.962,-416.5001 237.9621,-423.5001"/>
</g>
<!-- cluster_TopModule_io_spi_cs_n -->
<g id="node7" class="node">
<title>cluster_TopModule_io_spi_cs_n</title>
<polygon fill="#cccccc" stroke="#000000" points="203,-384 108,-384 108,-348 203,-348 203,-384"/>
<text text-anchor="middle" x="155.5" y="-362.3" font-family="Times,serif" font-size="14.00" fill="#000000">io_spi_cs_n</text>
</g>
<!-- cluster_TopModule_VivadoTest_io_spi_cs_n -->
<g id="node20" class="node">
<title>cluster_TopModule_VivadoTest_io_spi_cs_n</title>
<polygon fill="#cccccc" stroke="#000000" points="337.5,-384 242.5,-384 242.5,-348 337.5,-348 337.5,-384"/>
<text text-anchor="middle" x="290" y="-362.3" font-family="Times,serif" font-size="14.00" fill="#000000">io_spi_cs_n</text>
</g>
<!-- cluster_TopModule_io_spi_cs_n&#45;&gt;cluster_TopModule_VivadoTest_io_spi_cs_n -->
<g id="edge13" class="edge">
<title>cluster_TopModule_io_spi_cs_n&#45;&gt;cluster_TopModule_VivadoTest_io_spi_cs_n</title>
<path fill="none" stroke="#000000" d="M203.2984,-366C212.614,-366 222.4744,-366 232.0761,-366"/>
<polygon fill="#000000" stroke="#000000" points="232.3556,-369.5001 242.3555,-366 232.3555,-362.5001 232.3556,-369.5001"/>
</g>
<!-- cluster_TopModule_io_led -->
<g id="node8" class="node">
<title>cluster_TopModule_io_led</title>
<polygon fill="#e0ffff" stroke="#000000" points="453,-60 395,-60 395,-24 453,-24 453,-60"/>
<text text-anchor="middle" x="424" y="-38.3" font-family="Times,serif" font-size="14.00" fill="#000000">io_led</text>
</g>
<!-- cluster_TopModule_io_rgbled_0 -->
<g id="node9" class="node">
<title>cluster_TopModule_io_rgbled_0</title>
<polygon fill="#e0ffff" stroke="#000000" points="473,-114 375,-114 375,-78 473,-78 473,-114"/>
<text text-anchor="middle" x="424" y="-92.3" font-family="Times,serif" font-size="14.00" fill="#000000">io_rgbled_0</text>
</g>
<!-- cluster_TopModule_io_rgbled_1 -->
<g id="node10" class="node">
<title>cluster_TopModule_io_rgbled_1</title>
<polygon fill="#e0ffff" stroke="#000000" points="473,-168 375,-168 375,-132 473,-132 473,-168"/>
<text text-anchor="middle" x="424" y="-146.3" font-family="Times,serif" font-size="14.00" fill="#000000">io_rgbled_1</text>
</g>
<!-- cluster_TopModule_io_rgbled_2 -->
<g id="node11" class="node">
<title>cluster_TopModule_io_rgbled_2</title>
<polygon fill="#e0ffff" stroke="#000000" points="473,-222 375,-222 375,-186 473,-186 473,-222"/>
<text text-anchor="middle" x="424" y="-200.3" font-family="Times,serif" font-size="14.00" fill="#000000">io_rgbled_2</text>
</g>
<!-- cluster_TopModule_io_rgbled_3 -->
<g id="node12" class="node">
<title>cluster_TopModule_io_rgbled_3</title>
<polygon fill="#e0ffff" stroke="#000000" points="473,-276 375,-276 375,-240 473,-240 473,-276"/>
<text text-anchor="middle" x="424" y="-254.3" font-family="Times,serif" font-size="14.00" fill="#000000">io_rgbled_3</text>
</g>
<!-- cluster_TopModule_io_spi_miso -->
<g id="node13" class="node">
<title>cluster_TopModule_io_spi_miso</title>
<polygon fill="#e0ffff" stroke="#000000" points="473,-330 375,-330 375,-294 473,-294 473,-330"/>
<text text-anchor="middle" x="424" y="-308.3" font-family="Times,serif" font-size="14.00" fill="#000000">io_spi_miso</text>
</g>
<!-- cluster_TopModule_VivadoTest_reset -->
<g id="node15" class="node">
<title>cluster_TopModule_VivadoTest_reset</title>
<polygon fill="#cccccc" stroke="#000000" points="317,-654 263,-654 263,-618 317,-618 317,-654"/>
<text text-anchor="middle" x="290" y="-632.3" font-family="Times,serif" font-size="14.00" fill="#000000">reset</text>
</g>
<!-- cluster_TopModule_VivadoTest_io_led -->
<g id="node21" class="node">
<title>cluster_TopModule_VivadoTest_io_led</title>
<polygon fill="#e0ffff" stroke="#000000" points="319,-60 261,-60 261,-24 319,-24 319,-60"/>
<text text-anchor="middle" x="290" y="-38.3" font-family="Times,serif" font-size="14.00" fill="#000000">io_led</text>
</g>
<!-- cluster_TopModule_VivadoTest_io_led&#45;&gt;cluster_TopModule_io_led -->
<g id="edge7" class="edge">
<title>cluster_TopModule_VivadoTest_io_led&#45;&gt;cluster_TopModule_io_led</title>
<path fill="none" stroke="#000000" d="M319.076,-42C338.3038,-42 363.7449,-42 384.7597,-42"/>
<polygon fill="#000000" stroke="#000000" points="384.9808,-45.5001 394.9807,-42 384.9807,-38.5001 384.9808,-45.5001"/>
</g>
<!-- cluster_TopModule_VivadoTest_io_rgbled_0 -->
<g id="node22" class="node">
<title>cluster_TopModule_VivadoTest_io_rgbled_0</title>
<polygon fill="#e0ffff" stroke="#000000" points="339,-114 241,-114 241,-78 339,-78 339,-114"/>
<text text-anchor="middle" x="290" y="-92.3" font-family="Times,serif" font-size="14.00" fill="#000000">io_rgbled_0</text>
</g>
<!-- cluster_TopModule_VivadoTest_io_rgbled_0&#45;&gt;cluster_TopModule_io_rgbled_0 -->
<g id="edge10" class="edge">
<title>cluster_TopModule_VivadoTest_io_rgbled_0&#45;&gt;cluster_TopModule_io_rgbled_0</title>
<path fill="none" stroke="#000000" d="M339.1358,-96C347.4198,-96 356.097,-96 364.6082,-96"/>
<polygon fill="#000000" stroke="#000000" points="364.8702,-99.5001 374.8702,-96 364.8701,-92.5001 364.8702,-99.5001"/>
</g>
<!-- cluster_TopModule_VivadoTest_io_rgbled_1 -->
<g id="node23" class="node">
<title>cluster_TopModule_VivadoTest_io_rgbled_1</title>
<polygon fill="#e0ffff" stroke="#000000" points="339,-168 241,-168 241,-132 339,-132 339,-168"/>
<text text-anchor="middle" x="290" y="-146.3" font-family="Times,serif" font-size="14.00" fill="#000000">io_rgbled_1</text>
</g>
<!-- cluster_TopModule_VivadoTest_io_rgbled_1&#45;&gt;cluster_TopModule_io_rgbled_1 -->
<g id="edge3" class="edge">
<title>cluster_TopModule_VivadoTest_io_rgbled_1&#45;&gt;cluster_TopModule_io_rgbled_1</title>
<path fill="none" stroke="#000000" d="M339.1358,-150C347.4198,-150 356.097,-150 364.6082,-150"/>
<polygon fill="#000000" stroke="#000000" points="364.8702,-153.5001 374.8702,-150 364.8701,-146.5001 364.8702,-153.5001"/>
</g>
<!-- cluster_TopModule_VivadoTest_io_rgbled_2 -->
<g id="node24" class="node">
<title>cluster_TopModule_VivadoTest_io_rgbled_2</title>
<polygon fill="#e0ffff" stroke="#000000" points="339,-222 241,-222 241,-186 339,-186 339,-222"/>
<text text-anchor="middle" x="290" y="-200.3" font-family="Times,serif" font-size="14.00" fill="#000000">io_rgbled_2</text>
</g>
<!-- cluster_TopModule_VivadoTest_io_rgbled_2&#45;&gt;cluster_TopModule_io_rgbled_2 -->
<g id="edge1" class="edge">
<title>cluster_TopModule_VivadoTest_io_rgbled_2&#45;&gt;cluster_TopModule_io_rgbled_2</title>
<path fill="none" stroke="#000000" d="M339.1358,-204C347.4198,-204 356.097,-204 364.6082,-204"/>
<polygon fill="#000000" stroke="#000000" points="364.8702,-207.5001 374.8702,-204 364.8701,-200.5001 364.8702,-207.5001"/>
</g>
<!-- cluster_TopModule_VivadoTest_io_rgbled_3 -->
<g id="node25" class="node">
<title>cluster_TopModule_VivadoTest_io_rgbled_3</title>
<polygon fill="#e0ffff" stroke="#000000" points="339,-276 241,-276 241,-240 339,-240 339,-276"/>
<text text-anchor="middle" x="290" y="-254.3" font-family="Times,serif" font-size="14.00" fill="#000000">io_rgbled_3</text>
</g>
<!-- cluster_TopModule_VivadoTest_io_rgbled_3&#45;&gt;cluster_TopModule_io_rgbled_3 -->
<g id="edge11" class="edge">
<title>cluster_TopModule_VivadoTest_io_rgbled_3&#45;&gt;cluster_TopModule_io_rgbled_3</title>
<path fill="none" stroke="#000000" d="M339.1358,-258C347.4198,-258 356.097,-258 364.6082,-258"/>
<polygon fill="#000000" stroke="#000000" points="364.8702,-261.5001 374.8702,-258 364.8701,-254.5001 364.8702,-261.5001"/>
</g>
<!-- cluster_TopModule_VivadoTest_io_spi_miso -->
<g id="node26" class="node">
<title>cluster_TopModule_VivadoTest_io_spi_miso</title>
<polygon fill="#e0ffff" stroke="#000000" points="339,-330 241,-330 241,-294 339,-294 339,-330"/>
<text text-anchor="middle" x="290" y="-308.3" font-family="Times,serif" font-size="14.00" fill="#000000">io_spi_miso</text>
</g>
<!-- cluster_TopModule_VivadoTest_io_spi_miso&#45;&gt;cluster_TopModule_io_spi_miso -->
<g id="edge8" class="edge">
<title>cluster_TopModule_VivadoTest_io_spi_miso&#45;&gt;cluster_TopModule_io_spi_miso</title>
<path fill="none" stroke="#000000" d="M339.1358,-312C347.4198,-312 356.097,-312 364.6082,-312"/>
<polygon fill="#000000" stroke="#000000" points="364.8702,-315.5001 374.8702,-312 364.8701,-308.5001 364.8702,-315.5001"/>
</g>
<!-- op_eq_1&#45;&gt;cluster_TopModule_VivadoTest_reset -->
<g id="edge14" class="edge">
<title>op_eq_1:out&#45;&gt;cluster_TopModule_VivadoTest_reset</title>
<path fill="none" stroke="#000000" d="M197.5,-647C215.8478,-647 236.1005,-644.8395 252.966,-642.4336"/>
<polygon fill="#000000" stroke="#000000" points="253.617,-645.875 262.9822,-640.9209 252.5716,-638.9535 253.617,-645.875"/>
</g>
</g>
</svg>
