<?xml version="1.0" encoding="UTF-8" standalone="no"?>
<?xml-stylesheet href="styles.css" type="text/css"?>
<!DOCTYPE svg PUBLIC "-//W3C//DTD SVG 1.1//EN"
 "http://www.w3.org/Graphics/SVG/1.1/DTD/svg11.dtd">
<!-- Generated by graphviz version 2.40.1 (0)
 -->
<!-- Title: TopModule Pages: 1 -->
<svg width="503pt" height="462pt"
 viewBox="0.00 0.00 503.00 462.00" xmlns="http://www.w3.org/2000/svg" xmlns:xlink="http://www.w3.org/1999/xlink">
<g id="graph0" class="graph" transform="scale(1 1) rotate(0) translate(4 458)">
<title>TopModule</title>
<polygon fill="#ffffff" stroke="transparent" points="-4,4 -4,-458 499,-458 499,4 -4,4"/>
<g id="clust1" class="cluster">
<title>cluster_TopModule</title>
<polygon fill="#fff8dc" stroke="#000000" points="8,-8 8,-446 487,-446 487,-8 8,-8"/>
<text text-anchor="middle" x="247.5" y="-430.8" font-family="Times,serif" font-size="14.00" fill="#000000">TopModule</text>
</g>
<g id="clust2" class="cluster">
<title>cluster_TopModule_Top</title>
<g id="a_clust2"><a xlink:href="Top.dot.svg" xlink:title="Top">
<polygon fill="#add8e6" stroke="#000000" points="233,-16 233,-415 350,-415 350,-16 233,-16"/>
<text text-anchor="middle" x="291.5" y="-399.8" font-family="Times,serif" font-size="14.00" fill="#000000">Top</text>
</a>
</g>
</g>
<!-- cluster_TopModule_clock -->
<g id="node1" class="node">
<title>cluster_TopModule_clock</title>
<polygon fill="#cccccc" stroke="#000000" points="182.5,-406 128.5,-406 128.5,-370 182.5,-370 182.5,-406"/>
<text text-anchor="middle" x="155.5" y="-384.3" font-family="Times,serif" font-size="14.00" fill="#000000">clock</text>
</g>
<!-- cluster_TopModule_Top_clock -->
<g id="node8" class="node">
<title>cluster_TopModule_Top_clock</title>
<polygon fill="#cccccc" stroke="#000000" points="318.5,-384 264.5,-384 264.5,-348 318.5,-348 318.5,-384"/>
<text text-anchor="middle" x="291.5" y="-362.3" font-family="Times,serif" font-size="14.00" fill="#000000">clock</text>
</g>
<!-- cluster_TopModule_clock&#45;&gt;cluster_TopModule_Top_clock -->
<g id="edge2" class="edge">
<title>cluster_TopModule_clock&#45;&gt;cluster_TopModule_Top_clock</title>
<path fill="none" stroke="#000000" d="M182.6948,-383.6008C203.2644,-380.2734 231.739,-375.6672 254.3993,-372.0016"/>
<polygon fill="#000000" stroke="#000000" points="255.0396,-375.4436 264.3524,-370.3915 253.9218,-368.5334 255.0396,-375.4436"/>
</g>
<!-- cluster_TopModule_reset -->
<g id="node2" class="node">
<title>cluster_TopModule_reset</title>
<polygon fill="#cccccc" stroke="#000000" points="70,-354 16,-354 16,-318 70,-318 70,-354"/>
<text text-anchor="middle" x="43" y="-332.3" font-family="Times,serif" font-size="14.00" fill="#000000">reset</text>
</g>
<!-- op_eq_1 -->
<g id="node15" class="node">
<title>op_eq_1</title>
<polygon fill="#d8bfd8" stroke="transparent" points="114,-298 114,-348 197,-348 197,-298 114,-298"/>
<polygon fill="none" stroke="#000000" points="114.5,-323 114.5,-348 137.5,-348 137.5,-323 114.5,-323"/>
<text text-anchor="start" x="119.5" y="-331.8" font-family="Times,serif" font-size="14.00" fill="#000000">●</text>
<polygon fill="none" stroke="#000000" points="137.5,-298 137.5,-348 174.5,-348 174.5,-298 137.5,-298"/>
<text text-anchor="start" x="142.5" y="-319.3" font-family="Times,serif" font-size="14.00" fill="#000000"> eq </text>
<polygon fill="none" stroke="#000000" points="174.5,-298 174.5,-348 197.5,-348 197.5,-298 174.5,-298"/>
<text text-anchor="start" x="179.5" y="-319.3" font-family="Times,serif" font-size="14.00" fill="#000000">●</text>
<polygon fill="none" stroke="#000000" points="114.5,-298 114.5,-323 137.5,-323 137.5,-298 114.5,-298"/>
<text text-anchor="start" x="121" y="-306.8" font-family="Times,serif" font-size="14.00" fill="#000000">0</text>
</g>
<!-- cluster_TopModule_reset&#45;&gt;op_eq_1 -->
<g id="edge4" class="edge">
<title>cluster_TopModule_reset&#45;&gt;op_eq_1:in1</title>
<path fill="none" stroke="#000000" d="M70.1617,-336C80.4912,-336 92.6034,-336 104.3386,-336"/>
<polygon fill="#000000" stroke="#000000" points="104.5,-339.5001 114.5,-336 104.5,-332.5001 104.5,-339.5001"/>
</g>
<!-- cluster_TopModule_io_spi_mosi -->
<g id="node3" class="node">
<title>cluster_TopModule_io_spi_mosi</title>
<polygon fill="#cccccc" stroke="#000000" points="204.5,-276 106.5,-276 106.5,-240 204.5,-240 204.5,-276"/>
<text text-anchor="middle" x="155.5" y="-254.3" font-family="Times,serif" font-size="14.00" fill="#000000">io_spi_mosi</text>
</g>
<!-- cluster_TopModule_Top_io_spi_mosi -->
<g id="node10" class="node">
<title>cluster_TopModule_Top_io_spi_mosi</title>
<polygon fill="#cccccc" stroke="#000000" points="340.5,-276 242.5,-276 242.5,-240 340.5,-240 340.5,-276"/>
<text text-anchor="middle" x="291.5" y="-254.3" font-family="Times,serif" font-size="14.00" fill="#000000">io_spi_mosi</text>
</g>
<!-- cluster_TopModule_io_spi_mosi&#45;&gt;cluster_TopModule_Top_io_spi_mosi -->
<g id="edge1" class="edge">
<title>cluster_TopModule_io_spi_mosi&#45;&gt;cluster_TopModule_Top_io_spi_mosi</title>
<path fill="none" stroke="#000000" d="M204.5991,-258C213.5546,-258 222.9851,-258 232.199,-258"/>
<polygon fill="#000000" stroke="#000000" points="232.473,-261.5001 242.4729,-258 232.4729,-254.5001 232.473,-261.5001"/>
</g>
<!-- cluster_TopModule_io_spi_clk -->
<g id="node4" class="node">
<title>cluster_TopModule_io_spi_clk</title>
<polygon fill="#cccccc" stroke="#000000" points="197.5,-222 113.5,-222 113.5,-186 197.5,-186 197.5,-222"/>
<text text-anchor="middle" x="155.5" y="-200.3" font-family="Times,serif" font-size="14.00" fill="#000000">io_spi_clk</text>
</g>
<!-- cluster_TopModule_Top_io_spi_clk -->
<g id="node11" class="node">
<title>cluster_TopModule_Top_io_spi_clk</title>
<polygon fill="#cccccc" stroke="#000000" points="333.5,-222 249.5,-222 249.5,-186 333.5,-186 333.5,-222"/>
<text text-anchor="middle" x="291.5" y="-200.3" font-family="Times,serif" font-size="14.00" fill="#000000">io_spi_clk</text>
</g>
<!-- cluster_TopModule_io_spi_clk&#45;&gt;cluster_TopModule_Top_io_spi_clk -->
<g id="edge7" class="edge">
<title>cluster_TopModule_io_spi_clk&#45;&gt;cluster_TopModule_Top_io_spi_clk</title>
<path fill="none" stroke="#000000" d="M197.7858,-204C210.8344,-204 225.3644,-204 239.0136,-204"/>
<polygon fill="#000000" stroke="#000000" points="239.2404,-207.5001 249.2404,-204 239.2404,-200.5001 239.2404,-207.5001"/>
</g>
<!-- cluster_TopModule_io_spi_cs_n -->
<g id="node5" class="node">
<title>cluster_TopModule_io_spi_cs_n</title>
<polygon fill="#cccccc" stroke="#000000" points="203,-168 108,-168 108,-132 203,-132 203,-168"/>
<text text-anchor="middle" x="155.5" y="-146.3" font-family="Times,serif" font-size="14.00" fill="#000000">io_spi_cs_n</text>
</g>
<!-- cluster_TopModule_Top_io_spi_cs_n -->
<g id="node12" class="node">
<title>cluster_TopModule_Top_io_spi_cs_n</title>
<polygon fill="#cccccc" stroke="#000000" points="339,-168 244,-168 244,-132 339,-132 339,-168"/>
<text text-anchor="middle" x="291.5" y="-146.3" font-family="Times,serif" font-size="14.00" fill="#000000">io_spi_cs_n</text>
</g>
<!-- cluster_TopModule_io_spi_cs_n&#45;&gt;cluster_TopModule_Top_io_spi_cs_n -->
<g id="edge3" class="edge">
<title>cluster_TopModule_io_spi_cs_n&#45;&gt;cluster_TopModule_Top_io_spi_cs_n</title>
<path fill="none" stroke="#000000" d="M203.0662,-150C212.9474,-150 223.4632,-150 233.6666,-150"/>
<polygon fill="#000000" stroke="#000000" points="233.7308,-153.5001 243.7308,-150 233.7307,-146.5001 233.7308,-153.5001"/>
</g>
<!-- cluster_TopModule_io_spi_miso -->
<g id="node6" class="node">
<title>cluster_TopModule_io_spi_miso</title>
<polygon fill="#e0ffff" stroke="#000000" points="477.5,-60 379.5,-60 379.5,-24 477.5,-24 477.5,-60"/>
<text text-anchor="middle" x="428.5" y="-38.3" font-family="Times,serif" font-size="14.00" fill="#000000">io_spi_miso</text>
</g>
<!-- cluster_TopModule_io_pwm_out -->
<g id="node7" class="node">
<title>cluster_TopModule_io_pwm_out</title>
<polygon fill="#e0ffff" stroke="#000000" points="479,-114 378,-114 378,-78 479,-78 479,-114"/>
<text text-anchor="middle" x="428.5" y="-92.3" font-family="Times,serif" font-size="14.00" fill="#000000">io_pwm_out</text>
</g>
<!-- cluster_TopModule_Top_reset -->
<g id="node9" class="node">
<title>cluster_TopModule_Top_reset</title>
<polygon fill="#cccccc" stroke="#000000" points="318.5,-330 264.5,-330 264.5,-294 318.5,-294 318.5,-330"/>
<text text-anchor="middle" x="291.5" y="-308.3" font-family="Times,serif" font-size="14.00" fill="#000000">reset</text>
</g>
<!-- cluster_TopModule_Top_io_spi_miso -->
<g id="node13" class="node">
<title>cluster_TopModule_Top_io_spi_miso</title>
<polygon fill="#e0ffff" stroke="#000000" points="340.5,-60 242.5,-60 242.5,-24 340.5,-24 340.5,-60"/>
<text text-anchor="middle" x="291.5" y="-38.3" font-family="Times,serif" font-size="14.00" fill="#000000">io_spi_miso</text>
</g>
<!-- cluster_TopModule_Top_io_spi_miso&#45;&gt;cluster_TopModule_io_spi_miso -->
<g id="edge6" class="edge">
<title>cluster_TopModule_Top_io_spi_miso&#45;&gt;cluster_TopModule_io_spi_miso</title>
<path fill="none" stroke="#000000" d="M340.5732,-42C349.8202,-42 359.5821,-42 369.1051,-42"/>
<polygon fill="#000000" stroke="#000000" points="369.309,-45.5001 379.309,-42 369.3089,-38.5001 369.309,-45.5001"/>
</g>
<!-- cluster_TopModule_Top_io_pwm_out -->
<g id="node14" class="node">
<title>cluster_TopModule_Top_io_pwm_out</title>
<polygon fill="#e0ffff" stroke="#000000" points="342,-114 241,-114 241,-78 342,-78 342,-114"/>
<text text-anchor="middle" x="291.5" y="-92.3" font-family="Times,serif" font-size="14.00" fill="#000000">io_pwm_out</text>
</g>
<!-- cluster_TopModule_Top_io_pwm_out&#45;&gt;cluster_TopModule_io_pwm_out -->
<g id="edge8" class="edge">
<title>cluster_TopModule_Top_io_pwm_out&#45;&gt;cluster_TopModule_io_pwm_out</title>
<path fill="none" stroke="#000000" d="M342.1245,-96C350.3614,-96 358.969,-96 367.4239,-96"/>
<polygon fill="#000000" stroke="#000000" points="367.6262,-99.5001 377.6262,-96 367.6262,-92.5001 367.6262,-99.5001"/>
</g>
<!-- op_eq_1&#45;&gt;cluster_TopModule_Top_reset -->
<g id="edge5" class="edge">
<title>op_eq_1:out&#45;&gt;cluster_TopModule_Top_reset</title>
<path fill="none" stroke="#000000" d="M197.5,-323C216.2773,-323 237.0224,-320.8079 254.2364,-318.3808"/>
<polygon fill="#000000" stroke="#000000" points="255.0753,-321.7945 264.4491,-316.8568 254.042,-314.8712 255.0753,-321.7945"/>
</g>
</g>
</svg>
