<?xml version="1.0" encoding="UTF-8" standalone="no"?>
<?xml-stylesheet href="styles.css" type="text/css"?>
<!DOCTYPE svg PUBLIC "-//W3C//DTD SVG 1.1//EN"
 "http://www.w3.org/Graphics/SVG/1.1/DTD/svg11.dtd">
<!-- Generated by graphviz version 2.40.1 (0)
 -->
<!-- Title: TopModule_hierarchy Pages: 1 -->
<svg width="779pt" height="1089pt"
 viewBox="0.00 0.00 779.00 1089.00" xmlns="http://www.w3.org/2000/svg" xmlns:xlink="http://www.w3.org/1999/xlink">
<g id="graph0" class="graph" transform="scale(1 1) rotate(0) translate(4 1085)">
<title>TopModule_hierarchy</title>
<polygon fill="#ffffff" stroke="transparent" points="-4,4 -4,-1085 775,-1085 775,4 -4,4"/>
<!-- module_1 -->
<g id="node1" class="node">
<title>module_1</title>
<g id="a_node1"><a xlink:href="TopModule.dot.svg" xlink:title="&lt;TABLE&gt;">
<polygon fill="#ffdead" stroke="transparent" points="8.5,-1003 8.5,-1028 107.5,-1028 107.5,-1003 8.5,-1003"/>
<polygon fill="none" stroke="#000000" points="8.5,-1003 8.5,-1028 107.5,-1028 107.5,-1003 8.5,-1003"/>
<text text-anchor="start" x="13.5" y="-1011.8" font-family="Times,serif" font-size="14.00" fill="#000000"> TopModule </text>
<polygon fill="#fff8dc" stroke="transparent" points="8.5,-978 8.5,-1003 107.5,-1003 107.5,-978 8.5,-978"/>
<polygon fill="none" stroke="#000000" points="8.5,-978 8.5,-1003 107.5,-1003 107.5,-978 8.5,-978"/>
<text text-anchor="start" x="44.5" y="-986.8" font-family="Times,serif" font-size="14.00" fill="#000000">Top</text>
</a>
</g>
</g>
<!-- module_2 -->
<g id="node2" class="node">
<title>module_2</title>
<g id="a_node2"><a xlink:href="Top.dot.svg" xlink:title="&lt;TABLE&gt;">
<polygon fill="#ffdead" stroke="transparent" points="159.5,-1027 159.5,-1052 290.5,-1052 290.5,-1027 159.5,-1027"/>
<polygon fill="none" stroke="#000000" points="159.5,-1027 159.5,-1052 290.5,-1052 290.5,-1027 159.5,-1027"/>
<text text-anchor="start" x="207" y="-1035.8" font-family="Times,serif" font-size="14.00" fill="#000000"> Top </text>
<polygon fill="#fff8dc" stroke="transparent" points="159.5,-1002 159.5,-1027 290.5,-1027 290.5,-1002 159.5,-1002"/>
<polygon fill="none" stroke="#000000" points="159.5,-1002 159.5,-1027 290.5,-1027 290.5,-1002 159.5,-1002"/>
<text text-anchor="start" x="205.5" y="-1010.8" font-family="Times,serif" font-size="14.00" fill="#000000">PWM</text>
<polygon fill="#fff8dc" stroke="transparent" points="159.5,-977 159.5,-1002 290.5,-1002 290.5,-977 159.5,-977"/>
<polygon fill="none" stroke="#000000" points="159.5,-977 159.5,-1002 290.5,-1002 290.5,-977 159.5,-977"/>
<text text-anchor="start" x="164.5" y="-985.8" font-family="Times,serif" font-size="14.00" fill="#000000">SPIInputHandler</text>
<polygon fill="#fff8dc" stroke="transparent" points="159.5,-952 159.5,-977 290.5,-977 290.5,-952 159.5,-952"/>
<polygon fill="none" stroke="#000000" points="159.5,-952 159.5,-977 290.5,-977 290.5,-952 159.5,-952"/>
<text text-anchor="start" x="193" y="-960.8" font-family="Times,serif" font-size="14.00" fill="#000000">SPISlave</text>
<polygon fill="#fff8dc" stroke="transparent" points="159.5,-927 159.5,-952 290.5,-952 290.5,-927 159.5,-927"/>
<polygon fill="none" stroke="#000000" points="159.5,-927 159.5,-952 290.5,-952 290.5,-927 159.5,-927"/>
<text text-anchor="start" x="170" y="-935.8" font-family="Times,serif" font-size="14.00" fill="#000000">SoundTopLevel</text>
</a>
</g>
</g>
<!-- module_1&#45;&gt;module_2 -->
<g id="edge25" class="edge">
<title>module_1:module_2&#45;&gt;module_2</title>
<path fill="none" stroke="#000000" d="M107.5,-990C118.2307,-990 129.515,-990 140.6675,-990"/>
<polygon fill="#000000" stroke="#000000" points="140.8529,-993.5001 150.8528,-990 140.8528,-986.5001 140.8529,-993.5001"/>
</g>
<!-- module_3 -->
<g id="node3" class="node">
<title>module_3</title>
<g id="a_node3"><a xlink:href="PWM.dot.svg" xlink:title="&lt;TABLE&gt;">
<polygon fill="#ffdead" stroke="transparent" points="402.5,-1050 402.5,-1075 460.5,-1075 460.5,-1050 402.5,-1050"/>
<polygon fill="none" stroke="#000000" points="402.5,-1050 402.5,-1075 460.5,-1075 460.5,-1050 402.5,-1050"/>
<text text-anchor="start" x="407.5" y="-1058.8" font-family="Times,serif" font-size="14.00" fill="#000000"> PWM </text>
</a>
</g>
</g>
<!-- module_2&#45;&gt;module_3 -->
<g id="edge1" class="edge">
<title>module_2:module_3&#45;&gt;module_3</title>
<path fill="none" stroke="#000000" d="M290.5,-1015C311.9683,-1015 313.9075,-1028.4381 334,-1036 350.1996,-1042.0968 368.3753,-1047.5007 384.6051,-1051.8417"/>
<polygon fill="#000000" stroke="#000000" points="383.8642,-1055.2655 394.4239,-1054.4039 385.6317,-1048.4923 383.8642,-1055.2655"/>
</g>
<!-- module_4 -->
<g id="node4" class="node">
<title>module_4</title>
<g id="a_node4"><a xlink:href="SPIInputHandler.dot.svg" xlink:title="&lt;TABLE&gt;">
<polygon fill="#ffdead" stroke="transparent" points="361.5,-996 361.5,-1021 501.5,-1021 501.5,-996 361.5,-996"/>
<polygon fill="none" stroke="#000000" points="361.5,-996 361.5,-1021 501.5,-1021 501.5,-996 361.5,-996"/>
<text text-anchor="start" x="366.5" y="-1004.8" font-family="Times,serif" font-size="14.00" fill="#000000"> SPIInputHandler </text>
</a>
</g>
</g>
<!-- module_2&#45;&gt;module_4 -->
<g id="edge2" class="edge">
<title>module_2:module_4&#45;&gt;module_4</title>
<path fill="none" stroke="#000000" d="M290.5,-989C307.6543,-989 325.8673,-990.4691 343.3051,-992.611"/>
<polygon fill="#000000" stroke="#000000" points="343.0984,-996.1138 353.4687,-993.9438 344.0087,-989.1732 343.0984,-996.1138"/>
</g>
<!-- module_5 -->
<g id="node5" class="node">
<title>module_5</title>
<g id="a_node5"><a xlink:href="SPISlave.dot.svg" xlink:title="&lt;TABLE&gt;">
<polygon fill="#ffdead" stroke="transparent" points="390.5,-944 390.5,-969 473.5,-969 473.5,-944 390.5,-944"/>
<polygon fill="none" stroke="#000000" points="390.5,-944 390.5,-969 473.5,-969 473.5,-944 390.5,-944"/>
<text text-anchor="start" x="395.5" y="-952.8" font-family="Times,serif" font-size="14.00" fill="#000000"> SPISlave </text>
<polygon fill="#fff8dc" stroke="transparent" points="390.5,-919 390.5,-944 473.5,-944 473.5,-919 390.5,-919"/>
<polygon fill="none" stroke="#000000" points="390.5,-919 390.5,-944 473.5,-944 473.5,-919 390.5,-919"/>
<text text-anchor="start" x="421" y="-927.8" font-family="Times,serif" font-size="14.00" fill="#000000">spi</text>
</a>
</g>
</g>
<!-- module_2&#45;&gt;module_5 -->
<g id="edge4" class="edge">
<title>module_2:module_5&#45;&gt;module_5</title>
<path fill="none" stroke="#000000" d="M290.5,-964C317.3369,-964 346.7647,-960.4044 371.7617,-956.2623"/>
<polygon fill="#000000" stroke="#000000" points="372.5634,-959.6758 381.8231,-954.5271 371.3737,-952.7777 372.5634,-959.6758"/>
</g>
<!-- module_7 -->
<g id="node7" class="node">
<title>module_7</title>
<g id="a_node7"><a xlink:href="SoundTopLevel.dot.svg" xlink:title="&lt;TABLE&gt;">
<polygon fill="#ffdead" stroke="transparent" points="342.5,-756 342.5,-781 521.5,-781 521.5,-756 342.5,-756"/>
<polygon fill="none" stroke="#000000" points="342.5,-756 342.5,-781 521.5,-781 521.5,-756 342.5,-756"/>
<text text-anchor="start" x="372.5" y="-764.8" font-family="Times,serif" font-size="14.00" fill="#000000"> SoundTopLevel </text>
<polygon fill="#fff8dc" stroke="transparent" points="342.5,-731 342.5,-756 521.5,-756 521.5,-731 342.5,-731"/>
<polygon fill="none" stroke="#000000" points="342.5,-731 342.5,-756 521.5,-756 521.5,-731 342.5,-731"/>
<text text-anchor="start" x="411" y="-739.8" font-family="Times,serif" font-size="14.00" fill="#000000">adder</text>
<polygon fill="#fff8dc" stroke="transparent" points="342.5,-706 342.5,-731 521.5,-731 521.5,-706 342.5,-706"/>
<polygon fill="none" stroke="#000000" points="342.5,-706 342.5,-731 521.5,-731 521.5,-706 342.5,-706"/>
<text text-anchor="start" x="395.5" y="-714.8" font-family="Times,serif" font-size="14.00" fill="#000000">Generator</text>
<polygon fill="#fff8dc" stroke="transparent" points="342.5,-681 342.5,-706 521.5,-706 521.5,-681 342.5,-681"/>
<polygon fill="none" stroke="#000000" points="342.5,-681 342.5,-706 521.5,-706 521.5,-681 342.5,-681"/>
<text text-anchor="start" x="387.5" y="-689.8" font-family="Times,serif" font-size="14.00" fill="#000000">Generator_1</text>
<polygon fill="#fff8dc" stroke="transparent" points="342.5,-656 342.5,-681 521.5,-681 521.5,-656 342.5,-656"/>
<polygon fill="none" stroke="#000000" points="342.5,-656 342.5,-681 521.5,-681 521.5,-656 342.5,-656"/>
<text text-anchor="start" x="383" y="-664.8" font-family="Times,serif" font-size="14.00" fill="#000000">Generator_10</text>
<polygon fill="#fff8dc" stroke="transparent" points="342.5,-631 342.5,-656 521.5,-656 521.5,-631 342.5,-631"/>
<polygon fill="none" stroke="#000000" points="342.5,-631 342.5,-656 521.5,-656 521.5,-631 342.5,-631"/>
<text text-anchor="start" x="383" y="-639.8" font-family="Times,serif" font-size="14.00" fill="#000000">Generator_11</text>
<polygon fill="#fff8dc" stroke="transparent" points="342.5,-606 342.5,-631 521.5,-631 521.5,-606 342.5,-606"/>
<polygon fill="none" stroke="#000000" points="342.5,-606 342.5,-631 521.5,-631 521.5,-606 342.5,-606"/>
<text text-anchor="start" x="383" y="-614.8" font-family="Times,serif" font-size="14.00" fill="#000000">Generator_12</text>
<polygon fill="#fff8dc" stroke="transparent" points="342.5,-581 342.5,-606 521.5,-606 521.5,-581 342.5,-581"/>
<polygon fill="none" stroke="#000000" points="342.5,-581 342.5,-606 521.5,-606 521.5,-581 342.5,-581"/>
<text text-anchor="start" x="383" y="-589.8" font-family="Times,serif" font-size="14.00" fill="#000000">Generator_13</text>
<polygon fill="#fff8dc" stroke="transparent" points="342.5,-556 342.5,-581 521.5,-581 521.5,-556 342.5,-556"/>
<polygon fill="none" stroke="#000000" points="342.5,-556 342.5,-581 521.5,-581 521.5,-556 342.5,-556"/>
<text text-anchor="start" x="383" y="-564.8" font-family="Times,serif" font-size="14.00" fill="#000000">Generator_14</text>
<polygon fill="#fff8dc" stroke="transparent" points="342.5,-531 342.5,-556 521.5,-556 521.5,-531 342.5,-531"/>
<polygon fill="none" stroke="#000000" points="342.5,-531 342.5,-556 521.5,-556 521.5,-531 342.5,-531"/>
<text text-anchor="start" x="383" y="-539.8" font-family="Times,serif" font-size="14.00" fill="#000000">Generator_15</text>
<polygon fill="#fff8dc" stroke="transparent" points="342.5,-506 342.5,-531 521.5,-531 521.5,-506 342.5,-506"/>
<polygon fill="none" stroke="#000000" points="342.5,-506 342.5,-531 521.5,-531 521.5,-506 342.5,-506"/>
<text text-anchor="start" x="387.5" y="-514.8" font-family="Times,serif" font-size="14.00" fill="#000000">Generator_2</text>
<polygon fill="#fff8dc" stroke="transparent" points="342.5,-481 342.5,-506 521.5,-506 521.5,-481 342.5,-481"/>
<polygon fill="none" stroke="#000000" points="342.5,-481 342.5,-506 521.5,-506 521.5,-481 342.5,-481"/>
<text text-anchor="start" x="387.5" y="-489.8" font-family="Times,serif" font-size="14.00" fill="#000000">Generator_3</text>
<polygon fill="#fff8dc" stroke="transparent" points="342.5,-456 342.5,-481 521.5,-481 521.5,-456 342.5,-456"/>
<polygon fill="none" stroke="#000000" points="342.5,-456 342.5,-481 521.5,-481 521.5,-456 342.5,-456"/>
<text text-anchor="start" x="387.5" y="-464.8" font-family="Times,serif" font-size="14.00" fill="#000000">Generator_4</text>
<polygon fill="#fff8dc" stroke="transparent" points="342.5,-431 342.5,-456 521.5,-456 521.5,-431 342.5,-431"/>
<polygon fill="none" stroke="#000000" points="342.5,-431 342.5,-456 521.5,-456 521.5,-431 342.5,-431"/>
<text text-anchor="start" x="387.5" y="-439.8" font-family="Times,serif" font-size="14.00" fill="#000000">Generator_5</text>
<polygon fill="#fff8dc" stroke="transparent" points="342.5,-406 342.5,-431 521.5,-431 521.5,-406 342.5,-406"/>
<polygon fill="none" stroke="#000000" points="342.5,-406 342.5,-431 521.5,-431 521.5,-406 342.5,-406"/>
<text text-anchor="start" x="387.5" y="-414.8" font-family="Times,serif" font-size="14.00" fill="#000000">Generator_6</text>
<polygon fill="#fff8dc" stroke="transparent" points="342.5,-381 342.5,-406 521.5,-406 521.5,-381 342.5,-381"/>
<polygon fill="none" stroke="#000000" points="342.5,-381 342.5,-406 521.5,-406 521.5,-381 342.5,-381"/>
<text text-anchor="start" x="387.5" y="-389.8" font-family="Times,serif" font-size="14.00" fill="#000000">Generator_7</text>
<polygon fill="#fff8dc" stroke="transparent" points="342.5,-356 342.5,-381 521.5,-381 521.5,-356 342.5,-356"/>
<polygon fill="none" stroke="#000000" points="342.5,-356 342.5,-381 521.5,-381 521.5,-356 342.5,-356"/>
<text text-anchor="start" x="387.5" y="-364.8" font-family="Times,serif" font-size="14.00" fill="#000000">Generator_8</text>
<polygon fill="#fff8dc" stroke="transparent" points="342.5,-331 342.5,-356 521.5,-356 521.5,-331 342.5,-331"/>
<polygon fill="none" stroke="#000000" points="342.5,-331 342.5,-356 521.5,-356 521.5,-331 342.5,-331"/>
<text text-anchor="start" x="387.5" y="-339.8" font-family="Times,serif" font-size="14.00" fill="#000000">Generator_9</text>
<polygon fill="#fff8dc" stroke="transparent" points="342.5,-306 342.5,-331 521.5,-331 521.5,-306 342.5,-306"/>
<polygon fill="none" stroke="#000000" points="342.5,-306 342.5,-331 521.5,-331 521.5,-306 342.5,-306"/>
<text text-anchor="start" x="347.5" y="-314.8" font-family="Times,serif" font-size="14.00" fill="#000000">generatorStateDecoder</text>
<polygon fill="#fff8dc" stroke="transparent" points="342.5,-281 342.5,-306 521.5,-306 521.5,-281 342.5,-281"/>
<polygon fill="none" stroke="#000000" points="342.5,-281 342.5,-306 521.5,-306 521.5,-281 342.5,-281"/>
<text text-anchor="start" x="361" y="-289.8" font-family="Times,serif" font-size="14.00" fill="#000000">globalStateDecoder</text>
</a>
</g>
</g>
<!-- module_2&#45;&gt;module_7 -->
<g id="edge24" class="edge">
<title>module_2:module_7&#45;&gt;module_7</title>
<path fill="none" stroke="#000000" d="M290.5,-939C309.7419,-939 336.2376,-873.3367 361.0703,-794.6947"/>
<polygon fill="#000000" stroke="#000000" points="364.4442,-795.6323 364.0898,-785.0434 357.7635,-793.5422 364.4442,-795.6323"/>
</g>
<!-- module_6 -->
<g id="node6" class="node">
<title>module_6</title>
<g id="a_node6"><a xlink:href="SPI_Slave_nandland.dot.svg" xlink:title="&lt;TABLE&gt;">
<polygon fill="#ffdead" stroke="transparent" points="587,-1031 587,-1056 750,-1056 750,-1031 587,-1031"/>
<polygon fill="none" stroke="#000000" points="587,-1031 587,-1056 750,-1056 750,-1031 587,-1031"/>
<text text-anchor="start" x="592" y="-1039.8" font-family="Times,serif" font-size="14.00" fill="#000000"> SPI_Slave_nandland </text>
</a>
</g>
</g>
<!-- module_5&#45;&gt;module_6 -->
<g id="edge3" class="edge">
<title>module_5:module_6&#45;&gt;module_6</title>
<path fill="none" stroke="#000000" d="M473.5,-931C529.3096,-931 516.3975,-989.5681 565,-1017 568.0714,-1018.7335 571.257,-1020.3586 574.5228,-1021.8818"/>
<polygon fill="#000000" stroke="#000000" points="573.3405,-1025.1831 583.9104,-1025.9101 576.1009,-1018.7503 573.3405,-1025.1831"/>
</g>
<!-- module_8 -->
<g id="node8" class="node">
<title>module_8</title>
<g id="a_node8"><a xlink:href="Generator.dot.svg" xlink:title="&lt;TABLE&gt;">
<polygon fill="#ffdead" stroke="transparent" points="622,-869 622,-894 714,-894 714,-869 622,-869"/>
<polygon fill="none" stroke="#000000" points="622,-869 622,-894 714,-894 714,-869 622,-869"/>
<text text-anchor="start" x="627" y="-877.8" font-family="Times,serif" font-size="14.00" fill="#000000"> Generator </text>
</a>
</g>
</g>
<!-- module_7&#45;&gt;module_8 -->
<g id="edge5" class="edge">
<title>module_7:module_8&#45;&gt;module_8</title>
<path fill="none" stroke="#000000" d="M521.5,-694C595.6214,-694 512.3916,-802.7857 565,-855 575.554,-865.4749 589.6445,-872.0328 604.0073,-876.1011"/>
<polygon fill="#000000" stroke="#000000" points="603.4085,-879.5579 613.9541,-878.5374 605.0739,-872.7588 603.4085,-879.5579"/>
</g>
<!-- module_9 -->
<g id="node9" class="node">
<title>module_9</title>
<g id="a_node9"><a xlink:href="Generator.dot.svg" xlink:title="&lt;TABLE&gt;">
<polygon fill="#ffdead" stroke="transparent" points="622,-383 622,-408 714,-408 714,-383 622,-383"/>
<polygon fill="none" stroke="#000000" points="622,-383 622,-408 714,-408 714,-383 622,-383"/>
<text text-anchor="start" x="627" y="-391.8" font-family="Times,serif" font-size="14.00" fill="#000000"> Generator </text>
</a>
</g>
</g>
<!-- module_7&#45;&gt;module_9 -->
<g id="edge6" class="edge">
<title>module_7:module_9&#45;&gt;module_9</title>
<path fill="none" stroke="#000000" d="M521.5,-468C549.3169,-468 540.9904,-437.0469 565,-423 576.9408,-416.014 590.7023,-410.8051 604.1995,-406.9313"/>
<polygon fill="#000000" stroke="#000000" points="605.1853,-410.2909 613.9511,-404.3402 603.3876,-403.5257 605.1853,-410.2909"/>
</g>
<!-- module_10 -->
<g id="node10" class="node">
<title>module_10</title>
<g id="a_node10"><a xlink:href="GeneratorStateDecoder.dot.svg" xlink:title="&lt;TABLE&gt;">
<polygon fill="#ffdead" stroke="transparent" points="573,-59 573,-84 763,-84 763,-59 573,-59"/>
<polygon fill="none" stroke="#000000" points="573,-59 573,-84 763,-84 763,-59 573,-59"/>
<text text-anchor="start" x="578" y="-67.8" font-family="Times,serif" font-size="14.00" fill="#000000"> GeneratorStateDecoder </text>
</a>
</g>
</g>
<!-- module_7&#45;&gt;module_10 -->
<g id="edge7" class="edge">
<title>module_7:module_10&#45;&gt;module_10</title>
<path fill="none" stroke="#000000" d="M521.5,-318C620.7349,-318 496.9772,-171.2527 565,-99 565.792,-98.1588 566.6067,-97.3425 567.4425,-96.5505"/>
<polygon fill="#000000" stroke="#000000" points="569.906,-99.0603 575.4932,-90.0584 565.5118,-93.6112 569.906,-99.0603"/>
</g>
<!-- module_11 -->
<g id="node11" class="node">
<title>module_11</title>
<g id="a_node11"><a xlink:href="Generator.dot.svg" xlink:title="&lt;TABLE&gt;">
<polygon fill="#ffdead" stroke="transparent" points="622,-707 622,-732 714,-732 714,-707 622,-707"/>
<polygon fill="none" stroke="#000000" points="622,-707 622,-732 714,-732 714,-707 622,-707"/>
<text text-anchor="start" x="627" y="-715.8" font-family="Times,serif" font-size="14.00" fill="#000000"> Generator </text>
</a>
</g>
</g>
<!-- module_7&#45;&gt;module_11 -->
<g id="edge8" class="edge">
<title>module_7:module_11&#45;&gt;module_11</title>
<path fill="none" stroke="#000000" d="M521.5,-619C559.6504,-619 534.5799,-669.9767 565,-693 576.3276,-701.5732 590.1359,-707.4324 603.9149,-711.4343"/>
<polygon fill="#000000" stroke="#000000" points="603.348,-714.9032 613.907,-714.0323 605.1096,-708.1285 603.348,-714.9032"/>
</g>
<!-- module_12 -->
<g id="node12" class="node">
<title>module_12</title>
<g id="a_node12"><a xlink:href="Generator.dot.svg" xlink:title="&lt;TABLE&gt;">
<polygon fill="#ffdead" stroke="transparent" points="622,-491 622,-516 714,-516 714,-491 622,-491"/>
<polygon fill="none" stroke="#000000" points="622,-491 622,-516 714,-516 714,-491 622,-491"/>
<text text-anchor="start" x="627" y="-499.8" font-family="Times,serif" font-size="14.00" fill="#000000"> Generator </text>
</a>
</g>
</g>
<!-- module_7&#45;&gt;module_12 -->
<g id="edge9" class="edge">
<title>module_7:module_12&#45;&gt;module_12</title>
<path fill="none" stroke="#000000" d="M521.5,-518C548.5669,-518 578.3198,-515.6026 603.9004,-512.7919"/>
<polygon fill="#000000" stroke="#000000" points="604.3127,-516.2677 613.8509,-511.6554 603.5182,-509.3129 604.3127,-516.2677"/>
</g>
<!-- module_13 -->
<g id="node13" class="node">
<title>module_13</title>
<g id="a_node13"><a xlink:href="Generator.dot.svg" xlink:title="&lt;TABLE&gt;">
<polygon fill="#ffdead" stroke="transparent" points="622,-815 622,-840 714,-840 714,-815 622,-815"/>
<polygon fill="none" stroke="#000000" points="622,-815 622,-840 714,-840 714,-815 622,-815"/>
<text text-anchor="start" x="627" y="-823.8" font-family="Times,serif" font-size="14.00" fill="#000000"> Generator </text>
</a>
</g>
</g>
<!-- module_7&#45;&gt;module_13 -->
<g id="edge10" class="edge">
<title>module_7:module_13&#45;&gt;module_13</title>
<path fill="none" stroke="#000000" d="M521.5,-669C583.2702,-669 519.9897,-758.696 565,-801 575.7258,-811.0809 589.7439,-817.5028 603.9686,-821.5666"/>
<polygon fill="#000000" stroke="#000000" points="603.262,-824.9975 613.8116,-824.0193 604.9546,-818.2052 603.262,-824.9975"/>
</g>
<!-- module_14 -->
<g id="node14" class="node">
<title>module_14</title>
<g id="a_node14"><a xlink:href="Generator.dot.svg" xlink:title="&lt;TABLE&gt;">
<polygon fill="#ffdead" stroke="transparent" points="622,-221 622,-246 714,-246 714,-221 622,-221"/>
<polygon fill="none" stroke="#000000" points="622,-221 622,-246 714,-246 714,-221 622,-221"/>
<text text-anchor="start" x="627" y="-229.8" font-family="Times,serif" font-size="14.00" fill="#000000"> Generator </text>
</a>
</g>
</g>
<!-- module_7&#45;&gt;module_14 -->
<g id="edge11" class="edge">
<title>module_7:module_14&#45;&gt;module_14</title>
<path fill="none" stroke="#000000" d="M521.5,-393C583.2702,-393 519.9897,-303.304 565,-261 575.7258,-250.9191 589.7439,-244.4972 603.9686,-240.4334"/>
<polygon fill="#000000" stroke="#000000" points="604.9546,-243.7948 613.8116,-237.9807 603.262,-237.0025 604.9546,-243.7948"/>
</g>
<!-- module_15 -->
<g id="node15" class="node">
<title>module_15</title>
<g id="a_node15"><a xlink:href="GlobalStateDecoder.dot.svg" xlink:title="&lt;TABLE&gt;">
<polygon fill="#ffdead" stroke="transparent" points="587,-5 587,-30 750,-30 750,-5 587,-5"/>
<polygon fill="none" stroke="#000000" points="587,-5 587,-30 750,-30 750,-5 587,-5"/>
<text text-anchor="start" x="592" y="-13.8" font-family="Times,serif" font-size="14.00" fill="#000000"> GlobalStateDecoder </text>
</a>
</g>
</g>
<!-- module_7&#45;&gt;module_15 -->
<g id="edge12" class="edge">
<title>module_7:module_15&#45;&gt;module_15</title>
<path fill="none" stroke="#000000" d="M521.5,-293C577.4525,-293 527.1056,-86.1667 565,-45 566.5767,-43.2871 568.2476,-41.6774 569.9995,-40.1649"/>
<polygon fill="#000000" stroke="#000000" points="572.1957,-42.894 578.1596,-34.1371 568.0366,-37.2635 572.1957,-42.894"/>
</g>
<!-- module_16 -->
<g id="node16" class="node">
<title>module_16</title>
<g id="a_node16"><a xlink:href="Generator.dot.svg" xlink:title="&lt;TABLE&gt;">
<polygon fill="#ffdead" stroke="transparent" points="622,-329 622,-354 714,-354 714,-329 622,-329"/>
<polygon fill="none" stroke="#000000" points="622,-329 622,-354 714,-354 714,-329 622,-329"/>
<text text-anchor="start" x="627" y="-337.8" font-family="Times,serif" font-size="14.00" fill="#000000"> Generator </text>
</a>
</g>
</g>
<!-- module_7&#45;&gt;module_16 -->
<g id="edge13" class="edge">
<title>module_7:module_16&#45;&gt;module_16</title>
<path fill="none" stroke="#000000" d="M521.5,-443C559.6504,-443 534.5799,-392.0233 565,-369 576.3276,-360.4268 590.1359,-354.5676 603.9149,-350.5657"/>
<polygon fill="#000000" stroke="#000000" points="605.1096,-353.8715 613.907,-347.9677 603.348,-347.0968 605.1096,-353.8715"/>
</g>
<!-- module_17 -->
<g id="node17" class="node">
<title>module_17</title>
<g id="a_node17"><a xlink:href="Adder.dot.svg" xlink:title="&lt;TABLE&gt;">
<polygon fill="#ffdead" stroke="transparent" points="637,-977 637,-1002 699,-1002 699,-977 637,-977"/>
<polygon fill="none" stroke="#000000" points="637,-977 637,-1002 699,-1002 699,-977 637,-977"/>
<text text-anchor="start" x="642" y="-985.8" font-family="Times,serif" font-size="14.00" fill="#000000"> Adder </text>
</a>
</g>
</g>
<!-- module_7&#45;&gt;module_17 -->
<g id="edge14" class="edge">
<title>module_7:module_17&#45;&gt;module_17</title>
<path fill="none" stroke="#000000" d="M521.5,-744C620.7349,-744 496.9772,-890.7473 565,-963 578.8661,-977.7284 599.6973,-984.7988 619.0056,-988.0669"/>
<polygon fill="#000000" stroke="#000000" points="618.5312,-991.5345 628.9189,-989.4497 619.4984,-984.6017 618.5312,-991.5345"/>
</g>
<!-- module_18 -->
<g id="node18" class="node">
<title>module_18</title>
<g id="a_node18"><a xlink:href="Generator.dot.svg" xlink:title="&lt;TABLE&gt;">
<polygon fill="#ffdead" stroke="transparent" points="622,-113 622,-138 714,-138 714,-113 622,-113"/>
<polygon fill="none" stroke="#000000" points="622,-113 622,-138 714,-138 714,-113 622,-113"/>
<text text-anchor="start" x="627" y="-121.8" font-family="Times,serif" font-size="14.00" fill="#000000"> Generator </text>
</a>
</g>
</g>
<!-- module_7&#45;&gt;module_18 -->
<g id="edge15" class="edge">
<title>module_7:module_18&#45;&gt;module_18</title>
<path fill="none" stroke="#000000" d="M521.5,-343C608.1293,-343 504.7099,-215.2073 565,-153 575.401,-142.2683 589.5046,-135.622 603.9352,-131.5511"/>
<polygon fill="#000000" stroke="#000000" points="605.0429,-134.884 613.9363,-129.1256 603.3931,-128.0812 605.0429,-134.884"/>
</g>
<!-- module_19 -->
<g id="node19" class="node">
<title>module_19</title>
<g id="a_node19"><a xlink:href="Generator.dot.svg" xlink:title="&lt;TABLE&gt;">
<polygon fill="#ffdead" stroke="transparent" points="622,-437 622,-462 714,-462 714,-437 622,-437"/>
<polygon fill="none" stroke="#000000" points="622,-437 622,-462 714,-462 714,-437 622,-437"/>
<text text-anchor="start" x="627" y="-445.8" font-family="Times,serif" font-size="14.00" fill="#000000"> Generator </text>
</a>
</g>
</g>
<!-- module_7&#45;&gt;module_19 -->
<g id="edge16" class="edge">
<title>module_7:module_19&#45;&gt;module_19</title>
<path fill="none" stroke="#000000" d="M521.5,-493C542.0997,-493 545.3475,-483.1744 565,-477 577.5782,-473.0482 591.1423,-469.2027 604.1667,-465.711"/>
<polygon fill="#000000" stroke="#000000" points="605.222,-469.0524 613.9961,-463.1139 603.4338,-462.2846 605.222,-469.0524"/>
</g>
<!-- module_20 -->
<g id="node20" class="node">
<title>module_20</title>
<g id="a_node20"><a xlink:href="Generator.dot.svg" xlink:title="&lt;TABLE&gt;">
<polygon fill="#ffdead" stroke="transparent" points="622,-923 622,-948 714,-948 714,-923 622,-923"/>
<polygon fill="none" stroke="#000000" points="622,-923 622,-948 714,-948 714,-923 622,-923"/>
<text text-anchor="start" x="627" y="-931.8" font-family="Times,serif" font-size="14.00" fill="#000000"> Generator </text>
</a>
</g>
</g>
<!-- module_7&#45;&gt;module_20 -->
<g id="edge17" class="edge">
<title>module_7:module_20&#45;&gt;module_20</title>
<path fill="none" stroke="#000000" d="M521.5,-719C608.1293,-719 504.7099,-846.7927 565,-909 575.401,-919.7317 589.5046,-926.378 603.9352,-930.4489"/>
<polygon fill="#000000" stroke="#000000" points="603.3931,-933.9188 613.9363,-932.8744 605.0429,-927.116 603.3931,-933.9188"/>
</g>
<!-- module_21 -->
<g id="node21" class="node">
<title>module_21</title>
<g id="a_node21"><a xlink:href="Generator.dot.svg" xlink:title="&lt;TABLE&gt;">
<polygon fill="#ffdead" stroke="transparent" points="622,-167 622,-192 714,-192 714,-167 622,-167"/>
<polygon fill="none" stroke="#000000" points="622,-167 622,-192 714,-192 714,-167 622,-167"/>
<text text-anchor="start" x="627" y="-175.8" font-family="Times,serif" font-size="14.00" fill="#000000"> Generator </text>
</a>
</g>
</g>
<!-- module_7&#45;&gt;module_21 -->
<g id="edge18" class="edge">
<title>module_7:module_21&#45;&gt;module_21</title>
<path fill="none" stroke="#000000" d="M521.5,-368C595.6214,-368 512.3916,-259.2143 565,-207 575.554,-196.5251 589.6445,-189.9672 604.0073,-185.8989"/>
<polygon fill="#000000" stroke="#000000" points="605.0739,-189.2412 613.9541,-183.4626 603.4085,-182.4421 605.0739,-189.2412"/>
</g>
<!-- module_22 -->
<g id="node22" class="node">
<title>module_22</title>
<g id="a_node22"><a xlink:href="Generator.dot.svg" xlink:title="&lt;TABLE&gt;">
<polygon fill="#ffdead" stroke="transparent" points="622,-761 622,-786 714,-786 714,-761 622,-761"/>
<polygon fill="none" stroke="#000000" points="622,-761 622,-786 714,-786 714,-761 622,-761"/>
<text text-anchor="start" x="627" y="-769.8" font-family="Times,serif" font-size="14.00" fill="#000000"> Generator </text>
</a>
</g>
</g>
<!-- module_7&#45;&gt;module_22 -->
<g id="edge19" class="edge">
<title>module_7:module_22&#45;&gt;module_22</title>
<path fill="none" stroke="#000000" d="M521.5,-644C571.1929,-644 527.4375,-714.4663 565,-747 576.0129,-756.5385 590.0071,-762.7629 604.1032,-766.8098"/>
<polygon fill="#000000" stroke="#000000" points="603.2895,-770.2142 613.8429,-769.2776 605.0088,-763.4286 603.2895,-770.2142"/>
</g>
<!-- module_23 -->
<g id="node23" class="node">
<title>module_23</title>
<g id="a_node23"><a xlink:href="Generator.dot.svg" xlink:title="&lt;TABLE&gt;">
<polygon fill="#ffdead" stroke="transparent" points="622,-653 622,-678 714,-678 714,-653 622,-653"/>
<polygon fill="none" stroke="#000000" points="622,-653 622,-678 714,-678 714,-653 622,-653"/>
<text text-anchor="start" x="627" y="-661.8" font-family="Times,serif" font-size="14.00" fill="#000000"> Generator </text>
</a>
</g>
</g>
<!-- module_7&#45;&gt;module_23 -->
<g id="edge20" class="edge">
<title>module_7:module_23&#45;&gt;module_23</title>
<path fill="none" stroke="#000000" d="M521.5,-594C549.3169,-594 540.9904,-624.9531 565,-639 576.9408,-645.986 590.7023,-651.1949 604.1995,-655.0687"/>
<polygon fill="#000000" stroke="#000000" points="603.3876,-658.4743 613.9511,-657.6598 605.1853,-651.7091 603.3876,-658.4743"/>
</g>
<!-- module_24 -->
<g id="node24" class="node">
<title>module_24</title>
<g id="a_node24"><a xlink:href="Generator.dot.svg" xlink:title="&lt;TABLE&gt;">
<polygon fill="#ffdead" stroke="transparent" points="622,-599 622,-624 714,-624 714,-599 622,-599"/>
<polygon fill="none" stroke="#000000" points="622,-599 622,-624 714,-624 714,-599 622,-599"/>
<text text-anchor="start" x="627" y="-607.8" font-family="Times,serif" font-size="14.00" fill="#000000"> Generator </text>
</a>
</g>
</g>
<!-- module_7&#45;&gt;module_24 -->
<g id="edge21" class="edge">
<title>module_7:module_24&#45;&gt;module_24</title>
<path fill="none" stroke="#000000" d="M521.5,-569C542.0997,-569 545.3475,-578.8256 565,-585 577.5782,-588.9518 591.1423,-592.7973 604.1667,-596.289"/>
<polygon fill="#000000" stroke="#000000" points="603.4338,-599.7154 613.9961,-598.8861 605.222,-592.9476 603.4338,-599.7154"/>
</g>
<!-- module_25 -->
<g id="node25" class="node">
<title>module_25</title>
<g id="a_node25"><a xlink:href="Generator.dot.svg" xlink:title="&lt;TABLE&gt;">
<polygon fill="#ffdead" stroke="transparent" points="622,-275 622,-300 714,-300 714,-275 622,-275"/>
<polygon fill="none" stroke="#000000" points="622,-275 622,-300 714,-300 714,-275 622,-275"/>
<text text-anchor="start" x="627" y="-283.8" font-family="Times,serif" font-size="14.00" fill="#000000"> Generator </text>
</a>
</g>
</g>
<!-- module_7&#45;&gt;module_25 -->
<g id="edge22" class="edge">
<title>module_7:module_25&#45;&gt;module_25</title>
<path fill="none" stroke="#000000" d="M521.5,-418C571.1929,-418 527.4375,-347.5337 565,-315 576.0129,-305.4615 590.0071,-299.2371 604.1032,-295.1902"/>
<polygon fill="#000000" stroke="#000000" points="605.0088,-298.5714 613.8429,-292.7224 603.2895,-291.7858 605.0088,-298.5714"/>
</g>
<!-- module_26 -->
<g id="node26" class="node">
<title>module_26</title>
<g id="a_node26"><a xlink:href="Generator.dot.svg" xlink:title="&lt;TABLE&gt;">
<polygon fill="#ffdead" stroke="transparent" points="622,-545 622,-570 714,-570 714,-545 622,-545"/>
<polygon fill="none" stroke="#000000" points="622,-545 622,-570 714,-570 714,-545 622,-545"/>
<text text-anchor="start" x="627" y="-553.8" font-family="Times,serif" font-size="14.00" fill="#000000"> Generator </text>
</a>
</g>
</g>
<!-- module_7&#45;&gt;module_26 -->
<g id="edge23" class="edge">
<title>module_7:module_26&#45;&gt;module_26</title>
<path fill="none" stroke="#000000" d="M521.5,-544C548.5669,-544 578.3198,-546.3974 603.9004,-549.2081"/>
<polygon fill="#000000" stroke="#000000" points="603.5182,-552.6871 613.8509,-550.3446 604.3127,-545.7323 603.5182,-552.6871"/>
</g>
</g>
</svg>
