<?xml version="1.0" encoding="UTF-8" standalone="no"?>
<?xml-stylesheet href="styles.css" type="text/css"?>
<!DOCTYPE svg PUBLIC "-//W3C//DTD SVG 1.1//EN"
 "http://www.w3.org/Graphics/SVG/1.1/DTD/svg11.dtd">
<!-- Generated by graphviz version 2.40.1 (20161225.0304)
 -->
<!-- Title: Triangle Pages: 1 -->
<svg width="2900pt" height="373pt"
 viewBox="0.00 0.00 2900.00 373.00" xmlns="http://www.w3.org/2000/svg" xmlns:xlink="http://www.w3.org/1999/xlink">
<g id="graph0" class="graph" transform="scale(1 1) rotate(0) translate(4 369)">
<title>Triangle</title>
<polygon fill="#ffffff" stroke="transparent" points="-4,4 -4,-369 2896,-369 2896,4 -4,4"/>
<g id="clust1" class="cluster">
<title>cluster_Triangle</title>
<polygon fill="#fff8dc" stroke="#000000" points="8,-8 8,-357 2884,-357 2884,-8 8,-8"/>
<text text-anchor="middle" x="1446" y="-341.8" font-family="Times,serif" font-size="14.00" fill="#000000">Triangle</text>
</g>
<!-- cluster_Triangle_io_wavelength_pos -->
<g id="node1" class="node">
<title>cluster_Triangle_io_wavelength_pos</title>
<polygon fill="#cccccc" stroke="#000000" points="138,-288 16,-288 16,-252 138,-252 138,-288"/>
<text text-anchor="middle" x="77" y="-266.3" font-family="Times,serif" font-size="14.00" fill="#000000">io_wavelength_pos</text>
</g>
<!-- op_shr_174 -->
<g id="node4" class="node">
<title>op_shr_174</title>
<polygon fill="#d8bfd8" stroke="transparent" points="182,-232 182,-282 255,-282 255,-232 182,-232"/>
<polygon fill="none" stroke="#000000" points="182.5,-257 182.5,-282 201.5,-282 201.5,-257 182.5,-257"/>
<text text-anchor="start" x="187.5" y="-265.8" font-family="Times,serif" font-size="14.00" fill="#000000">●</text>
<polygon fill="none" stroke="#000000" points="201.5,-232 201.5,-282 236.5,-282 236.5,-232 201.5,-232"/>
<text text-anchor="start" x="206.5" y="-253.3" font-family="Times,serif" font-size="14.00" fill="#000000"> shr </text>
<polygon fill="none" stroke="#000000" points="236.5,-232 236.5,-282 255.5,-282 255.5,-232 236.5,-232"/>
<text text-anchor="start" x="241.5" y="-253.3" font-family="Times,serif" font-size="14.00" fill="#000000">●</text>
<polygon fill="none" stroke="#000000" points="182.5,-232 182.5,-257 201.5,-257 201.5,-232 182.5,-232"/>
<text text-anchor="start" x="188.5" y="-240.8" font-family="Times,serif" font-size="14.00" fill="#000000">1</text>
</g>
<!-- cluster_Triangle_io_wavelength_pos&#45;&gt;op_shr_174 -->
<g id="edge23" class="edge">
<title>cluster_Triangle_io_wavelength_pos&#45;&gt;op_shr_174:in1</title>
<path fill="none" stroke="#000000" d="M138.0871,-270C149.2305,-270 160.9164,-270 172.2349,-270"/>
<polygon fill="#000000" stroke="#000000" points="172.5,-273.5001 182.5,-270 172.5,-266.5001 172.5,-273.5001"/>
</g>
<!-- op_shr_175 -->
<g id="node6" class="node">
<title>op_shr_175</title>
<polygon fill="#d8bfd8" stroke="transparent" points="182,-39 182,-89 255,-89 255,-39 182,-39"/>
<polygon fill="none" stroke="#000000" points="182.5,-64 182.5,-89 201.5,-89 201.5,-64 182.5,-64"/>
<text text-anchor="start" x="187.5" y="-72.8" font-family="Times,serif" font-size="14.00" fill="#000000">●</text>
<polygon fill="none" stroke="#000000" points="201.5,-39 201.5,-89 236.5,-89 236.5,-39 201.5,-39"/>
<text text-anchor="start" x="206.5" y="-60.3" font-family="Times,serif" font-size="14.00" fill="#000000"> shr </text>
<polygon fill="none" stroke="#000000" points="236.5,-39 236.5,-89 255.5,-89 255.5,-39 236.5,-39"/>
<text text-anchor="start" x="241.5" y="-60.3" font-family="Times,serif" font-size="14.00" fill="#000000">●</text>
<polygon fill="none" stroke="#000000" points="182.5,-39 182.5,-64 201.5,-64 201.5,-39 182.5,-39"/>
<text text-anchor="start" x="188.5" y="-47.8" font-family="Times,serif" font-size="14.00" fill="#000000">2</text>
</g>
<!-- cluster_Triangle_io_wavelength_pos&#45;&gt;op_shr_175 -->
<g id="edge37" class="edge">
<title>cluster_Triangle_io_wavelength_pos&#45;&gt;op_shr_175:in1</title>
<path fill="none" stroke="#000000" d="M86.0494,-251.7593C101.8614,-220.6635 136.434,-156.0016 174,-107 177.9246,-101.8807 183.1604,-100.3937 186.8796,-97.8942"/>
<polygon fill="#000000" stroke="#000000" points="189.9959,-99.4875 191.5,-89 183.7841,-96.2605 189.9959,-99.4875"/>
</g>
<!-- op_gt_176 -->
<g id="node9" class="node">
<title>op_gt_176</title>
<polygon fill="#d8bfd8" stroke="transparent" points="925,-196 925,-246 992,-246 992,-196 925,-196"/>
<polygon fill="none" stroke="#000000" points="925.5,-221 925.5,-246 944.5,-246 944.5,-221 925.5,-221"/>
<text text-anchor="start" x="930.5" y="-229.8" font-family="Times,serif" font-size="14.00" fill="#000000">●</text>
<polygon fill="none" stroke="#000000" points="944.5,-196 944.5,-246 973.5,-246 973.5,-196 944.5,-196"/>
<text text-anchor="start" x="949.5" y="-217.3" font-family="Times,serif" font-size="14.00" fill="#000000"> gt </text>
<polygon fill="none" stroke="#000000" points="973.5,-196 973.5,-246 992.5,-246 992.5,-196 973.5,-196"/>
<text text-anchor="start" x="978.5" y="-217.3" font-family="Times,serif" font-size="14.00" fill="#000000">●</text>
<polygon fill="none" stroke="#000000" points="925.5,-196 925.5,-221 944.5,-221 944.5,-196 925.5,-196"/>
<text text-anchor="start" x="930.5" y="-204.8" font-family="Times,serif" font-size="14.00" fill="#000000">●</text>
</g>
<!-- cluster_Triangle_io_wavelength_pos&#45;&gt;op_gt_176 -->
<g id="edge43" class="edge">
<title>cluster_Triangle_io_wavelength_pos&#45;&gt;op_gt_176:in1</title>
<path fill="none" stroke="#000000" d="M138.2119,-287.6186C150.0059,-290.4884 162.3233,-293.1293 174,-295 241.0681,-305.7451 258.5767,-305 326.5,-305 326.5,-305 326.5,-305 436,-305 569.3163,-305 607.3884,-319.5814 735,-281 752.5201,-275.7031 753.7448,-267.1049 771,-261 801.0341,-250.374 876.1279,-236.6149 915.4308,-234.3285"/>
<polygon fill="#000000" stroke="#000000" points="915.6195,-237.8243 925.5,-234 915.3912,-230.828 915.6195,-237.8243"/>
</g>
<!-- op_sub_183 -->
<g id="node16" class="node">
<title>op_sub_183</title>
<polygon fill="#d8bfd8" stroke="transparent" points="921,-272 921,-322 996,-322 996,-272 921,-272"/>
<polygon fill="none" stroke="#000000" points="921.5,-297 921.5,-322 940.5,-322 940.5,-297 921.5,-297"/>
<text text-anchor="start" x="926.5" y="-305.8" font-family="Times,serif" font-size="14.00" fill="#000000">●</text>
<polygon fill="none" stroke="#000000" points="940.5,-272 940.5,-322 977.5,-322 977.5,-272 940.5,-272"/>
<text text-anchor="start" x="945.5" y="-293.3" font-family="Times,serif" font-size="14.00" fill="#000000"> sub </text>
<polygon fill="none" stroke="#000000" points="977.5,-272 977.5,-322 996.5,-322 996.5,-272 977.5,-272"/>
<text text-anchor="start" x="982.5" y="-293.3" font-family="Times,serif" font-size="14.00" fill="#000000">●</text>
<polygon fill="none" stroke="#000000" points="921.5,-272 921.5,-297 940.5,-297 940.5,-272 921.5,-272"/>
<text text-anchor="start" x="926.5" y="-280.8" font-family="Times,serif" font-size="14.00" fill="#000000">●</text>
</g>
<!-- cluster_Triangle_io_wavelength_pos&#45;&gt;op_sub_183 -->
<g id="edge9" class="edge">
<title>cluster_Triangle_io_wavelength_pos&#45;&gt;op_sub_183:in1</title>
<path fill="none" stroke="#000000" d="M113.4477,-288.0072C131.2835,-296.0404 153.3217,-304.8391 174,-310 240.0779,-326.4919 258.3951,-325 326.5,-325 326.5,-325 326.5,-325 690.5,-325 773.508,-325 794.2759,-321.8593 877,-315 892.9603,-313.6766 899.1621,-311.2454 911.3459,-310.3462"/>
<polygon fill="#000000" stroke="#000000" points="911.6251,-313.8389 921.5,-310 911.3865,-306.8429 911.6251,-313.8389"/>
</g>
<!-- op_add_189 -->
<g id="node22" class="node">
<title>op_add_189</title>
<polygon fill="#d8bfd8" stroke="transparent" points="526,-60 526,-110 602,-110 602,-60 526,-60"/>
<polygon fill="none" stroke="#000000" points="526,-85 526,-110 545,-110 545,-85 526,-85"/>
<text text-anchor="start" x="531" y="-93.8" font-family="Times,serif" font-size="14.00" fill="#000000">●</text>
<polygon fill="none" stroke="#000000" points="545,-60 545,-110 583,-110 583,-60 545,-60"/>
<text text-anchor="start" x="550" y="-81.3" font-family="Times,serif" font-size="14.00" fill="#000000"> add </text>
<polygon fill="none" stroke="#000000" points="583,-60 583,-110 602,-110 602,-60 583,-60"/>
<text text-anchor="start" x="588" y="-81.3" font-family="Times,serif" font-size="14.00" fill="#000000">●</text>
<polygon fill="none" stroke="#000000" points="526,-60 526,-85 545,-85 545,-60 526,-60"/>
<text text-anchor="start" x="531" y="-68.8" font-family="Times,serif" font-size="14.00" fill="#000000">●</text>
</g>
<!-- cluster_Triangle_io_wavelength_pos&#45;&gt;op_add_189 -->
<g id="edge16" class="edge">
<title>cluster_Triangle_io_wavelength_pos&#45;&gt;op_add_189:in1</title>
<path fill="none" stroke="#000000" d="M110.4069,-251.7817C128.9891,-241.8136 152.6169,-229.4103 174,-219 268.6184,-172.9355 289.4141,-152.9362 390,-122 416.4686,-113.8593 480.9163,-100.8686 515.7989,-98.409"/>
<polygon fill="#000000" stroke="#000000" points="516.1483,-101.8979 526,-98 515.8678,-94.9036 516.1483,-101.8979"/>
</g>
<!-- cluster_Triangle_io_sample_out -->
<g id="node2" class="node">
<title>cluster_Triangle_io_sample_out</title>
<polygon fill="#e0ffff" stroke="#000000" points="2876,-75 2779,-75 2779,-39 2876,-39 2876,-75"/>
<text text-anchor="middle" x="2827.5" y="-53.3" font-family="Times,serif" font-size="14.00" fill="#000000">io_sample_out</text>
</g>
<!-- cluster_Triangle_half -->
<g id="node3" class="node">
<title>cluster_Triangle_half</title>
<polygon fill="none" stroke="#000000" points="463,-275 409,-275 409,-239 463,-239 463,-275"/>
<text text-anchor="middle" x="436" y="-253.3" font-family="Times,serif" font-size="14.00" fill="#000000">half</text>
</g>
<!-- op_add_179 -->
<g id="node12" class="node">
<title>op_add_179</title>
<polygon fill="#d8bfd8" stroke="transparent" points="526,-136 526,-186 602,-186 602,-136 526,-136"/>
<polygon fill="none" stroke="#000000" points="526,-161 526,-186 545,-186 545,-161 526,-161"/>
<text text-anchor="start" x="531" y="-169.8" font-family="Times,serif" font-size="14.00" fill="#000000">●</text>
<polygon fill="none" stroke="#000000" points="545,-136 545,-186 583,-186 583,-136 545,-136"/>
<text text-anchor="start" x="550" y="-157.3" font-family="Times,serif" font-size="14.00" fill="#000000"> add </text>
<polygon fill="none" stroke="#000000" points="583,-136 583,-186 602,-186 602,-136 583,-136"/>
<text text-anchor="start" x="588" y="-157.3" font-family="Times,serif" font-size="14.00" fill="#000000">●</text>
<polygon fill="none" stroke="#000000" points="526,-136 526,-161 545,-161 545,-136 526,-136"/>
<text text-anchor="start" x="531" y="-144.8" font-family="Times,serif" font-size="14.00" fill="#000000">●</text>
</g>
<!-- cluster_Triangle_half&#45;&gt;op_add_179 -->
<g id="edge8" class="edge">
<title>cluster_Triangle_half&#45;&gt;op_add_179:in1</title>
<path fill="none" stroke="#000000" d="M463.2701,-242.0863C469.5596,-238.3495 476.1249,-234.2017 482,-230 499.1744,-217.7172 501.6068,-212.3075 518,-199 521.4616,-196.19 525.4133,-195.2479 528.635,-194.0602"/>
<polygon fill="#000000" stroke="#000000" points="531.5494,-196.0172 535,-186 526.0557,-191.679 531.5494,-196.0172"/>
</g>
<!-- op_add_186 -->
<g id="node19" class="node">
<title>op_add_186</title>
<polygon fill="#d8bfd8" stroke="transparent" points="526,-212 526,-262 602,-262 602,-212 526,-212"/>
<polygon fill="none" stroke="#000000" points="526,-237 526,-262 545,-262 545,-237 526,-237"/>
<text text-anchor="start" x="531" y="-245.8" font-family="Times,serif" font-size="14.00" fill="#000000">●</text>
<polygon fill="none" stroke="#000000" points="545,-212 545,-262 583,-262 583,-212 545,-212"/>
<text text-anchor="start" x="550" y="-233.3" font-family="Times,serif" font-size="14.00" fill="#000000"> add </text>
<polygon fill="none" stroke="#000000" points="583,-212 583,-262 602,-262 602,-212 583,-212"/>
<text text-anchor="start" x="588" y="-233.3" font-family="Times,serif" font-size="14.00" fill="#000000">●</text>
<polygon fill="none" stroke="#000000" points="526,-212 526,-237 545,-237 545,-212 526,-212"/>
<text text-anchor="start" x="531" y="-220.8" font-family="Times,serif" font-size="14.00" fill="#000000">●</text>
</g>
<!-- cluster_Triangle_half&#45;&gt;op_add_186 -->
<g id="edge28" class="edge">
<title>cluster_Triangle_half&#45;&gt;op_add_186:in1</title>
<path fill="none" stroke="#000000" d="M463.1323,-253.7868C478.184,-252.2342 497.5301,-250.6057 515.917,-250.1347"/>
<polygon fill="#000000" stroke="#000000" points="516.0477,-253.6334 526,-250 515.9541,-246.634 516.0477,-253.6334"/>
</g>
<!-- op_pad_200 -->
<g id="node33" class="node">
<title>op_pad_200</title>
<polygon fill="#d8bfd8" stroke="transparent" points="1445,-136.5 1445,-161.5 1521,-161.5 1521,-136.5 1445,-136.5"/>
<polygon fill="none" stroke="#000000" points="1445,-136 1445,-161 1464,-161 1464,-136 1445,-136"/>
<text text-anchor="start" x="1450" y="-144.8" font-family="Times,serif" font-size="14.00" fill="#000000">●</text>
<polygon fill="none" stroke="#000000" points="1464,-136 1464,-161 1502,-161 1502,-136 1464,-136"/>
<text text-anchor="start" x="1469" y="-144.8" font-family="Times,serif" font-size="14.00" fill="#000000"> pad </text>
<polygon fill="none" stroke="#000000" points="1502,-136 1502,-161 1521,-161 1521,-136 1502,-136"/>
<text text-anchor="start" x="1507" y="-144.8" font-family="Times,serif" font-size="14.00" fill="#000000">●</text>
</g>
<!-- cluster_Triangle_half&#45;&gt;op_pad_200 -->
<g id="edge21" class="edge">
<title>cluster_Triangle_half&#45;&gt;op_pad_200:in1</title>
<path fill="none" stroke="#000000" d="M463.0895,-264.4912C478.9527,-268.4883 499.4527,-272.9883 518,-275 542.0013,-277.6033 715.3856,-278.0753 735,-264 767.3374,-240.7947 738.3212,-204.7221 771,-182 1014.4924,-12.6954 1142.178,-144.9566 1434.9594,-147.9487"/>
<polygon fill="#000000" stroke="#000000" points="1434.9822,-151.4488 1445,-148 1435.018,-144.4489 1434.9822,-151.4488"/>
</g>
<!-- op_shr_174&#45;&gt;cluster_Triangle_half -->
<g id="edge12" class="edge">
<title>op_shr_174:out&#45;&gt;cluster_Triangle_half</title>
<path fill="none" stroke="#000000" d="M255.5,-257C304.9846,-257 362.1003,-257 398.604,-257"/>
<polygon fill="#000000" stroke="#000000" points="398.7844,-260.5001 408.7843,-257 398.7843,-253.5001 398.7844,-260.5001"/>
</g>
<!-- cluster_Triangle_quarter -->
<g id="node5" class="node">
<title>cluster_Triangle_quarter</title>
<polygon fill="none" stroke="#000000" points="354,-87 299,-87 299,-51 354,-51 354,-87"/>
<text text-anchor="middle" x="326.5" y="-65.3" font-family="Times,serif" font-size="14.00" fill="#000000">quarter</text>
</g>
<!-- op_pad_180 -->
<g id="node13" class="node">
<title>op_pad_180</title>
<polygon fill="#d8bfd8" stroke="transparent" points="398,-136.5 398,-161.5 474,-161.5 474,-136.5 398,-136.5"/>
<polygon fill="none" stroke="#000000" points="398,-136 398,-161 417,-161 417,-136 398,-136"/>
<text text-anchor="start" x="403" y="-144.8" font-family="Times,serif" font-size="14.00" fill="#000000">●</text>
<polygon fill="none" stroke="#000000" points="417,-136 417,-161 455,-161 455,-136 417,-136"/>
<text text-anchor="start" x="422" y="-144.8" font-family="Times,serif" font-size="14.00" fill="#000000"> pad </text>
<polygon fill="none" stroke="#000000" points="455,-136 455,-161 474,-161 474,-136 455,-136"/>
<text text-anchor="start" x="460" y="-144.8" font-family="Times,serif" font-size="14.00" fill="#000000">●</text>
</g>
<!-- cluster_Triangle_quarter&#45;&gt;op_pad_180 -->
<g id="edge3" class="edge">
<title>cluster_Triangle_quarter&#45;&gt;op_pad_180:in1</title>
<path fill="none" stroke="#000000" d="M354.2035,-78.8968C374.5786,-87.9118 399.7196,-103.2921 405.6865,-125.8771"/>
<polygon fill="#000000" stroke="#000000" points="402.2422,-126.5335 407,-136 409.184,-125.6327 402.2422,-126.5335"/>
</g>
<!-- op_pad_187 -->
<g id="node20" class="node">
<title>op_pad_187</title>
<polygon fill="#d8bfd8" stroke="transparent" points="398,-190.5 398,-215.5 474,-215.5 474,-190.5 398,-190.5"/>
<polygon fill="none" stroke="#000000" points="398,-190 398,-215 417,-215 417,-190 398,-190"/>
<text text-anchor="start" x="403" y="-198.8" font-family="Times,serif" font-size="14.00" fill="#000000">●</text>
<polygon fill="none" stroke="#000000" points="417,-190 417,-215 455,-215 455,-190 417,-190"/>
<text text-anchor="start" x="422" y="-198.8" font-family="Times,serif" font-size="14.00" fill="#000000"> pad </text>
<polygon fill="none" stroke="#000000" points="455,-190 455,-215 474,-215 474,-190 455,-190"/>
<text text-anchor="start" x="460" y="-198.8" font-family="Times,serif" font-size="14.00" fill="#000000">●</text>
</g>
<!-- cluster_Triangle_quarter&#45;&gt;op_pad_187 -->
<g id="edge4" class="edge">
<title>cluster_Triangle_quarter&#45;&gt;op_pad_187:in1</title>
<path fill="none" stroke="#000000" d="M334.9013,-87.2804C345.702,-109.6362 365.9579,-147.9569 390,-176 393.0858,-179.5993 397.1707,-180.7 400.5629,-181.9905"/>
<polygon fill="#000000" stroke="#000000" points="398.0074,-184.3979 407,-190 403.4637,-180.0127 398.0074,-184.3979"/>
</g>
<!-- op_pad_190 -->
<g id="node23" class="node">
<title>op_pad_190</title>
<polygon fill="#d8bfd8" stroke="transparent" points="398,-61.5 398,-86.5 474,-86.5 474,-61.5 398,-61.5"/>
<polygon fill="none" stroke="#000000" points="398,-61 398,-86 417,-86 417,-61 398,-61"/>
<text text-anchor="start" x="403" y="-69.8" font-family="Times,serif" font-size="14.00" fill="#000000">●</text>
<polygon fill="none" stroke="#000000" points="417,-61 417,-86 455,-86 455,-61 417,-61"/>
<text text-anchor="start" x="422" y="-69.8" font-family="Times,serif" font-size="14.00" fill="#000000"> pad </text>
<polygon fill="none" stroke="#000000" points="455,-61 455,-86 474,-86 474,-61 455,-61"/>
<text text-anchor="start" x="460" y="-69.8" font-family="Times,serif" font-size="14.00" fill="#000000">●</text>
</g>
<!-- cluster_Triangle_quarter&#45;&gt;op_pad_190 -->
<g id="edge15" class="edge">
<title>cluster_Triangle_quarter&#45;&gt;op_pad_190:in1</title>
<path fill="none" stroke="#000000" d="M354.3231,-71.2804C364.4466,-71.9682 376.2173,-72.6108 387.6511,-72.8742"/>
<polygon fill="#000000" stroke="#000000" points="387.9582,-76.3781 398,-73 388.0433,-69.3786 387.9582,-76.3781"/>
</g>
<!-- op_pad_201 -->
<g id="node34" class="node">
<title>op_pad_201</title>
<polygon fill="#d8bfd8" stroke="transparent" points="1317,-70.5 1317,-95.5 1393,-95.5 1393,-70.5 1317,-70.5"/>
<polygon fill="none" stroke="#000000" points="1317,-70 1317,-95 1336,-95 1336,-70 1317,-70"/>
<text text-anchor="start" x="1322" y="-78.8" font-family="Times,serif" font-size="14.00" fill="#000000">●</text>
<polygon fill="none" stroke="#000000" points="1336,-70 1336,-95 1374,-95 1374,-70 1336,-70"/>
<text text-anchor="start" x="1341" y="-78.8" font-family="Times,serif" font-size="14.00" fill="#000000"> pad </text>
<polygon fill="none" stroke="#000000" points="1374,-70 1374,-95 1393,-95 1393,-70 1374,-70"/>
<text text-anchor="start" x="1379" y="-78.8" font-family="Times,serif" font-size="14.00" fill="#000000">●</text>
</g>
<!-- cluster_Triangle_quarter&#45;&gt;op_pad_201 -->
<g id="edge31" class="edge">
<title>cluster_Triangle_quarter&#45;&gt;op_pad_201:in1</title>
<path fill="none" stroke="#000000" d="M354.1064,-57.1894C365.0662,-53.0998 377.9194,-49.0334 390,-47 557.0971,-18.8741 601.9675,-49.1466 771,-61 854.2473,-66.8377 875.0482,-71 958.5,-71 958.5,-71 958.5,-71 1094,-71 1189.743,-71 1215.9508,-81.2402 1306.8046,-81.9602"/>
<polygon fill="#000000" stroke="#000000" points="1306.9864,-85.4608 1317,-82 1307.0138,-78.4609 1306.9864,-85.4608"/>
</g>
<!-- op_asSInt_203 -->
<g id="node36" class="node">
<title>op_asSInt_203</title>
<polygon fill="#d8bfd8" stroke="transparent" points="779,-21.5 779,-46.5 869,-46.5 869,-21.5 779,-21.5"/>
<polygon fill="none" stroke="#000000" points="779,-21 779,-46 798,-46 798,-21 779,-21"/>
<text text-anchor="start" x="784" y="-29.8" font-family="Times,serif" font-size="14.00" fill="#000000">●</text>
<polygon fill="none" stroke="#000000" points="798,-21 798,-46 850,-46 850,-21 798,-21"/>
<text text-anchor="start" x="803" y="-29.8" font-family="Times,serif" font-size="14.00" fill="#000000"> asSInt </text>
<polygon fill="none" stroke="#000000" points="850,-21 850,-46 869,-46 869,-21 850,-21"/>
<text text-anchor="start" x="855" y="-29.8" font-family="Times,serif" font-size="14.00" fill="#000000">●</text>
</g>
<!-- cluster_Triangle_quarter&#45;&gt;op_asSInt_203 -->
<g id="edge11" class="edge">
<title>cluster_Triangle_quarter&#45;&gt;op_asSInt_203:in1</title>
<path fill="none" stroke="#000000" d="M350.4766,-50.9777C361.8295,-43.5447 375.9576,-35.7927 390,-32 553.4859,12.1553 604.043,-31.1483 768.5172,-32.943"/>
<polygon fill="#000000" stroke="#000000" points="768.9811,-36.4455 779,-33 769.0192,-29.4456 768.9811,-36.4455"/>
</g>
<!-- op_shr_175&#45;&gt;cluster_Triangle_quarter -->
<g id="edge36" class="edge">
<title>op_shr_175:out&#45;&gt;cluster_Triangle_quarter</title>
<path fill="none" stroke="#000000" d="M255.5,-64C266.2505,-64 277.8941,-64.5775 288.5821,-65.3399"/>
<polygon fill="#000000" stroke="#000000" points="288.6397,-68.8551 298.8832,-66.1495 289.1882,-61.8767 288.6397,-68.8551"/>
</g>
<!-- cluster_Triangle_pos -->
<g id="node7" class="node">
<title>cluster_Triangle_pos</title>
<polygon fill="none" stroke="#000000" points="1510,-224 1456,-224 1456,-188 1510,-188 1510,-224"/>
<text text-anchor="middle" x="1483" y="-202.3" font-family="Times,serif" font-size="14.00" fill="#000000">pos</text>
</g>
<!-- op_sub_199 -->
<g id="node32" class="node">
<title>op_sub_199</title>
<polygon fill="#d8bfd8" stroke="transparent" points="1573,-136 1573,-186 1648,-186 1648,-136 1573,-136"/>
<polygon fill="none" stroke="#000000" points="1573.5,-161 1573.5,-186 1592.5,-186 1592.5,-161 1573.5,-161"/>
<text text-anchor="start" x="1578.5" y="-169.8" font-family="Times,serif" font-size="14.00" fill="#000000">●</text>
<polygon fill="none" stroke="#000000" points="1592.5,-136 1592.5,-186 1629.5,-186 1629.5,-136 1592.5,-136"/>
<text text-anchor="start" x="1597.5" y="-157.3" font-family="Times,serif" font-size="14.00" fill="#000000"> sub </text>
<polygon fill="none" stroke="#000000" points="1629.5,-136 1629.5,-186 1648.5,-186 1648.5,-136 1629.5,-136"/>
<text text-anchor="start" x="1634.5" y="-157.3" font-family="Times,serif" font-size="14.00" fill="#000000">●</text>
<polygon fill="none" stroke="#000000" points="1573.5,-136 1573.5,-161 1592.5,-161 1592.5,-136 1573.5,-136"/>
<text text-anchor="start" x="1578.5" y="-144.8" font-family="Times,serif" font-size="14.00" fill="#000000">●</text>
</g>
<!-- cluster_Triangle_pos&#45;&gt;op_sub_199 -->
<g id="edge41" class="edge">
<title>cluster_Triangle_pos&#45;&gt;op_sub_199:in1</title>
<path fill="none" stroke="#000000" d="M1510.2499,-190.937C1525.1044,-183.9016 1544.2967,-176.6238 1563.2991,-174.5696"/>
<polygon fill="#000000" stroke="#000000" points="1563.7107,-178.0522 1573.5,-174 1563.3204,-171.0631 1563.7107,-178.0522"/>
</g>
<!-- mux_1103487145 -->
<g id="node8" class="node">
<title>mux_1103487145</title>
<polygon fill="#afeeee" stroke="transparent" points="1324.5,-201 1324.5,-251 1385.5,-251 1385.5,-201 1324.5,-201"/>
<polygon fill="none" stroke="#000000" points="1325,-226 1325,-251 1344,-251 1344,-226 1325,-226"/>
<text text-anchor="start" x="1330" y="-234.8" font-family="Times,serif" font-size="14.00" fill="#000000">●</text>
<polygon fill="none" stroke="#000000" points="1344,-201 1344,-251 1367,-251 1367,-201 1344,-201"/>
<text text-anchor="start" x="1349" y="-222.3" font-family="Times,serif" font-size="14.00" fill="#000000">a?</text>
<polygon fill="none" stroke="#000000" points="1367,-201 1367,-251 1386,-251 1386,-201 1367,-201"/>
<text text-anchor="start" x="1372" y="-222.3" font-family="Times,serif" font-size="14.00" fill="#000000">●</text>
<polygon fill="none" stroke="#000000" points="1325,-201 1325,-226 1344,-226 1344,-201 1325,-201"/>
<text text-anchor="start" x="1330" y="-209.8" font-family="Times,serif" font-size="14.00" fill="#000000">●</text>
</g>
<!-- mux_1103487145&#45;&gt;cluster_Triangle_pos -->
<g id="edge44" class="edge">
<title>mux_1103487145:out&#45;&gt;cluster_Triangle_pos</title>
<path fill="none" stroke="#000000" d="M1386,-226C1406.0726,-226 1428.0092,-221.8411 1445.9358,-217.3163"/>
<polygon fill="#000000" stroke="#000000" points="1446.9499,-220.6684 1455.7133,-214.7141 1445.1495,-213.9038 1446.9499,-220.6684"/>
</g>
<!-- op_gt_176&#45;&gt;mux_1103487145 -->
<g id="edge17" class="edge">
<title>op_gt_176:out&#45;&gt;mux_1103487145:select</title>
<path fill="none" stroke="#000000" d="M992.5,-221C1010.7843,-221 1292.0417,-261.9254 1346.8004,-255.0312"/>
<polygon fill="#000000" stroke="#000000" points="1348.2455,-258.2193 1356,-251 1345.436,-251.8078 1348.2455,-258.2193"/>
</g>
<!-- op_pad_177 -->
<g id="node10" class="node">
<title>op_pad_177</title>
<polygon fill="#d8bfd8" stroke="transparent" points="786,-196.5 786,-221.5 862,-221.5 862,-196.5 786,-196.5"/>
<polygon fill="none" stroke="#000000" points="786,-196 786,-221 805,-221 805,-196 786,-196"/>
<text text-anchor="start" x="791" y="-204.8" font-family="Times,serif" font-size="14.00" fill="#000000">●</text>
<polygon fill="none" stroke="#000000" points="805,-196 805,-221 843,-221 843,-196 805,-196"/>
<text text-anchor="start" x="810" y="-204.8" font-family="Times,serif" font-size="14.00" fill="#000000"> pad </text>
<polygon fill="none" stroke="#000000" points="843,-196 843,-221 862,-221 862,-196 843,-196"/>
<text text-anchor="start" x="848" y="-204.8" font-family="Times,serif" font-size="14.00" fill="#000000">●</text>
</g>
<!-- op_pad_177&#45;&gt;op_gt_176 -->
<g id="edge32" class="edge">
<title>op_pad_177:out&#45;&gt;op_gt_176:in2</title>
<path fill="none" stroke="#000000" d="M862,-208C886.474,-208 895.0303,-208 915.2761,-208"/>
<polygon fill="#000000" stroke="#000000" points="915.5,-211.5001 925.5,-208 915.5,-204.5001 915.5,-211.5001"/>
</g>
<!-- op_tail_178 -->
<g id="node11" class="node">
<title>op_tail_178</title>
<polygon fill="#d8bfd8" stroke="transparent" points="654,-124 654,-174 727,-174 727,-124 654,-124"/>
<polygon fill="none" stroke="#000000" points="654.5,-149 654.5,-174 673.5,-174 673.5,-149 654.5,-149"/>
<text text-anchor="start" x="659.5" y="-157.8" font-family="Times,serif" font-size="14.00" fill="#000000">●</text>
<polygon fill="none" stroke="#000000" points="673.5,-124 673.5,-174 708.5,-174 708.5,-124 673.5,-124"/>
<text text-anchor="start" x="678.5" y="-145.3" font-family="Times,serif" font-size="14.00" fill="#000000"> tail </text>
<polygon fill="none" stroke="#000000" points="708.5,-124 708.5,-174 727.5,-174 727.5,-124 708.5,-124"/>
<text text-anchor="start" x="713.5" y="-145.3" font-family="Times,serif" font-size="14.00" fill="#000000">●</text>
<polygon fill="none" stroke="#000000" points="654.5,-124 654.5,-149 673.5,-149 673.5,-124 654.5,-124"/>
<text text-anchor="start" x="660.5" y="-132.8" font-family="Times,serif" font-size="14.00" fill="#000000">1</text>
</g>
<!-- op_tail_178&#45;&gt;op_pad_177 -->
<g id="edge42" class="edge">
<title>op_tail_178:out&#45;&gt;op_pad_177:in1</title>
<path fill="none" stroke="#000000" d="M718.5,-174C718.5,-180.7575 756.77,-198.6554 776.0949,-205.389"/>
<polygon fill="#000000" stroke="#000000" points="775.4382,-208.8354 786,-208 777.2225,-202.0666 775.4382,-208.8354"/>
</g>
<!-- op_add_179&#45;&gt;op_tail_178 -->
<g id="edge20" class="edge">
<title>op_add_179:out&#45;&gt;op_tail_178:in1</title>
<path fill="none" stroke="#000000" d="M602,-161C621.5087,-161 628.7798,-161.6988 644.273,-161.9281"/>
<polygon fill="#000000" stroke="#000000" points="644.4756,-165.4295 654.5,-162 644.5249,-158.4297 644.4756,-165.4295"/>
</g>
<!-- op_pad_180&#45;&gt;op_add_179 -->
<g id="edge39" class="edge">
<title>op_pad_180:out&#45;&gt;op_add_179:in2</title>
<path fill="none" stroke="#000000" d="M474,-148C493.3194,-148 500.5265,-148 515.8716,-148"/>
<polygon fill="#000000" stroke="#000000" points="516,-151.5001 526,-148 516,-144.5001 516,-151.5001"/>
</g>
<!-- op_tail_181 -->
<g id="node14" class="node">
<title>op_tail_181</title>
<polygon fill="#d8bfd8" stroke="transparent" points="1192,-267 1192,-317 1265,-317 1265,-267 1192,-267"/>
<polygon fill="none" stroke="#000000" points="1192.5,-292 1192.5,-317 1211.5,-317 1211.5,-292 1192.5,-292"/>
<text text-anchor="start" x="1197.5" y="-300.8" font-family="Times,serif" font-size="14.00" fill="#000000">●</text>
<polygon fill="none" stroke="#000000" points="1211.5,-267 1211.5,-317 1246.5,-317 1246.5,-267 1211.5,-267"/>
<text text-anchor="start" x="1216.5" y="-288.3" font-family="Times,serif" font-size="14.00" fill="#000000"> tail </text>
<polygon fill="none" stroke="#000000" points="1246.5,-267 1246.5,-317 1265.5,-317 1265.5,-267 1246.5,-267"/>
<text text-anchor="start" x="1251.5" y="-288.3" font-family="Times,serif" font-size="14.00" fill="#000000">●</text>
<polygon fill="none" stroke="#000000" points="1192.5,-267 1192.5,-292 1211.5,-292 1211.5,-267 1192.5,-267"/>
<text text-anchor="start" x="1198.5" y="-275.8" font-family="Times,serif" font-size="14.00" fill="#000000">1</text>
</g>
<!-- op_tail_181&#45;&gt;mux_1103487145 -->
<g id="edge38" class="edge">
<title>op_tail_181:out&#45;&gt;mux_1103487145:in1</title>
<path fill="none" stroke="#000000" d="M1256.5,-267C1256.5,-253.1247 1293.5588,-242.7304 1315.0177,-239.8209"/>
<polygon fill="#000000" stroke="#000000" points="1315.3205,-243.3079 1325,-239 1314.7468,-236.3315 1315.3205,-243.3079"/>
</g>
<!-- op_asUInt_182 -->
<g id="node15" class="node">
<title>op_asUInt_182</title>
<polygon fill="#d8bfd8" stroke="transparent" points="1048,-289.5 1048,-314.5 1140,-314.5 1140,-289.5 1048,-289.5"/>
<polygon fill="none" stroke="#000000" points="1048,-289 1048,-314 1067,-314 1067,-289 1048,-289"/>
<text text-anchor="start" x="1053" y="-297.8" font-family="Times,serif" font-size="14.00" fill="#000000">●</text>
<polygon fill="none" stroke="#000000" points="1067,-289 1067,-314 1121,-314 1121,-289 1067,-289"/>
<text text-anchor="start" x="1072" y="-297.8" font-family="Times,serif" font-size="14.00" fill="#000000"> asUInt </text>
<polygon fill="none" stroke="#000000" points="1121,-289 1121,-314 1140,-314 1140,-289 1121,-289"/>
<text text-anchor="start" x="1126" y="-297.8" font-family="Times,serif" font-size="14.00" fill="#000000">●</text>
</g>
<!-- op_asUInt_182&#45;&gt;op_tail_181 -->
<g id="edge27" class="edge">
<title>op_asUInt_182:out&#45;&gt;op_tail_181:in1</title>
<path fill="none" stroke="#000000" d="M1140,-301C1159.5617,-301 1166.7529,-303.7952 1182.2555,-304.7123"/>
<polygon fill="#000000" stroke="#000000" points="1182.4057,-308.2178 1192.5,-305 1182.6022,-301.2206 1182.4057,-308.2178"/>
</g>
<!-- op_sub_183&#45;&gt;op_asUInt_182 -->
<g id="edge5" class="edge">
<title>op_sub_183:out&#45;&gt;op_asUInt_182:in1</title>
<path fill="none" stroke="#000000" d="M996.5,-297C1015.6913,-297 1022.7422,-299.7952 1037.9499,-300.7123"/>
<polygon fill="#000000" stroke="#000000" points="1037.9039,-304.2124 1048,-301 1038.1043,-297.2152 1037.9039,-304.2124"/>
</g>
<!-- op_pad_184 -->
<g id="node17" class="node">
<title>op_pad_184</title>
<polygon fill="#d8bfd8" stroke="transparent" points="786,-275.5 786,-300.5 862,-300.5 862,-275.5 786,-275.5"/>
<polygon fill="none" stroke="#000000" points="786,-275 786,-300 805,-300 805,-275 786,-275"/>
<text text-anchor="start" x="791" y="-283.8" font-family="Times,serif" font-size="14.00" fill="#000000">●</text>
<polygon fill="none" stroke="#000000" points="805,-275 805,-300 843,-300 843,-275 805,-275"/>
<text text-anchor="start" x="810" y="-283.8" font-family="Times,serif" font-size="14.00" fill="#000000"> pad </text>
<polygon fill="none" stroke="#000000" points="843,-275 843,-300 862,-300 862,-275 843,-275"/>
<text text-anchor="start" x="848" y="-283.8" font-family="Times,serif" font-size="14.00" fill="#000000">●</text>
</g>
<!-- op_pad_184&#45;&gt;op_sub_183 -->
<g id="edge40" class="edge">
<title>op_pad_184:out&#45;&gt;op_sub_183:in2</title>
<path fill="none" stroke="#000000" d="M862,-287C884.7546,-287 892.7873,-284.7844 911.4013,-284.1613"/>
<polygon fill="#000000" stroke="#000000" points="911.5572,-287.6593 921.5,-284 911.4453,-280.6602 911.5572,-287.6593"/>
</g>
<!-- op_tail_185 -->
<g id="node18" class="node">
<title>op_tail_185</title>
<polygon fill="#d8bfd8" stroke="transparent" points="654,-201 654,-251 727,-251 727,-201 654,-201"/>
<polygon fill="none" stroke="#000000" points="654.5,-226 654.5,-251 673.5,-251 673.5,-226 654.5,-226"/>
<text text-anchor="start" x="659.5" y="-234.8" font-family="Times,serif" font-size="14.00" fill="#000000">●</text>
<polygon fill="none" stroke="#000000" points="673.5,-201 673.5,-251 708.5,-251 708.5,-201 673.5,-201"/>
<text text-anchor="start" x="678.5" y="-222.3" font-family="Times,serif" font-size="14.00" fill="#000000"> tail </text>
<polygon fill="none" stroke="#000000" points="708.5,-201 708.5,-251 727.5,-251 727.5,-201 708.5,-201"/>
<text text-anchor="start" x="713.5" y="-222.3" font-family="Times,serif" font-size="14.00" fill="#000000">●</text>
<polygon fill="none" stroke="#000000" points="654.5,-201 654.5,-226 673.5,-226 673.5,-201 654.5,-201"/>
<text text-anchor="start" x="660.5" y="-209.8" font-family="Times,serif" font-size="14.00" fill="#000000">1</text>
</g>
<!-- op_tail_185&#45;&gt;op_pad_184 -->
<g id="edge6" class="edge">
<title>op_tail_185:out&#45;&gt;op_pad_184:in1</title>
<path fill="none" stroke="#000000" d="M718.5,-251C718.5,-281.5469 745.5409,-286.2637 775.6907,-286.9067"/>
<polygon fill="#000000" stroke="#000000" points="775.9687,-290.4092 786,-287 776.0321,-283.4095 775.9687,-290.4092"/>
</g>
<!-- op_add_186&#45;&gt;op_tail_185 -->
<g id="edge30" class="edge">
<title>op_add_186:out&#45;&gt;op_tail_185:in1</title>
<path fill="none" stroke="#000000" d="M602,-237C621.5194,-237 628.7744,-238.3976 644.2695,-238.8562"/>
<polygon fill="#000000" stroke="#000000" points="644.4518,-242.359 654.5,-239 644.5502,-235.3597 644.4518,-242.359"/>
</g>
<!-- op_pad_187&#45;&gt;op_add_186 -->
<g id="edge10" class="edge">
<title>op_pad_187:out&#45;&gt;op_add_186:in2</title>
<path fill="none" stroke="#000000" d="M474,-202C495.1734,-202 499.7712,-217.6621 515.7647,-222.5565"/>
<polygon fill="#000000" stroke="#000000" points="515.6092,-226.0691 526,-224 516.5868,-219.1377 515.6092,-226.0691"/>
</g>
<!-- op_tail_188 -->
<g id="node21" class="node">
<title>op_tail_188</title>
<polygon fill="#d8bfd8" stroke="transparent" points="1192,-171 1192,-221 1265,-221 1265,-171 1192,-171"/>
<polygon fill="none" stroke="#000000" points="1192.5,-196 1192.5,-221 1211.5,-221 1211.5,-196 1192.5,-196"/>
<text text-anchor="start" x="1197.5" y="-204.8" font-family="Times,serif" font-size="14.00" fill="#000000">●</text>
<polygon fill="none" stroke="#000000" points="1211.5,-171 1211.5,-221 1246.5,-221 1246.5,-171 1211.5,-171"/>
<text text-anchor="start" x="1216.5" y="-192.3" font-family="Times,serif" font-size="14.00" fill="#000000"> tail </text>
<polygon fill="none" stroke="#000000" points="1246.5,-171 1246.5,-221 1265.5,-221 1265.5,-171 1246.5,-171"/>
<text text-anchor="start" x="1251.5" y="-192.3" font-family="Times,serif" font-size="14.00" fill="#000000">●</text>
<polygon fill="none" stroke="#000000" points="1192.5,-171 1192.5,-196 1211.5,-196 1211.5,-171 1192.5,-171"/>
<text text-anchor="start" x="1198.5" y="-179.8" font-family="Times,serif" font-size="14.00" fill="#000000">1</text>
</g>
<!-- op_tail_188&#45;&gt;mux_1103487145 -->
<g id="edge18" class="edge">
<title>op_tail_188:out&#45;&gt;mux_1103487145:in2</title>
<path fill="none" stroke="#000000" d="M1265.5,-196C1289.2425,-196 1295.8383,-208.6693 1314.8922,-212.1336"/>
<polygon fill="#000000" stroke="#000000" points="1314.7376,-215.6331 1325,-213 1315.3355,-208.6587 1314.7376,-215.6331"/>
</g>
<!-- op_add_189&#45;&gt;op_tail_188 -->
<g id="edge19" class="edge">
<title>op_add_189:out&#45;&gt;op_tail_188:in1</title>
<path fill="none" stroke="#000000" d="M602,-85C700.7027,-85 725.2973,-91 824,-91 824,-91 824,-91 958.5,-91 1071.4489,-91 1075.8557,-201.9636 1182.2327,-208.6821"/>
<polygon fill="#000000" stroke="#000000" points="1182.3964,-212.1888 1192.5,-209 1182.6131,-205.1921 1182.3964,-212.1888"/>
</g>
<!-- op_pad_190&#45;&gt;op_add_189 -->
<g id="edge45" class="edge">
<title>op_pad_190:out&#45;&gt;op_add_189:in2</title>
<path fill="none" stroke="#000000" d="M474,-73C493.323,-73 500.5247,-72.3012 515.8704,-72.0719"/>
<polygon fill="#000000" stroke="#000000" points="516.0251,-75.571 526,-72 515.9754,-68.5712 516.0251,-75.571"/>
</g>
<!-- op_div_191 -->
<g id="node24" class="node">
<title>op_div_191</title>
<polygon fill="#d8bfd8" stroke="transparent" points="2662,-32 2662,-82 2735,-82 2735,-32 2662,-32"/>
<polygon fill="none" stroke="#000000" points="2662.5,-57 2662.5,-82 2681.5,-82 2681.5,-57 2662.5,-57"/>
<text text-anchor="start" x="2667.5" y="-65.8" font-family="Times,serif" font-size="14.00" fill="#000000">●</text>
<polygon fill="none" stroke="#000000" points="2681.5,-32 2681.5,-82 2716.5,-82 2716.5,-32 2681.5,-32"/>
<text text-anchor="start" x="2686.5" y="-53.3" font-family="Times,serif" font-size="14.00" fill="#000000"> div </text>
<polygon fill="none" stroke="#000000" points="2716.5,-32 2716.5,-82 2735.5,-82 2735.5,-32 2716.5,-32"/>
<text text-anchor="start" x="2721.5" y="-53.3" font-family="Times,serif" font-size="14.00" fill="#000000">●</text>
<polygon fill="none" stroke="#000000" points="2662.5,-32 2662.5,-57 2681.5,-57 2681.5,-32 2662.5,-32"/>
<text text-anchor="start" x="2667.5" y="-40.8" font-family="Times,serif" font-size="14.00" fill="#000000">●</text>
</g>
<!-- op_div_191&#45;&gt;cluster_Triangle_io_sample_out -->
<g id="edge25" class="edge">
<title>op_div_191:out&#45;&gt;cluster_Triangle_io_sample_out</title>
<path fill="none" stroke="#000000" d="M2735.5,-57C2746.2613,-57 2757.7306,-57 2768.7899,-57"/>
<polygon fill="#000000" stroke="#000000" points="2768.7991,-60.5001 2778.7991,-57 2768.799,-53.5001 2768.7991,-60.5001"/>
</g>
<!-- op_mul_192 -->
<g id="node25" class="node">
<title>op_mul_192</title>
<polygon fill="#d8bfd8" stroke="transparent" points="2507,-56 2507,-106 2610,-106 2610,-56 2507,-56"/>
<polygon fill="none" stroke="#000000" points="2507.5,-81 2507.5,-106 2551.5,-106 2551.5,-81 2507.5,-81"/>
<text text-anchor="start" x="2525" y="-89.8" font-family="Times,serif" font-size="14.00" fill="#000000">●</text>
<polygon fill="none" stroke="#000000" points="2551.5,-56 2551.5,-106 2591.5,-106 2591.5,-56 2551.5,-56"/>
<text text-anchor="start" x="2556.5" y="-77.3" font-family="Times,serif" font-size="14.00" fill="#000000"> mul </text>
<polygon fill="none" stroke="#000000" points="2591.5,-56 2591.5,-106 2610.5,-106 2610.5,-56 2591.5,-56"/>
<text text-anchor="start" x="2596.5" y="-77.3" font-family="Times,serif" font-size="14.00" fill="#000000">●</text>
<polygon fill="none" stroke="#000000" points="2507.5,-56 2507.5,-81 2551.5,-81 2551.5,-56 2507.5,-56"/>
<text text-anchor="start" x="2512.5" y="-64.8" font-family="Times,serif" font-size="14.00" fill="#000000">32767</text>
</g>
<!-- op_mul_192&#45;&gt;op_div_191 -->
<g id="edge29" class="edge">
<title>op_mul_192:out&#45;&gt;op_div_191:in1</title>
<path fill="none" stroke="#000000" d="M2610.5,-81C2630.247,-81 2636.8094,-73.3133 2652.2302,-70.7911"/>
<polygon fill="#000000" stroke="#000000" points="2652.7984,-74.2578 2662.5,-70 2652.2607,-67.2785 2652.7984,-74.2578"/>
</g>
<!-- op_asSInt_193 -->
<g id="node26" class="node">
<title>op_asSInt_193</title>
<polygon fill="#d8bfd8" stroke="transparent" points="2365,-82.5 2365,-107.5 2455,-107.5 2455,-82.5 2365,-82.5"/>
<polygon fill="none" stroke="#000000" points="2365,-82 2365,-107 2384,-107 2384,-82 2365,-82"/>
<text text-anchor="start" x="2370" y="-90.8" font-family="Times,serif" font-size="14.00" fill="#000000">●</text>
<polygon fill="none" stroke="#000000" points="2384,-82 2384,-107 2436,-107 2436,-82 2384,-82"/>
<text text-anchor="start" x="2389" y="-90.8" font-family="Times,serif" font-size="14.00" fill="#000000"> asSInt </text>
<polygon fill="none" stroke="#000000" points="2436,-82 2436,-107 2455,-107 2455,-82 2436,-82"/>
<text text-anchor="start" x="2441" y="-90.8" font-family="Times,serif" font-size="14.00" fill="#000000">●</text>
</g>
<!-- op_asSInt_193&#45;&gt;op_mul_192 -->
<g id="edge13" class="edge">
<title>op_asSInt_193:out&#45;&gt;op_mul_192:in1</title>
<path fill="none" stroke="#000000" d="M2455,-94C2474.5052,-94 2481.7816,-94 2497.2742,-94"/>
<polygon fill="#000000" stroke="#000000" points="2497.5,-97.5001 2507.5,-94 2497.5,-90.5001 2497.5,-97.5001"/>
</g>
<!-- op_tail_194 -->
<g id="node27" class="node">
<title>op_tail_194</title>
<polygon fill="#d8bfd8" stroke="transparent" points="2240,-69 2240,-119 2313,-119 2313,-69 2240,-69"/>
<polygon fill="none" stroke="#000000" points="2240.5,-94 2240.5,-119 2259.5,-119 2259.5,-94 2240.5,-94"/>
<text text-anchor="start" x="2245.5" y="-102.8" font-family="Times,serif" font-size="14.00" fill="#000000">●</text>
<polygon fill="none" stroke="#000000" points="2259.5,-69 2259.5,-119 2294.5,-119 2294.5,-69 2259.5,-69"/>
<text text-anchor="start" x="2264.5" y="-90.3" font-family="Times,serif" font-size="14.00" fill="#000000"> tail </text>
<polygon fill="none" stroke="#000000" points="2294.5,-69 2294.5,-119 2313.5,-119 2313.5,-69 2294.5,-69"/>
<text text-anchor="start" x="2299.5" y="-90.3" font-family="Times,serif" font-size="14.00" fill="#000000">●</text>
<polygon fill="none" stroke="#000000" points="2240.5,-69 2240.5,-94 2259.5,-94 2259.5,-69 2240.5,-69"/>
<text text-anchor="start" x="2246.5" y="-77.8" font-family="Times,serif" font-size="14.00" fill="#000000">1</text>
</g>
<!-- op_tail_194&#45;&gt;op_asSInt_193 -->
<g id="edge14" class="edge">
<title>op_tail_194:out&#45;&gt;op_asSInt_193:in1</title>
<path fill="none" stroke="#000000" d="M2313.5,-94C2332.6337,-94 2339.7714,-94 2354.969,-94"/>
<polygon fill="#000000" stroke="#000000" points="2355,-97.5001 2365,-94 2355,-90.5001 2355,-97.5001"/>
</g>
<!-- op_asUInt_195 -->
<g id="node28" class="node">
<title>op_asUInt_195</title>
<polygon fill="#d8bfd8" stroke="transparent" points="2096,-95.5 2096,-120.5 2188,-120.5 2188,-95.5 2096,-95.5"/>
<polygon fill="none" stroke="#000000" points="2096,-95 2096,-120 2115,-120 2115,-95 2096,-95"/>
<text text-anchor="start" x="2101" y="-103.8" font-family="Times,serif" font-size="14.00" fill="#000000">●</text>
<polygon fill="none" stroke="#000000" points="2115,-95 2115,-120 2169,-120 2169,-95 2115,-95"/>
<text text-anchor="start" x="2120" y="-103.8" font-family="Times,serif" font-size="14.00" fill="#000000"> asUInt </text>
<polygon fill="none" stroke="#000000" points="2169,-95 2169,-120 2188,-120 2188,-95 2169,-95"/>
<text text-anchor="start" x="2174" y="-103.8" font-family="Times,serif" font-size="14.00" fill="#000000">●</text>
</g>
<!-- op_asUInt_195&#45;&gt;op_tail_194 -->
<g id="edge33" class="edge">
<title>op_asUInt_195:out&#45;&gt;op_tail_194:in1</title>
<path fill="none" stroke="#000000" d="M2188,-107C2207.5052,-107 2214.7816,-107 2230.2742,-107"/>
<polygon fill="#000000" stroke="#000000" points="2230.5,-110.5001 2240.5,-107 2230.5,-103.5001 2230.5,-110.5001"/>
</g>
<!-- op_sub_196 -->
<g id="node29" class="node">
<title>op_sub_196</title>
<polygon fill="#d8bfd8" stroke="transparent" points="1969,-82 1969,-132 2044,-132 2044,-82 1969,-82"/>
<polygon fill="none" stroke="#000000" points="1969.5,-107 1969.5,-132 1988.5,-132 1988.5,-107 1969.5,-107"/>
<text text-anchor="start" x="1974.5" y="-115.8" font-family="Times,serif" font-size="14.00" fill="#000000">●</text>
<polygon fill="none" stroke="#000000" points="1988.5,-82 1988.5,-132 2025.5,-132 2025.5,-82 1988.5,-82"/>
<text text-anchor="start" x="1993.5" y="-103.3" font-family="Times,serif" font-size="14.00" fill="#000000"> sub </text>
<polygon fill="none" stroke="#000000" points="2025.5,-82 2025.5,-132 2044.5,-132 2044.5,-82 2025.5,-82"/>
<text text-anchor="start" x="2030.5" y="-103.3" font-family="Times,serif" font-size="14.00" fill="#000000">●</text>
<polygon fill="none" stroke="#000000" points="1969.5,-82 1969.5,-107 1988.5,-107 1988.5,-82 1969.5,-82"/>
<text text-anchor="start" x="1974.5" y="-90.8" font-family="Times,serif" font-size="14.00" fill="#000000">●</text>
</g>
<!-- op_sub_196&#45;&gt;op_asUInt_195 -->
<g id="edge1" class="edge">
<title>op_sub_196:out&#45;&gt;op_asUInt_195:in1</title>
<path fill="none" stroke="#000000" d="M2044.5,-107C2063.6337,-107 2070.7714,-107 2085.969,-107"/>
<polygon fill="#000000" stroke="#000000" points="2086,-110.5001 2096,-107 2086,-103.5001 2086,-110.5001"/>
</g>
<!-- op_tail_197 -->
<g id="node30" class="node">
<title>op_tail_197</title>
<polygon fill="#d8bfd8" stroke="transparent" points="1844,-120 1844,-170 1917,-170 1917,-120 1844,-120"/>
<polygon fill="none" stroke="#000000" points="1844.5,-145 1844.5,-170 1863.5,-170 1863.5,-145 1844.5,-145"/>
<text text-anchor="start" x="1849.5" y="-153.8" font-family="Times,serif" font-size="14.00" fill="#000000">●</text>
<polygon fill="none" stroke="#000000" points="1863.5,-120 1863.5,-170 1898.5,-170 1898.5,-120 1863.5,-120"/>
<text text-anchor="start" x="1868.5" y="-141.3" font-family="Times,serif" font-size="14.00" fill="#000000"> tail </text>
<polygon fill="none" stroke="#000000" points="1898.5,-120 1898.5,-170 1917.5,-170 1917.5,-120 1898.5,-120"/>
<text text-anchor="start" x="1903.5" y="-141.3" font-family="Times,serif" font-size="14.00" fill="#000000">●</text>
<polygon fill="none" stroke="#000000" points="1844.5,-120 1844.5,-145 1863.5,-145 1863.5,-120 1844.5,-120"/>
<text text-anchor="start" x="1850.5" y="-128.8" font-family="Times,serif" font-size="14.00" fill="#000000">1</text>
</g>
<!-- op_tail_197&#45;&gt;op_sub_196 -->
<g id="edge7" class="edge">
<title>op_tail_197:out&#45;&gt;op_sub_196:in1</title>
<path fill="none" stroke="#000000" d="M1917.5,-145C1939.3369,-145 1943.0956,-126.871 1959.5655,-121.489"/>
<polygon fill="#000000" stroke="#000000" points="1960.1293,-124.9437 1969.5,-120 1959.0916,-118.021 1960.1293,-124.9437"/>
</g>
<!-- op_asUInt_198 -->
<g id="node31" class="node">
<title>op_asUInt_198</title>
<polygon fill="#d8bfd8" stroke="transparent" points="1700,-147.5 1700,-172.5 1792,-172.5 1792,-147.5 1700,-147.5"/>
<polygon fill="none" stroke="#000000" points="1700,-147 1700,-172 1719,-172 1719,-147 1700,-147"/>
<text text-anchor="start" x="1705" y="-155.8" font-family="Times,serif" font-size="14.00" fill="#000000">●</text>
<polygon fill="none" stroke="#000000" points="1719,-147 1719,-172 1773,-172 1773,-147 1719,-147"/>
<text text-anchor="start" x="1724" y="-155.8" font-family="Times,serif" font-size="14.00" fill="#000000"> asUInt </text>
<polygon fill="none" stroke="#000000" points="1773,-147 1773,-172 1792,-172 1792,-147 1773,-147"/>
<text text-anchor="start" x="1778" y="-155.8" font-family="Times,serif" font-size="14.00" fill="#000000">●</text>
</g>
<!-- op_asUInt_198&#45;&gt;op_tail_197 -->
<g id="edge24" class="edge">
<title>op_asUInt_198:out&#45;&gt;op_tail_197:in1</title>
<path fill="none" stroke="#000000" d="M1792,-159C1811.5087,-159 1818.7798,-158.3012 1834.273,-158.0719"/>
<polygon fill="#000000" stroke="#000000" points="1834.5249,-161.5703 1844.5,-158 1834.4756,-154.5705 1834.5249,-161.5703"/>
</g>
<!-- op_sub_199&#45;&gt;op_asUInt_198 -->
<g id="edge35" class="edge">
<title>op_sub_199:out&#45;&gt;op_asUInt_198:in1</title>
<path fill="none" stroke="#000000" d="M1648.5,-161C1667.6481,-161 1674.7641,-159.6024 1689.9642,-159.1438"/>
<polygon fill="#000000" stroke="#000000" points="1690.0512,-162.643 1700,-159 1689.9508,-155.6438 1690.0512,-162.643"/>
</g>
<!-- op_pad_200&#45;&gt;op_sub_199 -->
<g id="edge26" class="edge">
<title>op_pad_200:out&#45;&gt;op_sub_199:in2</title>
<path fill="none" stroke="#000000" d="M1521,-148C1540.5052,-148 1547.7816,-148 1563.2742,-148"/>
<polygon fill="#000000" stroke="#000000" points="1563.5,-151.5001 1573.5,-148 1563.5,-144.5001 1563.5,-151.5001"/>
</g>
<!-- op_pad_201&#45;&gt;op_sub_196 -->
<g id="edge34" class="edge">
<title>op_pad_201:out&#45;&gt;op_sub_196:in2</title>
<path fill="none" stroke="#000000" d="M1393,-82C1489.7902,-82 1513.7098,-93 1610.5,-93 1610.5,-93 1610.5,-93 1746,-93 1841.8421,-93 1868.3276,-93.9309 1959.2931,-93.9964"/>
<polygon fill="#000000" stroke="#000000" points="1959.4987,-97.4964 1969.5,-94 1959.5013,-90.4964 1959.4987,-97.4964"/>
</g>
<!-- op_pad_202 -->
<g id="node35" class="node">
<title>op_pad_202</title>
<polygon fill="#d8bfd8" stroke="transparent" points="1056,-21.5 1056,-46.5 1132,-46.5 1132,-21.5 1056,-21.5"/>
<polygon fill="none" stroke="#000000" points="1056,-21 1056,-46 1075,-46 1075,-21 1056,-21"/>
<text text-anchor="start" x="1061" y="-29.8" font-family="Times,serif" font-size="14.00" fill="#000000">●</text>
<polygon fill="none" stroke="#000000" points="1075,-21 1075,-46 1113,-46 1113,-21 1075,-21"/>
<text text-anchor="start" x="1080" y="-29.8" font-family="Times,serif" font-size="14.00" fill="#000000"> pad </text>
<polygon fill="none" stroke="#000000" points="1113,-21 1113,-46 1132,-46 1132,-21 1113,-21"/>
<text text-anchor="start" x="1118" y="-29.8" font-family="Times,serif" font-size="14.00" fill="#000000">●</text>
</g>
<!-- op_pad_202&#45;&gt;op_div_191 -->
<g id="edge22" class="edge">
<title>op_pad_202:out&#45;&gt;op_div_191:in2</title>
<path fill="none" stroke="#000000" d="M1132,-33C1231.1111,-33 1255.8889,-33 1355,-33 1355,-33 1355,-33 2410,-33 2462.9831,-33 2590.7264,-42.7892 2652.1785,-43.8981"/>
<polygon fill="#000000" stroke="#000000" points="2652.4659,-47.401 2662.5,-44 2652.5351,-40.4014 2652.4659,-47.401"/>
</g>
<!-- op_asSInt_203&#45;&gt;op_pad_202 -->
<g id="edge2" class="edge">
<title>op_asSInt_203:out&#45;&gt;op_pad_202:in1</title>
<path fill="none" stroke="#000000" d="M869,-33C948.5399,-33 970.9882,-33 1045.6218,-33"/>
<polygon fill="#000000" stroke="#000000" points="1046,-36.5001 1056,-33 1046,-29.5001 1046,-36.5001"/>
</g>
</g>
</svg>
