<?xml version="1.0" encoding="UTF-8" standalone="no"?>
<?xml-stylesheet href="styles.css" type="text/css"?>
<!DOCTYPE svg PUBLIC "-//W3C//DTD SVG 1.1//EN"
 "http://www.w3.org/Graphics/SVG/1.1/DTD/svg11.dtd">
<!-- Generated by graphviz version 2.43.20190912.0211 (20190912.0211)
 -->
<!-- Title: Triangle Pages: 1 -->
<svg width="3250pt" height="395pt"
 viewBox="0.00 0.00 3250.00 395.00" xmlns="http://www.w3.org/2000/svg" xmlns:xlink="http://www.w3.org/1999/xlink">
<g id="graph0" class="graph" transform="scale(1 1) rotate(0) translate(4 391)">
<title>Triangle</title>
<polygon fill="white" stroke="transparent" points="-4,4 -4,-391 3246,-391 3246,4 -4,4"/>
<g id="clust1" class="cluster">
<title>cluster_Triangle</title>
<polygon fill="#fff8dc" stroke="black" points="8,-8 8,-379 3234,-379 3234,-8 8,-8"/>
<text text-anchor="middle" x="1621" y="-363.8" font-family="Times,serif" font-size="14.00">Triangle</text>
</g>
<!-- cluster_Triangle_io_wavelength_pos -->
<g id="node1" class="node">
<title>cluster_Triangle_io_wavelength_pos</title>
<polygon fill="#cccccc" stroke="black" points="166,-310 16,-310 16,-274 166,-274 166,-310"/>
<text text-anchor="middle" x="91" y="-288.3" font-family="Times,serif" font-size="14.00">io_wavelength_pos</text>
</g>
<!-- op_shr_137 -->
<g id="node4" class="node">
<title>op_shr_137</title>
<polygon fill="#d8bfd8" stroke="transparent" points="210,-254 210,-304 299,-304 299,-254 210,-254"/>
<polygon fill="none" stroke="black" points="210.5,-279 210.5,-304 233.5,-304 233.5,-279 210.5,-279"/>
<text text-anchor="start" x="215.5" y="-287.8" font-family="Times,serif" font-size="14.00">●</text>
<polygon fill="none" stroke="black" points="233.5,-254 233.5,-304 276.5,-304 276.5,-254 233.5,-254"/>
<text text-anchor="start" x="238.5" y="-275.3" font-family="Times,serif" font-size="14.00"> shr </text>
<polygon fill="none" stroke="black" points="276.5,-254 276.5,-304 299.5,-304 299.5,-254 276.5,-254"/>
<text text-anchor="start" x="281.5" y="-275.3" font-family="Times,serif" font-size="14.00">●</text>
<polygon fill="none" stroke="black" points="210.5,-254 210.5,-279 233.5,-279 233.5,-254 210.5,-254"/>
<text text-anchor="start" x="217" y="-262.8" font-family="Times,serif" font-size="14.00">1</text>
</g>
<!-- cluster_Triangle_io_wavelength_pos&#45;&gt;op_shr_137 -->
<g id="edge20" class="edge">
<title>cluster_Triangle_io_wavelength_pos&#45;&gt;op_shr_137:in1</title>
<path fill="none" stroke="black" d="M166.28,-292C177.14,-292 188.34,-292 199.2,-292"/>
<polygon fill="black" stroke="black" points="199.5,-295.5 209.5,-292 199.5,-288.5 199.5,-295.5"/>
</g>
<!-- op_shr_138 -->
<g id="node6" class="node">
<title>op_shr_138</title>
<polygon fill="#d8bfd8" stroke="transparent" points="210,-72 210,-122 299,-122 299,-72 210,-72"/>
<polygon fill="none" stroke="black" points="210.5,-97 210.5,-122 233.5,-122 233.5,-97 210.5,-97"/>
<text text-anchor="start" x="215.5" y="-105.8" font-family="Times,serif" font-size="14.00">●</text>
<polygon fill="none" stroke="black" points="233.5,-72 233.5,-122 276.5,-122 276.5,-72 233.5,-72"/>
<text text-anchor="start" x="238.5" y="-93.3" font-family="Times,serif" font-size="14.00"> shr </text>
<polygon fill="none" stroke="black" points="276.5,-72 276.5,-122 299.5,-122 299.5,-72 276.5,-72"/>
<text text-anchor="start" x="281.5" y="-93.3" font-family="Times,serif" font-size="14.00">●</text>
<polygon fill="none" stroke="black" points="210.5,-72 210.5,-97 233.5,-97 233.5,-72 210.5,-72"/>
<text text-anchor="start" x="217" y="-80.8" font-family="Times,serif" font-size="14.00">2</text>
</g>
<!-- cluster_Triangle_io_wavelength_pos&#45;&gt;op_shr_138 -->
<g id="edge34" class="edge">
<title>cluster_Triangle_io_wavelength_pos&#45;&gt;op_shr_138:in1</title>
<path fill="none" stroke="black" d="M103.31,-273.68C122.01,-244.06 161.36,-184.5 202,-140 206.48,-135.09 212.3,-134.02 216.41,-131.77"/>
<polygon fill="black" stroke="black" points="219.51,-133.41 221.5,-123 213.45,-129.89 219.51,-133.41"/>
</g>
<!-- op_gt_139 -->
<g id="node9" class="node">
<title>op_gt_139</title>
<polygon fill="#d8bfd8" stroke="transparent" points="1055,-218 1055,-268 1136,-268 1136,-218 1055,-218"/>
<polygon fill="none" stroke="black" points="1055.5,-243 1055.5,-268 1078.5,-268 1078.5,-243 1055.5,-243"/>
<text text-anchor="start" x="1060.5" y="-251.8" font-family="Times,serif" font-size="14.00">●</text>
<polygon fill="none" stroke="black" points="1078.5,-218 1078.5,-268 1113.5,-268 1113.5,-218 1078.5,-218"/>
<text text-anchor="start" x="1083.5" y="-239.3" font-family="Times,serif" font-size="14.00"> gt </text>
<polygon fill="none" stroke="black" points="1113.5,-218 1113.5,-268 1136.5,-268 1136.5,-218 1113.5,-218"/>
<text text-anchor="start" x="1118.5" y="-239.3" font-family="Times,serif" font-size="14.00">●</text>
<polygon fill="none" stroke="black" points="1055.5,-218 1055.5,-243 1078.5,-243 1078.5,-218 1055.5,-218"/>
<text text-anchor="start" x="1060.5" y="-226.8" font-family="Times,serif" font-size="14.00">●</text>
</g>
<!-- cluster_Triangle_io_wavelength_pos&#45;&gt;op_gt_139 -->
<g id="edge6" class="edge">
<title>cluster_Triangle_io_wavelength_pos&#45;&gt;op_gt_139:in1</title>
<path fill="none" stroke="black" d="M163.28,-310.01C176.1,-312.73 189.4,-315.22 202,-317 279.36,-327.92 299.37,-327 377.5,-327 377.5,-327 377.5,-327 514.5,-327 669.15,-327 716.13,-360.37 862,-309 880.62,-302.44 879.81,-290.65 898,-283 927.74,-270.49 1004.38,-258.29 1044.29,-256.29"/>
<polygon fill="black" stroke="black" points="1044.6,-259.78 1054.5,-256 1044.41,-252.78 1044.6,-259.78"/>
</g>
<!-- op_sub_146 -->
<g id="node16" class="node">
<title>op_sub_146</title>
<polygon fill="#d8bfd8" stroke="transparent" points="1050,-294 1050,-344 1141,-344 1141,-294 1050,-294"/>
<polygon fill="none" stroke="black" points="1050.5,-319 1050.5,-344 1073.5,-344 1073.5,-319 1050.5,-319"/>
<text text-anchor="start" x="1055.5" y="-327.8" font-family="Times,serif" font-size="14.00">●</text>
<polygon fill="none" stroke="black" points="1073.5,-294 1073.5,-344 1118.5,-344 1118.5,-294 1073.5,-294"/>
<text text-anchor="start" x="1078.5" y="-315.3" font-family="Times,serif" font-size="14.00"> sub </text>
<polygon fill="none" stroke="black" points="1118.5,-294 1118.5,-344 1141.5,-344 1141.5,-294 1118.5,-294"/>
<text text-anchor="start" x="1123.5" y="-315.3" font-family="Times,serif" font-size="14.00">●</text>
<polygon fill="none" stroke="black" points="1050.5,-294 1050.5,-319 1073.5,-319 1073.5,-294 1050.5,-294"/>
<text text-anchor="start" x="1055.5" y="-302.8" font-family="Times,serif" font-size="14.00">●</text>
</g>
<!-- cluster_Triangle_io_wavelength_pos&#45;&gt;op_sub_146 -->
<g id="edge10" class="edge">
<title>cluster_Triangle_io_wavelength_pos&#45;&gt;op_sub_146:in1</title>
<path fill="none" stroke="black" d="M133.54,-310.04C153.81,-318.09 178.78,-326.88 202,-332 278.45,-348.86 299.22,-347 377.5,-347 377.5,-347 377.5,-347 810.5,-347 897.5,-347 919.3,-344.19 1006,-337 1021.45,-335.72 1027.54,-333.3 1039.23,-332.38"/>
<polygon fill="black" stroke="black" points="1039.63,-335.86 1049.5,-332 1039.38,-328.87 1039.63,-335.86"/>
</g>
<!-- op_add_152 -->
<g id="node22" class="node">
<title>op_add_152</title>
<polygon fill="#d8bfd8" stroke="transparent" points="621,-82 621,-132 713,-132 713,-82 621,-82"/>
<polygon fill="none" stroke="black" points="621,-107 621,-132 644,-132 644,-107 621,-107"/>
<text text-anchor="start" x="626" y="-115.8" font-family="Times,serif" font-size="14.00">●</text>
<polygon fill="none" stroke="black" points="644,-82 644,-132 690,-132 690,-82 644,-82"/>
<text text-anchor="start" x="649" y="-103.3" font-family="Times,serif" font-size="14.00"> add </text>
<polygon fill="none" stroke="black" points="690,-82 690,-132 713,-132 713,-82 690,-82"/>
<text text-anchor="start" x="695" y="-103.3" font-family="Times,serif" font-size="14.00">●</text>
<polygon fill="none" stroke="black" points="621,-82 621,-107 644,-107 644,-82 621,-82"/>
<text text-anchor="start" x="626" y="-90.8" font-family="Times,serif" font-size="14.00">●</text>
</g>
<!-- cluster_Triangle_io_wavelength_pos&#45;&gt;op_add_152 -->
<g id="edge45" class="edge">
<title>cluster_Triangle_io_wavelength_pos&#45;&gt;op_add_152:in1</title>
<path fill="none" stroke="black" d="M128.51,-273.95C149.73,-263.74 177.12,-251.05 202,-241 310.17,-197.3 336.82,-183.3 450,-155 505.43,-141.14 521.58,-148.91 577,-135 592.8,-131.03 597.91,-123.74 609.85,-121.04"/>
<polygon fill="black" stroke="black" points="610.41,-124.5 620,-120 609.7,-117.54 610.41,-124.5"/>
</g>
<!-- cluster_Triangle_io_sample_out -->
<g id="node2" class="node">
<title>cluster_Triangle_io_sample_out</title>
<polygon fill="#e0ffff" stroke="black" points="3226,-75 3109,-75 3109,-39 3226,-39 3226,-75"/>
<text text-anchor="middle" x="3167.5" y="-53.3" font-family="Times,serif" font-size="14.00">io_sample_out</text>
</g>
<!-- cluster_Triangle_half -->
<g id="node3" class="node">
<title>cluster_Triangle_half</title>
<polygon fill="none" stroke="black" points="540.5,-308 486.5,-308 486.5,-272 540.5,-272 540.5,-308"/>
<text text-anchor="middle" x="513.5" y="-286.3" font-family="Times,serif" font-size="14.00">half</text>
</g>
<!-- op_add_142 -->
<g id="node12" class="node">
<title>op_add_142</title>
<polygon fill="#d8bfd8" stroke="transparent" points="621,-158 621,-208 713,-208 713,-158 621,-158"/>
<polygon fill="none" stroke="black" points="621,-183 621,-208 644,-208 644,-183 621,-183"/>
<text text-anchor="start" x="626" y="-191.8" font-family="Times,serif" font-size="14.00">●</text>
<polygon fill="none" stroke="black" points="644,-158 644,-208 690,-208 690,-158 644,-158"/>
<text text-anchor="start" x="649" y="-179.3" font-family="Times,serif" font-size="14.00"> add </text>
<polygon fill="none" stroke="black" points="690,-158 690,-208 713,-208 713,-158 690,-158"/>
<text text-anchor="start" x="695" y="-179.3" font-family="Times,serif" font-size="14.00">●</text>
<polygon fill="none" stroke="black" points="621,-158 621,-183 644,-183 644,-158 621,-158"/>
<text text-anchor="start" x="626" y="-166.8" font-family="Times,serif" font-size="14.00">●</text>
</g>
<!-- cluster_Triangle_half&#45;&gt;op_add_142 -->
<g id="edge38" class="edge">
<title>cluster_Triangle_half&#45;&gt;op_add_142:in1</title>
<path fill="none" stroke="black" d="M540.75,-282.57C552.74,-278.25 566.55,-271.87 577,-263 600.92,-242.69 588.41,-205.72 609.94,-197.6"/>
<polygon fill="black" stroke="black" points="610.67,-201.03 620,-196 609.57,-194.12 610.67,-201.03"/>
</g>
<!-- op_add_149 -->
<g id="node19" class="node">
<title>op_add_149</title>
<polygon fill="#d8bfd8" stroke="transparent" points="621,-234 621,-284 713,-284 713,-234 621,-234"/>
<polygon fill="none" stroke="black" points="621,-259 621,-284 644,-284 644,-259 621,-259"/>
<text text-anchor="start" x="626" y="-267.8" font-family="Times,serif" font-size="14.00">●</text>
<polygon fill="none" stroke="black" points="644,-234 644,-284 690,-284 690,-234 644,-234"/>
<text text-anchor="start" x="649" y="-255.3" font-family="Times,serif" font-size="14.00"> add </text>
<polygon fill="none" stroke="black" points="690,-234 690,-284 713,-284 713,-234 690,-234"/>
<text text-anchor="start" x="695" y="-255.3" font-family="Times,serif" font-size="14.00">●</text>
<polygon fill="none" stroke="black" points="621,-234 621,-259 644,-259 644,-234 621,-234"/>
<text text-anchor="start" x="626" y="-242.8" font-family="Times,serif" font-size="14.00">●</text>
</g>
<!-- cluster_Triangle_half&#45;&gt;op_add_149 -->
<g id="edge27" class="edge">
<title>cluster_Triangle_half&#45;&gt;op_add_149:in1</title>
<path fill="none" stroke="black" d="M540.74,-282.99C559.39,-278.55 585.38,-273.42 609.95,-272.25"/>
<polygon fill="black" stroke="black" points="610.09,-275.75 620,-272 609.92,-268.75 610.09,-275.75"/>
</g>
<!-- op_pad_163 -->
<g id="node33" class="node">
<title>op_pad_163</title>
<polygon fill="#d8bfd8" stroke="transparent" points="1503,-165.5 1503,-190.5 1595,-190.5 1595,-165.5 1503,-165.5"/>
<polygon fill="none" stroke="black" points="1503,-165 1503,-190 1526,-190 1526,-165 1503,-165"/>
<text text-anchor="start" x="1508" y="-173.8" font-family="Times,serif" font-size="14.00">●</text>
<polygon fill="none" stroke="black" points="1526,-165 1526,-190 1572,-190 1572,-165 1526,-165"/>
<text text-anchor="start" x="1531" y="-173.8" font-family="Times,serif" font-size="14.00"> pad </text>
<polygon fill="none" stroke="black" points="1572,-165 1572,-190 1595,-190 1595,-165 1572,-165"/>
<text text-anchor="start" x="1577" y="-173.8" font-family="Times,serif" font-size="14.00">●</text>
</g>
<!-- cluster_Triangle_half&#45;&gt;op_pad_163 -->
<g id="edge29" class="edge">
<title>cluster_Triangle_half&#45;&gt;op_pad_163:in1</title>
<path fill="none" stroke="black" d="M540.81,-292.38C560.64,-294.05 588.5,-296.13 613,-297 668.31,-298.96 816.58,-322.64 862,-291 896,-267.32 864.05,-228.75 898,-205 1005.42,-129.87 1350.23,-174.68 1491.76,-176.91"/>
<polygon fill="black" stroke="black" points="1491.97,-180.42 1502,-177 1492.03,-173.42 1491.97,-180.42"/>
</g>
<!-- op_shr_137&#45;&gt;cluster_Triangle_half -->
<g id="edge11" class="edge">
<title>op_shr_137:out&#45;&gt;cluster_Triangle_half</title>
<path fill="none" stroke="black" d="M300.5,-279C362.34,-279 434.18,-283.72 476.35,-286.98"/>
<polygon fill="black" stroke="black" points="476.17,-290.48 486.41,-287.77 476.72,-283.5 476.17,-290.48"/>
</g>
<!-- cluster_Triangle_quarter -->
<g id="node5" class="node">
<title>cluster_Triangle_quarter</title>
<polygon fill="none" stroke="black" points="414,-120 343,-120 343,-84 414,-84 414,-120"/>
<text text-anchor="middle" x="378.5" y="-98.3" font-family="Times,serif" font-size="14.00">quarter</text>
</g>
<!-- op_pad_143 -->
<g id="node13" class="node">
<title>op_pad_143</title>
<polygon fill="#d8bfd8" stroke="transparent" points="467.5,-169.5 467.5,-194.5 559.5,-194.5 559.5,-169.5 467.5,-169.5"/>
<polygon fill="none" stroke="black" points="467.5,-169 467.5,-194 490.5,-194 490.5,-169 467.5,-169"/>
<text text-anchor="start" x="472.5" y="-177.8" font-family="Times,serif" font-size="14.00">●</text>
<polygon fill="none" stroke="black" points="490.5,-169 490.5,-194 536.5,-194 536.5,-169 490.5,-169"/>
<text text-anchor="start" x="495.5" y="-177.8" font-family="Times,serif" font-size="14.00"> pad </text>
<polygon fill="none" stroke="black" points="536.5,-169 536.5,-194 559.5,-194 559.5,-169 536.5,-169"/>
<text text-anchor="start" x="541.5" y="-177.8" font-family="Times,serif" font-size="14.00">●</text>
</g>
<!-- cluster_Triangle_quarter&#45;&gt;op_pad_143 -->
<g id="edge13" class="edge">
<title>cluster_Triangle_quarter&#45;&gt;op_pad_143:in1</title>
<path fill="none" stroke="black" d="M389.16,-120.32C401.59,-141.38 425.32,-173.84 456.22,-179.98"/>
<polygon fill="black" stroke="black" points="456.2,-183.49 466.5,-181 456.89,-176.53 456.2,-183.49"/>
</g>
<!-- op_pad_150 -->
<g id="node20" class="node">
<title>op_pad_150</title>
<polygon fill="#d8bfd8" stroke="transparent" points="467.5,-223.5 467.5,-248.5 559.5,-248.5 559.5,-223.5 467.5,-223.5"/>
<polygon fill="none" stroke="black" points="467.5,-223 467.5,-248 490.5,-248 490.5,-223 467.5,-223"/>
<text text-anchor="start" x="472.5" y="-231.8" font-family="Times,serif" font-size="14.00">●</text>
<polygon fill="none" stroke="black" points="490.5,-223 490.5,-248 536.5,-248 536.5,-223 490.5,-223"/>
<text text-anchor="start" x="495.5" y="-231.8" font-family="Times,serif" font-size="14.00"> pad </text>
<polygon fill="none" stroke="black" points="536.5,-223 536.5,-248 559.5,-248 559.5,-223 536.5,-223"/>
<text text-anchor="start" x="541.5" y="-231.8" font-family="Times,serif" font-size="14.00">●</text>
</g>
<!-- cluster_Triangle_quarter&#45;&gt;op_pad_150 -->
<g id="edge30" class="edge">
<title>cluster_Triangle_quarter&#45;&gt;op_pad_150:in1</title>
<path fill="none" stroke="black" d="M387.52,-120.15C398.59,-143.44 420.6,-183.83 450,-209 456.61,-214.66 466.09,-212.88 472.27,-214.16"/>
<polygon fill="black" stroke="black" points="469.54,-216.35 478.5,-222 475.02,-211.99 469.54,-216.35"/>
</g>
<!-- op_pad_153 -->
<g id="node23" class="node">
<title>op_pad_153</title>
<polygon fill="#d8bfd8" stroke="transparent" points="467.5,-95.5 467.5,-120.5 559.5,-120.5 559.5,-95.5 467.5,-95.5"/>
<polygon fill="none" stroke="black" points="467.5,-95 467.5,-120 490.5,-120 490.5,-95 467.5,-95"/>
<text text-anchor="start" x="472.5" y="-103.8" font-family="Times,serif" font-size="14.00">●</text>
<polygon fill="none" stroke="black" points="490.5,-95 490.5,-120 536.5,-120 536.5,-95 490.5,-95"/>
<text text-anchor="start" x="495.5" y="-103.8" font-family="Times,serif" font-size="14.00"> pad </text>
<polygon fill="none" stroke="black" points="536.5,-95 536.5,-120 559.5,-120 559.5,-95 536.5,-95"/>
<text text-anchor="start" x="541.5" y="-103.8" font-family="Times,serif" font-size="14.00">●</text>
</g>
<!-- cluster_Triangle_quarter&#45;&gt;op_pad_153 -->
<g id="edge22" class="edge">
<title>cluster_Triangle_quarter&#45;&gt;op_pad_153:in1</title>
<path fill="none" stroke="black" d="M414.19,-104.91C427,-105.79 441.9,-106.61 456.22,-106.89"/>
<polygon fill="black" stroke="black" points="456.46,-110.4 466.5,-107 456.54,-103.4 456.46,-110.4"/>
</g>
<!-- op_pad_164 -->
<g id="node34" class="node">
<title>op_pad_164</title>
<polygon fill="#d8bfd8" stroke="transparent" points="1204,-69.5 1204,-94.5 1296,-94.5 1296,-69.5 1204,-69.5"/>
<polygon fill="none" stroke="black" points="1204,-69 1204,-94 1227,-94 1227,-69 1204,-69"/>
<text text-anchor="start" x="1209" y="-77.8" font-family="Times,serif" font-size="14.00">●</text>
<polygon fill="none" stroke="black" points="1227,-69 1227,-94 1273,-94 1273,-69 1227,-69"/>
<text text-anchor="start" x="1232" y="-77.8" font-family="Times,serif" font-size="14.00"> pad </text>
<polygon fill="none" stroke="black" points="1273,-69 1273,-94 1296,-94 1296,-69 1273,-69"/>
<text text-anchor="start" x="1278" y="-77.8" font-family="Times,serif" font-size="14.00">●</text>
</g>
<!-- cluster_Triangle_quarter&#45;&gt;op_pad_164 -->
<g id="edge43" class="edge">
<title>cluster_Triangle_quarter&#45;&gt;op_pad_164:in1</title>
<path fill="none" stroke="black" d="M414.28,-90.02C425.55,-86.57 438.19,-83.17 450,-81 607.01,-52.19 648.87,-59 808.5,-59 808.5,-59 808.5,-59 953,-59 1061.05,-59 1089.69,-79.65 1192.79,-80.94"/>
<polygon fill="black" stroke="black" points="1192.98,-84.44 1203,-81 1193.02,-77.44 1192.98,-84.44"/>
</g>
<!-- op_asSInt_166 -->
<g id="node36" class="node">
<title>op_asSInt_166</title>
<polygon fill="#d8bfd8" stroke="transparent" points="458,-21.5 458,-46.5 569,-46.5 569,-21.5 458,-21.5"/>
<polygon fill="none" stroke="black" points="458.5,-21 458.5,-46 481.5,-46 481.5,-21 458.5,-21"/>
<text text-anchor="start" x="463.5" y="-29.8" font-family="Times,serif" font-size="14.00">●</text>
<polygon fill="none" stroke="black" points="481.5,-21 481.5,-46 546.5,-46 546.5,-21 481.5,-21"/>
<text text-anchor="start" x="486.5" y="-29.8" font-family="Times,serif" font-size="14.00"> asSInt </text>
<polygon fill="none" stroke="black" points="546.5,-21 546.5,-46 569.5,-46 569.5,-21 546.5,-21"/>
<text text-anchor="start" x="551.5" y="-29.8" font-family="Times,serif" font-size="14.00">●</text>
</g>
<!-- cluster_Triangle_quarter&#45;&gt;op_asSInt_166 -->
<g id="edge18" class="edge">
<title>cluster_Triangle_quarter&#45;&gt;op_asSInt_166:in1</title>
<path fill="none" stroke="black" d="M389.59,-83.87C401,-65.74 421.4,-39.77 447.31,-34.11"/>
<polygon fill="black" stroke="black" points="447.94,-37.56 457.5,-33 447.18,-30.61 447.94,-37.56"/>
</g>
<!-- op_shr_138&#45;&gt;cluster_Triangle_quarter -->
<g id="edge35" class="edge">
<title>op_shr_138:out&#45;&gt;cluster_Triangle_quarter</title>
<path fill="none" stroke="black" d="M300.5,-97C310.85,-97 321.96,-97.46 332.44,-98.09"/>
<polygon fill="black" stroke="black" points="332.44,-101.6 342.65,-98.78 332.91,-94.61 332.44,-101.6"/>
</g>
<!-- cluster_Triangle_pos -->
<g id="node7" class="node">
<title>cluster_Triangle_pos</title>
<polygon fill="none" stroke="black" points="1693,-246 1639,-246 1639,-210 1693,-210 1693,-246"/>
<text text-anchor="middle" x="1666" y="-224.3" font-family="Times,serif" font-size="14.00">pos</text>
</g>
<!-- op_sub_162 -->
<g id="node32" class="node">
<title>op_sub_162</title>
<polygon fill="#d8bfd8" stroke="transparent" points="1737,-165 1737,-215 1828,-215 1828,-165 1737,-165"/>
<polygon fill="none" stroke="black" points="1737.5,-190 1737.5,-215 1760.5,-215 1760.5,-190 1737.5,-190"/>
<text text-anchor="start" x="1742.5" y="-198.8" font-family="Times,serif" font-size="14.00">●</text>
<polygon fill="none" stroke="black" points="1760.5,-165 1760.5,-215 1805.5,-215 1805.5,-165 1760.5,-165"/>
<text text-anchor="start" x="1765.5" y="-186.3" font-family="Times,serif" font-size="14.00"> sub </text>
<polygon fill="none" stroke="black" points="1805.5,-165 1805.5,-215 1828.5,-215 1828.5,-165 1805.5,-165"/>
<text text-anchor="start" x="1810.5" y="-186.3" font-family="Times,serif" font-size="14.00">●</text>
<polygon fill="none" stroke="black" points="1737.5,-165 1737.5,-190 1760.5,-190 1760.5,-165 1737.5,-165"/>
<text text-anchor="start" x="1742.5" y="-173.8" font-family="Times,serif" font-size="14.00">●</text>
</g>
<!-- cluster_Triangle_pos&#45;&gt;op_sub_162 -->
<g id="edge25" class="edge">
<title>cluster_Triangle_pos&#45;&gt;op_sub_162:in1</title>
<path fill="none" stroke="black" d="M1693.28,-213.75C1703.09,-209.41 1714.68,-205.35 1726.31,-203.74"/>
<polygon fill="black" stroke="black" points="1726.78,-207.21 1736.5,-203 1726.27,-200.23 1726.78,-207.21"/>
</g>
<!-- mux_1631069564 -->
<g id="node8" class="node">
<title>mux_1631069564</title>
<polygon fill="#afeeee" stroke="transparent" points="1513,-218 1513,-268 1585,-268 1585,-218 1513,-218"/>
<polygon fill="none" stroke="black" points="1513,-243 1513,-268 1536,-268 1536,-243 1513,-243"/>
<text text-anchor="start" x="1518" y="-251.8" font-family="Times,serif" font-size="14.00">●</text>
<polygon fill="none" stroke="black" points="1536,-218 1536,-268 1562,-268 1562,-218 1536,-218"/>
<text text-anchor="start" x="1541" y="-239.3" font-family="Times,serif" font-size="14.00">a?</text>
<polygon fill="none" stroke="black" points="1562,-218 1562,-268 1585,-268 1585,-218 1562,-218"/>
<text text-anchor="start" x="1567" y="-239.3" font-family="Times,serif" font-size="14.00">●</text>
<polygon fill="none" stroke="black" points="1513,-218 1513,-243 1536,-243 1536,-218 1513,-218"/>
<text text-anchor="start" x="1518" y="-226.8" font-family="Times,serif" font-size="14.00">●</text>
</g>
<!-- mux_1631069564&#45;&gt;cluster_Triangle_pos -->
<g id="edge44" class="edge">
<title>mux_1631069564:out&#45;&gt;cluster_Triangle_pos</title>
<path fill="none" stroke="black" d="M1586,-243C1600.24,-243 1615.67,-240.62 1629.09,-237.75"/>
<polygon fill="black" stroke="black" points="1629.94,-241.15 1638.9,-235.5 1628.37,-234.33 1629.94,-241.15"/>
</g>
<!-- op_gt_139&#45;&gt;mux_1631069564 -->
<g id="edge36" class="edge">
<title>op_gt_139:out&#45;&gt;mux_1631069564:select</title>
<path fill="none" stroke="black" d="M1137.5,-243C1158.3,-243 1480.74,-202.66 1539.76,-212.41"/>
<polygon fill="black" stroke="black" points="1538.49,-215.69 1549,-217 1541.6,-209.42 1538.49,-215.69"/>
</g>
<!-- op_pad_140 -->
<g id="node10" class="node">
<title>op_pad_140</title>
<polygon fill="#d8bfd8" stroke="transparent" points="906,-219.5 906,-244.5 998,-244.5 998,-219.5 906,-219.5"/>
<polygon fill="none" stroke="black" points="906,-219 906,-244 929,-244 929,-219 906,-219"/>
<text text-anchor="start" x="911" y="-227.8" font-family="Times,serif" font-size="14.00">●</text>
<polygon fill="none" stroke="black" points="929,-219 929,-244 975,-244 975,-219 929,-219"/>
<text text-anchor="start" x="934" y="-227.8" font-family="Times,serif" font-size="14.00"> pad </text>
<polygon fill="none" stroke="black" points="975,-219 975,-244 998,-244 998,-219 975,-219"/>
<text text-anchor="start" x="980" y="-227.8" font-family="Times,serif" font-size="14.00">●</text>
</g>
<!-- op_pad_140&#45;&gt;op_gt_139 -->
<g id="edge32" class="edge">
<title>op_pad_140:out&#45;&gt;op_gt_139:in2</title>
<path fill="none" stroke="black" d="M999,-231C1019.82,-231 1027.45,-230.29 1044.15,-230.07"/>
<polygon fill="black" stroke="black" points="1044.52,-233.56 1054.5,-230 1044.48,-226.56 1044.52,-233.56"/>
</g>
<!-- op_tail_141 -->
<g id="node11" class="node">
<title>op_tail_141</title>
<polygon fill="#d8bfd8" stroke="transparent" points="765,-146 765,-196 854,-196 854,-146 765,-146"/>
<polygon fill="none" stroke="black" points="765.5,-171 765.5,-196 788.5,-196 788.5,-171 765.5,-171"/>
<text text-anchor="start" x="770.5" y="-179.8" font-family="Times,serif" font-size="14.00">●</text>
<polygon fill="none" stroke="black" points="788.5,-146 788.5,-196 831.5,-196 831.5,-146 788.5,-146"/>
<text text-anchor="start" x="793.5" y="-167.3" font-family="Times,serif" font-size="14.00"> tail </text>
<polygon fill="none" stroke="black" points="831.5,-146 831.5,-196 854.5,-196 854.5,-146 831.5,-146"/>
<text text-anchor="start" x="836.5" y="-167.3" font-family="Times,serif" font-size="14.00">●</text>
<polygon fill="none" stroke="black" points="765.5,-146 765.5,-171 788.5,-171 788.5,-146 765.5,-146"/>
<text text-anchor="start" x="772" y="-154.8" font-family="Times,serif" font-size="14.00">1</text>
</g>
<!-- op_tail_141&#45;&gt;op_pad_140 -->
<g id="edge26" class="edge">
<title>op_tail_141:out&#45;&gt;op_pad_140:in1</title>
<path fill="none" stroke="black" d="M855.5,-171C886.15,-171 874.18,-218.18 895.18,-228.86"/>
<polygon fill="black" stroke="black" points="894.48,-232.29 905,-231 895.97,-225.45 894.48,-232.29"/>
</g>
<!-- op_add_142&#45;&gt;op_tail_141 -->
<g id="edge39" class="edge">
<title>op_add_142:out&#45;&gt;op_tail_141:in1</title>
<path fill="none" stroke="black" d="M714,-183C732.59,-183 739.63,-183.69 754.25,-183.92"/>
<polygon fill="black" stroke="black" points="754.47,-187.42 764.5,-184 754.53,-180.42 754.47,-187.42"/>
</g>
<!-- op_pad_143&#45;&gt;op_add_142 -->
<g id="edge17" class="edge">
<title>op_pad_143:out&#45;&gt;op_add_142:in2</title>
<path fill="none" stroke="black" d="M560.5,-181C583.61,-181 591.08,-172.88 609.79,-170.59"/>
<polygon fill="black" stroke="black" points="610.22,-174.07 620,-170 609.81,-167.08 610.22,-174.07"/>
</g>
<!-- op_tail_144 -->
<g id="node14" class="node">
<title>op_tail_144</title>
<polygon fill="#d8bfd8" stroke="transparent" points="1360.5,-273 1360.5,-323 1449.5,-323 1449.5,-273 1360.5,-273"/>
<polygon fill="none" stroke="black" points="1361,-298 1361,-323 1384,-323 1384,-298 1361,-298"/>
<text text-anchor="start" x="1366" y="-306.8" font-family="Times,serif" font-size="14.00">●</text>
<polygon fill="none" stroke="black" points="1384,-273 1384,-323 1427,-323 1427,-273 1384,-273"/>
<text text-anchor="start" x="1389" y="-294.3" font-family="Times,serif" font-size="14.00"> tail </text>
<polygon fill="none" stroke="black" points="1427,-273 1427,-323 1450,-323 1450,-273 1427,-273"/>
<text text-anchor="start" x="1432" y="-294.3" font-family="Times,serif" font-size="14.00">●</text>
<polygon fill="none" stroke="black" points="1361,-273 1361,-298 1384,-298 1384,-273 1361,-273"/>
<text text-anchor="start" x="1367.5" y="-281.8" font-family="Times,serif" font-size="14.00">1</text>
</g>
<!-- op_tail_144&#45;&gt;mux_1631069564 -->
<g id="edge23" class="edge">
<title>op_tail_144:out&#45;&gt;mux_1631069564:in1</title>
<path fill="none" stroke="black" d="M1451,-298C1480.06,-298 1479.7,-265.27 1501.86,-257.6"/>
<polygon fill="black" stroke="black" points="1502.67,-261.01 1512,-256 1501.58,-254.1 1502.67,-261.01"/>
</g>
<!-- op_asUInt_145 -->
<g id="node15" class="node">
<title>op_asUInt_145</title>
<polygon fill="#d8bfd8" stroke="transparent" points="1193,-303.5 1193,-328.5 1307,-328.5 1307,-303.5 1193,-303.5"/>
<polygon fill="none" stroke="black" points="1193,-303 1193,-328 1216,-328 1216,-303 1193,-303"/>
<text text-anchor="start" x="1198" y="-311.8" font-family="Times,serif" font-size="14.00">●</text>
<polygon fill="none" stroke="black" points="1216,-303 1216,-328 1284,-328 1284,-303 1216,-303"/>
<text text-anchor="start" x="1221" y="-311.8" font-family="Times,serif" font-size="14.00"> asUInt </text>
<polygon fill="none" stroke="black" points="1284,-303 1284,-328 1307,-328 1307,-303 1284,-303"/>
<text text-anchor="start" x="1289" y="-311.8" font-family="Times,serif" font-size="14.00">●</text>
</g>
<!-- op_asUInt_145&#45;&gt;op_tail_144 -->
<g id="edge37" class="edge">
<title>op_asUInt_145:out&#45;&gt;op_tail_144:in1</title>
<path fill="none" stroke="black" d="M1308,-315C1327.38,-315 1334.5,-312.2 1349.85,-311.29"/>
<polygon fill="black" stroke="black" points="1350.1,-314.78 1360,-311 1349.9,-307.78 1350.1,-314.78"/>
</g>
<!-- op_sub_146&#45;&gt;op_asUInt_145 -->
<g id="edge4" class="edge">
<title>op_sub_146:out&#45;&gt;op_asUInt_145:in1</title>
<path fill="none" stroke="black" d="M1142.5,-319C1160.78,-319 1167.59,-316.26 1181.93,-315.31"/>
<polygon fill="black" stroke="black" points="1182.11,-318.81 1192,-315 1181.9,-311.81 1182.11,-318.81"/>
</g>
<!-- op_pad_147 -->
<g id="node17" class="node">
<title>op_pad_147</title>
<polygon fill="#d8bfd8" stroke="transparent" points="906,-297.5 906,-322.5 998,-322.5 998,-297.5 906,-297.5"/>
<polygon fill="none" stroke="black" points="906,-297 906,-322 929,-322 929,-297 906,-297"/>
<text text-anchor="start" x="911" y="-305.8" font-family="Times,serif" font-size="14.00">●</text>
<polygon fill="none" stroke="black" points="929,-297 929,-322 975,-322 975,-297 929,-297"/>
<text text-anchor="start" x="934" y="-305.8" font-family="Times,serif" font-size="14.00"> pad </text>
<polygon fill="none" stroke="black" points="975,-297 975,-322 998,-322 998,-297 975,-297"/>
<text text-anchor="start" x="980" y="-305.8" font-family="Times,serif" font-size="14.00">●</text>
</g>
<!-- op_pad_147&#45;&gt;op_sub_146 -->
<g id="edge42" class="edge">
<title>op_pad_147:out&#45;&gt;op_sub_146:in2</title>
<path fill="none" stroke="black" d="M999,-309C1017.62,-309 1024.61,-306.94 1039.24,-306.24"/>
<polygon fill="black" stroke="black" points="1039.58,-309.73 1049.5,-306 1039.42,-302.73 1039.58,-309.73"/>
</g>
<!-- op_tail_148 -->
<g id="node18" class="node">
<title>op_tail_148</title>
<polygon fill="#d8bfd8" stroke="transparent" points="765,-228 765,-278 854,-278 854,-228 765,-228"/>
<polygon fill="none" stroke="black" points="765.5,-253 765.5,-278 788.5,-278 788.5,-253 765.5,-253"/>
<text text-anchor="start" x="770.5" y="-261.8" font-family="Times,serif" font-size="14.00">●</text>
<polygon fill="none" stroke="black" points="788.5,-228 788.5,-278 831.5,-278 831.5,-228 788.5,-228"/>
<text text-anchor="start" x="793.5" y="-249.3" font-family="Times,serif" font-size="14.00"> tail </text>
<polygon fill="none" stroke="black" points="831.5,-228 831.5,-278 854.5,-278 854.5,-228 831.5,-228"/>
<text text-anchor="start" x="836.5" y="-249.3" font-family="Times,serif" font-size="14.00">●</text>
<polygon fill="none" stroke="black" points="765.5,-228 765.5,-253 788.5,-253 788.5,-228 765.5,-228"/>
<text text-anchor="start" x="772" y="-236.8" font-family="Times,serif" font-size="14.00">1</text>
</g>
<!-- op_tail_148&#45;&gt;op_pad_147 -->
<g id="edge14" class="edge">
<title>op_tail_148:out&#45;&gt;op_pad_147:in1</title>
<path fill="none" stroke="black" d="M855.5,-253C884.83,-253 875.06,-296.64 895.23,-306.87"/>
<polygon fill="black" stroke="black" points="894.48,-310.29 905,-309 895.97,-303.45 894.48,-310.29"/>
</g>
<!-- op_add_149&#45;&gt;op_tail_148 -->
<g id="edge40" class="edge">
<title>op_add_149:out&#45;&gt;op_tail_148:in1</title>
<path fill="none" stroke="black" d="M714,-259C732.76,-259 739.54,-263.8 754.19,-265.45"/>
<polygon fill="black" stroke="black" points="754.33,-268.96 764.5,-266 754.7,-261.97 754.33,-268.96"/>
</g>
<!-- op_pad_150&#45;&gt;op_add_149 -->
<g id="edge16" class="edge">
<title>op_pad_150:out&#45;&gt;op_add_149:in2</title>
<path fill="none" stroke="black" d="M560.5,-235C583.61,-235 591.08,-243.12 609.79,-245.41"/>
<polygon fill="black" stroke="black" points="609.81,-248.92 620,-246 610.22,-241.93 609.81,-248.92"/>
</g>
<!-- op_tail_151 -->
<g id="node21" class="node">
<title>op_tail_151</title>
<polygon fill="#d8bfd8" stroke="transparent" points="907.5,-102 907.5,-152 996.5,-152 996.5,-102 907.5,-102"/>
<polygon fill="none" stroke="black" points="908,-127 908,-152 931,-152 931,-127 908,-127"/>
<text text-anchor="start" x="913" y="-135.8" font-family="Times,serif" font-size="14.00">●</text>
<polygon fill="none" stroke="black" points="931,-102 931,-152 974,-152 974,-102 931,-102"/>
<text text-anchor="start" x="936" y="-123.3" font-family="Times,serif" font-size="14.00"> tail </text>
<polygon fill="none" stroke="black" points="974,-102 974,-152 997,-152 997,-102 974,-102"/>
<text text-anchor="start" x="979" y="-123.3" font-family="Times,serif" font-size="14.00">●</text>
<polygon fill="none" stroke="black" points="908,-102 908,-127 931,-127 931,-102 908,-102"/>
<text text-anchor="start" x="914.5" y="-110.8" font-family="Times,serif" font-size="14.00">1</text>
</g>
<!-- op_tail_151&#45;&gt;mux_1631069564 -->
<g id="edge7" class="edge">
<title>op_tail_151:out&#45;&gt;mux_1631069564:in2</title>
<path fill="none" stroke="black" d="M998,-127C1206.26,-127 1257.86,-157.01 1459,-211 1479.39,-216.47 1485.29,-226.24 1501.67,-229.15"/>
<polygon fill="black" stroke="black" points="1501.75,-232.67 1512,-230 1502.32,-225.7 1501.75,-232.67"/>
</g>
<!-- op_add_152&#45;&gt;op_tail_151 -->
<g id="edge2" class="edge">
<title>op_add_152:out&#45;&gt;op_tail_151:in1</title>
<path fill="none" stroke="black" d="M714,-107C723.58,-107 857.59,-132.61 896.83,-138.71"/>
<polygon fill="black" stroke="black" points="896.64,-142.21 907,-140 897.52,-135.27 896.64,-142.21"/>
</g>
<!-- op_pad_153&#45;&gt;op_add_152 -->
<g id="edge28" class="edge">
<title>op_pad_153:out&#45;&gt;op_add_152:in2</title>
<path fill="none" stroke="black" d="M560.5,-107C583.87,-107 591.06,-97.31 610,-94.66"/>
<polygon fill="black" stroke="black" points="610.25,-98.15 620,-94 609.79,-91.17 610.25,-98.15"/>
</g>
<!-- op_div_154 -->
<g id="node24" class="node">
<title>op_div_154</title>
<polygon fill="#d8bfd8" stroke="transparent" points="2978,-32 2978,-82 3065,-82 3065,-32 2978,-32"/>
<polygon fill="none" stroke="black" points="2978.5,-57 2978.5,-82 3001.5,-82 3001.5,-57 2978.5,-57"/>
<text text-anchor="start" x="2983.5" y="-65.8" font-family="Times,serif" font-size="14.00">●</text>
<polygon fill="none" stroke="black" points="3001.5,-32 3001.5,-82 3042.5,-82 3042.5,-32 3001.5,-32"/>
<text text-anchor="start" x="3006.5" y="-53.3" font-family="Times,serif" font-size="14.00"> div </text>
<polygon fill="none" stroke="black" points="3042.5,-32 3042.5,-82 3065.5,-82 3065.5,-32 3042.5,-32"/>
<text text-anchor="start" x="3047.5" y="-53.3" font-family="Times,serif" font-size="14.00">●</text>
<polygon fill="none" stroke="black" points="2978.5,-32 2978.5,-57 3001.5,-57 3001.5,-32 2978.5,-32"/>
<text text-anchor="start" x="2983.5" y="-40.8" font-family="Times,serif" font-size="14.00">●</text>
</g>
<!-- op_div_154&#45;&gt;cluster_Triangle_io_sample_out -->
<g id="edge24" class="edge">
<title>op_div_154:out&#45;&gt;cluster_Triangle_io_sample_out</title>
<path fill="none" stroke="black" d="M3066.5,-57C3076.89,-57 3087.89,-57 3098.65,-57"/>
<polygon fill="black" stroke="black" points="3098.86,-60.5 3108.86,-57 3098.86,-53.5 3098.86,-60.5"/>
</g>
<!-- op_mul_155 -->
<g id="node25" class="node">
<title>op_mul_155</title>
<polygon fill="#d8bfd8" stroke="transparent" points="2800,-56 2800,-106 2926,-106 2926,-56 2800,-56"/>
<polygon fill="none" stroke="black" points="2800,-81 2800,-106 2856,-106 2856,-81 2800,-81"/>
<text text-anchor="start" x="2821.5" y="-89.8" font-family="Times,serif" font-size="14.00">●</text>
<polygon fill="none" stroke="black" points="2856,-56 2856,-106 2903,-106 2903,-56 2856,-56"/>
<text text-anchor="start" x="2861" y="-77.3" font-family="Times,serif" font-size="14.00"> mul </text>
<polygon fill="none" stroke="black" points="2903,-56 2903,-106 2926,-106 2926,-56 2903,-56"/>
<text text-anchor="start" x="2908" y="-77.3" font-family="Times,serif" font-size="14.00">●</text>
<polygon fill="none" stroke="black" points="2800,-56 2800,-81 2856,-81 2856,-56 2800,-56"/>
<text text-anchor="start" x="2805" y="-64.8" font-family="Times,serif" font-size="14.00">32767</text>
</g>
<!-- op_mul_155&#45;&gt;op_div_154 -->
<g id="edge41" class="edge">
<title>op_mul_155:out&#45;&gt;op_div_154:in1</title>
<path fill="none" stroke="black" d="M2927,-81C2946.2,-81 2952.54,-73.31 2967.52,-70.79"/>
<polygon fill="black" stroke="black" points="2967.81,-74.28 2977.5,-70 2967.25,-67.3 2967.81,-74.28"/>
</g>
<!-- op_asSInt_156 -->
<g id="node26" class="node">
<title>op_asSInt_156</title>
<polygon fill="#d8bfd8" stroke="transparent" points="2637,-82.5 2637,-107.5 2748,-107.5 2748,-82.5 2637,-82.5"/>
<polygon fill="none" stroke="black" points="2637.5,-82 2637.5,-107 2660.5,-107 2660.5,-82 2637.5,-82"/>
<text text-anchor="start" x="2642.5" y="-90.8" font-family="Times,serif" font-size="14.00">●</text>
<polygon fill="none" stroke="black" points="2660.5,-82 2660.5,-107 2725.5,-107 2725.5,-82 2660.5,-82"/>
<text text-anchor="start" x="2665.5" y="-90.8" font-family="Times,serif" font-size="14.00"> asSInt </text>
<polygon fill="none" stroke="black" points="2725.5,-82 2725.5,-107 2748.5,-107 2748.5,-82 2725.5,-82"/>
<text text-anchor="start" x="2730.5" y="-90.8" font-family="Times,serif" font-size="14.00">●</text>
</g>
<!-- op_asSInt_156&#45;&gt;op_mul_155 -->
<g id="edge19" class="edge">
<title>op_asSInt_156:out&#45;&gt;op_mul_155:in1</title>
<path fill="none" stroke="black" d="M2749.5,-94C2767.72,-94 2774.62,-94 2788.95,-94"/>
<polygon fill="black" stroke="black" points="2789,-97.5 2799,-94 2789,-90.5 2789,-97.5"/>
</g>
<!-- op_tail_157 -->
<g id="node27" class="node">
<title>op_tail_157</title>
<polygon fill="#d8bfd8" stroke="transparent" points="2496,-69 2496,-119 2585,-119 2585,-69 2496,-69"/>
<polygon fill="none" stroke="black" points="2496.5,-94 2496.5,-119 2519.5,-119 2519.5,-94 2496.5,-94"/>
<text text-anchor="start" x="2501.5" y="-102.8" font-family="Times,serif" font-size="14.00">●</text>
<polygon fill="none" stroke="black" points="2519.5,-69 2519.5,-119 2562.5,-119 2562.5,-69 2519.5,-69"/>
<text text-anchor="start" x="2524.5" y="-90.3" font-family="Times,serif" font-size="14.00"> tail </text>
<polygon fill="none" stroke="black" points="2562.5,-69 2562.5,-119 2585.5,-119 2585.5,-69 2562.5,-69"/>
<text text-anchor="start" x="2567.5" y="-90.3" font-family="Times,serif" font-size="14.00">●</text>
<polygon fill="none" stroke="black" points="2496.5,-69 2496.5,-94 2519.5,-94 2519.5,-69 2496.5,-69"/>
<text text-anchor="start" x="2503" y="-77.8" font-family="Times,serif" font-size="14.00">1</text>
</g>
<!-- op_tail_157&#45;&gt;op_asSInt_156 -->
<g id="edge12" class="edge">
<title>op_tail_157:out&#45;&gt;op_asSInt_156:in1</title>
<path fill="none" stroke="black" d="M2586.5,-94C2604.9,-94 2611.88,-94 2626.35,-94"/>
<polygon fill="black" stroke="black" points="2626.5,-97.5 2636.5,-94 2626.5,-90.5 2626.5,-97.5"/>
</g>
<!-- op_asUInt_158 -->
<g id="node28" class="node">
<title>op_asUInt_158</title>
<polygon fill="#d8bfd8" stroke="transparent" points="2330,-95.5 2330,-120.5 2444,-120.5 2444,-95.5 2330,-95.5"/>
<polygon fill="none" stroke="black" points="2330,-95 2330,-120 2353,-120 2353,-95 2330,-95"/>
<text text-anchor="start" x="2335" y="-103.8" font-family="Times,serif" font-size="14.00">●</text>
<polygon fill="none" stroke="black" points="2353,-95 2353,-120 2421,-120 2421,-95 2353,-95"/>
<text text-anchor="start" x="2358" y="-103.8" font-family="Times,serif" font-size="14.00"> asUInt </text>
<polygon fill="none" stroke="black" points="2421,-95 2421,-120 2444,-120 2444,-95 2421,-95"/>
<text text-anchor="start" x="2426" y="-103.8" font-family="Times,serif" font-size="14.00">●</text>
</g>
<!-- op_asUInt_158&#45;&gt;op_tail_157 -->
<g id="edge31" class="edge">
<title>op_asUInt_158:out&#45;&gt;op_tail_157:in1</title>
<path fill="none" stroke="black" d="M2445,-107C2463.59,-107 2470.63,-107 2485.25,-107"/>
<polygon fill="black" stroke="black" points="2485.5,-110.5 2495.5,-107 2485.5,-103.5 2485.5,-110.5"/>
</g>
<!-- op_sub_159 -->
<g id="node29" class="node">
<title>op_sub_159</title>
<polygon fill="#d8bfd8" stroke="transparent" points="2187,-82 2187,-132 2278,-132 2278,-82 2187,-82"/>
<polygon fill="none" stroke="black" points="2187.5,-107 2187.5,-132 2210.5,-132 2210.5,-107 2187.5,-107"/>
<text text-anchor="start" x="2192.5" y="-115.8" font-family="Times,serif" font-size="14.00">●</text>
<polygon fill="none" stroke="black" points="2210.5,-82 2210.5,-132 2255.5,-132 2255.5,-82 2210.5,-82"/>
<text text-anchor="start" x="2215.5" y="-103.3" font-family="Times,serif" font-size="14.00"> sub </text>
<polygon fill="none" stroke="black" points="2255.5,-82 2255.5,-132 2278.5,-132 2278.5,-82 2255.5,-82"/>
<text text-anchor="start" x="2260.5" y="-103.3" font-family="Times,serif" font-size="14.00">●</text>
<polygon fill="none" stroke="black" points="2187.5,-82 2187.5,-107 2210.5,-107 2210.5,-82 2187.5,-82"/>
<text text-anchor="start" x="2192.5" y="-90.8" font-family="Times,serif" font-size="14.00">●</text>
</g>
<!-- op_sub_159&#45;&gt;op_asUInt_158 -->
<g id="edge1" class="edge">
<title>op_sub_159:out&#45;&gt;op_asUInt_158:in1</title>
<path fill="none" stroke="black" d="M2279.5,-107C2297.72,-107 2304.62,-107 2318.95,-107"/>
<polygon fill="black" stroke="black" points="2319,-110.5 2329,-107 2319,-103.5 2319,-110.5"/>
</g>
<!-- op_tail_160 -->
<g id="node30" class="node">
<title>op_tail_160</title>
<polygon fill="#d8bfd8" stroke="transparent" points="2046,-120 2046,-170 2135,-170 2135,-120 2046,-120"/>
<polygon fill="none" stroke="black" points="2046.5,-145 2046.5,-170 2069.5,-170 2069.5,-145 2046.5,-145"/>
<text text-anchor="start" x="2051.5" y="-153.8" font-family="Times,serif" font-size="14.00">●</text>
<polygon fill="none" stroke="black" points="2069.5,-120 2069.5,-170 2112.5,-170 2112.5,-120 2069.5,-120"/>
<text text-anchor="start" x="2074.5" y="-141.3" font-family="Times,serif" font-size="14.00"> tail </text>
<polygon fill="none" stroke="black" points="2112.5,-120 2112.5,-170 2135.5,-170 2135.5,-120 2112.5,-120"/>
<text text-anchor="start" x="2117.5" y="-141.3" font-family="Times,serif" font-size="14.00">●</text>
<polygon fill="none" stroke="black" points="2046.5,-120 2046.5,-145 2069.5,-145 2069.5,-120 2046.5,-120"/>
<text text-anchor="start" x="2053" y="-128.8" font-family="Times,serif" font-size="14.00">1</text>
</g>
<!-- op_tail_160&#45;&gt;op_sub_159 -->
<g id="edge8" class="edge">
<title>op_tail_160:out&#45;&gt;op_sub_159:in1</title>
<path fill="none" stroke="black" d="M2136.5,-145C2157.46,-145 2160.96,-127.2 2176.46,-121.64"/>
<polygon fill="black" stroke="black" points="2177.2,-125.07 2186.5,-120 2176.07,-118.16 2177.2,-125.07"/>
</g>
<!-- op_asUInt_161 -->
<g id="node31" class="node">
<title>op_asUInt_161</title>
<polygon fill="#d8bfd8" stroke="transparent" points="1880,-161.5 1880,-186.5 1994,-186.5 1994,-161.5 1880,-161.5"/>
<polygon fill="none" stroke="black" points="1880,-161 1880,-186 1903,-186 1903,-161 1880,-161"/>
<text text-anchor="start" x="1885" y="-169.8" font-family="Times,serif" font-size="14.00">●</text>
<polygon fill="none" stroke="black" points="1903,-161 1903,-186 1971,-186 1971,-161 1903,-161"/>
<text text-anchor="start" x="1908" y="-169.8" font-family="Times,serif" font-size="14.00"> asUInt </text>
<polygon fill="none" stroke="black" points="1971,-161 1971,-186 1994,-186 1994,-161 1971,-161"/>
<text text-anchor="start" x="1976" y="-169.8" font-family="Times,serif" font-size="14.00">●</text>
</g>
<!-- op_asUInt_161&#45;&gt;op_tail_160 -->
<g id="edge5" class="edge">
<title>op_asUInt_161:out&#45;&gt;op_tail_160:in1</title>
<path fill="none" stroke="black" d="M1995,-173C2014.57,-173 2020.35,-162.52 2035.4,-159.08"/>
<polygon fill="black" stroke="black" points="2035.93,-162.54 2045.5,-158 2035.18,-155.58 2035.93,-162.54"/>
</g>
<!-- op_sub_162&#45;&gt;op_asUInt_161 -->
<g id="edge15" class="edge">
<title>op_sub_162:out&#45;&gt;op_asUInt_161:in1</title>
<path fill="none" stroke="black" d="M1829.5,-190C1848.94,-190 1854.22,-178.12 1869.01,-174.22"/>
<polygon fill="black" stroke="black" points="1869.5,-177.69 1879,-173 1868.65,-170.74 1869.5,-177.69"/>
</g>
<!-- op_pad_163&#45;&gt;op_sub_162 -->
<g id="edge9" class="edge">
<title>op_pad_163:out&#45;&gt;op_sub_162:in2</title>
<path fill="none" stroke="black" d="M1596,-177C1654.91,-177 1672.14,-177 1726.32,-177"/>
<polygon fill="black" stroke="black" points="1726.5,-180.5 1736.5,-177 1726.5,-173.5 1726.5,-180.5"/>
</g>
<!-- op_pad_164&#45;&gt;op_sub_159 -->
<g id="edge33" class="edge">
<title>op_pad_164:out&#45;&gt;op_sub_159:in2</title>
<path fill="none" stroke="black" d="M1297,-81C1408.6,-81 1436.4,-88 1548,-88 1548,-88 1548,-88 1938,-88 2045.02,-88 2074.22,-93.63 2176.38,-93.98"/>
<polygon fill="black" stroke="black" points="2176.49,-97.48 2186.5,-94 2176.51,-90.48 2176.49,-97.48"/>
</g>
<!-- op_pad_165 -->
<g id="node35" class="node">
<title>op_pad_165</title>
<polygon fill="#d8bfd8" stroke="transparent" points="1359,-21.5 1359,-46.5 1451,-46.5 1451,-21.5 1359,-21.5"/>
<polygon fill="none" stroke="black" points="1359,-21 1359,-46 1382,-46 1382,-21 1359,-21"/>
<text text-anchor="start" x="1364" y="-29.8" font-family="Times,serif" font-size="14.00">●</text>
<polygon fill="none" stroke="black" points="1382,-21 1382,-46 1428,-46 1428,-21 1382,-21"/>
<text text-anchor="start" x="1387" y="-29.8" font-family="Times,serif" font-size="14.00"> pad </text>
<polygon fill="none" stroke="black" points="1428,-21 1428,-46 1451,-46 1451,-21 1428,-21"/>
<text text-anchor="start" x="1433" y="-29.8" font-family="Times,serif" font-size="14.00">●</text>
</g>
<!-- op_pad_165&#45;&gt;op_div_154 -->
<g id="edge21" class="edge">
<title>op_pad_165:out&#45;&gt;op_div_154:in2</title>
<path fill="none" stroke="black" d="M1452,-33C1546.67,-33 1570.33,-33 1665,-33 1665,-33 1665,-33 2693.5,-33 2722.74,-33 2914.18,-42.43 2967.5,-43.83"/>
<polygon fill="black" stroke="black" points="2967.44,-47.33 2977.5,-44 2967.56,-40.33 2967.44,-47.33"/>
</g>
<!-- op_asSInt_166&#45;&gt;op_pad_165 -->
<g id="edge3" class="edge">
<title>op_asSInt_166:out&#45;&gt;op_pad_165:in1</title>
<path fill="none" stroke="black" d="M570.5,-33C676.28,-33 702.72,-33 808.5,-33 808.5,-33 808.5,-33 1096.5,-33 1209.2,-33 1239.94,-33 1347.68,-33"/>
<polygon fill="black" stroke="black" points="1348,-36.5 1358,-33 1348,-29.5 1348,-36.5"/>
</g>
</g>
</svg>
