<?xml version="1.0" encoding="UTF-8" standalone="no"?>
<?xml-stylesheet href="styles.css" type="text/css"?>
<!DOCTYPE svg PUBLIC "-//W3C//DTD SVG 1.1//EN"
 "http://www.w3.org/Graphics/SVG/1.1/DTD/svg11.dtd">
<!-- Generated by graphviz version 2.40.1 (0)
 -->
<!-- Title: VivadoTest_hierarchy Pages: 1 -->
<svg width="472pt" height="127pt"
 viewBox="0.00 0.00 472.00 126.50" xmlns="http://www.w3.org/2000/svg" xmlns:xlink="http://www.w3.org/1999/xlink">
<g id="graph0" class="graph" transform="scale(1 1) rotate(0) translate(4 122.5)">
<title>VivadoTest_hierarchy</title>
<polygon fill="#ffffff" stroke="transparent" points="-4,4 -4,-122.5 468,-122.5 468,4 -4,4"/>
<!-- module_1 -->
<g id="node1" class="node">
<title>module_1</title>
<g id="a_node1"><a xlink:href="VivadoTest.dot.svg" xlink:title="&lt;TABLE&gt;">
<polygon fill="#ffdead" stroke="transparent" points="8,-89 8,-114 106,-114 106,-89 8,-89"/>
<polygon fill="none" stroke="#000000" points="8,-89 8,-114 106,-114 106,-89 8,-89"/>
<text text-anchor="start" x="13" y="-97.8" font-family="Times,serif" font-size="14.00" fill="#000000"> VivadoTest </text>
<polygon fill="#fff8dc" stroke="transparent" points="8,-64 8,-89 106,-89 106,-64 8,-64"/>
<polygon fill="none" stroke="#000000" points="8,-64 8,-89 106,-89 106,-64 8,-64"/>
<text text-anchor="start" x="37.5" y="-72.8" font-family="Times,serif" font-size="14.00" fill="#000000">PWM</text>
<polygon fill="#fff8dc" stroke="transparent" points="8,-39 8,-64 106,-64 106,-39 8,-39"/>
<polygon fill="none" stroke="#000000" points="8,-39 8,-64 106,-64 106,-39 8,-39"/>
<text text-anchor="start" x="25" y="-47.8" font-family="Times,serif" font-size="14.00" fill="#000000">SPISlave</text>
</a>
</g>
</g>
<!-- module_2 -->
<g id="node2" class="node">
<title>module_2</title>
<g id="a_node2"><a xlink:href="PWM.dot.svg" xlink:title="&lt;TABLE&gt;">
<polygon fill="#ffdead" stroke="transparent" points="170.5,-83 170.5,-108 228.5,-108 228.5,-83 170.5,-83"/>
<polygon fill="none" stroke="#000000" points="170.5,-83 170.5,-108 228.5,-108 228.5,-83 170.5,-83"/>
<text text-anchor="start" x="175.5" y="-91.8" font-family="Times,serif" font-size="14.00" fill="#000000"> PWM </text>
</a>
</g>
</g>
<!-- module_1&#45;&gt;module_2 -->
<g id="edge1" class="edge">
<title>module_1:module_2&#45;&gt;module_2</title>
<path fill="none" stroke="#000000" d="M106,-76C121.2407,-76 137.5759,-78.5725 152.2602,-81.8723"/>
<polygon fill="#000000" stroke="#000000" points="151.587,-85.3102 162.1287,-84.2502 153.2269,-78.5049 151.587,-85.3102"/>
</g>
<!-- module_3 -->
<g id="node3" class="node">
<title>module_3</title>
<g id="a_node3"><a xlink:href="SPISlave.dot.svg" xlink:title="&lt;TABLE&gt;">
<polygon fill="#ffdead" stroke="transparent" points="158.5,-31 158.5,-56 241.5,-56 241.5,-31 158.5,-31"/>
<polygon fill="none" stroke="#000000" points="158.5,-31 158.5,-56 241.5,-56 241.5,-31 158.5,-31"/>
<text text-anchor="start" x="163.5" y="-39.8" font-family="Times,serif" font-size="14.00" fill="#000000"> SPISlave </text>
<polygon fill="#fff8dc" stroke="transparent" points="158.5,-6 158.5,-31 241.5,-31 241.5,-6 158.5,-6"/>
<polygon fill="none" stroke="#000000" points="158.5,-6 158.5,-31 241.5,-31 241.5,-6 158.5,-6"/>
<text text-anchor="start" x="189" y="-14.8" font-family="Times,serif" font-size="14.00" fill="#000000">spi</text>
</a>
</g>
</g>
<!-- module_1&#45;&gt;module_3 -->
<g id="edge3" class="edge">
<title>module_1:module_3&#45;&gt;module_3</title>
<path fill="none" stroke="#000000" d="M106,-51C117.0571,-51 128.6902,-49.646 139.851,-47.6426"/>
<polygon fill="#000000" stroke="#000000" points="140.8107,-51.0205 149.9379,-45.6404 139.4477,-44.1544 140.8107,-51.0205"/>
</g>
<!-- module_4 -->
<g id="node4" class="node">
<title>module_4</title>
<g id="a_node4"><a xlink:href="SPI_Slave_nandland.dot.svg" xlink:title="&lt;TABLE&gt;">
<polygon fill="#ffdead" stroke="transparent" points="293.5,-5 293.5,-30 456.5,-30 456.5,-5 293.5,-5"/>
<polygon fill="none" stroke="#000000" points="293.5,-5 293.5,-30 456.5,-30 456.5,-5 293.5,-5"/>
<text text-anchor="start" x="298.5" y="-13.8" font-family="Times,serif" font-size="14.00" fill="#000000"> SPI_Slave_nandland </text>
</a>
</g>
</g>
<!-- module_3&#45;&gt;module_4 -->
<g id="edge2" class="edge">
<title>module_3:module_4&#45;&gt;module_4</title>
<path fill="none" stroke="#000000" d="M241.5,-18C252.1955,-18 263.3748,-18 274.5127,-18"/>
<polygon fill="#000000" stroke="#000000" points="274.7146,-21.5001 284.7146,-18 274.7146,-14.5001 274.7146,-21.5001"/>
</g>
</g>
</svg>
