<?xml version="1.0" encoding="UTF-8" standalone="no"?>
<!DOCTYPE svg PUBLIC "-//W3C//DTD SVG 1.1//EN"
 "http://www.w3.org/Graphics/SVG/1.1/DTD/svg11.dtd">
<!-- Generated by graphviz version 2.40.1 (0)
 -->
<!-- Title: Generator Pages: 1 -->
<svg width="747pt" height="332pt"
 viewBox="0.00 0.00 746.59 332.00" xmlns="http://www.w3.org/2000/svg" xmlns:xlink="http://www.w3.org/1999/xlink">
<g id="graph0" class="graph" transform="scale(1 1) rotate(0) translate(4 328)">
<title>Generator</title>
<polygon fill="#ffffff" stroke="transparent" points="-4,4 -4,-328 742.5882,-328 742.5882,4 -4,4"/>
<!-- Packet_Input -->
<g id="node1" class="node">
<title>Packet_Input</title>
<ellipse fill="none" stroke="#000000" cx="273.0444" cy="-306" rx="70.6878" ry="18"/>
<text text-anchor="middle" x="273.0444" y="-302.3" font-family="Times,serif" font-size="14.00" fill="#000000">Packet_Input</text>
</g>
<!-- Enabled -->
<g id="node2" class="node">
<title>Enabled</title>
<ellipse fill="none" stroke="#000000" cx="338.0444" cy="-234" rx="48.9926" ry="18"/>
<text text-anchor="middle" x="338.0444" y="-230.3" font-family="Times,serif" font-size="14.00" fill="#000000">Enabled</text>
</g>
<!-- Packet_Input&#45;&gt;Enabled -->
<g id="edge1" class="edge">
<title>Packet_Input&#45;&gt;Enabled</title>
<path fill="none" stroke="#000000" d="M289.1118,-288.2022C297.1805,-279.2646 307.083,-268.2957 315.8641,-258.569"/>
<polygon fill="#000000" stroke="#000000" points="318.5063,-260.8653 322.6094,-251.0972 313.3104,-256.1746 318.5063,-260.8653"/>
</g>
<!-- Instrument -->
<g id="node3" class="node">
<title>Instrument</title>
<ellipse fill="none" stroke="#000000" cx="63.0444" cy="-234" rx="63.0888" ry="18"/>
<text text-anchor="middle" x="63.0444" y="-230.3" font-family="Times,serif" font-size="14.00" fill="#000000">Instrument</text>
</g>
<!-- Packet_Input&#45;&gt;Instrument -->
<g id="edge2" class="edge">
<title>Packet_Input&#45;&gt;Instrument</title>
<path fill="none" stroke="#000000" d="M230.8004,-291.5163C196.8618,-279.8802 149.1066,-263.507 113.2232,-251.2041"/>
<polygon fill="#000000" stroke="#000000" points="114.033,-247.7819 103.4384,-247.8494 111.7627,-254.4035 114.033,-247.7819"/>
</g>
<!-- Note_Index -->
<g id="node4" class="node">
<title>Note_Index</title>
<ellipse fill="none" stroke="#000000" cx="208.0444" cy="-234" rx="63.8893" ry="18"/>
<text text-anchor="middle" x="208.0444" y="-230.3" font-family="Times,serif" font-size="14.00" fill="#000000">Note_Index</text>
</g>
<!-- Packet_Input&#45;&gt;Note_Index -->
<g id="edge3" class="edge">
<title>Packet_Input&#45;&gt;Note_Index</title>
<path fill="none" stroke="#000000" d="M256.977,-288.2022C249.1056,-279.4832 239.4891,-268.8311 230.8711,-259.2849"/>
<polygon fill="#000000" stroke="#000000" points="233.226,-256.6704 223.927,-251.593 228.0301,-261.3611 233.226,-256.6704"/>
</g>
<!-- Velocity -->
<g id="node5" class="node">
<title>Velocity</title>
<ellipse fill="none" stroke="#000000" cx="452.0444" cy="-234" rx="47.3916" ry="18"/>
<text text-anchor="middle" x="452.0444" y="-230.3" font-family="Times,serif" font-size="14.00" fill="#000000">Velocity</text>
</g>
<!-- Packet_Input&#45;&gt;Velocity -->
<g id="edge4" class="edge">
<title>Packet_Input&#45;&gt;Velocity</title>
<path fill="none" stroke="#000000" d="M311.0057,-290.7307C339.9904,-279.072 379.9147,-263.0131 409.8896,-250.9561"/>
<polygon fill="#000000" stroke="#000000" points="411.2741,-254.1718 419.2456,-247.1928 408.6618,-247.6775 411.2741,-254.1718"/>
</g>
<!-- Generate_Sound -->
<g id="node10" class="node">
<title>Generate_Sound</title>
<ellipse fill="none" stroke="#000000" cx="452.0444" cy="-162" rx="87.1846" ry="18"/>
<text text-anchor="middle" x="452.0444" y="-158.3" font-family="Times,serif" font-size="14.00" fill="#000000">Generate_Sound</text>
</g>
<!-- Instrument&#45;&gt;Generate_Sound -->
<g id="edge9" class="edge">
<title>Instrument&#45;&gt;Generate_Sound</title>
<path fill="none" stroke="#000000" d="M109.7884,-221.7645C118.1719,-219.7271 126.8479,-217.7201 135.0444,-216 214.7835,-199.2664 306.631,-184.062 370.866,-174.0817"/>
<polygon fill="#000000" stroke="#000000" points="371.5844,-177.5123 380.9322,-172.5254 370.5148,-170.5945 371.5844,-177.5123"/>
</g>
<!-- Note_Index&#45;&gt;Generate_Sound -->
<g id="edge10" class="edge">
<title>Note_Index&#45;&gt;Generate_Sound</title>
<path fill="none" stroke="#000000" d="M252.231,-220.9613C291.3452,-209.4194 348.774,-192.4732 392.0376,-179.7069"/>
<polygon fill="#000000" stroke="#000000" points="393.2739,-182.9914 401.8745,-176.8042 391.2927,-176.2776 393.2739,-182.9914"/>
</g>
<!-- Velocity&#45;&gt;Generate_Sound -->
<g id="edge11" class="edge">
<title>Velocity&#45;&gt;Generate_Sound</title>
<path fill="none" stroke="#000000" d="M452.0444,-215.8314C452.0444,-208.131 452.0444,-198.9743 452.0444,-190.4166"/>
<polygon fill="#000000" stroke="#000000" points="455.5445,-190.4132 452.0444,-180.4133 448.5445,-190.4133 455.5445,-190.4132"/>
</g>
<!-- Global_Input -->
<g id="node6" class="node">
<title>Global_Input</title>
<ellipse fill="none" stroke="#000000" cx="669.0444" cy="-306" rx="69.5877" ry="18"/>
<text text-anchor="middle" x="669.0444" y="-302.3" font-family="Times,serif" font-size="14.00" fill="#000000">Global_Input</text>
</g>
<!-- Envelope -->
<g id="node7" class="node">
<title>Envelope</title>
<ellipse fill="none" stroke="#000000" cx="640.0444" cy="-162" rx="53.8905" ry="18"/>
<text text-anchor="middle" x="640.0444" y="-158.3" font-family="Times,serif" font-size="14.00" fill="#000000">Envelope</text>
</g>
<!-- Global_Input&#45;&gt;Envelope -->
<g id="edge5" class="edge">
<title>Global_Input&#45;&gt;Envelope</title>
<path fill="none" stroke="#000000" d="M665.3715,-287.7623C660.4034,-263.0928 651.4953,-218.8598 645.6779,-189.9731"/>
<polygon fill="#000000" stroke="#000000" points="649.0929,-189.2018 643.6875,-180.0896 642.2307,-190.5838 649.0929,-189.2018"/>
</g>
<!-- Pitchwheel -->
<g id="node8" class="node">
<title>Pitchwheel</title>
<ellipse fill="none" stroke="#000000" cx="579.0444" cy="-234" rx="61.99" ry="18"/>
<text text-anchor="middle" x="579.0444" y="-230.3" font-family="Times,serif" font-size="14.00" fill="#000000">Pitchwheel</text>
</g>
<!-- Global_Input&#45;&gt;Pitchwheel -->
<g id="edge6" class="edge">
<title>Global_Input&#45;&gt;Pitchwheel</title>
<path fill="none" stroke="#000000" d="M647.2579,-288.5708C635.5649,-279.2164 620.9924,-267.5584 608.3219,-257.422"/>
<polygon fill="#000000" stroke="#000000" points="610.3149,-254.5342 600.3197,-251.0202 605.942,-260.0003 610.3149,-254.5342"/>
</g>
<!-- Process_Sound -->
<g id="node11" class="node">
<title>Process_Sound</title>
<ellipse fill="none" stroke="#000000" cx="531.0444" cy="-90" rx="80.6858" ry="18"/>
<text text-anchor="middle" x="531.0444" y="-86.3" font-family="Times,serif" font-size="14.00" fill="#000000">Process_Sound</text>
</g>
<!-- Envelope&#45;&gt;Process_Sound -->
<g id="edge13" class="edge">
<title>Envelope&#45;&gt;Process_Sound</title>
<path fill="none" stroke="#000000" d="M615.5827,-145.8418C600.8598,-136.1166 581.8838,-123.582 565.6417,-112.8532"/>
<polygon fill="#000000" stroke="#000000" points="567.217,-109.6992 556.9439,-107.1079 563.3588,-115.54 567.217,-109.6992"/>
</g>
<!-- Pitchwheel&#45;&gt;Generate_Sound -->
<g id="edge8" class="edge">
<title>Pitchwheel&#45;&gt;Generate_Sound</title>
<path fill="none" stroke="#000000" d="M550.5431,-217.8418C532.9919,-207.8915 510.253,-195.0002 491.046,-184.1111"/>
<polygon fill="#000000" stroke="#000000" points="492.6463,-180.9951 482.2209,-179.1079 489.194,-187.0846 492.6463,-180.9951"/>
</g>
<!-- NoteLife -->
<g id="node9" class="node">
<title>NoteLife</title>
<ellipse fill="none" stroke="#000000" cx="531.0444" cy="-306" rx="50.8918" ry="18"/>
<text text-anchor="middle" x="531.0444" y="-302.3" font-family="Times,serif" font-size="14.00" fill="#000000">NoteLife</text>
</g>
<!-- NoteLife&#45;&gt;Pitchwheel -->
<g id="edge7" class="edge">
<title>NoteLife&#45;&gt;Pitchwheel</title>
<path fill="none" stroke="#000000" d="M542.9096,-288.2022C548.5058,-279.8079 555.2966,-269.6218 561.4738,-260.3558"/>
<polygon fill="#000000" stroke="#000000" points="564.5145,-262.1045 567.1494,-251.8425 558.6901,-258.2216 564.5145,-262.1045"/>
</g>
<!-- Generate_Sound&#45;&gt;Process_Sound -->
<g id="edge12" class="edge">
<title>Generate_Sound&#45;&gt;Process_Sound</title>
<path fill="none" stroke="#000000" d="M471.5725,-144.2022C481.4262,-135.2217 493.5301,-124.1902 504.2405,-114.4289"/>
<polygon fill="#000000" stroke="#000000" points="506.7076,-116.9159 511.7409,-107.593 501.9924,-111.7423 506.7076,-116.9159"/>
</g>
<!-- Output_To_Adder -->
<g id="node12" class="node">
<title>Output_To_Adder</title>
<ellipse fill="none" stroke="#000000" cx="531.0444" cy="-18" rx="90.9839" ry="18"/>
<text text-anchor="middle" x="531.0444" y="-14.3" font-family="Times,serif" font-size="14.00" fill="#000000">Output_To_Adder</text>
</g>
<!-- Process_Sound&#45;&gt;Output_To_Adder -->
<g id="edge14" class="edge">
<title>Process_Sound&#45;&gt;Output_To_Adder</title>
<path fill="none" stroke="#000000" d="M531.0444,-71.8314C531.0444,-64.131 531.0444,-54.9743 531.0444,-46.4166"/>
<polygon fill="#000000" stroke="#000000" points="534.5445,-46.4132 531.0444,-36.4133 527.5445,-46.4133 534.5445,-46.4132"/>
</g>
</g>
</svg>
