<?xml version="1.0" encoding="UTF-8" standalone="no"?>
<!DOCTYPE svg PUBLIC "-//W3C//DTD SVG 1.1//EN"
 "http://www.w3.org/Graphics/SVG/1.1/DTD/svg11.dtd">
<!-- Generated by graphviz version 2.40.1 (0)
 -->
<!-- Title: send_global_flow Pages: 1 -->
<svg width="470pt" height="332pt"
 viewBox="0.00 0.00 469.56 332.00" xmlns="http://www.w3.org/2000/svg" xmlns:xlink="http://www.w3.org/1999/xlink">
<g id="graph0" class="graph" transform="scale(1 1) rotate(0) translate(4 328)">
<title>send_global_flow</title>
<polygon fill="#ffffff" stroke="transparent" points="-4,4 -4,-328 465.5591,-328 465.5591,4 -4,4"/>
<!-- Verilog_Wrapper -->
<g id="node1" class="node">
<title>Verilog_Wrapper</title>
<ellipse fill="none" stroke="#000000" cx="330.6407" cy="-306" rx="88.2844" ry="18"/>
<text text-anchor="middle" x="330.6407" y="-302.3" font-family="Times,serif" font-size="14.00" fill="#000000">Verilog_Wrapper</text>
</g>
<!-- Decoder -->
<g id="node2" class="node">
<title>Decoder</title>
<ellipse fill="none" stroke="#000000" cx="274.6407" cy="-234" rx="49.2915" ry="18"/>
<text text-anchor="middle" x="274.6407" y="-230.3" font-family="Times,serif" font-size="14.00" fill="#000000">Decoder</text>
</g>
<!-- Verilog_Wrapper&#45;&gt;Decoder -->
<g id="edge1" class="edge">
<title>Verilog_Wrapper&#45;&gt;Decoder</title>
<path fill="none" stroke="#000000" d="M316.798,-288.2022C310.0343,-279.506 301.7748,-268.8867 294.365,-259.3598"/>
<polygon fill="#000000" stroke="#000000" points="297.0331,-257.0893 288.1309,-251.3446 291.5077,-261.3869 297.0331,-257.0893"/>
</g>
<!-- Master_Volume_Reg -->
<g id="node3" class="node">
<title>Master_Volume_Reg</title>
<ellipse fill="none" stroke="#000000" cx="104.6407" cy="-90" rx="104.7816" ry="18"/>
<text text-anchor="middle" x="104.6407" y="-86.3" font-family="Times,serif" font-size="14.00" fill="#000000">Master_Volume_Reg</text>
</g>
<!-- Decoder&#45;&gt;Master_Volume_Reg -->
<g id="edge2" class="edge">
<title>Decoder&#45;&gt;Master_Volume_Reg</title>
<path fill="none" stroke="#000000" d="M229.5043,-226.3004C182.9997,-217.339 115.1691,-201.0425 99.6407,-180 86.6445,-162.3888 89.3414,-137.1571 94.4631,-117.8884"/>
<polygon fill="#000000" stroke="#000000" points="97.8617,-118.74 97.3826,-108.156 91.1569,-116.7287 97.8617,-118.74"/>
</g>
<!-- Envelope_Reg -->
<g id="node4" class="node">
<title>Envelope_Reg</title>
<ellipse fill="none" stroke="#000000" cx="184.6407" cy="-162" rx="76.0865" ry="18"/>
<text text-anchor="middle" x="184.6407" y="-158.3" font-family="Times,serif" font-size="14.00" fill="#000000">Envelope_Reg</text>
</g>
<!-- Decoder&#45;&gt;Envelope_Reg -->
<g id="edge3" class="edge">
<title>Decoder&#45;&gt;Envelope_Reg</title>
<path fill="none" stroke="#000000" d="M253.7667,-217.3008C242.0952,-207.9636 227.3494,-196.1669 214.4778,-185.8697"/>
<polygon fill="#000000" stroke="#000000" points="216.3363,-182.8743 206.3411,-179.3603 211.9634,-188.3404 216.3363,-182.8743"/>
</g>
<!-- Pitchwheel_Reg -->
<g id="node5" class="node">
<title>Pitchwheel_Reg</title>
<ellipse fill="none" stroke="#000000" cx="363.6407" cy="-162" rx="84.485" ry="18"/>
<text text-anchor="middle" x="363.6407" y="-158.3" font-family="Times,serif" font-size="14.00" fill="#000000">Pitchwheel_Reg</text>
</g>
<!-- Decoder&#45;&gt;Pitchwheel_Reg -->
<g id="edge4" class="edge">
<title>Decoder&#45;&gt;Pitchwheel_Reg</title>
<path fill="none" stroke="#000000" d="M295.2828,-217.3008C306.7404,-208.0317 321.1939,-196.339 333.8561,-186.0954"/>
<polygon fill="#000000" stroke="#000000" points="336.2957,-188.6238 341.8689,-179.6132 331.893,-183.1816 336.2957,-188.6238"/>
</g>
<!-- Adder -->
<g id="node7" class="node">
<title>Adder</title>
<ellipse fill="none" stroke="#000000" cx="315.6407" cy="-18" rx="38.1938" ry="18"/>
<text text-anchor="middle" x="315.6407" y="-14.3" font-family="Times,serif" font-size="14.00" fill="#000000">Adder</text>
</g>
<!-- Master_Volume_Reg&#45;&gt;Adder -->
<g id="edge7" class="edge">
<title>Master_Volume_Reg&#45;&gt;Adder</title>
<path fill="none" stroke="#000000" d="M151.9932,-73.8418C188.9768,-61.2218 239.8246,-43.8709 274.9811,-31.8744"/>
<polygon fill="#000000" stroke="#000000" points="276.1226,-35.1831 284.4564,-28.6411 273.8619,-28.5582 276.1226,-35.1831"/>
</g>
<!-- GeneratorX -->
<g id="node6" class="node">
<title>GeneratorX</title>
<ellipse fill="none" stroke="#000000" cx="315.6407" cy="-90" rx="64.189" ry="18"/>
<text text-anchor="middle" x="315.6407" y="-86.3" font-family="Times,serif" font-size="14.00" fill="#000000">GeneratorX</text>
</g>
<!-- Envelope_Reg&#45;&gt;GeneratorX -->
<g id="edge5" class="edge">
<title>Envelope_Reg&#45;&gt;GeneratorX</title>
<path fill="none" stroke="#000000" d="M215.024,-145.3008C233.6388,-135.0698 257.626,-121.8859 277.5101,-110.9573"/>
<polygon fill="#000000" stroke="#000000" points="279.2456,-113.9973 286.3233,-106.1134 275.8739,-107.8628 279.2456,-113.9973"/>
</g>
<!-- Pitchwheel_Reg&#45;&gt;GeneratorX -->
<g id="edge6" class="edge">
<title>Pitchwheel_Reg&#45;&gt;GeneratorX</title>
<path fill="none" stroke="#000000" d="M351.5283,-143.8314C345.972,-135.497 339.2785,-125.4567 333.1849,-116.3162"/>
<polygon fill="#000000" stroke="#000000" points="336.0422,-114.2925 327.583,-107.9134 330.2179,-118.1754 336.0422,-114.2925"/>
</g>
<!-- GeneratorX&#45;&gt;Adder -->
<g id="edge8" class="edge">
<title>GeneratorX&#45;&gt;Adder</title>
<path fill="none" stroke="#000000" d="M315.6407,-71.8314C315.6407,-64.131 315.6407,-54.9743 315.6407,-46.4166"/>
<polygon fill="#000000" stroke="#000000" points="319.1408,-46.4132 315.6407,-36.4133 312.1408,-46.4133 319.1408,-46.4132"/>
</g>
<!-- Adder&#45;&gt;Verilog_Wrapper -->
<g id="edge9" class="edge">
<title>Adder&#45;&gt;Verilog_Wrapper</title>
<path fill="none" stroke="#000000" d="M341.7955,-31.329C376.3211,-50.6644 435.2336,-90.1562 456.6407,-144 479.2864,-200.9589 414.5973,-254.5214 369.7246,-283.5307"/>
<polygon fill="#000000" stroke="#000000" points="367.6408,-280.7067 361.046,-288.9989 371.3724,-286.6292 367.6408,-280.7067"/>
</g>
</g>
</svg>
