<?xml version="1.0" encoding="UTF-8" standalone="no"?>
<!DOCTYPE svg PUBLIC "-//W3C//DTD SVG 1.1//EN"
 "http://www.w3.org/Graphics/SVG/1.1/DTD/svg11.dtd">
<!-- Generated by graphviz version 2.40.1 (0)
 -->
<!-- Title: SendGeneratorUpdate Pages: 1 -->
<svg width="282pt" height="332pt"
 viewBox="0.00 0.00 281.53 332.00" xmlns="http://www.w3.org/2000/svg" xmlns:xlink="http://www.w3.org/1999/xlink">
<g id="graph0" class="graph" transform="scale(1 1) rotate(0) translate(4 328)">
<title>SendGeneratorUpdate</title>
<polygon fill="#ffffff" stroke="transparent" points="-4,4 -4,-328 277.5334,-328 277.5334,4 -4,4"/>
<!-- Verilog_Wrapper -->
<g id="node1" class="node">
<title>Verilog_Wrapper</title>
<ellipse fill="none" stroke="#000000" cx="185.1413" cy="-306" rx="88.2844" ry="18"/>
<text text-anchor="middle" x="185.1413" y="-302.3" font-family="Times,serif" font-size="14.00" fill="#000000">Verilog_Wrapper</text>
</g>
<!-- Decoder -->
<g id="node2" class="node">
<title>Decoder</title>
<ellipse fill="none" stroke="#000000" cx="122.1413" cy="-234" rx="49.2915" ry="18"/>
<text text-anchor="middle" x="122.1413" y="-230.3" font-family="Times,serif" font-size="14.00" fill="#000000">Decoder</text>
</g>
<!-- Verilog_Wrapper&#45;&gt;Decoder -->
<g id="edge1" class="edge">
<title>Verilog_Wrapper&#45;&gt;Decoder</title>
<path fill="none" stroke="#000000" d="M169.5683,-288.2022C161.8822,-279.4182 152.4793,-268.672 144.0788,-259.0714"/>
<polygon fill="#000000" stroke="#000000" points="146.5369,-256.5656 137.3178,-251.3446 141.2689,-261.1752 146.5369,-256.5656"/>
</g>
<!-- Generator_Indexer -->
<g id="node3" class="node">
<title>Generator_Indexer</title>
<ellipse fill="none" stroke="#000000" cx="98.1413" cy="-162" rx="98.2828" ry="18"/>
<text text-anchor="middle" x="98.1413" y="-158.3" font-family="Times,serif" font-size="14.00" fill="#000000">Generator_Indexer</text>
</g>
<!-- Decoder&#45;&gt;Generator_Indexer -->
<g id="edge2" class="edge">
<title>Decoder&#45;&gt;Generator_Indexer</title>
<path fill="none" stroke="#000000" d="M116.0851,-215.8314C113.4901,-208.0463 110.3989,-198.7729 107.5195,-190.1347"/>
<polygon fill="#000000" stroke="#000000" points="110.7618,-188.7933 104.279,-180.4133 104.121,-191.0069 110.7618,-188.7933"/>
</g>
<!-- GeneratorX -->
<g id="node4" class="node">
<title>GeneratorX</title>
<ellipse fill="none" stroke="#000000" cx="115.1413" cy="-90" rx="64.189" ry="18"/>
<text text-anchor="middle" x="115.1413" y="-86.3" font-family="Times,serif" font-size="14.00" fill="#000000">GeneratorX</text>
</g>
<!-- Generator_Indexer&#45;&gt;GeneratorX -->
<g id="edge3" class="edge">
<title>Generator_Indexer&#45;&gt;GeneratorX</title>
<path fill="none" stroke="#000000" d="M102.4311,-143.8314C104.2493,-136.131 106.4112,-126.9743 108.4318,-118.4166"/>
<polygon fill="#000000" stroke="#000000" points="111.9021,-118.95 110.7937,-108.4133 105.0894,-117.3414 111.9021,-118.95"/>
</g>
<!-- Adder -->
<g id="node5" class="node">
<title>Adder</title>
<ellipse fill="none" stroke="#000000" cx="161.1413" cy="-18" rx="38.1938" ry="18"/>
<text text-anchor="middle" x="161.1413" y="-14.3" font-family="Times,serif" font-size="14.00" fill="#000000">Adder</text>
</g>
<!-- GeneratorX&#45;&gt;Adder -->
<g id="edge4" class="edge">
<title>GeneratorX&#45;&gt;Adder</title>
<path fill="none" stroke="#000000" d="M126.5121,-72.2022C131.9558,-63.6817 138.5789,-53.315 144.5695,-43.9385"/>
<polygon fill="#000000" stroke="#000000" points="147.6255,-45.6559 150.06,-35.3446 141.7267,-41.8872 147.6255,-45.6559"/>
</g>
<!-- Adder&#45;&gt;Verilog_Wrapper -->
<g id="edge5" class="edge">
<title>Adder&#45;&gt;Verilog_Wrapper</title>
<path fill="none" stroke="#000000" d="M171.2122,-35.54C176.8191,-45.8867 183.5691,-59.3867 188.1413,-72 199.3464,-102.9117 201.338,-111.3408 205.1413,-144 210.5897,-190.7856 200.5324,-245.1085 192.8072,-277.4594"/>
<polygon fill="#000000" stroke="#000000" points="189.3158,-276.9969 190.3025,-287.5456 196.1095,-278.684 189.3158,-276.9969"/>
</g>
</g>
</svg>
