<?xml version="1.0" encoding="UTF-8" standalone="no"?>
<!DOCTYPE svg PUBLIC "-//W3C//DTD SVG 1.1//EN"
 "http://www.w3.org/Graphics/SVG/1.1/DTD/svg11.dtd">
<!-- Generated by graphviz version 2.43.20190912.0211 (20190912.0211)
 -->
<!-- Title: Adder Pages: 1 -->
<svg width="2136pt" height="1149pt"
 viewBox="0.00 0.00 2135.57 1148.50" xmlns="http://www.w3.org/2000/svg" xmlns:xlink="http://www.w3.org/1999/xlink">
<g id="graph0" class="graph" transform="scale(1 1) rotate(0) translate(4 1144.5)">
<title>Adder</title>
<polygon fill="white" stroke="transparent" points="-4,4 -4,-1144.5 2131.57,-1144.5 2131.57,4 -4,4"/>
<text text-anchor="middle" x="1063.79" y="-7.8" font-family="Times,serif" font-size="14.00">Adder</text>
<!-- n1 -->
<g id="node1" class="node">
<title>n1</title>
<polygon fill="none" stroke="black" points="465.41,-994.5 398.22,-976.5 465.41,-958.5 532.61,-976.5 465.41,-994.5"/>
<text text-anchor="middle" x="465.41" y="-972.8" font-family="Times,serif" font-size="14.00">_GEN_0</text>
</g>
<!-- n2 -->
<g id="node2" class="node">
<title>n2</title>
<polygon fill="none" stroke="black" points="1848.96,-1140.5 1781.77,-1122.5 1848.96,-1104.5 1916.16,-1122.5 1848.96,-1140.5"/>
<text text-anchor="middle" x="1848.96" y="-1118.8" font-family="Times,serif" font-size="14.00">_GEN_1</text>
</g>
<!-- n3 -->
<g id="node3" class="node">
<title>n3</title>
<polygon fill="none" stroke="black" points="465.41,-716.5 413.13,-698.5 465.41,-680.5 517.7,-698.5 465.41,-716.5"/>
<text text-anchor="middle" x="465.41" y="-694.8" font-family="Times,serif" font-size="14.00">_T_29</text>
</g>
<!-- n4 -->
<g id="node4" class="node">
<title>n4</title>
<polygon fill="none" stroke="black" points="465.41,-830.5 413.13,-812.5 465.41,-794.5 517.7,-812.5 465.41,-830.5"/>
<text text-anchor="middle" x="465.41" y="-808.8" font-family="Times,serif" font-size="14.00">_T_30</text>
</g>
<!-- n5 -->
<g id="node5" class="node">
<title>n5</title>
<polygon fill="none" stroke="black" points="465.41,-776.5 413.13,-758.5 465.41,-740.5 517.7,-758.5 465.41,-776.5"/>
<text text-anchor="middle" x="465.41" y="-754.8" font-family="Times,serif" font-size="14.00">_T_31</text>
</g>
<!-- n6 -->
<g id="node6" class="node">
<title>n6</title>
<polygon fill="none" stroke="black" points="465.41,-477.5 413.13,-459.5 465.41,-441.5 517.7,-459.5 465.41,-477.5"/>
<text text-anchor="middle" x="465.41" y="-455.8" font-family="Times,serif" font-size="14.00">_T_34</text>
</g>
<!-- n7 -->
<g id="node7" class="node">
<title>n7</title>
<polygon fill="none" stroke="black" points="465.41,-591.5 413.13,-573.5 465.41,-555.5 517.7,-573.5 465.41,-591.5"/>
<text text-anchor="middle" x="465.41" y="-569.8" font-family="Times,serif" font-size="14.00">_T_35</text>
</g>
<!-- n8 -->
<g id="node8" class="node">
<title>n8</title>
<polygon fill="none" stroke="black" points="465.41,-537.5 413.13,-519.5 465.41,-501.5 517.7,-519.5 465.41,-537.5"/>
<text text-anchor="middle" x="465.41" y="-515.8" font-family="Times,serif" font-size="14.00">_T_36</text>
</g>
<!-- n9 -->
<g id="node9" class="node">
<title>n9</title>
<polygon fill="none" stroke="black" points="465.41,-303.5 413.13,-285.5 465.41,-267.5 517.7,-285.5 465.41,-303.5"/>
<text text-anchor="middle" x="465.41" y="-281.8" font-family="Times,serif" font-size="14.00">_T_39</text>
</g>
<!-- n10 -->
<g id="node10" class="node">
<title>n10</title>
<polygon fill="none" stroke="black" points="465.41,-417.5 413.13,-399.5 465.41,-381.5 517.7,-399.5 465.41,-417.5"/>
<text text-anchor="middle" x="465.41" y="-395.8" font-family="Times,serif" font-size="14.00">_T_40</text>
</g>
<!-- n11 -->
<g id="node11" class="node">
<title>n11</title>
<polygon fill="none" stroke="black" points="465.41,-363.5 413.13,-345.5 465.41,-327.5 517.7,-345.5 465.41,-363.5"/>
<text text-anchor="middle" x="465.41" y="-341.8" font-family="Times,serif" font-size="14.00">_T_41</text>
</g>
<!-- n12 -->
<g id="node12" class="node">
<title>n12</title>
<polygon fill="none" stroke="black" points="465.41,-64.5 413.13,-46.5 465.41,-28.5 517.7,-46.5 465.41,-64.5"/>
<text text-anchor="middle" x="465.41" y="-42.8" font-family="Times,serif" font-size="14.00">_T_44</text>
</g>
<!-- n13 -->
<g id="node13" class="node">
<title>n13</title>
<polygon fill="none" stroke="black" points="465.41,-178.5 413.13,-160.5 465.41,-142.5 517.7,-160.5 465.41,-178.5"/>
<text text-anchor="middle" x="465.41" y="-156.8" font-family="Times,serif" font-size="14.00">_T_45</text>
</g>
<!-- n14 -->
<g id="node14" class="node">
<title>n14</title>
<polygon fill="none" stroke="black" points="465.41,-124.5 413.13,-106.5 465.41,-88.5 517.7,-106.5 465.41,-124.5"/>
<text text-anchor="middle" x="465.41" y="-102.8" font-family="Times,serif" font-size="14.00">_T_46</text>
</g>
<!-- n15 -->
<g id="node15" class="node">
<title>n15</title>
<polygon fill="none" stroke="black" points="939.8,-711.5 887.51,-693.5 939.8,-675.5 992.08,-693.5 939.8,-711.5"/>
<text text-anchor="middle" x="939.8" y="-689.8" font-family="Times,serif" font-size="14.00">_T_48</text>
</g>
<!-- n16 -->
<g id="node16" class="node">
<title>n16</title>
<polygon fill="none" stroke="black" points="620.9,-651.5 568.62,-633.5 620.9,-615.5 673.19,-633.5 620.9,-651.5"/>
<text text-anchor="middle" x="620.9" y="-629.8" font-family="Times,serif" font-size="14.00">_T_49</text>
</g>
<!-- x2 -->
<g id="node37" class="node">
<title>x2</title>
<path fill="none" stroke="black" d="M745.8,-521.5C745.8,-521.5 814.8,-521.5 814.8,-521.5 820.8,-521.5 826.8,-527.5 826.8,-533.5 826.8,-533.5 826.8,-545.5 826.8,-545.5 826.8,-551.5 820.8,-557.5 814.8,-557.5 814.8,-557.5 745.8,-557.5 745.8,-557.5 739.8,-557.5 733.8,-551.5 733.8,-545.5 733.8,-545.5 733.8,-533.5 733.8,-533.5 733.8,-527.5 739.8,-521.5 745.8,-521.5"/>
<text text-anchor="middle" x="780.3" y="-535.8" font-family="Times,serif" font-size="14.00">16:0 &#45; 16:0</text>
</g>
<!-- n16&#45;&gt;x2 -->
<g id="edge23" class="edge">
<title>n16:e&#45;&gt;x2:w</title>
<path fill="none" stroke="#d95f02" stroke-width="3" d="M673.3,-633.5C718.77,-633.5 688.62,-553.61 722.28,-541.13"/>
<polygon fill="#d95f02" stroke="#d95f02" stroke-width="3" points="722.99,-544.56 732.3,-539.5 721.86,-537.65 722.99,-544.56"/>
</g>
<!-- x22 -->
<g id="node59" class="node">
<title>x22</title>
<path fill="none" stroke="black" d="M721.3,-670.5C721.3,-670.5 839.3,-670.5 839.3,-670.5 845.3,-670.5 851.3,-676.5 851.3,-682.5 851.3,-682.5 851.3,-704.5 851.3,-704.5 851.3,-710.5 845.3,-716.5 839.3,-716.5 839.3,-716.5 721.3,-716.5 721.3,-716.5 715.3,-716.5 709.3,-710.5 709.3,-704.5 709.3,-704.5 709.3,-682.5 709.3,-682.5 709.3,-676.5 715.3,-670.5 721.3,-670.5"/>
<text text-anchor="middle" x="780.3" y="-701.3" font-family="Times,serif" font-size="14.00">15x 16:16 &#45; 31:17</text>
<polyline fill="none" stroke="black" points="709.3,-693.5 851.3,-693.5 "/>
<text text-anchor="middle" x="780.3" y="-678.3" font-family="Times,serif" font-size="14.00">16:0 &#45; 16:0</text>
</g>
<!-- n16&#45;&gt;x22 -->
<g id="edge20" class="edge">
<title>n16:e&#45;&gt;x22:w</title>
<path fill="none" stroke="#d95f02" stroke-width="3" d="M673.3,-633.5C695.8,-633.5 686.97,-667.67 699.68,-678.35"/>
<polygon fill="#d95f02" stroke="#d95f02" stroke-width="3" points="698.7,-681.71 709.3,-681.5 700.88,-675.06 698.7,-681.71"/>
</g>
<!-- n16&#45;&gt;x22 -->
<g id="edge21" class="edge">
<title>n16:e&#45;&gt;x22:w</title>
<path fill="none" stroke="#d95f02" stroke-width="3" d="M673.3,-633.5C704.88,-633.5 680.87,-689.61 699.43,-702.77"/>
<polygon fill="#d95f02" stroke="#d95f02" stroke-width="3" points="698.72,-706.2 709.3,-705.5 700.59,-699.46 698.72,-706.2"/>
</g>
<!-- x23 -->
<g id="node60" class="node">
<title>x23</title>
<path fill="none" stroke="black" d="M725.8,-615.5C725.8,-615.5 834.8,-615.5 834.8,-615.5 840.8,-615.5 846.8,-621.5 846.8,-627.5 846.8,-627.5 846.8,-639.5 846.8,-639.5 846.8,-645.5 840.8,-651.5 834.8,-651.5 834.8,-651.5 725.8,-651.5 725.8,-651.5 719.8,-651.5 713.8,-645.5 713.8,-639.5 713.8,-639.5 713.8,-627.5 713.8,-627.5 713.8,-621.5 719.8,-615.5 725.8,-615.5"/>
<text text-anchor="middle" x="780.3" y="-629.8" font-family="Times,serif" font-size="14.00">15x 16:16 &#45; 14:0</text>
</g>
<!-- n16&#45;&gt;x23 -->
<g id="edge22" class="edge">
<title>n16:e&#45;&gt;x23:w</title>
<path fill="none" stroke="#d95f02" stroke-width="3" d="M673.3,-633.5C686.7,-633.5 692.33,-633.5 702.21,-633.5"/>
<polygon fill="#d95f02" stroke="#d95f02" stroke-width="3" points="702.3,-637 712.3,-633.5 702.3,-630 702.3,-637"/>
</g>
<!-- n17 -->
<g id="node17" class="node">
<title>n17</title>
<polygon fill="none" stroke="black" points="939.8,-326.5 887.51,-308.5 939.8,-290.5 992.08,-308.5 939.8,-326.5"/>
<text text-anchor="middle" x="939.8" y="-304.8" font-family="Times,serif" font-size="14.00">_T_51</text>
</g>
<!-- n18 -->
<g id="node18" class="node">
<title>n18</title>
<polygon fill="none" stroke="black" points="620.9,-290.5 568.62,-272.5 620.9,-254.5 673.19,-272.5 620.9,-290.5"/>
<text text-anchor="middle" x="620.9" y="-268.8" font-family="Times,serif" font-size="14.00">_T_52</text>
</g>
<!-- x3 -->
<g id="node38" class="node">
<title>x3</title>
<path fill="none" stroke="black" d="M745.8,-397.5C745.8,-397.5 814.8,-397.5 814.8,-397.5 820.8,-397.5 826.8,-403.5 826.8,-409.5 826.8,-409.5 826.8,-421.5 826.8,-421.5 826.8,-427.5 820.8,-433.5 814.8,-433.5 814.8,-433.5 745.8,-433.5 745.8,-433.5 739.8,-433.5 733.8,-427.5 733.8,-421.5 733.8,-421.5 733.8,-409.5 733.8,-409.5 733.8,-403.5 739.8,-397.5 745.8,-397.5"/>
<text text-anchor="middle" x="780.3" y="-411.8" font-family="Times,serif" font-size="14.00">16:0 &#45; 16:0</text>
</g>
<!-- n18&#45;&gt;x3 -->
<g id="edge30" class="edge">
<title>n18:e&#45;&gt;x3:w</title>
<path fill="none" stroke="#a6761d" stroke-width="3" d="M673.3,-272.5C738.29,-272.5 671.69,-400.29 722.29,-414.26"/>
<polygon fill="#a6761d" stroke="#a6761d" stroke-width="3" points="721.94,-417.75 732.3,-415.5 722.8,-410.8 721.94,-417.75"/>
</g>
<!-- x25 -->
<g id="node62" class="node">
<title>x25</title>
<path fill="none" stroke="black" d="M721.3,-285.5C721.3,-285.5 839.3,-285.5 839.3,-285.5 845.3,-285.5 851.3,-291.5 851.3,-297.5 851.3,-297.5 851.3,-319.5 851.3,-319.5 851.3,-325.5 845.3,-331.5 839.3,-331.5 839.3,-331.5 721.3,-331.5 721.3,-331.5 715.3,-331.5 709.3,-325.5 709.3,-319.5 709.3,-319.5 709.3,-297.5 709.3,-297.5 709.3,-291.5 715.3,-285.5 721.3,-285.5"/>
<text text-anchor="middle" x="780.3" y="-316.3" font-family="Times,serif" font-size="14.00">15x 16:16 &#45; 31:17</text>
<polyline fill="none" stroke="black" points="709.3,-308.5 851.3,-308.5 "/>
<text text-anchor="middle" x="780.3" y="-293.3" font-family="Times,serif" font-size="14.00">16:0 &#45; 16:0</text>
</g>
<!-- n18&#45;&gt;x25 -->
<g id="edge27" class="edge">
<title>n18:e&#45;&gt;x25:w</title>
<path fill="none" stroke="#a6761d" stroke-width="3" d="M673.3,-272.5C688.47,-272.5 690.14,-287.44 699.62,-293.75"/>
<polygon fill="#a6761d" stroke="#a6761d" stroke-width="3" points="698.72,-297.13 709.3,-296.5 700.63,-290.4 698.72,-297.13"/>
</g>
<!-- n18&#45;&gt;x25 -->
<g id="edge28" class="edge">
<title>n18:e&#45;&gt;x25:w</title>
<path fill="none" stroke="#a6761d" stroke-width="3" d="M673.3,-272.5C695.8,-272.5 686.97,-306.67 699.68,-317.35"/>
<polygon fill="#a6761d" stroke="#a6761d" stroke-width="3" points="698.7,-320.71 709.3,-320.5 700.88,-314.06 698.7,-320.71"/>
</g>
<!-- x26 -->
<g id="node63" class="node">
<title>x26</title>
<path fill="none" stroke="black" d="M725.8,-230.5C725.8,-230.5 834.8,-230.5 834.8,-230.5 840.8,-230.5 846.8,-236.5 846.8,-242.5 846.8,-242.5 846.8,-254.5 846.8,-254.5 846.8,-260.5 840.8,-266.5 834.8,-266.5 834.8,-266.5 725.8,-266.5 725.8,-266.5 719.8,-266.5 713.8,-260.5 713.8,-254.5 713.8,-254.5 713.8,-242.5 713.8,-242.5 713.8,-236.5 719.8,-230.5 725.8,-230.5"/>
<text text-anchor="middle" x="780.3" y="-244.8" font-family="Times,serif" font-size="14.00">15x 16:16 &#45; 14:0</text>
</g>
<!-- n18&#45;&gt;x26 -->
<g id="edge29" class="edge">
<title>n18:e&#45;&gt;x26:w</title>
<path fill="none" stroke="#a6761d" stroke-width="3" d="M673.3,-272.5C689.67,-272.5 691.77,-256.96 702.57,-250.89"/>
<polygon fill="#a6761d" stroke="#a6761d" stroke-width="3" points="703.42,-254.28 712.3,-248.5 701.75,-247.49 703.42,-254.28"/>
</g>
<!-- n19 -->
<g id="node19" class="node">
<title>n19</title>
<polygon fill="none" stroke="black" points="1546.47,-596.5 1494.19,-578.5 1546.47,-560.5 1598.76,-578.5 1546.47,-596.5"/>
<text text-anchor="middle" x="1546.47" y="-574.8" font-family="Times,serif" font-size="14.00">_T_54</text>
</g>
<!-- n20 -->
<g id="node20" class="node">
<title>n20</title>
<polygon fill="none" stroke="black" points="1227.69,-584.5 1175.4,-566.5 1227.69,-548.5 1279.97,-566.5 1227.69,-584.5"/>
<text text-anchor="middle" x="1227.69" y="-562.8" font-family="Times,serif" font-size="14.00">_T_55</text>
</g>
<!-- x5 -->
<g id="node42" class="node">
<title>x5</title>
<path fill="none" stroke="black" d="M1328.08,-675.5C1328.08,-675.5 1446.08,-675.5 1446.08,-675.5 1452.08,-675.5 1458.08,-681.5 1458.08,-687.5 1458.08,-687.5 1458.08,-709.5 1458.08,-709.5 1458.08,-715.5 1452.08,-721.5 1446.08,-721.5 1446.08,-721.5 1328.08,-721.5 1328.08,-721.5 1322.08,-721.5 1316.08,-715.5 1316.08,-709.5 1316.08,-709.5 1316.08,-687.5 1316.08,-687.5 1316.08,-681.5 1322.08,-675.5 1328.08,-675.5"/>
<text text-anchor="middle" x="1387.08" y="-706.3" font-family="Times,serif" font-size="14.00">16x 31:31 &#45; 32:17</text>
<polyline fill="none" stroke="black" points="1316.08,-698.5 1458.08,-698.5 "/>
<text text-anchor="middle" x="1387.08" y="-683.3" font-family="Times,serif" font-size="14.00">16:0 &#45; 16:0</text>
</g>
<!-- n20&#45;&gt;x5 -->
<g id="edge39" class="edge">
<title>n20:e&#45;&gt;x5:w</title>
<path fill="none" stroke="#e7298a" stroke-width="3" d="M1280.08,-566.5C1331.85,-566.5 1270.35,-670.22 1306.19,-684.8"/>
<polygon fill="#e7298a" stroke="#e7298a" stroke-width="3" points="1305.63,-688.26 1316.08,-686.5 1306.82,-681.36 1305.63,-688.26"/>
</g>
<!-- n20&#45;&gt;x5 -->
<g id="edge40" class="edge">
<title>n20:e&#45;&gt;x5:w</title>
<path fill="none" stroke="#e7298a" stroke-width="3" d="M1280.08,-566.5C1342.18,-566.5 1260.8,-694.12 1306.09,-709.07"/>
<polygon fill="#e7298a" stroke="#e7298a" stroke-width="3" points="1305.69,-712.55 1316.08,-710.5 1306.67,-705.62 1305.69,-712.55"/>
</g>
<!-- x28 -->
<g id="node65" class="node">
<title>x28</title>
<path fill="none" stroke="black" d="M1328.08,-555.5C1328.08,-555.5 1446.08,-555.5 1446.08,-555.5 1452.08,-555.5 1458.08,-561.5 1458.08,-567.5 1458.08,-567.5 1458.08,-589.5 1458.08,-589.5 1458.08,-595.5 1452.08,-601.5 1446.08,-601.5 1446.08,-601.5 1328.08,-601.5 1328.08,-601.5 1322.08,-601.5 1316.08,-595.5 1316.08,-589.5 1316.08,-589.5 1316.08,-567.5 1316.08,-567.5 1316.08,-561.5 1322.08,-555.5 1328.08,-555.5"/>
<text text-anchor="middle" x="1387.08" y="-586.3" font-family="Times,serif" font-size="14.00">15x 31:31 &#45; 31:17</text>
<polyline fill="none" stroke="black" points="1316.08,-578.5 1458.08,-578.5 "/>
<text text-anchor="middle" x="1387.08" y="-563.3" font-family="Times,serif" font-size="14.00">16:0 &#45; 16:0</text>
</g>
<!-- n20&#45;&gt;x28 -->
<g id="edge36" class="edge">
<title>n20:e&#45;&gt;x28:w</title>
<path fill="none" stroke="#e7298a" stroke-width="3" d="M1280.08,-566.5C1292.08,-566.5 1297.33,-566.5 1305.95,-566.5"/>
<polygon fill="#e7298a" stroke="#e7298a" stroke-width="3" points="1306.08,-570 1316.08,-566.5 1306.08,-563 1306.08,-570"/>
</g>
<!-- n20&#45;&gt;x28 -->
<g id="edge37" class="edge">
<title>n20:e&#45;&gt;x28:w</title>
<path fill="none" stroke="#e7298a" stroke-width="3" d="M1280.08,-566.5C1295.25,-566.5 1296.92,-581.44 1306.4,-587.75"/>
<polygon fill="#e7298a" stroke="#e7298a" stroke-width="3" points="1305.5,-591.13 1316.08,-590.5 1307.42,-584.4 1305.5,-591.13"/>
</g>
<!-- x29 -->
<g id="node66" class="node">
<title>x29</title>
<path fill="none" stroke="black" d="M1332.58,-500.5C1332.58,-500.5 1441.58,-500.5 1441.58,-500.5 1447.58,-500.5 1453.58,-506.5 1453.58,-512.5 1453.58,-512.5 1453.58,-524.5 1453.58,-524.5 1453.58,-530.5 1447.58,-536.5 1441.58,-536.5 1441.58,-536.5 1332.58,-536.5 1332.58,-536.5 1326.58,-536.5 1320.58,-530.5 1320.58,-524.5 1320.58,-524.5 1320.58,-512.5 1320.58,-512.5 1320.58,-506.5 1326.58,-500.5 1332.58,-500.5"/>
<text text-anchor="middle" x="1387.08" y="-514.8" font-family="Times,serif" font-size="14.00">14x 31:31 &#45; 13:0</text>
</g>
<!-- n20&#45;&gt;x29 -->
<g id="edge38" class="edge">
<title>n20:e&#45;&gt;x29:w</title>
<path fill="none" stroke="#e7298a" stroke-width="3" d="M1280.08,-566.5C1303.49,-566.5 1295.38,-531.69 1309.43,-521.36"/>
<polygon fill="#e7298a" stroke="#e7298a" stroke-width="3" points="1310.49,-524.7 1319.08,-518.5 1308.5,-517.98 1310.49,-524.7"/>
</g>
<!-- n21 -->
<g id="node21" class="node">
<title>n21</title>
<polygon fill="none" stroke="black" points="1690.36,-740.5 1638.08,-722.5 1690.36,-704.5 1742.65,-722.5 1690.36,-740.5"/>
<text text-anchor="middle" x="1690.36" y="-718.8" font-family="Times,serif" font-size="14.00">_T_56</text>
</g>
<!-- c39 -->
<g id="node43" class="node">
<title>c39</title>
<polygon fill="none" stroke="black" points="1795.96,-779.5 1795.96,-825.5 1901.96,-825.5 1901.96,-779.5 1795.96,-779.5"/>
<text text-anchor="middle" x="1809.46" y="-810.3" font-family="Times,serif" font-size="14.00">A</text>
<polyline fill="none" stroke="black" points="1795.96,-802.5 1822.96,-802.5 "/>
<text text-anchor="middle" x="1809.46" y="-787.3" font-family="Times,serif" font-size="14.00">B</text>
<polyline fill="none" stroke="black" points="1822.96,-779.5 1822.96,-825.5 "/>
<text text-anchor="middle" x="1849.46" y="-806.3" font-family="Times,serif" font-size="14.00">$63</text>
<text text-anchor="middle" x="1849.46" y="-791.3" font-family="Times,serif" font-size="14.00">$mul</text>
<polyline fill="none" stroke="black" points="1875.96,-779.5 1875.96,-825.5 "/>
<text text-anchor="middle" x="1888.96" y="-798.8" font-family="Times,serif" font-size="14.00">Y</text>
</g>
<!-- n21&#45;&gt;c39 -->
<g id="edge42" class="edge">
<title>n21:e&#45;&gt;c39:w</title>
<path fill="none" stroke="#a6761d" stroke-width="3" d="M1743.36,-722.5C1786.22,-722.5 1754.67,-799.37 1784.74,-812.58"/>
<polygon fill="#a6761d" stroke="#a6761d" stroke-width="3" points="1784.49,-816.09 1794.96,-814.5 1785.78,-809.21 1784.49,-816.09"/>
</g>
<!-- n22 -->
<g id="node22" class="node">
<title>n22</title>
<polygon fill="none" stroke="black" points="465.41,-890.5 413.13,-872.5 465.41,-854.5 517.7,-872.5 465.41,-890.5"/>
<text text-anchor="middle" x="465.41" y="-868.8" font-family="Times,serif" font-size="14.00">_T_57</text>
</g>
<!-- n23 -->
<g id="node23" class="node">
<title>n23</title>
<polygon fill="none" stroke="black" points="1546.47,-949.5 1494.19,-931.5 1546.47,-913.5 1598.76,-931.5 1546.47,-949.5"/>
<text text-anchor="middle" x="1546.47" y="-927.8" font-family="Times,serif" font-size="14.00">_T_58</text>
</g>
<!-- x33 -->
<g id="node70" class="node">
<title>x33</title>
<path fill="none" stroke="black" d="M1646.86,-973.5C1646.86,-973.5 1733.86,-973.5 1733.86,-973.5 1739.86,-973.5 1745.86,-979.5 1745.86,-985.5 1745.86,-985.5 1745.86,-1007.5 1745.86,-1007.5 1745.86,-1013.5 1739.86,-1019.5 1733.86,-1019.5 1733.86,-1019.5 1646.86,-1019.5 1646.86,-1019.5 1640.86,-1019.5 1634.86,-1013.5 1634.86,-1007.5 1634.86,-1007.5 1634.86,-985.5 1634.86,-985.5 1634.86,-979.5 1640.86,-973.5 1646.86,-973.5"/>
<text text-anchor="middle" x="1690.36" y="-1004.3" font-family="Times,serif" font-size="14.00">48:32 &#45; 48:32</text>
<polyline fill="none" stroke="black" points="1634.86,-996.5 1745.86,-996.5 "/>
<text text-anchor="middle" x="1690.36" y="-981.3" font-family="Times,serif" font-size="14.00">31:0 &#45; 31:0</text>
</g>
<!-- n23&#45;&gt;x33 -->
<g id="edge45" class="edge">
<title>n23:e&#45;&gt;x33:w</title>
<path fill="none" stroke="#a6761d" stroke-width="3" d="M1598.86,-931.5C1632.51,-931.5 1604.81,-992.58 1625.04,-1005.94"/>
<polygon fill="#a6761d" stroke="#a6761d" stroke-width="3" points="1624.3,-1009.36 1634.86,-1008.5 1626.07,-1002.59 1624.3,-1009.36"/>
</g>
<!-- x34 -->
<g id="node71" class="node">
<title>x34</title>
<path fill="none" stroke="black" d="M1646.86,-896.5C1646.86,-896.5 1733.86,-896.5 1733.86,-896.5 1739.86,-896.5 1745.86,-902.5 1745.86,-908.5 1745.86,-908.5 1745.86,-930.5 1745.86,-930.5 1745.86,-936.5 1739.86,-942.5 1733.86,-942.5 1733.86,-942.5 1646.86,-942.5 1646.86,-942.5 1640.86,-942.5 1634.86,-936.5 1634.86,-930.5 1634.86,-930.5 1634.86,-908.5 1634.86,-908.5 1634.86,-902.5 1640.86,-896.5 1646.86,-896.5"/>
<text text-anchor="middle" x="1690.36" y="-927.3" font-family="Times,serif" font-size="14.00">48:32 &#45; 48:32</text>
<polyline fill="none" stroke="black" points="1634.86,-919.5 1745.86,-919.5 "/>
<text text-anchor="middle" x="1690.36" y="-904.3" font-family="Times,serif" font-size="14.00">31:0 &#45; 31:0</text>
</g>
<!-- n23&#45;&gt;x34 -->
<g id="edge46" class="edge">
<title>n23:e&#45;&gt;x34:w</title>
<path fill="none" stroke="#a6761d" stroke-width="3" d="M1598.86,-931.5C1610.86,-931.5 1616.11,-931.5 1624.74,-931.5"/>
<polygon fill="#a6761d" stroke="#a6761d" stroke-width="3" points="1624.86,-935 1634.86,-931.5 1624.86,-928 1624.86,-935"/>
</g>
<!-- n24 -->
<g id="node24" class="node">
<title>n24</title>
<polygon fill="none" stroke="black" points="1848.96,-1048.5 1796.68,-1030.5 1848.96,-1012.5 1901.25,-1030.5 1848.96,-1048.5"/>
<text text-anchor="middle" x="1848.96" y="-1026.8" font-family="Times,serif" font-size="14.00">_T_59</text>
</g>
<!-- n25 -->
<g id="node25" class="node">
<title>n25</title>
<polygon fill="none" stroke="black" points="1848.96,-956.5 1796.68,-938.5 1848.96,-920.5 1901.25,-938.5 1848.96,-956.5"/>
<text text-anchor="middle" x="1848.96" y="-934.8" font-family="Times,serif" font-size="14.00">_T_60</text>
</g>
<!-- n26 -->
<g id="node26" class="node">
<title>n26</title>
<polygon fill="none" stroke="black" points="2116.49,-885.04 2116.49,-899.96 2068.38,-910.5 2000.36,-910.5 1952.25,-899.96 1952.25,-885.04 2000.36,-874.5 2068.38,-874.5 2116.49,-885.04"/>
<text text-anchor="middle" x="2034.37" y="-888.8" font-family="Times,serif" font-size="14.00">io_sample_out</text>
</g>
<!-- x9 -->
<g id="node46" class="node">
<title>x9</title>
<path fill="none" stroke="black" d="M1705.36,-1117.5C1705.36,-1117.5 1675.36,-1117.5 1675.36,-1117.5 1669.36,-1117.5 1663.36,-1111.5 1663.36,-1105.5 1663.36,-1105.5 1663.36,-1093.5 1663.36,-1093.5 1663.36,-1087.5 1669.36,-1081.5 1675.36,-1081.5 1675.36,-1081.5 1705.36,-1081.5 1705.36,-1081.5 1711.36,-1081.5 1717.36,-1087.5 1717.36,-1093.5 1717.36,-1093.5 1717.36,-1105.5 1717.36,-1105.5 1717.36,-1111.5 1711.36,-1117.5 1705.36,-1117.5"/>
<text text-anchor="middle" x="1690.36" y="-1095.8" font-family="Times,serif" font-size="14.00">BUF</text>
</g>
<!-- n26&#45;&gt;x9 -->
<g id="edge53" class="edge">
<title>n26:e&#45;&gt;x9:w</title>
<path fill="none" stroke="#7570b3" stroke-width="3" d="M2117.37,-892.5C2175.21,-892.5 1968.03,-1032.11 1916.06,-1057.5 1860.37,-1084.71 1841.04,-1077.04 1781.86,-1095.5 1752.95,-1104.52 1747.24,-1112.54 1717.36,-1117.5 1693.69,-1121.43 1680.8,-1133.99 1663.36,-1117.5 1661,-1115.26 1659.07,-1111.87 1658.15,-1108.64"/>
<polygon fill="#7570b3" stroke="#7570b3" stroke-width="3" points="1661.35,-1110.05 1662.36,-1099.5 1654.99,-1107.11 1661.35,-1110.05"/>
</g>
<!-- x32 -->
<g id="node69" class="node">
<title>x32</title>
<path fill="none" stroke="black" d="M1352.58,-875.5C1352.58,-875.5 1421.58,-875.5 1421.58,-875.5 1427.58,-875.5 1433.58,-881.5 1433.58,-887.5 1433.58,-887.5 1433.58,-899.5 1433.58,-899.5 1433.58,-905.5 1427.58,-911.5 1421.58,-911.5 1421.58,-911.5 1352.58,-911.5 1352.58,-911.5 1346.58,-911.5 1340.58,-905.5 1340.58,-899.5 1340.58,-899.5 1340.58,-887.5 1340.58,-887.5 1340.58,-881.5 1346.58,-875.5 1352.58,-875.5"/>
<text text-anchor="middle" x="1387.08" y="-889.8" font-family="Times,serif" font-size="14.00">31:0 &#45; 31:0</text>
</g>
<!-- n26&#45;&gt;x32 -->
<g id="edge50" class="edge">
<title>n26:e&#45;&gt;x32:w</title>
<path fill="none" stroke="#7570b3" stroke-width="3" d="M2117.37,-892.5C2125.38,-892.5 2122.19,-904.99 2116.37,-910.5 2063.32,-960.68 2023.32,-926.48 1952.06,-910.5 1934.8,-906.63 1933.26,-897.68 1916.06,-893.5 1794.59,-864 1759.64,-879.99 1634.86,-887.5 1571.95,-891.28 1556.64,-896.85 1494.08,-904.5 1426.06,-912.82 1389.83,-959.13 1340.08,-912 1337.56,-909.61 1335.52,-905.94 1334.63,-902.5"/>
<polygon fill="#7570b3" stroke="#7570b3" stroke-width="3" points="1337.78,-904.02 1339.08,-893.5 1331.51,-900.91 1337.78,-904.02"/>
</g>
<!-- n26&#45;&gt;x33 -->
<g id="edge51" class="edge">
<title>n26:e&#45;&gt;x33:w</title>
<path fill="none" stroke="#7570b3" stroke-width="3" d="M2117.37,-892.5C2125.38,-892.5 2121.4,-904.27 2116.37,-910.5 2058.38,-982.33 2007.38,-951.95 1916.06,-965.5 1900.57,-967.8 1645.76,-962.27 1634.36,-973 1633.9,-973.44 1633.45,-973.95 1633.04,-974.5"/>
<polygon fill="#7570b3" stroke="#7570b3" stroke-width="3" points="1629.54,-974.62 1633.36,-984.5 1636.54,-974.39 1629.54,-974.62"/>
</g>
<!-- n26&#45;&gt;x34 -->
<g id="edge52" class="edge">
<title>n26:e&#45;&gt;x34:w</title>
<path fill="none" stroke="#7570b3" stroke-width="3" d="M2117.37,-892.5C2125.38,-892.5 2122.19,-904.99 2116.37,-910.5 2063.32,-960.68 2025.04,-913.06 1952.06,-910.5 1860.25,-907.28 1837.68,-899.22 1745.86,-896 1696.34,-894.26 1670.89,-862.51 1634.36,-896 1633.89,-896.43 1633.44,-896.94 1633.02,-897.49"/>
<polygon fill="#7570b3" stroke="#7570b3" stroke-width="3" points="1629.53,-897.62 1633.36,-907.5 1636.52,-897.39 1629.53,-897.62"/>
</g>
<!-- n27 -->
<g id="node27" class="node">
<title>n27</title>
<polygon fill="none" stroke="black" points="184.47,-703.04 184.47,-717.96 130.4,-728.5 53.92,-728.5 -0.16,-717.96 -0.16,-703.04 53.92,-692.5 130.4,-692.5 184.47,-703.04"/>
<text text-anchor="middle" x="92.16" y="-706.8" font-family="Times,serif" font-size="14.00">io_samples_in_0</text>
</g>
<!-- c35 -->
<g id="node32" class="node">
<title>c35</title>
<polygon fill="none" stroke="black" points="238.82,-610.5 238.82,-656.5 343.82,-656.5 343.82,-610.5 238.82,-610.5"/>
<text text-anchor="middle" x="252.32" y="-641.3" font-family="Times,serif" font-size="14.00">A</text>
<polyline fill="none" stroke="black" points="238.82,-633.5 265.82,-633.5 "/>
<text text-anchor="middle" x="252.32" y="-618.3" font-family="Times,serif" font-size="14.00">B</text>
<polyline fill="none" stroke="black" points="265.82,-610.5 265.82,-656.5 "/>
<text text-anchor="middle" x="291.82" y="-637.3" font-family="Times,serif" font-size="14.00">$57</text>
<text text-anchor="middle" x="291.82" y="-622.3" font-family="Times,serif" font-size="14.00">$add</text>
<polyline fill="none" stroke="black" points="317.82,-610.5 317.82,-656.5 "/>
<text text-anchor="middle" x="330.82" y="-629.8" font-family="Times,serif" font-size="14.00">Y</text>
</g>
<!-- n27&#45;&gt;c35 -->
<g id="edge54" class="edge">
<title>n27:e&#45;&gt;c35:w</title>
<path fill="none" stroke="#d95f02" stroke-width="3" d="M184.32,-710.5C217.66,-710.5 203.93,-658.49 227.35,-647.52"/>
<polygon fill="#d95f02" stroke="#d95f02" stroke-width="3" points="228.21,-650.91 237.32,-645.5 226.82,-644.05 228.21,-650.91"/>
</g>
<!-- x10 -->
<g id="node47" class="node">
<title>x10</title>
<path fill="none" stroke="black" d="M232.32,-675.5C232.32,-675.5 350.32,-675.5 350.32,-675.5 356.32,-675.5 362.32,-681.5 362.32,-687.5 362.32,-687.5 362.32,-709.5 362.32,-709.5 362.32,-715.5 356.32,-721.5 350.32,-721.5 350.32,-721.5 232.32,-721.5 232.32,-721.5 226.32,-721.5 220.32,-715.5 220.32,-709.5 220.32,-709.5 220.32,-687.5 220.32,-687.5 220.32,-681.5 226.32,-675.5 232.32,-675.5"/>
<text text-anchor="middle" x="291.32" y="-706.3" font-family="Times,serif" font-size="14.00">16x 15:15 &#45; 31:16</text>
<polyline fill="none" stroke="black" points="220.32,-698.5 362.32,-698.5 "/>
<text text-anchor="middle" x="291.32" y="-683.3" font-family="Times,serif" font-size="14.00">15:0 &#45; 15:0</text>
</g>
<!-- n27&#45;&gt;x10 -->
<g id="edge55" class="edge">
<title>n27:e&#45;&gt;x10:w</title>
<path fill="none" stroke="#d95f02" stroke-width="3" d="M184.32,-710.5C199.49,-710.5 201.16,-695.56 210.63,-689.25"/>
<polygon fill="#d95f02" stroke="#d95f02" stroke-width="3" points="211.65,-692.6 220.32,-686.5 209.74,-685.87 211.65,-692.6"/>
</g>
<!-- n27&#45;&gt;x10 -->
<g id="edge56" class="edge">
<title>n27:e&#45;&gt;x10:w</title>
<path fill="none" stroke="#d95f02" stroke-width="3" d="M184.32,-710.5C196.32,-710.5 201.57,-710.5 210.19,-710.5"/>
<polygon fill="#d95f02" stroke="#d95f02" stroke-width="3" points="210.32,-714 220.32,-710.5 210.32,-707 210.32,-714"/>
</g>
<!-- x11 -->
<g id="node48" class="node">
<title>x11</title>
<path fill="none" stroke="black" d="M306.32,-830.5C306.32,-830.5 276.32,-830.5 276.32,-830.5 270.32,-830.5 264.32,-824.5 264.32,-818.5 264.32,-818.5 264.32,-806.5 264.32,-806.5 264.32,-800.5 270.32,-794.5 276.32,-794.5 276.32,-794.5 306.32,-794.5 306.32,-794.5 312.32,-794.5 318.32,-800.5 318.32,-806.5 318.32,-806.5 318.32,-818.5 318.32,-818.5 318.32,-824.5 312.32,-830.5 306.32,-830.5"/>
<text text-anchor="middle" x="291.32" y="-808.8" font-family="Times,serif" font-size="14.00">BUF</text>
</g>
<!-- n27&#45;&gt;x11 -->
<g id="edge57" class="edge">
<title>n27:e&#45;&gt;x11:w</title>
<path fill="none" stroke="#d95f02" stroke-width="3" d="M184.32,-710.5C221.29,-710.5 195.69,-757.92 220.32,-785.5 232.76,-799.44 238.61,-808.81 253.06,-811.62"/>
<polygon fill="#d95f02" stroke="#d95f02" stroke-width="3" points="253.05,-815.13 263.32,-812.5 253.65,-808.15 253.05,-815.13"/>
</g>
<!-- x12 -->
<g id="node49" class="node">
<title>x12</title>
<path fill="none" stroke="black" d="M306.32,-776.5C306.32,-776.5 276.32,-776.5 276.32,-776.5 270.32,-776.5 264.32,-770.5 264.32,-764.5 264.32,-764.5 264.32,-752.5 264.32,-752.5 264.32,-746.5 270.32,-740.5 276.32,-740.5 276.32,-740.5 306.32,-740.5 306.32,-740.5 312.32,-740.5 318.32,-746.5 318.32,-752.5 318.32,-752.5 318.32,-764.5 318.32,-764.5 318.32,-770.5 312.32,-776.5 306.32,-776.5"/>
<text text-anchor="middle" x="291.32" y="-754.8" font-family="Times,serif" font-size="14.00">BUF</text>
</g>
<!-- n27&#45;&gt;x12 -->
<g id="edge58" class="edge">
<title>n27:e&#45;&gt;x12:w</title>
<path fill="none" stroke="#d95f02" stroke-width="3" d="M184.32,-710.5C201.89,-710.5 232.18,-745.63 253.42,-755.78"/>
<polygon fill="#d95f02" stroke="#d95f02" stroke-width="3" points="252.75,-759.22 263.32,-758.5 254.6,-752.48 252.75,-759.22"/>
</g>
<!-- n28 -->
<g id="node28" class="node">
<title>n28</title>
<polygon fill="none" stroke="black" points="184.47,-512.04 184.47,-526.96 130.4,-537.5 53.92,-537.5 -0.16,-526.96 -0.16,-512.04 53.92,-501.5 130.4,-501.5 184.47,-512.04"/>
<text text-anchor="middle" x="92.16" y="-515.8" font-family="Times,serif" font-size="14.00">io_samples_in_1</text>
</g>
<!-- n28&#45;&gt;c35 -->
<g id="edge59" class="edge">
<title>n28:e&#45;&gt;c35:w</title>
<path fill="none" stroke="#1b9e77" stroke-width="3" d="M184.32,-519.5C231.41,-519.5 193.3,-606.19 227.08,-619.73"/>
<polygon fill="#1b9e77" stroke="#1b9e77" stroke-width="3" points="226.86,-623.24 237.32,-621.5 228.06,-616.35 226.86,-623.24"/>
</g>
<!-- x13 -->
<g id="node50" class="node">
<title>x13</title>
<path fill="none" stroke="black" d="M232.32,-436.5C232.32,-436.5 350.32,-436.5 350.32,-436.5 356.32,-436.5 362.32,-442.5 362.32,-448.5 362.32,-448.5 362.32,-470.5 362.32,-470.5 362.32,-476.5 356.32,-482.5 350.32,-482.5 350.32,-482.5 232.32,-482.5 232.32,-482.5 226.32,-482.5 220.32,-476.5 220.32,-470.5 220.32,-470.5 220.32,-448.5 220.32,-448.5 220.32,-442.5 226.32,-436.5 232.32,-436.5"/>
<text text-anchor="middle" x="291.32" y="-467.3" font-family="Times,serif" font-size="14.00">16x 15:15 &#45; 31:16</text>
<polyline fill="none" stroke="black" points="220.32,-459.5 362.32,-459.5 "/>
<text text-anchor="middle" x="291.32" y="-444.3" font-family="Times,serif" font-size="14.00">15:0 &#45; 15:0</text>
</g>
<!-- n28&#45;&gt;x13 -->
<g id="edge60" class="edge">
<title>n28:e&#45;&gt;x13:w</title>
<path fill="none" stroke="#1b9e77" stroke-width="3" d="M184.32,-519.5C215.9,-519.5 191.89,-463.39 210.45,-450.23"/>
<polygon fill="#1b9e77" stroke="#1b9e77" stroke-width="3" points="211.61,-453.54 220.32,-447.5 209.74,-446.8 211.61,-453.54"/>
</g>
<!-- n28&#45;&gt;x13 -->
<g id="edge61" class="edge">
<title>n28:e&#45;&gt;x13:w</title>
<path fill="none" stroke="#1b9e77" stroke-width="3" d="M184.32,-519.5C206.82,-519.5 197.99,-485.33 210.7,-474.65"/>
<polygon fill="#1b9e77" stroke="#1b9e77" stroke-width="3" points="211.9,-477.94 220.32,-471.5 209.72,-471.29 211.9,-477.94"/>
</g>
<!-- x14 -->
<g id="node51" class="node">
<title>x14</title>
<path fill="none" stroke="black" d="M306.32,-591.5C306.32,-591.5 276.32,-591.5 276.32,-591.5 270.32,-591.5 264.32,-585.5 264.32,-579.5 264.32,-579.5 264.32,-567.5 264.32,-567.5 264.32,-561.5 270.32,-555.5 276.32,-555.5 276.32,-555.5 306.32,-555.5 306.32,-555.5 312.32,-555.5 318.32,-561.5 318.32,-567.5 318.32,-567.5 318.32,-579.5 318.32,-579.5 318.32,-585.5 312.32,-591.5 306.32,-591.5"/>
<text text-anchor="middle" x="291.32" y="-569.8" font-family="Times,serif" font-size="14.00">BUF</text>
</g>
<!-- n28&#45;&gt;x14 -->
<g id="edge62" class="edge">
<title>n28:e&#45;&gt;x14:w</title>
<path fill="none" stroke="#1b9e77" stroke-width="3" d="M184.32,-519.5C204.32,-519.5 203.83,-535.17 220.32,-546.5 235.72,-557.08 239.62,-568.65 253.33,-572.32"/>
<polygon fill="#1b9e77" stroke="#1b9e77" stroke-width="3" points="252.97,-575.8 263.32,-573.5 253.8,-568.85 252.97,-575.8"/>
</g>
<!-- x15 -->
<g id="node52" class="node">
<title>x15</title>
<path fill="none" stroke="black" d="M306.32,-537.5C306.32,-537.5 276.32,-537.5 276.32,-537.5 270.32,-537.5 264.32,-531.5 264.32,-525.5 264.32,-525.5 264.32,-513.5 264.32,-513.5 264.32,-507.5 270.32,-501.5 276.32,-501.5 276.32,-501.5 306.32,-501.5 306.32,-501.5 312.32,-501.5 318.32,-507.5 318.32,-513.5 318.32,-513.5 318.32,-525.5 318.32,-525.5 318.32,-531.5 312.32,-537.5 306.32,-537.5"/>
<text text-anchor="middle" x="291.32" y="-515.8" font-family="Times,serif" font-size="14.00">BUF</text>
</g>
<!-- n28&#45;&gt;x15 -->
<g id="edge63" class="edge">
<title>n28:e&#45;&gt;x15:w</title>
<path fill="none" stroke="#1b9e77" stroke-width="3" d="M184.32,-519.5C215.72,-519.5 226.06,-519.5 253.02,-519.5"/>
<polygon fill="#1b9e77" stroke="#1b9e77" stroke-width="3" points="253.32,-523 263.32,-519.5 253.32,-516 253.32,-523"/>
</g>
<!-- n29 -->
<g id="node29" class="node">
<title>n29</title>
<polygon fill="none" stroke="black" points="184.47,-290.04 184.47,-304.96 130.4,-315.5 53.92,-315.5 -0.16,-304.96 -0.16,-290.04 53.92,-279.5 130.4,-279.5 184.47,-290.04"/>
<text text-anchor="middle" x="92.16" y="-293.8" font-family="Times,serif" font-size="14.00">io_samples_in_2</text>
</g>
<!-- c36 -->
<g id="node34" class="node">
<title>c36</title>
<polygon fill="none" stroke="black" points="238.82,-197.5 238.82,-243.5 343.82,-243.5 343.82,-197.5 238.82,-197.5"/>
<text text-anchor="middle" x="252.32" y="-228.3" font-family="Times,serif" font-size="14.00">A</text>
<polyline fill="none" stroke="black" points="238.82,-220.5 265.82,-220.5 "/>
<text text-anchor="middle" x="252.32" y="-205.3" font-family="Times,serif" font-size="14.00">B</text>
<polyline fill="none" stroke="black" points="265.82,-197.5 265.82,-243.5 "/>
<text text-anchor="middle" x="291.82" y="-224.3" font-family="Times,serif" font-size="14.00">$59</text>
<text text-anchor="middle" x="291.82" y="-209.3" font-family="Times,serif" font-size="14.00">$add</text>
<polyline fill="none" stroke="black" points="317.82,-197.5 317.82,-243.5 "/>
<text text-anchor="middle" x="330.82" y="-216.8" font-family="Times,serif" font-size="14.00">Y</text>
</g>
<!-- n29&#45;&gt;c36 -->
<g id="edge64" class="edge">
<title>n29:e&#45;&gt;c36:w</title>
<path fill="none" stroke="#a6761d" stroke-width="3" d="M184.32,-297.5C217.66,-297.5 203.93,-245.49 227.35,-234.52"/>
<polygon fill="#a6761d" stroke="#a6761d" stroke-width="3" points="228.21,-237.91 237.32,-232.5 226.82,-231.05 228.21,-237.91"/>
</g>
<!-- x16 -->
<g id="node53" class="node">
<title>x16</title>
<path fill="none" stroke="black" d="M232.32,-262.5C232.32,-262.5 350.32,-262.5 350.32,-262.5 356.32,-262.5 362.32,-268.5 362.32,-274.5 362.32,-274.5 362.32,-296.5 362.32,-296.5 362.32,-302.5 356.32,-308.5 350.32,-308.5 350.32,-308.5 232.32,-308.5 232.32,-308.5 226.32,-308.5 220.32,-302.5 220.32,-296.5 220.32,-296.5 220.32,-274.5 220.32,-274.5 220.32,-268.5 226.32,-262.5 232.32,-262.5"/>
<text text-anchor="middle" x="291.32" y="-293.3" font-family="Times,serif" font-size="14.00">16x 15:15 &#45; 31:16</text>
<polyline fill="none" stroke="black" points="220.32,-285.5 362.32,-285.5 "/>
<text text-anchor="middle" x="291.32" y="-270.3" font-family="Times,serif" font-size="14.00">15:0 &#45; 15:0</text>
</g>
<!-- n29&#45;&gt;x16 -->
<g id="edge65" class="edge">
<title>n29:e&#45;&gt;x16:w</title>
<path fill="none" stroke="#a6761d" stroke-width="3" d="M184.32,-297.5C199.49,-297.5 201.16,-282.56 210.63,-276.25"/>
<polygon fill="#a6761d" stroke="#a6761d" stroke-width="3" points="211.65,-279.6 220.32,-273.5 209.74,-272.87 211.65,-279.6"/>
</g>
<!-- n29&#45;&gt;x16 -->
<g id="edge66" class="edge">
<title>n29:e&#45;&gt;x16:w</title>
<path fill="none" stroke="#a6761d" stroke-width="3" d="M184.32,-297.5C196.32,-297.5 201.57,-297.5 210.19,-297.5"/>
<polygon fill="#a6761d" stroke="#a6761d" stroke-width="3" points="210.32,-301 220.32,-297.5 210.32,-294 210.32,-301"/>
</g>
<!-- x17 -->
<g id="node54" class="node">
<title>x17</title>
<path fill="none" stroke="black" d="M306.32,-417.5C306.32,-417.5 276.32,-417.5 276.32,-417.5 270.32,-417.5 264.32,-411.5 264.32,-405.5 264.32,-405.5 264.32,-393.5 264.32,-393.5 264.32,-387.5 270.32,-381.5 276.32,-381.5 276.32,-381.5 306.32,-381.5 306.32,-381.5 312.32,-381.5 318.32,-387.5 318.32,-393.5 318.32,-393.5 318.32,-405.5 318.32,-405.5 318.32,-411.5 312.32,-417.5 306.32,-417.5"/>
<text text-anchor="middle" x="291.32" y="-395.8" font-family="Times,serif" font-size="14.00">BUF</text>
</g>
<!-- n29&#45;&gt;x17 -->
<g id="edge67" class="edge">
<title>n29:e&#45;&gt;x17:w</title>
<path fill="none" stroke="#a6761d" stroke-width="3" d="M184.32,-297.5C221.29,-297.5 195.69,-344.92 220.32,-372.5 232.76,-386.44 238.61,-395.81 253.06,-398.62"/>
<polygon fill="#a6761d" stroke="#a6761d" stroke-width="3" points="253.05,-402.13 263.32,-399.5 253.65,-395.15 253.05,-402.13"/>
</g>
<!-- x18 -->
<g id="node55" class="node">
<title>x18</title>
<path fill="none" stroke="black" d="M306.32,-363.5C306.32,-363.5 276.32,-363.5 276.32,-363.5 270.32,-363.5 264.32,-357.5 264.32,-351.5 264.32,-351.5 264.32,-339.5 264.32,-339.5 264.32,-333.5 270.32,-327.5 276.32,-327.5 276.32,-327.5 306.32,-327.5 306.32,-327.5 312.32,-327.5 318.32,-333.5 318.32,-339.5 318.32,-339.5 318.32,-351.5 318.32,-351.5 318.32,-357.5 312.32,-363.5 306.32,-363.5"/>
<text text-anchor="middle" x="291.32" y="-341.8" font-family="Times,serif" font-size="14.00">BUF</text>
</g>
<!-- n29&#45;&gt;x18 -->
<g id="edge68" class="edge">
<title>n29:e&#45;&gt;x18:w</title>
<path fill="none" stroke="#a6761d" stroke-width="3" d="M184.32,-297.5C201.89,-297.5 232.18,-332.63 253.42,-342.78"/>
<polygon fill="#a6761d" stroke="#a6761d" stroke-width="3" points="252.75,-346.22 263.32,-345.5 254.6,-339.48 252.75,-346.22"/>
</g>
<!-- n30 -->
<g id="node30" class="node">
<title>n30</title>
<polygon fill="none" stroke="black" points="184.47,-99.04 184.47,-113.96 130.4,-124.5 53.92,-124.5 -0.16,-113.96 -0.16,-99.04 53.92,-88.5 130.4,-88.5 184.47,-99.04"/>
<text text-anchor="middle" x="92.16" y="-102.8" font-family="Times,serif" font-size="14.00">io_samples_in_3</text>
</g>
<!-- n30&#45;&gt;c36 -->
<g id="edge70" class="edge">
<title>n30:e&#45;&gt;c36:w</title>
<path fill="none" stroke="#66a61e" stroke-width="3" d="M184.32,-106.5C231.41,-106.5 193.3,-193.19 227.08,-206.73"/>
<polygon fill="#66a61e" stroke="#66a61e" stroke-width="3" points="226.86,-210.24 237.32,-208.5 228.06,-203.35 226.86,-210.24"/>
</g>
<!-- x19 -->
<g id="node56" class="node">
<title>x19</title>
<path fill="none" stroke="black" d="M232.32,-23.5C232.32,-23.5 350.32,-23.5 350.32,-23.5 356.32,-23.5 362.32,-29.5 362.32,-35.5 362.32,-35.5 362.32,-57.5 362.32,-57.5 362.32,-63.5 356.32,-69.5 350.32,-69.5 350.32,-69.5 232.32,-69.5 232.32,-69.5 226.32,-69.5 220.32,-63.5 220.32,-57.5 220.32,-57.5 220.32,-35.5 220.32,-35.5 220.32,-29.5 226.32,-23.5 232.32,-23.5"/>
<text text-anchor="middle" x="291.32" y="-54.3" font-family="Times,serif" font-size="14.00">16x 15:15 &#45; 31:16</text>
<polyline fill="none" stroke="black" points="220.32,-46.5 362.32,-46.5 "/>
<text text-anchor="middle" x="291.32" y="-31.3" font-family="Times,serif" font-size="14.00">15:0 &#45; 15:0</text>
</g>
<!-- n30&#45;&gt;x19 -->
<g id="edge71" class="edge">
<title>n30:e&#45;&gt;x19:w</title>
<path fill="none" stroke="#66a61e" stroke-width="3" d="M184.32,-106.5C215.9,-106.5 191.89,-50.39 210.45,-37.23"/>
<polygon fill="#66a61e" stroke="#66a61e" stroke-width="3" points="211.61,-40.54 220.32,-34.5 209.74,-33.8 211.61,-40.54"/>
</g>
<!-- n30&#45;&gt;x19 -->
<g id="edge72" class="edge">
<title>n30:e&#45;&gt;x19:w</title>
<path fill="none" stroke="#66a61e" stroke-width="3" d="M184.32,-106.5C206.82,-106.5 197.99,-72.33 210.7,-61.65"/>
<polygon fill="#66a61e" stroke="#66a61e" stroke-width="3" points="211.9,-64.94 220.32,-58.5 209.72,-58.29 211.9,-64.94"/>
</g>
<!-- x20 -->
<g id="node57" class="node">
<title>x20</title>
<path fill="none" stroke="black" d="M306.32,-178.5C306.32,-178.5 276.32,-178.5 276.32,-178.5 270.32,-178.5 264.32,-172.5 264.32,-166.5 264.32,-166.5 264.32,-154.5 264.32,-154.5 264.32,-148.5 270.32,-142.5 276.32,-142.5 276.32,-142.5 306.32,-142.5 306.32,-142.5 312.32,-142.5 318.32,-148.5 318.32,-154.5 318.32,-154.5 318.32,-166.5 318.32,-166.5 318.32,-172.5 312.32,-178.5 306.32,-178.5"/>
<text text-anchor="middle" x="291.32" y="-156.8" font-family="Times,serif" font-size="14.00">BUF</text>
</g>
<!-- n30&#45;&gt;x20 -->
<g id="edge73" class="edge">
<title>n30:e&#45;&gt;x20:w</title>
<path fill="none" stroke="#66a61e" stroke-width="3" d="M184.32,-106.5C204.32,-106.5 203.83,-122.17 220.32,-133.5 235.72,-144.08 239.62,-155.65 253.33,-159.32"/>
<polygon fill="#66a61e" stroke="#66a61e" stroke-width="3" points="252.97,-162.8 263.32,-160.5 253.8,-155.85 252.97,-162.8"/>
</g>
<!-- x21 -->
<g id="node58" class="node">
<title>x21</title>
<path fill="none" stroke="black" d="M306.32,-124.5C306.32,-124.5 276.32,-124.5 276.32,-124.5 270.32,-124.5 264.32,-118.5 264.32,-112.5 264.32,-112.5 264.32,-100.5 264.32,-100.5 264.32,-94.5 270.32,-88.5 276.32,-88.5 276.32,-88.5 306.32,-88.5 306.32,-88.5 312.32,-88.5 318.32,-94.5 318.32,-100.5 318.32,-100.5 318.32,-112.5 318.32,-112.5 318.32,-118.5 312.32,-124.5 306.32,-124.5"/>
<text text-anchor="middle" x="291.32" y="-102.8" font-family="Times,serif" font-size="14.00">BUF</text>
</g>
<!-- n30&#45;&gt;x21 -->
<g id="edge74" class="edge">
<title>n30:e&#45;&gt;x21:w</title>
<path fill="none" stroke="#66a61e" stroke-width="3" d="M184.32,-106.5C215.72,-106.5 226.06,-106.5 253.02,-106.5"/>
<polygon fill="#66a61e" stroke="#66a61e" stroke-width="3" points="253.32,-110 263.32,-106.5 253.32,-103 253.32,-110"/>
</g>
<!-- n31 -->
<g id="node31" class="node">
<title>n31</title>
<polygon fill="none" stroke="black" points="153.97,-917.04 153.97,-931.96 117.76,-942.5 66.55,-942.5 30.34,-931.96 30.34,-917.04 66.55,-906.5 117.76,-906.5 153.97,-917.04"/>
<text text-anchor="middle" x="92.16" y="-920.8" font-family="Times,serif" font-size="14.00">io_volume</text>
</g>
<!-- x7 -->
<g id="node44" class="node">
<title>x7</title>
<path fill="none" stroke="black" d="M1049.3,-807.5C1049.3,-807.5 1118.3,-807.5 1118.3,-807.5 1124.3,-807.5 1130.3,-813.5 1130.3,-819.5 1130.3,-819.5 1130.3,-841.5 1130.3,-841.5 1130.3,-847.5 1124.3,-853.5 1118.3,-853.5 1118.3,-853.5 1049.3,-853.5 1049.3,-853.5 1043.3,-853.5 1037.3,-847.5 1037.3,-841.5 1037.3,-841.5 1037.3,-819.5 1037.3,-819.5 1037.3,-813.5 1043.3,-807.5 1049.3,-807.5"/>
<text text-anchor="middle" x="1083.8" y="-838.3" font-family="Times,serif" font-size="14.00">0 &#45;&gt; 16:16</text>
<polyline fill="none" stroke="black" points="1037.3,-830.5 1130.3,-830.5 "/>
<text text-anchor="middle" x="1083.8" y="-815.3" font-family="Times,serif" font-size="14.00">15:0 &#45; 15:0</text>
</g>
<!-- n31&#45;&gt;x7 -->
<g id="edge76" class="edge">
<title>n31:e&#45;&gt;x7:w</title>
<path fill="none" stroke="#1b9e77" stroke-width="3" d="M155.16,-924.5C292.6,-924.5 326.97,-924.5 464.41,-924.5 464.41,-924.5 464.41,-924.5 781.3,-924.5 900.36,-924.5 912.64,-824.42 1025.65,-818.75"/>
<polygon fill="#1b9e77" stroke="#1b9e77" stroke-width="3" points="1025.89,-822.25 1035.8,-818.5 1025.71,-815.25 1025.89,-822.25"/>
</g>
<!-- x8 -->
<g id="node45" class="node">
<title>x8</title>
<path fill="none" stroke="black" d="M256.82,-953.5C256.82,-953.5 325.82,-953.5 325.82,-953.5 331.82,-953.5 337.82,-959.5 337.82,-965.5 337.82,-965.5 337.82,-987.5 337.82,-987.5 337.82,-993.5 331.82,-999.5 325.82,-999.5 325.82,-999.5 256.82,-999.5 256.82,-999.5 250.82,-999.5 244.82,-993.5 244.82,-987.5 244.82,-987.5 244.82,-965.5 244.82,-965.5 244.82,-959.5 250.82,-953.5 256.82,-953.5"/>
<text text-anchor="middle" x="291.32" y="-984.3" font-family="Times,serif" font-size="14.00">0 &#45;&gt; 32:16</text>
<polyline fill="none" stroke="black" points="244.82,-976.5 337.82,-976.5 "/>
<text text-anchor="middle" x="291.32" y="-961.3" font-family="Times,serif" font-size="14.00">15:0 &#45; 15:0</text>
</g>
<!-- n31&#45;&gt;x8 -->
<g id="edge77" class="edge">
<title>n31:e&#45;&gt;x8:w</title>
<path fill="none" stroke="#1b9e77" stroke-width="3" d="M155.16,-924.5C194.49,-924.5 199.63,-957.92 233.08,-963.66"/>
<polygon fill="#1b9e77" stroke="#1b9e77" stroke-width="3" points="233.06,-967.17 243.32,-964.5 233.63,-960.2 233.06,-967.17"/>
</g>
<!-- x31 -->
<g id="node68" class="node">
<title>x31</title>
<path fill="none" stroke="black" d="M256.82,-849.5C256.82,-849.5 325.82,-849.5 325.82,-849.5 331.82,-849.5 337.82,-855.5 337.82,-861.5 337.82,-861.5 337.82,-883.5 337.82,-883.5 337.82,-889.5 331.82,-895.5 325.82,-895.5 325.82,-895.5 256.82,-895.5 256.82,-895.5 250.82,-895.5 244.82,-889.5 244.82,-883.5 244.82,-883.5 244.82,-861.5 244.82,-861.5 244.82,-855.5 250.82,-849.5 256.82,-849.5"/>
<text text-anchor="middle" x="291.32" y="-880.3" font-family="Times,serif" font-size="14.00">0 &#45;&gt; 16:16</text>
<polyline fill="none" stroke="black" points="244.82,-872.5 337.82,-872.5 "/>
<text text-anchor="middle" x="291.32" y="-857.3" font-family="Times,serif" font-size="14.00">15:0 &#45; 15:0</text>
</g>
<!-- n31&#45;&gt;x31 -->
<g id="edge75" class="edge">
<title>n31:e&#45;&gt;x31:w</title>
<path fill="none" stroke="#1b9e77" stroke-width="3" d="M155.16,-924.5C199.79,-924.5 195.9,-870.11 232.96,-861.61"/>
<polygon fill="#1b9e77" stroke="#1b9e77" stroke-width="3" points="233.75,-865.05 243.32,-860.5 233,-858.09 233.75,-865.05"/>
</g>
<!-- x0 -->
<g id="node33" class="node">
<title>x0</title>
<path fill="none" stroke="black" d="M430.91,-615.5C430.91,-615.5 499.91,-615.5 499.91,-615.5 505.91,-615.5 511.91,-621.5 511.91,-627.5 511.91,-627.5 511.91,-639.5 511.91,-639.5 511.91,-645.5 505.91,-651.5 499.91,-651.5 499.91,-651.5 430.91,-651.5 430.91,-651.5 424.91,-651.5 418.91,-645.5 418.91,-639.5 418.91,-639.5 418.91,-627.5 418.91,-627.5 418.91,-621.5 424.91,-615.5 430.91,-615.5"/>
<text text-anchor="middle" x="465.41" y="-629.8" font-family="Times,serif" font-size="14.00">16:0 &#45; 16:0</text>
</g>
<!-- c35&#45;&gt;x0 -->
<g id="edge1" class="edge">
<title>c35:e&#45;&gt;x0:w</title>
<path fill="none" stroke="#e7298a" stroke-width="3" d="M357.54,-633.5C376.39,-633.5 386.32,-633.5 405.16,-633.5"/>
<polygon fill="none" stroke="#e7298a" stroke-width="3" points="357.32,-633.5 351.32,-637.5 345.32,-633.5 351.32,-629.5 357.32,-633.5"/>
<polygon fill="none" stroke="#e7298a" stroke-width="3" points="405.41,-633.5 411.41,-629.5 417.41,-633.5 411.41,-637.5 405.41,-633.5"/>
</g>
<!-- x0&#45;&gt;n16 -->
<g id="edge18" class="edge">
<title>x0:e&#45;&gt;n16:w</title>
<path fill="none" stroke="#d95f02" stroke-width="3" d="M513.41,-633.5C534.08,-633.5 541.66,-633.5 558.24,-633.5"/>
<polygon fill="#d95f02" stroke="#d95f02" stroke-width="3" points="558.51,-637 568.51,-633.5 558.51,-630 558.51,-637"/>
</g>
<!-- x1 -->
<g id="node35" class="node">
<title>x1</title>
<path fill="none" stroke="black" d="M430.91,-207.5C430.91,-207.5 499.91,-207.5 499.91,-207.5 505.91,-207.5 511.91,-213.5 511.91,-219.5 511.91,-219.5 511.91,-231.5 511.91,-231.5 511.91,-237.5 505.91,-243.5 499.91,-243.5 499.91,-243.5 430.91,-243.5 430.91,-243.5 424.91,-243.5 418.91,-237.5 418.91,-231.5 418.91,-231.5 418.91,-219.5 418.91,-219.5 418.91,-213.5 424.91,-207.5 430.91,-207.5"/>
<text text-anchor="middle" x="465.41" y="-221.8" font-family="Times,serif" font-size="14.00">16:0 &#45; 16:0</text>
</g>
<!-- c36&#45;&gt;x1 -->
<g id="edge2" class="edge">
<title>c36:e&#45;&gt;x1:w</title>
<path fill="none" stroke="#e7298a" stroke-width="3" d="M357.56,-220.77C376.51,-221.64 386.38,-224.39 405.4,-225.24"/>
<polygon fill="none" stroke="#e7298a" stroke-width="3" points="357.31,-220.76 351.23,-224.63 345.32,-220.5 351.4,-216.63 357.31,-220.76"/>
<polygon fill="none" stroke="#e7298a" stroke-width="3" points="405.42,-225.24 411.5,-221.37 417.41,-225.5 411.33,-229.37 405.42,-225.24"/>
</g>
<!-- x1&#45;&gt;n18 -->
<g id="edge25" class="edge">
<title>x1:e&#45;&gt;n18:w</title>
<path fill="none" stroke="#a6761d" stroke-width="3" d="M513.41,-225.5C541.7,-225.5 537.96,-261.81 558.5,-270.6"/>
<polygon fill="#a6761d" stroke="#a6761d" stroke-width="3" points="558.03,-274.07 568.51,-272.5 559.34,-267.2 558.03,-274.07"/>
</g>
<!-- c37 -->
<g id="node36" class="node">
<title>c37</title>
<polygon fill="none" stroke="black" points="887.3,-504.5 887.3,-550.5 992.3,-550.5 992.3,-504.5 887.3,-504.5"/>
<text text-anchor="middle" x="900.8" y="-535.3" font-family="Times,serif" font-size="14.00">A</text>
<polyline fill="none" stroke="black" points="887.3,-527.5 914.3,-527.5 "/>
<text text-anchor="middle" x="900.8" y="-512.3" font-family="Times,serif" font-size="14.00">B</text>
<polyline fill="none" stroke="black" points="914.3,-504.5 914.3,-550.5 "/>
<text text-anchor="middle" x="940.3" y="-531.3" font-family="Times,serif" font-size="14.00">$61</text>
<text text-anchor="middle" x="940.3" y="-516.3" font-family="Times,serif" font-size="14.00">$add</text>
<polyline fill="none" stroke="black" points="966.3,-504.5 966.3,-550.5 "/>
<text text-anchor="middle" x="979.3" y="-523.8" font-family="Times,serif" font-size="14.00">Y</text>
</g>
<!-- x4 -->
<g id="node39" class="node">
<title>x4</title>
<path fill="none" stroke="black" d="M1040.3,-531.5C1040.3,-531.5 1127.3,-531.5 1127.3,-531.5 1133.3,-531.5 1139.3,-537.5 1139.3,-543.5 1139.3,-543.5 1139.3,-565.5 1139.3,-565.5 1139.3,-571.5 1133.3,-577.5 1127.3,-577.5 1127.3,-577.5 1040.3,-577.5 1040.3,-577.5 1034.3,-577.5 1028.3,-571.5 1028.3,-565.5 1028.3,-565.5 1028.3,-543.5 1028.3,-543.5 1028.3,-537.5 1034.3,-531.5 1040.3,-531.5"/>
<text text-anchor="middle" x="1083.8" y="-562.3" font-family="Times,serif" font-size="14.00">17:17 &#45; 31:31</text>
<polyline fill="none" stroke="black" points="1028.3,-554.5 1139.3,-554.5 "/>
<text text-anchor="middle" x="1083.8" y="-539.3" font-family="Times,serif" font-size="14.00">16:0 &#45; 16:0</text>
</g>
<!-- c37&#45;&gt;x4 -->
<g id="edge5" class="edge">
<title>c37:e&#45;&gt;x4:w</title>
<path fill="none" stroke="#66a61e" stroke-width="3" d="M1003.55,-531.72C1008.96,-536.7 1011.47,-544.96 1016.79,-550.04"/>
<polygon fill="none" stroke="#66a61e" stroke-width="3" points="1003.53,-531.71 996.51,-533.35 992.3,-527.5 999.32,-525.86 1003.53,-531.71"/>
<polygon fill="none" stroke="#66a61e" stroke-width="3" points="1017.11,-550.16 1024.15,-548.6 1028.3,-554.5 1021.26,-556.06 1017.11,-550.16"/>
</g>
<!-- x2&#45;&gt;c37 -->
<g id="edge3" class="edge">
<title>x2:e&#45;&gt;c37:w</title>
<path fill="none" stroke="#7570b3" stroke-width="3" d="M840.75,-539.5C853.97,-539.5 861.92,-539.5 875.25,-539.5"/>
<polygon fill="none" stroke="#7570b3" stroke-width="3" points="840.3,-539.5 834.3,-543.5 828.3,-539.5 834.3,-535.5 840.3,-539.5"/>
<polygon fill="none" stroke="#7570b3" stroke-width="3" points="875.3,-539.5 881.3,-535.5 887.3,-539.5 881.3,-543.5 875.3,-539.5"/>
</g>
<!-- x3&#45;&gt;c37 -->
<g id="edge4" class="edge">
<title>x3:e&#45;&gt;c37:w</title>
<path fill="none" stroke="#e6ab02" stroke-width="3" d="M840.44,-417.97C869.2,-431.81 846.36,-499.51 875.33,-513.11"/>
<polygon fill="none" stroke="#e6ab02" stroke-width="3" points="840.05,-417.89 833.38,-420.62 828.3,-415.5 834.97,-412.78 840.05,-417.89"/>
<polygon fill="none" stroke="#e6ab02" stroke-width="3" points="875.53,-513.15 882.19,-510.4 887.3,-515.5 880.63,-518.25 875.53,-513.15"/>
</g>
<!-- x4&#45;&gt;n20 -->
<g id="edge34" class="edge">
<title>x4:e&#45;&gt;n20:w</title>
<path fill="none" stroke="#e7298a" stroke-width="3" d="M1139.3,-542.5C1154.47,-542.5 1156.14,-557.44 1165.62,-563.75"/>
<polygon fill="#e7298a" stroke="#e7298a" stroke-width="3" points="1164.72,-567.13 1175.3,-566.5 1166.63,-560.4 1164.72,-567.13"/>
</g>
<!-- x4&#45;&gt;n20 -->
<g id="edge35" class="edge">
<title>x4:e&#45;&gt;n20:w</title>
<path fill="none" stroke="#e7298a" stroke-width="3" d="M1139.3,-566.5C1151.3,-566.5 1156.55,-566.5 1165.17,-566.5"/>
<polygon fill="#e7298a" stroke="#e7298a" stroke-width="3" points="1165.3,-570 1175.3,-566.5 1165.3,-563 1165.3,-570"/>
</g>
<!-- v6 -->
<g id="node40" class="node">
<title>v6</title>
<ellipse fill="none" stroke="black" cx="1387.08" cy="-638.5" rx="65.79" ry="18"/>
<text text-anchor="middle" x="1387.08" y="-634.8" font-family="Times,serif" font-size="14.00">8&#39;01111111</text>
</g>
<!-- c38 -->
<g id="node41" class="node">
<title>c38</title>
<polygon fill="none" stroke="black" points="1496.47,-663.5 1496.47,-709.5 1596.47,-709.5 1596.47,-663.5 1496.47,-663.5"/>
<text text-anchor="middle" x="1509.97" y="-694.3" font-family="Times,serif" font-size="14.00">A</text>
<polyline fill="none" stroke="black" points="1496.47,-686.5 1523.47,-686.5 "/>
<text text-anchor="middle" x="1509.97" y="-671.3" font-family="Times,serif" font-size="14.00">B</text>
<polyline fill="none" stroke="black" points="1523.47,-663.5 1523.47,-709.5 "/>
<text text-anchor="middle" x="1546.97" y="-690.3" font-family="Times,serif" font-size="14.00">$62</text>
<text text-anchor="middle" x="1546.97" y="-675.3" font-family="Times,serif" font-size="14.00">$div</text>
<polyline fill="none" stroke="black" points="1570.47,-663.5 1570.47,-709.5 "/>
<text text-anchor="middle" x="1583.47" y="-682.8" font-family="Times,serif" font-size="14.00">Y</text>
</g>
<!-- v6&#45;&gt;c38 -->
<g id="edge84" class="edge">
<title>v6:e&#45;&gt;c38:w</title>
<path fill="none" stroke="#1b9e77" stroke-width="3" d="M1454.08,-638.5C1474.46,-638.5 1472.65,-663.66 1485.76,-671.91"/>
<polygon fill="#1b9e77" stroke="#1b9e77" stroke-width="3" points="1484.91,-675.31 1495.47,-674.5 1486.71,-668.54 1484.91,-675.31"/>
</g>
<!-- c38&#45;&gt;n21 -->
<g id="edge41" class="edge">
<title>c38:e&#45;&gt;n21:w</title>
<path fill="none" stroke="#a6761d" stroke-width="3" d="M1597.47,-686.5C1617.25,-686.5 1615.25,-711.19 1627.54,-719.68"/>
<polygon fill="#a6761d" stroke="#a6761d" stroke-width="3" points="1626.79,-723.1 1637.36,-722.5 1628.72,-716.37 1626.79,-723.1"/>
</g>
<!-- x5&#45;&gt;c38 -->
<g id="edge6" class="edge">
<title>x5:e&#45;&gt;c38:w</title>
<path fill="none" stroke="#d95f02" stroke-width="3" d="M1470.24,-698.5C1474.88,-698.5 1478.68,-698.5 1483.32,-698.5"/>
<polygon fill="none" stroke="#d95f02" stroke-width="3" points="1470.08,-698.5 1464.08,-702.5 1458.08,-698.5 1464.08,-694.5 1470.08,-698.5"/>
<polygon fill="none" stroke="#d95f02" stroke-width="3" points="1483.47,-698.5 1489.47,-694.5 1495.47,-698.5 1489.47,-702.5 1483.47,-698.5"/>
</g>
<!-- c39&#45;&gt;n26 -->
<g id="edge49" class="edge">
<title>c39:e&#45;&gt;n26:w</title>
<path fill="none" stroke="#7570b3" stroke-width="3" d="M1902.96,-802.5C1944.61,-802.5 1913.07,-877.7 1942.14,-890.62"/>
<polygon fill="#7570b3" stroke="#7570b3" stroke-width="3" points="1941.58,-894.08 1952.06,-892.5 1942.89,-887.2 1941.58,-894.08"/>
</g>
<!-- x7&#45;&gt;c39 -->
<g id="edge7" class="edge">
<title>x7:e&#45;&gt;c39:w</title>
<path fill="none" stroke="#666666" stroke-width="3" d="M1144.1,-830.39C1247.57,-828.53 1276.65,-803.5 1386.08,-803.5 1386.08,-803.5 1386.08,-803.5 1547.47,-803.5 1653.42,-803.5 1682.62,-791.47 1782.73,-790.56"/>
<polygon fill="none" stroke="#666666" stroke-width="3" points="1143.8,-830.39 1137.83,-834.45 1131.8,-830.5 1137.76,-826.45 1143.8,-830.39"/>
<polygon fill="none" stroke="#666666" stroke-width="3" points="1782.96,-790.55 1788.94,-786.53 1794.96,-790.5 1788.98,-794.53 1782.96,-790.55"/>
</g>
<!-- x8&#45;&gt;n1 -->
<g id="edge11" class="edge">
<title>x8:e&#45;&gt;n1:w</title>
<path fill="none" stroke="#a6761d" stroke-width="3" d="M339.32,-976.5C361.85,-976.5 369.86,-976.5 388.31,-976.5"/>
<polygon fill="#a6761d" stroke="#a6761d" stroke-width="3" points="388.32,-980 398.32,-976.5 388.32,-973 388.32,-980"/>
</g>
<!-- x9&#45;&gt;n2 -->
<g id="edge32" class="edge">
<title>x9:e&#45;&gt;n2:w</title>
<path fill="none" stroke="#e7298a" stroke-width="3" d="M1718.36,-1099.5C1744.63,-1099.5 1750.57,-1117.11 1771.75,-1121.51"/>
<polygon fill="#e7298a" stroke="#e7298a" stroke-width="3" points="1771.57,-1125.01 1781.86,-1122.5 1772.25,-1118.04 1771.57,-1125.01"/>
</g>
<!-- x10&#45;&gt;n3 -->
<g id="edge69" class="edge">
<title>x10:e&#45;&gt;n3:w</title>
<path fill="none" stroke="#e6ab02" stroke-width="3" d="M362.32,-698.5C380.75,-698.5 387.74,-698.5 402.24,-698.5"/>
<polygon fill="#e6ab02" stroke="#e6ab02" stroke-width="3" points="402.41,-702 412.41,-698.5 402.41,-695 402.41,-702"/>
</g>
<!-- x11&#45;&gt;n4 -->
<g id="edge78" class="edge">
<title>x11:e&#45;&gt;n4:w</title>
<path fill="none" stroke="#1b9e77" stroke-width="3" d="M319.32,-812.5C357.14,-812.5 369.03,-812.5 402.39,-812.5"/>
<polygon fill="#1b9e77" stroke="#1b9e77" stroke-width="3" points="402.41,-816 412.41,-812.5 402.41,-809 402.41,-816"/>
</g>
<!-- x12&#45;&gt;n5 -->
<g id="edge79" class="edge">
<title>x12:e&#45;&gt;n5:w</title>
<path fill="none" stroke="#e7298a" stroke-width="3" d="M319.32,-758.5C357.14,-758.5 369.03,-758.5 402.39,-758.5"/>
<polygon fill="#e7298a" stroke="#e7298a" stroke-width="3" points="402.41,-762 412.41,-758.5 402.41,-755 402.41,-762"/>
</g>
<!-- x13&#45;&gt;n6 -->
<g id="edge80" class="edge">
<title>x13:e&#45;&gt;n6:w</title>
<path fill="none" stroke="#e7298a" stroke-width="3" d="M362.32,-459.5C380.75,-459.5 387.74,-459.5 402.24,-459.5"/>
<polygon fill="#e7298a" stroke="#e7298a" stroke-width="3" points="402.41,-463 412.41,-459.5 402.41,-456 402.41,-463"/>
</g>
<!-- x14&#45;&gt;n7 -->
<g id="edge81" class="edge">
<title>x14:e&#45;&gt;n7:w</title>
<path fill="none" stroke="#7570b3" stroke-width="3" d="M319.32,-573.5C357.14,-573.5 369.03,-573.5 402.39,-573.5"/>
<polygon fill="#7570b3" stroke="#7570b3" stroke-width="3" points="402.41,-577 412.41,-573.5 402.41,-570 402.41,-577"/>
</g>
<!-- x15&#45;&gt;n8 -->
<g id="edge82" class="edge">
<title>x15:e&#45;&gt;n8:w</title>
<path fill="none" stroke="#1b9e77" stroke-width="3" d="M319.32,-519.5C357.14,-519.5 369.03,-519.5 402.39,-519.5"/>
<polygon fill="#1b9e77" stroke="#1b9e77" stroke-width="3" points="402.41,-523 412.41,-519.5 402.41,-516 402.41,-523"/>
</g>
<!-- x16&#45;&gt;n9 -->
<g id="edge83" class="edge">
<title>x16:e&#45;&gt;n9:w</title>
<path fill="none" stroke="#e7298a" stroke-width="3" d="M362.32,-285.5C380.75,-285.5 387.74,-285.5 402.24,-285.5"/>
<polygon fill="#e7298a" stroke="#e7298a" stroke-width="3" points="402.41,-289 412.41,-285.5 402.41,-282 402.41,-289"/>
</g>
<!-- x17&#45;&gt;n10 -->
<g id="edge12" class="edge">
<title>x17:e&#45;&gt;n10:w</title>
<path fill="none" stroke="#7570b3" stroke-width="3" d="M319.32,-399.5C357.14,-399.5 369.03,-399.5 402.39,-399.5"/>
<polygon fill="#7570b3" stroke="#7570b3" stroke-width="3" points="402.41,-403 412.41,-399.5 402.41,-396 402.41,-403"/>
</g>
<!-- x18&#45;&gt;n11 -->
<g id="edge13" class="edge">
<title>x18:e&#45;&gt;n11:w</title>
<path fill="none" stroke="#e7298a" stroke-width="3" d="M319.32,-345.5C357.14,-345.5 369.03,-345.5 402.39,-345.5"/>
<polygon fill="#e7298a" stroke="#e7298a" stroke-width="3" points="402.41,-349 412.41,-345.5 402.41,-342 402.41,-349"/>
</g>
<!-- x19&#45;&gt;n12 -->
<g id="edge14" class="edge">
<title>x19:e&#45;&gt;n12:w</title>
<path fill="none" stroke="#1b9e77" stroke-width="3" d="M362.32,-46.5C380.75,-46.5 387.74,-46.5 402.24,-46.5"/>
<polygon fill="#1b9e77" stroke="#1b9e77" stroke-width="3" points="402.41,-50 412.41,-46.5 402.41,-43 402.41,-50"/>
</g>
<!-- x20&#45;&gt;n13 -->
<g id="edge15" class="edge">
<title>x20:e&#45;&gt;n13:w</title>
<path fill="none" stroke="#666666" stroke-width="3" d="M319.32,-160.5C357.14,-160.5 369.03,-160.5 402.39,-160.5"/>
<polygon fill="#666666" stroke="#666666" stroke-width="3" points="402.41,-164 412.41,-160.5 402.41,-157 402.41,-164"/>
</g>
<!-- x21&#45;&gt;n14 -->
<g id="edge16" class="edge">
<title>x21:e&#45;&gt;n14:w</title>
<path fill="none" stroke="#7570b3" stroke-width="3" d="M319.32,-106.5C357.14,-106.5 369.03,-106.5 402.39,-106.5"/>
<polygon fill="#7570b3" stroke="#7570b3" stroke-width="3" points="402.41,-110 412.41,-106.5 402.41,-103 402.41,-110"/>
</g>
<!-- x22&#45;&gt;n15 -->
<g id="edge17" class="edge">
<title>x22:e&#45;&gt;n15:w</title>
<path fill="none" stroke="#7570b3" stroke-width="3" d="M851.3,-693.5C863.3,-693.5 868.55,-693.5 877.17,-693.5"/>
<polygon fill="#7570b3" stroke="#7570b3" stroke-width="3" points="877.3,-697 887.3,-693.5 877.3,-690 877.3,-697"/>
</g>
<!-- x24 -->
<g id="node61" class="node">
<title>x24</title>
<path fill="none" stroke="black" d="M900.8,-592.5C900.8,-592.5 978.8,-592.5 978.8,-592.5 984.8,-592.5 990.8,-598.5 990.8,-604.5 990.8,-604.5 990.8,-616.5 990.8,-616.5 990.8,-622.5 984.8,-628.5 978.8,-628.5 978.8,-628.5 900.8,-628.5 900.8,-628.5 894.8,-628.5 888.8,-622.5 888.8,-616.5 888.8,-616.5 888.8,-604.5 888.8,-604.5 888.8,-598.5 894.8,-592.5 900.8,-592.5"/>
<text text-anchor="middle" x="939.8" y="-606.8" font-family="Times,serif" font-size="14.00">14:0 &#45; 31:17</text>
</g>
<!-- x23&#45;&gt;x24 -->
<g id="edge8" class="edge">
<title>x23:e&#45;&gt;x24:w</title>
<path fill="none" stroke="#7570b3" stroke-width="3" d="M859.89,-630.11C866.23,-625.81 869.7,-618.43 875.96,-614.06"/>
<polygon fill="none" stroke="#7570b3" stroke-width="3" points="859.81,-630.13 855.18,-635.65 848.3,-633.5 852.93,-627.98 859.81,-630.13"/>
<polygon fill="none" stroke="#7570b3" stroke-width="3" points="876.3,-613.96 880.9,-608.4 887.8,-610.5 883.2,-616.06 876.3,-613.96"/>
</g>
<!-- x24&#45;&gt;n16 -->
<g id="edge19" class="edge">
<title>x24:e&#45;&gt;n16:w</title>
<path fill="none" stroke="#d95f02" stroke-width="3" d="M991.8,-610.5C1000.03,-610.5 996.77,-623.34 990.8,-629 957.89,-660.18 932.48,-641.1 888.8,-629 870.06,-623.81 870.03,-611.69 851.3,-606.5 790.47,-589.65 766.18,-579.16 709.3,-606.5 686.21,-617.6 696.38,-640.4 673.3,-651.5 631.48,-671.6 602.61,-683.38 568.9,-651.5 566.54,-649.26 564.61,-645.87 563.69,-642.64"/>
<polygon fill="#d95f02" stroke="#d95f02" stroke-width="3" points="566.89,-644.05 567.9,-633.5 560.53,-641.11 566.89,-644.05"/>
</g>
<!-- x25&#45;&gt;n17 -->
<g id="edge24" class="edge">
<title>x25:e&#45;&gt;n17:w</title>
<path fill="none" stroke="#a6761d" stroke-width="3" d="M851.3,-308.5C863.3,-308.5 868.55,-308.5 877.17,-308.5"/>
<polygon fill="#a6761d" stroke="#a6761d" stroke-width="3" points="877.3,-312 887.3,-308.5 877.3,-305 877.3,-312"/>
</g>
<!-- x27 -->
<g id="node64" class="node">
<title>x27</title>
<path fill="none" stroke="black" d="M900.8,-207.5C900.8,-207.5 978.8,-207.5 978.8,-207.5 984.8,-207.5 990.8,-213.5 990.8,-219.5 990.8,-219.5 990.8,-231.5 990.8,-231.5 990.8,-237.5 984.8,-243.5 978.8,-243.5 978.8,-243.5 900.8,-243.5 900.8,-243.5 894.8,-243.5 888.8,-237.5 888.8,-231.5 888.8,-231.5 888.8,-219.5 888.8,-219.5 888.8,-213.5 894.8,-207.5 900.8,-207.5"/>
<text text-anchor="middle" x="939.8" y="-221.8" font-family="Times,serif" font-size="14.00">14:0 &#45; 31:17</text>
</g>
<!-- x26&#45;&gt;x27 -->
<g id="edge9" class="edge">
<title>x26:e&#45;&gt;x27:w</title>
<path fill="none" stroke="#1b9e77" stroke-width="3" d="M859.89,-245.11C866.23,-240.81 869.7,-233.43 875.96,-229.06"/>
<polygon fill="none" stroke="#1b9e77" stroke-width="3" points="859.81,-245.13 855.18,-250.65 848.3,-248.5 852.93,-242.98 859.81,-245.13"/>
<polygon fill="none" stroke="#1b9e77" stroke-width="3" points="876.3,-228.96 880.9,-223.4 887.8,-225.5 883.2,-231.06 876.3,-228.96"/>
</g>
<!-- x27&#45;&gt;n18 -->
<g id="edge26" class="edge">
<title>x27:e&#45;&gt;n18:w</title>
<path fill="none" stroke="#a6761d" stroke-width="3" d="M991.8,-225.5C1000.03,-225.5 996.77,-238.34 990.8,-244 957.89,-275.18 932.48,-256.1 888.8,-244 870.06,-238.81 870.03,-226.69 851.3,-221.5 790.47,-204.65 763.27,-188.78 709.3,-221.5 679.72,-239.43 702.88,-272.57 673.3,-290.5 633.62,-314.55 602.61,-322.38 568.9,-290.5 566.54,-288.26 564.61,-284.87 563.69,-281.64"/>
<polygon fill="#a6761d" stroke="#a6761d" stroke-width="3" points="566.89,-283.05 567.9,-272.5 560.53,-280.11 566.89,-283.05"/>
</g>
<!-- x28&#45;&gt;n19 -->
<g id="edge31" class="edge">
<title>x28:e&#45;&gt;n19:w</title>
<path fill="none" stroke="#e7298a" stroke-width="3" d="M1458.08,-578.5C1470.08,-578.5 1475.33,-578.5 1483.95,-578.5"/>
<polygon fill="#e7298a" stroke="#e7298a" stroke-width="3" points="1484.08,-582 1494.08,-578.5 1484.08,-575 1484.08,-582"/>
</g>
<!-- x30 -->
<g id="node67" class="node">
<title>x30</title>
<path fill="none" stroke="black" d="M1507.47,-477.5C1507.47,-477.5 1585.47,-477.5 1585.47,-477.5 1591.47,-477.5 1597.47,-483.5 1597.47,-489.5 1597.47,-489.5 1597.47,-501.5 1597.47,-501.5 1597.47,-507.5 1591.47,-513.5 1585.47,-513.5 1585.47,-513.5 1507.47,-513.5 1507.47,-513.5 1501.47,-513.5 1495.47,-507.5 1495.47,-501.5 1495.47,-501.5 1495.47,-489.5 1495.47,-489.5 1495.47,-483.5 1501.47,-477.5 1507.47,-477.5"/>
<text text-anchor="middle" x="1546.47" y="-491.8" font-family="Times,serif" font-size="14.00">13:0 &#45; 30:17</text>
</g>
<!-- x29&#45;&gt;x30 -->
<g id="edge10" class="edge">
<title>x29:e&#45;&gt;x30:w</title>
<path fill="none" stroke="#e6ab02" stroke-width="3" d="M1466.65,-515.11C1472.97,-510.81 1476.42,-503.43 1482.66,-499.06"/>
<polygon fill="none" stroke="#e6ab02" stroke-width="3" points="1466.59,-515.12 1461.96,-520.65 1455.08,-518.5 1459.71,-512.97 1466.59,-515.12"/>
<polygon fill="none" stroke="#e6ab02" stroke-width="3" points="1482.98,-498.96 1487.57,-493.4 1494.47,-495.5 1489.88,-501.06 1482.98,-498.96"/>
</g>
<!-- x30&#45;&gt;n20 -->
<g id="edge33" class="edge">
<title>x30:e&#45;&gt;n20:w</title>
<path fill="none" stroke="#e7298a" stroke-width="3" d="M1598.47,-495.5C1606.71,-495.5 1603.45,-508.34 1597.47,-514 1564.56,-545.18 1539.15,-526.13 1495.47,-514 1476.78,-508.81 1476.77,-496.69 1458.08,-491.5 1397.27,-474.61 1368.14,-455.83 1316.08,-491.5 1279.52,-516.55 1316.64,-559.45 1280.08,-584.5 1241.81,-610.73 1209.39,-616.38 1175.69,-584.5 1173.32,-582.26 1171.39,-578.87 1170.47,-575.64"/>
<polygon fill="#e7298a" stroke="#e7298a" stroke-width="3" points="1173.67,-577.05 1174.69,-566.5 1167.32,-574.11 1173.67,-577.05"/>
</g>
<!-- x31&#45;&gt;n22 -->
<g id="edge43" class="edge">
<title>x31:e&#45;&gt;n22:w</title>
<path fill="none" stroke="#d95f02" stroke-width="3" d="M339.32,-872.5C368.12,-872.5 377.77,-872.5 402.24,-872.5"/>
<polygon fill="#d95f02" stroke="#d95f02" stroke-width="3" points="402.41,-876 412.41,-872.5 402.41,-869 402.41,-876"/>
</g>
<!-- x32&#45;&gt;n23 -->
<g id="edge44" class="edge">
<title>x32:e&#45;&gt;n23:w</title>
<path fill="none" stroke="#a6761d" stroke-width="3" d="M1435.08,-893.5C1462.49,-893.5 1463.2,-922.85 1484.15,-929.96"/>
<polygon fill="#a6761d" stroke="#a6761d" stroke-width="3" points="1483.66,-933.43 1494.08,-931.5 1484.73,-926.51 1483.66,-933.43"/>
</g>
<!-- x33&#45;&gt;n24 -->
<g id="edge47" class="edge">
<title>x33:e&#45;&gt;n24:w</title>
<path fill="none" stroke="#1b9e77" stroke-width="3" d="M1745.86,-996.5C1768.78,-996.5 1769.48,-1021.16 1785.8,-1028.47"/>
<polygon fill="#1b9e77" stroke="#1b9e77" stroke-width="3" points="1785.47,-1031.98 1795.96,-1030.5 1786.84,-1025.11 1785.47,-1031.98"/>
</g>
<!-- x34&#45;&gt;n25 -->
<g id="edge48" class="edge">
<title>x34:e&#45;&gt;n25:w</title>
<path fill="none" stroke="#e6ab02" stroke-width="3" d="M1745.86,-919.5C1765.77,-919.5 1770.76,-932.78 1785.78,-937.13"/>
<polygon fill="#e6ab02" stroke="#e6ab02" stroke-width="3" points="1785.59,-940.64 1795.96,-938.5 1786.52,-933.7 1785.59,-940.64"/>
</g>
</g>
</svg>
