<?xml version="1.0" encoding="UTF-8" standalone="no"?>
<!DOCTYPE svg PUBLIC "-//W3C//DTD SVG 1.1//EN"
 "http://www.w3.org/Graphics/SVG/1.1/DTD/svg11.dtd">
<!-- Generated by graphviz version 2.40.1 (0)
 -->
<!-- Title: GeneratorStateDecoder Pages: 1 -->
<svg width="988pt" height="123pt"
 viewBox="0.00 0.00 988.20 123.00" xmlns="http://www.w3.org/2000/svg" xmlns:xlink="http://www.w3.org/1999/xlink">
<g id="graph0" class="graph" transform="scale(1 1) rotate(0) translate(4 119)">
<title>GeneratorStateDecoder</title>
<polygon fill="#ffffff" stroke="transparent" points="-4,4 -4,-119 984.2024,-119 984.2024,4 -4,4"/>
<text text-anchor="middle" x="490.1012" y="-7.8" font-family="Times,serif" font-size="14.00" fill="#000000">GeneratorStateDecoder</text>
<!-- n1 -->
<g id="node1" class="node">
<title>n1</title>
<polygon fill="none" stroke="#000000" points="980.3433,-89.0442 980.3433,-103.9558 857.456,-114.5 683.6673,-114.5 560.78,-103.9558 560.78,-89.0442 683.6673,-78.5 857.456,-78.5 980.3433,-89.0442"/>
<text text-anchor="middle" x="770.5616" y="-92.8" font-family="Times,serif" font-size="14.00" fill="#000000">io_GeneratorPacketOut_generatorInput</text>
</g>
<!-- n2 -->
<g id="node2" class="node">
<title>n2</title>
<polygon fill="none" stroke="#000000" points="841.6672,-34.0442 841.6672,-48.9558 800.0145,-59.5 741.1088,-59.5 699.4561,-48.9558 699.4561,-34.0442 741.1088,-23.5 800.0145,-23.5 841.6672,-34.0442"/>
<text text-anchor="middle" x="770.5616" y="-37.8" font-family="Times,serif" font-size="14.00" fill="#000000">io_indexOut</text>
</g>
<!-- n3 -->
<g id="node3" class="node">
<title>n3</title>
<polygon fill="none" stroke="#000000" points="386.8813,-61.0442 386.8813,-75.9558 273.578,-86.5 113.3429,-86.5 .0396,-75.9558 .0396,-61.0442 113.3429,-50.5 273.578,-50.5 386.8813,-61.0442"/>
<text text-anchor="middle" x="193.4604" y="-64.8" font-family="Times,serif" font-size="14.00" fill="#000000">io_packetIn_generatorUpdatePacket</text>
</g>
<!-- x0 -->
<g id="node4" class="node">
<title>x0</title>
<path fill="none" stroke="#000000" d="M434.9209,-78.5C434.9209,-78.5 512.9209,-78.5 512.9209,-78.5 518.9209,-78.5 524.9209,-84.5 524.9209,-90.5 524.9209,-90.5 524.9209,-102.5 524.9209,-102.5 524.9209,-108.5 518.9209,-114.5 512.9209,-114.5 512.9209,-114.5 434.9209,-114.5 434.9209,-114.5 428.9209,-114.5 422.9209,-108.5 422.9209,-102.5 422.9209,-102.5 422.9209,-90.5 422.9209,-90.5 422.9209,-84.5 428.9209,-78.5 434.9209,-78.5"/>
<text text-anchor="middle" x="473.9209" y="-92.8" font-family="Times,serif" font-size="14.00" fill="#000000">87:16 &#45; 71:0</text>
</g>
<!-- n3&#45;&gt;x0 -->
<g id="edge3" class="edge">
<title>n3:e&#45;&gt;x0:w</title>
<path fill="none" stroke="#7570b3" stroke-width="3" d="M386.9209,-68.5C403.0734,-68.5 403.4717,-86.2803 413.224,-93.5035"/>
<polygon fill="#7570b3" stroke="#7570b3" stroke-width="3" points="412.3333,-96.8915 422.9209,-96.5 414.4,-90.2035 412.3333,-96.8915"/>
</g>
<!-- x1 -->
<g id="node5" class="node">
<title>x1</title>
<path fill="none" stroke="#000000" d="M439.4209,-23.5C439.4209,-23.5 508.4209,-23.5 508.4209,-23.5 514.4209,-23.5 520.4209,-29.5 520.4209,-35.5 520.4209,-35.5 520.4209,-47.5 520.4209,-47.5 520.4209,-53.5 514.4209,-59.5 508.4209,-59.5 508.4209,-59.5 439.4209,-59.5 439.4209,-59.5 433.4209,-59.5 427.4209,-53.5 427.4209,-47.5 427.4209,-47.5 427.4209,-35.5 427.4209,-35.5 427.4209,-29.5 433.4209,-23.5 439.4209,-23.5"/>
<text text-anchor="middle" x="473.9209" y="-37.8" font-family="Times,serif" font-size="14.00" fill="#000000">15:0 &#45; 15:0</text>
</g>
<!-- n3&#45;&gt;x1 -->
<g id="edge4" class="edge">
<title>n3:e&#45;&gt;x1:w</title>
<path fill="none" stroke="#7570b3" stroke-width="3" d="M386.9209,-68.5C404.348,-68.5 405.7028,-50.6758 417.1028,-43.9917"/>
<polygon fill="#7570b3" stroke="#7570b3" stroke-width="3" points="418.0891,-47.3524 426.9209,-41.5 416.3672,-40.5675 418.0891,-47.3524"/>
</g>
<!-- x0&#45;&gt;n1 -->
<g id="edge1" class="edge">
<title>x0:e&#45;&gt;n1:w</title>
<path fill="none" stroke="#e7298a" stroke-width="3" d="M524.9209,-96.5C536.9209,-96.5 542.1709,-96.5 550.7959,-96.5"/>
<polygon fill="#e7298a" stroke="#e7298a" stroke-width="3" points="550.9209,-100.0001 560.9209,-96.5 550.9208,-93.0001 550.9209,-100.0001"/>
</g>
<!-- x1&#45;&gt;n2 -->
<g id="edge2" class="edge">
<title>x1:e&#45;&gt;n2:w</title>
<path fill="none" stroke="#e7298a" stroke-width="3" d="M520.9209,-41.5C596.7502,-41.5 618.2623,-41.5 689.2115,-41.5"/>
<polygon fill="#e7298a" stroke="#e7298a" stroke-width="3" points="689.5617,-45.0001 699.5616,-41.5 689.5616,-38.0001 689.5617,-45.0001"/>
</g>
</g>
</svg>
