<?xml version="1.0" encoding="UTF-8" standalone="no"?>
<!DOCTYPE svg PUBLIC "-//W3C//DTD SVG 1.1//EN"
 "http://www.w3.org/Graphics/SVG/1.1/DTD/svg11.dtd">
<!-- Generated by graphviz version 2.40.1 (0)
 -->
<!-- Title: GlobalStateDecoder Pages: 1 -->
<svg width="1347pt" height="375pt"
 viewBox="0.00 0.00 1347.39 375.00" xmlns="http://www.w3.org/2000/svg" xmlns:xlink="http://www.w3.org/1999/xlink">
<g id="graph0" class="graph" transform="scale(1 1) rotate(0) translate(4 371)">
<title>GlobalStateDecoder</title>
<polygon fill="#ffffff" stroke="transparent" points="-4,4 -4,-371 1343.3858,-371 1343.3858,4 -4,4"/>
<text text-anchor="middle" x="669.6929" y="-7.8" font-family="Times,serif" font-size="14.00" fill="#000000">GlobalStateDecoder</text>
<!-- n3 -->
<g id="node1" class="node">
<title>n3</title>
<polygon fill="none" stroke="#000000" points="637.1714,-215 584.8872,-197 637.1714,-179 689.4555,-197 637.1714,-215"/>
<text text-anchor="middle" x="637.1714" y="-193.3" font-family="Times,serif" font-size="14.00" fill="#000000">_T_25</text>
</g>
<!-- n4 -->
<g id="node2" class="node">
<title>n4</title>
<polygon fill="none" stroke="#000000" points="211.5376,-261.5442 211.5376,-276.4558 189.8216,-287 159.1107,-287 137.3947,-276.4558 137.3947,-261.5442 159.1107,-251 189.8216,-251 211.5376,-261.5442"/>
<text text-anchor="middle" x="174.4661" y="-265.3" font-family="Times,serif" font-size="14.00" fill="#000000">clock</text>
</g>
<!-- c13 -->
<g id="node8" class="node">
<title>c13</title>
<polygon fill="none" stroke="#000000" points="384.9323,-234 384.9323,-280 512.9323,-280 512.9323,-234 384.9323,-234"/>
<text text-anchor="middle" x="408.4323" y="-264.8" font-family="Times,serif" font-size="14.00" fill="#000000">CLK</text>
<polyline fill="none" stroke="#000000" points="384.9323,-257 431.9323,-257 "/>
<text text-anchor="middle" x="408.4323" y="-241.8" font-family="Times,serif" font-size="14.00" fill="#000000">D</text>
<polyline fill="none" stroke="#000000" points="431.9323,-234 431.9323,-280 "/>
<text text-anchor="middle" x="458.4323" y="-260.8" font-family="Times,serif" font-size="14.00" fill="#000000">$941</text>
<text text-anchor="middle" x="458.4323" y="-245.8" font-family="Times,serif" font-size="14.00" fill="#000000">$dff</text>
<polyline fill="none" stroke="#000000" points="484.9323,-234 484.9323,-280 "/>
<text text-anchor="middle" x="498.9323" y="-253.3" font-family="Times,serif" font-size="14.00" fill="#000000">Q</text>
</g>
<!-- n4&#45;&gt;c13 -->
<g id="edge5" class="edge">
<title>n4:e&#45;&gt;c13:w</title>
<path fill="none" stroke="#66a61e" d="M211.4661,-269C285.0989,-269 305.9879,-269 374.882,-269"/>
<polygon fill="#66a61e" stroke="#66a61e" points="374.9323,-272.5001 384.9323,-269 374.9322,-265.5001 374.9323,-272.5001"/>
</g>
<!-- n5 -->
<g id="node3" class="node">
<title>n5</title>
<polygon fill="none" stroke="#000000" points="348.8984,-163.5442 348.8984,-178.4558 246.7184,-189 102.2139,-189 .0339,-178.4558 .0339,-163.5442 102.2139,-153 246.7184,-153 348.8984,-163.5442"/>
<text text-anchor="middle" x="174.4661" y="-167.3" font-family="Times,serif" font-size="14.00" fill="#000000">io_packetIn_globalUpdatePacket</text>
</g>
<!-- x0 -->
<g id="node10" class="node">
<title>x0</title>
<path fill="none" stroke="#000000" d="M602.6714,-124C602.6714,-124 671.6714,-124 671.6714,-124 677.6714,-124 683.6714,-130 683.6714,-136 683.6714,-136 683.6714,-148 683.6714,-148 683.6714,-154 677.6714,-160 671.6714,-160 671.6714,-160 602.6714,-160 602.6714,-160 596.6714,-160 590.6714,-154 590.6714,-148 590.6714,-148 590.6714,-136 590.6714,-136 590.6714,-130 596.6714,-124 602.6714,-124"/>
<text text-anchor="middle" x="637.1714" y="-138.3" font-family="Times,serif" font-size="14.00" fill="#000000">15:0 &#45; 15:0</text>
</g>
<!-- n5&#45;&gt;x0 -->
<g id="edge6" class="edge">
<title>n5:e&#45;&gt;x0:w</title>
<path fill="none" stroke="#d95f02" stroke-width="3" d="M348.9323,-171C354.917,-171 534.6605,-148.1982 580.0125,-143.0321"/>
<polygon fill="#d95f02" stroke="#d95f02" stroke-width="3" points="580.5764,-146.4929 590.1714,-142 579.8688,-139.5288 580.5764,-146.4929"/>
</g>
<!-- x2 -->
<g id="node13" class="node">
<title>x2</title>
<path fill="none" stroke="#000000" d="M414.4323,-176C414.4323,-176 483.4323,-176 483.4323,-176 489.4323,-176 495.4323,-182 495.4323,-188 495.4323,-188 495.4323,-200 495.4323,-200 495.4323,-206 489.4323,-212 483.4323,-212 483.4323,-212 414.4323,-212 414.4323,-212 408.4323,-212 402.4323,-206 402.4323,-200 402.4323,-200 402.4323,-188 402.4323,-188 402.4323,-182 408.4323,-176 414.4323,-176"/>
<text text-anchor="middle" x="448.9323" y="-190.3" font-family="Times,serif" font-size="14.00" fill="#000000">15:0 &#45; 15:0</text>
</g>
<!-- n5&#45;&gt;x2 -->
<g id="edge7" class="edge">
<title>n5:e&#45;&gt;x2:w</title>
<path fill="none" stroke="#d95f02" stroke-width="3" d="M348.9323,-171C370.7987,-171 375.2367,-187.6786 391.929,-192.6301"/>
<polygon fill="#d95f02" stroke="#d95f02" stroke-width="3" points="391.5499,-196.1108 401.9323,-194 392.4996,-189.1755 391.5499,-196.1108"/>
</g>
<!-- n6 -->
<g id="node4" class="node">
<title>n6</title>
<polygon fill="none" stroke="#000000" points="1339.5844,-341.5442 1339.5844,-356.4558 1292.4891,-367 1225.8862,-367 1178.7908,-356.4558 1178.7908,-341.5442 1225.8862,-331 1292.4891,-331 1339.5844,-341.5442"/>
<text text-anchor="middle" x="1259.1876" y="-345.3" font-family="Times,serif" font-size="14.00" fill="#000000">io_volumeOut</text>
</g>
<!-- n7 -->
<g id="node5" class="node">
<title>n7</title>
<polygon fill="none" stroke="#000000" points="261.0253,-87.5442 261.0253,-102.4558 210.3201,-113 138.6122,-113 87.907,-102.4558 87.907,-87.5442 138.6122,-77 210.3201,-77 261.0253,-87.5442"/>
<text text-anchor="middle" x="174.4661" y="-91.3" font-family="Times,serif" font-size="14.00" fill="#000000">io_writeEnable</text>
</g>
<!-- c18 -->
<g id="node9" class="node">
<title>c18</title>
<polygon fill="none" stroke="#000000" points="825.2,-251.5 825.2,-320.5 934.2,-320.5 934.2,-251.5 825.2,-251.5"/>
<text text-anchor="middle" x="838.7" y="-305.3" font-family="Times,serif" font-size="14.00" fill="#000000">A</text>
<polyline fill="none" stroke="#000000" points="825.2,-297.5 852.2,-297.5 "/>
<text text-anchor="middle" x="838.7" y="-282.3" font-family="Times,serif" font-size="14.00" fill="#000000">B</text>
<polyline fill="none" stroke="#000000" points="825.2,-274.5 852.2,-274.5 "/>
<text text-anchor="middle" x="838.7" y="-259.3" font-family="Times,serif" font-size="14.00" fill="#000000">S</text>
<polyline fill="none" stroke="#000000" points="852.2,-251.5 852.2,-320.5 "/>
<text text-anchor="middle" x="880.2" y="-289.8" font-family="Times,serif" font-size="14.00" fill="#000000">$589</text>
<text text-anchor="middle" x="880.2" y="-274.8" font-family="Times,serif" font-size="14.00" fill="#000000">$mux</text>
<polyline fill="none" stroke="#000000" points="908.2,-251.5 908.2,-320.5 "/>
<text text-anchor="middle" x="921.2" y="-282.3" font-family="Times,serif" font-size="14.00" fill="#000000">Y</text>
</g>
<!-- n7&#45;&gt;c18 -->
<g id="edge9" class="edge">
<title>n7:e&#45;&gt;c18:w</title>
<path fill="none" stroke="#7570b3" d="M261.4661,-95C467.8551,-95 556.8079,4.036 725.4105,-115 760.2675,-139.6096 737.2327,-168.8421 761.4105,-204 781.0728,-232.5918 785.4712,-257.6236 814.3964,-262.2399"/>
<polygon fill="#7570b3" stroke="#7570b3" points="814.4696,-265.7547 824.7,-263 814.9846,-258.7737 814.4696,-265.7547"/>
</g>
<!-- n8 -->
<g id="node6" class="node">
<title>n8</title>
<polygon fill="none" stroke="#000000" points="211.5376,-33.5442 211.5376,-48.4558 189.8216,-59 159.1107,-59 137.3947,-48.4558 137.3947,-33.5442 159.1107,-23 189.8216,-23 211.5376,-33.5442"/>
<text text-anchor="middle" x="174.4661" y="-37.3" font-family="Times,serif" font-size="14.00" fill="#000000">reset</text>
</g>
<!-- c19 -->
<g id="node12" class="node">
<title>c19</title>
<polygon fill="none" stroke="#000000" points="1033.9895,-165.5 1033.9895,-234.5 1142.9895,-234.5 1142.9895,-165.5 1033.9895,-165.5"/>
<text text-anchor="middle" x="1047.4895" y="-219.3" font-family="Times,serif" font-size="14.00" fill="#000000">A</text>
<polyline fill="none" stroke="#000000" points="1033.9895,-211.5 1060.9895,-211.5 "/>
<text text-anchor="middle" x="1047.4895" y="-196.3" font-family="Times,serif" font-size="14.00" fill="#000000">B</text>
<polyline fill="none" stroke="#000000" points="1033.9895,-188.5 1060.9895,-188.5 "/>
<text text-anchor="middle" x="1047.4895" y="-173.3" font-family="Times,serif" font-size="14.00" fill="#000000">S</text>
<polyline fill="none" stroke="#000000" points="1060.9895,-165.5 1060.9895,-234.5 "/>
<text text-anchor="middle" x="1088.9895" y="-203.8" font-family="Times,serif" font-size="14.00" fill="#000000">$592</text>
<text text-anchor="middle" x="1088.9895" y="-188.8" font-family="Times,serif" font-size="14.00" fill="#000000">$mux</text>
<polyline fill="none" stroke="#000000" points="1116.9895,-165.5 1116.9895,-234.5 "/>
<text text-anchor="middle" x="1129.9895" y="-196.3" font-family="Times,serif" font-size="14.00" fill="#000000">Y</text>
</g>
<!-- n8&#45;&gt;c19 -->
<g id="edge10" class="edge">
<title>n8:e&#45;&gt;c19:w</title>
<path fill="none" stroke="#1b9e77" d="M211.4661,-41C439.9706,-41 500.651,-13.7996 725.4105,-55 851.601,-78.1318 884.7578,-89.6865 997.9895,-150 1012.0559,-157.4926 1013.8641,-170.1891 1024.1388,-175.038"/>
<polygon fill="#1b9e77" stroke="#1b9e77" points="1023.4984,-178.4791 1033.9895,-177 1024.8659,-171.6139 1023.4984,-178.4791"/>
</g>
<!-- n9 -->
<g id="node7" class="node">
<title>n9</title>
<polygon fill="none" stroke="#000000" points="637.1714,-327 548.6925,-309 637.1714,-291 725.6502,-309 637.1714,-327"/>
<text text-anchor="middle" x="637.1714" y="-305.3" font-family="Times,serif" font-size="14.00" fill="#000000">volumeReg</text>
</g>
<!-- n9&#45;&gt;c18 -->
<g id="edge12" class="edge">
<title>n9:e&#45;&gt;c18:w</title>
<path fill="none" stroke="#e6ab02" stroke-width="3" d="M725.4105,-309C765.9192,-309 778.5386,-309 814.4718,-309"/>
<polygon fill="#e6ab02" stroke="#e6ab02" stroke-width="3" points="814.7,-312.5001 824.7,-309 814.6999,-305.5001 814.7,-312.5001"/>
</g>
<!-- x3 -->
<g id="node14" class="node">
<title>x3</title>
<path fill="none" stroke="#000000" d="M1103.4895,-367C1103.4895,-367 1073.4895,-367 1073.4895,-367 1067.4895,-367 1061.4895,-361 1061.4895,-355 1061.4895,-355 1061.4895,-343 1061.4895,-343 1061.4895,-337 1067.4895,-331 1073.4895,-331 1073.4895,-331 1103.4895,-331 1103.4895,-331 1109.4895,-331 1115.4895,-337 1115.4895,-343 1115.4895,-343 1115.4895,-355 1115.4895,-355 1115.4895,-361 1109.4895,-367 1103.4895,-367"/>
<text text-anchor="middle" x="1088.4895" y="-345.3" font-family="Times,serif" font-size="14.00" fill="#000000">BUF</text>
</g>
<!-- n9&#45;&gt;x3 -->
<g id="edge13" class="edge">
<title>n9:e&#45;&gt;x3:w</title>
<path fill="none" stroke="#e6ab02" stroke-width="3" d="M725.4105,-309C743.9337,-309 743.6909,-324.603 761.4105,-330 885.8771,-367.91 925.7561,-350.0104 1051.1135,-349.0401"/>
<polygon fill="#e6ab02" stroke="#e6ab02" stroke-width="3" points="1051.5031,-352.5388 1061.4895,-349 1051.476,-345.5388 1051.5031,-352.5388"/>
</g>
<!-- c13&#45;&gt;n9 -->
<g id="edge11" class="edge">
<title>c13:e&#45;&gt;n9:w</title>
<path fill="none" stroke="#e6ab02" stroke-width="3" d="M512.9323,-257C536.869,-257 525.7606,-294.7083 539.2933,-305.9029"/>
<polygon fill="#e6ab02" stroke="#e6ab02" stroke-width="3" points="538.341,-309.2731 548.9323,-309 540.4824,-302.6086 538.341,-309.2731"/>
</g>
<!-- c18&#45;&gt;c19 -->
<g id="edge3" class="edge">
<title>c18:e&#45;&gt;c19:w</title>
<path fill="none" stroke="#7570b3" stroke-width="3" d="M934.7,-286C983.2875,-286 982.1792,-231.5479 1023.7782,-223.8906"/>
<polygon fill="#7570b3" stroke="#7570b3" stroke-width="3" points="1024.3314,-227.3557 1033.9895,-223 1023.7232,-220.3822 1024.3314,-227.3557"/>
</g>
<!-- x0&#45;&gt;c18 -->
<g id="edge1" class="edge">
<title>x0:e&#45;&gt;c18:w</title>
<path fill="none" stroke="#e7298a" stroke-width="3" d="M696.3868,-142.9964C766.4127,-155.0731 742.4716,-273.0715 812.6071,-285.0246"/>
<polygon fill="none" stroke="#e7298a" stroke-width="3" points="696.1317,-142.9757 689.8263,-146.4746 684.1714,-142 690.4768,-138.5011 696.1317,-142.9757"/>
<polygon fill="none" stroke="#e7298a" stroke-width="3" points="812.7388,-285.0351 819.041,-281.5305 824.7,-286 818.3978,-289.5046 812.7388,-285.0351"/>
</g>
<!-- v1 -->
<g id="node11" class="node">
<title>v1</title>
<ellipse fill="none" stroke="#000000" cx="879.7" cy="-177" rx="118.0794" ry="18"/>
<text text-anchor="middle" x="879.7" y="-173.3" font-family="Times,serif" font-size="14.00" fill="#000000">16&#39;0000000000000000</text>
</g>
<!-- v1&#45;&gt;c19 -->
<g id="edge14" class="edge">
<title>v1:e&#45;&gt;c19:w</title>
<path fill="none" stroke="#a6761d" stroke-width="3" d="M997.7,-177C1012.7673,-177 1014.762,-191.3203 1024.3143,-197.3616"/>
<polygon fill="#a6761d" stroke="#a6761d" stroke-width="3" points="1023.4209,-200.7457 1033.9895,-200 1025.2626,-193.9923 1023.4209,-200.7457"/>
</g>
<!-- c19&#45;&gt;c13 -->
<g id="edge2" class="edge">
<title>c19:e&#45;&gt;c13:w</title>
<path fill="none" stroke="#e7298a" stroke-width="3" d="M1143.4895,-200C1143.4895,-200 1033.9895,-235 1033.9895,-235 802.4078,-234.6667 744.514,-233.8333 512.9323,-233.5 512.9323,-233.5 425.151,-241.3866 394.9762,-244.0976"/>
<polygon fill="#e7298a" stroke="#e7298a" stroke-width="3" points="394.5789,-240.6191 384.9323,-245 395.2054,-247.591 394.5789,-240.6191"/>
</g>
<!-- x2&#45;&gt;n3 -->
<g id="edge4" class="edge">
<title>x2:e&#45;&gt;n3:w</title>
<path fill="none" stroke="#e6ab02" stroke-width="3" d="M495.9323,-194C532.0511,-194 543.4729,-196.4852 575.154,-196.9317"/>
<polygon fill="#e6ab02" stroke="#e6ab02" stroke-width="3" points="575.1477,-200.4316 585.1714,-197 575.1955,-193.4318 575.1477,-200.4316"/>
</g>
<!-- x3&#45;&gt;n6 -->
<g id="edge8" class="edge">
<title>x3:e&#45;&gt;n6:w</title>
<path fill="none" stroke="#666666" stroke-width="3" d="M1115.4895,-349C1139.9634,-349 1148.5198,-349 1168.7656,-349"/>
<polygon fill="#666666" stroke="#666666" stroke-width="3" points="1168.9895,-352.5001 1178.9895,-349 1168.9895,-345.5001 1168.9895,-352.5001"/>
</g>
</g>
</svg>
