<?xml version="1.0" encoding="UTF-8" standalone="no"?>
<!DOCTYPE svg PUBLIC "-//W3C//DTD SVG 1.1//EN"
 "http://www.w3.org/Graphics/SVG/1.1/DTD/svg11.dtd">
<!-- Generated by graphviz version 2.40.1 (0)
 -->
<!-- Title: GlobalStateDecoder Pages: 1 -->
<svg width="2225pt" height="377pt"
 viewBox="0.00 0.00 2225.04 377.00" xmlns="http://www.w3.org/2000/svg" xmlns:xlink="http://www.w3.org/1999/xlink">
<g id="graph0" class="graph" transform="scale(1 1) rotate(0) translate(4 373)">
<title>GlobalStateDecoder</title>
<polygon fill="#ffffff" stroke="transparent" points="-4,4 -4,-373 2221.0372,-373 2221.0372,4 -4,4"/>
<text text-anchor="middle" x="1108.5186" y="-7.8" font-family="Times,serif" font-size="14.00" fill="#000000">GlobalStateDecoder</text>
<!-- n7 -->
<g id="node1" class="node">
<title>n7</title>
<polygon fill="none" stroke="#000000" points="1953.5424,-289 1886.3453,-271 1953.5424,-253 2020.7395,-271 1953.5424,-289"/>
<text text-anchor="middle" x="1953.5424" y="-267.3" font-family="Times,serif" font-size="14.00" fill="#000000">_GEN_0</text>
</g>
<!-- n8 -->
<g id="node2" class="node">
<title>n8</title>
<polygon fill="none" stroke="#000000" points="566.3242,-262 514.0401,-244 566.3242,-226 618.6084,-244 566.3242,-262"/>
<text text-anchor="middle" x="566.3242" y="-240.3" font-family="Times,serif" font-size="14.00" fill="#000000">_T_25</text>
</g>
<!-- c25 -->
<g id="node13" class="node">
<title>c25</title>
<polygon fill="none" stroke="#000000" points="718.5057,-169.5 718.5057,-238.5 827.5057,-238.5 827.5057,-169.5 718.5057,-169.5"/>
<text text-anchor="middle" x="732.0057" y="-223.3" font-family="Times,serif" font-size="14.00" fill="#000000">A</text>
<polyline fill="none" stroke="#000000" points="718.5057,-215.5 745.5057,-215.5 "/>
<text text-anchor="middle" x="732.0057" y="-200.3" font-family="Times,serif" font-size="14.00" fill="#000000">B</text>
<polyline fill="none" stroke="#000000" points="718.5057,-192.5 745.5057,-192.5 "/>
<text text-anchor="middle" x="732.0057" y="-177.3" font-family="Times,serif" font-size="14.00" fill="#000000">S</text>
<polyline fill="none" stroke="#000000" points="745.5057,-169.5 745.5057,-238.5 "/>
<text text-anchor="middle" x="773.5057" y="-207.8" font-family="Times,serif" font-size="14.00" fill="#000000">$589</text>
<text text-anchor="middle" x="773.5057" y="-192.8" font-family="Times,serif" font-size="14.00" fill="#000000">$mux</text>
<polyline fill="none" stroke="#000000" points="801.5057,-169.5 801.5057,-238.5 "/>
<text text-anchor="middle" x="814.5057" y="-200.3" font-family="Times,serif" font-size="14.00" fill="#000000">Y</text>
</g>
<!-- n8&#45;&gt;c25 -->
<g id="edge21" class="edge">
<title>n8:e&#45;&gt;c25:w</title>
<path fill="none" stroke="#1b9e77" stroke-width="3" d="M618.3242,-244C662.3315,-244 669.3458,-210.0059 707.5729,-204.6943"/>
<polygon fill="#1b9e77" stroke="#1b9e77" stroke-width="3" points="708.2602,-208.1564 718.0057,-204 707.7954,-201.1718 708.2602,-208.1564"/>
</g>
<!-- c26 -->
<g id="node14" class="node">
<title>c26</title>
<polygon fill="none" stroke="#000000" points="1651.444,-236.5 1651.444,-305.5 1760.444,-305.5 1760.444,-236.5 1651.444,-236.5"/>
<text text-anchor="middle" x="1664.944" y="-290.3" font-family="Times,serif" font-size="14.00" fill="#000000">A</text>
<polyline fill="none" stroke="#000000" points="1651.444,-282.5 1678.444,-282.5 "/>
<text text-anchor="middle" x="1664.944" y="-267.3" font-family="Times,serif" font-size="14.00" fill="#000000">B</text>
<polyline fill="none" stroke="#000000" points="1651.444,-259.5 1678.444,-259.5 "/>
<text text-anchor="middle" x="1664.944" y="-244.3" font-family="Times,serif" font-size="14.00" fill="#000000">S</text>
<polyline fill="none" stroke="#000000" points="1678.444,-236.5 1678.444,-305.5 "/>
<text text-anchor="middle" x="1706.444" y="-274.8" font-family="Times,serif" font-size="14.00" fill="#000000">$56</text>
<text text-anchor="middle" x="1706.444" y="-259.8" font-family="Times,serif" font-size="14.00" fill="#000000">$mux</text>
<polyline fill="none" stroke="#000000" points="1734.444,-236.5 1734.444,-305.5 "/>
<text text-anchor="middle" x="1747.444" y="-267.3" font-family="Times,serif" font-size="14.00" fill="#000000">Y</text>
</g>
<!-- n8&#45;&gt;c26 -->
<g id="edge22" class="edge">
<title>n8:e&#45;&gt;c26:w</title>
<path fill="none" stroke="#1b9e77" stroke-width="3" d="M618.3242,-244C634.5959,-244 638.4803,-246.9224 654.7162,-248 1093.5053,-277.1226 1206.6295,-271.094 1641.4399,-271.0011"/>
<polygon fill="#1b9e77" stroke="#1b9e77" stroke-width="3" points="1641.4444,-274.5012 1651.444,-271 1641.4436,-267.5012 1641.4444,-274.5012"/>
</g>
<!-- n9 -->
<g id="node3" class="node">
<title>n9</title>
<polygon fill="none" stroke="#000000" points="1003.5853,-369 927.5046,-351 1003.5853,-333 1079.666,-351 1003.5853,-369"/>
<text text-anchor="middle" x="1003.5853" y="-347.3" font-family="Times,serif" font-size="14.00" fill="#000000">_RAND_0</text>
</g>
<!-- n10 -->
<g id="node4" class="node">
<title>n10</title>
<polygon fill="none" stroke="#000000" points="1467.4596,-220 1378.9808,-202 1467.4596,-184 1555.9385,-202 1467.4596,-220"/>
<text text-anchor="middle" x="1467.4596" y="-198.3" font-family="Times,serif" font-size="14.00" fill="#000000">volumeReg</text>
</g>
<!-- n10&#45;&gt;c25 -->
<g id="edge5" class="edge">
<title>n10:e&#45;&gt;c25:w</title>
<path fill="none" stroke="#e7298a" stroke-width="3" d="M1556.4596,-202C1564.4596,-202 1562.0423,-214.2699 1556.4596,-220 1549.3921,-227.2541 837.6327,-238.868 827.5057,-239 827.5057,-239 755.2186,-231.0781 728.1109,-228.1074"/>
<polygon fill="#e7298a" stroke="#e7298a" stroke-width="3" points="728.3275,-224.6103 718.0057,-227 727.5649,-231.5686 728.3275,-224.6103"/>
</g>
<!-- n10&#45;&gt;c26 -->
<g id="edge6" class="edge">
<title>n10:e&#45;&gt;c26:w</title>
<path fill="none" stroke="#e7298a" stroke-width="3" d="M1556.4596,-202C1586.2843,-202 1593.9027,-213.3727 1615.444,-234 1634.922,-252.6517 1624.3039,-284.0752 1641.4203,-292.0931"/>
<polygon fill="#e7298a" stroke="#e7298a" stroke-width="3" points="1640.966,-295.5693 1651.444,-294 1642.2743,-288.6927 1640.966,-295.5693"/>
</g>
<!-- x3 -->
<g id="node17" class="node">
<title>x3</title>
<path fill="none" stroke="#000000" d="M1838.444,-220C1838.444,-220 1808.444,-220 1808.444,-220 1802.444,-220 1796.444,-214 1796.444,-208 1796.444,-208 1796.444,-196 1796.444,-196 1796.444,-190 1802.444,-184 1808.444,-184 1808.444,-184 1838.444,-184 1838.444,-184 1844.444,-184 1850.444,-190 1850.444,-196 1850.444,-196 1850.444,-208 1850.444,-208 1850.444,-214 1844.444,-220 1838.444,-220"/>
<text text-anchor="middle" x="1823.444" y="-198.3" font-family="Times,serif" font-size="14.00" fill="#000000">BUF</text>
</g>
<!-- n10&#45;&gt;x3 -->
<g id="edge7" class="edge">
<title>n10:e&#45;&gt;x3:w</title>
<path fill="none" stroke="#e7298a" stroke-width="3" d="M1556.4596,-202C1659.6821,-202 1687.9825,-202 1786.376,-202"/>
<polygon fill="#e7298a" stroke="#e7298a" stroke-width="3" points="1786.444,-205.5001 1796.444,-202 1786.4439,-198.5001 1786.444,-205.5001"/>
</g>
<!-- n11 -->
<g id="node5" class="node">
<title>n11</title>
<polygon fill="none" stroke="#000000" points="2217.2359,-194.5442 2217.2359,-209.4558 2170.1405,-220 2103.5376,-220 2056.4423,-209.4558 2056.4423,-194.5442 2103.5376,-184 2170.1405,-184 2217.2359,-194.5442"/>
<text text-anchor="middle" x="2136.8391" y="-198.3" font-family="Times,serif" font-size="14.00" fill="#000000">io_volumeOut</text>
</g>
<!-- n12 -->
<g id="node6" class="node">
<title>n12</title>
<polygon fill="none" stroke="#000000" points="261.0253,-295.5442 261.0253,-310.4558 210.3201,-321 138.6122,-321 87.907,-310.4558 87.907,-295.5442 138.6122,-285 210.3201,-285 261.0253,-295.5442"/>
<text text-anchor="middle" x="174.4661" y="-299.3" font-family="Times,serif" font-size="14.00" fill="#000000">io_writeEnable</text>
</g>
<!-- n12&#45;&gt;c26 -->
<g id="edge9" class="edge">
<title>n12:e&#45;&gt;c26:w</title>
<path fill="none" stroke="#e6ab02" d="M261.4661,-303C396.9615,-303 430.8288,-305 566.3242,-305 566.3242,-305 566.3242,-305 1003.5853,-305 1289.2475,-305 1360.7294,-249.3281 1641.3717,-248.0233"/>
<polygon fill="#e6ab02" stroke="#e6ab02" points="1641.4521,-251.5232 1651.444,-248 1641.4359,-244.5232 1641.4521,-251.5232"/>
</g>
<!-- x4 -->
<g id="node18" class="node">
<title>x4</title>
<path fill="none" stroke="#000000" d="M581.3242,-207C581.3242,-207 551.3242,-207 551.3242,-207 545.3242,-207 539.3242,-201 539.3242,-195 539.3242,-195 539.3242,-183 539.3242,-183 539.3242,-177 545.3242,-171 551.3242,-171 551.3242,-171 581.3242,-171 581.3242,-171 587.3242,-171 593.3242,-177 593.3242,-183 593.3242,-183 593.3242,-195 593.3242,-195 593.3242,-201 587.3242,-207 581.3242,-207"/>
<text text-anchor="middle" x="566.3242" y="-185.3" font-family="Times,serif" font-size="14.00" fill="#000000">BUF</text>
</g>
<!-- n12&#45;&gt;x4 -->
<g id="edge10" class="edge">
<title>n12:e&#45;&gt;x4:w</title>
<path fill="none" stroke="#e6ab02" d="M261.4661,-303C302.8599,-303 316.5122,-296.7368 348.9323,-271 371.814,-252.8353 360.5298,-232.0639 384.9323,-216 440.1622,-179.6427 466.8864,-187.98 529.0357,-188.9205"/>
<polygon fill="#e6ab02" stroke="#e6ab02" points="529.2975,-192.4226 539.3242,-189 529.3516,-185.4228 529.2975,-192.4226"/>
</g>
<!-- n13 -->
<g id="node7" class="node">
<title>n13</title>
<polygon fill="none" stroke="#000000" points="348.8984,-236.5442 348.8984,-251.4558 246.7184,-262 102.2139,-262 .0339,-251.4558 .0339,-236.5442 102.2139,-226 246.7184,-226 348.8984,-236.5442"/>
<text text-anchor="middle" x="174.4661" y="-240.3" font-family="Times,serif" font-size="14.00" fill="#000000">io_packetIn_globalUpdatePacket</text>
</g>
<!-- x1 -->
<g id="node15" class="node">
<title>x1</title>
<path fill="none" stroke="#000000" d="M396.9323,-226C396.9323,-226 465.9323,-226 465.9323,-226 471.9323,-226 477.9323,-232 477.9323,-238 477.9323,-238 477.9323,-250 477.9323,-250 477.9323,-256 471.9323,-262 465.9323,-262 465.9323,-262 396.9323,-262 396.9323,-262 390.9323,-262 384.9323,-256 384.9323,-250 384.9323,-250 384.9323,-238 384.9323,-238 384.9323,-232 390.9323,-226 396.9323,-226"/>
<text text-anchor="middle" x="431.4323" y="-240.3" font-family="Times,serif" font-size="14.00" fill="#000000">15:0 &#45; 15:0</text>
</g>
<!-- n13&#45;&gt;x1 -->
<g id="edge11" class="edge">
<title>n13:e&#45;&gt;x1:w</title>
<path fill="none" stroke="#66a61e" stroke-width="3" d="M348.9323,-244C360.9323,-244 366.1823,-244 374.8073,-244"/>
<polygon fill="#66a61e" stroke="#66a61e" stroke-width="3" points="374.9323,-247.5001 384.9323,-244 374.9322,-240.5001 374.9323,-247.5001"/>
</g>
<!-- n14 -->
<g id="node8" class="node">
<title>n14</title>
<polygon fill="none" stroke="#000000" points="211.5376,-33.5442 211.5376,-48.4558 189.8216,-59 159.1107,-59 137.3947,-48.4558 137.3947,-33.5442 159.1107,-23 189.8216,-23 211.5376,-33.5442"/>
<text text-anchor="middle" x="174.4661" y="-37.3" font-family="Times,serif" font-size="14.00" fill="#000000">reset</text>
</g>
<!-- x5 -->
<g id="node19" class="node">
<title>x5</title>
<path fill="none" stroke="#000000" d="M581.3242,-59C581.3242,-59 551.3242,-59 551.3242,-59 545.3242,-59 539.3242,-53 539.3242,-47 539.3242,-47 539.3242,-35 539.3242,-35 539.3242,-29 545.3242,-23 551.3242,-23 551.3242,-23 581.3242,-23 581.3242,-23 587.3242,-23 593.3242,-29 593.3242,-35 593.3242,-35 593.3242,-47 593.3242,-47 593.3242,-53 587.3242,-59 581.3242,-59"/>
<text text-anchor="middle" x="566.3242" y="-37.3" font-family="Times,serif" font-size="14.00" fill="#000000">BUF</text>
</g>
<!-- n14&#45;&gt;x5 -->
<g id="edge12" class="edge">
<title>n14:e&#45;&gt;x5:w</title>
<path fill="none" stroke="#d95f02" d="M211.4661,-41C353.7657,-41 391.8419,-41 529.256,-41"/>
<polygon fill="#d95f02" stroke="#d95f02" points="529.3243,-44.5001 539.3242,-41 529.3242,-37.5001 529.3243,-44.5001"/>
</g>
<!-- n15 -->
<g id="node9" class="node">
<title>n15</title>
<polygon fill="none" stroke="#000000" points="211.5376,-133.5442 211.5376,-148.4558 189.8216,-159 159.1107,-159 137.3947,-148.4558 137.3947,-133.5442 159.1107,-123 189.8216,-123 211.5376,-133.5442"/>
<text text-anchor="middle" x="174.4661" y="-137.3" font-family="Times,serif" font-size="14.00" fill="#000000">clock</text>
</g>
<!-- c19 -->
<g id="node10" class="node">
<title>c19</title>
<polygon fill="none" stroke="#000000" points="1155.4753,-111 1155.4753,-157 1283.4753,-157 1283.4753,-111 1155.4753,-111"/>
<text text-anchor="middle" x="1178.9753" y="-141.8" font-family="Times,serif" font-size="14.00" fill="#000000">CLK</text>
<polyline fill="none" stroke="#000000" points="1155.4753,-134 1202.4753,-134 "/>
<text text-anchor="middle" x="1178.9753" y="-118.8" font-family="Times,serif" font-size="14.00" fill="#000000">D</text>
<polyline fill="none" stroke="#000000" points="1202.4753,-111 1202.4753,-157 "/>
<text text-anchor="middle" x="1228.9753" y="-137.8" font-family="Times,serif" font-size="14.00" fill="#000000">$941</text>
<text text-anchor="middle" x="1228.9753" y="-122.8" font-family="Times,serif" font-size="14.00" fill="#000000">$dff</text>
<polyline fill="none" stroke="#000000" points="1255.4753,-111 1255.4753,-157 "/>
<text text-anchor="middle" x="1269.4753" y="-130.3" font-family="Times,serif" font-size="14.00" fill="#000000">Q</text>
</g>
<!-- n15&#45;&gt;c19 -->
<g id="edge13" class="edge">
<title>n15:e&#45;&gt;c19:w</title>
<path fill="none" stroke="#666666" d="M211.4661,-141C369.1809,-141 408.6095,-141 566.3242,-141 566.3242,-141 566.3242,-141 1003.5853,-141 1067.5667,-141 1086.0187,-145.4866 1145.1982,-145.9598"/>
<polygon fill="#666666" stroke="#666666" points="1145.4617,-149.4607 1155.4753,-146 1145.4891,-142.4608 1145.4617,-149.4607"/>
</g>
<!-- c19&#45;&gt;n10 -->
<g id="edge4" class="edge">
<title>c19:e&#45;&gt;n10:w</title>
<path fill="none" stroke="#e7298a" stroke-width="3" d="M1283.4753,-134C1331.7431,-134 1327.4858,-192.7737 1368.3672,-201.0387"/>
<polygon fill="#e7298a" stroke="#e7298a" stroke-width="3" points="1368.1728,-204.536 1378.4596,-202 1368.8366,-197.5675 1368.1728,-204.536"/>
</g>
<!-- v0 -->
<g id="node11" class="node">
<title>v0</title>
<ellipse fill="none" stroke="#000000" cx="773.0057" cy="-87" rx="118.0794" ry="18"/>
<text text-anchor="middle" x="773.0057" y="-83.3" font-family="Times,serif" font-size="14.00" fill="#000000">16&#39;0000000000000000</text>
</g>
<!-- c24 -->
<g id="node12" class="node">
<title>c24</title>
<polygon fill="none" stroke="#000000" points="949.0853,-43.5 949.0853,-112.5 1058.0853,-112.5 1058.0853,-43.5 949.0853,-43.5"/>
<text text-anchor="middle" x="962.5853" y="-97.3" font-family="Times,serif" font-size="14.00" fill="#000000">A</text>
<polyline fill="none" stroke="#000000" points="949.0853,-89.5 976.0853,-89.5 "/>
<text text-anchor="middle" x="962.5853" y="-74.3" font-family="Times,serif" font-size="14.00" fill="#000000">B</text>
<polyline fill="none" stroke="#000000" points="949.0853,-66.5 976.0853,-66.5 "/>
<text text-anchor="middle" x="962.5853" y="-51.3" font-family="Times,serif" font-size="14.00" fill="#000000">S</text>
<polyline fill="none" stroke="#000000" points="976.0853,-43.5 976.0853,-112.5 "/>
<text text-anchor="middle" x="1004.0853" y="-81.8" font-family="Times,serif" font-size="14.00" fill="#000000">$592</text>
<text text-anchor="middle" x="1004.0853" y="-66.8" font-family="Times,serif" font-size="14.00" fill="#000000">$mux</text>
<polyline fill="none" stroke="#000000" points="1032.0853,-43.5 1032.0853,-112.5 "/>
<text text-anchor="middle" x="1045.0853" y="-74.3" font-family="Times,serif" font-size="14.00" fill="#000000">Y</text>
</g>
<!-- v0&#45;&gt;c24 -->
<g id="edge23" class="edge">
<title>v0:e&#45;&gt;c24:w</title>
<path fill="none" stroke="#666666" stroke-width="3" d="M891.0057,-87C913.0626,-87 920.5254,-80.4736 938.2496,-78.536"/>
<polygon fill="#666666" stroke="#666666" stroke-width="3" points="938.78,-82.0133 948.5853,-78 938.4174,-75.0227 938.78,-82.0133"/>
</g>
<!-- n1 -->
<g id="node21" class="node">
<title>n1</title>
<ellipse fill="#000000" stroke="#000000" cx="1117.6753" cy="-78" rx="1.8" ry="1.8"/>
</g>
<!-- c24&#45;&gt;n1 -->
<g id="edge1" class="edge">
<title>c24:e&#45;&gt;n1:w</title>
<path fill="none" stroke="#e7298a" stroke-width="3" d="M1058.5853,-78C1080.268,-78 1088.1025,-78 1105.6741,-78"/>
<polygon fill="#e7298a" stroke="#e7298a" stroke-width="3" points="1105.8754,-81.5001 1115.8753,-78 1105.8753,-74.5001 1105.8754,-81.5001"/>
</g>
<!-- c25&#45;&gt;c24 -->
<g id="edge15" class="edge">
<title>c25:e&#45;&gt;c24:w</title>
<path fill="none" stroke="#1b9e77" stroke-width="3" d="M828.0057,-204C894.9077,-204 879.9399,-111.1953 938.5271,-101.7699"/>
<polygon fill="#1b9e77" stroke="#1b9e77" stroke-width="3" points="938.8816,-105.253 948.5853,-101 938.3473,-98.2735 938.8816,-105.253"/>
</g>
<!-- x2 -->
<g id="node16" class="node">
<title>x2</title>
<path fill="none" stroke="#000000" d="M1838.444,-289C1838.444,-289 1808.444,-289 1808.444,-289 1802.444,-289 1796.444,-283 1796.444,-277 1796.444,-277 1796.444,-265 1796.444,-265 1796.444,-259 1802.444,-253 1808.444,-253 1808.444,-253 1838.444,-253 1838.444,-253 1844.444,-253 1850.444,-259 1850.444,-265 1850.444,-265 1850.444,-277 1850.444,-277 1850.444,-283 1844.444,-289 1838.444,-289"/>
<text text-anchor="middle" x="1823.444" y="-267.3" font-family="Times,serif" font-size="14.00" fill="#000000">BUF</text>
</g>
<!-- c26&#45;&gt;x2 -->
<g id="edge18" class="edge">
<title>c26:e&#45;&gt;x2:w</title>
<path fill="none" stroke="#7570b3" stroke-width="3" d="M1760.444,-271C1772.444,-271 1777.694,-271 1786.319,-271"/>
<polygon fill="#7570b3" stroke="#7570b3" stroke-width="3" points="1786.444,-274.5001 1796.444,-271 1786.4439,-267.5001 1786.444,-274.5001"/>
</g>
<!-- x1&#45;&gt;n8 -->
<g id="edge20" class="edge">
<title>x1:e&#45;&gt;n8:w</title>
<path fill="none" stroke="#1b9e77" stroke-width="3" d="M477.9323,-244C490.0629,-244 495.3701,-244 504.089,-244"/>
<polygon fill="#1b9e77" stroke="#1b9e77" stroke-width="3" points="504.3243,-247.5001 514.3242,-244 504.3242,-240.5001 504.3243,-247.5001"/>
</g>
<!-- x2&#45;&gt;n7 -->
<g id="edge19" class="edge">
<title>x2:e&#45;&gt;n7:w</title>
<path fill="none" stroke="#e7298a" stroke-width="3" d="M1850.444,-271C1862.4768,-271 1867.7412,-271 1876.3897,-271"/>
<polygon fill="#e7298a" stroke="#e7298a" stroke-width="3" points="1876.5425,-274.5001 1886.5424,-271 1876.5424,-267.5001 1876.5425,-274.5001"/>
</g>
<!-- x3&#45;&gt;n11 -->
<g id="edge8" class="edge">
<title>x3:e&#45;&gt;n11:w</title>
<path fill="none" stroke="#7570b3" stroke-width="3" d="M1850.444,-202C1938.5967,-202 1963.153,-202 2046.4615,-202"/>
<polygon fill="#7570b3" stroke="#7570b3" stroke-width="3" points="2046.641,-205.5001 2056.6409,-202 2046.6409,-198.5001 2046.641,-205.5001"/>
</g>
<!-- x4&#45;&gt;c25 -->
<g id="edge16" class="edge">
<title>x4:e&#45;&gt;c25:w</title>
<path fill="none" stroke="#e6ab02" d="M593.3242,-189C645.2732,-189 660.5473,-181.998 707.7686,-181.0954"/>
<polygon fill="#e6ab02" stroke="#e6ab02" points="708.0388,-184.5931 718.0057,-181 707.9735,-177.5935 708.0388,-184.5931"/>
</g>
<!-- x5&#45;&gt;c24 -->
<g id="edge14" class="edge">
<title>x5:e&#45;&gt;c24:w</title>
<path fill="none" stroke="#7570b3" d="M593.3242,-41C747.9457,-41 788.8285,-54.4049 938.5628,-54.9809"/>
<polygon fill="#7570b3" stroke="#7570b3" points="938.5786,-58.4808 948.5853,-55 938.592,-51.4808 938.5786,-58.4808"/>
</g>
<!-- x6 -->
<g id="node20" class="node">
<title>x6</title>
<path fill="none" stroke="#000000" d="M1234.4753,-92C1234.4753,-92 1204.4753,-92 1204.4753,-92 1198.4753,-92 1192.4753,-86 1192.4753,-80 1192.4753,-80 1192.4753,-68 1192.4753,-68 1192.4753,-62 1198.4753,-56 1204.4753,-56 1204.4753,-56 1234.4753,-56 1234.4753,-56 1240.4753,-56 1246.4753,-62 1246.4753,-68 1246.4753,-68 1246.4753,-80 1246.4753,-80 1246.4753,-86 1240.4753,-92 1234.4753,-92"/>
<text text-anchor="middle" x="1219.4753" y="-70.3" font-family="Times,serif" font-size="14.00" fill="#000000">BUF</text>
</g>
<!-- n5 -->
<g id="node22" class="node">
<title>n5</title>
<polygon fill="none" stroke="#000000" points="1467.4596,-92 1319.491,-74 1467.4596,-56 1615.4283,-74 1467.4596,-92"/>
<text text-anchor="middle" x="1467.4596" y="-70.3" font-family="Times,serif" font-size="14.00" fill="#000000">$0\volumeReg[15:0]</text>
</g>
<!-- x6&#45;&gt;n5 -->
<g id="edge17" class="edge">
<title>x6:e&#45;&gt;n5:w</title>
<path fill="none" stroke="#a6761d" stroke-width="3" d="M1246.4753,-74C1275.2444,-74 1284.8809,-74 1309.3153,-74"/>
<polygon fill="#a6761d" stroke="#a6761d" stroke-width="3" points="1309.4754,-77.5001 1319.4753,-74 1309.4753,-70.5001 1309.4754,-77.5001"/>
</g>
<!-- n1&#45;&gt;c19 -->
<g id="edge2" class="edge">
<title>n1:e&#45;&gt;c19:w</title>
<path fill="none" stroke="#e7298a" stroke-width="3" d="M1119.4753,-78C1140.5969,-78 1133.906,-108.7468 1145.9016,-118.8356"/>
<polygon fill="#e7298a" stroke="#e7298a" stroke-width="3" points="1144.8821,-122.1848 1155.4753,-122 1147.079,-115.5385 1144.8821,-122.1848"/>
</g>
<!-- n1&#45;&gt;x6 -->
<g id="edge3" class="edge">
<title>n1:e&#45;&gt;x6:w</title>
<path fill="none" stroke="#e7298a" stroke-width="3" d="M1119.4753,-78C1148.2876,-78 1157.8525,-74.8549 1182.304,-74.1424"/>
<polygon fill="#e7298a" stroke="#e7298a" stroke-width="3" points="1182.5253,-77.6397 1192.4753,-74 1182.4273,-70.6404 1182.5253,-77.6397"/>
</g>
</g>
</svg>
