<?xml version="1.0" encoding="UTF-8" standalone="no"?>
<!DOCTYPE svg PUBLIC "-//W3C//DTD SVG 1.1//EN"
 "http://www.w3.org/Graphics/SVG/1.1/DTD/svg11.dtd">
<!-- Generated by graphviz version 2.40.1 (0)
 -->
<!-- Title: PWM Pages: 1 -->
<svg width="1585pt" height="478pt"
 viewBox="0.00 0.00 1584.86 478.00" xmlns="http://www.w3.org/2000/svg" xmlns:xlink="http://www.w3.org/1999/xlink">
<g id="graph0" class="graph" transform="scale(1 1) rotate(0) translate(4 474)">
<title>PWM</title>
<polygon fill="#ffffff" stroke="transparent" points="-4,4 -4,-474 1580.8565,-474 1580.8565,4 -4,4"/>
<text text-anchor="middle" x="788.4283" y="-7.8" font-family="Times,serif" font-size="14.00" fill="#000000">PWM</text>
<!-- n8 -->
<g id="node1" class="node">
<title>n8</title>
<polygon fill="none" stroke="#000000" points="612.4913,-362 560.2072,-344 612.4913,-326 664.7755,-344 612.4913,-362"/>
<text text-anchor="middle" x="612.4913" y="-340.3" font-family="Times,serif" font-size="14.00" fill="#000000">_T_14</text>
</g>
<!-- c26 -->
<g id="node15" class="node">
<title>c26</title>
<polygon fill="none" stroke="#000000" points="714.1355,-363.5 714.1355,-432.5 823.1355,-432.5 823.1355,-363.5 714.1355,-363.5"/>
<text text-anchor="middle" x="727.6355" y="-417.3" font-family="Times,serif" font-size="14.00" fill="#000000">A</text>
<polyline fill="none" stroke="#000000" points="714.1355,-409.5 741.1355,-409.5 "/>
<text text-anchor="middle" x="727.6355" y="-394.3" font-family="Times,serif" font-size="14.00" fill="#000000">B</text>
<polyline fill="none" stroke="#000000" points="714.1355,-386.5 741.1355,-386.5 "/>
<text text-anchor="middle" x="727.6355" y="-371.3" font-family="Times,serif" font-size="14.00" fill="#000000">S</text>
<polyline fill="none" stroke="#000000" points="741.1355,-363.5 741.1355,-432.5 "/>
<text text-anchor="middle" x="769.1355" y="-401.8" font-family="Times,serif" font-size="14.00" fill="#000000">$59</text>
<text text-anchor="middle" x="769.1355" y="-386.8" font-family="Times,serif" font-size="14.00" fill="#000000">$mux</text>
<polyline fill="none" stroke="#000000" points="797.1355,-363.5 797.1355,-432.5 "/>
<text text-anchor="middle" x="810.1355" y="-394.3" font-family="Times,serif" font-size="14.00" fill="#000000">Y</text>
</g>
<!-- n8&#45;&gt;c26 -->
<g id="edge20" class="edge">
<title>n8:e&#45;&gt;c26:w</title>
<path fill="none" stroke="#1b9e77" d="M664.4913,-344C686.6426,-344 688.2042,-366.4799 704.2429,-373.1536"/>
<polygon fill="#1b9e77" stroke="#1b9e77" points="703.6631,-376.6058 714.1355,-375 704.9474,-369.7246 703.6631,-376.6058"/>
</g>
<!-- n9 -->
<g id="node2" class="node">
<title>n9</title>
<polygon fill="none" stroke="#000000" points="612.4913,-213 560.2072,-195 612.4913,-177 664.7755,-195 612.4913,-213"/>
<text text-anchor="middle" x="612.4913" y="-191.3" font-family="Times,serif" font-size="14.00" fill="#000000">_T_13</text>
</g>
<!-- c25 -->
<g id="node12" class="node">
<title>c25</title>
<polygon fill="none" stroke="#000000" points="714.1355,-95.5 714.1355,-164.5 823.1355,-164.5 823.1355,-95.5 714.1355,-95.5"/>
<text text-anchor="middle" x="727.6355" y="-149.3" font-family="Times,serif" font-size="14.00" fill="#000000">A</text>
<polyline fill="none" stroke="#000000" points="714.1355,-141.5 741.1355,-141.5 "/>
<text text-anchor="middle" x="727.6355" y="-126.3" font-family="Times,serif" font-size="14.00" fill="#000000">B</text>
<polyline fill="none" stroke="#000000" points="714.1355,-118.5 741.1355,-118.5 "/>
<text text-anchor="middle" x="727.6355" y="-103.3" font-family="Times,serif" font-size="14.00" fill="#000000">S</text>
<polyline fill="none" stroke="#000000" points="741.1355,-95.5 741.1355,-164.5 "/>
<text text-anchor="middle" x="769.1355" y="-133.8" font-family="Times,serif" font-size="14.00" fill="#000000">$117</text>
<text text-anchor="middle" x="769.1355" y="-118.8" font-family="Times,serif" font-size="14.00" fill="#000000">$mux</text>
<polyline fill="none" stroke="#000000" points="797.1355,-95.5 797.1355,-164.5 "/>
<text text-anchor="middle" x="810.1355" y="-126.3" font-family="Times,serif" font-size="14.00" fill="#000000">Y</text>
</g>
<!-- n9&#45;&gt;c25 -->
<g id="edge22" class="edge">
<title>n9:e&#45;&gt;c25:w</title>
<path fill="none" stroke="#666666" stroke-width="3" d="M664.4913,-195C689.3281,-195 686.796,-163.9819 703.9353,-155.2581"/>
<polygon fill="#666666" stroke="#666666" stroke-width="3" points="705.1284,-158.5788 714.1355,-153 703.6154,-151.7443 705.1284,-158.5788"/>
</g>
<!-- n10 -->
<g id="node3" class="node">
<title>n10</title>
<polygon fill="none" stroke="#000000" points="612.4913,-159 560.2072,-141 612.4913,-123 664.7755,-141 612.4913,-159"/>
<text text-anchor="middle" x="612.4913" y="-137.3" font-family="Times,serif" font-size="14.00" fill="#000000">_T_12</text>
</g>
<!-- n11 -->
<g id="node4" class="node">
<title>n11</title>
<polygon fill="none" stroke="#000000" points="935.4256,-462 859.3449,-444 935.4256,-426 1011.5062,-444 935.4256,-462"/>
<text text-anchor="middle" x="935.4256" y="-440.3" font-family="Times,serif" font-size="14.00" fill="#000000">_RAND_0</text>
</g>
<!-- n12 -->
<g id="node5" class="node">
<title>n12</title>
<polygon fill="none" stroke="#000000" points="214.203,-256 149.1818,-238 214.203,-220 279.2242,-238 214.203,-256"/>
<text text-anchor="middle" x="214.203" y="-234.3" font-family="Times,serif" font-size="14.00" fill="#000000">counter</text>
</g>
<!-- c27 -->
<g id="node16" class="node">
<title>c27</title>
<polygon fill="none" stroke="#000000" points="319.8472,-321 319.8472,-367 416.8472,-367 416.8472,-321 319.8472,-321"/>
<text text-anchor="middle" x="333.3472" y="-351.8" font-family="Times,serif" font-size="14.00" fill="#000000">A</text>
<polyline fill="none" stroke="#000000" points="319.8472,-344 346.8472,-344 "/>
<text text-anchor="middle" x="333.3472" y="-328.8" font-family="Times,serif" font-size="14.00" fill="#000000">B</text>
<polyline fill="none" stroke="#000000" points="346.8472,-321 346.8472,-367 "/>
<text text-anchor="middle" x="368.8472" y="-347.8" font-family="Times,serif" font-size="14.00" fill="#000000">$58</text>
<text text-anchor="middle" x="368.8472" y="-332.8" font-family="Times,serif" font-size="14.00" fill="#000000">$gt</text>
<polyline fill="none" stroke="#000000" points="390.8472,-321 390.8472,-367 "/>
<text text-anchor="middle" x="403.8472" y="-340.3" font-family="Times,serif" font-size="14.00" fill="#000000">Y</text>
</g>
<!-- n12&#45;&gt;c27 -->
<g id="edge6" class="edge">
<title>n12:e&#45;&gt;c27:w</title>
<path fill="none" stroke="#7570b3" stroke-width="3" d="M279.203,-238C330.7042,-238 273.2626,-339.9896 309.4438,-354.3319"/>
<polygon fill="#7570b3" stroke="#7570b3" stroke-width="3" points="308.9047,-357.7903 319.3472,-356 310.0674,-350.8876 308.9047,-357.7903"/>
</g>
<!-- c28 -->
<g id="node18" class="node">
<title>c28</title>
<polygon fill="none" stroke="#000000" points="315.8472,-172 315.8472,-218 420.8472,-218 420.8472,-172 315.8472,-172"/>
<text text-anchor="middle" x="329.3472" y="-202.8" font-family="Times,serif" font-size="14.00" fill="#000000">A</text>
<polyline fill="none" stroke="#000000" points="315.8472,-195 342.8472,-195 "/>
<text text-anchor="middle" x="329.3472" y="-179.8" font-family="Times,serif" font-size="14.00" fill="#000000">B</text>
<polyline fill="none" stroke="#000000" points="342.8472,-172 342.8472,-218 "/>
<text text-anchor="middle" x="368.8472" y="-198.8" font-family="Times,serif" font-size="14.00" fill="#000000">$57</text>
<text text-anchor="middle" x="368.8472" y="-183.8" font-family="Times,serif" font-size="14.00" fill="#000000">$add</text>
<polyline fill="none" stroke="#000000" points="394.8472,-172 394.8472,-218 "/>
<text text-anchor="middle" x="407.8472" y="-191.3" font-family="Times,serif" font-size="14.00" fill="#000000">Y</text>
</g>
<!-- n12&#45;&gt;c28 -->
<g id="edge7" class="edge">
<title>n12:e&#45;&gt;c28:w</title>
<path fill="none" stroke="#7570b3" stroke-width="3" d="M279.203,-238C296.3689,-238 295.8231,-217.9268 306.0704,-210.0857"/>
<polygon fill="#7570b3" stroke="#7570b3" stroke-width="3" points="307.3643,-213.3476 315.8472,-207 305.2574,-206.6722 307.3643,-213.3476"/>
</g>
<!-- c29 -->
<g id="node20" class="node">
<title>c29</title>
<polygon fill="none" stroke="#000000" points="315.8472,-107 315.8472,-153 420.8472,-153 420.8472,-107 315.8472,-107"/>
<text text-anchor="middle" x="329.3472" y="-137.8" font-family="Times,serif" font-size="14.00" fill="#000000">A</text>
<polyline fill="none" stroke="#000000" points="315.8472,-130 342.8472,-130 "/>
<text text-anchor="middle" x="329.3472" y="-114.8" font-family="Times,serif" font-size="14.00" fill="#000000">B</text>
<polyline fill="none" stroke="#000000" points="342.8472,-107 342.8472,-153 "/>
<text text-anchor="middle" x="368.8472" y="-133.8" font-family="Times,serif" font-size="14.00" fill="#000000">$56</text>
<text text-anchor="middle" x="368.8472" y="-118.8" font-family="Times,serif" font-size="14.00" fill="#000000">$add</text>
<polyline fill="none" stroke="#000000" points="394.8472,-107 394.8472,-153 "/>
<text text-anchor="middle" x="407.8472" y="-126.3" font-family="Times,serif" font-size="14.00" fill="#000000">Y</text>
</g>
<!-- n12&#45;&gt;c29 -->
<g id="edge8" class="edge">
<title>n12:e&#45;&gt;c29:w</title>
<path fill="none" stroke="#7570b3" stroke-width="3" d="M279.203,-238C320.7692,-238 279.1956,-158.4751 305.8227,-144.1855"/>
<polygon fill="#7570b3" stroke="#7570b3" stroke-width="3" points="306.8222,-147.5498 315.8472,-142 305.3311,-140.7105 306.8222,-147.5498"/>
</g>
<!-- n13 -->
<g id="node6" class="node">
<title>n13</title>
<polygon fill="none" stroke="#000000" points="112.3391,-331.5442 112.3391,-346.4558 79.5001,-357 33.0587,-357 .2197,-346.4558 .2197,-331.5442 33.0587,-321 79.5001,-321 112.3391,-331.5442"/>
<text text-anchor="middle" x="56.2794" y="-335.3" font-family="Times,serif" font-size="14.00" fill="#000000">io_target</text>
</g>
<!-- n13&#45;&gt;c27 -->
<g id="edge9" class="edge">
<title>n13:e&#45;&gt;c27:w</title>
<path fill="none" stroke="#e6ab02" stroke-width="3" d="M112.2794,-339C200.855,-339 225.4196,-332.523 309.1194,-332.0297"/>
<polygon fill="#e6ab02" stroke="#e6ab02" stroke-width="3" points="309.3574,-335.5291 319.3472,-332 309.337,-328.5291 309.3574,-335.5291"/>
</g>
<!-- n14 -->
<g id="node7" class="node">
<title>n14</title>
<polygon fill="none" stroke="#000000" points="1576.6946,-390.5442 1576.6946,-405.4558 1548.7669,-416 1509.2712,-416 1481.3435,-405.4558 1481.3435,-390.5442 1509.2712,-380 1548.7669,-380 1576.6946,-390.5442"/>
<text text-anchor="middle" x="1529.019" y="-394.3" font-family="Times,serif" font-size="14.00" fill="#000000">io_high</text>
</g>
<!-- n15 -->
<g id="node8" class="node">
<title>n15</title>
<polygon fill="none" stroke="#000000" points="93.3508,-33.5442 93.3508,-48.4558 71.6349,-59 40.9239,-59 19.208,-48.4558 19.208,-33.5442 40.9239,-23 71.6349,-23 93.3508,-33.5442"/>
<text text-anchor="middle" x="56.2794" y="-37.3" font-family="Times,serif" font-size="14.00" fill="#000000">reset</text>
</g>
<!-- x9 -->
<g id="node25" class="node">
<title>x9</title>
<path fill="none" stroke="#000000" d="M383.3472,-59C383.3472,-59 353.3472,-59 353.3472,-59 347.3472,-59 341.3472,-53 341.3472,-47 341.3472,-47 341.3472,-35 341.3472,-35 341.3472,-29 347.3472,-23 353.3472,-23 353.3472,-23 383.3472,-23 383.3472,-23 389.3472,-23 395.3472,-29 395.3472,-35 395.3472,-35 395.3472,-47 395.3472,-47 395.3472,-53 389.3472,-59 383.3472,-59"/>
<text text-anchor="middle" x="368.3472" y="-37.3" font-family="Times,serif" font-size="14.00" fill="#000000">BUF</text>
</g>
<!-- n15&#45;&gt;x9 -->
<g id="edge11" class="edge">
<title>n15:e&#45;&gt;x9:w</title>
<path fill="none" stroke="#d95f02" d="M93.2794,-41C200.0863,-41 229.2914,-41 331.2482,-41"/>
<polygon fill="#d95f02" stroke="#d95f02" points="331.3472,-44.5001 341.3472,-41 331.3471,-37.5001 331.3472,-44.5001"/>
</g>
<!-- n16 -->
<g id="node9" class="node">
<title>n16</title>
<polygon fill="none" stroke="#000000" points="93.3508,-277.5442 93.3508,-292.4558 71.6349,-303 40.9239,-303 19.208,-292.4558 19.208,-277.5442 40.9239,-267 71.6349,-267 93.3508,-277.5442"/>
<text text-anchor="middle" x="56.2794" y="-281.3" font-family="Times,serif" font-size="14.00" fill="#000000">clock</text>
</g>
<!-- c20 -->
<g id="node10" class="node">
<title>c20</title>
<polygon fill="none" stroke="#000000" points="1047.7156,-224 1047.7156,-270 1175.7156,-270 1175.7156,-224 1047.7156,-224"/>
<text text-anchor="middle" x="1071.2156" y="-254.8" font-family="Times,serif" font-size="14.00" fill="#000000">CLK</text>
<polyline fill="none" stroke="#000000" points="1047.7156,-247 1094.7156,-247 "/>
<text text-anchor="middle" x="1071.2156" y="-231.8" font-family="Times,serif" font-size="14.00" fill="#000000">D</text>
<polyline fill="none" stroke="#000000" points="1094.7156,-224 1094.7156,-270 "/>
<text text-anchor="middle" x="1121.2156" y="-250.8" font-family="Times,serif" font-size="14.00" fill="#000000">$448</text>
<text text-anchor="middle" x="1121.2156" y="-235.8" font-family="Times,serif" font-size="14.00" fill="#000000">$dff</text>
<polyline fill="none" stroke="#000000" points="1147.7156,-224 1147.7156,-270 "/>
<text text-anchor="middle" x="1161.7156" y="-243.3" font-family="Times,serif" font-size="14.00" fill="#000000">Q</text>
</g>
<!-- n16&#45;&gt;c20 -->
<g id="edge12" class="edge">
<title>n16:e&#45;&gt;c20:w</title>
<path fill="none" stroke="#666666" d="M93.2794,-285C215.5317,-285 246.0948,-285 368.3472,-285 368.3472,-285 368.3472,-285 768.6355,-285 876.8501,-285 905.441,-291.3991 1011.7156,-271 1024.2673,-268.5907 1028.7839,-262.9417 1037.5752,-260.3467"/>
<polygon fill="#666666" stroke="#666666" points="1038.2634,-263.7861 1047.7156,-259 1037.3418,-256.847 1038.2634,-263.7861"/>
</g>
<!-- c20&#45;&gt;n12 -->
<g id="edge5" class="edge">
<title>c20:e&#45;&gt;n12:w</title>
<path fill="none" stroke="#7570b3" stroke-width="3" d="M1175.7156,-247C1175.7156,-247 1047.7156,-270.5 1047.7156,-270.5 923.3508,-265.2732 893.1101,-247 768.6355,-247 483.8472,-247 483.8472,-247 483.8472,-247 392.9218,-247 370.3665,-253.9995 279.4631,-256 250.5234,-256.6369 169.6714,-276.4684 149.203,-256 146.9049,-253.7019 145.1537,-250.3003 144.4207,-247.0711"/>
<polygon fill="#7570b3" stroke="#7570b3" stroke-width="3" points="147.6354,-248.4782 149.203,-238 141.4432,-245.2137 147.6354,-248.4782"/>
</g>
<!-- v0 -->
<g id="node11" class="node">
<title>v0</title>
<ellipse fill="none" stroke="#000000" cx="612.4913" cy="-87" rx="65.7887" ry="18"/>
<text text-anchor="middle" x="612.4913" y="-83.3" font-family="Times,serif" font-size="14.00" fill="#000000">8&#39;00000000</text>
</g>
<!-- v0&#45;&gt;c25 -->
<g id="edge23" class="edge">
<title>v0:e&#45;&gt;c25:w</title>
<path fill="none" stroke="#7570b3" stroke-width="3" d="M678.1355,-87C698.7762,-87 692.8262,-116.489 704.3263,-126.6259"/>
<polygon fill="#7570b3" stroke="#7570b3" stroke-width="3" points="703.5408,-130.0569 714.1355,-130 705.8178,-123.4376 703.5408,-130.0569"/>
</g>
<!-- n1 -->
<g id="node27" class="node">
<title>n1</title>
<ellipse fill="#000000" stroke="#000000" cx="935.4256" cy="-180" rx="1.8" ry="1.8"/>
</g>
<!-- c25&#45;&gt;n1 -->
<g id="edge1" class="edge">
<title>c25:e&#45;&gt;n1:w</title>
<path fill="none" stroke="#e7298a" stroke-width="3" d="M823.1355,-130C873.3813,-130 879.0281,-173.5799 923.3506,-179.3678"/>
<polygon fill="#e7298a" stroke="#e7298a" stroke-width="3" points="923.226,-182.8668 933.4256,-180 923.6644,-175.8805 923.226,-182.8668"/>
</g>
<!-- v1 -->
<g id="node13" class="node">
<title>v1</title>
<ellipse fill="none" stroke="#000000" cx="612.4913" cy="-398" rx="27" ry="18"/>
<text text-anchor="middle" x="612.4913" y="-394.3" font-family="Times,serif" font-size="14.00" fill="#000000">1&#39;0</text>
</g>
<!-- v1&#45;&gt;c26 -->
<g id="edge24" class="edge">
<title>v1:e&#45;&gt;c26:w</title>
<path fill="none" stroke="#7570b3" d="M639.4913,-398C669.038,-398 678.8484,-398 704.0777,-398"/>
<polygon fill="#7570b3" stroke="#7570b3" points="704.1355,-401.5001 714.1355,-398 704.1355,-394.5001 704.1355,-401.5001"/>
</g>
<!-- v2 -->
<g id="node14" class="node">
<title>v2</title>
<ellipse fill="none" stroke="#000000" cx="612.4913" cy="-452" rx="27" ry="18"/>
<text text-anchor="middle" x="612.4913" y="-448.3" font-family="Times,serif" font-size="14.00" fill="#000000">1&#39;1</text>
</g>
<!-- v2&#45;&gt;c26 -->
<g id="edge25" class="edge">
<title>v2:e&#45;&gt;c26:w</title>
<path fill="none" stroke="#d95f02" d="M639.4913,-452C671.7654,-452 677.3028,-426.9771 704.146,-421.8943"/>
<polygon fill="#d95f02" stroke="#d95f02" points="704.4875,-425.3779 714.1355,-421 703.8632,-418.4057 704.4875,-425.3779"/>
</g>
<!-- x8 -->
<g id="node24" class="node">
<title>x8</title>
<path fill="none" stroke="#000000" d="M1343.4486,-416C1343.4486,-416 1313.4486,-416 1313.4486,-416 1307.4486,-416 1301.4486,-410 1301.4486,-404 1301.4486,-404 1301.4486,-392 1301.4486,-392 1301.4486,-386 1307.4486,-380 1313.4486,-380 1313.4486,-380 1343.4486,-380 1343.4486,-380 1349.4486,-380 1355.4486,-386 1355.4486,-392 1355.4486,-392 1355.4486,-404 1355.4486,-404 1355.4486,-410 1349.4486,-416 1343.4486,-416"/>
<text text-anchor="middle" x="1328.4486" y="-394.3" font-family="Times,serif" font-size="14.00" fill="#000000">BUF</text>
</g>
<!-- c26&#45;&gt;x8 -->
<g id="edge15" class="edge">
<title>c26:e&#45;&gt;x8:w</title>
<path fill="none" stroke="#e6ab02" d="M823.1355,-398C1032.2937,-398 1087.1109,-398 1291.2952,-398"/>
<polygon fill="#e6ab02" stroke="#e6ab02" points="1291.4486,-401.5001 1301.4486,-398 1291.4485,-394.5001 1291.4486,-401.5001"/>
</g>
<!-- x7 -->
<g id="node23" class="node">
<title>x7</title>
<path fill="none" stroke="#000000" d="M498.8472,-362C498.8472,-362 468.8472,-362 468.8472,-362 462.8472,-362 456.8472,-356 456.8472,-350 456.8472,-350 456.8472,-338 456.8472,-338 456.8472,-332 462.8472,-326 468.8472,-326 468.8472,-326 498.8472,-326 498.8472,-326 504.8472,-326 510.8472,-332 510.8472,-338 510.8472,-338 510.8472,-350 510.8472,-350 510.8472,-356 504.8472,-362 498.8472,-362"/>
<text text-anchor="middle" x="483.8472" y="-340.3" font-family="Times,serif" font-size="14.00" fill="#000000">BUF</text>
</g>
<!-- c27&#45;&gt;x7 -->
<g id="edge16" class="edge">
<title>c27:e&#45;&gt;x7:w</title>
<path fill="none" stroke="#a6761d" d="M417.3472,-344C430.9253,-344 436.627,-344 446.6362,-344"/>
<polygon fill="#a6761d" stroke="#a6761d" points="446.8472,-347.5001 456.8472,-344 446.8471,-340.5001 446.8472,-347.5001"/>
</g>
<!-- v3 -->
<g id="node17" class="node">
<title>v3</title>
<ellipse fill="none" stroke="#000000" cx="214.203" cy="-183" rx="65.7887" ry="18"/>
<text text-anchor="middle" x="214.203" y="-179.3" font-family="Times,serif" font-size="14.00" fill="#000000">8&#39;00000001</text>
</g>
<!-- v3&#45;&gt;c28 -->
<g id="edge26" class="edge">
<title>v3:e&#45;&gt;c28:w</title>
<path fill="none" stroke="#a6761d" stroke-width="3" d="M279.8472,-183C291.8472,-183 297.0972,-183 305.7222,-183"/>
<polygon fill="#a6761d" stroke="#a6761d" stroke-width="3" points="305.8472,-186.5001 315.8472,-183 305.8471,-179.5001 305.8472,-186.5001"/>
</g>
<!-- x6 -->
<g id="node22" class="node">
<title>x6</title>
<path fill="none" stroke="#000000" d="M498.8472,-213C498.8472,-213 468.8472,-213 468.8472,-213 462.8472,-213 456.8472,-207 456.8472,-201 456.8472,-201 456.8472,-189 456.8472,-189 456.8472,-183 462.8472,-177 468.8472,-177 468.8472,-177 498.8472,-177 498.8472,-177 504.8472,-177 510.8472,-183 510.8472,-189 510.8472,-189 510.8472,-201 510.8472,-201 510.8472,-207 504.8472,-213 498.8472,-213"/>
<text text-anchor="middle" x="483.8472" y="-191.3" font-family="Times,serif" font-size="14.00" fill="#000000">BUF</text>
</g>
<!-- c28&#45;&gt;x6 -->
<g id="edge17" class="edge">
<title>c28:e&#45;&gt;x6:w</title>
<path fill="none" stroke="#7570b3" stroke-width="3" d="M420.8472,-195C432.8472,-195 438.0972,-195 446.7222,-195"/>
<polygon fill="#7570b3" stroke="#7570b3" stroke-width="3" points="446.8472,-198.5001 456.8472,-195 446.8471,-191.5001 446.8472,-198.5001"/>
</g>
<!-- v4 -->
<g id="node19" class="node">
<title>v4</title>
<ellipse fill="none" stroke="#000000" cx="214.203" cy="-118" rx="65.7887" ry="18"/>
<text text-anchor="middle" x="214.203" y="-114.3" font-family="Times,serif" font-size="14.00" fill="#000000">8&#39;00000001</text>
</g>
<!-- v4&#45;&gt;c29 -->
<g id="edge27" class="edge">
<title>v4:e&#45;&gt;c29:w</title>
<path fill="none" stroke="#a6761d" stroke-width="3" d="M279.8472,-118C291.8472,-118 297.0972,-118 305.7222,-118"/>
<polygon fill="#a6761d" stroke="#a6761d" stroke-width="3" points="305.8472,-121.5001 315.8472,-118 305.8471,-114.5001 305.8472,-121.5001"/>
</g>
<!-- x5 -->
<g id="node21" class="node">
<title>x5</title>
<path fill="none" stroke="#000000" d="M498.8472,-153C498.8472,-153 468.8472,-153 468.8472,-153 462.8472,-153 456.8472,-147 456.8472,-141 456.8472,-141 456.8472,-129 456.8472,-129 456.8472,-123 462.8472,-117 468.8472,-117 468.8472,-117 498.8472,-117 498.8472,-117 504.8472,-117 510.8472,-123 510.8472,-129 510.8472,-129 510.8472,-141 510.8472,-141 510.8472,-147 504.8472,-153 498.8472,-153"/>
<text text-anchor="middle" x="483.8472" y="-131.3" font-family="Times,serif" font-size="14.00" fill="#000000">BUF</text>
</g>
<!-- c29&#45;&gt;x5 -->
<g id="edge18" class="edge">
<title>c29:e&#45;&gt;x5:w</title>
<path fill="none" stroke="#e7298a" stroke-width="3" d="M420.8472,-130C432.9623,-130 438.0684,-132.8125 446.679,-134.2188"/>
<polygon fill="#e7298a" stroke="#e7298a" stroke-width="3" points="446.6084,-137.7236 456.8472,-135 447.1447,-130.7441 446.6084,-137.7236"/>
</g>
<!-- x5&#45;&gt;n10 -->
<g id="edge4" class="edge">
<title>x5:e&#45;&gt;n10:w</title>
<path fill="none" stroke="#e7298a" stroke-width="3" d="M510.8472,-135C529.2519,-135 535.9779,-139.1147 550.368,-140.5292"/>
<polygon fill="#e7298a" stroke="#e7298a" stroke-width="3" points="550.3395,-144.0316 560.4913,-141 550.6648,-137.0391 550.3395,-144.0316"/>
</g>
<!-- x6&#45;&gt;n9 -->
<g id="edge21" class="edge">
<title>x6:e&#45;&gt;n9:w</title>
<path fill="none" stroke="#666666" stroke-width="3" d="M510.8472,-195C529.119,-195 536.0423,-195 550.413,-195"/>
<polygon fill="#666666" stroke="#666666" stroke-width="3" points="550.4914,-198.5001 560.4913,-195 550.4913,-191.5001 550.4914,-198.5001"/>
</g>
<!-- x7&#45;&gt;n8 -->
<g id="edge19" class="edge">
<title>x7:e&#45;&gt;n8:w</title>
<path fill="none" stroke="#1b9e77" d="M510.8472,-344C529.119,-344 536.0423,-344 550.413,-344"/>
<polygon fill="#1b9e77" stroke="#1b9e77" points="550.4914,-347.5001 560.4913,-344 550.4913,-340.5001 550.4914,-347.5001"/>
</g>
<!-- x8&#45;&gt;n14 -->
<g id="edge10" class="edge">
<title>x8:e&#45;&gt;n14:w</title>
<path fill="none" stroke="#66a61e" d="M1355.4486,-398C1407.8373,-398 1423.3902,-398 1471.1745,-398"/>
<polygon fill="#66a61e" stroke="#66a61e" points="1471.1816,-401.5001 1481.1816,-398 1471.1815,-394.5001 1471.1816,-401.5001"/>
</g>
<!-- x9&#45;&gt;c25 -->
<g id="edge13" class="edge">
<title>x9:e&#45;&gt;c25:w</title>
<path fill="none" stroke="#7570b3" d="M395.3472,-41C521.3142,-41 567.1168,-.4807 678.1355,-60 697.5209,-70.3929 691.2659,-96.2534 704.062,-104.4591"/>
<polygon fill="#7570b3" stroke="#7570b3" points="703.5832,-107.9479 714.1355,-107 705.2952,-101.1605 703.5832,-107.9479"/>
</g>
<!-- x10 -->
<g id="node26" class="node">
<title>x10</title>
<path fill="none" stroke="#000000" d="M1126.7156,-198C1126.7156,-198 1096.7156,-198 1096.7156,-198 1090.7156,-198 1084.7156,-192 1084.7156,-186 1084.7156,-186 1084.7156,-174 1084.7156,-174 1084.7156,-168 1090.7156,-162 1096.7156,-162 1096.7156,-162 1126.7156,-162 1126.7156,-162 1132.7156,-162 1138.7156,-168 1138.7156,-174 1138.7156,-174 1138.7156,-186 1138.7156,-186 1138.7156,-192 1132.7156,-198 1126.7156,-198"/>
<text text-anchor="middle" x="1111.7156" y="-176.3" font-family="Times,serif" font-size="14.00" fill="#000000">BUF</text>
</g>
<!-- n3 -->
<g id="node28" class="node">
<title>n3</title>
<polygon fill="none" stroke="#000000" points="1328.4486,-198 1211.4822,-180 1328.4486,-162 1445.415,-180 1328.4486,-198"/>
<text text-anchor="middle" x="1328.4486" y="-176.3" font-family="Times,serif" font-size="14.00" fill="#000000">$0\counter[7:0]</text>
</g>
<!-- x10&#45;&gt;n3 -->
<g id="edge14" class="edge">
<title>x10:e&#45;&gt;n3:w</title>
<path fill="none" stroke="#1b9e77" stroke-width="3" d="M1138.7156,-180C1167.4847,-180 1177.1212,-180 1201.5556,-180"/>
<polygon fill="#1b9e77" stroke="#1b9e77" stroke-width="3" points="1201.7156,-183.5001 1211.7156,-180 1201.7156,-176.5001 1201.7156,-183.5001"/>
</g>
<!-- n1&#45;&gt;c20 -->
<g id="edge2" class="edge">
<title>n1:e&#45;&gt;c20:w</title>
<path fill="none" stroke="#e7298a" stroke-width="3" d="M937.4256,-180C988.5629,-180 992.6042,-227.9379 1037.4866,-234.3046"/>
<polygon fill="#e7298a" stroke="#e7298a" stroke-width="3" points="1037.5012,-237.8136 1047.7156,-235 1037.9761,-230.8297 1037.5012,-237.8136"/>
</g>
<!-- n1&#45;&gt;x10 -->
<g id="edge3" class="edge">
<title>n1:e&#45;&gt;x10:w</title>
<path fill="none" stroke="#e7298a" stroke-width="3" d="M937.4256,-180C999.3078,-180 1017.3165,-180 1074.4002,-180"/>
<polygon fill="#e7298a" stroke="#e7298a" stroke-width="3" points="1074.7156,-183.5001 1084.7156,-180 1074.7156,-176.5001 1074.7156,-183.5001"/>
</g>
</g>
</svg>
