<?xml version="1.0" encoding="UTF-8" standalone="no"?>
<!DOCTYPE svg PUBLIC "-//W3C//DTD SVG 1.1//EN"
 "http://www.w3.org/Graphics/SVG/1.1/DTD/svg11.dtd">
<!-- Generated by graphviz version 2.43.20190912.0211 (20190912.0211)
 -->
<!-- Title: PWM Pages: 1 -->
<svg width="1477pt" height="478pt"
 viewBox="0.00 0.00 1476.55 478.00" xmlns="http://www.w3.org/2000/svg" xmlns:xlink="http://www.w3.org/1999/xlink">
<g id="graph0" class="graph" transform="scale(1 1) rotate(0) translate(4 474)">
<title>PWM</title>
<polygon fill="white" stroke="transparent" points="-4,4 -4,-474 1472.55,-474 1472.55,4 -4,4"/>
<text text-anchor="middle" x="734.27" y="-7.8" font-family="Times,serif" font-size="14.00">PWM</text>
<!-- n8 -->
<g id="node1" class="node">
<title>n8</title>
<polygon fill="none" stroke="black" points="599.47,-362 547.19,-344 599.47,-326 651.76,-344 599.47,-362"/>
<text text-anchor="middle" x="599.47" y="-340.3" font-family="Times,serif" font-size="14.00">_T_14</text>
</g>
<!-- c26 -->
<g id="node15" class="node">
<title>c26</title>
<polygon fill="none" stroke="black" points="687.86,-363.5 687.86,-432.5 796.86,-432.5 796.86,-363.5 687.86,-363.5"/>
<text text-anchor="middle" x="701.36" y="-417.3" font-family="Times,serif" font-size="14.00">A</text>
<polyline fill="none" stroke="black" points="687.86,-409.5 714.86,-409.5 "/>
<text text-anchor="middle" x="701.36" y="-394.3" font-family="Times,serif" font-size="14.00">B</text>
<polyline fill="none" stroke="black" points="687.86,-386.5 714.86,-386.5 "/>
<text text-anchor="middle" x="701.36" y="-371.3" font-family="Times,serif" font-size="14.00">S</text>
<polyline fill="none" stroke="black" points="714.86,-363.5 714.86,-432.5 "/>
<text text-anchor="middle" x="742.86" y="-401.8" font-family="Times,serif" font-size="14.00">$216</text>
<text text-anchor="middle" x="742.86" y="-386.8" font-family="Times,serif" font-size="14.00">$mux</text>
<polyline fill="none" stroke="black" points="770.86,-363.5 770.86,-432.5 "/>
<text text-anchor="middle" x="783.86" y="-394.3" font-family="Times,serif" font-size="14.00">Y</text>
</g>
<!-- n8&#45;&gt;c26 -->
<g id="edge20" class="edge">
<title>n8:e&#45;&gt;c26:w</title>
<path fill="none" stroke="#1b9e77" d="M651.86,-344C668.85,-344 668.14,-364.07 678.21,-371.91"/>
<polygon fill="#1b9e77" stroke="#1b9e77" points="677.27,-375.29 687.86,-375 679.4,-368.62 677.27,-375.29"/>
</g>
<!-- n9 -->
<g id="node2" class="node">
<title>n9</title>
<polygon fill="none" stroke="black" points="599.47,-213 547.19,-195 599.47,-177 651.76,-195 599.47,-213"/>
<text text-anchor="middle" x="599.47" y="-191.3" font-family="Times,serif" font-size="14.00">_T_13</text>
</g>
<!-- c25 -->
<g id="node12" class="node">
<title>c25</title>
<polygon fill="none" stroke="black" points="687.86,-95.5 687.86,-164.5 796.86,-164.5 796.86,-95.5 687.86,-95.5"/>
<text text-anchor="middle" x="701.36" y="-149.3" font-family="Times,serif" font-size="14.00">A</text>
<polyline fill="none" stroke="black" points="687.86,-141.5 714.86,-141.5 "/>
<text text-anchor="middle" x="701.36" y="-126.3" font-family="Times,serif" font-size="14.00">B</text>
<polyline fill="none" stroke="black" points="687.86,-118.5 714.86,-118.5 "/>
<text text-anchor="middle" x="701.36" y="-103.3" font-family="Times,serif" font-size="14.00">S</text>
<polyline fill="none" stroke="black" points="714.86,-95.5 714.86,-164.5 "/>
<text text-anchor="middle" x="742.86" y="-133.8" font-family="Times,serif" font-size="14.00">$273</text>
<text text-anchor="middle" x="742.86" y="-118.8" font-family="Times,serif" font-size="14.00">$mux</text>
<polyline fill="none" stroke="black" points="770.86,-95.5 770.86,-164.5 "/>
<text text-anchor="middle" x="783.86" y="-126.3" font-family="Times,serif" font-size="14.00">Y</text>
</g>
<!-- n9&#45;&gt;c25 -->
<g id="edge22" class="edge">
<title>n9:e&#45;&gt;c25:w</title>
<path fill="none" stroke="#666666" stroke-width="3" d="M651.86,-195C672.22,-195 666.69,-166.2 678.15,-156.3"/>
<polygon fill="#666666" stroke="#666666" stroke-width="3" points="679.52,-159.53 687.86,-153 677.27,-152.9 679.52,-159.53"/>
</g>
<!-- n10 -->
<g id="node3" class="node">
<title>n10</title>
<polygon fill="none" stroke="black" points="599.47,-159 547.19,-141 599.47,-123 651.76,-141 599.47,-159"/>
<text text-anchor="middle" x="599.47" y="-137.3" font-family="Times,serif" font-size="14.00">_T_12</text>
</g>
<!-- n11 -->
<g id="node4" class="node">
<title>n11</title>
<polygon fill="none" stroke="black" points="1211.87,-462 1135.79,-444 1211.87,-426 1287.95,-444 1211.87,-462"/>
<text text-anchor="middle" x="1211.87" y="-440.3" font-family="Times,serif" font-size="14.00">_RAND_0</text>
</g>
<!-- n12 -->
<g id="node5" class="node">
<title>n12</title>
<polygon fill="none" stroke="black" points="213.82,-256 148.8,-238 213.82,-220 278.84,-238 213.82,-256"/>
<text text-anchor="middle" x="213.82" y="-234.3" font-family="Times,serif" font-size="14.00">counter</text>
</g>
<!-- c27 -->
<g id="node16" class="node">
<title>c27</title>
<polygon fill="none" stroke="black" points="315.08,-321 315.08,-367 421.08,-367 421.08,-321 315.08,-321"/>
<text text-anchor="middle" x="328.58" y="-351.8" font-family="Times,serif" font-size="14.00">A</text>
<polyline fill="none" stroke="black" points="315.08,-344 342.08,-344 "/>
<text text-anchor="middle" x="328.58" y="-328.8" font-family="Times,serif" font-size="14.00">B</text>
<polyline fill="none" stroke="black" points="342.08,-321 342.08,-367 "/>
<text text-anchor="middle" x="368.58" y="-347.8" font-family="Times,serif" font-size="14.00">$215</text>
<text text-anchor="middle" x="368.58" y="-332.8" font-family="Times,serif" font-size="14.00">$gt</text>
<polyline fill="none" stroke="black" points="395.08,-321 395.08,-367 "/>
<text text-anchor="middle" x="408.08" y="-340.3" font-family="Times,serif" font-size="14.00">Y</text>
</g>
<!-- n12&#45;&gt;c27 -->
<g id="edge6" class="edge">
<title>n12:e&#45;&gt;c27:w</title>
<path fill="none" stroke="#7570b3" stroke-width="3" d="M279.08,-238C329.84,-238 270.47,-339.13 304.89,-354.15"/>
<polygon fill="#7570b3" stroke="#7570b3" stroke-width="3" points="304.61,-357.65 315.08,-356 305.87,-350.77 304.61,-357.65"/>
</g>
<!-- c28 -->
<g id="node18" class="node">
<title>c28</title>
<polygon fill="none" stroke="black" points="315.08,-172 315.08,-218 421.08,-218 421.08,-172 315.08,-172"/>
<text text-anchor="middle" x="328.58" y="-202.8" font-family="Times,serif" font-size="14.00">A</text>
<polyline fill="none" stroke="black" points="315.08,-195 342.08,-195 "/>
<text text-anchor="middle" x="328.58" y="-179.8" font-family="Times,serif" font-size="14.00">B</text>
<polyline fill="none" stroke="black" points="342.08,-172 342.08,-218 "/>
<text text-anchor="middle" x="368.58" y="-198.8" font-family="Times,serif" font-size="14.00">$214</text>
<text text-anchor="middle" x="368.58" y="-183.8" font-family="Times,serif" font-size="14.00">$add</text>
<polyline fill="none" stroke="black" points="395.08,-172 395.08,-218 "/>
<text text-anchor="middle" x="408.08" y="-191.3" font-family="Times,serif" font-size="14.00">Y</text>
</g>
<!-- n12&#45;&gt;c28 -->
<g id="edge7" class="edge">
<title>n12:e&#45;&gt;c28:w</title>
<path fill="none" stroke="#7570b3" stroke-width="3" d="M279.08,-238C296.07,-238 295.35,-217.93 305.43,-210.09"/>
<polygon fill="#7570b3" stroke="#7570b3" stroke-width="3" points="306.62,-213.38 315.08,-207 304.49,-206.71 306.62,-213.38"/>
</g>
<!-- c29 -->
<g id="node20" class="node">
<title>c29</title>
<polygon fill="none" stroke="black" points="315.08,-107 315.08,-153 421.08,-153 421.08,-107 315.08,-107"/>
<text text-anchor="middle" x="328.58" y="-137.8" font-family="Times,serif" font-size="14.00">A</text>
<polyline fill="none" stroke="black" points="315.08,-130 342.08,-130 "/>
<text text-anchor="middle" x="328.58" y="-114.8" font-family="Times,serif" font-size="14.00">B</text>
<polyline fill="none" stroke="black" points="342.08,-107 342.08,-153 "/>
<text text-anchor="middle" x="368.58" y="-133.8" font-family="Times,serif" font-size="14.00">$213</text>
<text text-anchor="middle" x="368.58" y="-118.8" font-family="Times,serif" font-size="14.00">$add</text>
<polyline fill="none" stroke="black" points="395.08,-107 395.08,-153 "/>
<text text-anchor="middle" x="408.08" y="-126.3" font-family="Times,serif" font-size="14.00">Y</text>
</g>
<!-- n12&#45;&gt;c29 -->
<g id="edge8" class="edge">
<title>n12:e&#45;&gt;c29:w</title>
<path fill="none" stroke="#7570b3" stroke-width="3" d="M279.08,-238C320.55,-238 278.61,-158.48 305.09,-144.19"/>
<polygon fill="#7570b3" stroke="#7570b3" stroke-width="3" points="306.06,-147.56 315.08,-142 304.56,-140.72 306.06,-147.56"/>
</g>
<!-- n13 -->
<g id="node6" class="node">
<title>n13</title>
<polygon fill="none" stroke="black" points="112.34,-331.54 112.34,-346.46 79.5,-357 33.06,-357 0.22,-346.46 0.22,-331.54 33.06,-321 79.5,-321 112.34,-331.54"/>
<text text-anchor="middle" x="56.28" y="-335.3" font-family="Times,serif" font-size="14.00">io_target</text>
</g>
<!-- n13&#45;&gt;c27 -->
<g id="edge9" class="edge">
<title>n13:e&#45;&gt;c27:w</title>
<path fill="none" stroke="#e6ab02" stroke-width="3" d="M112.56,-339C199.19,-339 223.21,-332.52 305.08,-332.03"/>
<polygon fill="#e6ab02" stroke="#e6ab02" stroke-width="3" points="305.09,-335.53 315.08,-332 305.07,-328.53 305.09,-335.53"/>
</g>
<!-- n14 -->
<g id="node7" class="node">
<title>n14</title>
<polygon fill="none" stroke="black" points="1468.39,-390.54 1468.39,-405.46 1440.46,-416 1400.96,-416 1373.04,-405.46 1373.04,-390.54 1400.96,-380 1440.46,-380 1468.39,-390.54"/>
<text text-anchor="middle" x="1420.71" y="-394.3" font-family="Times,serif" font-size="14.00">io_high</text>
</g>
<!-- n15 -->
<g id="node8" class="node">
<title>n15</title>
<polygon fill="none" stroke="black" points="93.35,-33.54 93.35,-48.46 71.63,-59 40.92,-59 19.21,-48.46 19.21,-33.54 40.92,-23 71.63,-23 93.35,-33.54"/>
<text text-anchor="middle" x="56.28" y="-37.3" font-family="Times,serif" font-size="14.00">reset</text>
</g>
<!-- x9 -->
<g id="node25" class="node">
<title>x9</title>
<path fill="none" stroke="black" d="M383.08,-59C383.08,-59 353.08,-59 353.08,-59 347.08,-59 341.08,-53 341.08,-47 341.08,-47 341.08,-35 341.08,-35 341.08,-29 347.08,-23 353.08,-23 353.08,-23 383.08,-23 383.08,-23 389.08,-23 395.08,-29 395.08,-35 395.08,-35 395.08,-47 395.08,-47 395.08,-53 389.08,-59 383.08,-59"/>
<text text-anchor="middle" x="368.08" y="-37.3" font-family="Times,serif" font-size="14.00">BUF</text>
</g>
<!-- n15&#45;&gt;x9 -->
<g id="edge11" class="edge">
<title>n15:e&#45;&gt;x9:w</title>
<path fill="none" stroke="#d95f02" d="M94.28,-41C200.11,-41 229.05,-41 330.07,-41"/>
<polygon fill="#d95f02" stroke="#d95f02" points="330.08,-44.5 340.08,-41 330.08,-37.5 330.08,-44.5"/>
</g>
<!-- n16 -->
<g id="node9" class="node">
<title>n16</title>
<polygon fill="none" stroke="black" points="93.35,-277.54 93.35,-292.46 71.63,-303 40.92,-303 19.21,-292.46 19.21,-277.54 40.92,-267 71.63,-267 93.35,-277.54"/>
<text text-anchor="middle" x="56.28" y="-281.3" font-family="Times,serif" font-size="14.00">clock</text>
</g>
<!-- c20 -->
<g id="node10" class="node">
<title>c20</title>
<polygon fill="none" stroke="black" points="922.86,-224 922.86,-270 1050.86,-270 1050.86,-224 922.86,-224"/>
<text text-anchor="middle" x="946.36" y="-254.8" font-family="Times,serif" font-size="14.00">CLK</text>
<polyline fill="none" stroke="black" points="922.86,-247 969.86,-247 "/>
<text text-anchor="middle" x="946.36" y="-231.8" font-family="Times,serif" font-size="14.00">D</text>
<polyline fill="none" stroke="black" points="969.86,-224 969.86,-270 "/>
<text text-anchor="middle" x="996.36" y="-250.8" font-family="Times,serif" font-size="14.00">$706</text>
<text text-anchor="middle" x="996.36" y="-235.8" font-family="Times,serif" font-size="14.00">$dff</text>
<polyline fill="none" stroke="black" points="1022.86,-224 1022.86,-270 "/>
<text text-anchor="middle" x="1036.86" y="-243.3" font-family="Times,serif" font-size="14.00">Q</text>
</g>
<!-- n16&#45;&gt;c20 -->
<g id="edge12" class="edge">
<title>n16:e&#45;&gt;c20:w</title>
<path fill="none" stroke="#666666" d="M94.28,-285C215.52,-285 245.83,-285 367.08,-285 367.08,-285 367.08,-285 743.36,-285 807.44,-285 824.18,-284.33 886.86,-271 899.36,-268.34 903.91,-262.82 912.71,-260.3"/>
<polygon fill="#666666" stroke="#666666" points="913.39,-263.74 922.86,-259 912.5,-256.8 913.39,-263.74"/>
</g>
<!-- c20&#45;&gt;n12 -->
<g id="edge5" class="edge">
<title>c20:e&#45;&gt;n12:w</title>
<path fill="none" stroke="#7570b3" stroke-width="3" d="M1051.86,-247C1062.32,-247 1058.41,-263.27 1050.86,-270.5 1009.79,-309.86 979.63,-274.2 922.86,-270.5 842.57,-265.27 823.82,-247 743.36,-247 483.08,-247 483.08,-247 483.08,-247 392.32,-247 369.81,-254 279.08,-256 250.14,-256.64 169.85,-275.89 148.82,-256 146.45,-253.76 144.52,-250.37 143.6,-247.14"/>
<polygon fill="#7570b3" stroke="#7570b3" stroke-width="3" points="146.81,-248.55 147.82,-238 140.45,-245.61 146.81,-248.55"/>
</g>
<!-- v0 -->
<g id="node11" class="node">
<title>v0</title>
<ellipse fill="none" stroke="black" cx="599.47" cy="-87" rx="27" ry="18"/>
<text text-anchor="middle" x="599.47" y="-83.3" font-family="Times,serif" font-size="14.00">0</text>
</g>
<!-- v0&#45;&gt;c25 -->
<g id="edge23" class="edge">
<title>v0:e&#45;&gt;c25:w</title>
<path fill="none" stroke="#7570b3" stroke-width="3" d="M627.47,-87C656.56,-87 655.68,-120.51 677.74,-128.37"/>
<polygon fill="#7570b3" stroke="#7570b3" stroke-width="3" points="677.43,-131.86 687.86,-130 678.55,-124.95 677.43,-131.86"/>
</g>
<!-- n1 -->
<g id="node27" class="node">
<title>n1</title>
<ellipse fill="black" stroke="black" cx="859.86" cy="-180" rx="1.8" ry="1.8"/>
</g>
<!-- c25&#45;&gt;n1 -->
<g id="edge1" class="edge">
<title>c25:e&#45;&gt;n1:w</title>
<path fill="none" stroke="#e7298a" stroke-width="3" d="M796.86,-130C827.78,-130 823.68,-169.66 846.94,-178.34"/>
<polygon fill="#e7298a" stroke="#e7298a" stroke-width="3" points="846.42,-181.8 856.86,-180 847.58,-174.89 846.42,-181.8"/>
</g>
<!-- v1 -->
<g id="node13" class="node">
<title>v1</title>
<ellipse fill="none" stroke="black" cx="599.47" cy="-398" rx="27" ry="18"/>
<text text-anchor="middle" x="599.47" y="-394.3" font-family="Times,serif" font-size="14.00">1&#39;0</text>
</g>
<!-- v1&#45;&gt;c26 -->
<g id="edge24" class="edge">
<title>v1:e&#45;&gt;c26:w</title>
<path fill="none" stroke="#7570b3" d="M627.47,-398C650.54,-398 658.74,-398 677.62,-398"/>
<polygon fill="#7570b3" stroke="#7570b3" points="677.86,-401.5 687.86,-398 677.86,-394.5 677.86,-401.5"/>
</g>
<!-- v2 -->
<g id="node14" class="node">
<title>v2</title>
<ellipse fill="none" stroke="black" cx="599.47" cy="-452" rx="27" ry="18"/>
<text text-anchor="middle" x="599.47" y="-448.3" font-family="Times,serif" font-size="14.00">1&#39;1</text>
</g>
<!-- v2&#45;&gt;c26 -->
<g id="edge25" class="edge">
<title>v2:e&#45;&gt;c26:w</title>
<path fill="none" stroke="#d95f02" d="M627.47,-452C653.87,-452 657.21,-428.27 677.84,-422.33"/>
<polygon fill="#d95f02" stroke="#d95f02" points="678.41,-425.79 687.86,-421 677.49,-418.85 678.41,-425.79"/>
</g>
<!-- x8 -->
<g id="node24" class="node">
<title>x8</title>
<path fill="none" stroke="black" d="M874.86,-416C874.86,-416 844.86,-416 844.86,-416 838.86,-416 832.86,-410 832.86,-404 832.86,-404 832.86,-392 832.86,-392 832.86,-386 838.86,-380 844.86,-380 844.86,-380 874.86,-380 874.86,-380 880.86,-380 886.86,-386 886.86,-392 886.86,-392 886.86,-404 886.86,-404 886.86,-410 880.86,-416 874.86,-416"/>
<text text-anchor="middle" x="859.86" y="-394.3" font-family="Times,serif" font-size="14.00">BUF</text>
</g>
<!-- c26&#45;&gt;x8 -->
<g id="edge15" class="edge">
<title>c26:e&#45;&gt;x8:w</title>
<path fill="none" stroke="#e6ab02" d="M796.86,-398C808.86,-398 814.11,-398 822.74,-398"/>
<polygon fill="#e6ab02" stroke="#e6ab02" points="822.86,-401.5 832.86,-398 822.86,-394.5 822.86,-401.5"/>
</g>
<!-- x7 -->
<g id="node23" class="node">
<title>x7</title>
<path fill="none" stroke="black" d="M499.08,-362C499.08,-362 469.08,-362 469.08,-362 463.08,-362 457.08,-356 457.08,-350 457.08,-350 457.08,-338 457.08,-338 457.08,-332 463.08,-326 469.08,-326 469.08,-326 499.08,-326 499.08,-326 505.08,-326 511.08,-332 511.08,-338 511.08,-338 511.08,-350 511.08,-350 511.08,-356 505.08,-362 499.08,-362"/>
<text text-anchor="middle" x="484.08" y="-340.3" font-family="Times,serif" font-size="14.00">BUF</text>
</g>
<!-- c27&#45;&gt;x7 -->
<g id="edge16" class="edge">
<title>c27:e&#45;&gt;x7:w</title>
<path fill="none" stroke="#a6761d" d="M421.08,-344C433.08,-344 438.33,-344 446.95,-344"/>
<polygon fill="#a6761d" stroke="#a6761d" points="447.08,-347.5 457.08,-344 447.08,-340.5 447.08,-347.5"/>
</g>
<!-- v3 -->
<g id="node17" class="node">
<title>v3</title>
<ellipse fill="none" stroke="black" cx="213.82" cy="-183" rx="63.89" ry="18"/>
<text text-anchor="middle" x="213.82" y="-179.3" font-family="Times,serif" font-size="14.00">808464432</text>
</g>
<!-- v3&#45;&gt;c28 -->
<g id="edge26" class="edge">
<title>v3:e&#45;&gt;c28:w</title>
<path fill="none" stroke="#a6761d" stroke-width="3" d="M278.82,-183C290.91,-183 296.19,-183 304.88,-183"/>
<polygon fill="#a6761d" stroke="#a6761d" stroke-width="3" points="305.08,-186.5 315.08,-183 305.08,-179.5 305.08,-186.5"/>
</g>
<!-- x6 -->
<g id="node22" class="node">
<title>x6</title>
<path fill="none" stroke="black" d="M499.08,-213C499.08,-213 469.08,-213 469.08,-213 463.08,-213 457.08,-207 457.08,-201 457.08,-201 457.08,-189 457.08,-189 457.08,-183 463.08,-177 469.08,-177 469.08,-177 499.08,-177 499.08,-177 505.08,-177 511.08,-183 511.08,-189 511.08,-189 511.08,-201 511.08,-201 511.08,-207 505.08,-213 499.08,-213"/>
<text text-anchor="middle" x="484.08" y="-191.3" font-family="Times,serif" font-size="14.00">BUF</text>
</g>
<!-- c28&#45;&gt;x6 -->
<g id="edge17" class="edge">
<title>c28:e&#45;&gt;x6:w</title>
<path fill="none" stroke="#7570b3" stroke-width="3" d="M421.08,-195C433.08,-195 438.33,-195 446.95,-195"/>
<polygon fill="#7570b3" stroke="#7570b3" stroke-width="3" points="447.08,-198.5 457.08,-195 447.08,-191.5 447.08,-198.5"/>
</g>
<!-- v4 -->
<g id="node19" class="node">
<title>v4</title>
<ellipse fill="none" stroke="black" cx="213.82" cy="-118" rx="63.89" ry="18"/>
<text text-anchor="middle" x="213.82" y="-114.3" font-family="Times,serif" font-size="14.00">808464432</text>
</g>
<!-- v4&#45;&gt;c29 -->
<g id="edge27" class="edge">
<title>v4:e&#45;&gt;c29:w</title>
<path fill="none" stroke="#a6761d" stroke-width="3" d="M278.82,-118C290.91,-118 296.19,-118 304.88,-118"/>
<polygon fill="#a6761d" stroke="#a6761d" stroke-width="3" points="305.08,-121.5 315.08,-118 305.08,-114.5 305.08,-121.5"/>
</g>
<!-- x5 -->
<g id="node21" class="node">
<title>x5</title>
<path fill="none" stroke="black" d="M499.08,-153C499.08,-153 469.08,-153 469.08,-153 463.08,-153 457.08,-147 457.08,-141 457.08,-141 457.08,-129 457.08,-129 457.08,-123 463.08,-117 469.08,-117 469.08,-117 499.08,-117 499.08,-117 505.08,-117 511.08,-123 511.08,-129 511.08,-129 511.08,-141 511.08,-141 511.08,-147 505.08,-153 499.08,-153"/>
<text text-anchor="middle" x="484.08" y="-131.3" font-family="Times,serif" font-size="14.00">BUF</text>
</g>
<!-- c29&#45;&gt;x5 -->
<g id="edge18" class="edge">
<title>c29:e&#45;&gt;x5:w</title>
<path fill="none" stroke="#e7298a" stroke-width="3" d="M421.08,-130C433.19,-130 438.3,-132.81 446.91,-134.22"/>
<polygon fill="#e7298a" stroke="#e7298a" stroke-width="3" points="446.84,-137.72 457.08,-135 447.38,-130.74 446.84,-137.72"/>
</g>
<!-- x5&#45;&gt;n10 -->
<g id="edge4" class="edge">
<title>x5:e&#45;&gt;n10:w</title>
<path fill="none" stroke="#e7298a" stroke-width="3" d="M511.08,-135C523.24,-135 528.29,-138.38 536.89,-140.06"/>
<polygon fill="#e7298a" stroke="#e7298a" stroke-width="3" points="536.8,-143.57 547.08,-141 537.44,-136.6 536.8,-143.57"/>
</g>
<!-- x6&#45;&gt;n9 -->
<g id="edge21" class="edge">
<title>x6:e&#45;&gt;n9:w</title>
<path fill="none" stroke="#666666" stroke-width="3" d="M511.08,-195C523.08,-195 528.33,-195 536.95,-195"/>
<polygon fill="#666666" stroke="#666666" stroke-width="3" points="537.08,-198.5 547.08,-195 537.08,-191.5 537.08,-198.5"/>
</g>
<!-- x7&#45;&gt;n8 -->
<g id="edge19" class="edge">
<title>x7:e&#45;&gt;n8:w</title>
<path fill="none" stroke="#1b9e77" d="M511.08,-344C523.08,-344 528.33,-344 536.95,-344"/>
<polygon fill="#1b9e77" stroke="#1b9e77" points="537.08,-347.5 547.08,-344 537.08,-340.5 537.08,-347.5"/>
</g>
<!-- x8&#45;&gt;n14 -->
<g id="edge10" class="edge">
<title>x8:e&#45;&gt;n14:w</title>
<path fill="none" stroke="#66a61e" d="M886.86,-398C1099.49,-398 1155.14,-398 1362.87,-398"/>
<polygon fill="#66a61e" stroke="#66a61e" points="1362.87,-401.5 1372.87,-398 1362.87,-394.5 1362.87,-401.5"/>
</g>
<!-- x9&#45;&gt;c25 -->
<g id="edge13" class="edge">
<title>x9:e&#45;&gt;c25:w</title>
<path fill="none" stroke="#7570b3" d="M396.08,-41C510.07,-41 551.59,-5.78 651.86,-60 671.21,-70.46 664.98,-96.28 677.79,-104.46"/>
<polygon fill="#7570b3" stroke="#7570b3" points="677.31,-107.95 687.86,-107 679.02,-101.17 677.31,-107.95"/>
</g>
<!-- x10 -->
<g id="node26" class="node">
<title>x10</title>
<path fill="none" stroke="black" d="M1001.86,-198C1001.86,-198 971.86,-198 971.86,-198 965.86,-198 959.86,-192 959.86,-186 959.86,-186 959.86,-174 959.86,-174 959.86,-168 965.86,-162 971.86,-162 971.86,-162 1001.86,-162 1001.86,-162 1007.86,-162 1013.86,-168 1013.86,-174 1013.86,-174 1013.86,-186 1013.86,-186 1013.86,-192 1007.86,-198 1001.86,-198"/>
<text text-anchor="middle" x="986.86" y="-176.3" font-family="Times,serif" font-size="14.00">BUF</text>
</g>
<!-- n3 -->
<g id="node28" class="node">
<title>n3</title>
<polygon fill="none" stroke="black" points="1211.87,-198 1086.86,-180 1211.87,-162 1336.88,-180 1211.87,-198"/>
<text text-anchor="middle" x="1211.87" y="-176.3" font-family="Times,serif" font-size="14.00">$0\counter[31:0]</text>
</g>
<!-- x10&#45;&gt;n3 -->
<g id="edge14" class="edge">
<title>x10:e&#45;&gt;n3:w</title>
<path fill="none" stroke="#1b9e77" stroke-width="3" d="M1014.86,-180C1043.24,-180 1052.74,-180 1076.84,-180"/>
<polygon fill="#1b9e77" stroke="#1b9e77" stroke-width="3" points="1076.86,-183.5 1086.86,-180 1076.86,-176.5 1076.86,-183.5"/>
</g>
<!-- n1&#45;&gt;c20 -->
<g id="edge2" class="edge">
<title>n1:e&#45;&gt;c20:w</title>
<path fill="none" stroke="#e7298a" stroke-width="3" d="M862.86,-180C895.22,-180 888.75,-224.01 912.92,-233.29"/>
<polygon fill="#e7298a" stroke="#e7298a" stroke-width="3" points="912.42,-236.76 922.86,-235 913.6,-229.86 912.42,-236.76"/>
</g>
<!-- n1&#45;&gt;x10 -->
<g id="edge3" class="edge">
<title>n1:e&#45;&gt;x10:w</title>
<path fill="none" stroke="#e7298a" stroke-width="3" d="M862.86,-180C901.86,-180 914.13,-180 948.53,-180"/>
<polygon fill="#e7298a" stroke="#e7298a" stroke-width="3" points="948.86,-183.5 958.86,-180 948.86,-176.5 948.86,-183.5"/>
</g>
</g>
</svg>
