<?xml version="1.0" encoding="UTF-8" standalone="no"?>
<!DOCTYPE svg PUBLIC "-//W3C//DTD SVG 1.1//EN"
 "http://www.w3.org/Graphics/SVG/1.1/DTD/svg11.dtd">
<!-- Generated by graphviz version 2.40.1 (0)
 -->
<!-- Title: PWM Pages: 1 -->
<svg width="1296pt" height="269pt"
 viewBox="0.00 0.00 1296.32 269.02" xmlns="http://www.w3.org/2000/svg" xmlns:xlink="http://www.w3.org/1999/xlink">
<g id="graph0" class="graph" transform="scale(1 1) rotate(0) translate(4 265.0196)">
<title>PWM</title>
<polygon fill="#ffffff" stroke="transparent" points="-4,4 -4,-265.0196 1292.322,-265.0196 1292.322,4 -4,4"/>
<text text-anchor="middle" x="644.161" y="-7.8" font-family="Times,serif" font-size="14.00" fill="#000000">PWM</text>
<!-- n2 -->
<g id="node1" class="node">
<title>n2</title>
<polygon fill="none" stroke="#000000" points="200.9508,-213 148.6666,-195 200.9508,-177 253.2349,-195 200.9508,-213"/>
<text text-anchor="middle" x="200.9508" y="-191.3" font-family="Times,serif" font-size="14.00" fill="#000000">_T_13</text>
</g>
<!-- c19 -->
<g id="node13" class="node">
<title>c19</title>
<polygon fill="none" stroke="#000000" points="289.3427,-121.5 289.3427,-190.5 398.3427,-190.5 398.3427,-121.5 289.3427,-121.5"/>
<text text-anchor="middle" x="302.8427" y="-175.3" font-family="Times,serif" font-size="14.00" fill="#000000">A</text>
<polyline fill="none" stroke="#000000" points="289.3427,-167.5 316.3427,-167.5 "/>
<text text-anchor="middle" x="302.8427" y="-152.3" font-family="Times,serif" font-size="14.00" fill="#000000">B</text>
<polyline fill="none" stroke="#000000" points="289.3427,-144.5 316.3427,-144.5 "/>
<text text-anchor="middle" x="302.8427" y="-129.3" font-family="Times,serif" font-size="14.00" fill="#000000">S</text>
<polyline fill="none" stroke="#000000" points="316.3427,-121.5 316.3427,-190.5 "/>
<text text-anchor="middle" x="344.3427" y="-159.8" font-family="Times,serif" font-size="14.00" fill="#000000">$473</text>
<text text-anchor="middle" x="344.3427" y="-144.8" font-family="Times,serif" font-size="14.00" fill="#000000">$mux</text>
<polyline fill="none" stroke="#000000" points="372.3427,-121.5 372.3427,-190.5 "/>
<text text-anchor="middle" x="385.3427" y="-152.3" font-family="Times,serif" font-size="14.00" fill="#000000">Y</text>
</g>
<!-- n2&#45;&gt;c19 -->
<g id="edge3" class="edge">
<title>n2:e&#45;&gt;c19:w</title>
<path fill="none" stroke="#e7298a" stroke-width="3" d="M252.9508,-195C266.6162,-195 270.3434,-185.4287 279.5056,-181.0917"/>
<polygon fill="#e7298a" stroke="#e7298a" stroke-width="3" points="280.2894,-184.5034 289.3427,-179 278.8334,-177.6565 280.2894,-184.5034"/>
</g>
<!-- n3 -->
<g id="node2" class="node">
<title>n3</title>
<polygon fill="none" stroke="#000000" points="959.255,-135 906.9709,-117 959.255,-99 1011.5392,-117 959.255,-135"/>
<text text-anchor="middle" x="959.255" y="-113.3" font-family="Times,serif" font-size="14.00" fill="#000000">_T_14</text>
</g>
<!-- c20 -->
<g id="node16" class="node">
<title>c20</title>
<polygon fill="none" stroke="#000000" points="1047.647,-136.5 1047.647,-205.5 1156.647,-205.5 1156.647,-136.5 1047.647,-136.5"/>
<text text-anchor="middle" x="1061.147" y="-190.3" font-family="Times,serif" font-size="14.00" fill="#000000">A</text>
<polyline fill="none" stroke="#000000" points="1047.647,-182.5 1074.647,-182.5 "/>
<text text-anchor="middle" x="1061.147" y="-167.3" font-family="Times,serif" font-size="14.00" fill="#000000">B</text>
<polyline fill="none" stroke="#000000" points="1047.647,-159.5 1074.647,-159.5 "/>
<text text-anchor="middle" x="1061.147" y="-144.3" font-family="Times,serif" font-size="14.00" fill="#000000">S</text>
<polyline fill="none" stroke="#000000" points="1074.647,-136.5 1074.647,-205.5 "/>
<text text-anchor="middle" x="1102.647" y="-174.8" font-family="Times,serif" font-size="14.00" fill="#000000">$463</text>
<text text-anchor="middle" x="1102.647" y="-159.8" font-family="Times,serif" font-size="14.00" fill="#000000">$mux</text>
<polyline fill="none" stroke="#000000" points="1130.647,-136.5 1130.647,-205.5 "/>
<text text-anchor="middle" x="1143.647" y="-167.3" font-family="Times,serif" font-size="14.00" fill="#000000">Y</text>
</g>
<!-- n3&#45;&gt;c20 -->
<g id="edge5" class="edge">
<title>n3:e&#45;&gt;c20:w</title>
<path fill="none" stroke="#7570b3" d="M1011.255,-117C1028.3522,-117 1027.7403,-137.0732 1037.9199,-144.9143"/>
<polygon fill="#7570b3" stroke="#7570b3" points="1037.0568,-148.3123 1047.647,-148 1039.1735,-141.64 1037.0568,-148.3123"/>
</g>
<!-- n4 -->
<g id="node3" class="node">
<title>n4</title>
<polygon fill="none" stroke="#000000" points="93.3508,-233.5442 93.3508,-248.4558 71.6349,-259 40.9239,-259 19.208,-248.4558 19.208,-233.5442 40.9239,-223 71.6349,-223 93.3508,-233.5442"/>
<text text-anchor="middle" x="56.2794" y="-237.3" font-family="Times,serif" font-size="14.00" fill="#000000">clock</text>
</g>
<!-- c17 -->
<g id="node11" class="node">
<title>c17</title>
<polygon fill="none" stroke="#000000" points="434.3427,-182 434.3427,-228 562.3427,-228 562.3427,-182 434.3427,-182"/>
<text text-anchor="middle" x="457.8427" y="-212.8" font-family="Times,serif" font-size="14.00" fill="#000000">CLK</text>
<polyline fill="none" stroke="#000000" points="434.3427,-205 481.3427,-205 "/>
<text text-anchor="middle" x="457.8427" y="-189.8" font-family="Times,serif" font-size="14.00" fill="#000000">D</text>
<polyline fill="none" stroke="#000000" points="481.3427,-182 481.3427,-228 "/>
<text text-anchor="middle" x="507.8427" y="-208.8" font-family="Times,serif" font-size="14.00" fill="#000000">$917</text>
<text text-anchor="middle" x="507.8427" y="-193.8" font-family="Times,serif" font-size="14.00" fill="#000000">$dff</text>
<polyline fill="none" stroke="#000000" points="534.3427,-182 534.3427,-228 "/>
<text text-anchor="middle" x="548.3427" y="-201.3" font-family="Times,serif" font-size="14.00" fill="#000000">Q</text>
</g>
<!-- n4&#45;&gt;c17 -->
<g id="edge6" class="edge">
<title>n4:e&#45;&gt;c17:w</title>
<path fill="none" stroke="#e6ab02" d="M93.2794,-241C241.8248,-241 280.6576,-218.066 424.2745,-217.0358"/>
<polygon fill="#e6ab02" stroke="#e6ab02" points="424.3553,-220.5356 434.3427,-217 424.3303,-213.5357 424.3553,-220.5356"/>
</g>
<!-- n5 -->
<g id="node4" class="node">
<title>n5</title>
<polygon fill="none" stroke="#000000" points="663.6029,-223 598.5817,-205 663.6029,-187 728.6241,-205 663.6029,-223"/>
<text text-anchor="middle" x="663.6029" y="-201.3" font-family="Times,serif" font-size="14.00" fill="#000000">counter</text>
</g>
<!-- c12 -->
<g id="node9" class="node">
<title>c12</title>
<polygon fill="none" stroke="#000000" points="764.8631,-170 764.8631,-216 870.8631,-216 870.8631,-170 764.8631,-170"/>
<text text-anchor="middle" x="778.3631" y="-200.8" font-family="Times,serif" font-size="14.00" fill="#000000">A</text>
<polyline fill="none" stroke="#000000" points="764.8631,-193 791.8631,-193 "/>
<text text-anchor="middle" x="778.3631" y="-177.8" font-family="Times,serif" font-size="14.00" fill="#000000">B</text>
<polyline fill="none" stroke="#000000" points="791.8631,-170 791.8631,-216 "/>
<text text-anchor="middle" x="818.3631" y="-196.8" font-family="Times,serif" font-size="14.00" fill="#000000">$461</text>
<text text-anchor="middle" x="818.3631" y="-181.8" font-family="Times,serif" font-size="14.00" fill="#000000">$add</text>
<polyline fill="none" stroke="#000000" points="844.8631,-170 844.8631,-216 "/>
<text text-anchor="middle" x="857.8631" y="-189.3" font-family="Times,serif" font-size="14.00" fill="#000000">Y</text>
</g>
<!-- n5&#45;&gt;c12 -->
<g id="edge8" class="edge">
<title>n5:e&#45;&gt;c12:w</title>
<path fill="none" stroke="#66a61e" stroke-width="3" d="M728.6029,-205C740.6896,-205 745.9776,-205 754.6649,-205"/>
<polygon fill="#66a61e" stroke="#66a61e" stroke-width="3" points="754.8631,-208.5001 764.8631,-205 754.863,-201.5001 754.8631,-208.5001"/>
</g>
<!-- c13 -->
<g id="node10" class="node">
<title>c13</title>
<polygon fill="none" stroke="#000000" points="764.8631,-94 764.8631,-140 870.8631,-140 870.8631,-94 764.8631,-94"/>
<text text-anchor="middle" x="778.3631" y="-124.8" font-family="Times,serif" font-size="14.00" fill="#000000">A</text>
<polyline fill="none" stroke="#000000" points="764.8631,-117 791.8631,-117 "/>
<text text-anchor="middle" x="778.3631" y="-101.8" font-family="Times,serif" font-size="14.00" fill="#000000">B</text>
<polyline fill="none" stroke="#000000" points="791.8631,-94 791.8631,-140 "/>
<text text-anchor="middle" x="818.3631" y="-120.8" font-family="Times,serif" font-size="14.00" fill="#000000">$462</text>
<text text-anchor="middle" x="818.3631" y="-105.8" font-family="Times,serif" font-size="14.00" fill="#000000">$gt</text>
<polyline fill="none" stroke="#000000" points="844.8631,-94 844.8631,-140 "/>
<text text-anchor="middle" x="857.8631" y="-113.3" font-family="Times,serif" font-size="14.00" fill="#000000">Y</text>
</g>
<!-- n5&#45;&gt;c13 -->
<g id="edge9" class="edge">
<title>n5:e&#45;&gt;c13:w</title>
<path fill="none" stroke="#66a61e" stroke-width="3" d="M728.6029,-205C761.9348,-205 734.9701,-144.7158 755.1121,-131.5287"/>
<polygon fill="#66a61e" stroke="#66a61e" stroke-width="3" points="756.0618,-134.8982 764.8631,-129 754.3046,-128.1223 756.0618,-134.8982"/>
</g>
<!-- n6 -->
<g id="node5" class="node">
<title>n6</title>
<polygon fill="none" stroke="#000000" points="1288.16,-163.5442 1288.16,-178.4558 1260.2323,-189 1220.7366,-189 1192.8089,-178.4558 1192.8089,-163.5442 1220.7366,-153 1260.2323,-153 1288.16,-163.5442"/>
<text text-anchor="middle" x="1240.4845" y="-167.3" font-family="Times,serif" font-size="14.00" fill="#000000">io_high</text>
</g>
<!-- n7 -->
<g id="node6" class="node">
<title>n7</title>
<polygon fill="none" stroke="#000000" points="112.3391,-33.5442 112.3391,-48.4558 79.5001,-59 33.0587,-59 .2197,-48.4558 .2197,-33.5442 33.0587,-23 79.5001,-23 112.3391,-33.5442"/>
<text text-anchor="middle" x="56.2794" y="-37.3" font-family="Times,serif" font-size="14.00" fill="#000000">io_target</text>
</g>
<!-- n7&#45;&gt;c13 -->
<g id="edge11" class="edge">
<title>n7:e&#45;&gt;c13:w</title>
<path fill="none" stroke="#666666" stroke-width="3" d="M112.2794,-41C215.1964,-41 240.9257,-41 343.8427,-41 343.8427,-41 343.8427,-41 498.3427,-41 616.7136,-41 641.667,-101.4263 754.7466,-104.8489"/>
<polygon fill="#666666" stroke="#666666" stroke-width="3" points="754.8119,-108.3502 764.8631,-105 754.9165,-101.351 754.8119,-108.3502"/>
</g>
<!-- n8 -->
<g id="node7" class="node">
<title>n8</title>
<polygon fill="none" stroke="#000000" points="93.3508,-87.5442 93.3508,-102.4558 71.6349,-113 40.9239,-113 19.208,-102.4558 19.208,-87.5442 40.9239,-77 71.6349,-77 93.3508,-87.5442"/>
<text text-anchor="middle" x="56.2794" y="-91.3" font-family="Times,serif" font-size="14.00" fill="#000000">reset</text>
</g>
<!-- n8&#45;&gt;c19 -->
<g id="edge12" class="edge">
<title>n8:e&#45;&gt;c19:w</title>
<path fill="none" stroke="#7570b3" d="M93.2794,-95C164.9181,-95 184.9437,-92.7003 253.3427,-114 266.7027,-118.1604 270.1093,-127.2511 279.3377,-131.1567"/>
<polygon fill="#7570b3" stroke="#7570b3" points="278.8741,-134.6301 289.3427,-133 280.1424,-127.746 278.8741,-134.6301"/>
</g>
<!-- v0 -->
<g id="node8" class="node">
<title>v0</title>
<ellipse fill="none" stroke="#000000" cx="663.6029" cy="-151" rx="27" ry="18"/>
<text text-anchor="middle" x="663.6029" y="-147.3" font-family="Times,serif" font-size="14.00" fill="#000000">1&#39;1</text>
</g>
<!-- v0&#45;&gt;c12 -->
<g id="edge13" class="edge">
<title>v0:e&#45;&gt;c12:w</title>
<path fill="none" stroke="#1b9e77" d="M690.6029,-151C722.4446,-151 728.258,-175.0056 754.6094,-180.0693"/>
<polygon fill="#1b9e77" stroke="#1b9e77" points="754.5876,-183.5816 764.8631,-181 755.2204,-176.6102 754.5876,-183.5816"/>
</g>
<!-- c12&#45;&gt;n2 -->
<g id="edge2" class="edge">
<title>c12:e&#45;&gt;n2:w</title>
<path fill="none" stroke="#e7298a" stroke-width="3" d="M870.8631,-193C881.3075,-193 877.8362,-208.7243 870.8631,-216.5 828.4772,-263.7642 792.1829,-227.4095 728.8631,-232 598.2807,-241.4668 565.1429,-243.718 434.3427,-238 307.1376,-232.4391 234.9662,-306.8797 148.9508,-213 146.7552,-210.6037 145.0233,-207.1837 144.2769,-203.9672"/>
<polygon fill="#e7298a" stroke="#e7298a" stroke-width="3" points="147.4324,-205.4855 148.9508,-195 141.225,-202.2501 147.4324,-205.4855"/>
</g>
<!-- c13&#45;&gt;n3 -->
<g id="edge4" class="edge">
<title>c13:e&#45;&gt;n3:w</title>
<path fill="none" stroke="#7570b3" d="M870.8631,-117C882.9937,-117 888.3009,-117 897.0198,-117"/>
<polygon fill="#7570b3" stroke="#7570b3" points="897.2551,-120.5001 907.255,-117 897.255,-113.5001 897.2551,-120.5001"/>
</g>
<!-- c17&#45;&gt;n5 -->
<g id="edge7" class="edge">
<title>c17:e&#45;&gt;n5:w</title>
<path fill="none" stroke="#66a61e" stroke-width="3" d="M562.3427,-205C574.4295,-205 579.7174,-205 588.4047,-205"/>
<polygon fill="#66a61e" stroke="#66a61e" stroke-width="3" points="588.6029,-208.5001 598.6029,-205 588.6029,-201.5001 588.6029,-208.5001"/>
</g>
<!-- v1 -->
<g id="node12" class="node">
<title>v1</title>
<ellipse fill="none" stroke="#000000" cx="200.9508" cy="-141" rx="27" ry="18"/>
<text text-anchor="middle" x="200.9508" y="-137.3" font-family="Times,serif" font-size="14.00" fill="#000000">0</text>
</g>
<!-- v1&#45;&gt;c19 -->
<g id="edge14" class="edge">
<title>v1:e&#45;&gt;c19:w</title>
<path fill="none" stroke="#e6ab02" stroke-width="3" d="M227.9508,-141C252.3083,-141 259.4658,-152.2802 279.2546,-155.2765"/>
<polygon fill="#e6ab02" stroke="#e6ab02" stroke-width="3" points="279.118,-158.7756 289.3427,-156 279.6187,-151.7936 279.118,-158.7756"/>
</g>
<!-- c19&#45;&gt;c17 -->
<g id="edge1" class="edge">
<title>c19:e&#45;&gt;c17:w</title>
<path fill="none" stroke="#e7298a" stroke-width="3" d="M398.3427,-156C417.1638,-156 413.8922,-180.8978 424.7738,-189.8454"/>
<polygon fill="#e7298a" stroke="#e7298a" stroke-width="3" points="423.7496,-193.193 434.3427,-193 425.9414,-186.545 423.7496,-193.193"/>
</g>
<!-- v2 -->
<g id="node14" class="node">
<title>v2</title>
<ellipse fill="none" stroke="#000000" cx="959.255" cy="-225" rx="27" ry="18"/>
<text text-anchor="middle" x="959.255" y="-221.3" font-family="Times,serif" font-size="14.00" fill="#000000">1&#39;1</text>
</g>
<!-- v2&#45;&gt;c20 -->
<g id="edge15" class="edge">
<title>v2:e&#45;&gt;c20:w</title>
<path fill="none" stroke="#a6761d" d="M986.255,-225C1013.0008,-225 1016.5421,-201.2656 1037.4868,-195.332"/>
<polygon fill="#a6761d" stroke="#a6761d" points="1038.1868,-198.7703 1047.647,-194 1037.2768,-191.8297 1038.1868,-198.7703"/>
</g>
<!-- v3 -->
<g id="node15" class="node">
<title>v3</title>
<ellipse fill="none" stroke="#000000" cx="959.255" cy="-171" rx="27" ry="18"/>
<text text-anchor="middle" x="959.255" y="-167.3" font-family="Times,serif" font-size="14.00" fill="#000000">1&#39;0</text>
</g>
<!-- v3&#45;&gt;c20 -->
<g id="edge16" class="edge">
<title>v3:e&#45;&gt;c20:w</title>
<path fill="none" stroke="#7570b3" d="M986.255,-171C1009.8099,-171 1018.1139,-171 1037.4987,-171"/>
<polygon fill="#7570b3" stroke="#7570b3" points="1037.647,-174.5001 1047.647,-171 1037.647,-167.5001 1037.647,-174.5001"/>
</g>
<!-- c20&#45;&gt;n6 -->
<g id="edge10" class="edge">
<title>c20:e&#45;&gt;n6:w</title>
<path fill="none" stroke="#d95f02" d="M1156.647,-171C1168.647,-171 1173.897,-171 1182.522,-171"/>
<polygon fill="#d95f02" stroke="#d95f02" points="1182.647,-174.5001 1192.647,-171 1182.647,-167.5001 1182.647,-174.5001"/>
</g>
</g>
</svg>
