<?xml version="1.0" encoding="UTF-8" standalone="no"?>
<!DOCTYPE svg PUBLIC "-//W3C//DTD SVG 1.1//EN"
 "http://www.w3.org/Graphics/SVG/1.1/DTD/svg11.dtd">
<!-- Generated by graphviz version 2.40.1 (0)
 -->
<!-- Title: PWM Pages: 1 -->
<svg width="1575pt" height="478pt"
 viewBox="0.00 0.00 1575.13 478.00" xmlns="http://www.w3.org/2000/svg" xmlns:xlink="http://www.w3.org/1999/xlink">
<g id="graph0" class="graph" transform="scale(1 1) rotate(0) translate(4 474)">
<title>PWM</title>
<polygon fill="#ffffff" stroke="transparent" points="-4,4 -4,-474 1571.1289,-474 1571.1289,4 -4,4"/>
<text text-anchor="middle" x="783.5645" y="-7.8" font-family="Times,serif" font-size="14.00" fill="#000000">PWM</text>
<!-- n8 -->
<g id="node1" class="node">
<title>n8</title>
<polygon fill="none" stroke="#000000" points="599.4711,-362 547.1869,-344 599.4711,-326 651.7552,-344 599.4711,-362"/>
<text text-anchor="middle" x="599.4711" y="-340.3" font-family="Times,serif" font-size="14.00" fill="#000000">_T_14</text>
</g>
<!-- c26 -->
<g id="node15" class="node">
<title>c26</title>
<polygon fill="none" stroke="#000000" points="687.8631,-363.5 687.8631,-432.5 796.8631,-432.5 796.8631,-363.5 687.8631,-363.5"/>
<text text-anchor="middle" x="701.3631" y="-417.3" font-family="Times,serif" font-size="14.00" fill="#000000">A</text>
<polyline fill="none" stroke="#000000" points="687.8631,-409.5 714.8631,-409.5 "/>
<text text-anchor="middle" x="701.3631" y="-394.3" font-family="Times,serif" font-size="14.00" fill="#000000">B</text>
<polyline fill="none" stroke="#000000" points="687.8631,-386.5 714.8631,-386.5 "/>
<text text-anchor="middle" x="701.3631" y="-371.3" font-family="Times,serif" font-size="14.00" fill="#000000">S</text>
<polyline fill="none" stroke="#000000" points="714.8631,-363.5 714.8631,-432.5 "/>
<text text-anchor="middle" x="742.8631" y="-401.8" font-family="Times,serif" font-size="14.00" fill="#000000">$463</text>
<text text-anchor="middle" x="742.8631" y="-386.8" font-family="Times,serif" font-size="14.00" fill="#000000">$mux</text>
<polyline fill="none" stroke="#000000" points="770.8631,-363.5 770.8631,-432.5 "/>
<text text-anchor="middle" x="783.8631" y="-394.3" font-family="Times,serif" font-size="14.00" fill="#000000">Y</text>
</g>
<!-- n8&#45;&gt;c26 -->
<g id="edge20" class="edge">
<title>n8:e&#45;&gt;c26:w</title>
<path fill="none" stroke="#1b9e77" d="M651.4711,-344C668.5682,-344 667.9564,-364.0732 678.136,-371.9143"/>
<polygon fill="#1b9e77" stroke="#1b9e77" points="677.2728,-375.3123 687.8631,-375 679.3895,-368.64 677.2728,-375.3123"/>
</g>
<!-- n9 -->
<g id="node2" class="node">
<title>n9</title>
<polygon fill="none" stroke="#000000" points="599.4711,-213 547.1869,-195 599.4711,-177 651.7552,-195 599.4711,-213"/>
<text text-anchor="middle" x="599.4711" y="-191.3" font-family="Times,serif" font-size="14.00" fill="#000000">_T_13</text>
</g>
<!-- c25 -->
<g id="node12" class="node">
<title>c25</title>
<polygon fill="none" stroke="#000000" points="687.8631,-95.5 687.8631,-164.5 796.8631,-164.5 796.8631,-95.5 687.8631,-95.5"/>
<text text-anchor="middle" x="701.3631" y="-149.3" font-family="Times,serif" font-size="14.00" fill="#000000">A</text>
<polyline fill="none" stroke="#000000" points="687.8631,-141.5 714.8631,-141.5 "/>
<text text-anchor="middle" x="701.3631" y="-126.3" font-family="Times,serif" font-size="14.00" fill="#000000">B</text>
<polyline fill="none" stroke="#000000" points="687.8631,-118.5 714.8631,-118.5 "/>
<text text-anchor="middle" x="701.3631" y="-103.3" font-family="Times,serif" font-size="14.00" fill="#000000">S</text>
<polyline fill="none" stroke="#000000" points="714.8631,-95.5 714.8631,-164.5 "/>
<text text-anchor="middle" x="742.8631" y="-133.8" font-family="Times,serif" font-size="14.00" fill="#000000">$473</text>
<text text-anchor="middle" x="742.8631" y="-118.8" font-family="Times,serif" font-size="14.00" fill="#000000">$mux</text>
<polyline fill="none" stroke="#000000" points="770.8631,-95.5 770.8631,-164.5 "/>
<text text-anchor="middle" x="783.8631" y="-126.3" font-family="Times,serif" font-size="14.00" fill="#000000">Y</text>
</g>
<!-- n9&#45;&gt;c25 -->
<g id="edge22" class="edge">
<title>n9:e&#45;&gt;c25:w</title>
<path fill="none" stroke="#666666" stroke-width="3" d="M651.4711,-195C671.9251,-195 666.521,-166.1968 678.0862,-156.2957"/>
<polygon fill="#666666" stroke="#666666" stroke-width="3" points="679.505,-159.511 687.8631,-153 677.2689,-152.8777 679.505,-159.511"/>
</g>
<!-- n10 -->
<g id="node3" class="node">
<title>n10</title>
<polygon fill="none" stroke="#000000" points="599.4711,-159 547.1869,-141 599.4711,-123 651.7552,-141 599.4711,-159"/>
<text text-anchor="middle" x="599.4711" y="-137.3" font-family="Times,serif" font-size="14.00" fill="#000000">_T_12</text>
</g>
<!-- n11 -->
<g id="node4" class="node">
<title>n11</title>
<polygon fill="none" stroke="#000000" points="909.1531,-462 833.0724,-444 909.1531,-426 985.2338,-444 909.1531,-462"/>
<text text-anchor="middle" x="909.1531" y="-440.3" font-family="Times,serif" font-size="14.00" fill="#000000">_RAND_0</text>
</g>
<!-- n12 -->
<g id="node5" class="node">
<title>n12</title>
<polygon fill="none" stroke="#000000" points="213.819,-256 148.7978,-238 213.819,-220 278.8402,-238 213.819,-256"/>
<text text-anchor="middle" x="213.819" y="-234.3" font-family="Times,serif" font-size="14.00" fill="#000000">counter</text>
</g>
<!-- c27 -->
<g id="node16" class="node">
<title>c27</title>
<polygon fill="none" stroke="#000000" points="315.0791,-321 315.0791,-367 421.0791,-367 421.0791,-321 315.0791,-321"/>
<text text-anchor="middle" x="328.5791" y="-351.8" font-family="Times,serif" font-size="14.00" fill="#000000">A</text>
<polyline fill="none" stroke="#000000" points="315.0791,-344 342.0791,-344 "/>
<text text-anchor="middle" x="328.5791" y="-328.8" font-family="Times,serif" font-size="14.00" fill="#000000">B</text>
<polyline fill="none" stroke="#000000" points="342.0791,-321 342.0791,-367 "/>
<text text-anchor="middle" x="368.5791" y="-347.8" font-family="Times,serif" font-size="14.00" fill="#000000">$462</text>
<text text-anchor="middle" x="368.5791" y="-332.8" font-family="Times,serif" font-size="14.00" fill="#000000">$gt</text>
<polyline fill="none" stroke="#000000" points="395.0791,-321 395.0791,-367 "/>
<text text-anchor="middle" x="408.0791" y="-340.3" font-family="Times,serif" font-size="14.00" fill="#000000">Y</text>
</g>
<!-- n12&#45;&gt;c27 -->
<g id="edge6" class="edge">
<title>n12:e&#45;&gt;c27:w</title>
<path fill="none" stroke="#7570b3" stroke-width="3" d="M278.819,-238C329.6117,-238 270.4131,-339.1344 304.879,-354.1465"/>
<polygon fill="#7570b3" stroke="#7570b3" stroke-width="3" points="304.6145,-357.6557 315.0791,-356 305.866,-350.7685 304.6145,-357.6557"/>
</g>
<!-- c28 -->
<g id="node18" class="node">
<title>c28</title>
<polygon fill="none" stroke="#000000" points="315.0791,-172 315.0791,-218 421.0791,-218 421.0791,-172 315.0791,-172"/>
<text text-anchor="middle" x="328.5791" y="-202.8" font-family="Times,serif" font-size="14.00" fill="#000000">A</text>
<polyline fill="none" stroke="#000000" points="315.0791,-195 342.0791,-195 "/>
<text text-anchor="middle" x="328.5791" y="-179.8" font-family="Times,serif" font-size="14.00" fill="#000000">B</text>
<polyline fill="none" stroke="#000000" points="342.0791,-172 342.0791,-218 "/>
<text text-anchor="middle" x="368.5791" y="-198.8" font-family="Times,serif" font-size="14.00" fill="#000000">$461</text>
<text text-anchor="middle" x="368.5791" y="-183.8" font-family="Times,serif" font-size="14.00" fill="#000000">$add</text>
<polyline fill="none" stroke="#000000" points="395.0791,-172 395.0791,-218 "/>
<text text-anchor="middle" x="408.0791" y="-191.3" font-family="Times,serif" font-size="14.00" fill="#000000">Y</text>
</g>
<!-- n12&#45;&gt;c28 -->
<g id="edge7" class="edge">
<title>n12:e&#45;&gt;c28:w</title>
<path fill="none" stroke="#7570b3" stroke-width="3" d="M278.819,-238C295.8803,-238 295.2338,-217.9268 305.378,-210.0857"/>
<polygon fill="#7570b3" stroke="#7570b3" stroke-width="3" points="306.6105,-213.3666 315.0791,-207 304.4887,-206.6959 306.6105,-213.3666"/>
</g>
<!-- c29 -->
<g id="node20" class="node">
<title>c29</title>
<polygon fill="none" stroke="#000000" points="315.0791,-107 315.0791,-153 421.0791,-153 421.0791,-107 315.0791,-107"/>
<text text-anchor="middle" x="328.5791" y="-137.8" font-family="Times,serif" font-size="14.00" fill="#000000">A</text>
<polyline fill="none" stroke="#000000" points="315.0791,-130 342.0791,-130 "/>
<text text-anchor="middle" x="328.5791" y="-114.8" font-family="Times,serif" font-size="14.00" fill="#000000">B</text>
<polyline fill="none" stroke="#000000" points="342.0791,-107 342.0791,-153 "/>
<text text-anchor="middle" x="368.5791" y="-133.8" font-family="Times,serif" font-size="14.00" fill="#000000">$460</text>
<text text-anchor="middle" x="368.5791" y="-118.8" font-family="Times,serif" font-size="14.00" fill="#000000">$add</text>
<polyline fill="none" stroke="#000000" points="395.0791,-107 395.0791,-153 "/>
<text text-anchor="middle" x="408.0791" y="-126.3" font-family="Times,serif" font-size="14.00" fill="#000000">Y</text>
</g>
<!-- n12&#45;&gt;c29 -->
<g id="edge8" class="edge">
<title>n12:e&#45;&gt;c29:w</title>
<path fill="none" stroke="#7570b3" stroke-width="3" d="M278.819,-238C320.3301,-238 278.5338,-158.4751 305.0756,-144.1855"/>
<polygon fill="#7570b3" stroke="#7570b3" stroke-width="3" points="306.0566,-147.5538 315.0791,-142 304.5625,-140.7151 306.0566,-147.5538"/>
</g>
<!-- n13 -->
<g id="node6" class="node">
<title>n13</title>
<polygon fill="none" stroke="#000000" points="112.3391,-331.5442 112.3391,-346.4558 79.5001,-357 33.0587,-357 .2197,-346.4558 .2197,-331.5442 33.0587,-321 79.5001,-321 112.3391,-331.5442"/>
<text text-anchor="middle" x="56.2794" y="-335.3" font-family="Times,serif" font-size="14.00" fill="#000000">io_target</text>
</g>
<!-- n13&#45;&gt;c27 -->
<g id="edge9" class="edge">
<title>n13:e&#45;&gt;c27:w</title>
<path fill="none" stroke="#e6ab02" stroke-width="3" d="M112.2794,-339C199.0314,-339 223.0857,-332.523 305.062,-332.0297"/>
<polygon fill="#e6ab02" stroke="#e6ab02" stroke-width="3" points="305.0896,-335.5297 315.0791,-332 305.0688,-328.5298 305.0896,-335.5297"/>
</g>
<!-- n14 -->
<g id="node7" class="node">
<title>n14</title>
<polygon fill="none" stroke="#000000" points="1566.967,-390.5442 1566.967,-405.4558 1539.0393,-416 1499.5436,-416 1471.6159,-405.4558 1471.6159,-390.5442 1499.5436,-380 1539.0393,-380 1566.967,-390.5442"/>
<text text-anchor="middle" x="1519.2914" y="-394.3" font-family="Times,serif" font-size="14.00" fill="#000000">io_high</text>
</g>
<!-- n15 -->
<g id="node8" class="node">
<title>n15</title>
<polygon fill="none" stroke="#000000" points="93.3508,-33.5442 93.3508,-48.4558 71.6349,-59 40.9239,-59 19.208,-48.4558 19.208,-33.5442 40.9239,-23 71.6349,-23 93.3508,-33.5442"/>
<text text-anchor="middle" x="56.2794" y="-37.3" font-family="Times,serif" font-size="14.00" fill="#000000">reset</text>
</g>
<!-- x9 -->
<g id="node25" class="node">
<title>x9</title>
<path fill="none" stroke="#000000" d="M383.0791,-59C383.0791,-59 353.0791,-59 353.0791,-59 347.0791,-59 341.0791,-53 341.0791,-47 341.0791,-47 341.0791,-35 341.0791,-35 341.0791,-29 347.0791,-23 353.0791,-23 353.0791,-23 383.0791,-23 383.0791,-23 389.0791,-23 395.0791,-29 395.0791,-35 395.0791,-35 395.0791,-47 395.0791,-47 395.0791,-53 389.0791,-59 383.0791,-59"/>
<text text-anchor="middle" x="368.0791" y="-37.3" font-family="Times,serif" font-size="14.00" fill="#000000">BUF</text>
</g>
<!-- n15&#45;&gt;x9 -->
<g id="edge11" class="edge">
<title>n15:e&#45;&gt;x9:w</title>
<path fill="none" stroke="#d95f02" d="M93.2794,-41C199.971,-41 229.1444,-41 330.9911,-41"/>
<polygon fill="#d95f02" stroke="#d95f02" points="331.0792,-44.5001 341.0791,-41 331.0791,-37.5001 331.0792,-44.5001"/>
</g>
<!-- n16 -->
<g id="node9" class="node">
<title>n16</title>
<polygon fill="none" stroke="#000000" points="93.3508,-277.5442 93.3508,-292.4558 71.6349,-303 40.9239,-303 19.208,-292.4558 19.208,-277.5442 40.9239,-267 71.6349,-267 93.3508,-277.5442"/>
<text text-anchor="middle" x="56.2794" y="-281.3" font-family="Times,serif" font-size="14.00" fill="#000000">clock</text>
</g>
<!-- c20 -->
<g id="node10" class="node">
<title>c20</title>
<polygon fill="none" stroke="#000000" points="1021.4432,-224 1021.4432,-270 1149.4432,-270 1149.4432,-224 1021.4432,-224"/>
<text text-anchor="middle" x="1044.9432" y="-254.8" font-family="Times,serif" font-size="14.00" fill="#000000">CLK</text>
<polyline fill="none" stroke="#000000" points="1021.4432,-247 1068.4432,-247 "/>
<text text-anchor="middle" x="1044.9432" y="-231.8" font-family="Times,serif" font-size="14.00" fill="#000000">D</text>
<polyline fill="none" stroke="#000000" points="1068.4432,-224 1068.4432,-270 "/>
<text text-anchor="middle" x="1094.9432" y="-250.8" font-family="Times,serif" font-size="14.00" fill="#000000">$917</text>
<text text-anchor="middle" x="1094.9432" y="-235.8" font-family="Times,serif" font-size="14.00" fill="#000000">$dff</text>
<polyline fill="none" stroke="#000000" points="1121.4432,-224 1121.4432,-270 "/>
<text text-anchor="middle" x="1135.4432" y="-243.3" font-family="Times,serif" font-size="14.00" fill="#000000">Q</text>
</g>
<!-- n16&#45;&gt;c20 -->
<g id="edge12" class="edge">
<title>n16:e&#45;&gt;c20:w</title>
<path fill="none" stroke="#666666" d="M93.2794,-285C215.4126,-285 245.9459,-285 368.0791,-285 368.0791,-285 368.0791,-285 742.3631,-285 850.5777,-285 879.1686,-291.3991 985.4432,-271 997.9949,-268.5907 1002.5115,-262.9417 1011.3028,-260.3467"/>
<polygon fill="#666666" stroke="#666666" points="1011.991,-263.7861 1021.4432,-259 1011.0694,-256.847 1011.991,-263.7861"/>
</g>
<!-- c20&#45;&gt;n12 -->
<g id="edge5" class="edge">
<title>c20:e&#45;&gt;n12:w</title>
<path fill="none" stroke="#7570b3" stroke-width="3" d="M1149.4432,-247C1149.4432,-247 1021.4432,-270.5 1021.4432,-270.5 897.0784,-265.2732 866.8376,-247 742.3631,-247 484.0791,-247 484.0791,-247 484.0791,-247 392.8803,-247 370.2561,-253.9995 279.0791,-256 250.1394,-256.635 169.2874,-276.4684 148.819,-256 146.5209,-253.7019 144.7697,-250.3003 144.0367,-247.0711"/>
<polygon fill="#7570b3" stroke="#7570b3" stroke-width="3" points="147.2514,-248.4782 148.819,-238 141.0592,-245.2137 147.2514,-248.4782"/>
</g>
<!-- v0 -->
<g id="node11" class="node">
<title>v0</title>
<ellipse fill="none" stroke="#000000" cx="599.4711" cy="-87" rx="27" ry="18"/>
<text text-anchor="middle" x="599.4711" y="-83.3" font-family="Times,serif" font-size="14.00" fill="#000000">0</text>
</g>
<!-- v0&#45;&gt;c25 -->
<g id="edge23" class="edge">
<title>v0:e&#45;&gt;c25:w</title>
<path fill="none" stroke="#7570b3" stroke-width="3" d="M626.4711,-87C656.0099,-87 655.2415,-120.8096 677.9139,-128.4696"/>
<polygon fill="#7570b3" stroke="#7570b3" stroke-width="3" points="677.4472,-131.9389 687.8631,-130 678.5114,-125.0203 677.4472,-131.9389"/>
</g>
<!-- n1 -->
<g id="node27" class="node">
<title>n1</title>
<ellipse fill="#000000" stroke="#000000" cx="909.1531" cy="-180" rx="1.8" ry="1.8"/>
</g>
<!-- c25&#45;&gt;n1 -->
<g id="edge1" class="edge">
<title>c25:e&#45;&gt;n1:w</title>
<path fill="none" stroke="#e7298a" stroke-width="3" d="M796.8631,-130C847.1089,-130 852.7556,-173.5799 897.0782,-179.3678"/>
<polygon fill="#e7298a" stroke="#e7298a" stroke-width="3" points="896.9535,-182.8668 907.1531,-180 897.392,-175.8805 896.9535,-182.8668"/>
</g>
<!-- v1 -->
<g id="node13" class="node">
<title>v1</title>
<ellipse fill="none" stroke="#000000" cx="599.4711" cy="-398" rx="27" ry="18"/>
<text text-anchor="middle" x="599.4711" y="-394.3" font-family="Times,serif" font-size="14.00" fill="#000000">1&#39;0</text>
</g>
<!-- v1&#45;&gt;c26 -->
<g id="edge24" class="edge">
<title>v1:e&#45;&gt;c26:w</title>
<path fill="none" stroke="#7570b3" d="M626.4711,-398C650.026,-398 658.33,-398 677.7148,-398"/>
<polygon fill="#7570b3" stroke="#7570b3" points="677.8631,-401.5001 687.8631,-398 677.863,-394.5001 677.8631,-401.5001"/>
</g>
<!-- v2 -->
<g id="node14" class="node">
<title>v2</title>
<ellipse fill="none" stroke="#000000" cx="599.4711" cy="-452" rx="27" ry="18"/>
<text text-anchor="middle" x="599.4711" y="-448.3" font-family="Times,serif" font-size="14.00" fill="#000000">1&#39;1</text>
</g>
<!-- v2&#45;&gt;c26 -->
<g id="edge25" class="edge">
<title>v2:e&#45;&gt;c26:w</title>
<path fill="none" stroke="#d95f02" d="M626.4711,-452C653.2169,-452 656.7582,-428.2656 677.7029,-422.332"/>
<polygon fill="#d95f02" stroke="#d95f02" points="678.4029,-425.7703 687.8631,-421 677.4929,-418.8297 678.4029,-425.7703"/>
</g>
<!-- x8 -->
<g id="node24" class="node">
<title>x8</title>
<path fill="none" stroke="#000000" d="M1325.4486,-416C1325.4486,-416 1295.4486,-416 1295.4486,-416 1289.4486,-416 1283.4486,-410 1283.4486,-404 1283.4486,-404 1283.4486,-392 1283.4486,-392 1283.4486,-386 1289.4486,-380 1295.4486,-380 1295.4486,-380 1325.4486,-380 1325.4486,-380 1331.4486,-380 1337.4486,-386 1337.4486,-392 1337.4486,-392 1337.4486,-404 1337.4486,-404 1337.4486,-410 1331.4486,-416 1325.4486,-416"/>
<text text-anchor="middle" x="1310.4486" y="-394.3" font-family="Times,serif" font-size="14.00" fill="#000000">BUF</text>
</g>
<!-- c26&#45;&gt;x8 -->
<g id="edge15" class="edge">
<title>c26:e&#45;&gt;x8:w</title>
<path fill="none" stroke="#e6ab02" d="M796.8631,-398C1009.7442,-398 1065.4592,-398 1273.4289,-398"/>
<polygon fill="#e6ab02" stroke="#e6ab02" points="1273.4486,-401.5001 1283.4486,-398 1273.4485,-394.5001 1273.4486,-401.5001"/>
</g>
<!-- x7 -->
<g id="node23" class="node">
<title>x7</title>
<path fill="none" stroke="#000000" d="M499.0791,-362C499.0791,-362 469.0791,-362 469.0791,-362 463.0791,-362 457.0791,-356 457.0791,-350 457.0791,-350 457.0791,-338 457.0791,-338 457.0791,-332 463.0791,-326 469.0791,-326 469.0791,-326 499.0791,-326 499.0791,-326 505.0791,-326 511.0791,-332 511.0791,-338 511.0791,-338 511.0791,-350 511.0791,-350 511.0791,-356 505.0791,-362 499.0791,-362"/>
<text text-anchor="middle" x="484.0791" y="-340.3" font-family="Times,serif" font-size="14.00" fill="#000000">BUF</text>
</g>
<!-- c27&#45;&gt;x7 -->
<g id="edge16" class="edge">
<title>c27:e&#45;&gt;x7:w</title>
<path fill="none" stroke="#a6761d" d="M421.0791,-344C433.0791,-344 438.3291,-344 446.9541,-344"/>
<polygon fill="#a6761d" stroke="#a6761d" points="447.0792,-347.5001 457.0791,-344 447.0791,-340.5001 447.0792,-347.5001"/>
</g>
<!-- v3 -->
<g id="node17" class="node">
<title>v3</title>
<ellipse fill="none" stroke="#000000" cx="213.819" cy="-183" rx="27" ry="18"/>
<text text-anchor="middle" x="213.819" y="-179.3" font-family="Times,serif" font-size="14.00" fill="#000000">1</text>
</g>
<!-- v3&#45;&gt;c28 -->
<g id="edge26" class="edge">
<title>v3:e&#45;&gt;c28:w</title>
<path fill="none" stroke="#a6761d" stroke-width="3" d="M240.819,-183C270.2136,-183 279.9736,-183 305.0731,-183"/>
<polygon fill="#a6761d" stroke="#a6761d" stroke-width="3" points="305.0792,-186.5001 315.0791,-183 305.0791,-179.5001 305.0792,-186.5001"/>
</g>
<!-- x6 -->
<g id="node22" class="node">
<title>x6</title>
<path fill="none" stroke="#000000" d="M499.0791,-213C499.0791,-213 469.0791,-213 469.0791,-213 463.0791,-213 457.0791,-207 457.0791,-201 457.0791,-201 457.0791,-189 457.0791,-189 457.0791,-183 463.0791,-177 469.0791,-177 469.0791,-177 499.0791,-177 499.0791,-177 505.0791,-177 511.0791,-183 511.0791,-189 511.0791,-189 511.0791,-201 511.0791,-201 511.0791,-207 505.0791,-213 499.0791,-213"/>
<text text-anchor="middle" x="484.0791" y="-191.3" font-family="Times,serif" font-size="14.00" fill="#000000">BUF</text>
</g>
<!-- c28&#45;&gt;x6 -->
<g id="edge17" class="edge">
<title>c28:e&#45;&gt;x6:w</title>
<path fill="none" stroke="#7570b3" stroke-width="3" d="M421.0791,-195C433.0791,-195 438.3291,-195 446.9541,-195"/>
<polygon fill="#7570b3" stroke="#7570b3" stroke-width="3" points="447.0792,-198.5001 457.0791,-195 447.0791,-191.5001 447.0792,-198.5001"/>
</g>
<!-- v4 -->
<g id="node19" class="node">
<title>v4</title>
<ellipse fill="none" stroke="#000000" cx="213.819" cy="-118" rx="27" ry="18"/>
<text text-anchor="middle" x="213.819" y="-114.3" font-family="Times,serif" font-size="14.00" fill="#000000">1</text>
</g>
<!-- v4&#45;&gt;c29 -->
<g id="edge27" class="edge">
<title>v4:e&#45;&gt;c29:w</title>
<path fill="none" stroke="#a6761d" stroke-width="3" d="M240.819,-118C270.2136,-118 279.9736,-118 305.0731,-118"/>
<polygon fill="#a6761d" stroke="#a6761d" stroke-width="3" points="305.0792,-121.5001 315.0791,-118 305.0791,-114.5001 305.0792,-121.5001"/>
</g>
<!-- x5 -->
<g id="node21" class="node">
<title>x5</title>
<path fill="none" stroke="#000000" d="M499.0791,-153C499.0791,-153 469.0791,-153 469.0791,-153 463.0791,-153 457.0791,-147 457.0791,-141 457.0791,-141 457.0791,-129 457.0791,-129 457.0791,-123 463.0791,-117 469.0791,-117 469.0791,-117 499.0791,-117 499.0791,-117 505.0791,-117 511.0791,-123 511.0791,-129 511.0791,-129 511.0791,-141 511.0791,-141 511.0791,-147 505.0791,-153 499.0791,-153"/>
<text text-anchor="middle" x="484.0791" y="-131.3" font-family="Times,serif" font-size="14.00" fill="#000000">BUF</text>
</g>
<!-- c29&#45;&gt;x5 -->
<g id="edge18" class="edge">
<title>c29:e&#45;&gt;x5:w</title>
<path fill="none" stroke="#e7298a" stroke-width="3" d="M421.0791,-130C433.1943,-130 438.3003,-132.8125 446.9109,-134.2188"/>
<polygon fill="#e7298a" stroke="#e7298a" stroke-width="3" points="446.8404,-137.7236 457.0791,-135 447.3767,-130.7441 446.8404,-137.7236"/>
</g>
<!-- x5&#45;&gt;n10 -->
<g id="edge4" class="edge">
<title>x5:e&#45;&gt;n10:w</title>
<path fill="none" stroke="#e7298a" stroke-width="3" d="M511.0791,-135C523.5016,-135 528.5815,-138.4457 537.4475,-140.1147"/>
<polygon fill="#e7298a" stroke="#e7298a" stroke-width="3" points="537.2019,-143.6065 547.4711,-141 537.8178,-136.6337 537.2019,-143.6065"/>
</g>
<!-- x6&#45;&gt;n9 -->
<g id="edge21" class="edge">
<title>x6:e&#45;&gt;n9:w</title>
<path fill="none" stroke="#666666" stroke-width="3" d="M511.0791,-195C523.2098,-195 528.5169,-195 537.2359,-195"/>
<polygon fill="#666666" stroke="#666666" stroke-width="3" points="537.4711,-198.5001 547.4711,-195 537.4711,-191.5001 537.4711,-198.5001"/>
</g>
<!-- x7&#45;&gt;n8 -->
<g id="edge19" class="edge">
<title>x7:e&#45;&gt;n8:w</title>
<path fill="none" stroke="#1b9e77" d="M511.0791,-344C523.2098,-344 528.5169,-344 537.2359,-344"/>
<polygon fill="#1b9e77" stroke="#1b9e77" points="537.4711,-347.5001 547.4711,-344 537.4711,-340.5001 537.4711,-347.5001"/>
</g>
<!-- x8&#45;&gt;n14 -->
<g id="edge10" class="edge">
<title>x8:e&#45;&gt;n14:w</title>
<path fill="none" stroke="#66a61e" d="M1337.4486,-398C1393.5168,-398 1409.9978,-398 1461.4269,-398"/>
<polygon fill="#66a61e" stroke="#66a61e" points="1461.454,-401.5001 1471.4539,-398 1461.4539,-394.5001 1461.454,-401.5001"/>
</g>
<!-- x9&#45;&gt;c25 -->
<g id="edge13" class="edge">
<title>x9:e&#45;&gt;c25:w</title>
<path fill="none" stroke="#7570b3" d="M395.0791,-41C509.5173,-41 551.1887,-5.587 651.8631,-60 671.2132,-70.4584 664.9819,-96.2749 677.7867,-104.4644"/>
<polygon fill="#7570b3" stroke="#7570b3" points="677.3112,-107.9538 687.8631,-107 679.0195,-101.1654 677.3112,-107.9538"/>
</g>
<!-- x10 -->
<g id="node26" class="node">
<title>x10</title>
<path fill="none" stroke="#000000" d="M1100.4432,-198C1100.4432,-198 1070.4432,-198 1070.4432,-198 1064.4432,-198 1058.4432,-192 1058.4432,-186 1058.4432,-186 1058.4432,-174 1058.4432,-174 1058.4432,-168 1064.4432,-162 1070.4432,-162 1070.4432,-162 1100.4432,-162 1100.4432,-162 1106.4432,-162 1112.4432,-168 1112.4432,-174 1112.4432,-174 1112.4432,-186 1112.4432,-186 1112.4432,-192 1106.4432,-198 1100.4432,-198"/>
<text text-anchor="middle" x="1085.4432" y="-176.3" font-family="Times,serif" font-size="14.00" fill="#000000">BUF</text>
</g>
<!-- n3 -->
<g id="node28" class="node">
<title>n3</title>
<polygon fill="none" stroke="#000000" points="1310.4486,-198 1185.4378,-180 1310.4486,-162 1435.4593,-180 1310.4486,-198"/>
<text text-anchor="middle" x="1310.4486" y="-176.3" font-family="Times,serif" font-size="14.00" fill="#000000">$0\counter[31:0]</text>
</g>
<!-- x10&#45;&gt;n3 -->
<g id="edge14" class="edge">
<title>x10:e&#45;&gt;n3:w</title>
<path fill="none" stroke="#1b9e77" stroke-width="3" d="M1112.4432,-180C1141.2144,-180 1150.8516,-180 1175.2878,-180"/>
<polygon fill="#1b9e77" stroke="#1b9e77" stroke-width="3" points="1175.4486,-183.5001 1185.4486,-180 1175.4485,-176.5001 1175.4486,-183.5001"/>
</g>
<!-- n1&#45;&gt;c20 -->
<g id="edge2" class="edge">
<title>n1:e&#45;&gt;c20:w</title>
<path fill="none" stroke="#e7298a" stroke-width="3" d="M911.1531,-180C962.2905,-180 966.3318,-227.9379 1011.2142,-234.3046"/>
<polygon fill="#e7298a" stroke="#e7298a" stroke-width="3" points="1011.2288,-237.8136 1021.4432,-235 1011.7036,-230.8297 1011.2288,-237.8136"/>
</g>
<!-- n1&#45;&gt;x10 -->
<g id="edge3" class="edge">
<title>n1:e&#45;&gt;x10:w</title>
<path fill="none" stroke="#e7298a" stroke-width="3" d="M911.1531,-180C973.0354,-180 991.0441,-180 1048.1277,-180"/>
<polygon fill="#e7298a" stroke="#e7298a" stroke-width="3" points="1048.4432,-183.5001 1058.4432,-180 1048.4431,-176.5001 1048.4432,-183.5001"/>
</g>
</g>
</svg>
