<?xml version="1.0" encoding="UTF-8" standalone="no"?>
<!DOCTYPE svg PUBLIC "-//W3C//DTD SVG 1.1//EN"
 "http://www.w3.org/Graphics/SVG/1.1/DTD/svg11.dtd">
<!-- Generated by graphviz version 2.40.1 (0)
 -->
<!-- Title: PWM Pages: 1 -->
<svg width="1322pt" height="271pt"
 viewBox="0.00 0.00 1321.83 270.80" xmlns="http://www.w3.org/2000/svg" xmlns:xlink="http://www.w3.org/1999/xlink">
<g id="graph0" class="graph" transform="scale(1 1) rotate(0) translate(4 266.8043)">
<title>PWM</title>
<polygon fill="#ffffff" stroke="transparent" points="-4,4 -4,-266.8043 1317.8264,-266.8043 1317.8264,4 -4,4"/>
<text text-anchor="middle" x="656.9132" y="-7.8" font-family="Times,serif" font-size="14.00" fill="#000000">PWM</text>
<!-- n2 -->
<g id="node1" class="node">
<title>n2</title>
<polygon fill="none" stroke="#000000" points="214.203,-213 161.9188,-195 214.203,-177 266.4871,-195 214.203,-213"/>
<text text-anchor="middle" x="214.203" y="-191.3" font-family="Times,serif" font-size="14.00" fill="#000000">_T_13</text>
</g>
<!-- c19 -->
<g id="node13" class="node">
<title>c19</title>
<polygon fill="none" stroke="#000000" points="315.8472,-121.5 315.8472,-190.5 424.8472,-190.5 424.8472,-121.5 315.8472,-121.5"/>
<text text-anchor="middle" x="329.3472" y="-175.3" font-family="Times,serif" font-size="14.00" fill="#000000">A</text>
<polyline fill="none" stroke="#000000" points="315.8472,-167.5 342.8472,-167.5 "/>
<text text-anchor="middle" x="329.3472" y="-152.3" font-family="Times,serif" font-size="14.00" fill="#000000">B</text>
<polyline fill="none" stroke="#000000" points="315.8472,-144.5 342.8472,-144.5 "/>
<text text-anchor="middle" x="329.3472" y="-129.3" font-family="Times,serif" font-size="14.00" fill="#000000">S</text>
<polyline fill="none" stroke="#000000" points="342.8472,-121.5 342.8472,-190.5 "/>
<text text-anchor="middle" x="370.8472" y="-159.8" font-family="Times,serif" font-size="14.00" fill="#000000">$118</text>
<text text-anchor="middle" x="370.8472" y="-144.8" font-family="Times,serif" font-size="14.00" fill="#000000">$mux</text>
<polyline fill="none" stroke="#000000" points="398.8472,-121.5 398.8472,-190.5 "/>
<text text-anchor="middle" x="411.8472" y="-152.3" font-family="Times,serif" font-size="14.00" fill="#000000">Y</text>
</g>
<!-- n2&#45;&gt;c19 -->
<g id="edge3" class="edge">
<title>n2:e&#45;&gt;c19:w</title>
<path fill="none" stroke="#e7298a" stroke-width="3" d="M266.203,-195C285.5814,-195 291.0533,-183.8193 305.8686,-180.1507"/>
<polygon fill="#e7298a" stroke="#e7298a" stroke-width="3" points="306.314,-183.6226 315.8472,-179 305.512,-176.6687 306.314,-183.6226"/>
</g>
<!-- n3 -->
<g id="node2" class="node">
<title>n3</title>
<polygon fill="none" stroke="#000000" points="984.7594,-135 932.4753,-117 984.7594,-99 1037.0436,-117 984.7594,-135"/>
<text text-anchor="middle" x="984.7594" y="-113.3" font-family="Times,serif" font-size="14.00" fill="#000000">_T_14</text>
</g>
<!-- c20 -->
<g id="node16" class="node">
<title>c20</title>
<polygon fill="none" stroke="#000000" points="1073.1514,-136.5 1073.1514,-205.5 1182.1514,-205.5 1182.1514,-136.5 1073.1514,-136.5"/>
<text text-anchor="middle" x="1086.6514" y="-190.3" font-family="Times,serif" font-size="14.00" fill="#000000">A</text>
<polyline fill="none" stroke="#000000" points="1073.1514,-182.5 1100.1514,-182.5 "/>
<text text-anchor="middle" x="1086.6514" y="-167.3" font-family="Times,serif" font-size="14.00" fill="#000000">B</text>
<polyline fill="none" stroke="#000000" points="1073.1514,-159.5 1100.1514,-159.5 "/>
<text text-anchor="middle" x="1086.6514" y="-144.3" font-family="Times,serif" font-size="14.00" fill="#000000">S</text>
<polyline fill="none" stroke="#000000" points="1100.1514,-136.5 1100.1514,-205.5 "/>
<text text-anchor="middle" x="1128.1514" y="-174.8" font-family="Times,serif" font-size="14.00" fill="#000000">$59</text>
<text text-anchor="middle" x="1128.1514" y="-159.8" font-family="Times,serif" font-size="14.00" fill="#000000">$mux</text>
<polyline fill="none" stroke="#000000" points="1156.1514,-136.5 1156.1514,-205.5 "/>
<text text-anchor="middle" x="1169.1514" y="-167.3" font-family="Times,serif" font-size="14.00" fill="#000000">Y</text>
</g>
<!-- n3&#45;&gt;c20 -->
<g id="edge5" class="edge">
<title>n3:e&#45;&gt;c20:w</title>
<path fill="none" stroke="#7570b3" d="M1036.7594,-117C1053.8566,-117 1053.2448,-137.0732 1063.4243,-144.9143"/>
<polygon fill="#7570b3" stroke="#7570b3" points="1062.5612,-148.3123 1073.1514,-148 1064.6779,-141.64 1062.5612,-148.3123"/>
</g>
<!-- n4 -->
<g id="node3" class="node">
<title>n4</title>
<polygon fill="none" stroke="#000000" points="93.3508,-233.5442 93.3508,-248.4558 71.6349,-259 40.9239,-259 19.208,-248.4558 19.208,-233.5442 40.9239,-223 71.6349,-223 93.3508,-233.5442"/>
<text text-anchor="middle" x="56.2794" y="-237.3" font-family="Times,serif" font-size="14.00" fill="#000000">clock</text>
</g>
<!-- c17 -->
<g id="node11" class="node">
<title>c17</title>
<polygon fill="none" stroke="#000000" points="460.8472,-182 460.8472,-228 588.8472,-228 588.8472,-182 460.8472,-182"/>
<text text-anchor="middle" x="484.3472" y="-212.8" font-family="Times,serif" font-size="14.00" fill="#000000">CLK</text>
<polyline fill="none" stroke="#000000" points="460.8472,-205 507.8472,-205 "/>
<text text-anchor="middle" x="484.3472" y="-189.8" font-family="Times,serif" font-size="14.00" fill="#000000">D</text>
<polyline fill="none" stroke="#000000" points="507.8472,-182 507.8472,-228 "/>
<text text-anchor="middle" x="534.3472" y="-208.8" font-family="Times,serif" font-size="14.00" fill="#000000">$449</text>
<text text-anchor="middle" x="534.3472" y="-193.8" font-family="Times,serif" font-size="14.00" fill="#000000">$dff</text>
<polyline fill="none" stroke="#000000" points="560.8472,-182 560.8472,-228 "/>
<text text-anchor="middle" x="574.8472" y="-201.3" font-family="Times,serif" font-size="14.00" fill="#000000">Q</text>
</g>
<!-- n4&#45;&gt;c17 -->
<g id="edge6" class="edge">
<title>n4:e&#45;&gt;c17:w</title>
<path fill="none" stroke="#e6ab02" d="M93.2794,-241C253.4735,-241 295.3538,-218.0202 450.4641,-217.0328"/>
<polygon fill="#e6ab02" stroke="#e6ab02" points="450.8583,-220.5316 460.8472,-217 450.8361,-213.5317 450.8583,-220.5316"/>
</g>
<!-- n5 -->
<g id="node4" class="node">
<title>n5</title>
<polygon fill="none" stroke="#000000" points="690.1073,-223 625.0861,-205 690.1073,-187 755.1285,-205 690.1073,-223"/>
<text text-anchor="middle" x="690.1073" y="-201.3" font-family="Times,serif" font-size="14.00" fill="#000000">counter</text>
</g>
<!-- c12 -->
<g id="node9" class="node">
<title>c12</title>
<polygon fill="none" stroke="#000000" points="791.3675,-170 791.3675,-216 896.3675,-216 896.3675,-170 791.3675,-170"/>
<text text-anchor="middle" x="804.8675" y="-200.8" font-family="Times,serif" font-size="14.00" fill="#000000">A</text>
<polyline fill="none" stroke="#000000" points="791.3675,-193 818.3675,-193 "/>
<text text-anchor="middle" x="804.8675" y="-177.8" font-family="Times,serif" font-size="14.00" fill="#000000">B</text>
<polyline fill="none" stroke="#000000" points="818.3675,-170 818.3675,-216 "/>
<text text-anchor="middle" x="844.3675" y="-196.8" font-family="Times,serif" font-size="14.00" fill="#000000">$57</text>
<text text-anchor="middle" x="844.3675" y="-181.8" font-family="Times,serif" font-size="14.00" fill="#000000">$add</text>
<polyline fill="none" stroke="#000000" points="870.3675,-170 870.3675,-216 "/>
<text text-anchor="middle" x="883.3675" y="-189.3" font-family="Times,serif" font-size="14.00" fill="#000000">Y</text>
</g>
<!-- n5&#45;&gt;c12 -->
<g id="edge8" class="edge">
<title>n5:e&#45;&gt;c12:w</title>
<path fill="none" stroke="#66a61e" stroke-width="3" d="M755.1073,-205C767.194,-205 772.482,-205 781.1693,-205"/>
<polygon fill="#66a61e" stroke="#66a61e" stroke-width="3" points="781.3675,-208.5001 791.3675,-205 781.3674,-201.5001 781.3675,-208.5001"/>
</g>
<!-- c13 -->
<g id="node10" class="node">
<title>c13</title>
<polygon fill="none" stroke="#000000" points="795.3675,-94 795.3675,-140 892.3675,-140 892.3675,-94 795.3675,-94"/>
<text text-anchor="middle" x="808.8675" y="-124.8" font-family="Times,serif" font-size="14.00" fill="#000000">A</text>
<polyline fill="none" stroke="#000000" points="795.3675,-117 822.3675,-117 "/>
<text text-anchor="middle" x="808.8675" y="-101.8" font-family="Times,serif" font-size="14.00" fill="#000000">B</text>
<polyline fill="none" stroke="#000000" points="822.3675,-94 822.3675,-140 "/>
<text text-anchor="middle" x="844.3675" y="-120.8" font-family="Times,serif" font-size="14.00" fill="#000000">$58</text>
<text text-anchor="middle" x="844.3675" y="-105.8" font-family="Times,serif" font-size="14.00" fill="#000000">$gt</text>
<polyline fill="none" stroke="#000000" points="866.3675,-94 866.3675,-140 "/>
<text text-anchor="middle" x="879.3675" y="-113.3" font-family="Times,serif" font-size="14.00" fill="#000000">Y</text>
</g>
<!-- n5&#45;&gt;c13 -->
<g id="edge9" class="edge">
<title>n5:e&#45;&gt;c13:w</title>
<path fill="none" stroke="#66a61e" stroke-width="3" d="M755.1073,-205C789.2077,-205 763.612,-144.1859 785.1203,-131.3579"/>
<polygon fill="#66a61e" stroke="#66a61e" stroke-width="3" points="785.9708,-134.7532 794.8675,-129 784.3249,-127.9494 785.9708,-134.7532"/>
</g>
<!-- n6 -->
<g id="node5" class="node">
<title>n6</title>
<polygon fill="none" stroke="#000000" points="1313.6644,-163.5442 1313.6644,-178.4558 1285.7368,-189 1246.241,-189 1218.3134,-178.4558 1218.3134,-163.5442 1246.241,-153 1285.7368,-153 1313.6644,-163.5442"/>
<text text-anchor="middle" x="1265.9889" y="-167.3" font-family="Times,serif" font-size="14.00" fill="#000000">io_high</text>
</g>
<!-- n7 -->
<g id="node6" class="node">
<title>n7</title>
<polygon fill="none" stroke="#000000" points="112.3391,-33.5442 112.3391,-48.4558 79.5001,-59 33.0587,-59 .2197,-48.4558 .2197,-33.5442 33.0587,-23 79.5001,-23 112.3391,-33.5442"/>
<text text-anchor="middle" x="56.2794" y="-37.3" font-family="Times,serif" font-size="14.00" fill="#000000">io_target</text>
</g>
<!-- n7&#45;&gt;c13 -->
<g id="edge11" class="edge">
<title>n7:e&#45;&gt;c13:w</title>
<path fill="none" stroke="#666666" stroke-width="3" d="M112.2794,-41C226.9762,-41 255.6504,-41 370.3472,-41 370.3472,-41 370.3472,-41 524.8472,-41 644.6882,-41 670.1307,-101.4263 784.6249,-104.8489"/>
<polygon fill="#666666" stroke="#666666" stroke-width="3" points="784.8169,-108.352 794.8675,-105 784.9202,-101.3528 784.8169,-108.352"/>
</g>
<!-- n8 -->
<g id="node7" class="node">
<title>n8</title>
<polygon fill="none" stroke="#000000" points="93.3508,-87.5442 93.3508,-102.4558 71.6349,-113 40.9239,-113 19.208,-102.4558 19.208,-87.5442 40.9239,-77 71.6349,-77 93.3508,-87.5442"/>
<text text-anchor="middle" x="56.2794" y="-91.3" font-family="Times,serif" font-size="14.00" fill="#000000">reset</text>
</g>
<!-- n8&#45;&gt;c19 -->
<g id="edge12" class="edge">
<title>n8:e&#45;&gt;c19:w</title>
<path fill="none" stroke="#7570b3" d="M93.2794,-95C176.6273,-95 200.0648,-89.8826 279.8472,-114 293.2413,-118.0489 296.6293,-127.2006 305.8474,-131.1396"/>
<polygon fill="#7570b3" stroke="#7570b3" points="305.3756,-134.6118 315.8472,-133 306.6561,-127.7299 305.3756,-134.6118"/>
</g>
<!-- v0 -->
<g id="node8" class="node">
<title>v0</title>
<ellipse fill="none" stroke="#000000" cx="690.1073" cy="-151" rx="27" ry="18"/>
<text text-anchor="middle" x="690.1073" y="-147.3" font-family="Times,serif" font-size="14.00" fill="#000000">1&#39;1</text>
</g>
<!-- v0&#45;&gt;c12 -->
<g id="edge13" class="edge">
<title>v0:e&#45;&gt;c12:w</title>
<path fill="none" stroke="#1b9e77" d="M717.1073,-151C748.9491,-151 754.7625,-175.0056 781.1138,-180.0693"/>
<polygon fill="#1b9e77" stroke="#1b9e77" points="781.092,-183.5816 791.3675,-181 781.7249,-176.6102 781.092,-183.5816"/>
</g>
<!-- c12&#45;&gt;n2 -->
<g id="edge2" class="edge">
<title>c12:e&#45;&gt;n2:w</title>
<path fill="none" stroke="#e7298a" stroke-width="3" d="M896.8675,-193C907.3119,-193 903.8391,-208.723 896.8675,-216.5 854.6381,-263.6078 818.4661,-227.4135 755.3675,-232 624.7869,-241.4917 591.6581,-243.4656 460.8472,-238 327.7683,-232.4396 252.3722,-311.0328 162.203,-213 160.0028,-210.608 158.27,-207.1888 157.5242,-203.9717"/>
<polygon fill="#e7298a" stroke="#e7298a" stroke-width="3" points="160.6823,-205.4851 162.203,-195 154.4756,-202.2483 160.6823,-205.4851"/>
</g>
<!-- c13&#45;&gt;n3 -->
<g id="edge4" class="edge">
<title>c13:e&#45;&gt;n3:w</title>
<path fill="none" stroke="#7570b3" d="M892.8675,-117C906.7189,-117 912.4542,-117 922.7548,-117"/>
<polygon fill="#7570b3" stroke="#7570b3" points="922.7595,-120.5001 932.7594,-117 922.7594,-113.5001 922.7595,-120.5001"/>
</g>
<!-- c17&#45;&gt;n5 -->
<g id="edge7" class="edge">
<title>c17:e&#45;&gt;n5:w</title>
<path fill="none" stroke="#66a61e" stroke-width="3" d="M588.8472,-205C600.9339,-205 606.2218,-205 614.9091,-205"/>
<polygon fill="#66a61e" stroke="#66a61e" stroke-width="3" points="615.1074,-208.5001 625.1073,-205 615.1073,-201.5001 615.1074,-208.5001"/>
</g>
<!-- v1 -->
<g id="node12" class="node">
<title>v1</title>
<ellipse fill="none" stroke="#000000" cx="214.203" cy="-141" rx="65.7887" ry="18"/>
<text text-anchor="middle" x="214.203" y="-137.3" font-family="Times,serif" font-size="14.00" fill="#000000">8&#39;00000000</text>
</g>
<!-- v1&#45;&gt;c19 -->
<g id="edge14" class="edge">
<title>v1:e&#45;&gt;c19:w</title>
<path fill="none" stroke="#e6ab02" stroke-width="3" d="M279.8472,-141C293.118,-141 297.0099,-149.7927 305.8844,-153.9143"/>
<polygon fill="#e6ab02" stroke="#e6ab02" stroke-width="3" points="305.3421,-157.3766 315.8472,-156 306.7765,-150.5251 305.3421,-157.3766"/>
</g>
<!-- c19&#45;&gt;c17 -->
<g id="edge1" class="edge">
<title>c19:e&#45;&gt;c17:w</title>
<path fill="none" stroke="#e7298a" stroke-width="3" d="M424.8472,-156C443.6683,-156 440.3966,-180.8978 451.2782,-189.8454"/>
<polygon fill="#e7298a" stroke="#e7298a" stroke-width="3" points="450.2541,-193.193 460.8472,-193 452.4458,-186.545 450.2541,-193.193"/>
</g>
<!-- v2 -->
<g id="node14" class="node">
<title>v2</title>
<ellipse fill="none" stroke="#000000" cx="984.7594" cy="-225" rx="27" ry="18"/>
<text text-anchor="middle" x="984.7594" y="-221.3" font-family="Times,serif" font-size="14.00" fill="#000000">1&#39;1</text>
</g>
<!-- v2&#45;&gt;c20 -->
<g id="edge15" class="edge">
<title>v2:e&#45;&gt;c20:w</title>
<path fill="none" stroke="#a6761d" d="M1011.7594,-225C1038.5052,-225 1042.0466,-201.2656 1062.9912,-195.332"/>
<polygon fill="#a6761d" stroke="#a6761d" points="1063.6913,-198.7703 1073.1514,-194 1062.7813,-191.8297 1063.6913,-198.7703"/>
</g>
<!-- v3 -->
<g id="node15" class="node">
<title>v3</title>
<ellipse fill="none" stroke="#000000" cx="984.7594" cy="-171" rx="27" ry="18"/>
<text text-anchor="middle" x="984.7594" y="-167.3" font-family="Times,serif" font-size="14.00" fill="#000000">1&#39;0</text>
</g>
<!-- v3&#45;&gt;c20 -->
<g id="edge16" class="edge">
<title>v3:e&#45;&gt;c20:w</title>
<path fill="none" stroke="#7570b3" d="M1011.7594,-171C1035.3143,-171 1043.6184,-171 1063.0031,-171"/>
<polygon fill="#7570b3" stroke="#7570b3" points="1063.1514,-174.5001 1073.1514,-171 1063.1514,-167.5001 1063.1514,-174.5001"/>
</g>
<!-- c20&#45;&gt;n6 -->
<g id="edge10" class="edge">
<title>c20:e&#45;&gt;n6:w</title>
<path fill="none" stroke="#d95f02" d="M1182.1514,-171C1194.1514,-171 1199.4014,-171 1208.0264,-171"/>
<polygon fill="#d95f02" stroke="#d95f02" points="1208.1514,-174.5001 1218.1514,-171 1208.1514,-167.5001 1208.1514,-174.5001"/>
</g>
</g>
</svg>
