<?xml version="1.0" encoding="UTF-8" standalone="no"?>
<!DOCTYPE svg PUBLIC "-//W3C//DTD SVG 1.1//EN"
 "http://www.w3.org/Graphics/SVG/1.1/DTD/svg11.dtd">
<!-- Generated by graphviz version 2.43.20190912.0211 (20190912.0211)
 -->
<!-- Title: PWM Pages: 1 -->
<svg width="1566pt" height="268pt"
 viewBox="0.00 0.00 1566.17 267.98" xmlns="http://www.w3.org/2000/svg" xmlns:xlink="http://www.w3.org/1999/xlink">
<g id="graph0" class="graph" transform="scale(1 1) rotate(0) translate(4 263.98)">
<title>PWM</title>
<polygon fill="white" stroke="transparent" points="-4,4 -4,-263.98 1562.17,-263.98 1562.17,4 -4,4"/>
<text text-anchor="middle" x="779.08" y="-7.8" font-family="Times,serif" font-size="14.00">PWM</text>
<!-- n2 -->
<g id="node1" class="node">
<title>n2</title>
<polygon fill="none" stroke="black" points="200.95,-213 148.67,-195 200.95,-177 253.23,-195 200.95,-213"/>
<text text-anchor="middle" x="200.95" y="-191.3" font-family="Times,serif" font-size="14.00">_T_13</text>
</g>
<!-- c19 -->
<g id="node13" class="node">
<title>c19</title>
<polygon fill="none" stroke="black" points="289.34,-121.5 289.34,-190.5 398.34,-190.5 398.34,-121.5 289.34,-121.5"/>
<text text-anchor="middle" x="302.84" y="-175.3" font-family="Times,serif" font-size="14.00">A</text>
<polyline fill="none" stroke="black" points="289.34,-167.5 316.34,-167.5 "/>
<text text-anchor="middle" x="302.84" y="-152.3" font-family="Times,serif" font-size="14.00">B</text>
<polyline fill="none" stroke="black" points="289.34,-144.5 316.34,-144.5 "/>
<text text-anchor="middle" x="302.84" y="-129.3" font-family="Times,serif" font-size="14.00">S</text>
<polyline fill="none" stroke="black" points="316.34,-121.5 316.34,-190.5 "/>
<text text-anchor="middle" x="344.34" y="-159.8" font-family="Times,serif" font-size="14.00">$273</text>
<text text-anchor="middle" x="344.34" y="-144.8" font-family="Times,serif" font-size="14.00">$mux</text>
<polyline fill="none" stroke="black" points="372.34,-121.5 372.34,-190.5 "/>
<text text-anchor="middle" x="385.34" y="-152.3" font-family="Times,serif" font-size="14.00">Y</text>
</g>
<!-- n2&#45;&gt;c19 -->
<g id="edge3" class="edge">
<title>n2:e&#45;&gt;c19:w</title>
<path fill="none" stroke="#e7298a" stroke-width="3" d="M253.34,-195C266.75,-195 270.47,-185.62 279.33,-181.22"/>
<polygon fill="#e7298a" stroke="#e7298a" stroke-width="3" points="280.34,-184.59 289.34,-179 278.82,-177.75 280.34,-184.59"/>
</g>
<!-- n3 -->
<g id="node2" class="node">
<title>n3</title>
<polygon fill="none" stroke="black" points="1229.1,-135 1176.82,-117 1229.1,-99 1281.38,-117 1229.1,-135"/>
<text text-anchor="middle" x="1229.1" y="-113.3" font-family="Times,serif" font-size="14.00">_T_14</text>
</g>
<!-- c20 -->
<g id="node16" class="node">
<title>c20</title>
<polygon fill="none" stroke="black" points="1317.49,-136.5 1317.49,-205.5 1426.49,-205.5 1426.49,-136.5 1317.49,-136.5"/>
<text text-anchor="middle" x="1330.99" y="-190.3" font-family="Times,serif" font-size="14.00">A</text>
<polyline fill="none" stroke="black" points="1317.49,-182.5 1344.49,-182.5 "/>
<text text-anchor="middle" x="1330.99" y="-167.3" font-family="Times,serif" font-size="14.00">B</text>
<polyline fill="none" stroke="black" points="1317.49,-159.5 1344.49,-159.5 "/>
<text text-anchor="middle" x="1330.99" y="-144.3" font-family="Times,serif" font-size="14.00">S</text>
<polyline fill="none" stroke="black" points="1344.49,-136.5 1344.49,-205.5 "/>
<text text-anchor="middle" x="1372.49" y="-174.8" font-family="Times,serif" font-size="14.00">$216</text>
<text text-anchor="middle" x="1372.49" y="-159.8" font-family="Times,serif" font-size="14.00">$mux</text>
<polyline fill="none" stroke="black" points="1400.49,-136.5 1400.49,-205.5 "/>
<text text-anchor="middle" x="1413.49" y="-167.3" font-family="Times,serif" font-size="14.00">Y</text>
</g>
<!-- n3&#45;&gt;c20 -->
<g id="edge5" class="edge">
<title>n3:e&#45;&gt;c20:w</title>
<path fill="none" stroke="#7570b3" d="M1281.49,-117C1298.48,-117 1297.77,-137.07 1307.84,-144.91"/>
<polygon fill="#7570b3" stroke="#7570b3" points="1306.9,-148.29 1317.49,-148 1309.03,-141.62 1306.9,-148.29"/>
</g>
<!-- n4 -->
<g id="node3" class="node">
<title>n4</title>
<polygon fill="none" stroke="black" points="93.35,-233.54 93.35,-248.46 71.63,-259 40.92,-259 19.21,-248.46 19.21,-233.54 40.92,-223 71.63,-223 93.35,-233.54"/>
<text text-anchor="middle" x="56.28" y="-237.3" font-family="Times,serif" font-size="14.00">clock</text>
</g>
<!-- c17 -->
<g id="node11" class="node">
<title>c17</title>
<polygon fill="none" stroke="black" points="434.34,-182 434.34,-228 562.34,-228 562.34,-182 434.34,-182"/>
<text text-anchor="middle" x="457.84" y="-212.8" font-family="Times,serif" font-size="14.00">CLK</text>
<polyline fill="none" stroke="black" points="434.34,-205 481.34,-205 "/>
<text text-anchor="middle" x="457.84" y="-189.8" font-family="Times,serif" font-size="14.00">D</text>
<polyline fill="none" stroke="black" points="481.34,-182 481.34,-228 "/>
<text text-anchor="middle" x="507.84" y="-208.8" font-family="Times,serif" font-size="14.00">$706</text>
<text text-anchor="middle" x="507.84" y="-193.8" font-family="Times,serif" font-size="14.00">$dff</text>
<polyline fill="none" stroke="black" points="534.34,-182 534.34,-228 "/>
<text text-anchor="middle" x="548.34" y="-201.3" font-family="Times,serif" font-size="14.00">Q</text>
</g>
<!-- n4&#45;&gt;c17 -->
<g id="edge6" class="edge">
<title>n4:e&#45;&gt;c17:w</title>
<path fill="none" stroke="#e6ab02" d="M94.28,-241C242.39,-241 281.11,-218.07 424.3,-217.04"/>
<polygon fill="#e6ab02" stroke="#e6ab02" points="424.36,-220.54 434.34,-217 424.33,-213.54 424.36,-220.54"/>
</g>
<!-- n5 -->
<g id="node4" class="node">
<title>n5</title>
<polygon fill="none" stroke="black" points="798.52,-223 733.5,-205 798.52,-187 863.55,-205 798.52,-223"/>
<text text-anchor="middle" x="798.52" y="-201.3" font-family="Times,serif" font-size="14.00">counter</text>
</g>
<!-- c12 -->
<g id="node9" class="node">
<title>c12</title>
<polygon fill="none" stroke="black" points="1034.71,-170 1034.71,-216 1140.71,-216 1140.71,-170 1034.71,-170"/>
<text text-anchor="middle" x="1048.21" y="-200.8" font-family="Times,serif" font-size="14.00">A</text>
<polyline fill="none" stroke="black" points="1034.71,-193 1061.71,-193 "/>
<text text-anchor="middle" x="1048.21" y="-177.8" font-family="Times,serif" font-size="14.00">B</text>
<polyline fill="none" stroke="black" points="1061.71,-170 1061.71,-216 "/>
<text text-anchor="middle" x="1088.21" y="-196.8" font-family="Times,serif" font-size="14.00">$214</text>
<text text-anchor="middle" x="1088.21" y="-181.8" font-family="Times,serif" font-size="14.00">$add</text>
<polyline fill="none" stroke="black" points="1114.71,-170 1114.71,-216 "/>
<text text-anchor="middle" x="1127.71" y="-189.3" font-family="Times,serif" font-size="14.00">Y</text>
</g>
<!-- n5&#45;&gt;c12 -->
<g id="edge8" class="edge">
<title>n5:e&#45;&gt;c12:w</title>
<path fill="none" stroke="#66a61e" stroke-width="3" d="M864.52,-205C936.62,-205 957.17,-205 1024.43,-205"/>
<polygon fill="#66a61e" stroke="#66a61e" stroke-width="3" points="1024.71,-208.5 1034.71,-205 1024.71,-201.5 1024.71,-208.5"/>
</g>
<!-- c13 -->
<g id="node10" class="node">
<title>c13</title>
<polygon fill="none" stroke="black" points="1034.71,-94 1034.71,-140 1140.71,-140 1140.71,-94 1034.71,-94"/>
<text text-anchor="middle" x="1048.21" y="-124.8" font-family="Times,serif" font-size="14.00">A</text>
<polyline fill="none" stroke="black" points="1034.71,-117 1061.71,-117 "/>
<text text-anchor="middle" x="1048.21" y="-101.8" font-family="Times,serif" font-size="14.00">B</text>
<polyline fill="none" stroke="black" points="1061.71,-94 1061.71,-140 "/>
<text text-anchor="middle" x="1088.21" y="-120.8" font-family="Times,serif" font-size="14.00">$215</text>
<text text-anchor="middle" x="1088.21" y="-105.8" font-family="Times,serif" font-size="14.00">$gt</text>
<polyline fill="none" stroke="black" points="1114.71,-94 1114.71,-140 "/>
<text text-anchor="middle" x="1127.71" y="-113.3" font-family="Times,serif" font-size="14.00">Y</text>
</g>
<!-- n5&#45;&gt;c13 -->
<g id="edge9" class="edge">
<title>n5:e&#45;&gt;c13:w</title>
<path fill="none" stroke="#66a61e" stroke-width="3" d="M864.52,-205C925.36,-205 947.42,-210.72 998.71,-178 1017.93,-165.74 1011.1,-139.28 1024.74,-131.32"/>
<polygon fill="#66a61e" stroke="#66a61e" stroke-width="3" points="1025.76,-134.67 1034.71,-129 1024.17,-127.85 1025.76,-134.67"/>
</g>
<!-- n6 -->
<g id="node5" class="node">
<title>n6</title>
<polygon fill="none" stroke="black" points="1558,-163.54 1558,-178.46 1530.08,-189 1490.58,-189 1462.65,-178.46 1462.65,-163.54 1490.58,-153 1530.08,-153 1558,-163.54"/>
<text text-anchor="middle" x="1510.33" y="-167.3" font-family="Times,serif" font-size="14.00">io_high</text>
</g>
<!-- n7 -->
<g id="node6" class="node">
<title>n7</title>
<polygon fill="none" stroke="black" points="112.34,-33.54 112.34,-48.46 79.5,-59 33.06,-59 0.22,-48.46 0.22,-33.54 33.06,-23 79.5,-23 112.34,-33.54"/>
<text text-anchor="middle" x="56.28" y="-37.3" font-family="Times,serif" font-size="14.00">io_target</text>
</g>
<!-- n7&#45;&gt;c13 -->
<g id="edge11" class="edge">
<title>n7:e&#45;&gt;c13:w</title>
<path fill="none" stroke="#666666" stroke-width="3" d="M112.56,-41C214.91,-41 240.49,-41 342.84,-41 342.84,-41 342.84,-41 499.34,-41 735.58,-41 793.45,-103.2 1024.64,-104.96"/>
<polygon fill="#666666" stroke="#666666" stroke-width="3" points="1024.69,-108.46 1034.71,-105 1024.72,-101.46 1024.69,-108.46"/>
</g>
<!-- n8 -->
<g id="node7" class="node">
<title>n8</title>
<polygon fill="none" stroke="black" points="93.35,-87.54 93.35,-102.46 71.63,-113 40.92,-113 19.21,-102.46 19.21,-87.54 40.92,-77 71.63,-77 93.35,-87.54"/>
<text text-anchor="middle" x="56.28" y="-91.3" font-family="Times,serif" font-size="14.00">reset</text>
</g>
<!-- n8&#45;&gt;c19 -->
<g id="edge12" class="edge">
<title>n8:e&#45;&gt;c19:w</title>
<path fill="none" stroke="#7570b3" d="M94.28,-95C165.48,-95 185.37,-92.81 253.34,-114 266.7,-118.17 270.11,-127.25 279.34,-131.16"/>
<polygon fill="#7570b3" stroke="#7570b3" points="278.87,-134.63 289.34,-133 280.14,-127.75 278.87,-134.63"/>
</g>
<!-- v0 -->
<g id="node8" class="node">
<title>v0</title>
<ellipse fill="none" stroke="black" cx="798.52" cy="-151" rx="200.36" ry="18"/>
<text text-anchor="middle" x="798.52" y="-147.3" font-family="Times,serif" font-size="14.00">30&#39;110000001100000011000000110000</text>
</g>
<!-- v0&#45;&gt;c12 -->
<g id="edge13" class="edge">
<title>v0:e&#45;&gt;c12:w</title>
<path fill="none" stroke="#1b9e77" stroke-width="3" d="M998.71,-151C1015.47,-151 1015.08,-170.43 1025.14,-178.01"/>
<polygon fill="#1b9e77" stroke="#1b9e77" stroke-width="3" points="1024.12,-181.36 1034.71,-181 1026.2,-174.68 1024.12,-181.36"/>
</g>
<!-- c12&#45;&gt;n2 -->
<g id="edge2" class="edge">
<title>c12:e&#45;&gt;n2:w</title>
<path fill="none" stroke="#e7298a" stroke-width="3" d="M1141.71,-193C1152.16,-193 1147.85,-208.87 1140.71,-216.5 1097.33,-262.85 1062.07,-228.11 998.71,-232 830.73,-242.3 562.37,-243.6 434.34,-238 307.14,-232.44 237.54,-304.46 148.95,-213 146.77,-210.75 144.92,-207.51 143.95,-204.4"/>
<polygon fill="#e7298a" stroke="#e7298a" stroke-width="3" points="147.26,-205.57 147.95,-195 140.82,-202.83 147.26,-205.57"/>
</g>
<!-- c13&#45;&gt;n3 -->
<g id="edge4" class="edge">
<title>c13:e&#45;&gt;n3:w</title>
<path fill="none" stroke="#7570b3" d="M1140.71,-117C1152.71,-117 1157.96,-117 1166.58,-117"/>
<polygon fill="#7570b3" stroke="#7570b3" points="1166.71,-120.5 1176.71,-117 1166.71,-113.5 1166.71,-120.5"/>
</g>
<!-- c17&#45;&gt;n5 -->
<g id="edge7" class="edge">
<title>c17:e&#45;&gt;n5:w</title>
<path fill="none" stroke="#66a61e" stroke-width="3" d="M562.34,-205C634.43,-205 654.99,-205 722.25,-205"/>
<polygon fill="#66a61e" stroke="#66a61e" stroke-width="3" points="722.53,-208.5 732.52,-205 722.52,-201.5 722.53,-208.5"/>
</g>
<!-- v1 -->
<g id="node12" class="node">
<title>v1</title>
<ellipse fill="none" stroke="black" cx="200.95" cy="-141" rx="27" ry="18"/>
<text text-anchor="middle" x="200.95" y="-137.3" font-family="Times,serif" font-size="14.00">0</text>
</g>
<!-- v1&#45;&gt;c19 -->
<g id="edge14" class="edge">
<title>v1:e&#45;&gt;c19:w</title>
<path fill="none" stroke="#e6ab02" stroke-width="3" d="M228.95,-141C252.83,-141 259.88,-152.18 279.15,-155.24"/>
<polygon fill="#e6ab02" stroke="#e6ab02" stroke-width="3" points="279.11,-158.74 289.34,-156 279.63,-151.76 279.11,-158.74"/>
</g>
<!-- c19&#45;&gt;c17 -->
<g id="edge1" class="edge">
<title>c19:e&#45;&gt;c17:w</title>
<path fill="none" stroke="#e7298a" stroke-width="3" d="M398.34,-156C417.16,-156 413.89,-180.9 424.77,-189.85"/>
<polygon fill="#e7298a" stroke="#e7298a" stroke-width="3" points="423.75,-193.19 434.34,-193 425.94,-186.54 423.75,-193.19"/>
</g>
<!-- v2 -->
<g id="node14" class="node">
<title>v2</title>
<ellipse fill="none" stroke="black" cx="1229.1" cy="-225" rx="27" ry="18"/>
<text text-anchor="middle" x="1229.1" y="-221.3" font-family="Times,serif" font-size="14.00">1&#39;1</text>
</g>
<!-- v2&#45;&gt;c20 -->
<g id="edge15" class="edge">
<title>v2:e&#45;&gt;c20:w</title>
<path fill="none" stroke="#a6761d" d="M1257.1,-225C1283.5,-225 1286.84,-201.27 1307.47,-195.33"/>
<polygon fill="#a6761d" stroke="#a6761d" points="1308.04,-198.79 1317.49,-194 1307.12,-191.85 1308.04,-198.79"/>
</g>
<!-- v3 -->
<g id="node15" class="node">
<title>v3</title>
<ellipse fill="none" stroke="black" cx="1229.1" cy="-171" rx="27" ry="18"/>
<text text-anchor="middle" x="1229.1" y="-167.3" font-family="Times,serif" font-size="14.00">1&#39;0</text>
</g>
<!-- v3&#45;&gt;c20 -->
<g id="edge16" class="edge">
<title>v3:e&#45;&gt;c20:w</title>
<path fill="none" stroke="#7570b3" d="M1257.1,-171C1280.17,-171 1288.36,-171 1307.25,-171"/>
<polygon fill="#7570b3" stroke="#7570b3" points="1307.49,-174.5 1317.49,-171 1307.49,-167.5 1307.49,-174.5"/>
</g>
<!-- c20&#45;&gt;n6 -->
<g id="edge10" class="edge">
<title>c20:e&#45;&gt;n6:w</title>
<path fill="none" stroke="#d95f02" d="M1426.49,-171C1438.49,-171 1443.74,-171 1452.37,-171"/>
<polygon fill="#d95f02" stroke="#d95f02" points="1452.49,-174.5 1462.49,-171 1452.49,-167.5 1452.49,-174.5"/>
</g>
</g>
</svg>
