<?xml version="1.0" encoding="UTF-8" standalone="no"?>
<!DOCTYPE svg PUBLIC "-//W3C//DTD SVG 1.1//EN"
 "http://www.w3.org/Graphics/SVG/1.1/DTD/svg11.dtd">
<!-- Generated by graphviz version 2.43.20190912.0211 (20190912.0211)
 -->
<!-- Title: Sawtooth Pages: 1 -->
<svg width="1599pt" height="497pt"
 viewBox="0.00 0.00 1599.31 497.00" xmlns="http://www.w3.org/2000/svg" xmlns:xlink="http://www.w3.org/1999/xlink">
<g id="graph0" class="graph" transform="scale(1 1) rotate(0) translate(4 493)">
<title>Sawtooth</title>
<polygon fill="white" stroke="transparent" points="-4,4 -4,-493 1595.31,-493 1595.31,4 -4,4"/>
<text text-anchor="middle" x="795.65" y="-7.8" font-family="Times,serif" font-size="14.00">Sawtooth</text>
<!-- n1 -->
<g id="node1" class="node">
<title>n1</title>
<polygon fill="none" stroke="black" points="492.15,-418.5 424.95,-400.5 492.15,-382.5 559.34,-400.5 492.15,-418.5"/>
<text text-anchor="middle" x="492.15" y="-396.8" font-family="Times,serif" font-size="14.00">_GEN_0</text>
</g>
<!-- n2 -->
<g id="node2" class="node">
<title>n2</title>
<polygon fill="none" stroke="black" points="492.15,-64.5 424.95,-46.5 492.15,-28.5 559.34,-46.5 492.15,-64.5"/>
<text text-anchor="middle" x="492.15" y="-42.8" font-family="Times,serif" font-size="14.00">_GEN_1</text>
</g>
<!-- n3 -->
<g id="node3" class="node">
<title>n3</title>
<polygon fill="none" stroke="black" points="492.15,-249.5 424.95,-231.5 492.15,-213.5 559.34,-231.5 492.15,-249.5"/>
<text text-anchor="middle" x="492.15" y="-227.8" font-family="Times,serif" font-size="14.00">_GEN_2</text>
</g>
<!-- n4 -->
<g id="node4" class="node">
<title>n4</title>
<polygon fill="none" stroke="black" points="492.15,-483.5 439.86,-465.5 492.15,-447.5 544.43,-465.5 492.15,-483.5"/>
<text text-anchor="middle" x="492.15" y="-461.8" font-family="Times,serif" font-size="14.00">_T_13</text>
</g>
<!-- n5 -->
<g id="node5" class="node">
<title>n5</title>
<polygon fill="none" stroke="black" points="1050.52,-285.5 998.23,-267.5 1050.52,-249.5 1102.8,-267.5 1050.52,-285.5"/>
<text text-anchor="middle" x="1050.52" y="-263.8" font-family="Times,serif" font-size="14.00">_T_14</text>
</g>
<!-- x9 -->
<g id="node28" class="node">
<title>x9</title>
<path fill="none" stroke="black" d="M1150.91,-150.5C1150.91,-150.5 1237.91,-150.5 1237.91,-150.5 1243.91,-150.5 1249.91,-156.5 1249.91,-162.5 1249.91,-162.5 1249.91,-184.5 1249.91,-184.5 1249.91,-190.5 1243.91,-196.5 1237.91,-196.5 1237.91,-196.5 1150.91,-196.5 1150.91,-196.5 1144.91,-196.5 1138.91,-190.5 1138.91,-184.5 1138.91,-184.5 1138.91,-162.5 1138.91,-162.5 1138.91,-156.5 1144.91,-150.5 1150.91,-150.5"/>
<text text-anchor="middle" x="1194.41" y="-181.3" font-family="Times,serif" font-size="14.00">33:33 &#45; 33:33</text>
<polyline fill="none" stroke="black" points="1138.91,-173.5 1249.91,-173.5 "/>
<text text-anchor="middle" x="1194.41" y="-158.3" font-family="Times,serif" font-size="14.00">32:0 &#45; 32:0</text>
</g>
<!-- n5&#45;&gt;x9 -->
<g id="edge23" class="edge">
<title>n5:e&#45;&gt;x9:w</title>
<path fill="none" stroke="#1b9e77" d="M1102.91,-267.5C1138.67,-267.5 1107.1,-201.31 1129.19,-187.87"/>
<polygon fill="#1b9e77" stroke="#1b9e77" points="1130.02,-191.27 1138.91,-185.5 1128.36,-184.46 1130.02,-191.27"/>
</g>
<!-- n6 -->
<g id="node6" class="node">
<title>n6</title>
<polygon fill="none" stroke="black" points="1338.3,-191.5 1286.02,-173.5 1338.3,-155.5 1390.58,-173.5 1338.3,-191.5"/>
<text text-anchor="middle" x="1338.3" y="-169.8" font-family="Times,serif" font-size="14.00">_T_15</text>
</g>
<!-- n7 -->
<g id="node7" class="node">
<title>n7</title>
<polygon fill="none" stroke="black" points="707.68,-288.5 655.4,-270.5 707.68,-252.5 759.97,-270.5 707.68,-288.5"/>
<text text-anchor="middle" x="707.68" y="-266.8" font-family="Times,serif" font-size="14.00">_T_16</text>
</g>
<!-- c20 -->
<g id="node20" class="node">
<title>c20</title>
<polygon fill="none" stroke="black" points="856.12,-307.5 856.12,-353.5 962.12,-353.5 962.12,-307.5 856.12,-307.5"/>
<text text-anchor="middle" x="869.62" y="-338.3" font-family="Times,serif" font-size="14.00">A</text>
<polyline fill="none" stroke="black" points="856.12,-330.5 883.12,-330.5 "/>
<text text-anchor="middle" x="869.62" y="-315.3" font-family="Times,serif" font-size="14.00">B</text>
<polyline fill="none" stroke="black" points="883.12,-307.5 883.12,-353.5 "/>
<text text-anchor="middle" x="909.62" y="-334.3" font-family="Times,serif" font-size="14.00">$80</text>
<text text-anchor="middle" x="909.62" y="-319.3" font-family="Times,serif" font-size="14.00">$mul</text>
<polyline fill="none" stroke="black" points="936.12,-307.5 936.12,-353.5 "/>
<text text-anchor="middle" x="949.12" y="-326.8" font-family="Times,serif" font-size="14.00">Y</text>
</g>
<!-- n7&#45;&gt;c20 -->
<g id="edge26" class="edge">
<title>n7:e&#45;&gt;c20:w</title>
<path fill="none" stroke="#7570b3" stroke-width="3" d="M760.68,-270.5C804.46,-270.5 808.28,-311.29 845.81,-317.67"/>
<polygon fill="#7570b3" stroke="#7570b3" stroke-width="3" points="845.88,-321.18 856.12,-318.5 846.44,-314.21 845.88,-321.18"/>
</g>
<!-- x8 -->
<g id="node27" class="node">
<title>x8</title>
<path fill="none" stroke="black" d="M874.62,-252.5C874.62,-252.5 943.62,-252.5 943.62,-252.5 949.62,-252.5 955.62,-258.5 955.62,-264.5 955.62,-264.5 955.62,-276.5 955.62,-276.5 955.62,-282.5 949.62,-288.5 943.62,-288.5 943.62,-288.5 874.62,-288.5 874.62,-288.5 868.62,-288.5 862.62,-282.5 862.62,-276.5 862.62,-276.5 862.62,-264.5 862.62,-264.5 862.62,-258.5 868.62,-252.5 874.62,-252.5"/>
<text text-anchor="middle" x="909.12" y="-266.8" font-family="Times,serif" font-size="14.00">32:0 &#45; 32:0</text>
</g>
<!-- n7&#45;&gt;x8 -->
<g id="edge28" class="edge">
<title>n7:e&#45;&gt;x8:w</title>
<path fill="none" stroke="#7570b3" stroke-width="3" d="M760.68,-270.5C801.66,-270.5 814.43,-270.5 850.78,-270.5"/>
<polygon fill="#7570b3" stroke="#7570b3" stroke-width="3" points="851.12,-274 861.12,-270.5 851.12,-267 851.12,-274"/>
</g>
<!-- n7&#45;&gt;x9 -->
<g id="edge29" class="edge">
<title>n7:e&#45;&gt;x9:w</title>
<path fill="none" stroke="#7570b3" stroke-width="3" d="M760.68,-270.5C819.91,-270.5 801.91,-201.35 856.12,-177.5 968.2,-128.19 1010.69,-159.67 1128.77,-161.42"/>
<polygon fill="#7570b3" stroke="#7570b3" stroke-width="3" points="1128.88,-164.93 1138.91,-161.5 1128.94,-157.93 1128.88,-164.93"/>
</g>
<!-- x10 -->
<g id="node29" class="node">
<title>x10</title>
<path fill="none" stroke="black" d="M874.62,-187.5C874.62,-187.5 943.62,-187.5 943.62,-187.5 949.62,-187.5 955.62,-193.5 955.62,-199.5 955.62,-199.5 955.62,-221.5 955.62,-221.5 955.62,-227.5 949.62,-233.5 943.62,-233.5 943.62,-233.5 874.62,-233.5 874.62,-233.5 868.62,-233.5 862.62,-227.5 862.62,-221.5 862.62,-221.5 862.62,-199.5 862.62,-199.5 862.62,-193.5 868.62,-187.5 874.62,-187.5"/>
<text text-anchor="middle" x="909.12" y="-218.3" font-family="Times,serif" font-size="14.00">0 &#45;&gt; 33:33</text>
<polyline fill="none" stroke="black" points="862.62,-210.5 955.62,-210.5 "/>
<text text-anchor="middle" x="909.12" y="-195.3" font-family="Times,serif" font-size="14.00">32:0 &#45; 32:0</text>
</g>
<!-- n7&#45;&gt;x10 -->
<g id="edge27" class="edge">
<title>n7:e&#45;&gt;x10:w</title>
<path fill="none" stroke="#7570b3" stroke-width="3" d="M760.68,-270.5C811.96,-270.5 807.17,-207.74 851,-199.41"/>
<polygon fill="#7570b3" stroke="#7570b3" stroke-width="3" points="851.48,-202.88 861.12,-198.5 850.85,-195.91 851.48,-202.88"/>
</g>
<!-- n8 -->
<g id="node8" class="node">
<title>n8</title>
<polygon fill="none" stroke="black" points="1050.52,-228.5 998.23,-210.5 1050.52,-192.5 1102.8,-210.5 1050.52,-228.5"/>
<text text-anchor="middle" x="1050.52" y="-206.8" font-family="Times,serif" font-size="14.00">_T_18</text>
</g>
<!-- n9 -->
<g id="node9" class="node">
<title>n9</title>
<polygon fill="none" stroke="black" points="1050.52,-343.5 998.23,-325.5 1050.52,-307.5 1102.8,-325.5 1050.52,-343.5"/>
<text text-anchor="middle" x="1050.52" y="-321.8" font-family="Times,serif" font-size="14.00">_T_19</text>
</g>
<!-- x0 -->
<g id="node17" class="node">
<title>x0</title>
<path fill="none" stroke="black" d="M1159.91,-234.5C1159.91,-234.5 1228.91,-234.5 1228.91,-234.5 1234.91,-234.5 1240.91,-240.5 1240.91,-246.5 1240.91,-246.5 1240.91,-268.5 1240.91,-268.5 1240.91,-274.5 1234.91,-280.5 1228.91,-280.5 1228.91,-280.5 1159.91,-280.5 1159.91,-280.5 1153.91,-280.5 1147.91,-274.5 1147.91,-268.5 1147.91,-268.5 1147.91,-246.5 1147.91,-246.5 1147.91,-240.5 1153.91,-234.5 1159.91,-234.5"/>
<text text-anchor="middle" x="1194.41" y="-265.3" font-family="Times,serif" font-size="14.00">0 &#45;&gt; 49:48</text>
<polyline fill="none" stroke="black" points="1147.91,-257.5 1240.91,-257.5 "/>
<text text-anchor="middle" x="1194.41" y="-242.3" font-family="Times,serif" font-size="14.00">47:0 &#45; 47:0</text>
</g>
<!-- n9&#45;&gt;x0 -->
<g id="edge32" class="edge">
<title>n9:e&#45;&gt;x0:w</title>
<path fill="none" stroke="#d95f02" stroke-width="3" d="M1102.91,-325.5C1139.43,-325.5 1112.51,-260.36 1136.64,-247.64"/>
<polygon fill="#d95f02" stroke="#d95f02" stroke-width="3" points="1137.39,-251.06 1146.41,-245.5 1135.89,-244.22 1137.39,-251.06"/>
</g>
<!-- x4 -->
<g id="node23" class="node">
<title>x4</title>
<path fill="none" stroke="black" d="M1209.41,-391.5C1209.41,-391.5 1179.41,-391.5 1179.41,-391.5 1173.41,-391.5 1167.41,-385.5 1167.41,-379.5 1167.41,-379.5 1167.41,-367.5 1167.41,-367.5 1167.41,-361.5 1173.41,-355.5 1179.41,-355.5 1179.41,-355.5 1209.41,-355.5 1209.41,-355.5 1215.41,-355.5 1221.41,-361.5 1221.41,-367.5 1221.41,-367.5 1221.41,-379.5 1221.41,-379.5 1221.41,-385.5 1215.41,-391.5 1209.41,-391.5"/>
<text text-anchor="middle" x="1194.41" y="-369.8" font-family="Times,serif" font-size="14.00">BUF</text>
</g>
<!-- n9&#45;&gt;x4 -->
<g id="edge34" class="edge">
<title>n9:e&#45;&gt;x4:w</title>
<path fill="none" stroke="#d95f02" stroke-width="3" d="M1102.91,-325.5C1134.42,-325.5 1132.11,-363.57 1156.22,-371.9"/>
<polygon fill="#d95f02" stroke="#d95f02" stroke-width="3" points="1155.99,-375.41 1166.41,-373.5 1157.07,-368.49 1155.99,-375.41"/>
</g>
<!-- x12 -->
<g id="node31" class="node">
<title>x12</title>
<path fill="none" stroke="black" d="M1209.41,-337.5C1209.41,-337.5 1179.41,-337.5 1179.41,-337.5 1173.41,-337.5 1167.41,-331.5 1167.41,-325.5 1167.41,-325.5 1167.41,-313.5 1167.41,-313.5 1167.41,-307.5 1173.41,-301.5 1179.41,-301.5 1179.41,-301.5 1209.41,-301.5 1209.41,-301.5 1215.41,-301.5 1221.41,-307.5 1221.41,-313.5 1221.41,-313.5 1221.41,-325.5 1221.41,-325.5 1221.41,-331.5 1215.41,-337.5 1209.41,-337.5"/>
<text text-anchor="middle" x="1194.41" y="-315.8" font-family="Times,serif" font-size="14.00">BUF</text>
</g>
<!-- n9&#45;&gt;x12 -->
<g id="edge33" class="edge">
<title>n9:e&#45;&gt;x12:w</title>
<path fill="none" stroke="#d95f02" stroke-width="3" d="M1102.91,-325.5C1127.49,-325.5 1135.87,-320.99 1156.15,-319.79"/>
<polygon fill="#d95f02" stroke="#d95f02" stroke-width="3" points="1156.51,-323.28 1166.41,-319.5 1156.31,-316.28 1156.51,-323.28"/>
</g>
<!-- n10 -->
<g id="node10" class="node">
<title>n10</title>
<polygon fill="none" stroke="black" points="1338.3,-337.5 1286.02,-319.5 1338.3,-301.5 1390.58,-319.5 1338.3,-337.5"/>
<text text-anchor="middle" x="1338.3" y="-315.8" font-family="Times,serif" font-size="14.00">_T_20</text>
</g>
<!-- n11 -->
<g id="node11" class="node">
<title>n11</title>
<polygon fill="none" stroke="black" points="1338.3,-391.5 1286.02,-373.5 1338.3,-355.5 1390.58,-373.5 1338.3,-391.5"/>
<text text-anchor="middle" x="1338.3" y="-369.8" font-family="Times,serif" font-size="14.00">_T_21</text>
</g>
<!-- n12 -->
<g id="node12" class="node">
<title>n12</title>
<polygon fill="none" stroke="black" points="492.15,-189.5 439.86,-171.5 492.15,-153.5 544.43,-171.5 492.15,-189.5"/>
<text text-anchor="middle" x="492.15" y="-167.8" font-family="Times,serif" font-size="14.00">_T_22</text>
</g>
<!-- n13 -->
<g id="node13" class="node">
<title>n13</title>
<polygon fill="none" stroke="black" points="1591.12,-233.04 1591.12,-247.96 1543.02,-258.5 1474.99,-258.5 1426.88,-247.96 1426.88,-233.04 1474.99,-222.5 1543.02,-222.5 1591.12,-233.04"/>
<text text-anchor="middle" x="1509" y="-236.8" font-family="Times,serif" font-size="14.00">io_sample_out</text>
</g>
<!-- n14 -->
<g id="node14" class="node">
<title>n14</title>
<polygon fill="none" stroke="black" points="189.46,-164.04 189.46,-178.96 140.29,-189.5 70.76,-189.5 21.59,-178.96 21.59,-164.04 70.76,-153.5 140.29,-153.5 189.46,-164.04"/>
<text text-anchor="middle" x="105.52" y="-167.8" font-family="Times,serif" font-size="14.00">io_wavelength</text>
</g>
<!-- x1 -->
<g id="node18" class="node">
<title>x1</title>
<path fill="none" stroke="black" d="M259.05,-88.5C259.05,-88.5 377.05,-88.5 377.05,-88.5 383.05,-88.5 389.05,-94.5 389.05,-100.5 389.05,-100.5 389.05,-122.5 389.05,-122.5 389.05,-128.5 383.05,-134.5 377.05,-134.5 377.05,-134.5 259.05,-134.5 259.05,-134.5 253.05,-134.5 247.05,-128.5 247.05,-122.5 247.05,-122.5 247.05,-100.5 247.05,-100.5 247.05,-94.5 253.05,-88.5 259.05,-88.5"/>
<text text-anchor="middle" x="318.05" y="-119.3" font-family="Times,serif" font-size="14.00">38x 11:11 &#45; 49:12</text>
<polyline fill="none" stroke="black" points="247.05,-111.5 389.05,-111.5 "/>
<text text-anchor="middle" x="318.05" y="-96.3" font-family="Times,serif" font-size="14.00">11:0 &#45; 11:0</text>
</g>
<!-- n14&#45;&gt;x1 -->
<g id="edge11" class="edge">
<title>n14:e&#45;&gt;x1:w</title>
<path fill="none" stroke="#1b9e77" stroke-width="3" d="M190.52,-171.5C227.23,-171.5 210.59,-112.88 236.88,-101.43"/>
<polygon fill="#1b9e77" stroke="#1b9e77" stroke-width="3" points="237.87,-104.8 247.05,-99.5 236.57,-97.92 237.87,-104.8"/>
</g>
<!-- n14&#45;&gt;x1 -->
<g id="edge12" class="edge">
<title>n14:e&#45;&gt;x1:w</title>
<path fill="none" stroke="#1b9e77" stroke-width="3" d="M190.52,-171.5C219.62,-171.5 215.71,-134.09 237.07,-125.32"/>
<polygon fill="#1b9e77" stroke="#1b9e77" stroke-width="3" points="237.84,-128.74 247.05,-123.5 236.58,-121.85 237.84,-128.74"/>
</g>
<!-- c21 -->
<g id="node21" class="node">
<title>c21</title>
<polygon fill="none" stroke="black" points="440.15,-272.5 440.15,-318.5 544.15,-318.5 544.15,-272.5 440.15,-272.5"/>
<text text-anchor="middle" x="453.65" y="-303.3" font-family="Times,serif" font-size="14.00">A</text>
<polyline fill="none" stroke="black" points="440.15,-295.5 467.15,-295.5 "/>
<text text-anchor="middle" x="453.65" y="-280.3" font-family="Times,serif" font-size="14.00">B</text>
<polyline fill="none" stroke="black" points="467.15,-272.5 467.15,-318.5 "/>
<text text-anchor="middle" x="492.65" y="-299.3" font-family="Times,serif" font-size="14.00">$79</text>
<text text-anchor="middle" x="492.65" y="-284.3" font-family="Times,serif" font-size="14.00">$sub</text>
<polyline fill="none" stroke="black" points="518.15,-272.5 518.15,-318.5 "/>
<text text-anchor="middle" x="531.15" y="-291.8" font-family="Times,serif" font-size="14.00">Y</text>
</g>
<!-- n14&#45;&gt;c21 -->
<g id="edge9" class="edge">
<title>n14:e&#45;&gt;c21:w</title>
<path fill="none" stroke="#1b9e77" stroke-width="3" d="M190.52,-171.5C238.51,-171.5 206.43,-237.94 247.05,-263.5 316.71,-307.35 350.48,-285.49 428.84,-283.62"/>
<polygon fill="#1b9e77" stroke="#1b9e77" stroke-width="3" points="429.19,-287.12 439.15,-283.5 429.11,-280.12 429.19,-287.12"/>
</g>
<!-- x5 -->
<g id="node24" class="node">
<title>x5</title>
<path fill="none" stroke="black" d="M283.55,-23.5C283.55,-23.5 352.55,-23.5 352.55,-23.5 358.55,-23.5 364.55,-29.5 364.55,-35.5 364.55,-35.5 364.55,-57.5 364.55,-57.5 364.55,-63.5 358.55,-69.5 352.55,-69.5 352.55,-69.5 283.55,-69.5 283.55,-69.5 277.55,-69.5 271.55,-63.5 271.55,-57.5 271.55,-57.5 271.55,-35.5 271.55,-35.5 271.55,-29.5 277.55,-23.5 283.55,-23.5"/>
<text text-anchor="middle" x="318.05" y="-54.3" font-family="Times,serif" font-size="14.00">0 &#45;&gt; 32:12</text>
<polyline fill="none" stroke="black" points="271.55,-46.5 364.55,-46.5 "/>
<text text-anchor="middle" x="318.05" y="-31.3" font-family="Times,serif" font-size="14.00">11:0 &#45; 11:0</text>
</g>
<!-- n14&#45;&gt;x5 -->
<g id="edge13" class="edge">
<title>n14:e&#45;&gt;x5:w</title>
<path fill="none" stroke="#1b9e77" stroke-width="3" d="M190.52,-171.5C257.21,-171.5 205.74,-48.57 259.97,-35.6"/>
<polygon fill="#1b9e77" stroke="#1b9e77" stroke-width="3" points="260.49,-39.07 270.05,-34.5 259.73,-32.11 260.49,-39.07"/>
</g>
<!-- x6 -->
<g id="node25" class="node">
<title>x6</title>
<path fill="none" stroke="black" d="M259.05,-208.5C259.05,-208.5 377.05,-208.5 377.05,-208.5 383.05,-208.5 389.05,-214.5 389.05,-220.5 389.05,-220.5 389.05,-242.5 389.05,-242.5 389.05,-248.5 383.05,-254.5 377.05,-254.5 377.05,-254.5 259.05,-254.5 259.05,-254.5 253.05,-254.5 247.05,-248.5 247.05,-242.5 247.05,-242.5 247.05,-220.5 247.05,-220.5 247.05,-214.5 253.05,-208.5 259.05,-208.5"/>
<text text-anchor="middle" x="318.05" y="-239.3" font-family="Times,serif" font-size="14.00">37x 11:11 &#45; 48:12</text>
<polyline fill="none" stroke="black" points="247.05,-231.5 389.05,-231.5 "/>
<text text-anchor="middle" x="318.05" y="-216.3" font-family="Times,serif" font-size="14.00">11:0 &#45; 11:0</text>
</g>
<!-- n14&#45;&gt;x6 -->
<g id="edge14" class="edge">
<title>n14:e&#45;&gt;x6:w</title>
<path fill="none" stroke="#1b9e77" stroke-width="3" d="M190.52,-171.5C219.62,-171.5 215.71,-208.91 237.07,-217.68"/>
<polygon fill="#1b9e77" stroke="#1b9e77" stroke-width="3" points="236.58,-221.15 247.05,-219.5 237.84,-214.26 236.58,-221.15"/>
</g>
<!-- n14&#45;&gt;x6 -->
<g id="edge15" class="edge">
<title>n14:e&#45;&gt;x6:w</title>
<path fill="none" stroke="#1b9e77" stroke-width="3" d="M190.52,-171.5C227.23,-171.5 210.59,-230.12 236.88,-241.57"/>
<polygon fill="#1b9e77" stroke="#1b9e77" stroke-width="3" points="236.57,-245.08 247.05,-243.5 237.87,-238.2 236.57,-245.08"/>
</g>
<!-- x13 -->
<g id="node32" class="node">
<title>x13</title>
<path fill="none" stroke="black" d="M333.05,-189.5C333.05,-189.5 303.05,-189.5 303.05,-189.5 297.05,-189.5 291.05,-183.5 291.05,-177.5 291.05,-177.5 291.05,-165.5 291.05,-165.5 291.05,-159.5 297.05,-153.5 303.05,-153.5 303.05,-153.5 333.05,-153.5 333.05,-153.5 339.05,-153.5 345.05,-159.5 345.05,-165.5 345.05,-165.5 345.05,-177.5 345.05,-177.5 345.05,-183.5 339.05,-189.5 333.05,-189.5"/>
<text text-anchor="middle" x="318.05" y="-167.8" font-family="Times,serif" font-size="14.00">BUF</text>
</g>
<!-- n14&#45;&gt;x13 -->
<g id="edge10" class="edge">
<title>n14:e&#45;&gt;x13:w</title>
<path fill="none" stroke="#1b9e77" stroke-width="3" d="M190.52,-171.5C231.13,-171.5 243.78,-171.5 279.8,-171.5"/>
<polygon fill="#1b9e77" stroke="#1b9e77" stroke-width="3" points="280.05,-175 290.05,-171.5 280.05,-168 280.05,-175"/>
</g>
<!-- n15 -->
<g id="node15" class="node">
<title>n15</title>
<polygon fill="none" stroke="black" points="211.07,-381.04 211.07,-395.96 149.24,-406.5 61.8,-406.5 -0.02,-395.96 -0.02,-381.04 61.8,-370.5 149.24,-370.5 211.07,-381.04"/>
<text text-anchor="middle" x="105.52" y="-384.8" font-family="Times,serif" font-size="14.00">io_wavelength_pos</text>
</g>
<!-- x3 -->
<g id="node22" class="node">
<title>x3</title>
<path fill="none" stroke="black" d="M283.55,-312.5C283.55,-312.5 352.55,-312.5 352.55,-312.5 358.55,-312.5 364.55,-318.5 364.55,-324.5 364.55,-324.5 364.55,-346.5 364.55,-346.5 364.55,-352.5 358.55,-358.5 352.55,-358.5 352.55,-358.5 283.55,-358.5 283.55,-358.5 277.55,-358.5 271.55,-352.5 271.55,-346.5 271.55,-346.5 271.55,-324.5 271.55,-324.5 271.55,-318.5 277.55,-312.5 283.55,-312.5"/>
<text text-anchor="middle" x="318.05" y="-343.3" font-family="Times,serif" font-size="14.00">31:0 &#45; 32:1</text>
<polyline fill="none" stroke="black" points="271.55,-335.5 364.55,-335.5 "/>
<text text-anchor="middle" x="318.05" y="-320.3" font-family="Times,serif" font-size="14.00">0 &#45;&gt; 0:0</text>
</g>
<!-- n15&#45;&gt;x3 -->
<g id="edge17" class="edge">
<title>n15:e&#45;&gt;x3:w</title>
<path fill="none" stroke="#e6ab02" stroke-width="3" d="M211.05,-388.5C239.11,-388.5 238.75,-356.83 259.94,-349.16"/>
<polygon fill="#e6ab02" stroke="#e6ab02" stroke-width="3" points="260.75,-352.57 270.05,-347.5 259.61,-345.66 260.75,-352.57"/>
</g>
<!-- x7 -->
<g id="node26" class="node">
<title>x7</title>
<path fill="none" stroke="black" d="M283.55,-442.5C283.55,-442.5 352.55,-442.5 352.55,-442.5 358.55,-442.5 364.55,-448.5 364.55,-454.5 364.55,-454.5 364.55,-476.5 364.55,-476.5 364.55,-482.5 358.55,-488.5 352.55,-488.5 352.55,-488.5 283.55,-488.5 283.55,-488.5 277.55,-488.5 271.55,-482.5 271.55,-476.5 271.55,-476.5 271.55,-454.5 271.55,-454.5 271.55,-448.5 277.55,-442.5 283.55,-442.5"/>
<text text-anchor="middle" x="318.05" y="-473.3" font-family="Times,serif" font-size="14.00">31:0 &#45; 32:1</text>
<polyline fill="none" stroke="black" points="271.55,-465.5 364.55,-465.5 "/>
<text text-anchor="middle" x="318.05" y="-450.3" font-family="Times,serif" font-size="14.00">0 &#45;&gt; 0:0</text>
</g>
<!-- n15&#45;&gt;x7 -->
<g id="edge18" class="edge">
<title>n15:e&#45;&gt;x7:w</title>
<path fill="none" stroke="#e6ab02" stroke-width="3" d="M211.05,-388.5C254.61,-388.5 227.92,-463.5 259.96,-475.8"/>
<polygon fill="#e6ab02" stroke="#e6ab02" stroke-width="3" points="259.61,-479.29 270.05,-477.5 260.77,-472.39 259.61,-479.29"/>
</g>
<!-- x11 -->
<g id="node30" class="node">
<title>x11</title>
<path fill="none" stroke="black" d="M283.55,-377.5C283.55,-377.5 352.55,-377.5 352.55,-377.5 358.55,-377.5 364.55,-383.5 364.55,-389.5 364.55,-389.5 364.55,-411.5 364.55,-411.5 364.55,-417.5 358.55,-423.5 352.55,-423.5 352.55,-423.5 283.55,-423.5 283.55,-423.5 277.55,-423.5 271.55,-417.5 271.55,-411.5 271.55,-411.5 271.55,-389.5 271.55,-389.5 271.55,-383.5 277.55,-377.5 283.55,-377.5"/>
<text text-anchor="middle" x="318.05" y="-408.3" font-family="Times,serif" font-size="14.00">0 &#45;&gt; 32:32</text>
<polyline fill="none" stroke="black" points="271.55,-400.5 364.55,-400.5 "/>
<text text-anchor="middle" x="318.05" y="-385.3" font-family="Times,serif" font-size="14.00">31:0 &#45; 31:0</text>
</g>
<!-- n15&#45;&gt;x11 -->
<g id="edge16" class="edge">
<title>n15:e&#45;&gt;x11:w</title>
<path fill="none" stroke="#e6ab02" stroke-width="3" d="M211.05,-388.5C233.58,-388.5 241.59,-388.5 260.04,-388.5"/>
<polygon fill="#e6ab02" stroke="#e6ab02" stroke-width="3" points="260.05,-392 270.05,-388.5 260.05,-385 260.05,-392"/>
</g>
<!-- c19 -->
<g id="node16" class="node">
<title>c19</title>
<polygon fill="none" stroke="black" points="1288.3,-217.5 1288.3,-263.5 1388.3,-263.5 1388.3,-217.5 1288.3,-217.5"/>
<text text-anchor="middle" x="1301.8" y="-248.3" font-family="Times,serif" font-size="14.00">A</text>
<polyline fill="none" stroke="black" points="1288.3,-240.5 1315.3,-240.5 "/>
<text text-anchor="middle" x="1301.8" y="-225.3" font-family="Times,serif" font-size="14.00">B</text>
<polyline fill="none" stroke="black" points="1315.3,-217.5 1315.3,-263.5 "/>
<text text-anchor="middle" x="1338.8" y="-244.3" font-family="Times,serif" font-size="14.00">$81</text>
<text text-anchor="middle" x="1338.8" y="-229.3" font-family="Times,serif" font-size="14.00">$div</text>
<polyline fill="none" stroke="black" points="1362.3,-217.5 1362.3,-263.5 "/>
<text text-anchor="middle" x="1375.3" y="-236.8" font-family="Times,serif" font-size="14.00">Y</text>
</g>
<!-- c19&#45;&gt;n13 -->
<g id="edge8" class="edge">
<title>c19:e&#45;&gt;n13:w</title>
<path fill="none" stroke="#7570b3" stroke-width="3" d="M1389.3,-240.5C1401.89,-240.5 1407.33,-240.5 1416.46,-240.5"/>
<polygon fill="#7570b3" stroke="#7570b3" stroke-width="3" points="1416.69,-244 1426.69,-240.5 1416.69,-237 1416.69,-244"/>
</g>
<!-- x0&#45;&gt;c19 -->
<g id="edge1" class="edge">
<title>x0:e&#45;&gt;c19:w</title>
<path fill="none" stroke="#e7298a" stroke-width="3" d="M1254.39,-256.8C1262.06,-255.86 1267.48,-254.18 1275.1,-253.22"/>
<polygon fill="none" stroke="#e7298a" stroke-width="3" points="1254.39,-256.8 1248.63,-261.15 1242.41,-257.5 1248.17,-253.16 1254.39,-256.8"/>
<polygon fill="none" stroke="#e7298a" stroke-width="3" points="1275.32,-253.21 1281.07,-248.86 1287.3,-252.5 1281.55,-256.85 1275.32,-253.21"/>
</g>
<!-- x1&#45;&gt;c19 -->
<g id="edge2" class="edge">
<title>x1:e&#45;&gt;c19:w</title>
<path fill="none" stroke="#e7298a" stroke-width="3" d="M401.19,-111.52C532.41,-111.9 569.62,-118.5 706.68,-118.5 706.68,-118.5 706.68,-118.5 1051.52,-118.5 1140.23,-118.5 1178.74,-87.54 1249.91,-140.5 1280.01,-162.9 1252.99,-214.33 1275.48,-226.08"/>
<polygon fill="none" stroke="#e7298a" stroke-width="3" points="401.05,-111.52 395.04,-115.51 389.05,-111.5 395.05,-107.51 401.05,-111.52"/>
<polygon fill="none" stroke="#e7298a" stroke-width="3" points="1275.54,-226.09 1282.22,-223.38 1287.3,-228.5 1280.62,-231.22 1275.54,-226.09"/>
</g>
<!-- v2 -->
<g id="node19" class="node">
<title>v2</title>
<ellipse fill="none" stroke="black" cx="707.68" cy="-342.5" rx="112.38" ry="18"/>
<text text-anchor="middle" x="707.68" y="-338.8" font-family="Times,serif" font-size="14.00">15&#39;111111111111111</text>
</g>
<!-- v2&#45;&gt;c20 -->
<g id="edge35" class="edge">
<title>v2:e&#45;&gt;c20:w</title>
<path fill="none" stroke="#a6761d" stroke-width="3" d="M820.12,-342.5C832.12,-342.5 837.37,-342.5 846,-342.5"/>
<polygon fill="#a6761d" stroke="#a6761d" stroke-width="3" points="846.12,-346 856.12,-342.5 846.12,-339 846.12,-346"/>
</g>
<!-- c20&#45;&gt;n9 -->
<g id="edge31" class="edge">
<title>c20:e&#45;&gt;n9:w</title>
<path fill="none" stroke="#d95f02" stroke-width="3" d="M962.12,-330.5C974.24,-330.5 979.35,-327.69 987.96,-326.28"/>
<polygon fill="#d95f02" stroke="#d95f02" stroke-width="3" points="988.42,-329.76 998.12,-325.5 987.89,-322.78 988.42,-329.76"/>
</g>
<!-- c21&#45;&gt;n7 -->
<g id="edge25" class="edge">
<title>c21:e&#45;&gt;n7:w</title>
<path fill="none" stroke="#7570b3" stroke-width="3" d="M545.15,-295.5C591.47,-295.5 603.14,-273.98 644.46,-270.87"/>
<polygon fill="#7570b3" stroke="#7570b3" stroke-width="3" points="644.82,-274.36 654.68,-270.5 644.56,-267.37 644.82,-274.36"/>
</g>
<!-- x3&#45;&gt;c21 -->
<g id="edge3" class="edge">
<title>x3:e&#45;&gt;c21:w</title>
<path fill="none" stroke="#7570b3" stroke-width="3" d="M378.08,-334.22C398.67,-329.56 406.5,-313.46 427.08,-308.78"/>
<polygon fill="none" stroke="#7570b3" stroke-width="3" points="377.98,-334.23 372.44,-338.84 366.05,-335.5 371.59,-330.89 377.98,-334.23"/>
<polygon fill="none" stroke="#7570b3" stroke-width="3" points="427.21,-308.77 432.76,-304.16 439.15,-307.5 433.6,-312.11 427.21,-308.77"/>
</g>
<!-- x4&#45;&gt;n11 -->
<g id="edge6" class="edge">
<title>x4:e&#45;&gt;n11:w</title>
<path fill="none" stroke="#d95f02" stroke-width="3" d="M1222.41,-373.5C1246.88,-373.5 1255.44,-373.5 1275.68,-373.5"/>
<polygon fill="#d95f02" stroke="#d95f02" stroke-width="3" points="1275.91,-377 1285.91,-373.5 1275.91,-370 1275.91,-377"/>
</g>
<!-- x5&#45;&gt;n2 -->
<g id="edge19" class="edge">
<title>x5:e&#45;&gt;n2:w</title>
<path fill="none" stroke="#a6761d" stroke-width="3" d="M366.05,-46.5C388.58,-46.5 396.59,-46.5 415.04,-46.5"/>
<polygon fill="#a6761d" stroke="#a6761d" stroke-width="3" points="415.05,-50 425.05,-46.5 415.05,-43 415.05,-50"/>
</g>
<!-- x6&#45;&gt;n3 -->
<g id="edge20" class="edge">
<title>x6:e&#45;&gt;n3:w</title>
<path fill="none" stroke="#7570b3" stroke-width="3" d="M389.05,-231.5C401.05,-231.5 406.3,-231.5 414.92,-231.5"/>
<polygon fill="#7570b3" stroke="#7570b3" stroke-width="3" points="415.05,-235 425.05,-231.5 415.05,-228 415.05,-235"/>
</g>
<!-- x7&#45;&gt;n4 -->
<g id="edge21" class="edge">
<title>x7:e&#45;&gt;n4:w</title>
<path fill="none" stroke="#e7298a" stroke-width="3" d="M366.05,-465.5C394.86,-465.5 404.51,-465.5 428.97,-465.5"/>
<polygon fill="#e7298a" stroke="#e7298a" stroke-width="3" points="429.15,-469 439.15,-465.5 429.15,-462 429.15,-469"/>
</g>
<!-- x8&#45;&gt;n5 -->
<g id="edge22" class="edge">
<title>x8:e&#45;&gt;n5:w</title>
<path fill="none" stroke="#1b9e77" d="M957.12,-270.5C971.4,-270.5 977.24,-268.67 987.83,-267.87"/>
<polygon fill="#1b9e77" stroke="#1b9e77" points="988.26,-271.35 998.12,-267.5 988.01,-264.36 988.26,-271.35"/>
</g>
<!-- x9&#45;&gt;n6 -->
<g id="edge24" class="edge">
<title>x9:e&#45;&gt;n6:w</title>
<path fill="none" stroke="#666666" stroke-width="3" d="M1249.91,-173.5C1261.91,-173.5 1267.16,-173.5 1275.78,-173.5"/>
<polygon fill="#666666" stroke="#666666" stroke-width="3" points="1275.91,-177 1285.91,-173.5 1275.91,-170 1275.91,-177"/>
</g>
<!-- x10&#45;&gt;n8 -->
<g id="edge30" class="edge">
<title>x10:e&#45;&gt;n8:w</title>
<path fill="none" stroke="#7570b3" stroke-width="3" d="M957.12,-210.5C971.36,-210.5 977.26,-210.5 987.84,-210.5"/>
<polygon fill="#7570b3" stroke="#7570b3" stroke-width="3" points="988.12,-214 998.12,-210.5 988.12,-207 988.12,-214"/>
</g>
<!-- x11&#45;&gt;n1 -->
<g id="edge4" class="edge">
<title>x11:e&#45;&gt;n1:w</title>
<path fill="none" stroke="#e6ab02" stroke-width="3" d="M366.05,-400.5C388.58,-400.5 396.59,-400.5 415.04,-400.5"/>
<polygon fill="#e6ab02" stroke="#e6ab02" stroke-width="3" points="415.05,-404 425.05,-400.5 415.05,-397 415.05,-404"/>
</g>
<!-- x12&#45;&gt;n10 -->
<g id="edge5" class="edge">
<title>x12:e&#45;&gt;n10:w</title>
<path fill="none" stroke="#66a61e" stroke-width="3" d="M1222.41,-319.5C1246.88,-319.5 1255.44,-319.5 1275.68,-319.5"/>
<polygon fill="#66a61e" stroke="#66a61e" stroke-width="3" points="1275.91,-323 1285.91,-319.5 1275.91,-316 1275.91,-323"/>
</g>
<!-- x13&#45;&gt;n12 -->
<g id="edge7" class="edge">
<title>x13:e&#45;&gt;n12:w</title>
<path fill="none" stroke="#666666" stroke-width="3" d="M346.05,-171.5C383.87,-171.5 395.76,-171.5 429.13,-171.5"/>
<polygon fill="#666666" stroke="#666666" stroke-width="3" points="429.15,-175 439.15,-171.5 429.15,-168 429.15,-175"/>
</g>
</g>
</svg>
