<?xml version="1.0" encoding="UTF-8" standalone="no"?>
<!DOCTYPE svg PUBLIC "-//W3C//DTD SVG 1.1//EN"
 "http://www.w3.org/Graphics/SVG/1.1/DTD/svg11.dtd">
<!-- Generated by graphviz version 2.43.20190912.0211 (20190912.0211)
 -->
<!-- Title: Sawtooth Pages: 1 -->
<svg width="4272pt" height="241pt"
 viewBox="0.00 0.00 4271.89 241.00" xmlns="http://www.w3.org/2000/svg" xmlns:xlink="http://www.w3.org/1999/xlink">
<g id="graph0" class="graph" transform="scale(1 1) rotate(0) translate(4 237)">
<title>Sawtooth</title>
<polygon fill="white" stroke="transparent" points="-4,4 -4,-237 4267.89,-237 4267.89,4 -4,4"/>
<text text-anchor="middle" x="2131.95" y="-7.8" font-family="Times,serif" font-size="14.00">Sawtooth</text>
<!-- n5 -->
<g id="node1" class="node">
<title>n5</title>
<polygon fill="none" stroke="black" points="791.34,-64.5 724.15,-46.5 791.34,-28.5 858.54,-46.5 791.34,-64.5"/>
<text text-anchor="middle" x="791.34" y="-42.8" font-family="Times,serif" font-size="14.00">_GEN_2</text>
</g>
<!-- x0 -->
<g id="node17" class="node">
<title>x0</title>
<path fill="none" stroke="black" d="M906.44,-34.5C906.44,-34.5 993.44,-34.5 993.44,-34.5 999.44,-34.5 1005.44,-40.5 1005.44,-46.5 1005.44,-46.5 1005.44,-68.5 1005.44,-68.5 1005.44,-74.5 999.44,-80.5 993.44,-80.5 993.44,-80.5 906.44,-80.5 906.44,-80.5 900.44,-80.5 894.44,-74.5 894.44,-68.5 894.44,-68.5 894.44,-46.5 894.44,-46.5 894.44,-40.5 900.44,-34.5 906.44,-34.5"/>
<text text-anchor="middle" x="949.94" y="-65.3" font-family="Times,serif" font-size="14.00">48:48 &#45; 49:49</text>
<polyline fill="none" stroke="black" points="894.44,-57.5 1005.44,-57.5 "/>
<text text-anchor="middle" x="949.94" y="-42.3" font-family="Times,serif" font-size="14.00">48:0 &#45; 48:0</text>
</g>
<!-- n5&#45;&gt;x0 -->
<g id="edge28" class="edge">
<title>n5:e&#45;&gt;x0:w</title>
<path fill="none" stroke="#d95f02" stroke-width="3" d="M858.44,-46.5C870.45,-46.5 875.69,-45.94 884.31,-45.66"/>
<polygon fill="#d95f02" stroke="#d95f02" stroke-width="3" points="884.5,-49.15 894.44,-45.5 884.39,-42.15 884.5,-49.15"/>
</g>
<!-- n5&#45;&gt;x0 -->
<g id="edge29" class="edge">
<title>n5:e&#45;&gt;x0:w</title>
<path fill="none" stroke="#d95f02" stroke-width="3" d="M858.44,-46.5C873.28,-46.5 875.32,-60.54 884.55,-66.68"/>
<polygon fill="#d95f02" stroke="#d95f02" stroke-width="3" points="883.87,-70.12 894.44,-69.5 885.78,-63.39 883.87,-70.12"/>
</g>
<!-- n6 -->
<g id="node2" class="node">
<title>n6</title>
<polygon fill="none" stroke="black" points="443.15,-66.5 390.86,-48.5 443.15,-30.5 495.43,-48.5 443.15,-66.5"/>
<text text-anchor="middle" x="443.15" y="-44.8" font-family="Times,serif" font-size="14.00">_T_22</text>
</g>
<!-- x16 -->
<g id="node36" class="node">
<title>x16</title>
<path fill="none" stroke="black" d="M558.24,-23.5C558.24,-23.5 676.24,-23.5 676.24,-23.5 682.24,-23.5 688.24,-29.5 688.24,-35.5 688.24,-35.5 688.24,-57.5 688.24,-57.5 688.24,-63.5 682.24,-69.5 676.24,-69.5 676.24,-69.5 558.24,-69.5 558.24,-69.5 552.24,-69.5 546.24,-63.5 546.24,-57.5 546.24,-57.5 546.24,-35.5 546.24,-35.5 546.24,-29.5 552.24,-23.5 558.24,-23.5"/>
<text text-anchor="middle" x="617.24" y="-54.3" font-family="Times,serif" font-size="14.00">37x 11:11 &#45; 48:12</text>
<polyline fill="none" stroke="black" points="546.24,-46.5 688.24,-46.5 "/>
<text text-anchor="middle" x="617.24" y="-31.3" font-family="Times,serif" font-size="14.00">11:0 &#45; 11:0</text>
</g>
<!-- n6&#45;&gt;x16 -->
<g id="edge31" class="edge">
<title>n6:e&#45;&gt;x16:w</title>
<path fill="none" stroke="#a6761d" stroke-width="3" d="M496.15,-48.5C515.47,-48.5 521.34,-38.72 536.25,-35.51"/>
<polygon fill="#a6761d" stroke="#a6761d" stroke-width="3" points="536.65,-38.98 546.24,-34.5 535.94,-32.02 536.65,-38.98"/>
</g>
<!-- n6&#45;&gt;x16 -->
<g id="edge32" class="edge">
<title>n6:e&#45;&gt;x16:w</title>
<path fill="none" stroke="#a6761d" stroke-width="3" d="M496.15,-48.5C514.95,-48.5 521.4,-55.36 535.95,-57.72"/>
<polygon fill="#a6761d" stroke="#a6761d" stroke-width="3" points="536.01,-61.23 546.24,-58.5 536.54,-54.25 536.01,-61.23"/>
</g>
<!-- n7 -->
<g id="node3" class="node">
<title>n7</title>
<polygon fill="none" stroke="black" points="3637.88,-140.5 3585.6,-122.5 3637.88,-104.5 3690.17,-122.5 3637.88,-140.5"/>
<text text-anchor="middle" x="3637.88" y="-118.8" font-family="Times,serif" font-size="14.00">_T_21</text>
</g>
<!-- x1 -->
<g id="node18" class="node">
<title>x1</title>
<path fill="none" stroke="black" d="M3738.27,-87.5C3738.27,-87.5 3825.27,-87.5 3825.27,-87.5 3831.27,-87.5 3837.27,-93.5 3837.27,-99.5 3837.27,-99.5 3837.27,-121.5 3837.27,-121.5 3837.27,-127.5 3831.27,-133.5 3825.27,-133.5 3825.27,-133.5 3738.27,-133.5 3738.27,-133.5 3732.27,-133.5 3726.27,-127.5 3726.27,-121.5 3726.27,-121.5 3726.27,-99.5 3726.27,-99.5 3726.27,-93.5 3732.27,-87.5 3738.27,-87.5"/>
<text text-anchor="middle" x="3781.77" y="-118.3" font-family="Times,serif" font-size="14.00">48:48 &#45; 49:49</text>
<polyline fill="none" stroke="black" points="3726.27,-110.5 3837.27,-110.5 "/>
<text text-anchor="middle" x="3781.77" y="-95.3" font-family="Times,serif" font-size="14.00">48:0 &#45; 48:0</text>
</g>
<!-- n7&#45;&gt;x1 -->
<g id="edge34" class="edge">
<title>n7:e&#45;&gt;x1:w</title>
<path fill="none" stroke="#a6761d" stroke-width="3" d="M3690.27,-122.5C3705.45,-122.5 3707.12,-107.56 3716.59,-101.25"/>
<polygon fill="#a6761d" stroke="#a6761d" stroke-width="3" points="3717.61,-104.6 3726.27,-98.5 3715.7,-97.87 3717.61,-104.6"/>
</g>
<!-- n7&#45;&gt;x1 -->
<g id="edge35" class="edge">
<title>n7:e&#45;&gt;x1:w</title>
<path fill="none" stroke="#a6761d" stroke-width="3" d="M3690.27,-122.5C3702.27,-122.5 3707.52,-122.5 3716.15,-122.5"/>
<polygon fill="#a6761d" stroke="#a6761d" stroke-width="3" points="3716.27,-126 3726.27,-122.5 3716.27,-119 3716.27,-126"/>
</g>
<!-- n8 -->
<g id="node4" class="node">
<title>n8</title>
<polygon fill="none" stroke="black" points="3407.1,-140.5 3354.81,-122.5 3407.1,-104.5 3459.38,-122.5 3407.1,-140.5"/>
<text text-anchor="middle" x="3407.1" y="-118.8" font-family="Times,serif" font-size="14.00">_T_20</text>
</g>
<!-- x14 -->
<g id="node34" class="node">
<title>x14</title>
<path fill="none" stroke="black" d="M3537.49,-140.5C3537.49,-140.5 3507.49,-140.5 3507.49,-140.5 3501.49,-140.5 3495.49,-134.5 3495.49,-128.5 3495.49,-128.5 3495.49,-116.5 3495.49,-116.5 3495.49,-110.5 3501.49,-104.5 3507.49,-104.5 3507.49,-104.5 3537.49,-104.5 3537.49,-104.5 3543.49,-104.5 3549.49,-110.5 3549.49,-116.5 3549.49,-116.5 3549.49,-128.5 3549.49,-128.5 3549.49,-134.5 3543.49,-140.5 3537.49,-140.5"/>
<text text-anchor="middle" x="3522.49" y="-118.8" font-family="Times,serif" font-size="14.00">BUF</text>
</g>
<!-- n8&#45;&gt;x14 -->
<g id="edge37" class="edge">
<title>n8:e&#45;&gt;x14:w</title>
<path fill="none" stroke="#e7298a" stroke-width="3" d="M3459.49,-122.5C3471.49,-122.5 3476.74,-122.5 3485.36,-122.5"/>
<polygon fill="#e7298a" stroke="#e7298a" stroke-width="3" points="3485.49,-126 3495.49,-122.5 3485.49,-119 3485.49,-126"/>
</g>
<!-- n9 -->
<g id="node5" class="node">
<title>n9</title>
<polygon fill="none" stroke="black" points="3137.31,-140.5 3085.03,-122.5 3137.31,-104.5 3189.6,-122.5 3137.31,-140.5"/>
<text text-anchor="middle" x="3137.31" y="-118.8" font-family="Times,serif" font-size="14.00">_T_19</text>
</g>
<!-- x13 -->
<g id="node33" class="node">
<title>x13</title>
<path fill="none" stroke="black" d="M3237.71,-104.5C3237.71,-104.5 3306.71,-104.5 3306.71,-104.5 3312.71,-104.5 3318.71,-110.5 3318.71,-116.5 3318.71,-116.5 3318.71,-128.5 3318.71,-128.5 3318.71,-134.5 3312.71,-140.5 3306.71,-140.5 3306.71,-140.5 3237.71,-140.5 3237.71,-140.5 3231.71,-140.5 3225.71,-134.5 3225.71,-128.5 3225.71,-128.5 3225.71,-116.5 3225.71,-116.5 3225.71,-110.5 3231.71,-104.5 3237.71,-104.5"/>
<text text-anchor="middle" x="3272.21" y="-118.8" font-family="Times,serif" font-size="14.00">48:0 &#45; 48:0</text>
</g>
<!-- n9&#45;&gt;x13 -->
<g id="edge39" class="edge">
<title>n9:e&#45;&gt;x13:w</title>
<path fill="none" stroke="#e7298a" stroke-width="3" d="M3189.71,-122.5C3201.71,-122.5 3206.96,-122.5 3215.58,-122.5"/>
<polygon fill="#e7298a" stroke="#e7298a" stroke-width="3" points="3215.71,-126 3225.71,-122.5 3215.7,-119 3215.71,-126"/>
</g>
<!-- n10 -->
<g id="node6" class="node">
<title>n10</title>
<polygon fill="none" stroke="black" points="2094.19,-140.5 2041.9,-122.5 2094.19,-104.5 2146.47,-122.5 2094.19,-140.5"/>
<text text-anchor="middle" x="2094.19" y="-118.8" font-family="Times,serif" font-size="14.00">_T_18</text>
</g>
<!-- x2 -->
<g id="node21" class="node">
<title>x2</title>
<path fill="none" stroke="black" d="M2440.75,-87.5C2440.75,-87.5 2558.75,-87.5 2558.75,-87.5 2564.75,-87.5 2570.75,-93.5 2570.75,-99.5 2570.75,-99.5 2570.75,-121.5 2570.75,-121.5 2570.75,-127.5 2564.75,-133.5 2558.75,-133.5 2558.75,-133.5 2440.75,-133.5 2440.75,-133.5 2434.75,-133.5 2428.75,-127.5 2428.75,-121.5 2428.75,-121.5 2428.75,-99.5 2428.75,-99.5 2428.75,-93.5 2434.75,-87.5 2440.75,-87.5"/>
<text text-anchor="middle" x="2499.75" y="-118.3" font-family="Times,serif" font-size="14.00">16x 33:33 &#45; 49:34</text>
<polyline fill="none" stroke="black" points="2428.75,-110.5 2570.75,-110.5 "/>
<text text-anchor="middle" x="2499.75" y="-95.3" font-family="Times,serif" font-size="14.00">33:0 &#45; 33:0</text>
</g>
<!-- n10&#45;&gt;x2 -->
<g id="edge6" class="edge">
<title>n10:e&#45;&gt;x2:w</title>
<path fill="none" stroke="#66a61e" stroke-width="3" d="M2146.58,-122.5C2268.57,-122.5 2300.6,-99.79 2417.67,-98.55"/>
<polygon fill="#66a61e" stroke="#66a61e" stroke-width="3" points="2417.77,-102.05 2427.75,-98.5 2417.73,-95.05 2417.77,-102.05"/>
</g>
<!-- n10&#45;&gt;x2 -->
<g id="edge7" class="edge">
<title>n10:e&#45;&gt;x2:w</title>
<path fill="none" stroke="#66a61e" stroke-width="3" d="M2146.58,-122.5C2268.13,-122.5 2301.01,-122.5 2417.7,-122.5"/>
<polygon fill="#66a61e" stroke="#66a61e" stroke-width="3" points="2417.75,-126 2427.75,-122.5 2417.75,-119 2417.75,-126"/>
</g>
<!-- n11 -->
<g id="node7" class="node">
<title>n11</title>
<polygon fill="none" stroke="black" points="1824.4,-130.5 1772.12,-112.5 1824.4,-94.5 1876.69,-112.5 1824.4,-130.5"/>
<text text-anchor="middle" x="1824.4" y="-108.8" font-family="Times,serif" font-size="14.00">_T_16</text>
</g>
<!-- x11 -->
<g id="node31" class="node">
<title>x11</title>
<path fill="none" stroke="black" d="M1924.79,-100.5C1924.79,-100.5 1993.79,-100.5 1993.79,-100.5 1999.79,-100.5 2005.79,-106.5 2005.79,-112.5 2005.79,-112.5 2005.79,-134.5 2005.79,-134.5 2005.79,-140.5 1999.79,-146.5 1993.79,-146.5 1993.79,-146.5 1924.79,-146.5 1924.79,-146.5 1918.79,-146.5 1912.79,-140.5 1912.79,-134.5 1912.79,-134.5 1912.79,-112.5 1912.79,-112.5 1912.79,-106.5 1918.79,-100.5 1924.79,-100.5"/>
<text text-anchor="middle" x="1959.29" y="-131.3" font-family="Times,serif" font-size="14.00">0 &#45;&gt; 33:33</text>
<polyline fill="none" stroke="black" points="1912.79,-123.5 2005.79,-123.5 "/>
<text text-anchor="middle" x="1959.29" y="-108.3" font-family="Times,serif" font-size="14.00">32:0 &#45; 32:0</text>
</g>
<!-- n11&#45;&gt;x11 -->
<g id="edge9" class="edge">
<title>n11:e&#45;&gt;x11:w</title>
<path fill="none" stroke="#d95f02" stroke-width="3" d="M1876.79,-112.5C1888.8,-112.5 1894.04,-111.94 1902.67,-111.66"/>
<polygon fill="#d95f02" stroke="#d95f02" stroke-width="3" points="1902.85,-115.15 1912.79,-111.5 1902.74,-108.15 1902.85,-115.15"/>
</g>
<!-- n12 -->
<g id="node8" class="node">
<title>n12</title>
<polygon fill="none" stroke="black" points="1554.62,-133.5 1502.33,-115.5 1554.62,-97.5 1606.9,-115.5 1554.62,-133.5"/>
<text text-anchor="middle" x="1554.62" y="-111.8" font-family="Times,serif" font-size="14.00">_T_15</text>
</g>
<!-- x10 -->
<g id="node30" class="node">
<title>x10</title>
<path fill="none" stroke="black" d="M1655.01,-97.5C1655.01,-97.5 1724.01,-97.5 1724.01,-97.5 1730.01,-97.5 1736.01,-103.5 1736.01,-109.5 1736.01,-109.5 1736.01,-121.5 1736.01,-121.5 1736.01,-127.5 1730.01,-133.5 1724.01,-133.5 1724.01,-133.5 1655.01,-133.5 1655.01,-133.5 1649.01,-133.5 1643.01,-127.5 1643.01,-121.5 1643.01,-121.5 1643.01,-109.5 1643.01,-109.5 1643.01,-103.5 1649.01,-97.5 1655.01,-97.5"/>
<text text-anchor="middle" x="1689.51" y="-111.8" font-family="Times,serif" font-size="14.00">32:0 &#45; 32:0</text>
</g>
<!-- n12&#45;&gt;x10 -->
<g id="edge11" class="edge">
<title>n12:e&#45;&gt;x10:w</title>
<path fill="none" stroke="#666666" stroke-width="3" d="M1607.01,-115.5C1619.01,-115.5 1624.26,-115.5 1632.88,-115.5"/>
<polygon fill="#666666" stroke="#666666" stroke-width="3" points="1633.01,-119 1643.01,-115.5 1633.01,-112 1633.01,-119"/>
</g>
<!-- n13 -->
<g id="node9" class="node">
<title>n13</title>
<polygon fill="none" stroke="black" points="1323.83,-133.5 1271.55,-115.5 1323.83,-97.5 1376.12,-115.5 1323.83,-133.5"/>
<text text-anchor="middle" x="1323.83" y="-111.8" font-family="Times,serif" font-size="14.00">_T_14</text>
</g>
<!-- x9 -->
<g id="node29" class="node">
<title>x9</title>
<path fill="none" stroke="black" d="M1454.23,-133.5C1454.23,-133.5 1424.23,-133.5 1424.23,-133.5 1418.23,-133.5 1412.23,-127.5 1412.23,-121.5 1412.23,-121.5 1412.23,-109.5 1412.23,-109.5 1412.23,-103.5 1418.23,-97.5 1424.23,-97.5 1424.23,-97.5 1454.23,-97.5 1454.23,-97.5 1460.23,-97.5 1466.23,-103.5 1466.23,-109.5 1466.23,-109.5 1466.23,-121.5 1466.23,-121.5 1466.23,-127.5 1460.23,-133.5 1454.23,-133.5"/>
<text text-anchor="middle" x="1439.23" y="-111.8" font-family="Times,serif" font-size="14.00">BUF</text>
</g>
<!-- n13&#45;&gt;x9 -->
<g id="edge13" class="edge">
<title>n13:e&#45;&gt;x9:w</title>
<path fill="none" stroke="#7570b3" stroke-width="3" d="M1376.23,-115.5C1388.23,-115.5 1393.48,-115.5 1402.1,-115.5"/>
<polygon fill="#7570b3" stroke="#7570b3" stroke-width="3" points="1402.23,-119 1412.23,-115.5 1402.23,-112 1402.23,-119"/>
</g>
<!-- n14 -->
<g id="node10" class="node">
<title>n14</title>
<polygon fill="none" stroke="black" points="617.24,-126.5 550.05,-108.5 617.24,-90.5 684.44,-108.5 617.24,-126.5"/>
<text text-anchor="middle" x="617.24" y="-104.8" font-family="Times,serif" font-size="14.00">_GEN_1</text>
</g>
<!-- c25 -->
<g id="node22" class="node">
<title>c25</title>
<polygon fill="none" stroke="black" points="1041.44,-98.5 1041.44,-144.5 1145.44,-144.5 1145.44,-98.5 1041.44,-98.5"/>
<text text-anchor="middle" x="1054.94" y="-129.3" font-family="Times,serif" font-size="14.00">A</text>
<polyline fill="none" stroke="black" points="1041.44,-121.5 1068.44,-121.5 "/>
<text text-anchor="middle" x="1054.94" y="-106.3" font-family="Times,serif" font-size="14.00">B</text>
<polyline fill="none" stroke="black" points="1068.44,-98.5 1068.44,-144.5 "/>
<text text-anchor="middle" x="1093.94" y="-125.3" font-family="Times,serif" font-size="14.00">$79</text>
<text text-anchor="middle" x="1093.94" y="-110.3" font-family="Times,serif" font-size="14.00">$sub</text>
<polyline fill="none" stroke="black" points="1119.44,-98.5 1119.44,-144.5 "/>
<text text-anchor="middle" x="1132.44" y="-117.8" font-family="Times,serif" font-size="14.00">Y</text>
</g>
<!-- n14&#45;&gt;c25 -->
<g id="edge15" class="edge">
<title>n14:e&#45;&gt;c25:w</title>
<path fill="none" stroke="#1b9e77" stroke-width="3" d="M685.24,-108.5C840.15,-108.5 881.38,-109.46 1031.4,-109.5"/>
<polygon fill="#1b9e77" stroke="#1b9e77" stroke-width="3" points="1031.44,-113 1041.44,-109.5 1031.44,-106 1031.44,-113"/>
</g>
<!-- n15 -->
<g id="node11" class="node">
<title>n15</title>
<polygon fill="none" stroke="black" points="949.94,-180.5 897.66,-162.5 949.94,-144.5 1002.23,-162.5 949.94,-180.5"/>
<text text-anchor="middle" x="949.94" y="-158.8" font-family="Times,serif" font-size="14.00">_T_13</text>
</g>
<!-- n15&#45;&gt;c25 -->
<g id="edge17" class="edge">
<title>n15:e&#45;&gt;c25:w</title>
<path fill="none" stroke="#e6ab02" stroke-width="3" d="M1002.94,-162.5C1020.35,-162.5 1020.74,-143.36 1031.77,-136.18"/>
<polygon fill="#e6ab02" stroke="#e6ab02" stroke-width="3" points="1032.74,-139.54 1041.44,-133.5 1030.87,-132.79 1032.74,-139.54"/>
</g>
<!-- n16 -->
<g id="node12" class="node">
<title>n16</title>
<polygon fill="none" stroke="black" points="443.15,-227.5 375.95,-209.5 443.15,-191.5 510.34,-209.5 443.15,-227.5"/>
<text text-anchor="middle" x="443.15" y="-205.8" font-family="Times,serif" font-size="14.00">_GEN_0</text>
</g>
<!-- c26 -->
<g id="node24" class="node">
<title>c26</title>
<polygon fill="none" stroke="black" points="567.24,-145.5 567.24,-191.5 667.24,-191.5 667.24,-145.5 567.24,-145.5"/>
<text text-anchor="middle" x="580.74" y="-176.3" font-family="Times,serif" font-size="14.00">A</text>
<polyline fill="none" stroke="black" points="567.24,-168.5 594.24,-168.5 "/>
<text text-anchor="middle" x="580.74" y="-153.3" font-family="Times,serif" font-size="14.00">B</text>
<polyline fill="none" stroke="black" points="594.24,-145.5 594.24,-191.5 "/>
<text text-anchor="middle" x="617.74" y="-172.3" font-family="Times,serif" font-size="14.00">$78</text>
<text text-anchor="middle" x="617.74" y="-157.3" font-family="Times,serif" font-size="14.00">$shl</text>
<polyline fill="none" stroke="black" points="641.24,-145.5 641.24,-191.5 "/>
<text text-anchor="middle" x="654.24" y="-164.8" font-family="Times,serif" font-size="14.00">Y</text>
</g>
<!-- n16&#45;&gt;c26 -->
<g id="edge19" class="edge">
<title>n16:e&#45;&gt;c26:w</title>
<path fill="none" stroke="#a6761d" stroke-width="3" d="M510.24,-209.5C534.44,-209.5 537.71,-187.89 556.18,-181.98"/>
<polygon fill="#a6761d" stroke="#a6761d" stroke-width="3" points="556.86,-185.42 566.24,-180.5 555.84,-178.49 556.86,-185.42"/>
</g>
<!-- n17 -->
<g id="node13" class="node">
<title>n17</title>
<polygon fill="none" stroke="black" points="4263.7,-77.04 4263.7,-91.96 4215.6,-102.5 4147.57,-102.5 4099.46,-91.96 4099.46,-77.04 4147.57,-66.5 4215.6,-66.5 4263.7,-77.04"/>
<text text-anchor="middle" x="4181.58" y="-80.8" font-family="Times,serif" font-size="14.00">io_sample_out</text>
</g>
<!-- n18 -->
<g id="node14" class="node">
<title>n18</title>
<polygon fill="none" stroke="black" points="211.07,-190.04 211.07,-204.96 149.24,-215.5 61.8,-215.5 -0.02,-204.96 -0.02,-190.04 61.8,-179.5 149.24,-179.5 211.07,-190.04"/>
<text text-anchor="middle" x="105.52" y="-193.8" font-family="Times,serif" font-size="14.00">io_wavelength_pos</text>
</g>
<!-- x5 -->
<g id="node25" class="node">
<title>x5</title>
<path fill="none" stroke="black" d="M259.05,-186.5C259.05,-186.5 328.05,-186.5 328.05,-186.5 334.05,-186.5 340.05,-192.5 340.05,-198.5 340.05,-198.5 340.05,-220.5 340.05,-220.5 340.05,-226.5 334.05,-232.5 328.05,-232.5 328.05,-232.5 259.05,-232.5 259.05,-232.5 253.05,-232.5 247.05,-226.5 247.05,-220.5 247.05,-220.5 247.05,-198.5 247.05,-198.5 247.05,-192.5 253.05,-186.5 259.05,-186.5"/>
<text text-anchor="middle" x="293.55" y="-217.3" font-family="Times,serif" font-size="14.00">0 &#45;&gt; 32:32</text>
<polyline fill="none" stroke="black" points="247.05,-209.5 340.05,-209.5 "/>
<text text-anchor="middle" x="293.55" y="-194.3" font-family="Times,serif" font-size="14.00">31:0 &#45; 31:0</text>
</g>
<!-- n18&#45;&gt;x5 -->
<g id="edge21" class="edge">
<title>n18:e&#45;&gt;x5:w</title>
<path fill="none" stroke="#e7298a" stroke-width="3" d="M211.05,-197.5C223.05,-197.5 228.3,-197.5 236.92,-197.5"/>
<polygon fill="#e7298a" stroke="#e7298a" stroke-width="3" points="237.05,-201 247.05,-197.5 237.05,-194 237.05,-201"/>
</g>
<!-- n19 -->
<g id="node15" class="node">
<title>n19</title>
<polygon fill="none" stroke="black" points="189.46,-65.04 189.46,-79.96 140.29,-90.5 70.76,-90.5 21.59,-79.96 21.59,-65.04 70.76,-54.5 140.29,-54.5 189.46,-65.04"/>
<text text-anchor="middle" x="105.52" y="-68.8" font-family="Times,serif" font-size="14.00">io_wavelength</text>
</g>
<!-- x7 -->
<g id="node27" class="node">
<title>x7</title>
<path fill="none" stroke="black" d="M259.05,-85.5C259.05,-85.5 328.05,-85.5 328.05,-85.5 334.05,-85.5 340.05,-91.5 340.05,-97.5 340.05,-97.5 340.05,-119.5 340.05,-119.5 340.05,-125.5 334.05,-131.5 328.05,-131.5 328.05,-131.5 259.05,-131.5 259.05,-131.5 253.05,-131.5 247.05,-125.5 247.05,-119.5 247.05,-119.5 247.05,-97.5 247.05,-97.5 247.05,-91.5 253.05,-85.5 259.05,-85.5"/>
<text text-anchor="middle" x="293.55" y="-116.3" font-family="Times,serif" font-size="14.00">0 &#45;&gt; 32:12</text>
<polyline fill="none" stroke="black" points="247.05,-108.5 340.05,-108.5 "/>
<text text-anchor="middle" x="293.55" y="-93.3" font-family="Times,serif" font-size="14.00">11:0 &#45; 11:0</text>
</g>
<!-- n19&#45;&gt;x7 -->
<g id="edge23" class="edge">
<title>n19:e&#45;&gt;x7:w</title>
<path fill="none" stroke="#1b9e77" stroke-width="3" d="M190.52,-72.5C213.98,-72.5 218.71,-90.22 236.9,-95.21"/>
<polygon fill="#1b9e77" stroke="#1b9e77" stroke-width="3" points="236.69,-98.71 247.05,-96.5 237.57,-91.77 236.69,-98.71"/>
</g>
<!-- x15 -->
<g id="node35" class="node">
<title>x15</title>
<path fill="none" stroke="black" d="M308.55,-66.5C308.55,-66.5 278.55,-66.5 278.55,-66.5 272.55,-66.5 266.55,-60.5 266.55,-54.5 266.55,-54.5 266.55,-42.5 266.55,-42.5 266.55,-36.5 272.55,-30.5 278.55,-30.5 278.55,-30.5 308.55,-30.5 308.55,-30.5 314.55,-30.5 320.55,-36.5 320.55,-42.5 320.55,-42.5 320.55,-54.5 320.55,-54.5 320.55,-60.5 314.55,-66.5 308.55,-66.5"/>
<text text-anchor="middle" x="293.55" y="-44.8" font-family="Times,serif" font-size="14.00">BUF</text>
</g>
<!-- n19&#45;&gt;x15 -->
<g id="edge22" class="edge">
<title>n19:e&#45;&gt;x15:w</title>
<path fill="none" stroke="#1b9e77" stroke-width="3" d="M190.52,-72.5C221.84,-72.5 229.15,-53.3 255.4,-49.24"/>
<polygon fill="#1b9e77" stroke="#1b9e77" stroke-width="3" points="255.83,-52.72 265.55,-48.5 255.32,-45.74 255.83,-52.72"/>
</g>
<!-- c23 -->
<g id="node16" class="node">
<title>c23</title>
<polygon fill="none" stroke="black" points="3873.27,-61.5 3873.27,-107.5 3973.27,-107.5 3973.27,-61.5 3873.27,-61.5"/>
<text text-anchor="middle" x="3886.77" y="-92.3" font-family="Times,serif" font-size="14.00">A</text>
<polyline fill="none" stroke="black" points="3873.27,-84.5 3900.27,-84.5 "/>
<text text-anchor="middle" x="3886.77" y="-69.3" font-family="Times,serif" font-size="14.00">B</text>
<polyline fill="none" stroke="black" points="3900.27,-61.5 3900.27,-107.5 "/>
<text text-anchor="middle" x="3923.77" y="-88.3" font-family="Times,serif" font-size="14.00">$81</text>
<text text-anchor="middle" x="3923.77" y="-73.3" font-family="Times,serif" font-size="14.00">$div</text>
<polyline fill="none" stroke="black" points="3947.27,-61.5 3947.27,-107.5 "/>
<text text-anchor="middle" x="3960.27" y="-80.8" font-family="Times,serif" font-size="14.00">Y</text>
</g>
<!-- x17 -->
<g id="node37" class="node">
<title>x17</title>
<path fill="none" stroke="black" d="M4051.27,-102.5C4051.27,-102.5 4021.27,-102.5 4021.27,-102.5 4015.27,-102.5 4009.27,-96.5 4009.27,-90.5 4009.27,-90.5 4009.27,-78.5 4009.27,-78.5 4009.27,-72.5 4015.27,-66.5 4021.27,-66.5 4021.27,-66.5 4051.27,-66.5 4051.27,-66.5 4057.27,-66.5 4063.27,-72.5 4063.27,-78.5 4063.27,-78.5 4063.27,-90.5 4063.27,-90.5 4063.27,-96.5 4057.27,-102.5 4051.27,-102.5"/>
<text text-anchor="middle" x="4036.27" y="-80.8" font-family="Times,serif" font-size="14.00">BUF</text>
</g>
<!-- c23&#45;&gt;x17 -->
<g id="edge4" class="edge">
<title>c23:e&#45;&gt;x17:w</title>
<path fill="none" stroke="#e6ab02" stroke-width="3" d="M3973.27,-84.5C3985.27,-84.5 3990.52,-84.5 3999.15,-84.5"/>
<polygon fill="#e6ab02" stroke="#e6ab02" stroke-width="3" points="3999.27,-88 4009.27,-84.5 3999.27,-81 3999.27,-88"/>
</g>
<!-- x0&#45;&gt;c23 -->
<g id="edge1" class="edge">
<title>x0:e&#45;&gt;c23:w</title>
<path fill="none" stroke="#e7298a" stroke-width="3" d="M1017.64,-57.51C1097.47,-57.59 1121.87,-58.5 1207.44,-58.5 1207.44,-58.5 1207.44,-58.5 3638.88,-58.5 3739.06,-58.5 3766.73,-71.4 3861.11,-72.43"/>
<polygon fill="none" stroke="#e7298a" stroke-width="3" points="1017.44,-57.51 1011.44,-61.5 1005.44,-57.5 1011.44,-53.5 1017.44,-57.51"/>
<polygon fill="none" stroke="#e7298a" stroke-width="3" points="3861.27,-72.44 3867.29,-68.47 3873.27,-72.5 3867.25,-76.47 3861.27,-72.44"/>
</g>
<!-- x1&#45;&gt;c23 -->
<g id="edge2" class="edge">
<title>x1:e&#45;&gt;c23:w</title>
<path fill="none" stroke="#e7298a" stroke-width="3" d="M3849.02,-107.67C3853.58,-105.24 3856.97,-101.76 3861.53,-99.33"/>
<polygon fill="none" stroke="#e7298a" stroke-width="3" points="3848.94,-107.69 3844.04,-112.98 3837.27,-110.5 3842.17,-105.21 3848.94,-107.69"/>
<polygon fill="none" stroke="#e7298a" stroke-width="3" points="3861.61,-99.31 3866.5,-94.02 3873.27,-96.5 3868.38,-101.79 3861.61,-99.31"/>
</g>
<!-- v3 -->
<g id="node19" class="node">
<title>v3</title>
<ellipse fill="none" stroke="black" cx="2499.75" cy="-170.5" rx="317.34" ry="18"/>
<text text-anchor="middle" x="2499.75" y="-166.8" font-family="Times,serif" font-size="14.00">50&#39;00000000000000000000000000000000000111111111111111</text>
</g>
<!-- c24 -->
<g id="node20" class="node">
<title>c24</title>
<polygon fill="none" stroke="black" points="2852.92,-99.5 2852.92,-145.5 2958.92,-145.5 2958.92,-99.5 2852.92,-99.5"/>
<text text-anchor="middle" x="2866.42" y="-130.3" font-family="Times,serif" font-size="14.00">A</text>
<polyline fill="none" stroke="black" points="2852.92,-122.5 2879.92,-122.5 "/>
<text text-anchor="middle" x="2866.42" y="-107.3" font-family="Times,serif" font-size="14.00">B</text>
<polyline fill="none" stroke="black" points="2879.92,-99.5 2879.92,-145.5 "/>
<text text-anchor="middle" x="2906.42" y="-126.3" font-family="Times,serif" font-size="14.00">$80</text>
<text text-anchor="middle" x="2906.42" y="-111.3" font-family="Times,serif" font-size="14.00">$mul</text>
<polyline fill="none" stroke="black" points="2932.92,-99.5 2932.92,-145.5 "/>
<text text-anchor="middle" x="2945.92" y="-118.8" font-family="Times,serif" font-size="14.00">Y</text>
</g>
<!-- v3&#45;&gt;c24 -->
<g id="edge40" class="edge">
<title>v3:e&#45;&gt;c24:w</title>
<path fill="none" stroke="#e7298a" stroke-width="3" d="M2816.92,-170.5C2835.31,-170.5 2832.64,-146.73 2843.14,-137.82"/>
<polygon fill="#e7298a" stroke="#e7298a" stroke-width="3" points="2844.58,-141.03 2852.92,-134.5 2842.33,-134.4 2844.58,-141.03"/>
</g>
<!-- x12 -->
<g id="node32" class="node">
<title>x12</title>
<path fill="none" stroke="black" d="M3036.92,-140.5C3036.92,-140.5 3006.92,-140.5 3006.92,-140.5 3000.92,-140.5 2994.92,-134.5 2994.92,-128.5 2994.92,-128.5 2994.92,-116.5 2994.92,-116.5 2994.92,-110.5 3000.92,-104.5 3006.92,-104.5 3006.92,-104.5 3036.92,-104.5 3036.92,-104.5 3042.92,-104.5 3048.92,-110.5 3048.92,-116.5 3048.92,-116.5 3048.92,-128.5 3048.92,-128.5 3048.92,-134.5 3042.92,-140.5 3036.92,-140.5"/>
<text text-anchor="middle" x="3021.92" y="-118.8" font-family="Times,serif" font-size="14.00">BUF</text>
</g>
<!-- c24&#45;&gt;x12 -->
<g id="edge24" class="edge">
<title>c24:e&#45;&gt;x12:w</title>
<path fill="none" stroke="#666666" stroke-width="3" d="M2958.92,-122.5C2970.92,-122.5 2976.17,-122.5 2984.8,-122.5"/>
<polygon fill="#666666" stroke="#666666" stroke-width="3" points="2984.92,-126 2994.92,-122.5 2984.92,-119 2984.92,-126"/>
</g>
<!-- x2&#45;&gt;c24 -->
<g id="edge3" class="edge">
<title>x2:e&#45;&gt;c24:w</title>
<path fill="none" stroke="#7570b3" stroke-width="3" d="M2583.89,-110.5C2694.96,-110.5 2729.74,-110.5 2840.83,-110.5"/>
<polygon fill="none" stroke="#7570b3" stroke-width="3" points="2583.75,-110.5 2577.75,-114.5 2571.75,-110.5 2577.75,-106.5 2583.75,-110.5"/>
<polygon fill="none" stroke="#7570b3" stroke-width="3" points="2840.92,-110.5 2846.92,-106.5 2852.92,-110.5 2846.92,-114.5 2840.92,-110.5"/>
</g>
<!-- x8 -->
<g id="node28" class="node">
<title>x8</title>
<path fill="none" stroke="black" d="M1223.44,-133.5C1223.44,-133.5 1193.44,-133.5 1193.44,-133.5 1187.44,-133.5 1181.44,-127.5 1181.44,-121.5 1181.44,-121.5 1181.44,-109.5 1181.44,-109.5 1181.44,-103.5 1187.44,-97.5 1193.44,-97.5 1193.44,-97.5 1223.44,-97.5 1223.44,-97.5 1229.44,-97.5 1235.44,-103.5 1235.44,-109.5 1235.44,-109.5 1235.44,-121.5 1235.44,-121.5 1235.44,-127.5 1229.44,-133.5 1223.44,-133.5"/>
<text text-anchor="middle" x="1208.44" y="-111.8" font-family="Times,serif" font-size="14.00">BUF</text>
</g>
<!-- c25&#45;&gt;x8 -->
<g id="edge25" class="edge">
<title>c25:e&#45;&gt;x8:w</title>
<path fill="none" stroke="#7570b3" stroke-width="3" d="M1145.44,-121.5C1157.61,-121.5 1162.65,-118.12 1171.25,-116.44"/>
<polygon fill="#7570b3" stroke="#7570b3" stroke-width="3" points="1171.8,-119.9 1181.44,-115.5 1171.16,-112.93 1171.8,-119.9"/>
</g>
<!-- v4 -->
<g id="node23" class="node">
<title>v4</title>
<ellipse fill="none" stroke="black" cx="443.15" cy="-155.5" rx="27" ry="18"/>
<text text-anchor="middle" x="443.15" y="-151.8" font-family="Times,serif" font-size="14.00">1</text>
</g>
<!-- v4&#45;&gt;c26 -->
<g id="edge41" class="edge">
<title>v4:e&#45;&gt;c26:w</title>
<path fill="none" stroke="#a6761d" stroke-width="3" d="M471.15,-155.5C509.78,-155.5 521.93,-156.34 556.01,-156.48"/>
<polygon fill="#a6761d" stroke="#a6761d" stroke-width="3" points="556.24,-159.98 566.24,-156.5 556.25,-152.98 556.24,-159.98"/>
</g>
<!-- x6 -->
<g id="node26" class="node">
<title>x6</title>
<path fill="none" stroke="black" d="M806.34,-183.5C806.34,-183.5 776.34,-183.5 776.34,-183.5 770.34,-183.5 764.34,-177.5 764.34,-171.5 764.34,-171.5 764.34,-159.5 764.34,-159.5 764.34,-153.5 770.34,-147.5 776.34,-147.5 776.34,-147.5 806.34,-147.5 806.34,-147.5 812.34,-147.5 818.34,-153.5 818.34,-159.5 818.34,-159.5 818.34,-171.5 818.34,-171.5 818.34,-177.5 812.34,-183.5 806.34,-183.5"/>
<text text-anchor="middle" x="791.34" y="-161.8" font-family="Times,serif" font-size="14.00">BUF</text>
</g>
<!-- c26&#45;&gt;x6 -->
<g id="edge26" class="edge">
<title>c26:e&#45;&gt;x6:w</title>
<path fill="none" stroke="#7570b3" stroke-width="3" d="M668.24,-168.5C706.9,-168.5 719.01,-165.99 753.1,-165.56"/>
<polygon fill="#7570b3" stroke="#7570b3" stroke-width="3" points="753.36,-169.06 763.34,-165.5 753.32,-162.06 753.36,-169.06"/>
</g>
<!-- x5&#45;&gt;n16 -->
<g id="edge18" class="edge">
<title>x5:e&#45;&gt;n16:w</title>
<path fill="none" stroke="#a6761d" stroke-width="3" d="M340.05,-209.5C352.05,-209.5 357.3,-209.5 365.92,-209.5"/>
<polygon fill="#a6761d" stroke="#a6761d" stroke-width="3" points="366.05,-213 376.05,-209.5 366.05,-206 366.05,-213"/>
</g>
<!-- x6&#45;&gt;n15 -->
<g id="edge16" class="edge">
<title>x6:e&#45;&gt;n15:w</title>
<path fill="none" stroke="#e6ab02" stroke-width="3" d="M819.34,-165.5C850.22,-165.5 860.33,-163.1 886.83,-162.59"/>
<polygon fill="#e6ab02" stroke="#e6ab02" stroke-width="3" points="886.97,-166.09 896.94,-162.5 886.91,-159.09 886.97,-166.09"/>
</g>
<!-- x7&#45;&gt;n14 -->
<g id="edge14" class="edge">
<title>x7:e&#45;&gt;n14:w</title>
<path fill="none" stroke="#1b9e77" stroke-width="3" d="M340.05,-108.5C429.57,-108.5 454.45,-108.5 539.17,-108.5"/>
<polygon fill="#1b9e77" stroke="#1b9e77" stroke-width="3" points="539.24,-112 549.24,-108.5 539.24,-105 539.24,-112"/>
</g>
<!-- x8&#45;&gt;n13 -->
<g id="edge12" class="edge">
<title>x8:e&#45;&gt;n13:w</title>
<path fill="none" stroke="#7570b3" stroke-width="3" d="M1235.44,-115.5C1247.44,-115.5 1252.69,-115.5 1261.32,-115.5"/>
<polygon fill="#7570b3" stroke="#7570b3" stroke-width="3" points="1261.44,-119 1271.44,-115.5 1261.44,-112 1261.44,-119"/>
</g>
<!-- x9&#45;&gt;n12 -->
<g id="edge10" class="edge">
<title>x9:e&#45;&gt;n12:w</title>
<path fill="none" stroke="#666666" stroke-width="3" d="M1466.23,-115.5C1478.23,-115.5 1483.48,-115.5 1492.1,-115.5"/>
<polygon fill="#666666" stroke="#666666" stroke-width="3" points="1492.23,-119 1502.23,-115.5 1492.23,-112 1492.23,-119"/>
</g>
<!-- x10&#45;&gt;n11 -->
<g id="edge8" class="edge">
<title>x10:e&#45;&gt;n11:w</title>
<path fill="none" stroke="#d95f02" stroke-width="3" d="M1736.01,-115.5C1748.05,-115.5 1753.25,-113.81 1761.87,-112.97"/>
<polygon fill="#d95f02" stroke="#d95f02" stroke-width="3" points="1762.18,-116.46 1772.01,-112.5 1761.86,-109.47 1762.18,-116.46"/>
</g>
<!-- x11&#45;&gt;n10 -->
<g id="edge5" class="edge">
<title>x11:e&#45;&gt;n10:w</title>
<path fill="none" stroke="#66a61e" stroke-width="3" d="M2005.79,-123.5C2017.8,-123.5 2023.04,-122.94 2031.67,-122.66"/>
<polygon fill="#66a61e" stroke="#66a61e" stroke-width="3" points="2031.85,-126.15 2041.79,-122.5 2031.74,-119.15 2031.85,-126.15"/>
</g>
<!-- x12&#45;&gt;n9 -->
<g id="edge38" class="edge">
<title>x12:e&#45;&gt;n9:w</title>
<path fill="none" stroke="#e7298a" stroke-width="3" d="M3048.92,-122.5C3060.92,-122.5 3066.17,-122.5 3074.8,-122.5"/>
<polygon fill="#e7298a" stroke="#e7298a" stroke-width="3" points="3074.92,-126 3084.92,-122.5 3074.92,-119 3074.92,-126"/>
</g>
<!-- x13&#45;&gt;n8 -->
<g id="edge36" class="edge">
<title>x13:e&#45;&gt;n8:w</title>
<path fill="none" stroke="#e7298a" stroke-width="3" d="M3318.71,-122.5C3330.71,-122.5 3335.96,-122.5 3344.58,-122.5"/>
<polygon fill="#e7298a" stroke="#e7298a" stroke-width="3" points="3344.71,-126 3354.71,-122.5 3344.7,-119 3344.71,-126"/>
</g>
<!-- x14&#45;&gt;n7 -->
<g id="edge33" class="edge">
<title>x14:e&#45;&gt;n7:w</title>
<path fill="none" stroke="#a6761d" stroke-width="3" d="M3549.49,-122.5C3561.49,-122.5 3566.74,-122.5 3575.36,-122.5"/>
<polygon fill="#a6761d" stroke="#a6761d" stroke-width="3" points="3575.49,-126 3585.49,-122.5 3575.49,-119 3575.49,-126"/>
</g>
<!-- x15&#45;&gt;n6 -->
<g id="edge30" class="edge">
<title>x15:e&#45;&gt;n6:w</title>
<path fill="none" stroke="#a6761d" stroke-width="3" d="M321.55,-48.5C348.34,-48.5 357.48,-48.5 380,-48.5"/>
<polygon fill="#a6761d" stroke="#a6761d" stroke-width="3" points="380.15,-52 390.15,-48.5 380.15,-45 380.15,-52"/>
</g>
<!-- x16&#45;&gt;n5 -->
<g id="edge27" class="edge">
<title>x16:e&#45;&gt;n5:w</title>
<path fill="none" stroke="#d95f02" stroke-width="3" d="M688.24,-46.5C700.24,-46.5 705.49,-46.5 714.12,-46.5"/>
<polygon fill="#d95f02" stroke="#d95f02" stroke-width="3" points="714.24,-50 724.24,-46.5 714.24,-43 714.24,-50"/>
</g>
<!-- x17&#45;&gt;n17 -->
<g id="edge20" class="edge">
<title>x17:e&#45;&gt;n17:w</title>
<path fill="none" stroke="#7570b3" stroke-width="3" d="M4063.27,-84.5C4075.27,-84.5 4080.52,-84.5 4089.15,-84.5"/>
<polygon fill="#7570b3" stroke="#7570b3" stroke-width="3" points="4089.27,-88 4099.27,-84.5 4089.27,-81 4089.27,-88"/>
</g>
</g>
</svg>
