<?xml version="1.0" encoding="UTF-8" standalone="no"?>
<!DOCTYPE svg PUBLIC "-//W3C//DTD SVG 1.1//EN"
 "http://www.w3.org/Graphics/SVG/1.1/DTD/svg11.dtd">
<!-- Generated by graphviz version 2.43.20190912.0211 (20190912.0211)
 -->
<!-- Title: Sine Pages: 1 -->
<svg width="10535pt" height="383pt"
 viewBox="0.00 0.00 10535.03 383.00" xmlns="http://www.w3.org/2000/svg" xmlns:xlink="http://www.w3.org/1999/xlink">
<g id="graph0" class="graph" transform="scale(1 1) rotate(0) translate(4 379)">
<title>Sine</title>
<polygon fill="white" stroke="transparent" points="-4,4 -4,-379 10531.03,-379 10531.03,4 -4,4"/>
<text text-anchor="middle" x="5263.51" y="-7.8" font-family="Times,serif" font-size="14.00">Sine</text>
<!-- n12 -->
<g id="node1" class="node">
<title>n12</title>
<polygon fill="none" stroke="black" points="8622.94,-281.5 8570.66,-263.5 8622.94,-245.5 8675.23,-263.5 8622.94,-281.5"/>
<text text-anchor="middle" x="8622.94" y="-259.8" font-family="Times,serif" font-size="14.00">_T_40</text>
</g>
<!-- x0 -->
<g id="node27" class="node">
<title>x0</title>
<path fill="none" stroke="black" d="M9339.37,-240.5C9339.37,-240.5 9466.37,-240.5 9466.37,-240.5 9472.37,-240.5 9478.37,-246.5 9478.37,-252.5 9478.37,-252.5 9478.37,-274.5 9478.37,-274.5 9478.37,-280.5 9472.37,-286.5 9466.37,-286.5 9466.37,-286.5 9339.37,-286.5 9339.37,-286.5 9333.37,-286.5 9327.37,-280.5 9327.37,-274.5 9327.37,-274.5 9327.37,-252.5 9327.37,-252.5 9327.37,-246.5 9333.37,-240.5 9339.37,-240.5"/>
<text text-anchor="middle" x="9402.87" y="-271.3" font-family="Times,serif" font-size="14.00">16x 96:96 &#45; 112:97</text>
<polyline fill="none" stroke="black" points="9327.37,-263.5 9478.37,-263.5 "/>
<text text-anchor="middle" x="9402.87" y="-248.3" font-family="Times,serif" font-size="14.00">96:0 &#45; 96:0</text>
</g>
<!-- n12&#45;&gt;x0 -->
<g id="edge19" class="edge">
<title>n12:e&#45;&gt;x0:w</title>
<path fill="none" stroke="#d95f02" stroke-width="3" d="M8675.33,-263.5C8961.12,-263.5 9034.97,-251.78 9315.8,-251.5"/>
<polygon fill="#d95f02" stroke="#d95f02" stroke-width="3" points="9315.87,-255 9325.87,-251.5 9315.87,-248 9315.87,-255"/>
</g>
<!-- n12&#45;&gt;x0 -->
<g id="edge20" class="edge">
<title>n12:e&#45;&gt;x0:w</title>
<path fill="none" stroke="#d95f02" stroke-width="3" d="M8675.33,-263.5C8961.12,-263.5 9034.97,-275.22 9315.8,-275.5"/>
<polygon fill="#d95f02" stroke="#d95f02" stroke-width="3" points="9315.87,-279 9325.87,-275.5 9315.87,-272 9315.87,-279"/>
</g>
<!-- n13 -->
<g id="node2" class="node">
<title>n13</title>
<polygon fill="none" stroke="black" points="8094.45,-227.5 8027.25,-209.5 8094.45,-191.5 8161.65,-209.5 8094.45,-227.5"/>
<text text-anchor="middle" x="8094.45" y="-205.8" font-family="Times,serif" font-size="14.00">_GEN_3</text>
</g>
<!-- x2 -->
<g id="node29" class="node">
<title>x2</title>
<path fill="none" stroke="black" d="M8209.55,-198.5C8209.55,-198.5 8296.55,-198.5 8296.55,-198.5 8302.55,-198.5 8308.55,-204.5 8308.55,-210.5 8308.55,-210.5 8308.55,-232.5 8308.55,-232.5 8308.55,-238.5 8302.55,-244.5 8296.55,-244.5 8296.55,-244.5 8209.55,-244.5 8209.55,-244.5 8203.55,-244.5 8197.55,-238.5 8197.55,-232.5 8197.55,-232.5 8197.55,-210.5 8197.55,-210.5 8197.55,-204.5 8203.55,-198.5 8209.55,-198.5"/>
<text text-anchor="middle" x="8253.05" y="-229.3" font-family="Times,serif" font-size="14.00">95:95 &#45; 96:96</text>
<polyline fill="none" stroke="black" points="8197.55,-221.5 8308.55,-221.5 "/>
<text text-anchor="middle" x="8253.05" y="-206.3" font-family="Times,serif" font-size="14.00">95:0 &#45; 95:0</text>
</g>
<!-- n13&#45;&gt;x2 -->
<g id="edge22" class="edge">
<title>n13:e&#45;&gt;x2:w</title>
<path fill="none" stroke="#a6761d" stroke-width="3" d="M8161.55,-209.5C8173.55,-209.5 8178.8,-209.5 8187.43,-209.5"/>
<polygon fill="#a6761d" stroke="#a6761d" stroke-width="3" points="8187.55,-213 8197.55,-209.5 8187.55,-206 8187.55,-213"/>
</g>
<!-- n13&#45;&gt;x2 -->
<g id="edge23" class="edge">
<title>n13:e&#45;&gt;x2:w</title>
<path fill="none" stroke="#a6761d" stroke-width="3" d="M8161.55,-209.5C8176.72,-209.5 8178.39,-224.44 8187.87,-230.75"/>
<polygon fill="#a6761d" stroke="#a6761d" stroke-width="3" points="8186.97,-234.13 8197.55,-233.5 8188.89,-227.4 8186.97,-234.13"/>
</g>
<!-- n14 -->
<g id="node3" class="node">
<title>n14</title>
<polygon fill="none" stroke="black" points="7769.96,-200.5 7717.68,-182.5 7769.96,-164.5 7822.25,-182.5 7769.96,-200.5"/>
<text text-anchor="middle" x="7769.96" y="-178.8" font-family="Times,serif" font-size="14.00">_T_39</text>
</g>
<!-- x40 -->
<g id="node76" class="node">
<title>x40</title>
<path fill="none" stroke="black" d="M7870.35,-171.5C7870.35,-171.5 7979.35,-171.5 7979.35,-171.5 7985.35,-171.5 7991.35,-177.5 7991.35,-183.5 7991.35,-183.5 7991.35,-205.5 7991.35,-205.5 7991.35,-211.5 7985.35,-217.5 7979.35,-217.5 7979.35,-217.5 7870.35,-217.5 7870.35,-217.5 7864.35,-217.5 7858.35,-211.5 7858.35,-205.5 7858.35,-205.5 7858.35,-183.5 7858.35,-183.5 7858.35,-177.5 7864.35,-171.5 7870.35,-171.5"/>
<text text-anchor="middle" x="7924.85" y="-202.3" font-family="Times,serif" font-size="14.00">4x 91:91 &#45; 95:92</text>
<polyline fill="none" stroke="black" points="7858.35,-194.5 7991.35,-194.5 "/>
<text text-anchor="middle" x="7924.85" y="-179.3" font-family="Times,serif" font-size="14.00">91:0 &#45; 91:0</text>
</g>
<!-- n14&#45;&gt;x40 -->
<g id="edge25" class="edge">
<title>n14:e&#45;&gt;x40:w</title>
<path fill="none" stroke="#a6761d" stroke-width="3" d="M7822.35,-182.5C7834.35,-182.5 7839.6,-182.5 7848.23,-182.5"/>
<polygon fill="#a6761d" stroke="#a6761d" stroke-width="3" points="7848.35,-186 7858.35,-182.5 7848.35,-179 7848.35,-186"/>
</g>
<!-- n14&#45;&gt;x40 -->
<g id="edge26" class="edge">
<title>n14:e&#45;&gt;x40:w</title>
<path fill="none" stroke="#a6761d" stroke-width="3" d="M7822.35,-182.5C7837.53,-182.5 7839.2,-197.44 7848.67,-203.75"/>
<polygon fill="#a6761d" stroke="#a6761d" stroke-width="3" points="7847.78,-207.13 7858.35,-206.5 7849.69,-200.4 7847.78,-207.13"/>
</g>
<!-- n15 -->
<g id="node4" class="node">
<title>n15</title>
<polygon fill="none" stroke="black" points="7485.29,-190.5 7433,-172.5 7485.29,-154.5 7537.57,-172.5 7485.29,-190.5"/>
<text text-anchor="middle" x="7485.29" y="-168.8" font-family="Times,serif" font-size="14.00">_T_38</text>
</g>
<!-- x39 -->
<g id="node75" class="node">
<title>x39</title>
<path fill="none" stroke="black" d="M7644.18,-193.5C7644.18,-193.5 7614.18,-193.5 7614.18,-193.5 7608.18,-193.5 7602.18,-187.5 7602.18,-181.5 7602.18,-181.5 7602.18,-169.5 7602.18,-169.5 7602.18,-163.5 7608.18,-157.5 7614.18,-157.5 7614.18,-157.5 7644.18,-157.5 7644.18,-157.5 7650.18,-157.5 7656.18,-163.5 7656.18,-169.5 7656.18,-169.5 7656.18,-181.5 7656.18,-181.5 7656.18,-187.5 7650.18,-193.5 7644.18,-193.5"/>
<text text-anchor="middle" x="7629.18" y="-171.8" font-family="Times,serif" font-size="14.00">BUF</text>
</g>
<!-- n15&#45;&gt;x39 -->
<g id="edge28" class="edge">
<title>n15:e&#45;&gt;x39:w</title>
<path fill="none" stroke="#e7298a" stroke-width="3" d="M7538.29,-172.5C7562.55,-172.5 7570.98,-174.76 7591.04,-175.36"/>
<polygon fill="#e7298a" stroke="#e7298a" stroke-width="3" points="7591.13,-178.86 7601.18,-175.5 7591.23,-171.86 7591.13,-178.86"/>
</g>
<!-- n16 -->
<g id="node5" class="node">
<title>n16</title>
<polygon fill="none" stroke="black" points="7629.18,-248.5 7576.89,-230.5 7629.18,-212.5 7681.46,-230.5 7629.18,-248.5"/>
<text text-anchor="middle" x="7629.18" y="-226.8" font-family="Times,serif" font-size="14.00">_T_37</text>
</g>
<!-- n17 -->
<g id="node6" class="node">
<title>n17</title>
<polygon fill="none" stroke="black" points="5516.75,-224.5 5464.47,-206.5 5516.75,-188.5 5569.04,-206.5 5516.75,-224.5"/>
<text text-anchor="middle" x="5516.75" y="-202.8" font-family="Times,serif" font-size="14.00">_T_36</text>
</g>
<!-- c41 -->
<g id="node32" class="node">
<title>c41</title>
<polygon fill="none" stroke="black" points="6632.3,-123.5 6632.3,-169.5 6736.3,-169.5 6736.3,-123.5 6632.3,-123.5"/>
<text text-anchor="middle" x="6645.8" y="-154.3" font-family="Times,serif" font-size="14.00">A</text>
<polyline fill="none" stroke="black" points="6632.3,-146.5 6659.3,-146.5 "/>
<text text-anchor="middle" x="6645.8" y="-131.3" font-family="Times,serif" font-size="14.00">B</text>
<polyline fill="none" stroke="black" points="6659.3,-123.5 6659.3,-169.5 "/>
<text text-anchor="middle" x="6684.8" y="-150.3" font-family="Times,serif" font-size="14.00">$90</text>
<text text-anchor="middle" x="6684.8" y="-135.3" font-family="Times,serif" font-size="14.00">$sub</text>
<polyline fill="none" stroke="black" points="6710.3,-123.5 6710.3,-169.5 "/>
<text text-anchor="middle" x="6723.3" y="-142.8" font-family="Times,serif" font-size="14.00">Y</text>
</g>
<!-- n17&#45;&gt;c41 -->
<g id="edge31" class="edge">
<title>n17:e&#45;&gt;c41:w</title>
<path fill="none" stroke="#e7298a" stroke-width="3" d="M5569.75,-206.5C5796.67,-206.5 5853.2,-194.73 6079.6,-179.5 6321.59,-163.23 6383.55,-135.3 6620.96,-134.52"/>
<polygon fill="#e7298a" stroke="#e7298a" stroke-width="3" points="6621.31,-138.02 6631.3,-134.5 6621.3,-131.02 6621.31,-138.02"/>
</g>
<!-- x5 -->
<g id="node35" class="node">
<title>x5</title>
<path fill="none" stroke="black" d="M6640.8,-188.5C6640.8,-188.5 6727.8,-188.5 6727.8,-188.5 6733.8,-188.5 6739.8,-194.5 6739.8,-200.5 6739.8,-200.5 6739.8,-222.5 6739.8,-222.5 6739.8,-228.5 6733.8,-234.5 6727.8,-234.5 6727.8,-234.5 6640.8,-234.5 6640.8,-234.5 6634.8,-234.5 6628.8,-228.5 6628.8,-222.5 6628.8,-222.5 6628.8,-200.5 6628.8,-200.5 6628.8,-194.5 6634.8,-188.5 6640.8,-188.5"/>
<text text-anchor="middle" x="6684.3" y="-219.3" font-family="Times,serif" font-size="14.00">91:91 &#45; 92:92</text>
<polyline fill="none" stroke="black" points="6628.8,-211.5 6739.8,-211.5 "/>
<text text-anchor="middle" x="6684.3" y="-196.3" font-family="Times,serif" font-size="14.00">91:0 &#45; 91:0</text>
</g>
<!-- n17&#45;&gt;x5 -->
<g id="edge32" class="edge">
<title>n17:e&#45;&gt;x5:w</title>
<path fill="none" stroke="#e7298a" stroke-width="3" d="M5569.75,-206.5C6036.34,-206.5 6155.53,-199.6 6617.03,-199.5"/>
<polygon fill="#e7298a" stroke="#e7298a" stroke-width="3" points="6617.3,-203 6627.3,-199.5 6617.3,-196 6617.3,-203"/>
</g>
<!-- n17&#45;&gt;x5 -->
<g id="edge33" class="edge">
<title>n17:e&#45;&gt;x5:w</title>
<path fill="none" stroke="#e7298a" stroke-width="3" d="M5569.75,-206.5C6036.39,-206.5 6155.48,-223.25 6617.03,-223.5"/>
<polygon fill="#e7298a" stroke="#e7298a" stroke-width="3" points="6617.3,-227 6627.3,-223.5 6617.3,-220 6617.3,-227"/>
</g>
<!-- n18 -->
<g id="node7" class="node">
<title>n18</title>
<polygon fill="none" stroke="black" points="7341.39,-335.5 7289.11,-317.5 7341.39,-299.5 7393.68,-317.5 7341.39,-335.5"/>
<text text-anchor="middle" x="7341.39" y="-313.8" font-family="Times,serif" font-size="14.00">_T_30</text>
</g>
<!-- x3 -->
<g id="node30" class="node">
<title>x3</title>
<path fill="none" stroke="black" d="M7441.79,-282.5C7441.79,-282.5 7528.79,-282.5 7528.79,-282.5 7534.79,-282.5 7540.79,-288.5 7540.79,-294.5 7540.79,-294.5 7540.79,-316.5 7540.79,-316.5 7540.79,-322.5 7534.79,-328.5 7528.79,-328.5 7528.79,-328.5 7441.79,-328.5 7441.79,-328.5 7435.79,-328.5 7429.79,-322.5 7429.79,-316.5 7429.79,-316.5 7429.79,-294.5 7429.79,-294.5 7429.79,-288.5 7435.79,-282.5 7441.79,-282.5"/>
<text text-anchor="middle" x="7485.29" y="-313.3" font-family="Times,serif" font-size="14.00">95:95 &#45; 96:96</text>
<polyline fill="none" stroke="black" points="7429.79,-305.5 7540.79,-305.5 "/>
<text text-anchor="middle" x="7485.29" y="-290.3" font-family="Times,serif" font-size="14.00">95:0 &#45; 95:0</text>
</g>
<!-- n18&#45;&gt;x3 -->
<g id="edge35" class="edge">
<title>n18:e&#45;&gt;x3:w</title>
<path fill="none" stroke="#a6761d" stroke-width="3" d="M7393.79,-317.5C7408.96,-317.5 7410.63,-302.56 7420.1,-296.25"/>
<polygon fill="#a6761d" stroke="#a6761d" stroke-width="3" points="7421.12,-299.6 7429.79,-293.5 7419.21,-292.87 7421.12,-299.6"/>
</g>
<!-- n18&#45;&gt;x3 -->
<g id="edge36" class="edge">
<title>n18:e&#45;&gt;x3:w</title>
<path fill="none" stroke="#a6761d" stroke-width="3" d="M7393.79,-317.5C7405.79,-317.5 7411.04,-317.5 7419.66,-317.5"/>
<polygon fill="#a6761d" stroke="#a6761d" stroke-width="3" points="7419.79,-321 7429.79,-317.5 7419.79,-314 7419.79,-321"/>
</g>
<!-- n19 -->
<g id="node8" class="node">
<title>n19</title>
<polygon fill="none" stroke="black" points="4672.8,-307.5 4605.61,-289.5 4672.8,-271.5 4740,-289.5 4672.8,-307.5"/>
<text text-anchor="middle" x="4672.8" y="-285.8" font-family="Times,serif" font-size="14.00">_GEN_2</text>
</g>
<!-- x9 -->
<g id="node40" class="node">
<title>x9</title>
<path fill="none" stroke="black" d="M4787.9,-276.5C4787.9,-276.5 4905.9,-276.5 4905.9,-276.5 4911.9,-276.5 4917.9,-282.5 4917.9,-288.5 4917.9,-288.5 4917.9,-310.5 4917.9,-310.5 4917.9,-316.5 4911.9,-322.5 4905.9,-322.5 4905.9,-322.5 4787.9,-322.5 4787.9,-322.5 4781.9,-322.5 4775.9,-316.5 4775.9,-310.5 4775.9,-310.5 4775.9,-288.5 4775.9,-288.5 4775.9,-282.5 4781.9,-276.5 4787.9,-276.5"/>
<text text-anchor="middle" x="4846.9" y="-307.3" font-family="Times,serif" font-size="14.00">46x 49:49 &#45; 95:50</text>
<polyline fill="none" stroke="black" points="4775.9,-299.5 4917.9,-299.5 "/>
<text text-anchor="middle" x="4846.9" y="-284.3" font-family="Times,serif" font-size="14.00">49:0 &#45; 49:0</text>
</g>
<!-- n19&#45;&gt;x9 -->
<g id="edge38" class="edge">
<title>n19:e&#45;&gt;x9:w</title>
<path fill="none" stroke="#d95f02" stroke-width="3" d="M4739.9,-289.5C4751.92,-289.5 4757.15,-288.38 4765.77,-287.81"/>
<polygon fill="#d95f02" stroke="#d95f02" stroke-width="3" points="4766.02,-291.31 4775.9,-287.5 4765.8,-284.31 4766.02,-291.31"/>
</g>
<!-- n19&#45;&gt;x9 -->
<g id="edge39" class="edge">
<title>n19:e&#45;&gt;x9:w</title>
<path fill="none" stroke="#d95f02" stroke-width="3" d="M4739.9,-289.5C4754.55,-289.5 4756.84,-302.93 4766.08,-308.8"/>
<polygon fill="#d95f02" stroke="#d95f02" stroke-width="3" points="4765.33,-312.23 4775.9,-311.5 4767.19,-305.48 4765.33,-312.23"/>
</g>
<!-- n20 -->
<g id="node9" class="node">
<title>n20</title>
<polygon fill="none" stroke="black" points="4320.71,-295.5 4268.42,-277.5 4320.71,-259.5 4372.99,-277.5 4320.71,-295.5"/>
<text text-anchor="middle" x="4320.71" y="-273.8" font-family="Times,serif" font-size="14.00">_T_29</text>
</g>
<!-- x7 -->
<g id="node37" class="node">
<title>x7</title>
<path fill="none" stroke="black" d="M4439.71,-201.5C4439.71,-201.5 4557.71,-201.5 4557.71,-201.5 4563.71,-201.5 4569.71,-207.5 4569.71,-213.5 4569.71,-213.5 4569.71,-235.5 4569.71,-235.5 4569.71,-241.5 4563.71,-247.5 4557.71,-247.5 4557.71,-247.5 4439.71,-247.5 4439.71,-247.5 4433.71,-247.5 4427.71,-241.5 4427.71,-235.5 4427.71,-235.5 4427.71,-213.5 4427.71,-213.5 4427.71,-207.5 4433.71,-201.5 4439.71,-201.5"/>
<text text-anchor="middle" x="4498.71" y="-232.3" font-family="Times,serif" font-size="14.00">46x 45:45 &#45; 91:46</text>
<polyline fill="none" stroke="black" points="4427.71,-224.5 4569.71,-224.5 "/>
<text text-anchor="middle" x="4498.71" y="-209.3" font-family="Times,serif" font-size="14.00">45:0 &#45; 45:0</text>
</g>
<!-- n20&#45;&gt;x7 -->
<g id="edge44" class="edge">
<title>n20:e&#45;&gt;x7:w</title>
<path fill="none" stroke="#1b9e77" stroke-width="3" d="M4373.71,-277.5C4407.3,-277.5 4393.95,-225.49 4417.64,-214.52"/>
<polygon fill="#1b9e77" stroke="#1b9e77" stroke-width="3" points="4418.59,-217.9 4427.71,-212.5 4417.21,-211.03 4418.59,-217.9"/>
</g>
<!-- n20&#45;&gt;x7 -->
<g id="edge45" class="edge">
<title>n20:e&#45;&gt;x7:w</title>
<path fill="none" stroke="#1b9e77" stroke-width="3" d="M4373.71,-277.5C4399.95,-277.5 4398.58,-246.39 4417.71,-238.37"/>
<polygon fill="#1b9e77" stroke="#1b9e77" stroke-width="3" points="4418.52,-241.78 4427.71,-236.5 4417.23,-234.9 4418.52,-241.78"/>
</g>
<!-- x34 -->
<g id="node70" class="node">
<title>x34</title>
<path fill="none" stroke="black" d="M4444.21,-266.5C4444.21,-266.5 4553.21,-266.5 4553.21,-266.5 4559.21,-266.5 4565.21,-272.5 4565.21,-278.5 4565.21,-278.5 4565.21,-300.5 4565.21,-300.5 4565.21,-306.5 4559.21,-312.5 4553.21,-312.5 4553.21,-312.5 4444.21,-312.5 4444.21,-312.5 4438.21,-312.5 4432.21,-306.5 4432.21,-300.5 4432.21,-300.5 4432.21,-278.5 4432.21,-278.5 4432.21,-272.5 4438.21,-266.5 4444.21,-266.5"/>
<text text-anchor="middle" x="4498.71" y="-297.3" font-family="Times,serif" font-size="14.00">4x 45:45 &#45; 49:46</text>
<polyline fill="none" stroke="black" points="4432.21,-289.5 4565.21,-289.5 "/>
<text text-anchor="middle" x="4498.71" y="-274.3" font-family="Times,serif" font-size="14.00">45:0 &#45; 45:0</text>
</g>
<!-- n20&#45;&gt;x34 -->
<g id="edge42" class="edge">
<title>n20:e&#45;&gt;x34:w</title>
<path fill="none" stroke="#1b9e77" stroke-width="3" d="M4373.71,-277.5C4395.28,-277.5 4403.07,-277.5 4420.56,-277.5"/>
<polygon fill="#1b9e77" stroke="#1b9e77" stroke-width="3" points="4420.71,-281 4430.71,-277.5 4420.71,-274 4420.71,-281"/>
</g>
<!-- n20&#45;&gt;x34 -->
<g id="edge43" class="edge">
<title>n20:e&#45;&gt;x34:w</title>
<path fill="none" stroke="#1b9e77" stroke-width="3" d="M4373.71,-277.5C4397.43,-277.5 4402.19,-295.39 4420.73,-300.28"/>
<polygon fill="#1b9e77" stroke="#1b9e77" stroke-width="3" points="4420.35,-303.76 4430.71,-301.5 4421.21,-296.81 4420.35,-303.76"/>
</g>
<!-- n21 -->
<g id="node10" class="node">
<title>n21</title>
<polygon fill="none" stroke="black" points="4020.53,-298.5 3968.25,-280.5 4020.53,-262.5 4072.81,-280.5 4020.53,-298.5"/>
<text text-anchor="middle" x="4020.53" y="-276.8" font-family="Times,serif" font-size="14.00">_T_28</text>
</g>
<!-- x33 -->
<g id="node69" class="node">
<title>x33</title>
<path fill="none" stroke="black" d="M4176.31,-297.5C4176.31,-297.5 4146.31,-297.5 4146.31,-297.5 4140.31,-297.5 4134.31,-291.5 4134.31,-285.5 4134.31,-285.5 4134.31,-273.5 4134.31,-273.5 4134.31,-267.5 4140.31,-261.5 4146.31,-261.5 4146.31,-261.5 4176.31,-261.5 4176.31,-261.5 4182.31,-261.5 4188.31,-267.5 4188.31,-273.5 4188.31,-273.5 4188.31,-285.5 4188.31,-285.5 4188.31,-291.5 4182.31,-297.5 4176.31,-297.5"/>
<text text-anchor="middle" x="4161.31" y="-275.8" font-family="Times,serif" font-size="14.00">BUF</text>
</g>
<!-- n21&#45;&gt;x33 -->
<g id="edge47" class="edge">
<title>n21:e&#45;&gt;x33:w</title>
<path fill="none" stroke="#e6ab02" stroke-width="3" d="M4072.92,-280.5C4095.99,-280.5 4104.19,-279.76 4123.07,-279.55"/>
<polygon fill="#e6ab02" stroke="#e6ab02" stroke-width="3" points="4123.33,-283.05 4133.31,-279.5 4123.3,-276.05 4123.33,-283.05"/>
</g>
<!-- n22 -->
<g id="node11" class="node">
<title>n22</title>
<polygon fill="none" stroke="black" points="4161.31,-94.5 4109.03,-76.5 4161.31,-58.5 4213.6,-76.5 4161.31,-94.5"/>
<text text-anchor="middle" x="4161.31" y="-72.8" font-family="Times,serif" font-size="14.00">_T_27</text>
</g>
<!-- n23 -->
<g id="node12" class="node">
<title>n23</title>
<polygon fill="none" stroke="black" points="4161.31,-360.5 4109.03,-342.5 4161.31,-324.5 4213.6,-342.5 4161.31,-360.5"/>
<text text-anchor="middle" x="4161.31" y="-338.8" font-family="Times,serif" font-size="14.00">_T_25</text>
</g>
<!-- x10 -->
<g id="node41" class="node">
<title>x10</title>
<path fill="none" stroke="black" d="M4261.71,-328.5C4261.71,-328.5 4379.71,-328.5 4379.71,-328.5 4385.71,-328.5 4391.71,-334.5 4391.71,-340.5 4391.71,-340.5 4391.71,-362.5 4391.71,-362.5 4391.71,-368.5 4385.71,-374.5 4379.71,-374.5 4379.71,-374.5 4261.71,-374.5 4261.71,-374.5 4255.71,-374.5 4249.71,-368.5 4249.71,-362.5 4249.71,-362.5 4249.71,-340.5 4249.71,-340.5 4249.71,-334.5 4255.71,-328.5 4261.71,-328.5"/>
<text text-anchor="middle" x="4320.71" y="-359.3" font-family="Times,serif" font-size="14.00">46x 49:49 &#45; 95:50</text>
<polyline fill="none" stroke="black" points="4249.71,-351.5 4391.71,-351.5 "/>
<text text-anchor="middle" x="4320.71" y="-336.3" font-family="Times,serif" font-size="14.00">49:0 &#45; 49:0</text>
</g>
<!-- n23&#45;&gt;x10 -->
<g id="edge50" class="edge">
<title>n23:e&#45;&gt;x10:w</title>
<path fill="none" stroke="#d95f02" stroke-width="3" d="M4213.71,-342.5C4225.75,-342.5 4230.95,-340.81 4239.56,-339.97"/>
<polygon fill="#d95f02" stroke="#d95f02" stroke-width="3" points="4239.88,-343.46 4249.71,-339.5 4239.55,-336.47 4239.88,-343.46"/>
</g>
<!-- n23&#45;&gt;x10 -->
<g id="edge51" class="edge">
<title>n23:e&#45;&gt;x10:w</title>
<path fill="none" stroke="#d95f02" stroke-width="3" d="M4213.71,-342.5C4228.18,-342.5 4230.7,-355.32 4239.95,-360.92"/>
<polygon fill="#d95f02" stroke="#d95f02" stroke-width="3" points="4239.14,-364.33 4249.71,-363.5 4240.93,-357.56 4239.14,-364.33"/>
</g>
<!-- n24 -->
<g id="node13" class="node">
<title>n24</title>
<polygon fill="none" stroke="black" points="2826.02,-196.5 2738.88,-178.5 2826.02,-160.5 2913.16,-178.5 2826.02,-196.5"/>
<text text-anchor="middle" x="2826.02" y="-174.8" font-family="Times,serif" font-size="14.00">angleValue</text>
</g>
<!-- x8 -->
<g id="node38" class="node">
<title>x8</title>
<path fill="none" stroke="black" d="M3413.97,-143.5C3413.97,-143.5 3531.97,-143.5 3531.97,-143.5 3537.97,-143.5 3543.97,-149.5 3543.97,-155.5 3543.97,-155.5 3543.97,-177.5 3543.97,-177.5 3543.97,-183.5 3537.97,-189.5 3531.97,-189.5 3531.97,-189.5 3413.97,-189.5 3413.97,-189.5 3407.97,-189.5 3401.97,-183.5 3401.97,-177.5 3401.97,-177.5 3401.97,-155.5 3401.97,-155.5 3401.97,-149.5 3407.97,-143.5 3413.97,-143.5"/>
<text text-anchor="middle" x="3472.97" y="-174.3" font-family="Times,serif" font-size="14.00">46x 45:45 &#45; 91:46</text>
<polyline fill="none" stroke="black" points="3401.97,-166.5 3543.97,-166.5 "/>
<text text-anchor="middle" x="3472.97" y="-151.3" font-family="Times,serif" font-size="14.00">45:0 &#45; 45:0</text>
</g>
<!-- n24&#45;&gt;x8 -->
<g id="edge58" class="edge">
<title>n24:e&#45;&gt;x8:w</title>
<path fill="none" stroke="#1b9e77" stroke-width="3" d="M2914.02,-178.5C3127.32,-178.5 3182.57,-155.24 3390.93,-154.52"/>
<polygon fill="#1b9e77" stroke="#1b9e77" stroke-width="3" points="3390.97,-158.02 3400.97,-154.5 3390.96,-151.02 3390.97,-158.02"/>
</g>
<!-- n24&#45;&gt;x8 -->
<g id="edge59" class="edge">
<title>n24:e&#45;&gt;x8:w</title>
<path fill="none" stroke="#1b9e77" stroke-width="3" d="M2914.02,-178.5C3127.06,-178.5 3182.81,-178.5 3390.94,-178.5"/>
<polygon fill="#1b9e77" stroke="#1b9e77" stroke-width="3" points="3390.97,-182 3400.97,-178.5 3390.97,-175 3390.97,-182"/>
</g>
<!-- c45 -->
<g id="node43" class="node">
<title>c45</title>
<polygon fill="none" stroke="black" points="3420.97,-273.5 3420.97,-319.5 3524.97,-319.5 3524.97,-273.5 3420.97,-273.5"/>
<text text-anchor="middle" x="3434.47" y="-304.3" font-family="Times,serif" font-size="14.00">A</text>
<polyline fill="none" stroke="black" points="3420.97,-296.5 3447.97,-296.5 "/>
<text text-anchor="middle" x="3434.47" y="-281.3" font-family="Times,serif" font-size="14.00">B</text>
<polyline fill="none" stroke="black" points="3447.97,-273.5 3447.97,-319.5 "/>
<text text-anchor="middle" x="3473.47" y="-300.3" font-family="Times,serif" font-size="14.00">$86</text>
<text text-anchor="middle" x="3473.47" y="-285.3" font-family="Times,serif" font-size="14.00">$sub</text>
<polyline fill="none" stroke="black" points="3498.97,-273.5 3498.97,-319.5 "/>
<text text-anchor="middle" x="3511.97" y="-292.8" font-family="Times,serif" font-size="14.00">Y</text>
</g>
<!-- n24&#45;&gt;c45 -->
<g id="edge53" class="edge">
<title>n24:e&#45;&gt;c45:w</title>
<path fill="none" stroke="#1b9e77" stroke-width="3" d="M2914.02,-178.5C3028.07,-178.5 3044.22,-240.87 3155.79,-264.5 3267.61,-288.18 3300.32,-284.73 3409.84,-284.51"/>
<polygon fill="#1b9e77" stroke="#1b9e77" stroke-width="3" points="3409.97,-288.01 3419.97,-284.5 3409.96,-281.01 3409.97,-288.01"/>
</g>
<!-- x12 -->
<g id="node46" class="node">
<title>x12</title>
<path fill="none" stroke="black" d="M3429.47,-23.5C3429.47,-23.5 3516.47,-23.5 3516.47,-23.5 3522.47,-23.5 3528.47,-29.5 3528.47,-35.5 3528.47,-35.5 3528.47,-57.5 3528.47,-57.5 3528.47,-63.5 3522.47,-69.5 3516.47,-69.5 3516.47,-69.5 3429.47,-69.5 3429.47,-69.5 3423.47,-69.5 3417.47,-63.5 3417.47,-57.5 3417.47,-57.5 3417.47,-35.5 3417.47,-35.5 3417.47,-29.5 3423.47,-23.5 3429.47,-23.5"/>
<text text-anchor="middle" x="3472.97" y="-54.3" font-family="Times,serif" font-size="14.00">45:45 &#45; 46:46</text>
<polyline fill="none" stroke="black" points="3417.47,-46.5 3528.47,-46.5 "/>
<text text-anchor="middle" x="3472.97" y="-31.3" font-family="Times,serif" font-size="14.00">45:0 &#45; 45:0</text>
</g>
<!-- n24&#45;&gt;x12 -->
<g id="edge54" class="edge">
<title>n24:e&#45;&gt;x12:w</title>
<path fill="none" stroke="#1b9e77" stroke-width="3" d="M2914.02,-178.5C3030.13,-178.5 3044.2,-111.58 3155.79,-79.5 3265.27,-48.02 3296.79,-35.25 3405.87,-34.53"/>
<polygon fill="#1b9e77" stroke="#1b9e77" stroke-width="3" points="3405.98,-38.03 3415.97,-34.5 3405.95,-31.03 3405.98,-38.03"/>
</g>
<!-- n24&#45;&gt;x12 -->
<g id="edge55" class="edge">
<title>n24:e&#45;&gt;x12:w</title>
<path fill="none" stroke="#1b9e77" stroke-width="3" d="M2914.02,-178.5C3030.13,-178.5 3042.86,-106.49 3155.79,-79.5 3265.21,-53.35 3297.99,-58.17 3405.66,-58.48"/>
<polygon fill="#1b9e77" stroke="#1b9e77" stroke-width="3" points="3405.96,-61.99 3415.97,-58.5 3405.97,-54.99 3405.96,-61.99"/>
</g>
<!-- x14 -->
<g id="node49" class="node">
<title>x14</title>
<path fill="none" stroke="black" d="M3418.47,-208.5C3418.47,-208.5 3527.47,-208.5 3527.47,-208.5 3533.47,-208.5 3539.47,-214.5 3539.47,-220.5 3539.47,-220.5 3539.47,-242.5 3539.47,-242.5 3539.47,-248.5 3533.47,-254.5 3527.47,-254.5 3527.47,-254.5 3418.47,-254.5 3418.47,-254.5 3412.47,-254.5 3406.47,-248.5 3406.47,-242.5 3406.47,-242.5 3406.47,-220.5 3406.47,-220.5 3406.47,-214.5 3412.47,-208.5 3418.47,-208.5"/>
<text text-anchor="middle" x="3472.97" y="-239.3" font-family="Times,serif" font-size="14.00">4x 45:45 &#45; 49:46</text>
<polyline fill="none" stroke="black" points="3406.47,-231.5 3539.47,-231.5 "/>
<text text-anchor="middle" x="3472.97" y="-216.3" font-family="Times,serif" font-size="14.00">45:0 &#45; 45:0</text>
</g>
<!-- n24&#45;&gt;x14 -->
<g id="edge56" class="edge">
<title>n24:e&#45;&gt;x14:w</title>
<path fill="none" stroke="#1b9e77" stroke-width="3" d="M2914.02,-178.5C3020.29,-178.5 3279.69,-217.13 3394.93,-219.4"/>
<polygon fill="#1b9e77" stroke="#1b9e77" stroke-width="3" points="3394.93,-222.9 3404.97,-219.5 3395,-215.9 3394.93,-222.9"/>
</g>
<!-- n24&#45;&gt;x14 -->
<g id="edge57" class="edge">
<title>n24:e&#45;&gt;x14:w</title>
<path fill="none" stroke="#1b9e77" stroke-width="3" d="M2914.02,-178.5C3130.68,-178.5 3183.24,-241.48 3394.77,-243.45"/>
<polygon fill="#1b9e77" stroke="#1b9e77" stroke-width="3" points="3394.95,-246.95 3404.97,-243.5 3394.98,-239.95 3394.95,-246.95"/>
</g>
<!-- n25 -->
<g id="node14" class="node">
<title>n25</title>
<polygon fill="none" stroke="black" points="830.7,-158.5 763.5,-140.5 830.7,-122.5 897.89,-140.5 830.7,-158.5"/>
<text text-anchor="middle" x="830.7" y="-136.8" font-family="Times,serif" font-size="14.00">_GEN_1</text>
</g>
<!-- x16 -->
<g id="node51" class="node">
<title>x16</title>
<path fill="none" stroke="black" d="M961.3,-129.5C961.3,-129.5 1048.3,-129.5 1048.3,-129.5 1054.3,-129.5 1060.3,-135.5 1060.3,-141.5 1060.3,-141.5 1060.3,-163.5 1060.3,-163.5 1060.3,-169.5 1054.3,-175.5 1048.3,-175.5 1048.3,-175.5 961.3,-175.5 961.3,-175.5 955.3,-175.5 949.3,-169.5 949.3,-163.5 949.3,-163.5 949.3,-141.5 949.3,-141.5 949.3,-135.5 955.3,-129.5 961.3,-129.5"/>
<text text-anchor="middle" x="1004.8" y="-160.3" font-family="Times,serif" font-size="14.00">44:44 &#45; 45:45</text>
<polyline fill="none" stroke="black" points="949.3,-152.5 1060.3,-152.5 "/>
<text text-anchor="middle" x="1004.8" y="-137.3" font-family="Times,serif" font-size="14.00">44:0 &#45; 44:0</text>
</g>
<!-- n25&#45;&gt;x16 -->
<g id="edge61" class="edge">
<title>n25:e&#45;&gt;x16:w</title>
<path fill="none" stroke="#a6761d" stroke-width="3" d="M898.7,-140.5C916.6,-140.5 923.49,-140.5 937.43,-140.5"/>
<polygon fill="#a6761d" stroke="#a6761d" stroke-width="3" points="937.8,-144 947.8,-140.5 937.8,-137 937.8,-144"/>
</g>
<!-- n25&#45;&gt;x16 -->
<g id="edge62" class="edge">
<title>n25:e&#45;&gt;x16:w</title>
<path fill="none" stroke="#a6761d" stroke-width="3" d="M898.7,-140.5C919,-140.5 922.7,-157.27 937.55,-162.77"/>
<polygon fill="#a6761d" stroke="#a6761d" stroke-width="3" points="937.35,-166.29 947.8,-164.5 938.52,-159.39 937.35,-166.29"/>
</g>
<!-- n26 -->
<g id="node15" class="node">
<title>n26</title>
<polygon fill="none" stroke="black" points="493.31,-152.5 441.02,-134.5 493.31,-116.5 545.59,-134.5 493.31,-152.5"/>
<text text-anchor="middle" x="493.31" y="-130.8" font-family="Times,serif" font-size="14.00">_T_21</text>
</g>
<!-- x28 -->
<g id="node64" class="node">
<title>x28</title>
<path fill="none" stroke="black" d="M593.7,-117.5C593.7,-117.5 711.7,-117.5 711.7,-117.5 717.7,-117.5 723.7,-123.5 723.7,-129.5 723.7,-129.5 723.7,-151.5 723.7,-151.5 723.7,-157.5 717.7,-163.5 711.7,-163.5 711.7,-163.5 593.7,-163.5 593.7,-163.5 587.7,-163.5 581.7,-157.5 581.7,-151.5 581.7,-151.5 581.7,-129.5 581.7,-129.5 581.7,-123.5 587.7,-117.5 593.7,-117.5"/>
<text text-anchor="middle" x="652.7" y="-148.3" font-family="Times,serif" font-size="14.00">33x 11:11 &#45; 44:12</text>
<polyline fill="none" stroke="black" points="581.7,-140.5 723.7,-140.5 "/>
<text text-anchor="middle" x="652.7" y="-125.3" font-family="Times,serif" font-size="14.00">11:0 &#45; 11:0</text>
</g>
<!-- n26&#45;&gt;x28 -->
<g id="edge64" class="edge">
<title>n26:e&#45;&gt;x28:w</title>
<path fill="none" stroke="#e6ab02" stroke-width="3" d="M545.7,-134.5C557.86,-134.5 562.91,-131.12 571.51,-129.44"/>
<polygon fill="#e6ab02" stroke="#e6ab02" stroke-width="3" points="572.06,-132.9 581.7,-128.5 571.42,-125.93 572.06,-132.9"/>
</g>
<!-- n26&#45;&gt;x28 -->
<g id="edge65" class="edge">
<title>n26:e&#45;&gt;x28:w</title>
<path fill="none" stroke="#e6ab02" stroke-width="3" d="M545.7,-134.5C559.53,-134.5 562.8,-145.27 571.85,-150.15"/>
<polygon fill="#e6ab02" stroke="#e6ab02" stroke-width="3" points="571.16,-153.58 581.7,-152.5 572.78,-146.77 571.16,-153.58"/>
</g>
<!-- n27 -->
<g id="node16" class="node">
<title>n27</title>
<polygon fill="none" stroke="black" points="2070.85,-234.5 2018.57,-216.5 2070.85,-198.5 2123.14,-216.5 2070.85,-234.5"/>
<text text-anchor="middle" x="2070.85" y="-212.8" font-family="Times,serif" font-size="14.00">_T_20</text>
</g>
<!-- x17 -->
<g id="node52" class="node">
<title>x17</title>
<path fill="none" stroke="black" d="M2171.25,-181.5C2171.25,-181.5 2258.25,-181.5 2258.25,-181.5 2264.25,-181.5 2270.25,-187.5 2270.25,-193.5 2270.25,-193.5 2270.25,-215.5 2270.25,-215.5 2270.25,-221.5 2264.25,-227.5 2258.25,-227.5 2258.25,-227.5 2171.25,-227.5 2171.25,-227.5 2165.25,-227.5 2159.25,-221.5 2159.25,-215.5 2159.25,-215.5 2159.25,-193.5 2159.25,-193.5 2159.25,-187.5 2165.25,-181.5 2171.25,-181.5"/>
<text text-anchor="middle" x="2214.75" y="-212.3" font-family="Times,serif" font-size="14.00">44:44 &#45; 45:45</text>
<polyline fill="none" stroke="black" points="2159.25,-204.5 2270.25,-204.5 "/>
<text text-anchor="middle" x="2214.75" y="-189.3" font-family="Times,serif" font-size="14.00">44:0 &#45; 44:0</text>
</g>
<!-- n27&#45;&gt;x17 -->
<g id="edge67" class="edge">
<title>n27:e&#45;&gt;x17:w</title>
<path fill="none" stroke="#66a61e" stroke-width="3" d="M2123.25,-216.5C2138.42,-216.5 2140.09,-201.56 2149.57,-195.25"/>
<polygon fill="#66a61e" stroke="#66a61e" stroke-width="3" points="2150.58,-198.6 2159.25,-192.5 2148.67,-191.87 2150.58,-198.6"/>
</g>
<!-- n27&#45;&gt;x17 -->
<g id="edge68" class="edge">
<title>n27:e&#45;&gt;x17:w</title>
<path fill="none" stroke="#66a61e" stroke-width="3" d="M2123.25,-216.5C2135.25,-216.5 2140.5,-216.5 2149.12,-216.5"/>
<polygon fill="#66a61e" stroke="#66a61e" stroke-width="3" points="2149.25,-220 2159.25,-216.5 2149.25,-213 2149.25,-220"/>
</g>
<!-- n28 -->
<g id="node17" class="node">
<title>n28</title>
<polygon fill="none" stroke="black" points="1840.07,-234.5 1787.79,-216.5 1840.07,-198.5 1892.35,-216.5 1840.07,-234.5"/>
<text text-anchor="middle" x="1840.07" y="-212.8" font-family="Times,serif" font-size="14.00">_T_19</text>
</g>
<!-- x26 -->
<g id="node62" class="node">
<title>x26</title>
<path fill="none" stroke="black" d="M1970.46,-234.5C1970.46,-234.5 1940.46,-234.5 1940.46,-234.5 1934.46,-234.5 1928.46,-228.5 1928.46,-222.5 1928.46,-222.5 1928.46,-210.5 1928.46,-210.5 1928.46,-204.5 1934.46,-198.5 1940.46,-198.5 1940.46,-198.5 1970.46,-198.5 1970.46,-198.5 1976.46,-198.5 1982.46,-204.5 1982.46,-210.5 1982.46,-210.5 1982.46,-222.5 1982.46,-222.5 1982.46,-228.5 1976.46,-234.5 1970.46,-234.5"/>
<text text-anchor="middle" x="1955.46" y="-212.8" font-family="Times,serif" font-size="14.00">BUF</text>
</g>
<!-- n28&#45;&gt;x26 -->
<g id="edge70" class="edge">
<title>n28:e&#45;&gt;x26:w</title>
<path fill="none" stroke="#1b9e77" stroke-width="3" d="M1892.46,-216.5C1904.46,-216.5 1909.71,-216.5 1918.34,-216.5"/>
<polygon fill="#1b9e77" stroke="#1b9e77" stroke-width="3" points="1918.46,-220 1928.46,-216.5 1918.46,-213 1918.46,-220"/>
</g>
<!-- n29 -->
<g id="node18" class="node">
<title>n29</title>
<polygon fill="none" stroke="black" points="1570.29,-234.5 1518,-216.5 1570.29,-198.5 1622.57,-216.5 1570.29,-234.5"/>
<text text-anchor="middle" x="1570.29" y="-212.8" font-family="Times,serif" font-size="14.00">_T_18</text>
</g>
<!-- x25 -->
<g id="node61" class="node">
<title>x25</title>
<path fill="none" stroke="black" d="M1670.68,-198.5C1670.68,-198.5 1739.68,-198.5 1739.68,-198.5 1745.68,-198.5 1751.68,-204.5 1751.68,-210.5 1751.68,-210.5 1751.68,-222.5 1751.68,-222.5 1751.68,-228.5 1745.68,-234.5 1739.68,-234.5 1739.68,-234.5 1670.68,-234.5 1670.68,-234.5 1664.68,-234.5 1658.68,-228.5 1658.68,-222.5 1658.68,-222.5 1658.68,-210.5 1658.68,-210.5 1658.68,-204.5 1664.68,-198.5 1670.68,-198.5"/>
<text text-anchor="middle" x="1705.18" y="-212.8" font-family="Times,serif" font-size="14.00">44:0 &#45; 44:0</text>
</g>
<!-- n29&#45;&gt;x25 -->
<g id="edge72" class="edge">
<title>n29:e&#45;&gt;x25:w</title>
<path fill="none" stroke="#1b9e77" stroke-width="3" d="M1622.68,-216.5C1634.68,-216.5 1639.93,-216.5 1648.55,-216.5"/>
<polygon fill="#1b9e77" stroke="#1b9e77" stroke-width="3" points="1648.68,-220 1658.68,-216.5 1648.68,-213 1648.68,-220"/>
</g>
<!-- n30 -->
<g id="node19" class="node">
<title>n30</title>
<polygon fill="none" stroke="black" points="1004.8,-282.5 937.6,-264.5 1004.8,-246.5 1071.99,-264.5 1004.8,-282.5"/>
<text text-anchor="middle" x="1004.8" y="-260.8" font-family="Times,serif" font-size="14.00">_GEN_0</text>
</g>
<!-- x19 -->
<g id="node55" class="node">
<title>x19</title>
<path fill="none" stroke="black" d="M1119.89,-233.5C1119.89,-233.5 1237.89,-233.5 1237.89,-233.5 1243.89,-233.5 1249.89,-239.5 1249.89,-245.5 1249.89,-245.5 1249.89,-267.5 1249.89,-267.5 1249.89,-273.5 1243.89,-279.5 1237.89,-279.5 1237.89,-279.5 1119.89,-279.5 1119.89,-279.5 1113.89,-279.5 1107.89,-273.5 1107.89,-267.5 1107.89,-267.5 1107.89,-245.5 1107.89,-245.5 1107.89,-239.5 1113.89,-233.5 1119.89,-233.5"/>
<text text-anchor="middle" x="1178.89" y="-264.3" font-family="Times,serif" font-size="14.00">13x 32:32 &#45; 45:33</text>
<polyline fill="none" stroke="black" points="1107.89,-256.5 1249.89,-256.5 "/>
<text text-anchor="middle" x="1178.89" y="-241.3" font-family="Times,serif" font-size="14.00">32:0 &#45; 32:0</text>
</g>
<!-- n30&#45;&gt;x19 -->
<g id="edge75" class="edge">
<title>n30:e&#45;&gt;x19:w</title>
<path fill="none" stroke="#e7298a" stroke-width="3" d="M1071.89,-264.5C1086.05,-264.5 1088.9,-252.54 1097.93,-247.11"/>
<polygon fill="#e7298a" stroke="#e7298a" stroke-width="3" points="1099.11,-250.42 1107.89,-244.5 1097.33,-243.65 1099.11,-250.42"/>
</g>
<!-- n30&#45;&gt;x19 -->
<g id="edge76" class="edge">
<title>n30:e&#45;&gt;x19:w</title>
<path fill="none" stroke="#e7298a" stroke-width="3" d="M1071.89,-264.5C1083.97,-264.5 1089.13,-266.75 1097.74,-267.88"/>
<polygon fill="#e7298a" stroke="#e7298a" stroke-width="3" points="1097.7,-271.38 1107.89,-268.5 1098.13,-264.39 1097.7,-271.38"/>
</g>
<!-- n31 -->
<g id="node20" class="node">
<title>n31</title>
<polygon fill="none" stroke="black" points="493.31,-225.5 441.02,-207.5 493.31,-189.5 545.59,-207.5 493.31,-225.5"/>
<text text-anchor="middle" x="493.31" y="-203.8" font-family="Times,serif" font-size="14.00">_T_17</text>
</g>
<!-- x18 -->
<g id="node54" class="node">
<title>x18</title>
<path fill="none" stroke="black" d="M593.7,-182.5C593.7,-182.5 711.7,-182.5 711.7,-182.5 717.7,-182.5 723.7,-188.5 723.7,-194.5 723.7,-194.5 723.7,-216.5 723.7,-216.5 723.7,-222.5 717.7,-228.5 711.7,-228.5 711.7,-228.5 593.7,-228.5 593.7,-228.5 587.7,-228.5 581.7,-222.5 581.7,-216.5 581.7,-216.5 581.7,-194.5 581.7,-194.5 581.7,-188.5 587.7,-182.5 593.7,-182.5"/>
<text text-anchor="middle" x="652.7" y="-213.3" font-family="Times,serif" font-size="14.00">13x 32:32 &#45; 45:33</text>
<polyline fill="none" stroke="black" points="581.7,-205.5 723.7,-205.5 "/>
<text text-anchor="middle" x="652.7" y="-190.3" font-family="Times,serif" font-size="14.00">32:0 &#45; 32:0</text>
</g>
<!-- n31&#45;&gt;x18 -->
<g id="edge78" class="edge">
<title>n31:e&#45;&gt;x18:w</title>
<path fill="none" stroke="#7570b3" stroke-width="3" d="M545.7,-207.5C558.84,-207.5 562.9,-199.29 571.78,-195.45"/>
<polygon fill="#7570b3" stroke="#7570b3" stroke-width="3" points="572.56,-198.86 581.7,-193.5 571.21,-191.99 572.56,-198.86"/>
</g>
<!-- n31&#45;&gt;x18 -->
<g id="edge79" class="edge">
<title>n31:e&#45;&gt;x18:w</title>
<path fill="none" stroke="#7570b3" stroke-width="3" d="M545.7,-207.5C558.28,-207.5 562.93,-213.24 571.67,-216.02"/>
<polygon fill="#7570b3" stroke="#7570b3" stroke-width="3" points="571.29,-219.51 581.7,-217.5 572.31,-212.58 571.29,-219.51"/>
</g>
<!-- n32 -->
<g id="node21" class="node">
<title>n32</title>
<polygon fill="none" stroke="black" points="652.7,-290.5 600.41,-272.5 652.7,-254.5 704.98,-272.5 652.7,-290.5"/>
<text text-anchor="middle" x="652.7" y="-268.8" font-family="Times,serif" font-size="14.00">_T_16</text>
</g>
<!-- x23 -->
<g id="node59" class="node">
<title>x23</title>
<path fill="none" stroke="black" d="M771.7,-241.5C771.7,-241.5 889.7,-241.5 889.7,-241.5 895.7,-241.5 901.7,-247.5 901.7,-253.5 901.7,-253.5 901.7,-275.5 901.7,-275.5 901.7,-281.5 895.7,-287.5 889.7,-287.5 889.7,-287.5 771.7,-287.5 771.7,-287.5 765.7,-287.5 759.7,-281.5 759.7,-275.5 759.7,-275.5 759.7,-253.5 759.7,-253.5 759.7,-247.5 765.7,-241.5 771.7,-241.5"/>
<text text-anchor="middle" x="830.7" y="-272.3" font-family="Times,serif" font-size="14.00">20x 12:12 &#45; 32:13</text>
<polyline fill="none" stroke="black" points="759.7,-264.5 901.7,-264.5 "/>
<text text-anchor="middle" x="830.7" y="-249.3" font-family="Times,serif" font-size="14.00">12:0 &#45; 12:0</text>
</g>
<!-- n32&#45;&gt;x23 -->
<g id="edge81" class="edge">
<title>n32:e&#45;&gt;x23:w</title>
<path fill="none" stroke="#1b9e77" stroke-width="3" d="M705.7,-272.5C727.49,-272.5 732.77,-258 749.66,-253.69"/>
<polygon fill="#1b9e77" stroke="#1b9e77" stroke-width="3" points="750.18,-257.15 759.7,-252.5 749.35,-250.2 750.18,-257.15"/>
</g>
<!-- n32&#45;&gt;x23 -->
<g id="edge82" class="edge">
<title>n32:e&#45;&gt;x23:w</title>
<path fill="none" stroke="#1b9e77" stroke-width="3" d="M705.7,-272.5C726,-272.5 733.35,-275.35 749.61,-276.24"/>
<polygon fill="#1b9e77" stroke="#1b9e77" stroke-width="3" points="749.61,-279.74 759.7,-276.5 749.79,-272.74 749.61,-279.74"/>
</g>
<!-- n33 -->
<g id="node22" class="node">
<title>n33</title>
<polygon fill="none" stroke="black" points="10526.84,-286.04 10526.84,-300.96 10478.73,-311.5 10410.71,-311.5 10362.6,-300.96 10362.6,-286.04 10410.71,-275.5 10478.73,-275.5 10526.84,-286.04"/>
<text text-anchor="middle" x="10444.72" y="-289.8" font-family="Times,serif" font-size="14.00">io_sample_out</text>
</g>
<!-- n34 -->
<g id="node23" class="node">
<title>n34</title>
<polygon fill="none" stroke="black" points="152.19,-188.04 152.19,-202.96 112.08,-213.5 55.35,-213.5 15.24,-202.96 15.24,-188.04 55.35,-177.5 112.08,-177.5 152.19,-188.04"/>
<text text-anchor="middle" x="83.72" y="-191.8" font-family="Times,serif" font-size="14.00">io_note_life</text>
</g>
<!-- x22 -->
<g id="node58" class="node">
<title>x22</title>
<path fill="none" stroke="black" d="M269.67,-184.5C269.67,-184.5 338.67,-184.5 338.67,-184.5 344.67,-184.5 350.67,-190.5 350.67,-196.5 350.67,-196.5 350.67,-218.5 350.67,-218.5 350.67,-224.5 344.67,-230.5 338.67,-230.5 338.67,-230.5 269.67,-230.5 269.67,-230.5 263.67,-230.5 257.67,-224.5 257.67,-218.5 257.67,-218.5 257.67,-196.5 257.67,-196.5 257.67,-190.5 263.67,-184.5 269.67,-184.5"/>
<text text-anchor="middle" x="304.17" y="-215.3" font-family="Times,serif" font-size="14.00">0 &#45;&gt; 32:32</text>
<polyline fill="none" stroke="black" points="257.67,-207.5 350.67,-207.5 "/>
<text text-anchor="middle" x="304.17" y="-192.3" font-family="Times,serif" font-size="14.00">31:0 &#45; 31:0</text>
</g>
<!-- n34&#45;&gt;x22 -->
<g id="edge84" class="edge">
<title>n34:e&#45;&gt;x22:w</title>
<path fill="none" stroke="#1b9e77" stroke-width="3" d="M153.72,-195.5C195.69,-195.5 208.65,-195.5 246.09,-195.5"/>
<polygon fill="#1b9e77" stroke="#1b9e77" stroke-width="3" points="246.17,-199 256.17,-195.5 246.17,-192 246.17,-199"/>
</g>
<!-- n35 -->
<g id="node24" class="node">
<title>n35</title>
<polygon fill="none" stroke="black" points="167.65,-127.04 167.65,-141.96 118.48,-152.5 48.95,-152.5 -0.22,-141.96 -0.22,-127.04 48.95,-116.5 118.48,-116.5 167.65,-127.04"/>
<text text-anchor="middle" x="83.72" y="-130.8" font-family="Times,serif" font-size="14.00">io_wavelength</text>
</g>
<!-- x27 -->
<g id="node63" class="node">
<title>x27</title>
<path fill="none" stroke="black" d="M319.17,-152.5C319.17,-152.5 289.17,-152.5 289.17,-152.5 283.17,-152.5 277.17,-146.5 277.17,-140.5 277.17,-140.5 277.17,-128.5 277.17,-128.5 277.17,-122.5 283.17,-116.5 289.17,-116.5 289.17,-116.5 319.17,-116.5 319.17,-116.5 325.17,-116.5 331.17,-122.5 331.17,-128.5 331.17,-128.5 331.17,-140.5 331.17,-140.5 331.17,-146.5 325.17,-152.5 319.17,-152.5"/>
<text text-anchor="middle" x="304.17" y="-130.8" font-family="Times,serif" font-size="14.00">BUF</text>
</g>
<!-- n35&#45;&gt;x27 -->
<g id="edge85" class="edge">
<title>n35:e&#45;&gt;x27:w</title>
<path fill="none" stroke="#e6ab02" stroke-width="3" d="M167.43,-134.5C212.17,-134.5 225.85,-134.5 265.98,-134.5"/>
<polygon fill="#e6ab02" stroke="#e6ab02" stroke-width="3" points="266.17,-138 276.17,-134.5 266.17,-131 266.17,-138"/>
</g>
<!-- v1 -->
<g id="node25" class="node">
<title>v1</title>
<ellipse fill="none" stroke="black" cx="9402.87" cy="-323.5" rx="691.58" ry="18"/>
<text text-anchor="middle" x="9402.87" y="-319.8" font-family="Times,serif" font-size="14.00">113&#39;00000000000000000000000000000000000000000000000000000000000000000000000000000000000000000000000000111111111111111</text>
</g>
<!-- c39 -->
<g id="node26" class="node">
<title>c39</title>
<polygon fill="none" stroke="black" points="10130.41,-270.5 10130.41,-316.5 10236.41,-316.5 10236.41,-270.5 10130.41,-270.5"/>
<text text-anchor="middle" x="10143.91" y="-301.3" font-family="Times,serif" font-size="14.00">A</text>
<polyline fill="none" stroke="black" points="10130.41,-293.5 10157.41,-293.5 "/>
<text text-anchor="middle" x="10143.91" y="-278.3" font-family="Times,serif" font-size="14.00">B</text>
<polyline fill="none" stroke="black" points="10157.41,-270.5 10157.41,-316.5 "/>
<text text-anchor="middle" x="10183.91" y="-297.3" font-family="Times,serif" font-size="14.00">$92</text>
<text text-anchor="middle" x="10183.91" y="-282.3" font-family="Times,serif" font-size="14.00">$mul</text>
<polyline fill="none" stroke="black" points="10210.41,-270.5 10210.41,-316.5 "/>
<text text-anchor="middle" x="10223.41" y="-289.8" font-family="Times,serif" font-size="14.00">Y</text>
</g>
<!-- v1&#45;&gt;c39 -->
<g id="edge92" class="edge">
<title>v1:e&#45;&gt;c39:w</title>
<path fill="none" stroke="#a6761d" stroke-width="3" d="M10094.41,-323.5C10108.25,-323.5 10111.52,-312.73 10120.56,-307.85"/>
<polygon fill="#a6761d" stroke="#a6761d" stroke-width="3" points="10121.5,-311.23 10130.41,-305.5 10119.87,-304.42 10121.5,-311.23"/>
</g>
<!-- x42 -->
<g id="node78" class="node">
<title>x42</title>
<path fill="none" stroke="black" d="M10314.41,-311.5C10314.41,-311.5 10284.41,-311.5 10284.41,-311.5 10278.41,-311.5 10272.41,-305.5 10272.41,-299.5 10272.41,-299.5 10272.41,-287.5 10272.41,-287.5 10272.41,-281.5 10278.41,-275.5 10284.41,-275.5 10284.41,-275.5 10314.41,-275.5 10314.41,-275.5 10320.41,-275.5 10326.41,-281.5 10326.41,-287.5 10326.41,-287.5 10326.41,-299.5 10326.41,-299.5 10326.41,-305.5 10320.41,-311.5 10314.41,-311.5"/>
<text text-anchor="middle" x="10299.41" y="-289.8" font-family="Times,serif" font-size="14.00">BUF</text>
</g>
<!-- c39&#45;&gt;x42 -->
<g id="edge15" class="edge">
<title>c39:e&#45;&gt;x42:w</title>
<path fill="none" stroke="#666666" stroke-width="3" d="M10236.41,-293.5C10248.41,-293.5 10253.66,-293.5 10262.29,-293.5"/>
<polygon fill="#666666" stroke="#666666" stroke-width="3" points="10262.41,-297 10272.41,-293.5 10262.41,-290 10262.41,-297"/>
</g>
<!-- x0&#45;&gt;c39 -->
<g id="edge1" class="edge">
<title>x0:e&#45;&gt;c39:w</title>
<path fill="none" stroke="#e7298a" stroke-width="3" d="M9492.03,-263.51C9767.11,-264 9843.05,-280.99 10118.02,-281.49"/>
<polygon fill="none" stroke="#e7298a" stroke-width="3" points="9491.87,-263.51 9485.87,-267.51 9479.87,-263.5 9485.88,-259.51 9491.87,-263.51"/>
<polygon fill="none" stroke="#e7298a" stroke-width="3" points="10118.41,-281.49 10124.42,-277.49 10130.41,-281.5 10124.41,-285.49 10118.41,-281.49"/>
</g>
<!-- c40 -->
<g id="node28" class="node">
<title>c40</title>
<polygon fill="none" stroke="black" points="8344.55,-240.5 8344.55,-286.5 8444.55,-286.5 8444.55,-240.5 8344.55,-240.5"/>
<text text-anchor="middle" x="8358.05" y="-271.3" font-family="Times,serif" font-size="14.00">A</text>
<polyline fill="none" stroke="black" points="8344.55,-263.5 8371.55,-263.5 "/>
<text text-anchor="middle" x="8358.05" y="-248.3" font-family="Times,serif" font-size="14.00">B</text>
<polyline fill="none" stroke="black" points="8371.55,-240.5 8371.55,-286.5 "/>
<text text-anchor="middle" x="8395.05" y="-267.3" font-family="Times,serif" font-size="14.00">$91</text>
<text text-anchor="middle" x="8395.05" y="-252.3" font-family="Times,serif" font-size="14.00">$div</text>
<polyline fill="none" stroke="black" points="8418.55,-240.5 8418.55,-286.5 "/>
<text text-anchor="middle" x="8431.55" y="-259.8" font-family="Times,serif" font-size="14.00">Y</text>
</g>
<!-- x41 -->
<g id="node77" class="node">
<title>x41</title>
<path fill="none" stroke="black" d="M8522.55,-281.5C8522.55,-281.5 8492.55,-281.5 8492.55,-281.5 8486.55,-281.5 8480.55,-275.5 8480.55,-269.5 8480.55,-269.5 8480.55,-257.5 8480.55,-257.5 8480.55,-251.5 8486.55,-245.5 8492.55,-245.5 8492.55,-245.5 8522.55,-245.5 8522.55,-245.5 8528.55,-245.5 8534.55,-251.5 8534.55,-257.5 8534.55,-257.5 8534.55,-269.5 8534.55,-269.5 8534.55,-275.5 8528.55,-281.5 8522.55,-281.5"/>
<text text-anchor="middle" x="8507.55" y="-259.8" font-family="Times,serif" font-size="14.00">BUF</text>
</g>
<!-- c40&#45;&gt;x41 -->
<g id="edge40" class="edge">
<title>c40:e&#45;&gt;x41:w</title>
<path fill="none" stroke="#a6761d" stroke-width="3" d="M8444.55,-263.5C8456.55,-263.5 8461.8,-263.5 8470.43,-263.5"/>
<polygon fill="#a6761d" stroke="#a6761d" stroke-width="3" points="8470.55,-267 8480.55,-263.5 8470.55,-260 8470.55,-267"/>
</g>
<!-- x2&#45;&gt;c40 -->
<g id="edge2" class="edge">
<title>x2:e&#45;&gt;c40:w</title>
<path fill="none" stroke="#e7298a" stroke-width="3" d="M8319.78,-225.93C8325.43,-231.53 8327.55,-241.15 8333.11,-246.86"/>
<polygon fill="none" stroke="#e7298a" stroke-width="3" points="8319.71,-225.9 8312.66,-227.42 8308.55,-221.5 8315.6,-219.98 8319.71,-225.9"/>
<polygon fill="none" stroke="#e7298a" stroke-width="3" points="8333.43,-246.99 8340.49,-245.54 8344.55,-251.5 8337.49,-252.95 8333.43,-246.99"/>
</g>
<!-- x3&#45;&gt;c40 -->
<g id="edge3" class="edge">
<title>x3:e&#45;&gt;c40:w</title>
<path fill="none" stroke="#7570b3" stroke-width="3" d="M7552.94,-305.39C7644.8,-303.73 7671.26,-283.5 7768.96,-283.5 7768.96,-283.5 7768.96,-283.5 8095.45,-283.5 8202,-283.5 8231.56,-276.1 8332.25,-275.53"/>
<polygon fill="none" stroke="#7570b3" stroke-width="3" points="7552.79,-305.39 7546.82,-309.45 7540.79,-305.5 7546.75,-301.45 7552.79,-305.39"/>
<polygon fill="none" stroke="#7570b3" stroke-width="3" points="8332.55,-275.53 8338.54,-271.52 8344.55,-275.5 8338.56,-279.52 8332.55,-275.53"/>
</g>
<!-- v4 -->
<g id="node31" class="node">
<title>v4</title>
<ellipse fill="none" stroke="black" cx="5516.75" cy="-152.5" rx="562.7" ry="18"/>
<text text-anchor="middle" x="5516.75" y="-148.8" font-family="Times,serif" font-size="14.00">92&#39;00000000000000000000000000000000000000000000000000000000000000000000000000001001111000110100</text>
</g>
<!-- v4&#45;&gt;c41 -->
<g id="edge97" class="edge">
<title>v4:e&#45;&gt;c41:w</title>
<path fill="none" stroke="#666666" stroke-width="3" d="M6079.6,-152.5C6321.34,-152.5 6384.32,-158.33 6620.99,-158.5"/>
<polygon fill="#666666" stroke="#666666" stroke-width="3" points="6621.3,-162 6631.3,-158.5 6621.3,-155 6621.3,-162"/>
</g>
<!-- x38 -->
<g id="node74" class="node">
<title>x38</title>
<path fill="none" stroke="black" d="M7356.39,-180.5C7356.39,-180.5 7326.39,-180.5 7326.39,-180.5 7320.39,-180.5 7314.39,-174.5 7314.39,-168.5 7314.39,-168.5 7314.39,-156.5 7314.39,-156.5 7314.39,-150.5 7320.39,-144.5 7326.39,-144.5 7326.39,-144.5 7356.39,-144.5 7356.39,-144.5 7362.39,-144.5 7368.39,-150.5 7368.39,-156.5 7368.39,-156.5 7368.39,-168.5 7368.39,-168.5 7368.39,-174.5 7362.39,-180.5 7356.39,-180.5"/>
<text text-anchor="middle" x="7341.39" y="-158.8" font-family="Times,serif" font-size="14.00">BUF</text>
</g>
<!-- c41&#45;&gt;x38 -->
<g id="edge73" class="edge">
<title>c41:e&#45;&gt;x38:w</title>
<path fill="none" stroke="#e7298a" stroke-width="3" d="M6737.3,-146.5C6990.06,-146.5 7055.54,-162.08 7303.36,-162.49"/>
<polygon fill="#e7298a" stroke="#e7298a" stroke-width="3" points="7303.39,-165.99 7313.39,-162.5 7303.4,-158.99 7303.39,-165.99"/>
</g>
<!-- v6 -->
<g id="node33" class="node">
<title>v6</title>
<ellipse fill="none" stroke="black" cx="6684.3" cy="-271.5" rx="568.9" ry="18"/>
<text text-anchor="middle" x="6684.3" y="-267.8" font-family="Times,serif" font-size="14.00">93&#39;000000000000000000000000000000000000000000000000000000000000000000000000000001001111000110100</text>
</g>
<!-- c42 -->
<g id="node34" class="node">
<title>c42</title>
<polygon fill="none" stroke="black" points="7289.39,-207.5 7289.39,-253.5 7393.39,-253.5 7393.39,-207.5 7289.39,-207.5"/>
<text text-anchor="middle" x="7302.89" y="-238.3" font-family="Times,serif" font-size="14.00">A</text>
<polyline fill="none" stroke="black" points="7289.39,-230.5 7316.39,-230.5 "/>
<text text-anchor="middle" x="7302.89" y="-215.3" font-family="Times,serif" font-size="14.00">B</text>
<polyline fill="none" stroke="black" points="7316.39,-207.5 7316.39,-253.5 "/>
<text text-anchor="middle" x="7341.89" y="-234.3" font-family="Times,serif" font-size="14.00">$89</text>
<text text-anchor="middle" x="7341.89" y="-219.3" font-family="Times,serif" font-size="14.00">$sub</text>
<polyline fill="none" stroke="black" points="7367.39,-207.5 7367.39,-253.5 "/>
<text text-anchor="middle" x="7380.39" y="-226.8" font-family="Times,serif" font-size="14.00">Y</text>
</g>
<!-- v6&#45;&gt;c42 -->
<g id="edge98" class="edge">
<title>v6:e&#45;&gt;c42:w</title>
<path fill="none" stroke="#a6761d" stroke-width="3" d="M7253,-271.5C7269.37,-271.5 7269.47,-253.08 7279.23,-245.6"/>
<polygon fill="#a6761d" stroke="#a6761d" stroke-width="3" points="7280.53,-248.86 7289,-242.5 7278.41,-242.19 7280.53,-248.86"/>
</g>
<!-- x37 -->
<g id="node73" class="node">
<title>x37</title>
<path fill="none" stroke="black" d="M7500.29,-248.5C7500.29,-248.5 7470.29,-248.5 7470.29,-248.5 7464.29,-248.5 7458.29,-242.5 7458.29,-236.5 7458.29,-236.5 7458.29,-224.5 7458.29,-224.5 7458.29,-218.5 7464.29,-212.5 7470.29,-212.5 7470.29,-212.5 7500.29,-212.5 7500.29,-212.5 7506.29,-212.5 7512.29,-218.5 7512.29,-224.5 7512.29,-224.5 7512.29,-236.5 7512.29,-236.5 7512.29,-242.5 7506.29,-248.5 7500.29,-248.5"/>
<text text-anchor="middle" x="7485.29" y="-226.8" font-family="Times,serif" font-size="14.00">BUF</text>
</g>
<!-- c42&#45;&gt;x37 -->
<g id="edge86" class="edge">
<title>c42:e&#45;&gt;x37:w</title>
<path fill="none" stroke="#a6761d" stroke-width="3" d="M7393.79,-230.5C7418.26,-230.5 7426.82,-230.5 7447.06,-230.5"/>
<polygon fill="#a6761d" stroke="#a6761d" stroke-width="3" points="7447.29,-234 7457.29,-230.5 7447.29,-227 7447.29,-234"/>
</g>
<!-- x5&#45;&gt;c42 -->
<g id="edge4" class="edge">
<title>x5:e&#45;&gt;c42:w</title>
<path fill="none" stroke="#e6ab02" stroke-width="3" d="M6753.63,-211.51C6982.89,-211.73 7047.52,-218.27 7276.89,-218.49"/>
<polygon fill="none" stroke="#e6ab02" stroke-width="3" points="6753.3,-211.51 6747.3,-215.5 6741.3,-211.5 6747.3,-207.5 6753.3,-211.51"/>
<polygon fill="none" stroke="#e6ab02" stroke-width="3" points="7277,-218.49 7283,-214.5 7289,-218.5 7283,-222.5 7277,-218.49"/>
</g>
<!-- c43 -->
<g id="node36" class="node">
<title>c43</title>
<polygon fill="none" stroke="black" points="4619.8,-183.5 4619.8,-229.5 4725.8,-229.5 4725.8,-183.5 4619.8,-183.5"/>
<text text-anchor="middle" x="4633.3" y="-214.3" font-family="Times,serif" font-size="14.00">A</text>
<polyline fill="none" stroke="black" points="4619.8,-206.5 4646.8,-206.5 "/>
<text text-anchor="middle" x="4633.3" y="-191.3" font-family="Times,serif" font-size="14.00">B</text>
<polyline fill="none" stroke="black" points="4646.8,-183.5 4646.8,-229.5 "/>
<text text-anchor="middle" x="4673.3" y="-210.3" font-family="Times,serif" font-size="14.00">$88</text>
<text text-anchor="middle" x="4673.3" y="-195.3" font-family="Times,serif" font-size="14.00">$mul</text>
<polyline fill="none" stroke="black" points="4699.8,-183.5 4699.8,-229.5 "/>
<text text-anchor="middle" x="4712.8" y="-202.8" font-family="Times,serif" font-size="14.00">Y</text>
</g>
<!-- x36 -->
<g id="node72" class="node">
<title>x36</title>
<path fill="none" stroke="black" d="M4861.9,-224.5C4861.9,-224.5 4831.9,-224.5 4831.9,-224.5 4825.9,-224.5 4819.9,-218.5 4819.9,-212.5 4819.9,-212.5 4819.9,-200.5 4819.9,-200.5 4819.9,-194.5 4825.9,-188.5 4831.9,-188.5 4831.9,-188.5 4861.9,-188.5 4861.9,-188.5 4867.9,-188.5 4873.9,-194.5 4873.9,-200.5 4873.9,-200.5 4873.9,-212.5 4873.9,-212.5 4873.9,-218.5 4867.9,-224.5 4861.9,-224.5"/>
<text text-anchor="middle" x="4846.9" y="-202.8" font-family="Times,serif" font-size="14.00">BUF</text>
</g>
<!-- c43&#45;&gt;x36 -->
<g id="edge87" class="edge">
<title>c43:e&#45;&gt;x36:w</title>
<path fill="none" stroke="#e6ab02" stroke-width="3" d="M4726.8,-206.5C4764.06,-206.5 4775.88,-206.5 4808.57,-206.5"/>
<polygon fill="#e6ab02" stroke="#e6ab02" stroke-width="3" points="4808.9,-210 4818.9,-206.5 4808.9,-203 4808.9,-210"/>
</g>
<!-- x7&#45;&gt;c43 -->
<g id="edge5" class="edge">
<title>x7:e&#45;&gt;c43:w</title>
<path fill="none" stroke="#66a61e" stroke-width="3" d="M4581.54,-221.73C4592.21,-216.05 4596.21,-203.1 4606.82,-197.35"/>
<polygon fill="none" stroke="#66a61e" stroke-width="3" points="4581.39,-221.77 4576.46,-227.03 4569.71,-224.5 4574.64,-219.24 4581.39,-221.77"/>
<polygon fill="none" stroke="#66a61e" stroke-width="3" points="4607.13,-197.28 4612.04,-192 4618.8,-194.5 4613.89,-199.78 4607.13,-197.28"/>
</g>
<!-- x8&#45;&gt;c43 -->
<g id="edge6" class="edge">
<title>x8:e&#45;&gt;c43:w</title>
<path fill="none" stroke="#d95f02" stroke-width="3" d="M3557.15,-166.5C3758,-166.54 3812.73,-167.5 4019.53,-167.5 4019.53,-167.5 4019.53,-167.5 4321.71,-167.5 4432.49,-167.5 4463.67,-160.43 4569.71,-192.5 4588.72,-198.25 4592.94,-211.58 4606.72,-216.57"/>
<polygon fill="none" stroke="#d95f02" stroke-width="3" points="3556.97,-166.5 3550.97,-170.5 3544.97,-166.5 3550.97,-162.5 3556.97,-166.5"/>
<polygon fill="none" stroke="#d95f02" stroke-width="3" points="4606.95,-216.61 4613.51,-213.6 4618.8,-218.5 4612.25,-221.5 4606.95,-216.61"/>
</g>
<!-- c44 -->
<g id="node39" class="node">
<title>c44</title>
<polygon fill="none" stroke="black" points="5463.75,-302.5 5463.75,-348.5 5569.75,-348.5 5569.75,-302.5 5463.75,-302.5"/>
<text text-anchor="middle" x="5477.25" y="-333.3" font-family="Times,serif" font-size="14.00">A</text>
<polyline fill="none" stroke="black" points="5463.75,-325.5 5490.75,-325.5 "/>
<text text-anchor="middle" x="5477.25" y="-310.3" font-family="Times,serif" font-size="14.00">B</text>
<polyline fill="none" stroke="black" points="5490.75,-302.5 5490.75,-348.5 "/>
<text text-anchor="middle" x="5517.25" y="-329.3" font-family="Times,serif" font-size="14.00">$87</text>
<text text-anchor="middle" x="5517.25" y="-314.3" font-family="Times,serif" font-size="14.00">$mul</text>
<polyline fill="none" stroke="black" points="5543.75,-302.5 5543.75,-348.5 "/>
<text text-anchor="middle" x="5556.75" y="-321.8" font-family="Times,serif" font-size="14.00">Y</text>
</g>
<!-- x35 -->
<g id="node71" class="node">
<title>x35</title>
<path fill="none" stroke="black" d="M6699.3,-343.5C6699.3,-343.5 6669.3,-343.5 6669.3,-343.5 6663.3,-343.5 6657.3,-337.5 6657.3,-331.5 6657.3,-331.5 6657.3,-319.5 6657.3,-319.5 6657.3,-313.5 6663.3,-307.5 6669.3,-307.5 6669.3,-307.5 6699.3,-307.5 6699.3,-307.5 6705.3,-307.5 6711.3,-313.5 6711.3,-319.5 6711.3,-319.5 6711.3,-331.5 6711.3,-331.5 6711.3,-337.5 6705.3,-343.5 6699.3,-343.5"/>
<text text-anchor="middle" x="6684.3" y="-321.8" font-family="Times,serif" font-size="14.00">BUF</text>
</g>
<!-- c44&#45;&gt;x35 -->
<g id="edge88" class="edge">
<title>c44:e&#45;&gt;x35:w</title>
<path fill="none" stroke="#e6ab02" stroke-width="3" d="M5570.75,-325.5C6049.8,-325.5 6172.11,-325.5 6646.11,-325.5"/>
<polygon fill="#e6ab02" stroke="#e6ab02" stroke-width="3" points="6646.3,-329 6656.3,-325.5 6646.3,-322 6646.3,-329"/>
</g>
<!-- x9&#45;&gt;c44 -->
<g id="edge7" class="edge">
<title>x9:e&#45;&gt;c44:w</title>
<path fill="none" stroke="#666666" stroke-width="3" d="M4930.16,-299.51C5158.29,-299.97 5222.47,-313.04 5450.7,-313.49"/>
<polygon fill="none" stroke="#666666" stroke-width="3" points="4929.9,-299.51 4923.9,-303.51 4917.9,-299.5 4923.91,-295.51 4929.9,-299.51"/>
<polygon fill="none" stroke="#666666" stroke-width="3" points="5450.75,-313.49 5456.76,-309.49 5462.75,-313.5 5456.75,-317.49 5450.75,-313.49"/>
</g>
<!-- x10&#45;&gt;c44 -->
<g id="edge8" class="edge">
<title>x10:e&#45;&gt;c44:w</title>
<path fill="none" stroke="#7570b3" stroke-width="3" d="M4403.83,-351.5C4865.84,-351.26 4988.67,-337.73 5450.73,-337.5"/>
<polygon fill="none" stroke="#7570b3" stroke-width="3" points="4403.71,-351.5 4397.71,-355.5 4391.71,-351.5 4397.7,-347.5 4403.71,-351.5"/>
<polygon fill="none" stroke="#7570b3" stroke-width="3" points="5450.75,-337.5 5456.75,-333.5 5462.75,-337.5 5456.75,-341.5 5450.75,-337.5"/>
</g>
<!-- v11 -->
<g id="node42" class="node">
<title>v11</title>
<ellipse fill="none" stroke="black" cx="2826.02" cy="-308.5" rx="293.55" ry="18"/>
<text text-anchor="middle" x="2826.02" y="-304.8" font-family="Times,serif" font-size="14.00">46&#39;0000000000000000000000000000000000000010110100</text>
</g>
<!-- v11&#45;&gt;c45 -->
<g id="edge93" class="edge">
<title>v11:e&#45;&gt;c45:w</title>
<path fill="none" stroke="#d95f02" stroke-width="3" d="M3119.79,-308.5C3249.69,-308.5 3284.73,-308.5 3409.62,-308.5"/>
<polygon fill="#d95f02" stroke="#d95f02" stroke-width="3" points="3409.97,-312 3419.97,-308.5 3409.97,-305 3409.97,-312"/>
</g>
<!-- x32 -->
<g id="node68" class="node">
<title>x32</title>
<path fill="none" stroke="black" d="M3894.14,-299.5C3894.14,-299.5 3864.14,-299.5 3864.14,-299.5 3858.14,-299.5 3852.14,-293.5 3852.14,-287.5 3852.14,-287.5 3852.14,-275.5 3852.14,-275.5 3852.14,-269.5 3858.14,-263.5 3864.14,-263.5 3864.14,-263.5 3894.14,-263.5 3894.14,-263.5 3900.14,-263.5 3906.14,-269.5 3906.14,-275.5 3906.14,-275.5 3906.14,-287.5 3906.14,-287.5 3906.14,-293.5 3900.14,-299.5 3894.14,-299.5"/>
<text text-anchor="middle" x="3879.14" y="-277.8" font-family="Times,serif" font-size="14.00">BUF</text>
</g>
<!-- c45&#45;&gt;x32 -->
<g id="edge89" class="edge">
<title>c45:e&#45;&gt;x32:w</title>
<path fill="none" stroke="#a6761d" stroke-width="3" d="M3525.97,-296.5C3667.11,-296.5 3704.65,-282.22 3840.73,-281.53"/>
<polygon fill="#a6761d" stroke="#a6761d" stroke-width="3" points="3841.15,-285.03 3851.14,-281.5 3841.13,-278.03 3841.15,-285.03"/>
</g>
<!-- v13 -->
<g id="node44" class="node">
<title>v13</title>
<ellipse fill="none" stroke="black" cx="3472.97" cy="-106.5" rx="299.75" ry="18"/>
<text text-anchor="middle" x="3472.97" y="-102.8" font-family="Times,serif" font-size="14.00">47&#39;00000000000000000000000000000000000000010110100</text>
</g>
<!-- c46 -->
<g id="node45" class="node">
<title>c46</title>
<polygon fill="none" stroke="black" points="3827.14,-53.5 3827.14,-99.5 3931.14,-99.5 3931.14,-53.5 3827.14,-53.5"/>
<text text-anchor="middle" x="3840.64" y="-84.3" font-family="Times,serif" font-size="14.00">A</text>
<polyline fill="none" stroke="black" points="3827.14,-76.5 3854.14,-76.5 "/>
<text text-anchor="middle" x="3840.64" y="-61.3" font-family="Times,serif" font-size="14.00">B</text>
<polyline fill="none" stroke="black" points="3854.14,-53.5 3854.14,-99.5 "/>
<text text-anchor="middle" x="3879.64" y="-80.3" font-family="Times,serif" font-size="14.00">$85</text>
<text text-anchor="middle" x="3879.64" y="-65.3" font-family="Times,serif" font-size="14.00">$sub</text>
<polyline fill="none" stroke="black" points="3905.14,-53.5 3905.14,-99.5 "/>
<text text-anchor="middle" x="3918.14" y="-72.8" font-family="Times,serif" font-size="14.00">Y</text>
</g>
<!-- v13&#45;&gt;c46 -->
<g id="edge94" class="edge">
<title>v13:e&#45;&gt;c46:w</title>
<path fill="none" stroke="#666666" stroke-width="3" d="M3773.97,-106.5C3794.66,-106.5 3800.11,-93.69 3816.04,-89.68"/>
<polygon fill="#666666" stroke="#666666" stroke-width="3" points="3816.61,-93.14 3826.14,-88.5 3815.8,-86.19 3816.61,-93.14"/>
</g>
<!-- x31 -->
<g id="node67" class="node">
<title>x31</title>
<path fill="none" stroke="black" d="M4035.53,-94.5C4035.53,-94.5 4005.53,-94.5 4005.53,-94.5 3999.53,-94.5 3993.53,-88.5 3993.53,-82.5 3993.53,-82.5 3993.53,-70.5 3993.53,-70.5 3993.53,-64.5 3999.53,-58.5 4005.53,-58.5 4005.53,-58.5 4035.53,-58.5 4035.53,-58.5 4041.53,-58.5 4047.53,-64.5 4047.53,-70.5 4047.53,-70.5 4047.53,-82.5 4047.53,-82.5 4047.53,-88.5 4041.53,-94.5 4035.53,-94.5"/>
<text text-anchor="middle" x="4020.53" y="-72.8" font-family="Times,serif" font-size="14.00">BUF</text>
</g>
<!-- c46&#45;&gt;x31 -->
<g id="edge90" class="edge">
<title>c46:e&#45;&gt;x31:w</title>
<path fill="none" stroke="#e7298a" stroke-width="3" d="M3932.14,-76.5C3955.2,-76.5 3963.4,-76.5 3982.29,-76.5"/>
<polygon fill="#e7298a" stroke="#e7298a" stroke-width="3" points="3982.53,-80 3992.53,-76.5 3982.53,-73 3982.53,-80"/>
</g>
<!-- x12&#45;&gt;c46 -->
<g id="edge9" class="edge">
<title>x12:e&#45;&gt;c46:w</title>
<path fill="none" stroke="#1b9e77" stroke-width="3" d="M3542.04,-46.55C3660.03,-47.57 3696.07,-63.43 3814.07,-64.45"/>
<polygon fill="none" stroke="#1b9e77" stroke-width="3" points="3541.97,-46.55 3535.95,-50.53 3529.97,-46.5 3535.98,-42.53 3541.97,-46.55"/>
<polygon fill="none" stroke="#1b9e77" stroke-width="3" points="3814.14,-64.45 3820.15,-60.47 3826.14,-64.5 3820.12,-68.47 3814.14,-64.45"/>
</g>
<!-- v15 -->
<g id="node47" class="node">
<title>v15</title>
<ellipse fill="none" stroke="black" cx="3472.97" cy="-356.5" rx="317.34" ry="18"/>
<text text-anchor="middle" x="3472.97" y="-352.8" font-family="Times,serif" font-size="14.00">50&#39;00000000000000000000000000000000000000000000000100</text>
</g>
<!-- c47 -->
<g id="node48" class="node">
<title>c47</title>
<polygon fill="none" stroke="black" points="3826.14,-319.5 3826.14,-365.5 3932.14,-365.5 3932.14,-319.5 3826.14,-319.5"/>
<text text-anchor="middle" x="3839.64" y="-350.3" font-family="Times,serif" font-size="14.00">A</text>
<polyline fill="none" stroke="black" points="3826.14,-342.5 3853.14,-342.5 "/>
<text text-anchor="middle" x="3839.64" y="-327.3" font-family="Times,serif" font-size="14.00">B</text>
<polyline fill="none" stroke="black" points="3853.14,-319.5 3853.14,-365.5 "/>
<text text-anchor="middle" x="3879.64" y="-346.3" font-family="Times,serif" font-size="14.00">$84</text>
<text text-anchor="middle" x="3879.64" y="-331.3" font-family="Times,serif" font-size="14.00">$mul</text>
<polyline fill="none" stroke="black" points="3906.14,-319.5 3906.14,-365.5 "/>
<text text-anchor="middle" x="3919.14" y="-338.8" font-family="Times,serif" font-size="14.00">Y</text>
</g>
<!-- v15&#45;&gt;c47 -->
<g id="edge95" class="edge">
<title>v15:e&#45;&gt;c47:w</title>
<path fill="none" stroke="#1b9e77" stroke-width="3" d="M3790.14,-356.5C3802.16,-356.5 3807.38,-355.38 3816.01,-354.81"/>
<polygon fill="#1b9e77" stroke="#1b9e77" stroke-width="3" points="3816.25,-358.31 3826.14,-354.5 3816.03,-351.31 3816.25,-358.31"/>
</g>
<!-- x30 -->
<g id="node66" class="node">
<title>x30</title>
<path fill="none" stroke="black" d="M4035.53,-360.5C4035.53,-360.5 4005.53,-360.5 4005.53,-360.5 3999.53,-360.5 3993.53,-354.5 3993.53,-348.5 3993.53,-348.5 3993.53,-336.5 3993.53,-336.5 3993.53,-330.5 3999.53,-324.5 4005.53,-324.5 4005.53,-324.5 4035.53,-324.5 4035.53,-324.5 4041.53,-324.5 4047.53,-330.5 4047.53,-336.5 4047.53,-336.5 4047.53,-348.5 4047.53,-348.5 4047.53,-354.5 4041.53,-360.5 4035.53,-360.5"/>
<text text-anchor="middle" x="4020.53" y="-338.8" font-family="Times,serif" font-size="14.00">BUF</text>
</g>
<!-- c47&#45;&gt;x30 -->
<g id="edge91" class="edge">
<title>c47:e&#45;&gt;x30:w</title>
<path fill="none" stroke="#e6ab02" stroke-width="3" d="M3932.14,-342.5C3955.2,-342.5 3963.4,-342.5 3982.29,-342.5"/>
<polygon fill="#e6ab02" stroke="#e6ab02" stroke-width="3" points="3982.53,-346 3992.53,-342.5 3982.53,-339 3982.53,-346"/>
</g>
<!-- x14&#45;&gt;c47 -->
<g id="edge10" class="edge">
<title>x14:e&#45;&gt;c47:w</title>
<path fill="none" stroke="#e6ab02" stroke-width="3" d="M3553.13,-231.38C3656.11,-229.39 3701.46,-203.63 3790.14,-264.5 3813.38,-280.45 3799.24,-316.47 3814.33,-327.34"/>
<polygon fill="none" stroke="#e6ab02" stroke-width="3" points="3552.97,-231.38 3547,-235.44 3540.97,-231.5 3546.93,-227.44 3552.97,-231.38"/>
<polygon fill="none" stroke="#e6ab02" stroke-width="3" points="3814.55,-327.4 3821.38,-325.08 3826.14,-330.5 3819.31,-332.81 3814.55,-327.4"/>
</g>
<!-- c48 -->
<g id="node50" class="node">
<title>c48</title>
<polygon fill="none" stroke="black" points="2306.25,-155.5 2306.25,-201.5 2406.25,-201.5 2406.25,-155.5 2306.25,-155.5"/>
<text text-anchor="middle" x="2319.75" y="-186.3" font-family="Times,serif" font-size="14.00">A</text>
<polyline fill="none" stroke="black" points="2306.25,-178.5 2333.25,-178.5 "/>
<text text-anchor="middle" x="2319.75" y="-163.3" font-family="Times,serif" font-size="14.00">B</text>
<polyline fill="none" stroke="black" points="2333.25,-155.5 2333.25,-201.5 "/>
<text text-anchor="middle" x="2356.75" y="-182.3" font-family="Times,serif" font-size="14.00">$83</text>
<text text-anchor="middle" x="2356.75" y="-167.3" font-family="Times,serif" font-size="14.00">$div</text>
<polyline fill="none" stroke="black" points="2380.25,-155.5 2380.25,-201.5 "/>
<text text-anchor="middle" x="2393.25" y="-174.8" font-family="Times,serif" font-size="14.00">Y</text>
</g>
<!-- x29 -->
<g id="node65" class="node">
<title>x29</title>
<path fill="none" stroke="black" d="M2484.25,-196.5C2484.25,-196.5 2454.25,-196.5 2454.25,-196.5 2448.25,-196.5 2442.25,-190.5 2442.25,-184.5 2442.25,-184.5 2442.25,-172.5 2442.25,-172.5 2442.25,-166.5 2448.25,-160.5 2454.25,-160.5 2454.25,-160.5 2484.25,-160.5 2484.25,-160.5 2490.25,-160.5 2496.25,-166.5 2496.25,-172.5 2496.25,-172.5 2496.25,-184.5 2496.25,-184.5 2496.25,-190.5 2490.25,-196.5 2484.25,-196.5"/>
<text text-anchor="middle" x="2469.25" y="-174.8" font-family="Times,serif" font-size="14.00">BUF</text>
</g>
<!-- c48&#45;&gt;x29 -->
<g id="edge16" class="edge">
<title>c48:e&#45;&gt;x29:w</title>
<path fill="none" stroke="#7570b3" stroke-width="3" d="M2406.25,-178.5C2418.25,-178.5 2423.5,-178.5 2432.12,-178.5"/>
<polygon fill="#7570b3" stroke="#7570b3" stroke-width="3" points="2432.25,-182 2442.25,-178.5 2432.25,-175 2432.25,-182"/>
</g>
<!-- x16&#45;&gt;c48 -->
<g id="edge11" class="edge">
<title>x16:e&#45;&gt;c48:w</title>
<path fill="none" stroke="#a6761d" stroke-width="3" d="M1074.06,-152.5C1186.71,-152.5 1219.38,-152.5 1337.89,-152.5 1337.89,-152.5 1337.89,-152.5 2071.85,-152.5 2172.04,-152.5 2199.7,-165.4 2294.08,-166.43"/>
<polygon fill="none" stroke="#a6761d" stroke-width="3" points="1073.8,-152.5 1067.8,-156.5 1061.8,-152.5 1067.8,-148.5 1073.8,-152.5"/>
<polygon fill="none" stroke="#a6761d" stroke-width="3" points="2294.25,-166.44 2300.27,-162.47 2306.25,-166.5 2300.22,-170.47 2294.25,-166.44"/>
</g>
<!-- x17&#45;&gt;c48 -->
<g id="edge12" class="edge">
<title>x17:e&#45;&gt;c48:w</title>
<path fill="none" stroke="#7570b3" stroke-width="3" d="M2282,-201.67C2286.55,-199.24 2289.95,-195.76 2294.5,-193.33"/>
<polygon fill="none" stroke="#7570b3" stroke-width="3" points="2281.91,-201.69 2277.02,-206.98 2270.25,-204.5 2275.14,-199.21 2281.91,-201.69"/>
<polygon fill="none" stroke="#7570b3" stroke-width="3" points="2294.58,-193.31 2299.48,-188.02 2306.25,-190.5 2301.35,-195.79 2294.58,-193.31"/>
</g>
<!-- c49 -->
<g id="node53" class="node">
<title>c49</title>
<polygon fill="none" stroke="black" points="1285.89,-193.5 1285.89,-239.5 1391.89,-239.5 1391.89,-193.5 1285.89,-193.5"/>
<text text-anchor="middle" x="1299.39" y="-224.3" font-family="Times,serif" font-size="14.00">A</text>
<polyline fill="none" stroke="black" points="1285.89,-216.5 1312.89,-216.5 "/>
<text text-anchor="middle" x="1299.39" y="-201.3" font-family="Times,serif" font-size="14.00">B</text>
<polyline fill="none" stroke="black" points="1312.89,-193.5 1312.89,-239.5 "/>
<text text-anchor="middle" x="1339.39" y="-220.3" font-family="Times,serif" font-size="14.00">$82</text>
<text text-anchor="middle" x="1339.39" y="-205.3" font-family="Times,serif" font-size="14.00">$mul</text>
<polyline fill="none" stroke="black" points="1365.89,-193.5 1365.89,-239.5 "/>
<text text-anchor="middle" x="1378.89" y="-212.8" font-family="Times,serif" font-size="14.00">Y</text>
</g>
<!-- x24 -->
<g id="node60" class="node">
<title>x24</title>
<path fill="none" stroke="black" d="M1469.89,-234.5C1469.89,-234.5 1439.89,-234.5 1439.89,-234.5 1433.89,-234.5 1427.89,-228.5 1427.89,-222.5 1427.89,-222.5 1427.89,-210.5 1427.89,-210.5 1427.89,-204.5 1433.89,-198.5 1439.89,-198.5 1439.89,-198.5 1469.89,-198.5 1469.89,-198.5 1475.89,-198.5 1481.89,-204.5 1481.89,-210.5 1481.89,-210.5 1481.89,-222.5 1481.89,-222.5 1481.89,-228.5 1475.89,-234.5 1469.89,-234.5"/>
<text text-anchor="middle" x="1454.89" y="-212.8" font-family="Times,serif" font-size="14.00">BUF</text>
</g>
<!-- c49&#45;&gt;x24 -->
<g id="edge17" class="edge">
<title>c49:e&#45;&gt;x24:w</title>
<path fill="none" stroke="#7570b3" stroke-width="3" d="M1391.89,-216.5C1403.89,-216.5 1409.14,-216.5 1417.77,-216.5"/>
<polygon fill="#7570b3" stroke="#7570b3" stroke-width="3" points="1417.89,-220 1427.89,-216.5 1417.89,-213 1417.89,-220"/>
</g>
<!-- x18&#45;&gt;c49 -->
<g id="edge13" class="edge">
<title>x18:e&#45;&gt;c49:w</title>
<path fill="none" stroke="#e7298a" stroke-width="3" d="M735.99,-205.5C971.71,-205.47 1037.99,-204.53 1273.8,-204.5"/>
<polygon fill="none" stroke="#e7298a" stroke-width="3" points="735.7,-205.5 729.7,-209.5 723.7,-205.5 729.7,-201.5 735.7,-205.5"/>
<polygon fill="none" stroke="#e7298a" stroke-width="3" points="1273.89,-204.5 1279.89,-200.5 1285.89,-204.5 1279.89,-208.5 1273.89,-204.5"/>
</g>
<!-- x19&#45;&gt;c49 -->
<g id="edge14" class="edge">
<title>x19:e&#45;&gt;c49:w</title>
<path fill="none" stroke="#1b9e77" stroke-width="3" d="M1261.22,-252.12C1266.62,-246.96 1269.01,-238.4 1274.31,-233.12"/>
<polygon fill="none" stroke="#1b9e77" stroke-width="3" points="1261.09,-252.18 1256.93,-258.07 1249.89,-256.5 1254.05,-250.61 1261.09,-252.18"/>
<polygon fill="none" stroke="#1b9e77" stroke-width="3" points="1274.75,-232.95 1278.84,-227.01 1285.89,-228.5 1281.81,-234.44 1274.75,-232.95"/>
</g>
<!-- v20 -->
<g id="node56" class="node">
<title>v20</title>
<ellipse fill="none" stroke="black" cx="304.17" cy="-272.5" rx="100.98" ry="18"/>
<text text-anchor="middle" x="304.17" y="-268.8" font-family="Times,serif" font-size="14.00">13&#39;0001001110100</text>
</g>
<!-- x21 -->
<g id="node57" class="node">
<title>x21</title>
<path fill="none" stroke="black" d="M508.31,-290.5C508.31,-290.5 478.31,-290.5 478.31,-290.5 472.31,-290.5 466.31,-284.5 466.31,-278.5 466.31,-278.5 466.31,-266.5 466.31,-266.5 466.31,-260.5 472.31,-254.5 478.31,-254.5 478.31,-254.5 508.31,-254.5 508.31,-254.5 514.31,-254.5 520.31,-260.5 520.31,-266.5 520.31,-266.5 520.31,-278.5 520.31,-278.5 520.31,-284.5 514.31,-290.5 508.31,-290.5"/>
<text text-anchor="middle" x="493.31" y="-268.8" font-family="Times,serif" font-size="14.00">BUF</text>
</g>
<!-- v20&#45;&gt;x21 -->
<g id="edge96" class="edge">
<title>v20:e&#45;&gt;x21:w</title>
<path fill="none" stroke="#d95f02" stroke-width="3" d="M404.91,-272.5C427.98,-272.5 436.18,-272.5 455.06,-272.5"/>
<polygon fill="#d95f02" stroke="#d95f02" stroke-width="3" points="455.31,-276 465.31,-272.5 455.31,-269 455.31,-276"/>
</g>
<!-- x21&#45;&gt;n32 -->
<g id="edge80" class="edge">
<title>x21:e&#45;&gt;n32:w</title>
<path fill="none" stroke="#1b9e77" stroke-width="3" d="M521.31,-272.5C552.47,-272.5 562.73,-272.5 589.48,-272.5"/>
<polygon fill="#1b9e77" stroke="#1b9e77" stroke-width="3" points="589.7,-276 599.7,-272.5 589.7,-269 589.7,-276"/>
</g>
<!-- x22&#45;&gt;n31 -->
<g id="edge77" class="edge">
<title>x22:e&#45;&gt;n31:w</title>
<path fill="none" stroke="#7570b3" stroke-width="3" d="M352.17,-207.5C387.92,-207.5 399.36,-207.5 430.55,-207.5"/>
<polygon fill="#7570b3" stroke="#7570b3" stroke-width="3" points="430.91,-211 440.91,-207.5 430.91,-204 430.91,-211"/>
</g>
<!-- x23&#45;&gt;n30 -->
<g id="edge74" class="edge">
<title>x23:e&#45;&gt;n30:w</title>
<path fill="none" stroke="#e7298a" stroke-width="3" d="M901.7,-264.5C913.7,-264.5 918.95,-264.5 927.57,-264.5"/>
<polygon fill="#e7298a" stroke="#e7298a" stroke-width="3" points="927.7,-268 937.7,-264.5 927.7,-261 927.7,-268"/>
</g>
<!-- x24&#45;&gt;n29 -->
<g id="edge71" class="edge">
<title>x24:e&#45;&gt;n29:w</title>
<path fill="none" stroke="#1b9e77" stroke-width="3" d="M1481.89,-216.5C1493.89,-216.5 1499.14,-216.5 1507.77,-216.5"/>
<polygon fill="#1b9e77" stroke="#1b9e77" stroke-width="3" points="1507.89,-220 1517.89,-216.5 1507.89,-213 1507.89,-220"/>
</g>
<!-- x25&#45;&gt;n28 -->
<g id="edge69" class="edge">
<title>x25:e&#45;&gt;n28:w</title>
<path fill="none" stroke="#1b9e77" stroke-width="3" d="M1751.68,-216.5C1763.68,-216.5 1768.93,-216.5 1777.55,-216.5"/>
<polygon fill="#1b9e77" stroke="#1b9e77" stroke-width="3" points="1777.68,-220 1787.68,-216.5 1777.68,-213 1777.68,-220"/>
</g>
<!-- x26&#45;&gt;n27 -->
<g id="edge66" class="edge">
<title>x26:e&#45;&gt;n27:w</title>
<path fill="none" stroke="#66a61e" stroke-width="3" d="M1982.46,-216.5C1994.46,-216.5 1999.71,-216.5 2008.34,-216.5"/>
<polygon fill="#66a61e" stroke="#66a61e" stroke-width="3" points="2008.46,-220 2018.46,-216.5 2008.46,-213 2008.46,-220"/>
</g>
<!-- x27&#45;&gt;n26 -->
<g id="edge63" class="edge">
<title>x27:e&#45;&gt;n26:w</title>
<path fill="none" stroke="#e6ab02" stroke-width="3" d="M332.17,-134.5C376.91,-134.5 390.59,-134.5 430.72,-134.5"/>
<polygon fill="#e6ab02" stroke="#e6ab02" stroke-width="3" points="430.91,-138 440.91,-134.5 430.91,-131 430.91,-138"/>
</g>
<!-- x28&#45;&gt;n25 -->
<g id="edge60" class="edge">
<title>x28:e&#45;&gt;n25:w</title>
<path fill="none" stroke="#a6761d" stroke-width="3" d="M723.7,-140.5C737.1,-140.5 742.73,-140.5 752.62,-140.5"/>
<polygon fill="#a6761d" stroke="#a6761d" stroke-width="3" points="752.7,-144 762.7,-140.5 752.7,-137 752.7,-144"/>
</g>
<!-- x29&#45;&gt;n24 -->
<g id="edge52" class="edge">
<title>x29:e&#45;&gt;n24:w</title>
<path fill="none" stroke="#1b9e77" stroke-width="3" d="M2496.25,-178.5C2600.24,-178.5 2628.75,-178.5 2727.88,-178.5"/>
<polygon fill="#1b9e77" stroke="#1b9e77" stroke-width="3" points="2728.02,-182 2738.02,-178.5 2728.02,-175 2728.02,-182"/>
</g>
<!-- x30&#45;&gt;n23 -->
<g id="edge49" class="edge">
<title>x30:e&#45;&gt;n23:w</title>
<path fill="none" stroke="#d95f02" stroke-width="3" d="M4048.53,-342.5C4071.6,-342.5 4079.8,-342.5 4098.68,-342.5"/>
<polygon fill="#d95f02" stroke="#d95f02" stroke-width="3" points="4098.92,-346 4108.92,-342.5 4098.92,-339 4098.92,-346"/>
</g>
<!-- x31&#45;&gt;n22 -->
<g id="edge48" class="edge">
<title>x31:e&#45;&gt;n22:w</title>
<path fill="none" stroke="#7570b3" stroke-width="3" d="M4048.53,-76.5C4071.6,-76.5 4079.8,-76.5 4098.68,-76.5"/>
<polygon fill="#7570b3" stroke="#7570b3" stroke-width="3" points="4098.92,-80 4108.92,-76.5 4098.92,-73 4098.92,-80"/>
</g>
<!-- x32&#45;&gt;n21 -->
<g id="edge46" class="edge">
<title>x32:e&#45;&gt;n21:w</title>
<path fill="none" stroke="#e6ab02" stroke-width="3" d="M3907.14,-281.5C3930.55,-281.5 3938.79,-280.75 3958.05,-280.55"/>
<polygon fill="#e6ab02" stroke="#e6ab02" stroke-width="3" points="3958.16,-284.05 3968.14,-280.5 3958.12,-277.05 3958.16,-284.05"/>
</g>
<!-- x33&#45;&gt;n20 -->
<g id="edge41" class="edge">
<title>x33:e&#45;&gt;n20:w</title>
<path fill="none" stroke="#1b9e77" stroke-width="3" d="M4189.31,-279.5C4220.49,-279.5 4230.73,-277.9 4257.49,-277.56"/>
<polygon fill="#1b9e77" stroke="#1b9e77" stroke-width="3" points="4257.73,-281.06 4267.71,-277.5 4257.68,-274.06 4257.73,-281.06"/>
</g>
<!-- x34&#45;&gt;n19 -->
<g id="edge37" class="edge">
<title>x34:e&#45;&gt;n19:w</title>
<path fill="none" stroke="#d95f02" stroke-width="3" d="M4566.71,-289.5C4580.11,-289.5 4585.74,-289.5 4595.62,-289.5"/>
<polygon fill="#d95f02" stroke="#d95f02" stroke-width="3" points="4595.71,-293 4605.71,-289.5 4595.71,-286 4595.71,-293"/>
</g>
<!-- x35&#45;&gt;n18 -->
<g id="edge34" class="edge">
<title>x35:e&#45;&gt;n18:w</title>
<path fill="none" stroke="#a6761d" stroke-width="3" d="M6712.3,-325.5C6965.26,-325.5 7030.94,-317.71 7278.96,-317.5"/>
<polygon fill="#a6761d" stroke="#a6761d" stroke-width="3" points="7279,-321 7289,-317.5 7279,-314 7279,-321"/>
</g>
<!-- x36&#45;&gt;n17 -->
<g id="edge30" class="edge">
<title>x36:e&#45;&gt;n17:w</title>
<path fill="none" stroke="#e7298a" stroke-width="3" d="M4874.9,-206.5C5133.16,-206.5 5200.28,-206.5 5453.5,-206.5"/>
<polygon fill="#e7298a" stroke="#e7298a" stroke-width="3" points="5453.75,-210 5463.75,-206.5 5453.75,-203 5453.75,-210"/>
</g>
<!-- x37&#45;&gt;n16 -->
<g id="edge29" class="edge">
<title>x37:e&#45;&gt;n16:w</title>
<path fill="none" stroke="#e7298a" stroke-width="3" d="M7513.29,-230.5C7537.76,-230.5 7546.32,-230.5 7566.56,-230.5"/>
<polygon fill="#e7298a" stroke="#e7298a" stroke-width="3" points="7566.79,-234 7576.79,-230.5 7566.79,-227 7566.79,-234"/>
</g>
<!-- x38&#45;&gt;n15 -->
<g id="edge27" class="edge">
<title>x38:e&#45;&gt;n15:w</title>
<path fill="none" stroke="#e7298a" stroke-width="3" d="M7369.39,-162.5C7393.94,-162.5 7401.92,-170.02 7422.07,-172.02"/>
<polygon fill="#e7298a" stroke="#e7298a" stroke-width="3" points="7422.13,-175.52 7432.29,-172.5 7422.46,-168.53 7422.13,-175.52"/>
</g>
<!-- x39&#45;&gt;n14 -->
<g id="edge24" class="edge">
<title>x39:e&#45;&gt;n14:w</title>
<path fill="none" stroke="#a6761d" stroke-width="3" d="M7657.18,-175.5C7680.5,-175.5 7688.43,-180.72 7707.54,-182.14"/>
<polygon fill="#a6761d" stroke="#a6761d" stroke-width="3" points="7707.45,-185.64 7717.57,-182.5 7707.7,-178.65 7707.45,-185.64"/>
</g>
<!-- x40&#45;&gt;n13 -->
<g id="edge21" class="edge">
<title>x40:e&#45;&gt;n13:w</title>
<path fill="none" stroke="#a6761d" stroke-width="3" d="M7991.35,-194.5C8004.62,-194.5 8008.52,-203.29 8017.39,-207.41"/>
<polygon fill="#a6761d" stroke="#a6761d" stroke-width="3" points="8016.85,-210.88 8027.35,-209.5 8018.28,-204.03 8016.85,-210.88"/>
</g>
<!-- x41&#45;&gt;n12 -->
<g id="edge18" class="edge">
<title>x41:e&#45;&gt;n12:w</title>
<path fill="none" stroke="#d95f02" stroke-width="3" d="M8534.55,-263.5C8546.55,-263.5 8551.8,-263.5 8560.43,-263.5"/>
<polygon fill="#d95f02" stroke="#d95f02" stroke-width="3" points="8560.55,-267 8570.55,-263.5 8560.55,-260 8560.55,-267"/>
</g>
<!-- x42&#45;&gt;n33 -->
<g id="edge83" class="edge">
<title>x42:e&#45;&gt;n33:w</title>
<path fill="none" stroke="#e7298a" stroke-width="3" d="M10326.41,-293.5C10338.41,-293.5 10343.66,-293.5 10352.29,-293.5"/>
<polygon fill="#e7298a" stroke="#e7298a" stroke-width="3" points="10352.41,-297 10362.41,-293.5 10352.41,-290 10352.41,-297"/>
</g>
</g>
</svg>
