<?xml version="1.0" encoding="UTF-8" standalone="no"?>
<!DOCTYPE svg PUBLIC "-//W3C//DTD SVG 1.1//EN"
 "http://www.w3.org/Graphics/SVG/1.1/DTD/svg11.dtd">
<!-- Generated by graphviz version 2.43.20190912.0211 (20190912.0211)
 -->
<!-- Title: Sine Pages: 1 -->
<svg width="3446pt" height="464pt"
 viewBox="0.00 0.00 3445.95 464.00" xmlns="http://www.w3.org/2000/svg" xmlns:xlink="http://www.w3.org/1999/xlink">
<g id="graph0" class="graph" transform="scale(1 1) rotate(0) translate(4 460)">
<title>Sine</title>
<polygon fill="white" stroke="transparent" points="-4,4 -4,-460 3441.95,-460 3441.95,4 -4,4"/>
<text text-anchor="middle" x="1718.97" y="-7.8" font-family="Times,serif" font-size="14.00">Sine</text>
<!-- n1 -->
<g id="node1" class="node">
<title>n1</title>
<polygon fill="none" stroke="black" points="912.19,-59 844.99,-41 912.19,-23 979.39,-41 912.19,-59"/>
<text text-anchor="middle" x="912.19" y="-37.3" font-family="Times,serif" font-size="14.00">_GEN_0</text>
</g>
<!-- n2 -->
<g id="node2" class="node">
<title>n2</title>
<polygon fill="none" stroke="black" points="741.99,-239 674.79,-221 741.99,-203 809.19,-221 741.99,-239"/>
<text text-anchor="middle" x="741.99" y="-217.3" font-family="Times,serif" font-size="14.00">_GEN_1</text>
</g>
<!-- n3 -->
<g id="node3" class="node">
<title>n3</title>
<polygon fill="none" stroke="black" points="2071.63,-211 2004.44,-193 2071.63,-175 2138.83,-193 2071.63,-211"/>
<text text-anchor="middle" x="2071.63" y="-189.3" font-family="Times,serif" font-size="14.00">_GEN_2</text>
</g>
<!-- n4 -->
<g id="node4" class="node">
<title>n4</title>
<polygon fill="none" stroke="black" points="2755.65,-147 2688.46,-129 2755.65,-111 2822.85,-129 2755.65,-147"/>
<text text-anchor="middle" x="2755.65" y="-125.3" font-family="Times,serif" font-size="14.00">_GEN_3</text>
</g>
<!-- n5 -->
<g id="node5" class="node">
<title>n5</title>
<polygon fill="none" stroke="black" points="912.19,-456 859.9,-438 912.19,-420 964.47,-438 912.19,-456"/>
<text text-anchor="middle" x="912.19" y="-434.3" font-family="Times,serif" font-size="14.00">_T_16</text>
</g>
<!-- n6 -->
<g id="node6" class="node">
<title>n6</title>
<polygon fill="none" stroke="black" points="741.99,-304 689.71,-286 741.99,-268 794.28,-286 741.99,-304"/>
<text text-anchor="middle" x="741.99" y="-282.3" font-family="Times,serif" font-size="14.00">_T_17</text>
</g>
<!-- n7 -->
<g id="node7" class="node">
<title>n7</title>
<polygon fill="none" stroke="black" points="912.19,-327 859.9,-309 912.19,-291 964.47,-309 912.19,-327"/>
<text text-anchor="middle" x="912.19" y="-305.3" font-family="Times,serif" font-size="14.00">_T_18</text>
</g>
<!-- x0 -->
<g id="node24" class="node">
<title>x0</title>
<path fill="none" stroke="black" d="M1027.29,-178C1027.29,-178 1096.29,-178 1096.29,-178 1102.29,-178 1108.29,-184 1108.29,-190 1108.29,-190 1108.29,-212 1108.29,-212 1108.29,-218 1102.29,-224 1096.29,-224 1096.29,-224 1027.29,-224 1027.29,-224 1021.29,-224 1015.29,-218 1015.29,-212 1015.29,-212 1015.29,-190 1015.29,-190 1015.29,-184 1021.29,-178 1027.29,-178"/>
<text text-anchor="middle" x="1061.79" y="-208.8" font-family="Times,serif" font-size="14.00">0 &#45;&gt; 45:42</text>
<polyline fill="none" stroke="black" points="1015.29,-201 1108.29,-201 "/>
<text text-anchor="middle" x="1061.79" y="-185.8" font-family="Times,serif" font-size="14.00">41:0 &#45; 41:0</text>
</g>
<!-- n7&#45;&gt;x0 -->
<g id="edge48" class="edge">
<title>n7:e&#45;&gt;x0:w</title>
<path fill="none" stroke="#a6761d" stroke-width="3" d="M965.19,-309C1019.14,-309 965.65,-204.41 1005.33,-190.52"/>
<polygon fill="#a6761d" stroke="#a6761d" stroke-width="3" points="1005.93,-193.97 1015.29,-189 1004.87,-187.05 1005.93,-193.97"/>
</g>
<!-- x9 -->
<g id="node41" class="node">
<title>x9</title>
<path fill="none" stroke="black" d="M1076.79,-300C1076.79,-300 1046.79,-300 1046.79,-300 1040.79,-300 1034.79,-294 1034.79,-288 1034.79,-288 1034.79,-276 1034.79,-276 1034.79,-270 1040.79,-264 1046.79,-264 1046.79,-264 1076.79,-264 1076.79,-264 1082.79,-264 1088.79,-270 1088.79,-276 1088.79,-276 1088.79,-288 1088.79,-288 1088.79,-294 1082.79,-300 1076.79,-300"/>
<text text-anchor="middle" x="1061.79" y="-278.3" font-family="Times,serif" font-size="14.00">BUF</text>
</g>
<!-- n7&#45;&gt;x9 -->
<g id="edge50" class="edge">
<title>n7:e&#45;&gt;x9:w</title>
<path fill="none" stroke="#a6761d" stroke-width="3" d="M965.19,-309C994.24,-309 999.95,-287.77 1023.71,-282.96"/>
<polygon fill="#a6761d" stroke="#a6761d" stroke-width="3" points="1024.16,-286.43 1033.79,-282 1023.5,-279.47 1024.16,-286.43"/>
</g>
<!-- x18 -->
<g id="node50" class="node">
<title>x18</title>
<path fill="none" stroke="black" d="M1076.79,-354C1076.79,-354 1046.79,-354 1046.79,-354 1040.79,-354 1034.79,-348 1034.79,-342 1034.79,-342 1034.79,-330 1034.79,-330 1034.79,-324 1040.79,-318 1046.79,-318 1046.79,-318 1076.79,-318 1076.79,-318 1082.79,-318 1088.79,-324 1088.79,-330 1088.79,-330 1088.79,-342 1088.79,-342 1088.79,-348 1082.79,-354 1076.79,-354"/>
<text text-anchor="middle" x="1061.79" y="-332.3" font-family="Times,serif" font-size="14.00">BUF</text>
</g>
<!-- n7&#45;&gt;x18 -->
<g id="edge49" class="edge">
<title>n7:e&#45;&gt;x18:w</title>
<path fill="none" stroke="#a6761d" stroke-width="3" d="M965.19,-309C994.24,-309 999.95,-330.23 1023.71,-335.04"/>
<polygon fill="#a6761d" stroke="#a6761d" stroke-width="3" points="1023.5,-338.53 1033.79,-336 1024.16,-331.57 1023.5,-338.53"/>
</g>
<!-- n8 -->
<g id="node8" class="node">
<title>n8</title>
<polygon fill="none" stroke="black" points="1196.68,-354 1144.39,-336 1196.68,-318 1248.96,-336 1196.68,-354"/>
<text text-anchor="middle" x="1196.68" y="-332.3" font-family="Times,serif" font-size="14.00">_T_19</text>
</g>
<!-- n9 -->
<g id="node9" class="node">
<title>n9</title>
<polygon fill="none" stroke="black" points="1196.68,-300 1144.39,-282 1196.68,-264 1248.96,-282 1196.68,-300"/>
<text text-anchor="middle" x="1196.68" y="-278.3" font-family="Times,serif" font-size="14.00">_T_20</text>
</g>
<!-- n10 -->
<g id="node10" class="node">
<title>n10</title>
<polygon fill="none" stroke="black" points="741.99,-179 689.71,-161 741.99,-143 794.28,-161 741.99,-179"/>
<text text-anchor="middle" x="741.99" y="-157.3" font-family="Times,serif" font-size="14.00">_T_21</text>
</g>
<!-- n11 -->
<g id="node11" class="node">
<title>n11</title>
<polygon fill="none" stroke="black" points="1690.1,-290 1637.82,-272 1690.1,-254 1742.39,-272 1690.1,-290"/>
<text text-anchor="middle" x="1690.1" y="-268.3" font-family="Times,serif" font-size="14.00">_T_25</text>
</g>
<!-- c30 -->
<g id="node33" class="node">
<title>c30</title>
<polygon fill="none" stroke="black" points="1791.99,-243 1791.99,-289 1897.99,-289 1897.99,-243 1791.99,-243"/>
<text text-anchor="middle" x="1805.49" y="-273.8" font-family="Times,serif" font-size="14.00">A</text>
<polyline fill="none" stroke="black" points="1791.99,-266 1818.99,-266 "/>
<text text-anchor="middle" x="1805.49" y="-250.8" font-family="Times,serif" font-size="14.00">B</text>
<polyline fill="none" stroke="black" points="1818.99,-243 1818.99,-289 "/>
<text text-anchor="middle" x="1845.49" y="-269.8" font-family="Times,serif" font-size="14.00">$87</text>
<text text-anchor="middle" x="1845.49" y="-254.8" font-family="Times,serif" font-size="14.00">$mul</text>
<polyline fill="none" stroke="black" points="1871.99,-243 1871.99,-289 "/>
<text text-anchor="middle" x="1884.99" y="-262.3" font-family="Times,serif" font-size="14.00">Y</text>
</g>
<!-- n11&#45;&gt;c30 -->
<g id="edge8" class="edge">
<title>n11:e&#45;&gt;c30:w</title>
<path fill="none" stroke="#666666" stroke-width="3" d="M1742.49,-272C1760.31,-272 1766.92,-276.04 1780.71,-277.49"/>
<polygon fill="#666666" stroke="#666666" stroke-width="3" points="1780.83,-281 1790.99,-278 1781.18,-274.01 1780.83,-281"/>
</g>
<!-- n12 -->
<g id="node12" class="node">
<title>n12</title>
<polygon fill="none" stroke="black" points="2071.63,-157 2019.35,-139 2071.63,-121 2123.92,-139 2071.63,-157"/>
<text text-anchor="middle" x="2071.63" y="-135.3" font-family="Times,serif" font-size="14.00">_T_28</text>
</g>
<!-- n13 -->
<g id="node13" class="node">
<title>n13</title>
<polygon fill="none" stroke="black" points="1690.1,-207 1637.82,-189 1690.1,-171 1742.39,-189 1690.1,-207"/>
<text text-anchor="middle" x="1690.1" y="-185.3" font-family="Times,serif" font-size="14.00">_T_29</text>
</g>
<!-- n13&#45;&gt;c30 -->
<g id="edge11" class="edge">
<title>n13:e&#45;&gt;c30:w</title>
<path fill="none" stroke="#1b9e77" stroke-width="3" d="M1742.49,-189C1774.6,-189 1759.4,-240.56 1781.15,-251.84"/>
<polygon fill="#1b9e77" stroke="#1b9e77" stroke-width="3" points="1780.48,-255.27 1790.99,-254 1781.98,-248.44 1780.48,-255.27"/>
</g>
<!-- c31 -->
<g id="node34" class="node">
<title>c31</title>
<polygon fill="none" stroke="black" points="1791.99,-58 1791.99,-104 1897.99,-104 1897.99,-58 1791.99,-58"/>
<text text-anchor="middle" x="1805.49" y="-88.8" font-family="Times,serif" font-size="14.00">A</text>
<polyline fill="none" stroke="black" points="1791.99,-81 1818.99,-81 "/>
<text text-anchor="middle" x="1805.49" y="-65.8" font-family="Times,serif" font-size="14.00">B</text>
<polyline fill="none" stroke="black" points="1818.99,-58 1818.99,-104 "/>
<text text-anchor="middle" x="1845.49" y="-84.8" font-family="Times,serif" font-size="14.00">$88</text>
<text text-anchor="middle" x="1845.49" y="-69.8" font-family="Times,serif" font-size="14.00">$mul</text>
<polyline fill="none" stroke="black" points="1871.99,-58 1871.99,-104 "/>
<text text-anchor="middle" x="1884.99" y="-77.3" font-family="Times,serif" font-size="14.00">Y</text>
</g>
<!-- n13&#45;&gt;c31 -->
<g id="edge12" class="edge">
<title>n13:e&#45;&gt;c31:w</title>
<path fill="none" stroke="#1b9e77" stroke-width="3" d="M1742.49,-189C1796.2,-189 1741.76,-84.41 1781.1,-70.52"/>
<polygon fill="#1b9e77" stroke="#1b9e77" stroke-width="3" points="1781.64,-73.98 1790.99,-69 1780.58,-67.06 1781.64,-73.98"/>
</g>
<!-- x11 -->
<g id="node43" class="node">
<title>x11</title>
<path fill="none" stroke="black" d="M1790.49,-178C1790.49,-178 1899.49,-178 1899.49,-178 1905.49,-178 1911.49,-184 1911.49,-190 1911.49,-190 1911.49,-212 1911.49,-212 1911.49,-218 1905.49,-224 1899.49,-224 1899.49,-224 1790.49,-224 1790.49,-224 1784.49,-224 1778.49,-218 1778.49,-212 1778.49,-212 1778.49,-190 1778.49,-190 1778.49,-184 1784.49,-178 1790.49,-178"/>
<text text-anchor="middle" x="1844.99" y="-208.8" font-family="Times,serif" font-size="14.00">4x 45:45 &#45; 49:46</text>
<polyline fill="none" stroke="black" points="1778.49,-201 1911.49,-201 "/>
<text text-anchor="middle" x="1844.99" y="-185.8" font-family="Times,serif" font-size="14.00">45:0 &#45; 45:0</text>
</g>
<!-- n13&#45;&gt;x11 -->
<g id="edge13" class="edge">
<title>n13:e&#45;&gt;x11:w</title>
<path fill="none" stroke="#1b9e77" stroke-width="3" d="M1742.49,-189C1754.49,-189 1759.74,-189 1768.37,-189"/>
<polygon fill="#1b9e77" stroke="#1b9e77" stroke-width="3" points="1768.49,-192.5 1778.49,-189 1768.49,-185.5 1768.49,-192.5"/>
</g>
<!-- n13&#45;&gt;x11 -->
<g id="edge14" class="edge">
<title>n13:e&#45;&gt;x11:w</title>
<path fill="none" stroke="#1b9e77" stroke-width="3" d="M1742.49,-189C1757.67,-189 1759.34,-203.94 1768.81,-210.25"/>
<polygon fill="#1b9e77" stroke="#1b9e77" stroke-width="3" points="1767.92,-213.63 1778.49,-213 1769.83,-206.9 1767.92,-213.63"/>
</g>
<!-- x20 -->
<g id="node52" class="node">
<title>x20</title>
<path fill="none" stroke="black" d="M1859.99,-159C1859.99,-159 1829.99,-159 1829.99,-159 1823.99,-159 1817.99,-153 1817.99,-147 1817.99,-147 1817.99,-135 1817.99,-135 1817.99,-129 1823.99,-123 1829.99,-123 1829.99,-123 1859.99,-123 1859.99,-123 1865.99,-123 1871.99,-129 1871.99,-135 1871.99,-135 1871.99,-147 1871.99,-147 1871.99,-153 1865.99,-159 1859.99,-159"/>
<text text-anchor="middle" x="1844.99" y="-137.3" font-family="Times,serif" font-size="14.00">BUF</text>
</g>
<!-- n13&#45;&gt;x20 -->
<g id="edge15" class="edge">
<title>n13:e&#45;&gt;x20:w</title>
<path fill="none" stroke="#1b9e77" stroke-width="3" d="M1742.49,-189C1778.19,-189 1778.02,-149.58 1807,-142.19"/>
<polygon fill="#1b9e77" stroke="#1b9e77" stroke-width="3" points="1807.48,-145.65 1816.99,-141 1806.65,-138.7 1807.48,-145.65"/>
</g>
<!-- n14 -->
<g id="node14" class="node">
<title>n14</title>
<polygon fill="none" stroke="black" points="2071.63,-319 2019.35,-301 2071.63,-283 2123.92,-301 2071.63,-319"/>
<text text-anchor="middle" x="2071.63" y="-297.3" font-family="Times,serif" font-size="14.00">_T_30</text>
</g>
<!-- x2 -->
<g id="node27" class="node">
<title>x2</title>
<path fill="none" stroke="black" d="M2243.77,-278C2243.77,-278 2330.77,-278 2330.77,-278 2336.77,-278 2342.77,-284 2342.77,-290 2342.77,-290 2342.77,-312 2342.77,-312 2342.77,-318 2336.77,-324 2330.77,-324 2330.77,-324 2243.77,-324 2243.77,-324 2237.77,-324 2231.77,-318 2231.77,-312 2231.77,-312 2231.77,-290 2231.77,-290 2231.77,-284 2237.77,-278 2243.77,-278"/>
<text text-anchor="middle" x="2287.27" y="-308.8" font-family="Times,serif" font-size="14.00">95:95 &#45; 96:96</text>
<polyline fill="none" stroke="black" points="2231.77,-301 2342.77,-301 "/>
<text text-anchor="middle" x="2287.27" y="-285.8" font-family="Times,serif" font-size="14.00">95:0 &#45; 95:0</text>
</g>
<!-- n14&#45;&gt;x2 -->
<g id="edge17" class="edge">
<title>n14:e&#45;&gt;x2:w</title>
<path fill="none" stroke="#e6ab02" stroke-width="3" d="M2124.63,-301C2168.99,-301 2181.98,-290.72 2221.68,-289.19"/>
<polygon fill="#e6ab02" stroke="#e6ab02" stroke-width="3" points="2221.84,-292.69 2231.77,-289 2221.71,-285.69 2221.84,-292.69"/>
</g>
<!-- n14&#45;&gt;x2 -->
<g id="edge18" class="edge">
<title>n14:e&#45;&gt;x2:w</title>
<path fill="none" stroke="#e6ab02" stroke-width="3" d="M2124.63,-301C2168.99,-301 2181.98,-311.28 2221.68,-312.81"/>
<polygon fill="#e6ab02" stroke="#e6ab02" stroke-width="3" points="2221.71,-316.31 2231.77,-313 2221.84,-309.31 2221.71,-316.31"/>
</g>
<!-- n15 -->
<g id="node15" class="node">
<title>n15</title>
<polygon fill="none" stroke="black" points="2071.63,-102 2019.35,-84 2071.63,-66 2123.92,-84 2071.63,-102"/>
<text text-anchor="middle" x="2071.63" y="-80.3" font-family="Times,serif" font-size="14.00">_T_36</text>
</g>
<!-- c34 -->
<g id="node40" class="node">
<title>c34</title>
<polygon fill="none" stroke="black" points="2235.27,-166 2235.27,-212 2339.27,-212 2339.27,-166 2235.27,-166"/>
<text text-anchor="middle" x="2248.77" y="-196.8" font-family="Times,serif" font-size="14.00">A</text>
<polyline fill="none" stroke="black" points="2235.27,-189 2262.27,-189 "/>
<text text-anchor="middle" x="2248.77" y="-173.8" font-family="Times,serif" font-size="14.00">B</text>
<polyline fill="none" stroke="black" points="2262.27,-166 2262.27,-212 "/>
<text text-anchor="middle" x="2287.77" y="-192.8" font-family="Times,serif" font-size="14.00">$90</text>
<text text-anchor="middle" x="2287.77" y="-177.8" font-family="Times,serif" font-size="14.00">$sub</text>
<polyline fill="none" stroke="black" points="2313.27,-166 2313.27,-212 "/>
<text text-anchor="middle" x="2326.27" y="-185.3" font-family="Times,serif" font-size="14.00">Y</text>
</g>
<!-- n15&#45;&gt;c34 -->
<g id="edge20" class="edge">
<title>n15:e&#45;&gt;c34:w</title>
<path fill="none" stroke="#a6761d" stroke-width="3" d="M2124.63,-84C2158.61,-84 2169.91,-89.97 2195.77,-112 2218.24,-131.14 2205.02,-166.85 2224.28,-175.21"/>
<polygon fill="#a6761d" stroke="#a6761d" stroke-width="3" points="2223.81,-178.68 2234.27,-177 2225.04,-171.79 2223.81,-178.68"/>
</g>
<!-- n16 -->
<g id="node16" class="node">
<title>n16</title>
<polygon fill="none" stroke="black" points="2431.16,-207 2378.88,-189 2431.16,-171 2483.45,-189 2431.16,-207"/>
<text text-anchor="middle" x="2431.16" y="-185.3" font-family="Times,serif" font-size="14.00">_T_38</text>
</g>
<!-- x3 -->
<g id="node28" class="node">
<title>x3</title>
<path fill="none" stroke="black" d="M2531.56,-226C2531.56,-226 2640.56,-226 2640.56,-226 2646.56,-226 2652.56,-232 2652.56,-238 2652.56,-238 2652.56,-260 2652.56,-260 2652.56,-266 2646.56,-272 2640.56,-272 2640.56,-272 2531.56,-272 2531.56,-272 2525.56,-272 2519.56,-266 2519.56,-260 2519.56,-260 2519.56,-238 2519.56,-238 2519.56,-232 2525.56,-226 2531.56,-226"/>
<text text-anchor="middle" x="2586.06" y="-256.8" font-family="Times,serif" font-size="14.00">5x 91:91 &#45; 96:92</text>
<polyline fill="none" stroke="black" points="2519.56,-249 2652.56,-249 "/>
<text text-anchor="middle" x="2586.06" y="-233.8" font-family="Times,serif" font-size="14.00">91:0 &#45; 91:0</text>
</g>
<!-- n16&#45;&gt;x3 -->
<g id="edge25" class="edge">
<title>n16:e&#45;&gt;x3:w</title>
<path fill="none" stroke="#7570b3" stroke-width="3" d="M2483.56,-189C2506.06,-189 2497.23,-223.17 2509.94,-233.85"/>
<polygon fill="#7570b3" stroke="#7570b3" stroke-width="3" points="2508.96,-237.21 2519.56,-237 2511.14,-230.56 2508.96,-237.21"/>
</g>
<!-- n16&#45;&gt;x3 -->
<g id="edge26" class="edge">
<title>n16:e&#45;&gt;x3:w</title>
<path fill="none" stroke="#7570b3" stroke-width="3" d="M2483.56,-189C2515.14,-189 2491.13,-245.11 2509.69,-258.27"/>
<polygon fill="#7570b3" stroke="#7570b3" stroke-width="3" points="2508.98,-261.7 2519.56,-261 2510.85,-254.96 2508.98,-261.7"/>
</g>
<!-- x12 -->
<g id="node44" class="node">
<title>x12</title>
<path fill="none" stroke="black" d="M2531.56,-106C2531.56,-106 2640.56,-106 2640.56,-106 2646.56,-106 2652.56,-112 2652.56,-118 2652.56,-118 2652.56,-140 2652.56,-140 2652.56,-146 2646.56,-152 2640.56,-152 2640.56,-152 2531.56,-152 2531.56,-152 2525.56,-152 2519.56,-146 2519.56,-140 2519.56,-140 2519.56,-118 2519.56,-118 2519.56,-112 2525.56,-106 2531.56,-106"/>
<text text-anchor="middle" x="2586.06" y="-136.8" font-family="Times,serif" font-size="14.00">4x 91:91 &#45; 95:92</text>
<polyline fill="none" stroke="black" points="2519.56,-129 2652.56,-129 "/>
<text text-anchor="middle" x="2586.06" y="-113.8" font-family="Times,serif" font-size="14.00">91:0 &#45; 91:0</text>
</g>
<!-- n16&#45;&gt;x12 -->
<g id="edge22" class="edge">
<title>n16:e&#45;&gt;x12:w</title>
<path fill="none" stroke="#7570b3" stroke-width="3" d="M2483.56,-189C2515.14,-189 2491.13,-132.89 2509.69,-119.73"/>
<polygon fill="#7570b3" stroke="#7570b3" stroke-width="3" points="2510.85,-123.04 2519.56,-117 2508.98,-116.3 2510.85,-123.04"/>
</g>
<!-- n16&#45;&gt;x12 -->
<g id="edge23" class="edge">
<title>n16:e&#45;&gt;x12:w</title>
<path fill="none" stroke="#7570b3" stroke-width="3" d="M2483.56,-189C2506.06,-189 2497.23,-154.83 2509.94,-144.15"/>
<polygon fill="#7570b3" stroke="#7570b3" stroke-width="3" points="2511.14,-147.44 2519.56,-141 2508.96,-140.79 2511.14,-147.44"/>
</g>
<!-- x21 -->
<g id="node53" class="node">
<title>x21</title>
<path fill="none" stroke="black" d="M2601.06,-207C2601.06,-207 2571.06,-207 2571.06,-207 2565.06,-207 2559.06,-201 2559.06,-195 2559.06,-195 2559.06,-183 2559.06,-183 2559.06,-177 2565.06,-171 2571.06,-171 2571.06,-171 2601.06,-171 2601.06,-171 2607.06,-171 2613.06,-177 2613.06,-183 2613.06,-183 2613.06,-195 2613.06,-195 2613.06,-201 2607.06,-207 2601.06,-207"/>
<text text-anchor="middle" x="2586.06" y="-185.3" font-family="Times,serif" font-size="14.00">BUF</text>
</g>
<!-- n16&#45;&gt;x21 -->
<g id="edge24" class="edge">
<title>n16:e&#45;&gt;x21:w</title>
<path fill="none" stroke="#7570b3" stroke-width="3" d="M2483.56,-189C2513.05,-189 2522.84,-189 2548.02,-189"/>
<polygon fill="#7570b3" stroke="#7570b3" stroke-width="3" points="2548.06,-192.5 2558.06,-189 2548.06,-185.5 2548.06,-192.5"/>
</g>
<!-- n17 -->
<g id="node17" class="node">
<title>n17</title>
<polygon fill="none" stroke="black" points="2755.65,-207 2703.37,-189 2755.65,-171 2807.94,-189 2755.65,-207"/>
<text text-anchor="middle" x="2755.65" y="-185.3" font-family="Times,serif" font-size="14.00">_T_39</text>
</g>
<!-- n18 -->
<g id="node18" class="node">
<title>n18</title>
<polygon fill="none" stroke="black" points="2977.04,-293 2924.76,-275 2977.04,-257 3029.33,-275 2977.04,-293"/>
<text text-anchor="middle" x="2977.04" y="-271.3" font-family="Times,serif" font-size="14.00">_T_40</text>
</g>
<!-- c32 -->
<g id="node36" class="node">
<title>c32</title>
<polygon fill="none" stroke="black" points="3131.33,-279 3131.33,-325 3237.33,-325 3237.33,-279 3131.33,-279"/>
<text text-anchor="middle" x="3144.83" y="-309.8" font-family="Times,serif" font-size="14.00">A</text>
<polyline fill="none" stroke="black" points="3131.33,-302 3158.33,-302 "/>
<text text-anchor="middle" x="3144.83" y="-286.8" font-family="Times,serif" font-size="14.00">B</text>
<polyline fill="none" stroke="black" points="3158.33,-279 3158.33,-325 "/>
<text text-anchor="middle" x="3184.83" y="-305.8" font-family="Times,serif" font-size="14.00">$92</text>
<text text-anchor="middle" x="3184.83" y="-290.8" font-family="Times,serif" font-size="14.00">$mul</text>
<polyline fill="none" stroke="black" points="3211.33,-279 3211.33,-325 "/>
<text text-anchor="middle" x="3224.33" y="-298.3" font-family="Times,serif" font-size="14.00">Y</text>
</g>
<!-- n18&#45;&gt;c32 -->
<g id="edge29" class="edge">
<title>n18:e&#45;&gt;c32:w</title>
<path fill="none" stroke="#1b9e77" stroke-width="3" d="M3030.04,-275C3072,-275 3084,-287.75 3121.28,-289.74"/>
<polygon fill="#1b9e77" stroke="#1b9e77" stroke-width="3" points="3121.24,-293.24 3131.33,-290 3121.43,-286.24 3121.24,-293.24"/>
</g>
<!-- n19 -->
<g id="node19" class="node">
<title>n19</title>
<polygon fill="none" stroke="black" points="1372.39,-183 1285.25,-165 1372.39,-147 1459.53,-165 1372.39,-183"/>
<text text-anchor="middle" x="1372.39" y="-161.3" font-family="Times,serif" font-size="14.00">angleValue</text>
</g>
<!-- c29 -->
<g id="node32" class="node">
<title>c29</title>
<polygon fill="none" stroke="black" points="1495.71,-243 1495.71,-289 1601.71,-289 1601.71,-243 1495.71,-243"/>
<text text-anchor="middle" x="1509.21" y="-273.8" font-family="Times,serif" font-size="14.00">A</text>
<polyline fill="none" stroke="black" points="1495.71,-266 1522.71,-266 "/>
<text text-anchor="middle" x="1509.21" y="-250.8" font-family="Times,serif" font-size="14.00">B</text>
<polyline fill="none" stroke="black" points="1522.71,-243 1522.71,-289 "/>
<text text-anchor="middle" x="1549.21" y="-269.8" font-family="Times,serif" font-size="14.00">$84</text>
<text text-anchor="middle" x="1549.21" y="-254.8" font-family="Times,serif" font-size="14.00">$mul</text>
<polyline fill="none" stroke="black" points="1575.71,-243 1575.71,-289 "/>
<text text-anchor="middle" x="1588.71" y="-262.3" font-family="Times,serif" font-size="14.00">Y</text>
</g>
<!-- n19&#45;&gt;c29 -->
<g id="edge31" class="edge">
<title>n19:e&#45;&gt;c29:w</title>
<path fill="none" stroke="#666666" stroke-width="3" d="M1459.71,-165C1498.21,-165 1461.8,-237.47 1485.67,-251.62"/>
<polygon fill="#666666" stroke="#666666" stroke-width="3" points="1485.17,-255.1 1495.71,-254 1486.79,-248.29 1485.17,-255.1"/>
</g>
<!-- n19&#45;&gt;c31 -->
<g id="edge32" class="edge">
<title>n19:e&#45;&gt;c31:w</title>
<path fill="none" stroke="#666666" stroke-width="3" d="M1459.71,-165C1476.2,-165 1479.64,-159.72 1495.71,-156 1623.12,-126.49 1655.2,-94.66 1780.97,-93.06"/>
<polygon fill="#666666" stroke="#666666" stroke-width="3" points="1781.02,-96.56 1790.99,-93 1780.97,-89.56 1781.02,-96.56"/>
</g>
<!-- c33 -->
<g id="node38" class="node">
<title>c33</title>
<polygon fill="none" stroke="black" points="1496.71,-166 1496.71,-212 1600.71,-212 1600.71,-166 1496.71,-166"/>
<text text-anchor="middle" x="1510.21" y="-196.8" font-family="Times,serif" font-size="14.00">A</text>
<polyline fill="none" stroke="black" points="1496.71,-189 1523.71,-189 "/>
<text text-anchor="middle" x="1510.21" y="-173.8" font-family="Times,serif" font-size="14.00">B</text>
<polyline fill="none" stroke="black" points="1523.71,-166 1523.71,-212 "/>
<text text-anchor="middle" x="1549.21" y="-192.8" font-family="Times,serif" font-size="14.00">$86</text>
<text text-anchor="middle" x="1549.21" y="-177.8" font-family="Times,serif" font-size="14.00">$sub</text>
<polyline fill="none" stroke="black" points="1574.71,-166 1574.71,-212 "/>
<text text-anchor="middle" x="1587.71" y="-185.3" font-family="Times,serif" font-size="14.00">Y</text>
</g>
<!-- n19&#45;&gt;c33 -->
<g id="edge33" class="edge">
<title>n19:e&#45;&gt;c33:w</title>
<path fill="none" stroke="#666666" stroke-width="3" d="M1459.71,-165C1472.49,-165 1476.89,-171.89 1485.61,-175.23"/>
<polygon fill="#666666" stroke="#666666" stroke-width="3" points="1485.26,-178.72 1495.71,-177 1486.46,-171.83 1485.26,-178.72"/>
</g>
<!-- n20 -->
<g id="node20" class="node">
<title>n20</title>
<polygon fill="none" stroke="black" points="152.19,-298.54 152.19,-313.46 112.08,-324 55.35,-324 15.24,-313.46 15.24,-298.54 55.35,-288 112.08,-288 152.19,-298.54"/>
<text text-anchor="middle" x="83.72" y="-302.3" font-family="Times,serif" font-size="14.00">io_note_life</text>
</g>
<!-- c28 -->
<g id="node30" class="node">
<title>c28</title>
<polygon fill="none" stroke="black" points="688.99,-327 688.99,-373 794.99,-373 794.99,-327 688.99,-327"/>
<text text-anchor="middle" x="702.49" y="-357.8" font-family="Times,serif" font-size="14.00">A</text>
<polyline fill="none" stroke="black" points="688.99,-350 715.99,-350 "/>
<text text-anchor="middle" x="702.49" y="-334.8" font-family="Times,serif" font-size="14.00">B</text>
<polyline fill="none" stroke="black" points="715.99,-327 715.99,-373 "/>
<text text-anchor="middle" x="742.49" y="-353.8" font-family="Times,serif" font-size="14.00">$82</text>
<text text-anchor="middle" x="742.49" y="-338.8" font-family="Times,serif" font-size="14.00">$mul</text>
<polyline fill="none" stroke="black" points="768.99,-327 768.99,-373 "/>
<text text-anchor="middle" x="781.99" y="-346.3" font-family="Times,serif" font-size="14.00">Y</text>
</g>
<!-- n20&#45;&gt;c28 -->
<g id="edge35" class="edge">
<title>n20:e&#45;&gt;c28:w</title>
<path fill="none" stroke="#7570b3" stroke-width="3" d="M153.72,-306C176.55,-306 180.84,-315.64 203.43,-319 413.18,-350.16 470.62,-338.4 677.7,-338.01"/>
<polygon fill="#7570b3" stroke="#7570b3" stroke-width="3" points="677.99,-341.51 687.99,-338 677.99,-334.51 677.99,-341.51"/>
</g>
<!-- x15 -->
<g id="node47" class="node">
<title>x15</title>
<path fill="none" stroke="black" d="M386.66,-263C386.66,-263 455.66,-263 455.66,-263 461.66,-263 467.66,-269 467.66,-275 467.66,-275 467.66,-297 467.66,-297 467.66,-303 461.66,-309 455.66,-309 455.66,-309 386.66,-309 386.66,-309 380.66,-309 374.66,-303 374.66,-297 374.66,-297 374.66,-275 374.66,-275 374.66,-269 380.66,-263 386.66,-263"/>
<text text-anchor="middle" x="421.16" y="-293.8" font-family="Times,serif" font-size="14.00">0 &#45;&gt; 32:32</text>
<polyline fill="none" stroke="black" points="374.66,-286 467.66,-286 "/>
<text text-anchor="middle" x="421.16" y="-270.8" font-family="Times,serif" font-size="14.00">31:0 &#45; 31:0</text>
</g>
<!-- n20&#45;&gt;x15 -->
<g id="edge36" class="edge">
<title>n20:e&#45;&gt;x15:w</title>
<path fill="none" stroke="#7570b3" stroke-width="3" d="M153.72,-306C248.81,-306 272.94,-276.21 363.04,-274.12"/>
<polygon fill="#7570b3" stroke="#7570b3" stroke-width="3" points="363.2,-277.61 373.16,-274 363.12,-270.61 363.2,-277.61"/>
</g>
<!-- n21 -->
<g id="node21" class="node">
<title>n21</title>
<polygon fill="none" stroke="black" points="3437.76,-294.54 3437.76,-309.46 3389.65,-320 3321.63,-320 3273.52,-309.46 3273.52,-294.54 3321.63,-284 3389.65,-284 3437.76,-294.54"/>
<text text-anchor="middle" x="3355.64" y="-298.3" font-family="Times,serif" font-size="14.00">io_sample_out</text>
</g>
<!-- n22 -->
<g id="node22" class="node">
<title>n22</title>
<polygon fill="none" stroke="black" points="167.65,-153.54 167.65,-168.46 118.48,-179 48.95,-179 -0.22,-168.46 -0.22,-153.54 48.95,-143 118.48,-143 167.65,-153.54"/>
<text text-anchor="middle" x="83.72" y="-157.3" font-family="Times,serif" font-size="14.00">io_wavelength</text>
</g>
<!-- x1 -->
<g id="node25" class="node">
<title>x1</title>
<path fill="none" stroke="black" d="M362.16,-78C362.16,-78 480.16,-78 480.16,-78 486.16,-78 492.16,-84 492.16,-90 492.16,-90 492.16,-112 492.16,-112 492.16,-118 486.16,-124 480.16,-124 480.16,-124 362.16,-124 362.16,-124 356.16,-124 350.16,-118 350.16,-112 350.16,-112 350.16,-90 350.16,-90 350.16,-84 356.16,-78 362.16,-78"/>
<text text-anchor="middle" x="421.16" y="-108.8" font-family="Times,serif" font-size="14.00">34x 11:11 &#45; 45:12</text>
<polyline fill="none" stroke="black" points="350.16,-101 492.16,-101 "/>
<text text-anchor="middle" x="421.16" y="-85.8" font-family="Times,serif" font-size="14.00">11:0 &#45; 11:0</text>
</g>
<!-- n22&#45;&gt;x1 -->
<g id="edge41" class="edge">
<title>n22:e&#45;&gt;x1:w</title>
<path fill="none" stroke="#a6761d" stroke-width="3" d="M167.43,-161C187.43,-161 185.61,-143.08 203.43,-134 260.64,-104.83 279.4,-90.54 338.84,-89.12"/>
<polygon fill="#a6761d" stroke="#a6761d" stroke-width="3" points="339.2,-92.62 349.16,-89 339.12,-85.62 339.2,-92.62"/>
</g>
<!-- n22&#45;&gt;x1 -->
<g id="edge42" class="edge">
<title>n22:e&#45;&gt;x1:w</title>
<path fill="none" stroke="#a6761d" stroke-width="3" d="M167.43,-161C187.43,-161 184.96,-141.66 203.43,-134 260.57,-110.29 281.43,-112.64 338.82,-112.97"/>
<polygon fill="#a6761d" stroke="#a6761d" stroke-width="3" points="339.15,-116.47 349.16,-113 339.17,-109.47 339.15,-116.47"/>
</g>
<!-- x10 -->
<g id="node42" class="node">
<title>x10</title>
<path fill="none" stroke="black" d="M362.16,-198C362.16,-198 480.16,-198 480.16,-198 486.16,-198 492.16,-204 492.16,-210 492.16,-210 492.16,-232 492.16,-232 492.16,-238 486.16,-244 480.16,-244 480.16,-244 362.16,-244 362.16,-244 356.16,-244 350.16,-238 350.16,-232 350.16,-232 350.16,-210 350.16,-210 350.16,-204 356.16,-198 362.16,-198"/>
<text text-anchor="middle" x="421.16" y="-228.8" font-family="Times,serif" font-size="14.00">33x 11:11 &#45; 44:12</text>
<polyline fill="none" stroke="black" points="350.16,-221 492.16,-221 "/>
<text text-anchor="middle" x="421.16" y="-205.8" font-family="Times,serif" font-size="14.00">11:0 &#45; 11:0</text>
</g>
<!-- n22&#45;&gt;x10 -->
<g id="edge38" class="edge">
<title>n22:e&#45;&gt;x10:w</title>
<path fill="none" stroke="#a6761d" stroke-width="3" d="M167.43,-161C187.43,-161 184.96,-180.34 203.43,-188 260.57,-211.71 281.43,-209.36 338.82,-209.03"/>
<polygon fill="#a6761d" stroke="#a6761d" stroke-width="3" points="339.17,-212.53 349.16,-209 339.15,-205.53 339.17,-212.53"/>
</g>
<!-- n22&#45;&gt;x10 -->
<g id="edge39" class="edge">
<title>n22:e&#45;&gt;x10:w</title>
<path fill="none" stroke="#a6761d" stroke-width="3" d="M167.43,-161C187.43,-161 185.61,-178.92 203.43,-188 260.64,-217.17 279.4,-231.46 338.84,-232.88"/>
<polygon fill="#a6761d" stroke="#a6761d" stroke-width="3" points="339.12,-236.38 349.16,-233 339.2,-229.38 339.12,-236.38"/>
</g>
<!-- x19 -->
<g id="node51" class="node">
<title>x19</title>
<path fill="none" stroke="black" d="M436.16,-179C436.16,-179 406.16,-179 406.16,-179 400.16,-179 394.16,-173 394.16,-167 394.16,-167 394.16,-155 394.16,-155 394.16,-149 400.16,-143 406.16,-143 406.16,-143 436.16,-143 436.16,-143 442.16,-143 448.16,-149 448.16,-155 448.16,-155 448.16,-167 448.16,-167 448.16,-173 442.16,-179 436.16,-179"/>
<text text-anchor="middle" x="421.16" y="-157.3" font-family="Times,serif" font-size="14.00">BUF</text>
</g>
<!-- n22&#45;&gt;x19 -->
<g id="edge40" class="edge">
<title>n22:e&#45;&gt;x19:w</title>
<path fill="none" stroke="#a6761d" stroke-width="3" d="M167.43,-161C264.33,-161 291.03,-161 383.13,-161"/>
<polygon fill="#a6761d" stroke="#a6761d" stroke-width="3" points="383.16,-164.5 393.16,-161 383.16,-157.5 383.16,-164.5"/>
</g>
<!-- c26 -->
<g id="node23" class="node">
<title>c26</title>
<polygon fill="none" stroke="black" points="1146.68,-142 1146.68,-188 1246.68,-188 1246.68,-142 1146.68,-142"/>
<text text-anchor="middle" x="1160.18" y="-172.8" font-family="Times,serif" font-size="14.00">A</text>
<polyline fill="none" stroke="black" points="1146.68,-165 1173.68,-165 "/>
<text text-anchor="middle" x="1160.18" y="-149.8" font-family="Times,serif" font-size="14.00">B</text>
<polyline fill="none" stroke="black" points="1173.68,-142 1173.68,-188 "/>
<text text-anchor="middle" x="1197.18" y="-168.8" font-family="Times,serif" font-size="14.00">$83</text>
<text text-anchor="middle" x="1197.18" y="-153.8" font-family="Times,serif" font-size="14.00">$div</text>
<polyline fill="none" stroke="black" points="1220.68,-142 1220.68,-188 "/>
<text text-anchor="middle" x="1233.68" y="-161.3" font-family="Times,serif" font-size="14.00">Y</text>
</g>
<!-- c26&#45;&gt;n19 -->
<g id="edge30" class="edge">
<title>c26:e&#45;&gt;n19:w</title>
<path fill="none" stroke="#666666" stroke-width="3" d="M1247.68,-165C1260.27,-165 1265.71,-165 1274.84,-165"/>
<polygon fill="#666666" stroke="#666666" stroke-width="3" points="1275.07,-168.5 1285.07,-165 1275.07,-161.5 1275.07,-168.5"/>
</g>
<!-- x0&#45;&gt;c26 -->
<g id="edge1" class="edge">
<title>x0:e&#45;&gt;c26:w</title>
<path fill="none" stroke="#e7298a" stroke-width="3" d="M1119.95,-197.04C1125.5,-192.56 1128.53,-185.33 1134.11,-180.89"/>
<polygon fill="none" stroke="#e7298a" stroke-width="3" points="1119.65,-197.14 1115.25,-202.86 1108.29,-201 1112.68,-195.28 1119.65,-197.14"/>
<polygon fill="none" stroke="#e7298a" stroke-width="3" points="1134.3,-180.82 1138.72,-175.12 1145.68,-177 1141.27,-182.7 1134.3,-180.82"/>
</g>
<!-- x1&#45;&gt;c26 -->
<g id="edge2" class="edge">
<title>x1:e&#45;&gt;c26:w</title>
<path fill="none" stroke="#e7298a" stroke-width="3" d="M505.39,-101.03C782.16,-102.44 856.77,-151.58 1133.62,-152.97"/>
<polygon fill="none" stroke="#e7298a" stroke-width="3" points="505.16,-101.03 499.15,-105.02 493.16,-101 499.17,-97.02 505.16,-101.03"/>
<polygon fill="none" stroke="#e7298a" stroke-width="3" points="1133.68,-152.97 1139.69,-148.98 1145.68,-153 1139.67,-156.98 1133.68,-152.97"/>
</g>
<!-- c27 -->
<g id="node26" class="node">
<title>c27</title>
<polygon fill="none" stroke="black" points="2705.65,-252 2705.65,-298 2805.65,-298 2805.65,-252 2705.65,-252"/>
<text text-anchor="middle" x="2719.15" y="-282.8" font-family="Times,serif" font-size="14.00">A</text>
<polyline fill="none" stroke="black" points="2705.65,-275 2732.65,-275 "/>
<text text-anchor="middle" x="2719.15" y="-259.8" font-family="Times,serif" font-size="14.00">B</text>
<polyline fill="none" stroke="black" points="2732.65,-252 2732.65,-298 "/>
<text text-anchor="middle" x="2756.15" y="-278.8" font-family="Times,serif" font-size="14.00">$91</text>
<text text-anchor="middle" x="2756.15" y="-263.8" font-family="Times,serif" font-size="14.00">$div</text>
<polyline fill="none" stroke="black" points="2779.65,-252 2779.65,-298 "/>
<text text-anchor="middle" x="2792.65" y="-271.3" font-family="Times,serif" font-size="14.00">Y</text>
</g>
<!-- c27&#45;&gt;n18 -->
<g id="edge28" class="edge">
<title>c27:e&#45;&gt;n18:w</title>
<path fill="none" stroke="#1b9e77" stroke-width="3" d="M2806.65,-275C2855.26,-275 2869.9,-275 2913.87,-275"/>
<polygon fill="#1b9e77" stroke="#1b9e77" stroke-width="3" points="2914.04,-278.5 2924.04,-275 2914.04,-271.5 2914.04,-278.5"/>
</g>
<!-- x2&#45;&gt;c27 -->
<g id="edge3" class="edge">
<title>x2:e&#45;&gt;c27:w</title>
<path fill="none" stroke="#7570b3" stroke-width="3" d="M2354.8,-300.97C2501.85,-300.32 2545.5,-287.69 2692.48,-287.03"/>
<polygon fill="none" stroke="#7570b3" stroke-width="3" points="2354.77,-300.97 2348.78,-304.99 2342.77,-301 2348.76,-296.99 2354.77,-300.97"/>
<polygon fill="none" stroke="#7570b3" stroke-width="3" points="2692.65,-287.03 2698.65,-283.01 2704.65,-287 2698.66,-291.01 2692.65,-287.03"/>
</g>
<!-- x3&#45;&gt;c27 -->
<g id="edge4" class="edge">
<title>x3:e&#45;&gt;c27:w</title>
<path fill="none" stroke="#e6ab02" stroke-width="3" d="M2664.63,-250.39C2675.45,-253.08 2681.78,-258.93 2692.6,-261.61"/>
<polygon fill="none" stroke="#e6ab02" stroke-width="3" points="2664.48,-250.38 2658.06,-253.66 2652.56,-249 2658.98,-245.71 2664.48,-250.38"/>
<polygon fill="none" stroke="#e6ab02" stroke-width="3" points="2692.73,-261.63 2699.15,-258.34 2704.65,-263 2698.24,-266.29 2692.73,-261.63"/>
</g>
<!-- v4 -->
<g id="node29" class="node">
<title>v4</title>
<ellipse fill="none" stroke="black" cx="421.16" cy="-384" rx="83.39" ry="18"/>
<text text-anchor="middle" x="421.16" y="-380.3" font-family="Times,serif" font-size="14.00">10&#39;1001110100</text>
</g>
<!-- v4&#45;&gt;c28 -->
<g id="edge55" class="edge">
<title>v4:e&#45;&gt;c28:w</title>
<path fill="none" stroke="#7570b3" stroke-width="3" d="M506.16,-384C584.07,-384 604.84,-363.85 677.83,-362.12"/>
<polygon fill="#7570b3" stroke="#7570b3" stroke-width="3" points="678.03,-365.62 687.99,-362 677.95,-358.62 678.03,-365.62"/>
</g>
<!-- c28&#45;&gt;n7 -->
<g id="edge47" class="edge">
<title>c28:e&#45;&gt;n7:w</title>
<path fill="none" stroke="#a6761d" stroke-width="3" d="M795.99,-350C825.68,-350 826.08,-317.76 849.14,-310.46"/>
<polygon fill="#a6761d" stroke="#a6761d" stroke-width="3" points="849.79,-313.9 859.19,-309 848.79,-306.97 849.79,-313.9"/>
</g>
<!-- v5 -->
<g id="node31" class="node">
<title>v5</title>
<ellipse fill="none" stroke="black" cx="1372.39" cy="-278" rx="42.49" ry="18"/>
<text text-anchor="middle" x="1372.39" y="-274.3" font-family="Times,serif" font-size="14.00">4&#39;0100</text>
</g>
<!-- v5&#45;&gt;c29 -->
<g id="edge56" class="edge">
<title>v5:e&#45;&gt;c29:w</title>
<path fill="none" stroke="#d95f02" stroke-width="3" d="M1416.39,-278C1447.93,-278 1458.3,-278 1485.38,-278"/>
<polygon fill="#d95f02" stroke="#d95f02" stroke-width="3" points="1485.71,-281.5 1495.71,-278 1485.71,-274.5 1485.71,-281.5"/>
</g>
<!-- c29&#45;&gt;n11 -->
<g id="edge7" class="edge">
<title>c29:e&#45;&gt;n11:w</title>
<path fill="none" stroke="#666666" stroke-width="3" d="M1601.71,-266C1613.88,-266 1618.92,-269.38 1627.52,-271.06"/>
<polygon fill="#666666" stroke="#666666" stroke-width="3" points="1627.43,-274.57 1637.71,-272 1628.07,-267.6 1627.43,-274.57"/>
</g>
<!-- c30&#45;&gt;n14 -->
<g id="edge16" class="edge">
<title>c30:e&#45;&gt;n14:w</title>
<path fill="none" stroke="#e6ab02" stroke-width="3" d="M1898.99,-266C1950.82,-266 1961.9,-296.63 2008.48,-300.58"/>
<polygon fill="#e6ab02" stroke="#e6ab02" stroke-width="3" points="2008.5,-304.09 2018.63,-301 2008.79,-297.09 2008.5,-304.09"/>
</g>
<!-- c31&#45;&gt;n15 -->
<g id="edge19" class="edge">
<title>c31:e&#45;&gt;n15:w</title>
<path fill="none" stroke="#a6761d" stroke-width="3" d="M1898.99,-81C1948.65,-81 1963.51,-83.61 2008.54,-83.96"/>
<polygon fill="#a6761d" stroke="#a6761d" stroke-width="3" points="2008.62,-87.46 2018.63,-84 2008.65,-80.46 2008.62,-87.46"/>
</g>
<!-- v6 -->
<g id="node35" class="node">
<title>v6</title>
<ellipse fill="none" stroke="black" cx="2977.04" cy="-329" rx="118.08" ry="18"/>
<text text-anchor="middle" x="2977.04" y="-325.3" font-family="Times,serif" font-size="14.00">16&#39;0111111111111111</text>
</g>
<!-- v6&#45;&gt;c32 -->
<g id="edge57" class="edge">
<title>v6:e&#45;&gt;c32:w</title>
<path fill="none" stroke="#1b9e77" stroke-width="3" d="M3095.33,-329C3108.6,-329 3112.49,-320.21 3121.37,-316.09"/>
<polygon fill="#1b9e77" stroke="#1b9e77" stroke-width="3" points="3122.26,-319.47 3131.33,-314 3120.83,-312.62 3122.26,-319.47"/>
</g>
<!-- c32&#45;&gt;n21 -->
<g id="edge37" class="edge">
<title>c32:e&#45;&gt;n21:w</title>
<path fill="none" stroke="#d95f02" stroke-width="3" d="M3237.33,-302C3249.33,-302 3254.58,-302 3263.21,-302"/>
<polygon fill="#d95f02" stroke="#d95f02" stroke-width="3" points="3263.33,-305.5 3273.33,-302 3263.33,-298.5 3263.33,-305.5"/>
</g>
<!-- v7 -->
<g id="node37" class="node">
<title>v7</title>
<ellipse fill="none" stroke="black" cx="1372.39" cy="-219" rx="71.49" ry="18"/>
<text text-anchor="middle" x="1372.39" y="-215.3" font-family="Times,serif" font-size="14.00">9&#39;010110100</text>
</g>
<!-- v7&#45;&gt;c33 -->
<g id="edge58" class="edge">
<title>v7:e&#45;&gt;c33:w</title>
<path fill="none" stroke="#a6761d" stroke-width="3" d="M1445.39,-219C1465.25,-219 1470.47,-206.42 1485.53,-202.29"/>
<polygon fill="#a6761d" stroke="#a6761d" stroke-width="3" points="1486.23,-205.73 1495.71,-201 1485.35,-198.79 1486.23,-205.73"/>
</g>
<!-- c33&#45;&gt;n13 -->
<g id="edge10" class="edge">
<title>c33:e&#45;&gt;n13:w</title>
<path fill="none" stroke="#1b9e77" stroke-width="3" d="M1601.71,-189C1613.71,-189 1618.96,-189 1627.59,-189"/>
<polygon fill="#1b9e77" stroke="#1b9e77" stroke-width="3" points="1627.71,-192.5 1637.71,-189 1627.71,-185.5 1627.71,-192.5"/>
</g>
<!-- v8 -->
<g id="node39" class="node">
<title>v8</title>
<ellipse fill="none" stroke="black" cx="2071.63" cy="-247" rx="124.28" ry="18"/>
<text text-anchor="middle" x="2071.63" y="-243.3" font-family="Times,serif" font-size="14.00">17&#39;01001111000110100</text>
</g>
<!-- v8&#45;&gt;c34 -->
<g id="edge59" class="edge">
<title>v8:e&#45;&gt;c34:w</title>
<path fill="none" stroke="#e6ab02" stroke-width="3" d="M2195.77,-247C2218.27,-247 2211.23,-214.25 2224.5,-204.02"/>
<polygon fill="#e6ab02" stroke="#e6ab02" stroke-width="3" points="2225.75,-207.29 2234.27,-201 2223.68,-200.61 2225.75,-207.29"/>
</g>
<!-- c34&#45;&gt;n16 -->
<g id="edge21" class="edge">
<title>c34:e&#45;&gt;n16:w</title>
<path fill="none" stroke="#7570b3" stroke-width="3" d="M2340.27,-189C2353.37,-189 2358.95,-189 2368.53,-189"/>
<polygon fill="#7570b3" stroke="#7570b3" stroke-width="3" points="2368.77,-192.5 2378.77,-189 2368.77,-185.5 2368.77,-192.5"/>
</g>
<!-- x9&#45;&gt;n9 -->
<g id="edge52" class="edge">
<title>x9:e&#45;&gt;n9:w</title>
<path fill="none" stroke="#a6761d" stroke-width="3" d="M1089.79,-282C1110.22,-282 1117.73,-282 1134.12,-282"/>
<polygon fill="#a6761d" stroke="#a6761d" stroke-width="3" points="1134.29,-285.5 1144.29,-282 1134.29,-278.5 1134.29,-285.5"/>
</g>
<!-- x10&#45;&gt;n2 -->
<g id="edge34" class="edge">
<title>x10:e&#45;&gt;n2:w</title>
<path fill="none" stroke="#7570b3" stroke-width="3" d="M493.16,-221C570.46,-221 592.28,-221 664.81,-221"/>
<polygon fill="#7570b3" stroke="#7570b3" stroke-width="3" points="664.89,-224.5 674.89,-221 664.89,-217.5 664.89,-224.5"/>
</g>
<!-- x11&#45;&gt;n3 -->
<g id="edge43" class="edge">
<title>x11:e&#45;&gt;n3:w</title>
<path fill="none" stroke="#a6761d" stroke-width="3" d="M1911.49,-201C1948.91,-201 1960.49,-194.37 1993.26,-193.18"/>
<polygon fill="#a6761d" stroke="#a6761d" stroke-width="3" points="1993.7,-196.68 2003.63,-193 1993.57,-189.68 1993.7,-196.68"/>
</g>
<!-- x12&#45;&gt;n4 -->
<g id="edge44" class="edge">
<title>x12:e&#45;&gt;n4:w</title>
<path fill="none" stroke="#e7298a" stroke-width="3" d="M2652.56,-129C2664.56,-129 2669.81,-129 2678.43,-129"/>
<polygon fill="#e7298a" stroke="#e7298a" stroke-width="3" points="2678.56,-132.5 2688.56,-129 2678.56,-125.5 2678.56,-132.5"/>
</g>
<!-- v13 -->
<g id="node45" class="node">
<title>v13</title>
<ellipse fill="none" stroke="black" cx="421.16" cy="-438" rx="100.98" ry="18"/>
<text text-anchor="middle" x="421.16" y="-434.3" font-family="Times,serif" font-size="14.00">13&#39;0001001110100</text>
</g>
<!-- x14 -->
<g id="node46" class="node">
<title>x14</title>
<path fill="none" stroke="black" d="M756.99,-456C756.99,-456 726.99,-456 726.99,-456 720.99,-456 714.99,-450 714.99,-444 714.99,-444 714.99,-432 714.99,-432 714.99,-426 720.99,-420 726.99,-420 726.99,-420 756.99,-420 756.99,-420 762.99,-420 768.99,-426 768.99,-432 768.99,-432 768.99,-444 768.99,-444 768.99,-450 762.99,-456 756.99,-456"/>
<text text-anchor="middle" x="741.99" y="-434.3" font-family="Times,serif" font-size="14.00">BUF</text>
</g>
<!-- v13&#45;&gt;x14 -->
<g id="edge53" class="edge">
<title>v13:e&#45;&gt;x14:w</title>
<path fill="none" stroke="#1b9e77" stroke-width="3" d="M523.16,-438C604.5,-438 627.33,-438 703.87,-438"/>
<polygon fill="#1b9e77" stroke="#1b9e77" stroke-width="3" points="703.99,-441.5 713.99,-438 703.99,-434.5 703.99,-441.5"/>
</g>
<!-- x14&#45;&gt;n5 -->
<g id="edge45" class="edge">
<title>x14:e&#45;&gt;n5:w</title>
<path fill="none" stroke="#e7298a" stroke-width="3" d="M769.99,-438C806.07,-438 817.52,-438 849.18,-438"/>
<polygon fill="#e7298a" stroke="#e7298a" stroke-width="3" points="849.19,-441.5 859.19,-438 849.19,-434.5 849.19,-441.5"/>
</g>
<!-- x15&#45;&gt;n6 -->
<g id="edge46" class="edge">
<title>x15:e&#45;&gt;n6:w</title>
<path fill="none" stroke="#e7298a" stroke-width="3" d="M469.16,-286C563.43,-286 589.48,-286 678.95,-286"/>
<polygon fill="#e7298a" stroke="#e7298a" stroke-width="3" points="678.99,-289.5 688.99,-286 678.99,-282.5 678.99,-289.5"/>
</g>
<!-- v16 -->
<g id="node48" class="node">
<title>v16</title>
<ellipse fill="none" stroke="black" cx="421.16" cy="-41" rx="217.96" ry="18"/>
<text text-anchor="middle" x="421.16" y="-37.3" font-family="Times,serif" font-size="14.00">33&#39;000000000000000000000001001110100</text>
</g>
<!-- x17 -->
<g id="node49" class="node">
<title>x17</title>
<path fill="none" stroke="black" d="M756.99,-59C756.99,-59 726.99,-59 726.99,-59 720.99,-59 714.99,-53 714.99,-47 714.99,-47 714.99,-35 714.99,-35 714.99,-29 720.99,-23 726.99,-23 726.99,-23 756.99,-23 756.99,-23 762.99,-23 768.99,-29 768.99,-35 768.99,-35 768.99,-47 768.99,-47 768.99,-53 762.99,-59 756.99,-59"/>
<text text-anchor="middle" x="741.99" y="-37.3" font-family="Times,serif" font-size="14.00">BUF</text>
</g>
<!-- v16&#45;&gt;x17 -->
<g id="edge54" class="edge">
<title>v16:e&#45;&gt;x17:w</title>
<path fill="none" stroke="#e6ab02" stroke-width="3" d="M638.89,-41C668.62,-41 678.49,-41 703.87,-41"/>
<polygon fill="#e6ab02" stroke="#e6ab02" stroke-width="3" points="703.99,-44.5 713.99,-41 703.99,-37.5 703.99,-44.5"/>
</g>
<!-- x17&#45;&gt;n1 -->
<g id="edge5" class="edge">
<title>x17:e&#45;&gt;n1:w</title>
<path fill="none" stroke="#66a61e" stroke-width="3" d="M769.99,-41C799.72,-41 809.59,-41 834.97,-41"/>
<polygon fill="#66a61e" stroke="#66a61e" stroke-width="3" points="835.09,-44.5 845.09,-41 835.09,-37.5 835.09,-44.5"/>
</g>
<!-- x18&#45;&gt;n8 -->
<g id="edge51" class="edge">
<title>x18:e&#45;&gt;n8:w</title>
<path fill="none" stroke="#d95f02" stroke-width="3" d="M1089.79,-336C1110.22,-336 1117.73,-336 1134.12,-336"/>
<polygon fill="#d95f02" stroke="#d95f02" stroke-width="3" points="1134.29,-339.5 1144.29,-336 1134.29,-332.5 1134.29,-339.5"/>
</g>
<!-- x19&#45;&gt;n10 -->
<g id="edge6" class="edge">
<title>x19:e&#45;&gt;n10:w</title>
<path fill="none" stroke="#d95f02" stroke-width="3" d="M449.16,-161C552.32,-161 580.6,-161 678.93,-161"/>
<polygon fill="#d95f02" stroke="#d95f02" stroke-width="3" points="678.99,-164.5 688.99,-161 678.99,-157.5 678.99,-164.5"/>
</g>
<!-- x20&#45;&gt;n12 -->
<g id="edge9" class="edge">
<title>x20:e&#45;&gt;n12:w</title>
<path fill="none" stroke="#7570b3" stroke-width="3" d="M1872.99,-141C1934.19,-141 1951.98,-139.21 2008.43,-139.02"/>
<polygon fill="#7570b3" stroke="#7570b3" stroke-width="3" points="2008.64,-142.52 2018.63,-139 2008.63,-135.52 2008.64,-142.52"/>
</g>
<!-- x21&#45;&gt;n17 -->
<g id="edge27" class="edge">
<title>x21:e&#45;&gt;n17:w</title>
<path fill="none" stroke="#e7298a" stroke-width="3" d="M2614.06,-189C2649.74,-189 2661.17,-189 2692.31,-189"/>
<polygon fill="#e7298a" stroke="#e7298a" stroke-width="3" points="2692.65,-192.5 2702.65,-189 2692.65,-185.5 2692.65,-192.5"/>
</g>
</g>
</svg>
