<?xml version="1.0" encoding="UTF-8" standalone="no"?>
<!DOCTYPE svg PUBLIC "-//W3C//DTD SVG 1.1//EN"
 "http://www.w3.org/Graphics/SVG/1.1/DTD/svg11.dtd">
<!-- Generated by graphviz version 2.40.1 (0)
 -->
<!-- Title: SPISlave Pages: 1 -->
<svg width="1945pt" height="612pt"
 viewBox="0.00 0.00 1944.70 612.29" xmlns="http://www.w3.org/2000/svg" xmlns:xlink="http://www.w3.org/1999/xlink">
<g id="graph0" class="graph" transform="scale(1 1) rotate(0) translate(4 608.2882)">
<title>SPISlave</title>
<polygon fill="#ffffff" stroke="transparent" points="-4,4 -4,-608.2882 1940.6975,-608.2882 1940.6975,4 -4,4"/>
<text text-anchor="middle" x="968.3487" y="-7.8" font-family="Times,serif" font-size="14.00" fill="#000000">SPISlave</text>
<!-- n3 -->
<g id="node1" class="node">
<title>n3</title>
<polygon fill="none" stroke="#000000" points="829.472,-401.2882 716.3593,-383.2882 829.472,-365.2882 942.5847,-383.2882 829.472,-401.2882"/>
<text text-anchor="middle" x="829.472" y="-379.5882" font-family="Times,serif" font-size="14.00" fill="#000000">spi_i_SPI_CS_n</text>
</g>
<!-- c36 -->
<g id="node23" class="node">
<title>c36</title>
<polygon fill="none" stroke="#000000" points="978.5283,-202.7882 978.5283,-363.7882 1342.5283,-363.7882 1342.5283,-202.7882 978.5283,-202.7882"/>
<text text-anchor="middle" x="1028.5283" y="-348.5882" font-family="Times,serif" font-size="14.00" fill="#000000">i_Clk</text>
<polyline fill="none" stroke="#000000" points="978.5283,-340.7882 1078.5283,-340.7882 "/>
<text text-anchor="middle" x="1028.5283" y="-325.5882" font-family="Times,serif" font-size="14.00" fill="#000000">i_Rst_L</text>
<polyline fill="none" stroke="#000000" points="978.5283,-317.7882 1078.5283,-317.7882 "/>
<text text-anchor="middle" x="1028.5283" y="-302.5882" font-family="Times,serif" font-size="14.00" fill="#000000">i_SPI_CS_n</text>
<polyline fill="none" stroke="#000000" points="978.5283,-294.7882 1078.5283,-294.7882 "/>
<text text-anchor="middle" x="1028.5283" y="-279.5882" font-family="Times,serif" font-size="14.00" fill="#000000">i_SPI_Clk</text>
<polyline fill="none" stroke="#000000" points="978.5283,-271.7882 1078.5283,-271.7882 "/>
<text text-anchor="middle" x="1028.5283" y="-256.5882" font-family="Times,serif" font-size="14.00" fill="#000000">i_SPI_MOSI</text>
<polyline fill="none" stroke="#000000" points="978.5283,-248.7882 1078.5283,-248.7882 "/>
<text text-anchor="middle" x="1028.5283" y="-233.5882" font-family="Times,serif" font-size="14.00" fill="#000000">i_TX_Byte</text>
<polyline fill="none" stroke="#000000" points="978.5283,-225.7882 1078.5283,-225.7882 "/>
<text text-anchor="middle" x="1028.5283" y="-210.5882" font-family="Times,serif" font-size="14.00" fill="#000000">i_TX_DV</text>
<polyline fill="none" stroke="#000000" points="1078.5283,-202.7882 1078.5283,-363.7882 "/>
<text text-anchor="middle" x="1158.5283" y="-287.0882" font-family="Times,serif" font-size="14.00" fill="#000000">spi</text>
<text text-anchor="middle" x="1158.5283" y="-272.0882" font-family="Times,serif" font-size="14.00" fill="#000000">SPI_Slave_nandland</text>
<polyline fill="none" stroke="#000000" points="1238.5283,-202.7882 1238.5283,-363.7882 "/>
<text text-anchor="middle" x="1290.5283" y="-333.5882" font-family="Times,serif" font-size="14.00" fill="#000000">o_RX_Byte</text>
<polyline fill="none" stroke="#000000" points="1238.5283,-310.7882 1342.5283,-310.7882 "/>
<text text-anchor="middle" x="1290.5283" y="-280.0882" font-family="Times,serif" font-size="14.00" fill="#000000">o_RX_DV</text>
<polyline fill="none" stroke="#000000" points="1238.5283,-256.7882 1342.5283,-256.7882 "/>
<text text-anchor="middle" x="1290.5283" y="-226.0882" font-family="Times,serif" font-size="14.00" fill="#000000">o_SPI_MISO</text>
</g>
<!-- n3&#45;&gt;c36 -->
<g id="edge18" class="edge">
<title>n3:e&#45;&gt;c36:w</title>
<path fill="none" stroke="#1b9e77" d="M942.472,-383.2882C976.1273,-383.2882 948.4602,-322.2108 968.7012,-308.8501"/>
<polygon fill="#1b9e77" stroke="#1b9e77" points="969.7347,-312.1977 978.5283,-306.2882 967.9688,-305.4241 969.7347,-312.1977"/>
</g>
<!-- n4 -->
<g id="node2" class="node">
<title>n4</title>
<polygon fill="none" stroke="#000000" points="562.7635,-133.2882 444.9591,-115.2882 562.7635,-97.2882 680.568,-115.2882 562.7635,-133.2882"/>
<text text-anchor="middle" x="562.7635" y="-111.5882" font-family="Times,serif" font-size="14.00" fill="#000000">spi_i_SPI_MOSI</text>
</g>
<!-- n4&#45;&gt;c36 -->
<g id="edge20" class="edge">
<title>n4:e&#45;&gt;c36:w</title>
<path fill="none" stroke="#666666" d="M680.4156,-115.2882C797.4388,-115.2882 852.0676,-66.0502 942.5283,-140.2882 982.5446,-173.1282 931.1444,-248.6246 968.4612,-259.0789"/>
<polygon fill="#666666" stroke="#666666" points="968.1822,-262.5705 978.5283,-260.2882 969.0172,-255.6204 968.1822,-262.5705"/>
</g>
<!-- n5 -->
<g id="node3" class="node">
<title>n5</title>
<polygon fill="none" stroke="#000000" points="1498.9379,-247.2882 1378.6187,-229.2882 1498.9379,-211.2882 1619.2572,-229.2882 1498.9379,-247.2882"/>
<text text-anchor="middle" x="1498.9379" y="-225.5882" font-family="Times,serif" font-size="14.00" fill="#000000">spi_o_SPI_MISO</text>
</g>
<!-- x4 -->
<g id="node26" class="node">
<title>x4</title>
<path fill="none" stroke="#000000" d="M1697.3475,-247.2882C1697.3475,-247.2882 1667.3475,-247.2882 1667.3475,-247.2882 1661.3475,-247.2882 1655.3475,-241.2882 1655.3475,-235.2882 1655.3475,-235.2882 1655.3475,-223.2882 1655.3475,-223.2882 1655.3475,-217.2882 1661.3475,-211.2882 1667.3475,-211.2882 1667.3475,-211.2882 1697.3475,-211.2882 1697.3475,-211.2882 1703.3475,-211.2882 1709.3475,-217.2882 1709.3475,-223.2882 1709.3475,-223.2882 1709.3475,-235.2882 1709.3475,-235.2882 1709.3475,-241.2882 1703.3475,-247.2882 1697.3475,-247.2882"/>
<text text-anchor="middle" x="1682.3475" y="-225.5882" font-family="Times,serif" font-size="14.00" fill="#000000">BUF</text>
</g>
<!-- n5&#45;&gt;x4 -->
<g id="edge22" class="edge">
<title>n5:e&#45;&gt;x4:w</title>
<path fill="none" stroke="#7570b3" d="M1619.3475,-229.2882C1631.3475,-229.2882 1636.5975,-229.2882 1645.2225,-229.2882"/>
<polygon fill="#7570b3" stroke="#7570b3" points="1645.3476,-232.7883 1655.3475,-229.2882 1645.3475,-225.7883 1645.3476,-232.7883"/>
</g>
<!-- n6 -->
<g id="node4" class="node">
<title>n6</title>
<polygon fill="none" stroke="#000000" points="829.472,-293.2882 728.2573,-275.2882 829.472,-257.2882 930.6867,-275.2882 829.472,-293.2882"/>
<text text-anchor="middle" x="829.472" y="-271.5882" font-family="Times,serif" font-size="14.00" fill="#000000">spi_i_SPI_Clk</text>
</g>
<!-- n6&#45;&gt;c36 -->
<g id="edge24" class="edge">
<title>n6:e&#45;&gt;c36:w</title>
<path fill="none" stroke="#7570b3" d="M930.472,-275.2882C948.2336,-275.2882 954.6227,-280.6715 968.2973,-282.6061"/>
<polygon fill="#7570b3" stroke="#7570b3" points="968.3176,-286.1151 978.5283,-283.2882 968.7833,-279.1307 968.3176,-286.1151"/>
</g>
<!-- n7 -->
<g id="node5" class="node">
<title>n7</title>
<polygon fill="none" stroke="#000000" points="829.472,-185.2882 724.9037,-167.2882 829.472,-149.2882 934.0403,-167.2882 829.472,-185.2882"/>
<text text-anchor="middle" x="829.472" y="-163.5882" font-family="Times,serif" font-size="14.00" fill="#000000">spi_i_TX_Byte</text>
</g>
<!-- n7&#45;&gt;c36 -->
<g id="edge26" class="edge">
<title>n7:e&#45;&gt;c36:w</title>
<path fill="none" stroke="#d95f02" stroke-width="3" d="M934.472,-167.2882C967.2114,-167.2882 947.4212,-222.8131 968.6698,-234.9592"/>
<polygon fill="#d95f02" stroke="#d95f02" stroke-width="3" points="967.9915,-238.3952 978.5283,-237.2882 969.6009,-231.5827 967.9915,-238.3952"/>
</g>
<!-- n8 -->
<g id="node6" class="node">
<title>n8</title>
<polygon fill="none" stroke="#000000" points="829.472,-239.2882 735.9633,-221.2882 829.472,-203.2882 922.9807,-221.2882 829.472,-239.2882"/>
<text text-anchor="middle" x="829.472" y="-217.5882" font-family="Times,serif" font-size="14.00" fill="#000000">spi_i_TX_DV</text>
</g>
<!-- n8&#45;&gt;c36 -->
<g id="edge28" class="edge">
<title>n8:e&#45;&gt;c36:w</title>
<path fill="none" stroke="#a6761d" d="M923.472,-221.2882C944.2843,-221.2882 951.6108,-216.3048 968.2088,-214.7475"/>
<polygon fill="#a6761d" stroke="#a6761d" points="968.6939,-218.2295 978.5283,-214.2882 968.3826,-211.2364 968.6939,-218.2295"/>
</g>
<!-- n9 -->
<g id="node7" class="node">
<title>n9</title>
<polygon fill="none" stroke="#000000" points="1498.9379,-355.2882 1389.6784,-337.2882 1498.9379,-319.2882 1608.1975,-337.2882 1498.9379,-355.2882"/>
<text text-anchor="middle" x="1498.9379" y="-333.5882" font-family="Times,serif" font-size="14.00" fill="#000000">spi_o_RX_Byte</text>
</g>
<!-- x3 -->
<g id="node25" class="node">
<title>x3</title>
<path fill="none" stroke="#000000" d="M1697.3475,-355.2882C1697.3475,-355.2882 1667.3475,-355.2882 1667.3475,-355.2882 1661.3475,-355.2882 1655.3475,-349.2882 1655.3475,-343.2882 1655.3475,-343.2882 1655.3475,-331.2882 1655.3475,-331.2882 1655.3475,-325.2882 1661.3475,-319.2882 1667.3475,-319.2882 1667.3475,-319.2882 1697.3475,-319.2882 1697.3475,-319.2882 1703.3475,-319.2882 1709.3475,-325.2882 1709.3475,-331.2882 1709.3475,-331.2882 1709.3475,-343.2882 1709.3475,-343.2882 1709.3475,-349.2882 1703.3475,-355.2882 1697.3475,-355.2882"/>
<text text-anchor="middle" x="1682.3475" y="-333.5882" font-family="Times,serif" font-size="14.00" fill="#000000">BUF</text>
</g>
<!-- n9&#45;&gt;x3 -->
<g id="edge30" class="edge">
<title>n9:e&#45;&gt;x3:w</title>
<path fill="none" stroke="#a6761d" stroke-width="3" d="M1607.9379,-337.2882C1625.2227,-337.2882 1631.8733,-337.2882 1645.3363,-337.2882"/>
<polygon fill="#a6761d" stroke="#a6761d" stroke-width="3" points="1645.3476,-340.7883 1655.3475,-337.2882 1645.3475,-333.7883 1645.3476,-340.7883"/>
</g>
<!-- n10 -->
<g id="node8" class="node">
<title>n10</title>
<polygon fill="none" stroke="#000000" points="1498.9379,-301.2882 1400.738,-283.2882 1498.9379,-265.2882 1597.1378,-283.2882 1498.9379,-301.2882"/>
<text text-anchor="middle" x="1498.9379" y="-279.5882" font-family="Times,serif" font-size="14.00" fill="#000000">spi_o_RX_DV</text>
</g>
<!-- x2 -->
<g id="node24" class="node">
<title>x2</title>
<path fill="none" stroke="#000000" d="M1697.3475,-301.2882C1697.3475,-301.2882 1667.3475,-301.2882 1667.3475,-301.2882 1661.3475,-301.2882 1655.3475,-295.2882 1655.3475,-289.2882 1655.3475,-289.2882 1655.3475,-277.2882 1655.3475,-277.2882 1655.3475,-271.2882 1661.3475,-265.2882 1667.3475,-265.2882 1667.3475,-265.2882 1697.3475,-265.2882 1697.3475,-265.2882 1703.3475,-265.2882 1709.3475,-271.2882 1709.3475,-277.2882 1709.3475,-277.2882 1709.3475,-289.2882 1709.3475,-289.2882 1709.3475,-295.2882 1703.3475,-301.2882 1697.3475,-301.2882"/>
<text text-anchor="middle" x="1682.3475" y="-279.5882" font-family="Times,serif" font-size="14.00" fill="#000000">BUF</text>
</g>
<!-- n10&#45;&gt;x2 -->
<g id="edge3" class="edge">
<title>n10:e&#45;&gt;x2:w</title>
<path fill="none" stroke="#e7298a" d="M1596.9379,-283.2882C1619.0443,-283.2882 1627.032,-283.2882 1644.9469,-283.2882"/>
<polygon fill="#e7298a" stroke="#e7298a" points="1645.3476,-286.7883 1655.3475,-283.2882 1645.3475,-279.7883 1645.3476,-286.7883"/>
</g>
<!-- n11 -->
<g id="node9" class="node">
<title>n11</title>
<polygon fill="none" stroke="#000000" points="829.472,-347.2882 742.3317,-329.2882 829.472,-311.2882 916.6122,-329.2882 829.472,-347.2882"/>
<text text-anchor="middle" x="829.472" y="-325.5882" font-family="Times,serif" font-size="14.00" fill="#000000">spi_i_Rst_L</text>
</g>
<!-- n11&#45;&gt;c36 -->
<g id="edge5" class="edge">
<title>n11:e&#45;&gt;c36:w</title>
<path fill="none" stroke="#7570b3" d="M916.472,-329.2882C940.2818,-329.2882 948.6757,-329.2882 968.2702,-329.2882"/>
<polygon fill="#7570b3" stroke="#7570b3" points="968.5284,-332.7883 978.5283,-329.2882 968.5283,-325.7883 968.5284,-332.7883"/>
</g>
<!-- n12 -->
<g id="node10" class="node">
<title>n12</title>
<polygon fill="none" stroke="#000000" points="336.498,-419.2882 263.7709,-401.2882 336.498,-383.2882 409.225,-401.2882 336.498,-419.2882"/>
<text text-anchor="middle" x="336.498" y="-397.5882" font-family="Times,serif" font-size="14.00" fill="#000000">spi_i_Clk</text>
</g>
<!-- n12&#45;&gt;c36 -->
<g id="edge7" class="edge">
<title>n12:e&#45;&gt;c36:w</title>
<path fill="none" stroke="#e6ab02" d="M409.1114,-401.2882C646.2193,-401.2882 735.3224,-525.5525 942.5283,-410.2882 965.3133,-397.6134 953.1169,-363.8889 968.4918,-354.6546"/>
<polygon fill="#e6ab02" stroke="#e6ab02" points="969.5984,-357.9897 978.5283,-352.2882 967.992,-351.1765 969.5984,-357.9897"/>
</g>
<!-- n13 -->
<g id="node11" class="node">
<title>n13</title>
<polygon fill="none" stroke="#000000" points="135.6063,-578.8323 135.6063,-593.744 96.5554,-604.2882 41.3291,-604.2882 2.2783,-593.744 2.2783,-578.8323 41.3291,-568.2882 96.5554,-568.2882 135.6063,-578.8323"/>
<text text-anchor="middle" x="68.9423" y="-582.5882" font-family="Times,serif" font-size="14.00" fill="#000000">io_spi_cs_n</text>
</g>
<!-- c24 -->
<g id="node20" class="node">
<title>c24</title>
<polygon fill="none" stroke="#000000" points="287.998,-529.2882 287.998,-575.2882 384.998,-575.2882 384.998,-529.2882 287.998,-529.2882"/>
<text text-anchor="middle" x="301.498" y="-560.0882" font-family="Times,serif" font-size="14.00" fill="#000000">A</text>
<polyline fill="none" stroke="#000000" points="287.998,-552.2882 314.998,-552.2882 "/>
<text text-anchor="middle" x="301.498" y="-537.0882" font-family="Times,serif" font-size="14.00" fill="#000000">B</text>
<polyline fill="none" stroke="#000000" points="314.998,-529.2882 314.998,-575.2882 "/>
<text text-anchor="middle" x="336.998" y="-556.0882" font-family="Times,serif" font-size="14.00" fill="#000000">$62</text>
<text text-anchor="middle" x="336.998" y="-541.0882" font-family="Times,serif" font-size="14.00" fill="#000000">$eq</text>
<polyline fill="none" stroke="#000000" points="358.998,-529.2882 358.998,-575.2882 "/>
<text text-anchor="middle" x="371.998" y="-548.5882" font-family="Times,serif" font-size="14.00" fill="#000000">Y</text>
</g>
<!-- n13&#45;&gt;c24 -->
<g id="edge8" class="edge">
<title>n13:e&#45;&gt;c24:w</title>
<path fill="none" stroke="#66a61e" d="M135.9423,-586.2882C200.417,-586.2882 217.6604,-566.5473 277.1537,-564.4653"/>
<polygon fill="#66a61e" stroke="#66a61e" points="277.5594,-567.9589 287.498,-564.2882 277.4395,-560.96 277.5594,-567.9589"/>
</g>
<!-- n14 -->
<g id="node12" class="node">
<title>n14</title>
<polygon fill="none" stroke="#000000" points="128.1292,-55.8323 128.1292,-70.744 93.4583,-81.2882 44.4263,-81.2882 9.7554,-70.744 9.7554,-55.8323 44.4263,-45.2882 93.4583,-45.2882 128.1292,-55.8323"/>
<text text-anchor="middle" x="68.9423" y="-59.5882" font-family="Times,serif" font-size="14.00" fill="#000000">io_spi_clk</text>
</g>
<!-- x11 -->
<g id="node33" class="node">
<title>x11</title>
<path fill="none" stroke="#000000" d="M215.8845,-81.2882C215.8845,-81.2882 185.8845,-81.2882 185.8845,-81.2882 179.8845,-81.2882 173.8845,-75.2882 173.8845,-69.2882 173.8845,-69.2882 173.8845,-57.2882 173.8845,-57.2882 173.8845,-51.2882 179.8845,-45.2882 185.8845,-45.2882 185.8845,-45.2882 215.8845,-45.2882 215.8845,-45.2882 221.8845,-45.2882 227.8845,-51.2882 227.8845,-57.2882 227.8845,-57.2882 227.8845,-69.2882 227.8845,-69.2882 227.8845,-75.2882 221.8845,-81.2882 215.8845,-81.2882"/>
<text text-anchor="middle" x="200.8845" y="-59.5882" font-family="Times,serif" font-size="14.00" fill="#000000">BUF</text>
</g>
<!-- n14&#45;&gt;x11 -->
<g id="edge9" class="edge">
<title>n14:e&#45;&gt;x11:w</title>
<path fill="none" stroke="#d95f02" d="M127.9423,-63.2882C144.5325,-63.2882 151.0131,-63.2882 163.8122,-63.2882"/>
<polygon fill="#d95f02" stroke="#d95f02" points="163.8846,-66.7883 173.8845,-63.2882 163.8845,-59.7883 163.8846,-66.7883"/>
</g>
<!-- n15 -->
<g id="node13" class="node">
<title>n15</title>
<polygon fill="none" stroke="#000000" points="1909.9071,-221.8323 1909.9071,-236.744 1869.5554,-247.2882 1812.4896,-247.2882 1772.1379,-236.744 1772.1379,-221.8323 1812.4896,-211.2882 1869.5554,-211.2882 1909.9071,-221.8323"/>
<text text-anchor="middle" x="1841.0225" y="-225.5882" font-family="Times,serif" font-size="14.00" fill="#000000">io_spi_miso</text>
</g>
<!-- n16 -->
<g id="node14" class="node">
<title>n16</title>
<polygon fill="none" stroke="#000000" points="137.8268,-109.8323 137.8268,-124.744 97.4752,-135.2882 40.4093,-135.2882 .0577,-124.744 .0577,-109.8323 40.4093,-99.2882 97.4752,-99.2882 137.8268,-109.8323"/>
<text text-anchor="middle" x="68.9423" y="-113.5882" font-family="Times,serif" font-size="14.00" fill="#000000">io_spi_mosi</text>
</g>
<!-- x12 -->
<g id="node34" class="node">
<title>x12</title>
<path fill="none" stroke="#000000" d="M215.8845,-135.2882C215.8845,-135.2882 185.8845,-135.2882 185.8845,-135.2882 179.8845,-135.2882 173.8845,-129.2882 173.8845,-123.2882 173.8845,-123.2882 173.8845,-111.2882 173.8845,-111.2882 173.8845,-105.2882 179.8845,-99.2882 185.8845,-99.2882 185.8845,-99.2882 215.8845,-99.2882 215.8845,-99.2882 221.8845,-99.2882 227.8845,-105.2882 227.8845,-111.2882 227.8845,-111.2882 227.8845,-123.2882 227.8845,-123.2882 227.8845,-129.2882 221.8845,-135.2882 215.8845,-135.2882"/>
<text text-anchor="middle" x="200.8845" y="-113.5882" font-family="Times,serif" font-size="14.00" fill="#000000">BUF</text>
</g>
<!-- n16&#45;&gt;x12 -->
<g id="edge11" class="edge">
<title>n16:e&#45;&gt;x12:w</title>
<path fill="none" stroke="#7570b3" d="M137.8845,-117.2882C149.8845,-117.2882 155.1345,-117.2882 163.7595,-117.2882"/>
<polygon fill="#7570b3" stroke="#7570b3" points="163.8846,-120.7883 173.8845,-117.2882 163.8845,-113.7883 163.8846,-120.7883"/>
</g>
<!-- n17 -->
<g id="node15" class="node">
<title>n17</title>
<polygon fill="none" stroke="#000000" points="1907.6865,-329.8323 1907.6865,-344.744 1868.6356,-355.2882 1813.4094,-355.2882 1774.3585,-344.744 1774.3585,-329.8323 1813.4094,-319.2882 1868.6356,-319.2882 1907.6865,-329.8323"/>
<text text-anchor="middle" x="1841.0225" y="-333.5882" font-family="Times,serif" font-size="14.00" fill="#000000">io_RX_data</text>
</g>
<!-- n18 -->
<g id="node16" class="node">
<title>n18</title>
<polygon fill="none" stroke="#000000" points="1936.8728,-275.8323 1936.8728,-290.744 1880.725,-301.2882 1801.32,-301.2882 1745.1722,-290.744 1745.1722,-275.8323 1801.32,-265.2882 1880.725,-265.2882 1936.8728,-275.8323"/>
<text text-anchor="middle" x="1841.0225" y="-279.5882" font-family="Times,serif" font-size="14.00" fill="#000000">io_RX_data_valid</text>
</g>
<!-- n19 -->
<g id="node17" class="node">
<title>n19</title>
<polygon fill="none" stroke="#000000" points="106.0137,-486.8323 106.0137,-501.744 84.2978,-512.2882 53.5868,-512.2882 31.8708,-501.744 31.8708,-486.8323 53.5868,-476.2882 84.2978,-476.2882 106.0137,-486.8323"/>
<text text-anchor="middle" x="68.9423" y="-490.5882" font-family="Times,serif" font-size="14.00" fill="#000000">reset</text>
</g>
<!-- c25 -->
<g id="node22" class="node">
<title>c25</title>
<polygon fill="none" stroke="#000000" points="287.998,-452.2882 287.998,-498.2882 384.998,-498.2882 384.998,-452.2882 287.998,-452.2882"/>
<text text-anchor="middle" x="301.498" y="-483.0882" font-family="Times,serif" font-size="14.00" fill="#000000">A</text>
<polyline fill="none" stroke="#000000" points="287.998,-475.2882 314.998,-475.2882 "/>
<text text-anchor="middle" x="301.498" y="-460.0882" font-family="Times,serif" font-size="14.00" fill="#000000">B</text>
<polyline fill="none" stroke="#000000" points="314.998,-452.2882 314.998,-498.2882 "/>
<text text-anchor="middle" x="336.998" y="-479.0882" font-family="Times,serif" font-size="14.00" fill="#000000">$61</text>
<text text-anchor="middle" x="336.998" y="-464.0882" font-family="Times,serif" font-size="14.00" fill="#000000">$eq</text>
<polyline fill="none" stroke="#000000" points="358.998,-452.2882 358.998,-498.2882 "/>
<text text-anchor="middle" x="371.998" y="-471.5882" font-family="Times,serif" font-size="14.00" fill="#000000">Y</text>
</g>
<!-- n19&#45;&gt;c25 -->
<g id="edge14" class="edge">
<title>n19:e&#45;&gt;c25:w</title>
<path fill="none" stroke="#a6761d" d="M105.9423,-494.2882C183.2239,-494.2882 204.9112,-487.8768 277.4152,-487.3259"/>
<polygon fill="#a6761d" stroke="#a6761d" points="277.5111,-490.8256 287.498,-487.2882 277.4849,-483.8257 277.5111,-490.8256"/>
</g>
<!-- n20 -->
<g id="node18" class="node">
<title>n20</title>
<polygon fill="none" stroke="#000000" points="106.0137,-386.8323 106.0137,-401.744 84.2978,-412.2882 53.5868,-412.2882 31.8708,-401.744 31.8708,-386.8323 53.5868,-376.2882 84.2978,-376.2882 106.0137,-386.8323"/>
<text text-anchor="middle" x="68.9423" y="-390.5882" font-family="Times,serif" font-size="14.00" fill="#000000">clock</text>
</g>
<!-- x5 -->
<g id="node27" class="node">
<title>x5</title>
<path fill="none" stroke="#000000" d="M215.8845,-412.2882C215.8845,-412.2882 185.8845,-412.2882 185.8845,-412.2882 179.8845,-412.2882 173.8845,-406.2882 173.8845,-400.2882 173.8845,-400.2882 173.8845,-388.2882 173.8845,-388.2882 173.8845,-382.2882 179.8845,-376.2882 185.8845,-376.2882 185.8845,-376.2882 215.8845,-376.2882 215.8845,-376.2882 221.8845,-376.2882 227.8845,-382.2882 227.8845,-388.2882 227.8845,-388.2882 227.8845,-400.2882 227.8845,-400.2882 227.8845,-406.2882 221.8845,-412.2882 215.8845,-412.2882"/>
<text text-anchor="middle" x="200.8845" y="-390.5882" font-family="Times,serif" font-size="14.00" fill="#000000">BUF</text>
</g>
<!-- n20&#45;&gt;x5 -->
<g id="edge16" class="edge">
<title>n20:e&#45;&gt;x5:w</title>
<path fill="none" stroke="#e7298a" d="M105.9423,-394.2882C132.4822,-394.2882 141.5276,-394.2882 163.8305,-394.2882"/>
<polygon fill="#e7298a" stroke="#e7298a" points="163.8846,-397.7883 173.8845,-394.2882 163.8845,-390.7883 163.8846,-397.7883"/>
</g>
<!-- v0 -->
<g id="node19" class="node">
<title>v0</title>
<ellipse fill="none" stroke="#000000" cx="200.8845" cy="-540.2882" rx="27" ry="18"/>
<text text-anchor="middle" x="200.8845" y="-536.5882" font-family="Times,serif" font-size="14.00" fill="#000000">1&#39;0</text>
</g>
<!-- v0&#45;&gt;c24 -->
<g id="edge31" class="edge">
<title>v0:e&#45;&gt;c24:w</title>
<path fill="none" stroke="#e7298a" d="M227.8845,-540.2882C250.6535,-540.2882 258.7472,-540.2882 277.3888,-540.2882"/>
<polygon fill="#e7298a" stroke="#e7298a" points="277.498,-543.7883 287.498,-540.2882 277.4979,-536.7883 277.498,-543.7883"/>
</g>
<!-- x13 -->
<g id="node35" class="node">
<title>x13</title>
<path fill="none" stroke="#000000" d="M577.7635,-555.2882C577.7635,-555.2882 547.7635,-555.2882 547.7635,-555.2882 541.7635,-555.2882 535.7635,-549.2882 535.7635,-543.2882 535.7635,-543.2882 535.7635,-531.2882 535.7635,-531.2882 535.7635,-525.2882 541.7635,-519.2882 547.7635,-519.2882 547.7635,-519.2882 577.7635,-519.2882 577.7635,-519.2882 583.7635,-519.2882 589.7635,-525.2882 589.7635,-531.2882 589.7635,-531.2882 589.7635,-543.2882 589.7635,-543.2882 589.7635,-549.2882 583.7635,-555.2882 577.7635,-555.2882"/>
<text text-anchor="middle" x="562.7635" y="-533.5882" font-family="Times,serif" font-size="14.00" fill="#000000">BUF</text>
</g>
<!-- c24&#45;&gt;x13 -->
<g id="edge1" class="edge">
<title>c24:e&#45;&gt;x13:w</title>
<path fill="none" stroke="#e7298a" d="M385.498,-552.2882C449.0752,-552.2882 466.8139,-538.8285 525.5567,-537.4089"/>
<polygon fill="#e7298a" stroke="#e7298a" points="525.8056,-540.9063 535.7635,-537.2882 525.7228,-533.9068 525.8056,-540.9063"/>
</g>
<!-- v1 -->
<g id="node21" class="node">
<title>v1</title>
<ellipse fill="none" stroke="#000000" cx="200.8845" cy="-448.2882" rx="27" ry="18"/>
<text text-anchor="middle" x="200.8845" y="-444.5882" font-family="Times,serif" font-size="14.00" fill="#000000">1&#39;0</text>
</g>
<!-- v1&#45;&gt;c25 -->
<g id="edge32" class="edge">
<title>v1:e&#45;&gt;c25:w</title>
<path fill="none" stroke="#e7298a" d="M227.8845,-448.2882C251.47,-448.2882 258.4,-459.467 277.4312,-462.5237"/>
<polygon fill="#e7298a" stroke="#e7298a" points="277.2616,-466.0208 287.498,-463.2882 277.7917,-459.0409 277.2616,-466.0208"/>
</g>
<!-- x6 -->
<g id="node28" class="node">
<title>x6</title>
<path fill="none" stroke="#000000" d="M577.7635,-493.2882C577.7635,-493.2882 547.7635,-493.2882 547.7635,-493.2882 541.7635,-493.2882 535.7635,-487.2882 535.7635,-481.2882 535.7635,-481.2882 535.7635,-469.2882 535.7635,-469.2882 535.7635,-463.2882 541.7635,-457.2882 547.7635,-457.2882 547.7635,-457.2882 577.7635,-457.2882 577.7635,-457.2882 583.7635,-457.2882 589.7635,-463.2882 589.7635,-469.2882 589.7635,-469.2882 589.7635,-481.2882 589.7635,-481.2882 589.7635,-487.2882 583.7635,-493.2882 577.7635,-493.2882"/>
<text text-anchor="middle" x="562.7635" y="-471.5882" font-family="Times,serif" font-size="14.00" fill="#000000">BUF</text>
</g>
<!-- c25&#45;&gt;x6 -->
<g id="edge15" class="edge">
<title>c25:e&#45;&gt;x6:w</title>
<path fill="none" stroke="#7570b3" d="M385.498,-475.2882C448.7608,-475.2882 467.0786,-475.2882 525.6011,-475.2882"/>
<polygon fill="#7570b3" stroke="#7570b3" points="525.7635,-478.7883 535.7635,-475.2882 525.7635,-471.7883 525.7635,-478.7883"/>
</g>
<!-- c36&#45;&gt;n5 -->
<g id="edge21" class="edge">
<title>c36:e&#45;&gt;n5:w</title>
<path fill="none" stroke="#7570b3" d="M1342.5283,-229.2882C1354.5283,-229.2882 1359.7783,-229.2882 1368.4033,-229.2882"/>
<polygon fill="#7570b3" stroke="#7570b3" points="1368.5284,-232.7883 1378.5283,-229.2882 1368.5283,-225.7883 1368.5284,-232.7883"/>
</g>
<!-- c36&#45;&gt;n9 -->
<g id="edge29" class="edge">
<title>c36:e&#45;&gt;n9:w</title>
<path fill="none" stroke="#a6761d" stroke-width="3" d="M1342.5283,-337.2882C1359.8131,-337.2882 1366.4637,-337.2882 1379.9267,-337.2882"/>
<polygon fill="#a6761d" stroke="#a6761d" stroke-width="3" points="1379.938,-340.7883 1389.9379,-337.2882 1379.9379,-333.7883 1379.938,-340.7883"/>
</g>
<!-- c36&#45;&gt;n10 -->
<g id="edge2" class="edge">
<title>c36:e&#45;&gt;n10:w</title>
<path fill="none" stroke="#e7298a" d="M1342.5283,-284.2882C1364.638,-284.2882 1372.6206,-283.563 1390.5363,-283.3477"/>
<polygon fill="#e7298a" stroke="#e7298a" points="1390.9582,-286.8455 1400.9379,-283.2882 1390.918,-279.8456 1390.9582,-286.8455"/>
</g>
<!-- x2&#45;&gt;n18 -->
<g id="edge13" class="edge">
<title>x2:e&#45;&gt;n18:w</title>
<path fill="none" stroke="#e6ab02" d="M1709.3475,-283.2882C1721.3475,-283.2882 1726.5975,-283.2882 1735.2225,-283.2882"/>
<polygon fill="#e6ab02" stroke="#e6ab02" points="1735.3476,-286.7883 1745.3475,-283.2882 1735.3475,-279.7883 1735.3476,-286.7883"/>
</g>
<!-- x3&#45;&gt;n17 -->
<g id="edge12" class="edge">
<title>x3:e&#45;&gt;n17:w</title>
<path fill="none" stroke="#1b9e77" stroke-width="3" d="M1709.3475,-337.2882C1734.3866,-337.2882 1743.0672,-337.2882 1763.8888,-337.2882"/>
<polygon fill="#1b9e77" stroke="#1b9e77" stroke-width="3" points="1764.0225,-340.7883 1774.0225,-337.2882 1764.0225,-333.7883 1764.0225,-340.7883"/>
</g>
<!-- x4&#45;&gt;n15 -->
<g id="edge10" class="edge">
<title>x4:e&#45;&gt;n15:w</title>
<path fill="none" stroke="#666666" d="M1709.3475,-229.2882C1733.5035,-229.2882 1741.9487,-229.2882 1761.9315,-229.2882"/>
<polygon fill="#666666" stroke="#666666" points="1762.0225,-232.7883 1772.0225,-229.2882 1762.0225,-225.7883 1762.0225,-232.7883"/>
</g>
<!-- x5&#45;&gt;n12 -->
<g id="edge6" class="edge">
<title>x5:e&#45;&gt;n12:w</title>
<path fill="none" stroke="#e6ab02" d="M227.8845,-394.2882C240.1093,-394.2882 245.0783,-398.2257 253.6753,-400.1944"/>
<polygon fill="#e6ab02" stroke="#e6ab02" points="253.5686,-403.703 263.8845,-401.2882 254.3143,-396.7428 253.5686,-403.703"/>
</g>
<!-- x6&#45;&gt;n11 -->
<g id="edge4" class="edge">
<title>x6:e&#45;&gt;n11:w</title>
<path fill="none" stroke="#7570b3" d="M589.7635,-475.2882C679.9943,-475.2882 651.1178,-340.4717 732.0433,-329.9391"/>
<polygon fill="#7570b3" stroke="#7570b3" points="732.7095,-333.4044 742.472,-329.2882 732.2733,-326.418 732.7095,-333.4044"/>
</g>
<!-- v7 -->
<g id="node29" class="node">
<title>v7</title>
<ellipse fill="none" stroke="#000000" cx="336.498" cy="-223.2882" rx="27" ry="18"/>
<text text-anchor="middle" x="336.498" y="-219.5882" font-family="Times,serif" font-size="14.00" fill="#000000">1&#39;0</text>
</g>
<!-- x8 -->
<g id="node30" class="node">
<title>x8</title>
<path fill="none" stroke="#000000" d="M577.7635,-241.2882C577.7635,-241.2882 547.7635,-241.2882 547.7635,-241.2882 541.7635,-241.2882 535.7635,-235.2882 535.7635,-229.2882 535.7635,-229.2882 535.7635,-217.2882 535.7635,-217.2882 535.7635,-211.2882 541.7635,-205.2882 547.7635,-205.2882 547.7635,-205.2882 577.7635,-205.2882 577.7635,-205.2882 583.7635,-205.2882 589.7635,-211.2882 589.7635,-217.2882 589.7635,-217.2882 589.7635,-229.2882 589.7635,-229.2882 589.7635,-235.2882 583.7635,-241.2882 577.7635,-241.2882"/>
<text text-anchor="middle" x="562.7635" y="-219.5882" font-family="Times,serif" font-size="14.00" fill="#000000">BUF</text>
</g>
<!-- v7&#45;&gt;x8 -->
<g id="edge33" class="edge">
<title>v7:e&#45;&gt;x8:w</title>
<path fill="none" stroke="#e7298a" d="M363.498,-223.2882C436.4716,-223.2882 457.2804,-223.2882 525.3636,-223.2882"/>
<polygon fill="#e7298a" stroke="#e7298a" points="525.7635,-226.7883 535.7635,-223.2882 525.7635,-219.7883 525.7635,-226.7883"/>
</g>
<!-- x8&#45;&gt;n8 -->
<g id="edge27" class="edge">
<title>x8:e&#45;&gt;n8:w</title>
<path fill="none" stroke="#a6761d" d="M589.7635,-223.2882C650.9871,-223.2882 668.7918,-221.501 725.2664,-221.3055"/>
<polygon fill="#a6761d" stroke="#a6761d" points="725.478,-224.8052 735.472,-221.2882 725.466,-217.8052 725.478,-224.8052"/>
</g>
<!-- v9 -->
<g id="node31" class="node">
<title>v9</title>
<ellipse fill="none" stroke="#000000" cx="336.498" cy="-169.2882" rx="65.7887" ry="18"/>
<text text-anchor="middle" x="336.498" y="-165.5882" font-family="Times,serif" font-size="14.00" fill="#000000">8&#39;00000000</text>
</g>
<!-- x10 -->
<g id="node32" class="node">
<title>x10</title>
<path fill="none" stroke="#000000" d="M577.7635,-187.2882C577.7635,-187.2882 547.7635,-187.2882 547.7635,-187.2882 541.7635,-187.2882 535.7635,-181.2882 535.7635,-175.2882 535.7635,-175.2882 535.7635,-163.2882 535.7635,-163.2882 535.7635,-157.2882 541.7635,-151.2882 547.7635,-151.2882 547.7635,-151.2882 577.7635,-151.2882 577.7635,-151.2882 583.7635,-151.2882 589.7635,-157.2882 589.7635,-163.2882 589.7635,-163.2882 589.7635,-175.2882 589.7635,-175.2882 589.7635,-181.2882 583.7635,-187.2882 577.7635,-187.2882"/>
<text text-anchor="middle" x="562.7635" y="-165.5882" font-family="Times,serif" font-size="14.00" fill="#000000">BUF</text>
</g>
<!-- v9&#45;&gt;x10 -->
<g id="edge34" class="edge">
<title>v9:e&#45;&gt;x10:w</title>
<path fill="none" stroke="#a6761d" stroke-width="3" d="M402.498,-169.2882C458.141,-169.2882 474.5785,-169.2882 525.4739,-169.2882"/>
<polygon fill="#a6761d" stroke="#a6761d" stroke-width="3" points="525.7635,-172.7883 535.7635,-169.2882 525.7635,-165.7883 525.7635,-172.7883"/>
</g>
<!-- x10&#45;&gt;n7 -->
<g id="edge25" class="edge">
<title>x10:e&#45;&gt;n7:w</title>
<path fill="none" stroke="#d95f02" stroke-width="3" d="M589.7635,-169.2882C646.1321,-169.2882 662.6882,-167.5157 714.3913,-167.308"/>
<polygon fill="#d95f02" stroke="#d95f02" stroke-width="3" points="714.4789,-170.8079 724.472,-167.2882 714.4651,-163.8079 714.4789,-170.8079"/>
</g>
<!-- x11&#45;&gt;n6 -->
<g id="edge23" class="edge">
<title>x11:e&#45;&gt;n6:w</title>
<path fill="none" stroke="#7570b3" d="M227.8845,-63.2882C429.3161,-63.2882 526.6557,41.8371 680.4156,-88.2882 743.1041,-141.3407 651.2225,-264.1223 718.4292,-274.5759"/>
<polygon fill="#7570b3" stroke="#7570b3" points="718.2494,-278.0719 728.472,-275.2882 718.7447,-271.0894 718.2494,-278.0719"/>
</g>
<!-- x12&#45;&gt;n4 -->
<g id="edge19" class="edge">
<title>x12:e&#45;&gt;n4:w</title>
<path fill="none" stroke="#666666" d="M227.8845,-117.2882C320.9453,-117.2882 346.7238,-115.4301 434.9224,-115.2958"/>
<polygon fill="#666666" stroke="#666666" points="435.114,-118.7958 445.1114,-115.2882 435.1087,-111.7958 435.114,-118.7958"/>
</g>
<!-- x13&#45;&gt;n3 -->
<g id="edge17" class="edge">
<title>x13:e&#45;&gt;n3:w</title>
<path fill="none" stroke="#1b9e77" d="M589.7635,-537.2882C632.952,-537.2882 651.0314,-533.9396 680.4156,-502.2882 715.3715,-464.6352 668.7303,-394.1393 706.4053,-384.412"/>
<polygon fill="#1b9e77" stroke="#1b9e77" points="706.922,-387.8761 716.472,-383.2882 706.1454,-380.9193 706.922,-387.8761"/>
</g>
</g>
</svg>
