<?xml version="1.0" encoding="UTF-8" standalone="no"?>
<!DOCTYPE svg PUBLIC "-//W3C//DTD SVG 1.1//EN"
 "http://www.w3.org/Graphics/SVG/1.1/DTD/svg11.dtd">
<!-- Generated by graphviz version 2.40.1 (0)
 -->
<!-- Title: SPISlave Pages: 1 -->
<svg width="1506pt" height="620pt"
 viewBox="0.00 0.00 1505.65 620.00" xmlns="http://www.w3.org/2000/svg" xmlns:xlink="http://www.w3.org/1999/xlink">
<g id="graph0" class="graph" transform="scale(1 1) rotate(0) translate(4 616)">
<title>SPISlave</title>
<polygon fill="#ffffff" stroke="transparent" points="-4,4 -4,-616 1501.6463,-616 1501.6463,4 -4,4"/>
<text text-anchor="middle" x="748.8232" y="-7.8" font-family="Times,serif" font-size="14.00" fill="#000000">SPISlave</text>
<!-- n1 -->
<g id="node1" class="node">
<title>n1</title>
<polygon fill="none" stroke="#000000" points="106.0137,-340.5442 106.0137,-355.4558 84.2978,-366 53.5868,-366 31.8708,-355.4558 31.8708,-340.5442 53.5868,-330 84.2978,-330 106.0137,-340.5442"/>
<text text-anchor="middle" x="68.9423" y="-344.3" font-family="Times,serif" font-size="14.00" fill="#000000">clock</text>
</g>
<!-- c33 -->
<g id="node23" class="node">
<title>c33</title>
<polygon fill="none" stroke="#000000" points="612.4771,-152.5 612.4771,-313.5 903.4771,-313.5 903.4771,-152.5 612.4771,-152.5"/>
<text text-anchor="middle" x="662.4771" y="-298.3" font-family="Times,serif" font-size="14.00" fill="#000000">i_Clk</text>
<polyline fill="none" stroke="#000000" points="612.4771,-290.5 712.4771,-290.5 "/>
<text text-anchor="middle" x="662.4771" y="-275.3" font-family="Times,serif" font-size="14.00" fill="#000000">i_Rst_L</text>
<polyline fill="none" stroke="#000000" points="612.4771,-267.5 712.4771,-267.5 "/>
<text text-anchor="middle" x="662.4771" y="-252.3" font-family="Times,serif" font-size="14.00" fill="#000000">i_SPI_CS_n</text>
<polyline fill="none" stroke="#000000" points="612.4771,-244.5 712.4771,-244.5 "/>
<text text-anchor="middle" x="662.4771" y="-229.3" font-family="Times,serif" font-size="14.00" fill="#000000">i_SPI_Clk</text>
<polyline fill="none" stroke="#000000" points="612.4771,-221.5 712.4771,-221.5 "/>
<text text-anchor="middle" x="662.4771" y="-206.3" font-family="Times,serif" font-size="14.00" fill="#000000">i_SPI_MOSI</text>
<polyline fill="none" stroke="#000000" points="612.4771,-198.5 712.4771,-198.5 "/>
<text text-anchor="middle" x="662.4771" y="-183.3" font-family="Times,serif" font-size="14.00" fill="#000000">i_TX_Byte</text>
<polyline fill="none" stroke="#000000" points="612.4771,-175.5 712.4771,-175.5 "/>
<text text-anchor="middle" x="662.4771" y="-160.3" font-family="Times,serif" font-size="14.00" fill="#000000">i_TX_DV</text>
<polyline fill="none" stroke="#000000" points="712.4771,-152.5 712.4771,-313.5 "/>
<text text-anchor="middle" x="755.9771" y="-236.8" font-family="Times,serif" font-size="14.00" fill="#000000">spi</text>
<text text-anchor="middle" x="755.9771" y="-221.8" font-family="Times,serif" font-size="14.00" fill="#000000">SPI_Slave</text>
<polyline fill="none" stroke="#000000" points="799.4771,-152.5 799.4771,-313.5 "/>
<text text-anchor="middle" x="851.4771" y="-283.3" font-family="Times,serif" font-size="14.00" fill="#000000">o_RX_Byte</text>
<polyline fill="none" stroke="#000000" points="799.4771,-260.5 903.4771,-260.5 "/>
<text text-anchor="middle" x="851.4771" y="-229.8" font-family="Times,serif" font-size="14.00" fill="#000000">o_RX_DV</text>
<polyline fill="none" stroke="#000000" points="799.4771,-206.5 903.4771,-206.5 "/>
<text text-anchor="middle" x="851.4771" y="-175.8" font-family="Times,serif" font-size="14.00" fill="#000000">o_SPI_MISO</text>
</g>
<!-- n1&#45;&gt;c33 -->
<g id="edge1" class="edge">
<title>n1:e&#45;&gt;c33:w</title>
<path fill="none" stroke="#e7298a" d="M105.9423,-348C158.4318,-348 524.249,-311.2319 576.4771,-306 588.4909,-304.7965 593.6786,-303.1483 602.3132,-302.3994"/>
<polygon fill="#e7298a" stroke="#e7298a" points="602.6223,-305.89 612.4771,-302 602.3474,-298.8954 602.6223,-305.89"/>
</g>
<!-- x5 -->
<g id="node27" class="node">
<title>x5</title>
<path fill="none" stroke="#000000" d="M254.5287,-389C254.5287,-389 224.5287,-389 224.5287,-389 218.5287,-389 212.5287,-383 212.5287,-377 212.5287,-377 212.5287,-365 212.5287,-365 212.5287,-359 218.5287,-353 224.5287,-353 224.5287,-353 254.5287,-353 254.5287,-353 260.5287,-353 266.5287,-359 266.5287,-365 266.5287,-365 266.5287,-377 266.5287,-377 266.5287,-383 260.5287,-389 254.5287,-389"/>
<text text-anchor="middle" x="239.5287" y="-367.3" font-family="Times,serif" font-size="14.00" fill="#000000">BUF</text>
</g>
<!-- n1&#45;&gt;x5 -->
<g id="edge2" class="edge">
<title>n1:e&#45;&gt;x5:w</title>
<path fill="none" stroke="#e7298a" d="M105.9423,-348C150.8076,-348 162.4186,-367.7126 202.3478,-370.6387"/>
<polygon fill="#e7298a" stroke="#e7298a" points="202.4108,-374.1431 212.5287,-371 202.6592,-367.1475 202.4108,-374.1431"/>
</g>
<!-- n2 -->
<g id="node2" class="node">
<title>n2</title>
<polygon fill="none" stroke="#000000" points="1468.6353,-279.5442 1468.6353,-294.4558 1429.5845,-305 1374.3582,-305 1335.3073,-294.4558 1335.3073,-279.5442 1374.3582,-269 1429.5845,-269 1468.6353,-279.5442"/>
<text text-anchor="middle" x="1401.9713" y="-283.3" font-family="Times,serif" font-size="14.00" fill="#000000">io_RX_data</text>
</g>
<!-- n3 -->
<g id="node3" class="node">
<title>n3</title>
<polygon fill="none" stroke="#000000" points="1497.8216,-225.5442 1497.8216,-240.4558 1441.6738,-251 1362.2688,-251 1306.121,-240.4558 1306.121,-225.5442 1362.2688,-215 1441.6738,-215 1497.8216,-225.5442"/>
<text text-anchor="middle" x="1401.9713" y="-229.3" font-family="Times,serif" font-size="14.00" fill="#000000">io_RX_data_valid</text>
</g>
<!-- n4 -->
<g id="node4" class="node">
<title>n4</title>
<polygon fill="none" stroke="#000000" points="128.1292,-143.5442 128.1292,-158.4558 93.4583,-169 44.4263,-169 9.7554,-158.4558 9.7554,-143.5442 44.4263,-133 93.4583,-133 128.1292,-143.5442"/>
<text text-anchor="middle" x="68.9423" y="-147.3" font-family="Times,serif" font-size="14.00" fill="#000000">io_spi_clk</text>
</g>
<!-- n4&#45;&gt;c33 -->
<g id="edge19" class="edge">
<title>n4:e&#45;&gt;c33:w</title>
<path fill="none" stroke="#e7298a" d="M127.9423,-151C342.9405,-151 392.5335,-230.4575 602.3629,-232.9406"/>
<polygon fill="#e7298a" stroke="#e7298a" points="602.4567,-236.4411 612.4771,-233 602.4979,-229.4412 602.4567,-236.4411"/>
</g>
<!-- x6 -->
<g id="node28" class="node">
<title>x6</title>
<path fill="none" stroke="#000000" d="M254.5287,-85C254.5287,-85 224.5287,-85 224.5287,-85 218.5287,-85 212.5287,-79 212.5287,-73 212.5287,-73 212.5287,-61 212.5287,-61 212.5287,-55 218.5287,-49 224.5287,-49 224.5287,-49 254.5287,-49 254.5287,-49 260.5287,-49 266.5287,-55 266.5287,-61 266.5287,-61 266.5287,-73 266.5287,-73 266.5287,-79 260.5287,-85 254.5287,-85"/>
<text text-anchor="middle" x="239.5287" y="-63.3" font-family="Times,serif" font-size="14.00" fill="#000000">BUF</text>
</g>
<!-- n4&#45;&gt;x6 -->
<g id="edge20" class="edge">
<title>n4:e&#45;&gt;x6:w</title>
<path fill="none" stroke="#e7298a" d="M127.9423,-151C177.1989,-151 162.1854,-78.3972 202.404,-68.1875"/>
<polygon fill="#e7298a" stroke="#e7298a" points="203.0045,-71.6411 212.5287,-67 202.1891,-64.6888 203.0045,-71.6411"/>
</g>
<!-- n5 -->
<g id="node5" class="node">
<title>n5</title>
<polygon fill="none" stroke="#000000" points="135.6063,-419.5442 135.6063,-434.4558 96.5554,-445 41.3291,-445 2.2783,-434.4558 2.2783,-419.5442 41.3291,-409 96.5554,-409 135.6063,-419.5442"/>
<text text-anchor="middle" x="68.9423" y="-423.3" font-family="Times,serif" font-size="14.00" fill="#000000">io_spi_cs_n</text>
</g>
<!-- c22 -->
<g id="node20" class="node">
<title>c22</title>
<polygon fill="none" stroke="#000000" points="189.0287,-408 189.0287,-446 290.0287,-446 290.0287,-408 189.0287,-408"/>
<text text-anchor="middle" x="202.0287" y="-423.3" font-family="Times,serif" font-size="14.00" fill="#000000">A</text>
<polyline fill="none" stroke="#000000" points="215.0287,-408 215.0287,-446 "/>
<text text-anchor="middle" x="239.5287" y="-430.8" font-family="Times,serif" font-size="14.00" fill="#000000">$62</text>
<text text-anchor="middle" x="239.5287" y="-415.8" font-family="Times,serif" font-size="14.00" fill="#000000">$not</text>
<polyline fill="none" stroke="#000000" points="264.0287,-408 264.0287,-446 "/>
<text text-anchor="middle" x="277.0287" y="-423.3" font-family="Times,serif" font-size="14.00" fill="#000000">Y</text>
</g>
<!-- n5&#45;&gt;c22 -->
<g id="edge21" class="edge">
<title>n5:e&#45;&gt;c22:w</title>
<path fill="none" stroke="#1b9e77" d="M135.9423,-427C155.4796,-427 162.7679,-427 178.2861,-427"/>
<polygon fill="#1b9e77" stroke="#1b9e77" points="178.5287,-430.5001 188.5287,-427 178.5287,-423.5001 178.5287,-430.5001"/>
</g>
<!-- n6 -->
<g id="node6" class="node">
<title>n6</title>
<polygon fill="none" stroke="#000000" points="1470.8559,-171.5442 1470.8559,-186.4558 1430.5043,-197 1373.4384,-197 1333.0867,-186.4558 1333.0867,-171.5442 1373.4384,-161 1430.5043,-161 1470.8559,-171.5442"/>
<text text-anchor="middle" x="1401.9713" y="-175.3" font-family="Times,serif" font-size="14.00" fill="#000000">io_spi_miso</text>
</g>
<!-- n7 -->
<g id="node7" class="node">
<title>n7</title>
<polygon fill="none" stroke="#000000" points="137.8268,-212.5442 137.8268,-227.4558 97.4752,-238 40.4093,-238 .0577,-227.4558 .0577,-212.5442 40.4093,-202 97.4752,-202 137.8268,-212.5442"/>
<text text-anchor="middle" x="68.9423" y="-216.3" font-family="Times,serif" font-size="14.00" fill="#000000">io_spi_mosi</text>
</g>
<!-- n7&#45;&gt;c33 -->
<g id="edge23" class="edge">
<title>n7:e&#45;&gt;c33:w</title>
<path fill="none" stroke="#7570b3" d="M137.8845,-220C345.4619,-220 399.7628,-210.3197 602.4006,-210.0077"/>
<polygon fill="#7570b3" stroke="#7570b3" points="602.4799,-213.5077 612.4771,-210 602.4744,-206.5077 602.4799,-213.5077"/>
</g>
<!-- x7 -->
<g id="node29" class="node">
<title>x7</title>
<path fill="none" stroke="#000000" d="M254.5287,-288C254.5287,-288 224.5287,-288 224.5287,-288 218.5287,-288 212.5287,-282 212.5287,-276 212.5287,-276 212.5287,-264 212.5287,-264 212.5287,-258 218.5287,-252 224.5287,-252 224.5287,-252 254.5287,-252 254.5287,-252 260.5287,-252 266.5287,-258 266.5287,-264 266.5287,-264 266.5287,-276 266.5287,-276 266.5287,-282 260.5287,-288 254.5287,-288"/>
<text text-anchor="middle" x="239.5287" y="-266.3" font-family="Times,serif" font-size="14.00" fill="#000000">BUF</text>
</g>
<!-- n7&#45;&gt;x7 -->
<g id="edge24" class="edge">
<title>n7:e&#45;&gt;x7:w</title>
<path fill="none" stroke="#7570b3" d="M137.8845,-220C174.0713,-220 173.1798,-261.0645 202.4143,-268.764"/>
<polygon fill="#7570b3" stroke="#7570b3" points="202.178,-272.2611 212.5287,-270 203.0271,-265.3128 202.178,-272.2611"/>
</g>
<!-- n8 -->
<g id="node8" class="node">
<title>n8</title>
<polygon fill="none" stroke="#000000" points="106.0137,-476.5442 106.0137,-491.4558 84.2978,-502 53.5868,-502 31.8708,-491.4558 31.8708,-476.5442 53.5868,-466 84.2978,-466 106.0137,-476.5442"/>
<text text-anchor="middle" x="68.9423" y="-480.3" font-family="Times,serif" font-size="14.00" fill="#000000">reset</text>
</g>
<!-- c21 -->
<g id="node19" class="node">
<title>c21</title>
<polygon fill="none" stroke="#000000" points="189.0287,-465 189.0287,-503 290.0287,-503 290.0287,-465 189.0287,-465"/>
<text text-anchor="middle" x="202.0287" y="-480.3" font-family="Times,serif" font-size="14.00" fill="#000000">A</text>
<polyline fill="none" stroke="#000000" points="215.0287,-465 215.0287,-503 "/>
<text text-anchor="middle" x="239.5287" y="-487.8" font-family="Times,serif" font-size="14.00" fill="#000000">$61</text>
<text text-anchor="middle" x="239.5287" y="-472.8" font-family="Times,serif" font-size="14.00" fill="#000000">$not</text>
<polyline fill="none" stroke="#000000" points="264.0287,-465 264.0287,-503 "/>
<text text-anchor="middle" x="277.0287" y="-480.3" font-family="Times,serif" font-size="14.00" fill="#000000">Y</text>
</g>
<!-- n8&#45;&gt;c21 -->
<g id="edge25" class="edge">
<title>n8:e&#45;&gt;c21:w</title>
<path fill="none" stroke="#7570b3" d="M105.9423,-484C139.0629,-484 149.7688,-484 178.5116,-484"/>
<polygon fill="#7570b3" stroke="#7570b3" points="178.5287,-487.5001 188.5287,-484 178.5287,-480.5001 178.5287,-487.5001"/>
</g>
<!-- n9 -->
<g id="node9" class="node">
<title>n9</title>
<polygon fill="none" stroke="#000000" points="458.825,-389 386.098,-371 458.825,-353 531.552,-371 458.825,-389"/>
<text text-anchor="middle" x="458.825" y="-367.3" font-family="Times,serif" font-size="14.00" fill="#000000">spi_i_Clk</text>
</g>
<!-- n10 -->
<g id="node10" class="node">
<title>n10</title>
<polygon fill="none" stroke="#000000" points="458.825,-501 371.6848,-483 458.825,-465 545.9653,-483 458.825,-501"/>
<text text-anchor="middle" x="458.825" y="-479.3" font-family="Times,serif" font-size="14.00" fill="#000000">spi_i_Rst_L</text>
</g>
<!-- n10&#45;&gt;c33 -->
<g id="edge4" class="edge">
<title>n10:e&#45;&gt;c33:w</title>
<path fill="none" stroke="#e7298a" d="M545.825,-483C564.8872,-483 567.3368,-469.7279 576.4771,-453 593.6354,-421.5982 576.8317,-304.2079 602.919,-282.4732"/>
<polygon fill="#e7298a" stroke="#e7298a" points="604.2738,-285.7049 612.4771,-279 601.883,-279.1257 604.2738,-285.7049"/>
</g>
<!-- n11 -->
<g id="node11" class="node">
<title>n11</title>
<polygon fill="none" stroke="#000000" points="458.825,-444 345.7123,-426 458.825,-408 571.9377,-426 458.825,-444"/>
<text text-anchor="middle" x="458.825" y="-422.3" font-family="Times,serif" font-size="14.00" fill="#000000">spi_i_SPI_CS_n</text>
</g>
<!-- n11&#45;&gt;c33 -->
<g id="edge6" class="edge">
<title>n11:e&#45;&gt;c33:w</title>
<path fill="none" stroke="#7570b3" d="M571.825,-426C645.7175,-426 545.5357,-272.1963 602.4288,-257.1764"/>
<polygon fill="#7570b3" stroke="#7570b3" points="602.952,-260.6391 612.4771,-256 602.138,-253.6866 602.952,-260.6391"/>
</g>
<!-- n12 -->
<g id="node12" class="node">
<title>n12</title>
<polygon fill="none" stroke="#000000" points="458.825,-59 357.6103,-41 458.825,-23 560.0397,-41 458.825,-59"/>
<text text-anchor="middle" x="458.825" y="-37.3" font-family="Times,serif" font-size="14.00" fill="#000000">spi_i_SPI_Clk</text>
</g>
<!-- n13 -->
<g id="node13" class="node">
<title>n13</title>
<polygon fill="none" stroke="#000000" points="458.825,-297 341.0206,-279 458.825,-261 576.6295,-279 458.825,-297"/>
<text text-anchor="middle" x="458.825" y="-275.3" font-family="Times,serif" font-size="14.00" fill="#000000">spi_i_SPI_MOSI</text>
</g>
<!-- n14 -->
<g id="node14" class="node">
<title>n14</title>
<polygon fill="none" stroke="#000000" points="757.9771,-558 653.4088,-540 757.9771,-522 862.5454,-540 757.9771,-558"/>
<text text-anchor="middle" x="757.9771" y="-536.3" font-family="Times,serif" font-size="14.00" fill="#000000">spi_i_TX_Byte</text>
</g>
<!-- n15 -->
<g id="node15" class="node">
<title>n15</title>
<polygon fill="none" stroke="#000000" points="757.9771,-612 664.4684,-594 757.9771,-576 851.4859,-594 757.9771,-612"/>
<text text-anchor="middle" x="757.9771" y="-590.3" font-family="Times,serif" font-size="14.00" fill="#000000">spi_i_TX_DV</text>
</g>
<!-- n16 -->
<g id="node16" class="node">
<title>n16</title>
<polygon fill="none" stroke="#000000" points="1059.8867,-305 950.6272,-287 1059.8867,-269 1169.1463,-287 1059.8867,-305"/>
<text text-anchor="middle" x="1059.8867" y="-283.3" font-family="Times,serif" font-size="14.00" fill="#000000">spi_o_RX_Byte</text>
</g>
<!-- x2 -->
<g id="node24" class="node">
<title>x2</title>
<path fill="none" stroke="#000000" d="M1258.2963,-305C1258.2963,-305 1228.2963,-305 1228.2963,-305 1222.2963,-305 1216.2963,-299 1216.2963,-293 1216.2963,-293 1216.2963,-281 1216.2963,-281 1216.2963,-275 1222.2963,-269 1228.2963,-269 1228.2963,-269 1258.2963,-269 1258.2963,-269 1264.2963,-269 1270.2963,-275 1270.2963,-281 1270.2963,-281 1270.2963,-293 1270.2963,-293 1270.2963,-299 1264.2963,-305 1258.2963,-305"/>
<text text-anchor="middle" x="1243.2963" y="-283.3" font-family="Times,serif" font-size="14.00" fill="#000000">BUF</text>
</g>
<!-- n16&#45;&gt;x2 -->
<g id="edge12" class="edge">
<title>n16:e&#45;&gt;x2:w</title>
<path fill="none" stroke="#7570b3" stroke-width="3" d="M1168.8867,-287C1186.1715,-287 1192.8221,-287 1206.2852,-287"/>
<polygon fill="#7570b3" stroke="#7570b3" stroke-width="3" points="1206.2964,-290.5001 1216.2963,-287 1206.2963,-283.5001 1206.2964,-290.5001"/>
</g>
<!-- n17 -->
<g id="node17" class="node">
<title>n17</title>
<polygon fill="none" stroke="#000000" points="1059.8867,-251 961.6869,-233 1059.8867,-215 1158.0866,-233 1059.8867,-251"/>
<text text-anchor="middle" x="1059.8867" y="-229.3" font-family="Times,serif" font-size="14.00" fill="#000000">spi_o_RX_DV</text>
</g>
<!-- x3 -->
<g id="node25" class="node">
<title>x3</title>
<path fill="none" stroke="#000000" d="M1258.2963,-251C1258.2963,-251 1228.2963,-251 1228.2963,-251 1222.2963,-251 1216.2963,-245 1216.2963,-239 1216.2963,-239 1216.2963,-227 1216.2963,-227 1216.2963,-221 1222.2963,-215 1228.2963,-215 1228.2963,-215 1258.2963,-215 1258.2963,-215 1264.2963,-215 1270.2963,-221 1270.2963,-227 1270.2963,-227 1270.2963,-239 1270.2963,-239 1270.2963,-245 1264.2963,-251 1258.2963,-251"/>
<text text-anchor="middle" x="1243.2963" y="-229.3" font-family="Times,serif" font-size="14.00" fill="#000000">BUF</text>
</g>
<!-- n17&#45;&gt;x3 -->
<g id="edge14" class="edge">
<title>n17:e&#45;&gt;x3:w</title>
<path fill="none" stroke="#1b9e77" d="M1157.8867,-233C1179.9932,-233 1187.9808,-233 1205.8957,-233"/>
<polygon fill="#1b9e77" stroke="#1b9e77" points="1206.2964,-236.5001 1216.2963,-233 1206.2963,-229.5001 1206.2964,-236.5001"/>
</g>
<!-- n18 -->
<g id="node18" class="node">
<title>n18</title>
<polygon fill="none" stroke="#000000" points="1059.8867,-197 939.5675,-179 1059.8867,-161 1180.206,-179 1059.8867,-197"/>
<text text-anchor="middle" x="1059.8867" y="-175.3" font-family="Times,serif" font-size="14.00" fill="#000000">spi_o_SPI_MISO</text>
</g>
<!-- x4 -->
<g id="node26" class="node">
<title>x4</title>
<path fill="none" stroke="#000000" d="M1258.2963,-197C1258.2963,-197 1228.2963,-197 1228.2963,-197 1222.2963,-197 1216.2963,-191 1216.2963,-185 1216.2963,-185 1216.2963,-173 1216.2963,-173 1216.2963,-167 1222.2963,-161 1228.2963,-161 1228.2963,-161 1258.2963,-161 1258.2963,-161 1264.2963,-161 1270.2963,-167 1270.2963,-173 1270.2963,-173 1270.2963,-185 1270.2963,-185 1270.2963,-191 1264.2963,-197 1258.2963,-197"/>
<text text-anchor="middle" x="1243.2963" y="-175.3" font-family="Times,serif" font-size="14.00" fill="#000000">BUF</text>
</g>
<!-- n18&#45;&gt;x4 -->
<g id="edge16" class="edge">
<title>n18:e&#45;&gt;x4:w</title>
<path fill="none" stroke="#e6ab02" d="M1180.2963,-179C1192.2963,-179 1197.5463,-179 1206.1713,-179"/>
<polygon fill="#e6ab02" stroke="#e6ab02" points="1206.2964,-182.5001 1216.2963,-179 1206.2963,-175.5001 1206.2964,-182.5001"/>
</g>
<!-- c21&#45;&gt;n10 -->
<g id="edge3" class="edge">
<title>c21:e&#45;&gt;n10:w</title>
<path fill="none" stroke="#e7298a" d="M290.5287,-484C322.9932,-484 333.5773,-483.1928 361.5973,-483.0288"/>
<polygon fill="#e7298a" stroke="#e7298a" points="361.835,-486.5283 371.825,-483 361.8151,-479.5283 361.835,-486.5283"/>
</g>
<!-- c22&#45;&gt;n11 -->
<g id="edge5" class="edge">
<title>c22:e&#45;&gt;n11:w</title>
<path fill="none" stroke="#7570b3" d="M290.5287,-427C311.2682,-427 318.8771,-426.2881 335.5132,-426.0656"/>
<polygon fill="#7570b3" stroke="#7570b3" points="335.8475,-429.5637 345.825,-426 335.8029,-422.5638 335.8475,-429.5637"/>
</g>
<!-- v0 -->
<g id="node21" class="node">
<title>v0</title>
<ellipse fill="none" stroke="#000000" cx="458.825" cy="-149" rx="65.7887" ry="18"/>
<text text-anchor="middle" x="458.825" y="-145.3" font-family="Times,serif" font-size="14.00" fill="#000000">8&#39;00000000</text>
</g>
<!-- v0&#45;&gt;c33 -->
<g id="edge27" class="edge">
<title>v0:e&#45;&gt;c33:w</title>
<path fill="none" stroke="#a6761d" stroke-width="3" d="M524.825,-149C563.636,-149 569.2542,-180.7494 602.3602,-186.2063"/>
<polygon fill="#a6761d" stroke="#a6761d" stroke-width="3" points="602.234,-189.7071 612.4771,-187 602.7815,-182.7285 602.234,-189.7071"/>
</g>
<!-- v1 -->
<g id="node22" class="node">
<title>v1</title>
<ellipse fill="none" stroke="#000000" cx="458.825" cy="-95" rx="27" ry="18"/>
<text text-anchor="middle" x="458.825" y="-91.3" font-family="Times,serif" font-size="14.00" fill="#000000">1&#39;0</text>
</g>
<!-- v1&#45;&gt;c33 -->
<g id="edge28" class="edge">
<title>v1:e&#45;&gt;c33:w</title>
<path fill="none" stroke="#a6761d" d="M485.825,-95C527.8639,-95 541.2172,-99.1088 576.4771,-122 593.5538,-133.0864 590.1752,-154.6142 602.472,-161.6868"/>
<polygon fill="#a6761d" stroke="#a6761d" points="601.9457,-165.1574 612.4771,-164 603.5226,-158.3373 601.9457,-165.1574"/>
</g>
<!-- c33&#45;&gt;n16 -->
<g id="edge11" class="edge">
<title>c33:e&#45;&gt;n16:w</title>
<path fill="none" stroke="#7570b3" stroke-width="3" d="M903.4771,-287C920.7619,-287 927.4125,-287 940.8756,-287"/>
<polygon fill="#7570b3" stroke="#7570b3" stroke-width="3" points="940.8868,-290.5001 950.8867,-287 940.8867,-283.5001 940.8868,-290.5001"/>
</g>
<!-- c33&#45;&gt;n17 -->
<g id="edge13" class="edge">
<title>c33:e&#45;&gt;n17:w</title>
<path fill="none" stroke="#1b9e77" d="M903.4771,-234C925.5868,-234 933.5694,-233.2748 951.4851,-233.0596"/>
<polygon fill="#1b9e77" stroke="#1b9e77" points="951.907,-236.5573 961.8867,-233 951.8668,-229.5574 951.907,-236.5573"/>
</g>
<!-- c33&#45;&gt;n18 -->
<g id="edge15" class="edge">
<title>c33:e&#45;&gt;n18:w</title>
<path fill="none" stroke="#e6ab02" d="M903.4771,-179C915.4771,-179 920.7271,-179 929.3521,-179"/>
<polygon fill="#e6ab02" stroke="#e6ab02" points="929.4772,-182.5001 939.4771,-179 929.4771,-175.5001 929.4772,-182.5001"/>
</g>
<!-- x2&#45;&gt;n2 -->
<g id="edge17" class="edge">
<title>x2:e&#45;&gt;n2:w</title>
<path fill="none" stroke="#a6761d" stroke-width="3" d="M1270.2963,-287C1295.3354,-287 1304.016,-287 1324.8376,-287"/>
<polygon fill="#a6761d" stroke="#a6761d" stroke-width="3" points="1324.9714,-290.5001 1334.9713,-287 1324.9713,-283.5001 1324.9714,-290.5001"/>
</g>
<!-- x3&#45;&gt;n3 -->
<g id="edge18" class="edge">
<title>x3:e&#45;&gt;n3:w</title>
<path fill="none" stroke="#7570b3" d="M1270.2963,-233C1282.2963,-233 1287.5463,-233 1296.1713,-233"/>
<polygon fill="#7570b3" stroke="#7570b3" points="1296.2964,-236.5001 1306.2963,-233 1296.2963,-229.5001 1296.2964,-236.5001"/>
</g>
<!-- x4&#45;&gt;n6 -->
<g id="edge22" class="edge">
<title>x4:e&#45;&gt;n6:w</title>
<path fill="none" stroke="#666666" d="M1270.2963,-179C1294.4523,-179 1302.8975,-179 1322.8803,-179"/>
<polygon fill="#666666" stroke="#666666" points="1322.9714,-182.5001 1332.9713,-179 1322.9713,-175.5001 1322.9714,-182.5001"/>
</g>
<!-- x5&#45;&gt;n9 -->
<g id="edge26" class="edge">
<title>x5:e&#45;&gt;n9:w</title>
<path fill="none" stroke="#d95f02" d="M266.5287,-371C316.0284,-371 330.8686,-371 375.7651,-371"/>
<polygon fill="#d95f02" stroke="#d95f02" points="375.825,-374.5001 385.825,-371 375.825,-367.5001 375.825,-374.5001"/>
</g>
<!-- x6&#45;&gt;n12 -->
<g id="edge7" class="edge">
<title>x6:e&#45;&gt;n12:w</title>
<path fill="none" stroke="#e6ab02" d="M266.5287,-67C305.0925,-67 314.1861,-45.2767 347.6847,-41.543"/>
<polygon fill="#e6ab02" stroke="#e6ab02" points="348.0265,-45.0299 357.825,-41 347.6521,-38.0399 348.0265,-45.0299"/>
</g>
<!-- x7&#45;&gt;n13 -->
<g id="edge8" class="edge">
<title>x7:e&#45;&gt;n13:w</title>
<path fill="none" stroke="#66a61e" d="M266.5287,-270C296.2894,-270 305.742,-277.1389 331.0603,-278.7006"/>
<polygon fill="#66a61e" stroke="#66a61e" points="331.0736,-282.2024 341.1729,-279 331.2809,-275.2055 331.0736,-282.2024"/>
</g>
<!-- v8 -->
<g id="node30" class="node">
<title>v8</title>
<ellipse fill="none" stroke="#000000" cx="239.5287" cy="-540" rx="65.7887" ry="18"/>
<text text-anchor="middle" x="239.5287" y="-536.3" font-family="Times,serif" font-size="14.00" fill="#000000">8&#39;00000000</text>
</g>
<!-- x9 -->
<g id="node31" class="node">
<title>x9</title>
<path fill="none" stroke="#000000" d="M473.825,-558C473.825,-558 443.825,-558 443.825,-558 437.825,-558 431.825,-552 431.825,-546 431.825,-546 431.825,-534 431.825,-534 431.825,-528 437.825,-522 443.825,-522 443.825,-522 473.825,-522 473.825,-522 479.825,-522 485.825,-528 485.825,-534 485.825,-534 485.825,-546 485.825,-546 485.825,-552 479.825,-558 473.825,-558"/>
<text text-anchor="middle" x="458.825" y="-536.3" font-family="Times,serif" font-size="14.00" fill="#000000">BUF</text>
</g>
<!-- v8&#45;&gt;x9 -->
<g id="edge30" class="edge">
<title>v8:e&#45;&gt;x9:w</title>
<path fill="none" stroke="#e7298a" stroke-width="3" d="M305.1729,-540C357.9446,-540 373.6112,-540 421.7448,-540"/>
<polygon fill="#e7298a" stroke="#e7298a" stroke-width="3" points="421.825,-543.5001 431.825,-540 421.825,-536.5001 421.825,-543.5001"/>
</g>
<!-- x9&#45;&gt;n14 -->
<g id="edge9" class="edge">
<title>x9:e&#45;&gt;n14:w</title>
<path fill="none" stroke="#d95f02" stroke-width="3" d="M485.825,-540C556.6325,-540 576.8237,-540 642.8859,-540"/>
<polygon fill="#d95f02" stroke="#d95f02" stroke-width="3" points="642.9772,-543.5001 652.9771,-540 642.9771,-536.5001 642.9772,-543.5001"/>
</g>
<!-- v10 -->
<g id="node32" class="node">
<title>v10</title>
<ellipse fill="none" stroke="#000000" cx="239.5287" cy="-594" rx="27" ry="18"/>
<text text-anchor="middle" x="239.5287" y="-590.3" font-family="Times,serif" font-size="14.00" fill="#000000">1&#39;0</text>
</g>
<!-- x11 -->
<g id="node33" class="node">
<title>x11</title>
<path fill="none" stroke="#000000" d="M473.825,-612C473.825,-612 443.825,-612 443.825,-612 437.825,-612 431.825,-606 431.825,-600 431.825,-600 431.825,-588 431.825,-588 431.825,-582 437.825,-576 443.825,-576 443.825,-576 473.825,-576 473.825,-576 479.825,-576 485.825,-582 485.825,-588 485.825,-588 485.825,-600 485.825,-600 485.825,-606 479.825,-612 473.825,-612"/>
<text text-anchor="middle" x="458.825" y="-590.3" font-family="Times,serif" font-size="14.00" fill="#000000">BUF</text>
</g>
<!-- v10&#45;&gt;x11 -->
<g id="edge29" class="edge">
<title>v10:e&#45;&gt;x11:w</title>
<path fill="none" stroke="#e7298a" d="M266.5287,-594C336.4066,-594 356.435,-594 421.4448,-594"/>
<polygon fill="#e7298a" stroke="#e7298a" points="421.825,-597.5001 431.825,-594 421.825,-590.5001 421.825,-597.5001"/>
</g>
<!-- x11&#45;&gt;n15 -->
<g id="edge10" class="edge">
<title>x11:e&#45;&gt;n15:w</title>
<path fill="none" stroke="#666666" d="M485.825,-594C561.4469,-594 582.9002,-594 653.6553,-594"/>
<polygon fill="#666666" stroke="#666666" points="653.9772,-597.5001 663.9771,-594 653.9771,-590.5001 653.9772,-597.5001"/>
</g>
</g>
</svg>
