<?xml version="1.0" encoding="UTF-8" standalone="no"?>
<!DOCTYPE svg PUBLIC "-//W3C//DTD SVG 1.1//EN"
 "http://www.w3.org/Graphics/SVG/1.1/DTD/svg11.dtd">
<!-- Generated by graphviz version 2.43.20190912.0211 (20190912.0211)
 -->
<!-- Title: SPISlave Pages: 1 -->
<svg width="1945pt" height="612pt"
 viewBox="0.00 0.00 1944.70 612.29" xmlns="http://www.w3.org/2000/svg" xmlns:xlink="http://www.w3.org/1999/xlink">
<g id="graph0" class="graph" transform="scale(1 1) rotate(0) translate(4 608.29)">
<title>SPISlave</title>
<polygon fill="white" stroke="transparent" points="-4,4 -4,-608.29 1940.7,-608.29 1940.7,4 -4,4"/>
<text text-anchor="middle" x="968.35" y="-7.8" font-family="Times,serif" font-size="14.00">SPISlave</text>
<!-- n3 -->
<g id="node1" class="node">
<title>n3</title>
<polygon fill="none" stroke="black" points="829.47,-401.29 716.36,-383.29 829.47,-365.29 942.58,-383.29 829.47,-401.29"/>
<text text-anchor="middle" x="829.47" y="-379.59" font-family="Times,serif" font-size="14.00">spi_i_SPI_CS_n</text>
</g>
<!-- c36 -->
<g id="node23" class="node">
<title>c36</title>
<polygon fill="none" stroke="black" points="978.53,-202.79 978.53,-363.79 1342.53,-363.79 1342.53,-202.79 978.53,-202.79"/>
<text text-anchor="middle" x="1028.53" y="-348.59" font-family="Times,serif" font-size="14.00">i_Clk</text>
<polyline fill="none" stroke="black" points="978.53,-340.79 1078.53,-340.79 "/>
<text text-anchor="middle" x="1028.53" y="-325.59" font-family="Times,serif" font-size="14.00">i_Rst_L</text>
<polyline fill="none" stroke="black" points="978.53,-317.79 1078.53,-317.79 "/>
<text text-anchor="middle" x="1028.53" y="-302.59" font-family="Times,serif" font-size="14.00">i_SPI_CS_n</text>
<polyline fill="none" stroke="black" points="978.53,-294.79 1078.53,-294.79 "/>
<text text-anchor="middle" x="1028.53" y="-279.59" font-family="Times,serif" font-size="14.00">i_SPI_Clk</text>
<polyline fill="none" stroke="black" points="978.53,-271.79 1078.53,-271.79 "/>
<text text-anchor="middle" x="1028.53" y="-256.59" font-family="Times,serif" font-size="14.00">i_SPI_MOSI</text>
<polyline fill="none" stroke="black" points="978.53,-248.79 1078.53,-248.79 "/>
<text text-anchor="middle" x="1028.53" y="-233.59" font-family="Times,serif" font-size="14.00">i_TX_Byte</text>
<polyline fill="none" stroke="black" points="978.53,-225.79 1078.53,-225.79 "/>
<text text-anchor="middle" x="1028.53" y="-210.59" font-family="Times,serif" font-size="14.00">i_TX_DV</text>
<polyline fill="none" stroke="black" points="1078.53,-202.79 1078.53,-363.79 "/>
<text text-anchor="middle" x="1158.53" y="-287.09" font-family="Times,serif" font-size="14.00">spi</text>
<text text-anchor="middle" x="1158.53" y="-272.09" font-family="Times,serif" font-size="14.00">SPI_Slave_nandland</text>
<polyline fill="none" stroke="black" points="1238.53,-202.79 1238.53,-363.79 "/>
<text text-anchor="middle" x="1290.53" y="-333.59" font-family="Times,serif" font-size="14.00">o_RX_Byte</text>
<polyline fill="none" stroke="black" points="1238.53,-310.79 1342.53,-310.79 "/>
<text text-anchor="middle" x="1290.53" y="-280.09" font-family="Times,serif" font-size="14.00">o_RX_DV</text>
<polyline fill="none" stroke="black" points="1238.53,-256.79 1342.53,-256.79 "/>
<text text-anchor="middle" x="1290.53" y="-226.09" font-family="Times,serif" font-size="14.00">o_SPI_MISO</text>
</g>
<!-- n3&#45;&gt;c36 -->
<g id="edge18" class="edge">
<title>n3:e&#45;&gt;c36:w</title>
<path fill="none" stroke="#1b9e77" d="M942.53,-383.29C976.17,-383.29 948.48,-322.21 968.71,-308.85"/>
<polygon fill="#1b9e77" stroke="#1b9e77" points="969.74,-312.2 978.53,-306.29 967.97,-305.43 969.74,-312.2"/>
</g>
<!-- n4 -->
<g id="node2" class="node">
<title>n4</title>
<polygon fill="none" stroke="black" points="562.76,-133.29 444.96,-115.29 562.76,-97.29 680.57,-115.29 562.76,-133.29"/>
<text text-anchor="middle" x="562.76" y="-111.59" font-family="Times,serif" font-size="14.00">spi_i_SPI_MOSI</text>
</g>
<!-- n4&#45;&gt;c36 -->
<g id="edge20" class="edge">
<title>n4:e&#45;&gt;c36:w</title>
<path fill="none" stroke="#666666" d="M680.42,-115.29C797.44,-115.29 852.07,-66.05 942.53,-140.29 982.54,-173.13 931.14,-248.62 968.46,-259.08"/>
<polygon fill="#666666" stroke="#666666" points="968.18,-262.57 978.53,-260.29 969.02,-255.62 968.18,-262.57"/>
</g>
<!-- n5 -->
<g id="node3" class="node">
<title>n5</title>
<polygon fill="none" stroke="black" points="1498.94,-247.29 1378.62,-229.29 1498.94,-211.29 1619.26,-229.29 1498.94,-247.29"/>
<text text-anchor="middle" x="1498.94" y="-225.59" font-family="Times,serif" font-size="14.00">spi_o_SPI_MISO</text>
</g>
<!-- x4 -->
<g id="node26" class="node">
<title>x4</title>
<path fill="none" stroke="black" d="M1697.35,-247.29C1697.35,-247.29 1667.35,-247.29 1667.35,-247.29 1661.35,-247.29 1655.35,-241.29 1655.35,-235.29 1655.35,-235.29 1655.35,-223.29 1655.35,-223.29 1655.35,-217.29 1661.35,-211.29 1667.35,-211.29 1667.35,-211.29 1697.35,-211.29 1697.35,-211.29 1703.35,-211.29 1709.35,-217.29 1709.35,-223.29 1709.35,-223.29 1709.35,-235.29 1709.35,-235.29 1709.35,-241.29 1703.35,-247.29 1697.35,-247.29"/>
<text text-anchor="middle" x="1682.35" y="-225.59" font-family="Times,serif" font-size="14.00">BUF</text>
</g>
<!-- n5&#45;&gt;x4 -->
<g id="edge22" class="edge">
<title>n5:e&#45;&gt;x4:w</title>
<path fill="none" stroke="#7570b3" d="M1619.35,-229.29C1631.35,-229.29 1636.6,-229.29 1645.22,-229.29"/>
<polygon fill="#7570b3" stroke="#7570b3" points="1645.35,-232.79 1655.35,-229.29 1645.35,-225.79 1645.35,-232.79"/>
</g>
<!-- n6 -->
<g id="node4" class="node">
<title>n6</title>
<polygon fill="none" stroke="black" points="829.47,-293.29 728.26,-275.29 829.47,-257.29 930.69,-275.29 829.47,-293.29"/>
<text text-anchor="middle" x="829.47" y="-271.59" font-family="Times,serif" font-size="14.00">spi_i_SPI_Clk</text>
</g>
<!-- n6&#45;&gt;c36 -->
<g id="edge24" class="edge">
<title>n6:e&#45;&gt;c36:w</title>
<path fill="none" stroke="#7570b3" d="M931.47,-275.29C948.87,-275.29 955.12,-280.67 968.51,-282.61"/>
<polygon fill="#7570b3" stroke="#7570b3" points="968.31,-286.1 978.53,-283.29 968.79,-279.12 968.31,-286.1"/>
</g>
<!-- n7 -->
<g id="node5" class="node">
<title>n7</title>
<polygon fill="none" stroke="black" points="829.47,-185.29 724.9,-167.29 829.47,-149.29 934.04,-167.29 829.47,-185.29"/>
<text text-anchor="middle" x="829.47" y="-163.59" font-family="Times,serif" font-size="14.00">spi_i_TX_Byte</text>
</g>
<!-- n7&#45;&gt;c36 -->
<g id="edge26" class="edge">
<title>n7:e&#45;&gt;c36:w</title>
<path fill="none" stroke="#d95f02" stroke-width="3" d="M935.47,-167.29C968,-167.29 947.77,-222.81 968.76,-234.96"/>
<polygon fill="#d95f02" stroke="#d95f02" stroke-width="3" points="967.99,-238.37 978.53,-237.29 969.61,-231.56 967.99,-238.37"/>
</g>
<!-- n8 -->
<g id="node6" class="node">
<title>n8</title>
<polygon fill="none" stroke="black" points="829.47,-239.29 735.96,-221.29 829.47,-203.29 922.98,-221.29 829.47,-239.29"/>
<text text-anchor="middle" x="829.47" y="-217.59" font-family="Times,serif" font-size="14.00">spi_i_TX_DV</text>
</g>
<!-- n8&#45;&gt;c36 -->
<g id="edge28" class="edge">
<title>n8:e&#45;&gt;c36:w</title>
<path fill="none" stroke="#a6761d" d="M924.47,-221.29C944.91,-221.29 952.1,-216.3 968.39,-214.75"/>
<polygon fill="#a6761d" stroke="#a6761d" points="968.7,-218.24 978.53,-214.29 968.38,-211.24 968.7,-218.24"/>
</g>
<!-- n9 -->
<g id="node7" class="node">
<title>n9</title>
<polygon fill="none" stroke="black" points="1498.94,-355.29 1389.68,-337.29 1498.94,-319.29 1608.2,-337.29 1498.94,-355.29"/>
<text text-anchor="middle" x="1498.94" y="-333.59" font-family="Times,serif" font-size="14.00">spi_o_RX_Byte</text>
</g>
<!-- x3 -->
<g id="node25" class="node">
<title>x3</title>
<path fill="none" stroke="black" d="M1697.35,-355.29C1697.35,-355.29 1667.35,-355.29 1667.35,-355.29 1661.35,-355.29 1655.35,-349.29 1655.35,-343.29 1655.35,-343.29 1655.35,-331.29 1655.35,-331.29 1655.35,-325.29 1661.35,-319.29 1667.35,-319.29 1667.35,-319.29 1697.35,-319.29 1697.35,-319.29 1703.35,-319.29 1709.35,-325.29 1709.35,-331.29 1709.35,-331.29 1709.35,-343.29 1709.35,-343.29 1709.35,-349.29 1703.35,-355.29 1697.35,-355.29"/>
<text text-anchor="middle" x="1682.35" y="-333.59" font-family="Times,serif" font-size="14.00">BUF</text>
</g>
<!-- n9&#45;&gt;x3 -->
<g id="edge30" class="edge">
<title>n9:e&#45;&gt;x3:w</title>
<path fill="none" stroke="#a6761d" stroke-width="3" d="M1608.94,-337.29C1625.7,-337.29 1632.24,-337.29 1645.17,-337.29"/>
<polygon fill="#a6761d" stroke="#a6761d" stroke-width="3" points="1645.35,-340.79 1655.35,-337.29 1645.35,-333.79 1645.35,-340.79"/>
</g>
<!-- n10 -->
<g id="node8" class="node">
<title>n10</title>
<polygon fill="none" stroke="black" points="1498.94,-301.29 1400.74,-283.29 1498.94,-265.29 1597.14,-283.29 1498.94,-301.29"/>
<text text-anchor="middle" x="1498.94" y="-279.59" font-family="Times,serif" font-size="14.00">spi_o_RX_DV</text>
</g>
<!-- x2 -->
<g id="node24" class="node">
<title>x2</title>
<path fill="none" stroke="black" d="M1697.35,-301.29C1697.35,-301.29 1667.35,-301.29 1667.35,-301.29 1661.35,-301.29 1655.35,-295.29 1655.35,-289.29 1655.35,-289.29 1655.35,-277.29 1655.35,-277.29 1655.35,-271.29 1661.35,-265.29 1667.35,-265.29 1667.35,-265.29 1697.35,-265.29 1697.35,-265.29 1703.35,-265.29 1709.35,-271.29 1709.35,-277.29 1709.35,-277.29 1709.35,-289.29 1709.35,-289.29 1709.35,-295.29 1703.35,-301.29 1697.35,-301.29"/>
<text text-anchor="middle" x="1682.35" y="-279.59" font-family="Times,serif" font-size="14.00">BUF</text>
</g>
<!-- n10&#45;&gt;x2 -->
<g id="edge3" class="edge">
<title>n10:e&#45;&gt;x2:w</title>
<path fill="none" stroke="#e7298a" d="M1597.94,-283.29C1619.67,-283.29 1627.52,-283.29 1645.12,-283.29"/>
<polygon fill="#e7298a" stroke="#e7298a" points="1645.35,-286.79 1655.35,-283.29 1645.35,-279.79 1645.35,-286.79"/>
</g>
<!-- n11 -->
<g id="node9" class="node">
<title>n11</title>
<polygon fill="none" stroke="black" points="829.47,-347.29 742.33,-329.29 829.47,-311.29 916.61,-329.29 829.47,-347.29"/>
<text text-anchor="middle" x="829.47" y="-325.59" font-family="Times,serif" font-size="14.00">spi_i_Rst_L</text>
</g>
<!-- n11&#45;&gt;c36 -->
<g id="edge5" class="edge">
<title>n11:e&#45;&gt;c36:w</title>
<path fill="none" stroke="#7570b3" d="M917.47,-329.29C940.9,-329.29 949.16,-329.29 968.44,-329.29"/>
<polygon fill="#7570b3" stroke="#7570b3" points="968.53,-332.79 978.53,-329.29 968.53,-325.79 968.53,-332.79"/>
</g>
<!-- n12 -->
<g id="node10" class="node">
<title>n12</title>
<polygon fill="none" stroke="black" points="336.5,-419.29 263.77,-401.29 336.5,-383.29 409.22,-401.29 336.5,-419.29"/>
<text text-anchor="middle" x="336.5" y="-397.59" font-family="Times,serif" font-size="14.00">spi_i_Clk</text>
</g>
<!-- n12&#45;&gt;c36 -->
<g id="edge7" class="edge">
<title>n12:e&#45;&gt;c36:w</title>
<path fill="none" stroke="#e6ab02" d="M409.11,-401.29C646.22,-401.29 735.32,-525.55 942.53,-410.29 965.31,-397.61 953.12,-363.89 968.49,-354.65"/>
<polygon fill="#e6ab02" stroke="#e6ab02" points="969.6,-357.99 978.53,-352.29 967.99,-351.18 969.6,-357.99"/>
</g>
<!-- n13 -->
<g id="node11" class="node">
<title>n13</title>
<polygon fill="none" stroke="black" points="135.61,-578.83 135.61,-593.74 96.56,-604.29 41.33,-604.29 2.28,-593.74 2.28,-578.83 41.33,-568.29 96.56,-568.29 135.61,-578.83"/>
<text text-anchor="middle" x="68.94" y="-582.59" font-family="Times,serif" font-size="14.00">io_spi_cs_n</text>
</g>
<!-- c24 -->
<g id="node20" class="node">
<title>c24</title>
<polygon fill="none" stroke="black" points="283.5,-529.29 283.5,-575.29 389.5,-575.29 389.5,-529.29 283.5,-529.29"/>
<text text-anchor="middle" x="297" y="-560.09" font-family="Times,serif" font-size="14.00">A</text>
<polyline fill="none" stroke="black" points="283.5,-552.29 310.5,-552.29 "/>
<text text-anchor="middle" x="297" y="-537.09" font-family="Times,serif" font-size="14.00">B</text>
<polyline fill="none" stroke="black" points="310.5,-529.29 310.5,-575.29 "/>
<text text-anchor="middle" x="337" y="-556.09" font-family="Times,serif" font-size="14.00">$182</text>
<text text-anchor="middle" x="337" y="-541.09" font-family="Times,serif" font-size="14.00">$eq</text>
<polyline fill="none" stroke="black" points="363.5,-529.29 363.5,-575.29 "/>
<text text-anchor="middle" x="376.5" y="-548.59" font-family="Times,serif" font-size="14.00">Y</text>
</g>
<!-- n13&#45;&gt;c24 -->
<g id="edge8" class="edge">
<title>n13:e&#45;&gt;c24:w</title>
<path fill="none" stroke="#66a61e" d="M136.94,-586.29C198.79,-586.29 215.31,-566.63 272.2,-564.48"/>
<polygon fill="#66a61e" stroke="#66a61e" points="272.56,-567.97 282.5,-564.29 272.43,-560.97 272.56,-567.97"/>
</g>
<!-- n14 -->
<g id="node12" class="node">
<title>n14</title>
<polygon fill="none" stroke="black" points="128.13,-55.83 128.13,-70.74 93.46,-81.29 44.43,-81.29 9.76,-70.74 9.76,-55.83 44.43,-45.29 93.46,-45.29 128.13,-55.83"/>
<text text-anchor="middle" x="68.94" y="-59.59" font-family="Times,serif" font-size="14.00">io_spi_clk</text>
</g>
<!-- x11 -->
<g id="node33" class="node">
<title>x11</title>
<path fill="none" stroke="black" d="M215.88,-81.29C215.88,-81.29 185.88,-81.29 185.88,-81.29 179.88,-81.29 173.88,-75.29 173.88,-69.29 173.88,-69.29 173.88,-57.29 173.88,-57.29 173.88,-51.29 179.88,-45.29 185.88,-45.29 185.88,-45.29 215.88,-45.29 215.88,-45.29 221.88,-45.29 227.88,-51.29 227.88,-57.29 227.88,-57.29 227.88,-69.29 227.88,-69.29 227.88,-75.29 221.88,-81.29 215.88,-81.29"/>
<text text-anchor="middle" x="200.88" y="-59.59" font-family="Times,serif" font-size="14.00">BUF</text>
</g>
<!-- n14&#45;&gt;x11 -->
<g id="edge9" class="edge">
<title>n14:e&#45;&gt;x11:w</title>
<path fill="none" stroke="#d95f02" d="M128.94,-63.29C145.02,-63.29 151.39,-63.29 163.67,-63.29"/>
<polygon fill="#d95f02" stroke="#d95f02" points="163.88,-66.79 173.88,-63.29 163.88,-59.79 163.88,-66.79"/>
</g>
<!-- n15 -->
<g id="node13" class="node">
<title>n15</title>
<polygon fill="none" stroke="black" points="1909.91,-221.83 1909.91,-236.74 1869.56,-247.29 1812.49,-247.29 1772.14,-236.74 1772.14,-221.83 1812.49,-211.29 1869.56,-211.29 1909.91,-221.83"/>
<text text-anchor="middle" x="1841.02" y="-225.59" font-family="Times,serif" font-size="14.00">io_spi_miso</text>
</g>
<!-- n16 -->
<g id="node14" class="node">
<title>n16</title>
<polygon fill="none" stroke="black" points="137.83,-109.83 137.83,-124.74 97.48,-135.29 40.41,-135.29 0.06,-124.74 0.06,-109.83 40.41,-99.29 97.48,-99.29 137.83,-109.83"/>
<text text-anchor="middle" x="68.94" y="-113.59" font-family="Times,serif" font-size="14.00">io_spi_mosi</text>
</g>
<!-- x12 -->
<g id="node34" class="node">
<title>x12</title>
<path fill="none" stroke="black" d="M215.88,-135.29C215.88,-135.29 185.88,-135.29 185.88,-135.29 179.88,-135.29 173.88,-129.29 173.88,-123.29 173.88,-123.29 173.88,-111.29 173.88,-111.29 173.88,-105.29 179.88,-99.29 185.88,-99.29 185.88,-99.29 215.88,-99.29 215.88,-99.29 221.88,-99.29 227.88,-105.29 227.88,-111.29 227.88,-111.29 227.88,-123.29 227.88,-123.29 227.88,-129.29 221.88,-135.29 215.88,-135.29"/>
<text text-anchor="middle" x="200.88" y="-113.59" font-family="Times,serif" font-size="14.00">BUF</text>
</g>
<!-- n16&#45;&gt;x12 -->
<g id="edge11" class="edge">
<title>n16:e&#45;&gt;x12:w</title>
<path fill="none" stroke="#7570b3" d="M137.88,-117.29C149.88,-117.29 155.13,-117.29 163.76,-117.29"/>
<polygon fill="#7570b3" stroke="#7570b3" points="163.88,-120.79 173.88,-117.29 163.88,-113.79 163.88,-120.79"/>
</g>
<!-- n17 -->
<g id="node15" class="node">
<title>n17</title>
<polygon fill="none" stroke="black" points="1907.69,-329.83 1907.69,-344.74 1868.64,-355.29 1813.41,-355.29 1774.36,-344.74 1774.36,-329.83 1813.41,-319.29 1868.64,-319.29 1907.69,-329.83"/>
<text text-anchor="middle" x="1841.02" y="-333.59" font-family="Times,serif" font-size="14.00">io_RX_data</text>
</g>
<!-- n18 -->
<g id="node16" class="node">
<title>n18</title>
<polygon fill="none" stroke="black" points="1936.87,-275.83 1936.87,-290.74 1880.72,-301.29 1801.32,-301.29 1745.17,-290.74 1745.17,-275.83 1801.32,-265.29 1880.72,-265.29 1936.87,-275.83"/>
<text text-anchor="middle" x="1841.02" y="-279.59" font-family="Times,serif" font-size="14.00">io_RX_data_valid</text>
</g>
<!-- n19 -->
<g id="node17" class="node">
<title>n19</title>
<polygon fill="none" stroke="black" points="106.01,-486.83 106.01,-501.74 84.3,-512.29 53.59,-512.29 31.87,-501.74 31.87,-486.83 53.59,-476.29 84.3,-476.29 106.01,-486.83"/>
<text text-anchor="middle" x="68.94" y="-490.59" font-family="Times,serif" font-size="14.00">reset</text>
</g>
<!-- c25 -->
<g id="node22" class="node">
<title>c25</title>
<polygon fill="none" stroke="black" points="283.5,-452.29 283.5,-498.29 389.5,-498.29 389.5,-452.29 283.5,-452.29"/>
<text text-anchor="middle" x="297" y="-483.09" font-family="Times,serif" font-size="14.00">A</text>
<polyline fill="none" stroke="black" points="283.5,-475.29 310.5,-475.29 "/>
<text text-anchor="middle" x="297" y="-460.09" font-family="Times,serif" font-size="14.00">B</text>
<polyline fill="none" stroke="black" points="310.5,-452.29 310.5,-498.29 "/>
<text text-anchor="middle" x="337" y="-479.09" font-family="Times,serif" font-size="14.00">$181</text>
<text text-anchor="middle" x="337" y="-464.09" font-family="Times,serif" font-size="14.00">$eq</text>
<polyline fill="none" stroke="black" points="363.5,-452.29 363.5,-498.29 "/>
<text text-anchor="middle" x="376.5" y="-471.59" font-family="Times,serif" font-size="14.00">Y</text>
</g>
<!-- n19&#45;&gt;c25 -->
<g id="edge14" class="edge">
<title>n19:e&#45;&gt;c25:w</title>
<path fill="none" stroke="#a6761d" d="M106.94,-494.29C181.52,-494.29 202.55,-487.9 272.32,-487.33"/>
<polygon fill="#a6761d" stroke="#a6761d" points="272.51,-490.83 282.5,-487.29 272.48,-483.83 272.51,-490.83"/>
</g>
<!-- n20 -->
<g id="node18" class="node">
<title>n20</title>
<polygon fill="none" stroke="black" points="106.01,-386.83 106.01,-401.74 84.3,-412.29 53.59,-412.29 31.87,-401.74 31.87,-386.83 53.59,-376.29 84.3,-376.29 106.01,-386.83"/>
<text text-anchor="middle" x="68.94" y="-390.59" font-family="Times,serif" font-size="14.00">clock</text>
</g>
<!-- x5 -->
<g id="node27" class="node">
<title>x5</title>
<path fill="none" stroke="black" d="M215.88,-412.29C215.88,-412.29 185.88,-412.29 185.88,-412.29 179.88,-412.29 173.88,-406.29 173.88,-400.29 173.88,-400.29 173.88,-388.29 173.88,-388.29 173.88,-382.29 179.88,-376.29 185.88,-376.29 185.88,-376.29 215.88,-376.29 215.88,-376.29 221.88,-376.29 227.88,-382.29 227.88,-388.29 227.88,-388.29 227.88,-400.29 227.88,-400.29 227.88,-406.29 221.88,-412.29 215.88,-412.29"/>
<text text-anchor="middle" x="200.88" y="-390.59" font-family="Times,serif" font-size="14.00">BUF</text>
</g>
<!-- n20&#45;&gt;x5 -->
<g id="edge16" class="edge">
<title>n20:e&#45;&gt;x5:w</title>
<path fill="none" stroke="#e7298a" d="M106.94,-394.29C132.98,-394.29 141.92,-394.29 163.69,-394.29"/>
<polygon fill="#e7298a" stroke="#e7298a" points="163.88,-397.79 173.88,-394.29 163.88,-390.79 163.88,-397.79"/>
</g>
<!-- v0 -->
<g id="node19" class="node">
<title>v0</title>
<ellipse fill="none" stroke="black" cx="200.88" cy="-540.29" rx="27" ry="18"/>
<text text-anchor="middle" x="200.88" y="-536.59" font-family="Times,serif" font-size="14.00">1&#39;0</text>
</g>
<!-- v0&#45;&gt;c24 -->
<g id="edge31" class="edge">
<title>v0:e&#45;&gt;c24:w</title>
<path fill="none" stroke="#e7298a" d="M227.88,-540.29C248.36,-540.29 255.88,-540.29 272.31,-540.29"/>
<polygon fill="#e7298a" stroke="#e7298a" points="272.5,-543.79 282.5,-540.29 272.5,-536.79 272.5,-543.79"/>
</g>
<!-- x13 -->
<g id="node35" class="node">
<title>x13</title>
<path fill="none" stroke="black" d="M577.76,-555.29C577.76,-555.29 547.76,-555.29 547.76,-555.29 541.76,-555.29 535.76,-549.29 535.76,-543.29 535.76,-543.29 535.76,-531.29 535.76,-531.29 535.76,-525.29 541.76,-519.29 547.76,-519.29 547.76,-519.29 577.76,-519.29 577.76,-519.29 583.76,-519.29 589.76,-525.29 589.76,-531.29 589.76,-531.29 589.76,-543.29 589.76,-543.29 589.76,-549.29 583.76,-555.29 577.76,-555.29"/>
<text text-anchor="middle" x="562.76" y="-533.59" font-family="Times,serif" font-size="14.00">BUF</text>
</g>
<!-- c24&#45;&gt;x13 -->
<g id="edge1" class="edge">
<title>c24:e&#45;&gt;x13:w</title>
<path fill="none" stroke="#e7298a" d="M390.5,-552.29C451.44,-552.29 468.48,-538.88 524.61,-537.42"/>
<polygon fill="#e7298a" stroke="#e7298a" points="524.81,-540.92 534.76,-537.29 524.72,-533.92 524.81,-540.92"/>
</g>
<!-- v1 -->
<g id="node21" class="node">
<title>v1</title>
<ellipse fill="none" stroke="black" cx="200.88" cy="-448.29" rx="27" ry="18"/>
<text text-anchor="middle" x="200.88" y="-444.59" font-family="Times,serif" font-size="14.00">1&#39;0</text>
</g>
<!-- v1&#45;&gt;c25 -->
<g id="edge32" class="edge">
<title>v1:e&#45;&gt;c25:w</title>
<path fill="none" stroke="#e7298a" d="M227.88,-448.29C249.32,-448.29 255.6,-459.17 272.53,-462.39"/>
<polygon fill="#e7298a" stroke="#e7298a" points="272.23,-465.88 282.5,-463.29 272.85,-458.91 272.23,-465.88"/>
</g>
<!-- x6 -->
<g id="node28" class="node">
<title>x6</title>
<path fill="none" stroke="black" d="M577.76,-493.29C577.76,-493.29 547.76,-493.29 547.76,-493.29 541.76,-493.29 535.76,-487.29 535.76,-481.29 535.76,-481.29 535.76,-469.29 535.76,-469.29 535.76,-463.29 541.76,-457.29 547.76,-457.29 547.76,-457.29 577.76,-457.29 577.76,-457.29 583.76,-457.29 589.76,-463.29 589.76,-469.29 589.76,-469.29 589.76,-481.29 589.76,-481.29 589.76,-487.29 583.76,-493.29 577.76,-493.29"/>
<text text-anchor="middle" x="562.76" y="-471.59" font-family="Times,serif" font-size="14.00">BUF</text>
</g>
<!-- c25&#45;&gt;x6 -->
<g id="edge15" class="edge">
<title>c25:e&#45;&gt;x6:w</title>
<path fill="none" stroke="#7570b3" d="M390.5,-475.29C451.11,-475.29 468.75,-475.29 524.66,-475.29"/>
<polygon fill="#7570b3" stroke="#7570b3" points="524.76,-478.79 534.76,-475.29 524.76,-471.79 524.76,-478.79"/>
</g>
<!-- c36&#45;&gt;n5 -->
<g id="edge21" class="edge">
<title>c36:e&#45;&gt;n5:w</title>
<path fill="none" stroke="#7570b3" d="M1342.53,-229.29C1354.53,-229.29 1359.78,-229.29 1368.4,-229.29"/>
<polygon fill="#7570b3" stroke="#7570b3" points="1368.53,-232.79 1378.53,-229.29 1368.53,-225.79 1368.53,-232.79"/>
</g>
<!-- c36&#45;&gt;n9 -->
<g id="edge29" class="edge">
<title>c36:e&#45;&gt;n9:w</title>
<path fill="none" stroke="#a6761d" stroke-width="3" d="M1342.53,-337.29C1359.29,-337.29 1365.83,-337.29 1378.76,-337.29"/>
<polygon fill="#a6761d" stroke="#a6761d" stroke-width="3" points="1378.94,-340.79 1388.94,-337.29 1378.94,-333.79 1378.94,-340.79"/>
</g>
<!-- c36&#45;&gt;n10 -->
<g id="edge2" class="edge">
<title>c36:e&#45;&gt;n10:w</title>
<path fill="none" stroke="#e7298a" d="M1342.53,-284.29C1364.26,-284.29 1372.11,-283.56 1389.71,-283.35"/>
<polygon fill="#e7298a" stroke="#e7298a" points="1389.96,-286.85 1399.94,-283.29 1389.92,-279.85 1389.96,-286.85"/>
</g>
<!-- x2&#45;&gt;n18 -->
<g id="edge13" class="edge">
<title>x2:e&#45;&gt;n18:w</title>
<path fill="none" stroke="#e6ab02" d="M1709.35,-283.29C1721.35,-283.29 1726.6,-283.29 1735.22,-283.29"/>
<polygon fill="#e6ab02" stroke="#e6ab02" points="1735.35,-286.79 1745.35,-283.29 1735.35,-279.79 1735.35,-286.79"/>
</g>
<!-- x3&#45;&gt;n17 -->
<g id="edge12" class="edge">
<title>x3:e&#45;&gt;n17:w</title>
<path fill="none" stroke="#1b9e77" stroke-width="3" d="M1709.35,-337.29C1733.89,-337.29 1742.47,-337.29 1762.77,-337.29"/>
<polygon fill="#1b9e77" stroke="#1b9e77" stroke-width="3" points="1763.02,-340.79 1773.02,-337.29 1763.02,-333.79 1763.02,-340.79"/>
</g>
<!-- x4&#45;&gt;n15 -->
<g id="edge10" class="edge">
<title>x4:e&#45;&gt;n15:w</title>
<path fill="none" stroke="#666666" d="M1709.35,-229.29C1733.01,-229.29 1741.35,-229.29 1760.83,-229.29"/>
<polygon fill="#666666" stroke="#666666" points="1761.02,-232.79 1771.02,-229.29 1761.02,-225.79 1761.02,-232.79"/>
</g>
<!-- x5&#45;&gt;n12 -->
<g id="edge6" class="edge">
<title>x5:e&#45;&gt;n12:w</title>
<path fill="none" stroke="#e6ab02" d="M227.88,-394.29C240.11,-394.29 245.08,-398.23 253.68,-400.19"/>
<polygon fill="#e6ab02" stroke="#e6ab02" points="253.57,-403.7 263.88,-401.29 254.31,-396.74 253.57,-403.7"/>
</g>
<!-- x6&#45;&gt;n11 -->
<g id="edge4" class="edge">
<title>x6:e&#45;&gt;n11:w</title>
<path fill="none" stroke="#7570b3" d="M590.76,-475.29C680.38,-475.29 650.81,-340.47 731.12,-329.94"/>
<polygon fill="#7570b3" stroke="#7570b3" points="731.71,-333.41 741.47,-329.29 731.27,-326.42 731.71,-333.41"/>
</g>
<!-- v7 -->
<g id="node29" class="node">
<title>v7</title>
<ellipse fill="none" stroke="black" cx="336.5" cy="-223.29" rx="27" ry="18"/>
<text text-anchor="middle" x="336.5" y="-219.59" font-family="Times,serif" font-size="14.00">1&#39;0</text>
</g>
<!-- x8 -->
<g id="node30" class="node">
<title>x8</title>
<path fill="none" stroke="black" d="M577.76,-241.29C577.76,-241.29 547.76,-241.29 547.76,-241.29 541.76,-241.29 535.76,-235.29 535.76,-229.29 535.76,-229.29 535.76,-217.29 535.76,-217.29 535.76,-211.29 541.76,-205.29 547.76,-205.29 547.76,-205.29 577.76,-205.29 577.76,-205.29 583.76,-205.29 589.76,-211.29 589.76,-217.29 589.76,-217.29 589.76,-229.29 589.76,-229.29 589.76,-235.29 583.76,-241.29 577.76,-241.29"/>
<text text-anchor="middle" x="562.76" y="-219.59" font-family="Times,serif" font-size="14.00">BUF</text>
</g>
<!-- v7&#45;&gt;x8 -->
<g id="edge33" class="edge">
<title>v7:e&#45;&gt;x8:w</title>
<path fill="none" stroke="#e7298a" d="M364.5,-223.29C436.62,-223.29 457.19,-223.29 524.48,-223.29"/>
<polygon fill="#e7298a" stroke="#e7298a" points="524.76,-226.79 534.76,-223.29 524.76,-219.79 524.76,-226.79"/>
</g>
<!-- x8&#45;&gt;n8 -->
<g id="edge27" class="edge">
<title>x8:e&#45;&gt;n8:w</title>
<path fill="none" stroke="#a6761d" d="M590.76,-223.29C651.15,-223.29 668.71,-221.5 724.41,-221.31"/>
<polygon fill="#a6761d" stroke="#a6761d" points="724.48,-224.81 734.47,-221.29 724.47,-217.81 724.48,-224.81"/>
</g>
<!-- v9 -->
<g id="node31" class="node">
<title>v9</title>
<ellipse fill="none" stroke="black" cx="336.5" cy="-169.29" rx="65.79" ry="18"/>
<text text-anchor="middle" x="336.5" y="-165.59" font-family="Times,serif" font-size="14.00">8&#39;00000000</text>
</g>
<!-- x10 -->
<g id="node32" class="node">
<title>x10</title>
<path fill="none" stroke="black" d="M577.76,-187.29C577.76,-187.29 547.76,-187.29 547.76,-187.29 541.76,-187.29 535.76,-181.29 535.76,-175.29 535.76,-175.29 535.76,-163.29 535.76,-163.29 535.76,-157.29 541.76,-151.29 547.76,-151.29 547.76,-151.29 577.76,-151.29 577.76,-151.29 583.76,-151.29 589.76,-157.29 589.76,-163.29 589.76,-163.29 589.76,-175.29 589.76,-175.29 589.76,-181.29 583.76,-187.29 577.76,-187.29"/>
<text text-anchor="middle" x="562.76" y="-165.59" font-family="Times,serif" font-size="14.00">BUF</text>
</g>
<!-- v9&#45;&gt;x10 -->
<g id="edge34" class="edge">
<title>v9:e&#45;&gt;x10:w</title>
<path fill="none" stroke="#a6761d" stroke-width="3" d="M403.5,-169.29C458.31,-169.29 474.5,-169.29 524.63,-169.29"/>
<polygon fill="#a6761d" stroke="#a6761d" stroke-width="3" points="524.76,-172.79 534.76,-169.29 524.76,-165.79 524.76,-172.79"/>
</g>
<!-- x10&#45;&gt;n7 -->
<g id="edge25" class="edge">
<title>x10:e&#45;&gt;n7:w</title>
<path fill="none" stroke="#d95f02" stroke-width="3" d="M590.76,-169.29C646.18,-169.29 662.54,-167.52 713.22,-167.31"/>
<polygon fill="#d95f02" stroke="#d95f02" stroke-width="3" points="713.48,-170.81 723.47,-167.29 713.46,-163.81 713.48,-170.81"/>
</g>
<!-- x11&#45;&gt;n6 -->
<g id="edge23" class="edge">
<title>x11:e&#45;&gt;n6:w</title>
<path fill="none" stroke="#7570b3" d="M227.88,-63.29C429.32,-63.29 526.66,41.84 680.42,-88.29 743.02,-141.27 650.4,-264.12 717.45,-274.58"/>
<polygon fill="#7570b3" stroke="#7570b3" points="717.25,-278.07 727.47,-275.29 717.75,-271.09 717.25,-278.07"/>
</g>
<!-- x12&#45;&gt;n4 -->
<g id="edge19" class="edge">
<title>x12:e&#45;&gt;n4:w</title>
<path fill="none" stroke="#666666" d="M227.88,-117.29C320.95,-117.29 346.72,-115.43 434.92,-115.3"/>
<polygon fill="#666666" stroke="#666666" points="435.11,-118.8 445.11,-115.29 435.11,-111.8 435.11,-118.8"/>
</g>
<!-- x13&#45;&gt;n3 -->
<g id="edge17" class="edge">
<title>x13:e&#45;&gt;n3:w</title>
<path fill="none" stroke="#1b9e77" d="M590.76,-537.29C633.54,-537.29 651.38,-533.7 680.42,-502.29 715.29,-464.57 668.68,-394.13 706.35,-384.41"/>
<polygon fill="#1b9e77" stroke="#1b9e77" points="706.87,-387.88 716.42,-383.29 706.09,-380.92 706.87,-387.88"/>
</g>
</g>
</svg>
