<?xml version="1.0" encoding="UTF-8" standalone="no"?>
<!DOCTYPE svg PUBLIC "-//W3C//DTD SVG 1.1//EN"
 "http://www.w3.org/Graphics/SVG/1.1/DTD/svg11.dtd">
<!-- Generated by graphviz version 2.43.20190912.0211 (20190912.0211)
 -->
<!-- Title: SPISlave Pages: 1 -->
<svg width="1579pt" height="620pt"
 viewBox="0.00 0.00 1578.65 620.00" xmlns="http://www.w3.org/2000/svg" xmlns:xlink="http://www.w3.org/1999/xlink">
<g id="graph0" class="graph" transform="scale(1 1) rotate(0) translate(4 616)">
<title>SPISlave</title>
<polygon fill="white" stroke="transparent" points="-4,4 -4,-616 1574.65,-616 1574.65,4 -4,4"/>
<text text-anchor="middle" x="785.32" y="-7.8" font-family="Times,serif" font-size="14.00">SPISlave</text>
<!-- n1 -->
<g id="node1" class="node">
<title>n1</title>
<polygon fill="none" stroke="black" points="106.01,-340.54 106.01,-355.46 84.3,-366 53.59,-366 31.87,-355.46 31.87,-340.54 53.59,-330 84.3,-330 106.01,-340.54"/>
<text text-anchor="middle" x="68.94" y="-344.3" font-family="Times,serif" font-size="14.00">clock</text>
</g>
<!-- c33 -->
<g id="node23" class="node">
<title>c33</title>
<polygon fill="none" stroke="black" points="612.48,-152.5 612.48,-313.5 976.48,-313.5 976.48,-152.5 612.48,-152.5"/>
<text text-anchor="middle" x="662.48" y="-298.3" font-family="Times,serif" font-size="14.00">i_Clk</text>
<polyline fill="none" stroke="black" points="612.48,-290.5 712.48,-290.5 "/>
<text text-anchor="middle" x="662.48" y="-275.3" font-family="Times,serif" font-size="14.00">i_Rst_L</text>
<polyline fill="none" stroke="black" points="612.48,-267.5 712.48,-267.5 "/>
<text text-anchor="middle" x="662.48" y="-252.3" font-family="Times,serif" font-size="14.00">i_SPI_CS_n</text>
<polyline fill="none" stroke="black" points="612.48,-244.5 712.48,-244.5 "/>
<text text-anchor="middle" x="662.48" y="-229.3" font-family="Times,serif" font-size="14.00">i_SPI_Clk</text>
<polyline fill="none" stroke="black" points="612.48,-221.5 712.48,-221.5 "/>
<text text-anchor="middle" x="662.48" y="-206.3" font-family="Times,serif" font-size="14.00">i_SPI_MOSI</text>
<polyline fill="none" stroke="black" points="612.48,-198.5 712.48,-198.5 "/>
<text text-anchor="middle" x="662.48" y="-183.3" font-family="Times,serif" font-size="14.00">i_TX_Byte</text>
<polyline fill="none" stroke="black" points="612.48,-175.5 712.48,-175.5 "/>
<text text-anchor="middle" x="662.48" y="-160.3" font-family="Times,serif" font-size="14.00">i_TX_DV</text>
<polyline fill="none" stroke="black" points="712.48,-152.5 712.48,-313.5 "/>
<text text-anchor="middle" x="792.48" y="-236.8" font-family="Times,serif" font-size="14.00">spi</text>
<text text-anchor="middle" x="792.48" y="-221.8" font-family="Times,serif" font-size="14.00">SPI_Slave_nandland</text>
<polyline fill="none" stroke="black" points="872.48,-152.5 872.48,-313.5 "/>
<text text-anchor="middle" x="924.48" y="-283.3" font-family="Times,serif" font-size="14.00">o_RX_Byte</text>
<polyline fill="none" stroke="black" points="872.48,-260.5 976.48,-260.5 "/>
<text text-anchor="middle" x="924.48" y="-229.8" font-family="Times,serif" font-size="14.00">o_RX_DV</text>
<polyline fill="none" stroke="black" points="872.48,-206.5 976.48,-206.5 "/>
<text text-anchor="middle" x="924.48" y="-175.8" font-family="Times,serif" font-size="14.00">o_SPI_MISO</text>
</g>
<!-- n1&#45;&gt;c33 -->
<g id="edge1" class="edge">
<title>n1:e&#45;&gt;c33:w</title>
<path fill="none" stroke="#e7298a" d="M106.94,-348C159.32,-348 524.36,-311.23 576.48,-306 588.49,-304.8 593.68,-303.15 602.31,-302.4"/>
<polygon fill="#e7298a" stroke="#e7298a" points="602.62,-305.89 612.48,-302 602.35,-298.9 602.62,-305.89"/>
</g>
<!-- x5 -->
<g id="node27" class="node">
<title>x5</title>
<path fill="none" stroke="black" d="M254.53,-389C254.53,-389 224.53,-389 224.53,-389 218.53,-389 212.53,-383 212.53,-377 212.53,-377 212.53,-365 212.53,-365 212.53,-359 218.53,-353 224.53,-353 224.53,-353 254.53,-353 254.53,-353 260.53,-353 266.53,-359 266.53,-365 266.53,-365 266.53,-377 266.53,-377 266.53,-383 260.53,-389 254.53,-389"/>
<text text-anchor="middle" x="239.53" y="-367.3" font-family="Times,serif" font-size="14.00">BUF</text>
</g>
<!-- n1&#45;&gt;x5 -->
<g id="edge2" class="edge">
<title>n1:e&#45;&gt;x5:w</title>
<path fill="none" stroke="#e7298a" d="M106.94,-348C151,-348 162.33,-367.71 201.53,-370.64"/>
<polygon fill="#e7298a" stroke="#e7298a" points="201.41,-374.14 211.53,-371 201.66,-367.14 201.41,-374.14"/>
</g>
<!-- n2 -->
<g id="node2" class="node">
<title>n2</title>
<polygon fill="none" stroke="black" points="1541.64,-279.54 1541.64,-294.46 1502.58,-305 1447.36,-305 1408.31,-294.46 1408.31,-279.54 1447.36,-269 1502.58,-269 1541.64,-279.54"/>
<text text-anchor="middle" x="1474.97" y="-283.3" font-family="Times,serif" font-size="14.00">io_RX_data</text>
</g>
<!-- n3 -->
<g id="node3" class="node">
<title>n3</title>
<polygon fill="none" stroke="black" points="1570.82,-225.54 1570.82,-240.46 1514.67,-251 1435.27,-251 1379.12,-240.46 1379.12,-225.54 1435.27,-215 1514.67,-215 1570.82,-225.54"/>
<text text-anchor="middle" x="1474.97" y="-229.3" font-family="Times,serif" font-size="14.00">io_RX_data_valid</text>
</g>
<!-- n4 -->
<g id="node4" class="node">
<title>n4</title>
<polygon fill="none" stroke="black" points="128.13,-143.54 128.13,-158.46 93.46,-169 44.43,-169 9.76,-158.46 9.76,-143.54 44.43,-133 93.46,-133 128.13,-143.54"/>
<text text-anchor="middle" x="68.94" y="-147.3" font-family="Times,serif" font-size="14.00">io_spi_clk</text>
</g>
<!-- n4&#45;&gt;c33 -->
<g id="edge19" class="edge">
<title>n4:e&#45;&gt;c33:w</title>
<path fill="none" stroke="#e7298a" d="M128.94,-151C343.51,-151 392.98,-230.46 602.38,-232.94"/>
<polygon fill="#e7298a" stroke="#e7298a" points="602.46,-236.44 612.48,-233 602.5,-229.44 602.46,-236.44"/>
</g>
<!-- x6 -->
<g id="node28" class="node">
<title>x6</title>
<path fill="none" stroke="black" d="M254.53,-85C254.53,-85 224.53,-85 224.53,-85 218.53,-85 212.53,-79 212.53,-73 212.53,-73 212.53,-61 212.53,-61 212.53,-55 218.53,-49 224.53,-49 224.53,-49 254.53,-49 254.53,-49 260.53,-49 266.53,-55 266.53,-61 266.53,-61 266.53,-73 266.53,-73 266.53,-79 260.53,-85 254.53,-85"/>
<text text-anchor="middle" x="239.53" y="-63.3" font-family="Times,serif" font-size="14.00">BUF</text>
</g>
<!-- n4&#45;&gt;x6 -->
<g id="edge20" class="edge">
<title>n4:e&#45;&gt;x6:w</title>
<path fill="none" stroke="#e7298a" d="M128.94,-151C177.62,-151 161.92,-78.4 201.54,-68.19"/>
<polygon fill="#e7298a" stroke="#e7298a" points="202.01,-71.66 211.53,-67 201.19,-64.7 202.01,-71.66"/>
</g>
<!-- n5 -->
<g id="node5" class="node">
<title>n5</title>
<polygon fill="none" stroke="black" points="135.61,-419.54 135.61,-434.46 96.56,-445 41.33,-445 2.28,-434.46 2.28,-419.54 41.33,-409 96.56,-409 135.61,-419.54"/>
<text text-anchor="middle" x="68.94" y="-423.3" font-family="Times,serif" font-size="14.00">io_spi_cs_n</text>
</g>
<!-- c22 -->
<g id="node20" class="node">
<title>c22</title>
<polygon fill="none" stroke="black" points="187.03,-408 187.03,-446 292.03,-446 292.03,-408 187.03,-408"/>
<text text-anchor="middle" x="200.03" y="-423.3" font-family="Times,serif" font-size="14.00">A</text>
<polyline fill="none" stroke="black" points="213.03,-408 213.03,-446 "/>
<text text-anchor="middle" x="239.53" y="-430.8" font-family="Times,serif" font-size="14.00">$182</text>
<text text-anchor="middle" x="239.53" y="-415.8" font-family="Times,serif" font-size="14.00">$not</text>
<polyline fill="none" stroke="black" points="266.03,-408 266.03,-446 "/>
<text text-anchor="middle" x="279.03" y="-423.3" font-family="Times,serif" font-size="14.00">Y</text>
</g>
<!-- n5&#45;&gt;c22 -->
<g id="edge21" class="edge">
<title>n5:e&#45;&gt;c22:w</title>
<path fill="none" stroke="#1b9e77" d="M136.94,-427C154.66,-427 161.47,-427 175.27,-427"/>
<polygon fill="#1b9e77" stroke="#1b9e77" points="175.53,-430.5 185.53,-427 175.53,-423.5 175.53,-430.5"/>
</g>
<!-- n6 -->
<g id="node6" class="node">
<title>n6</title>
<polygon fill="none" stroke="black" points="1543.86,-171.54 1543.86,-186.46 1503.5,-197 1446.44,-197 1406.09,-186.46 1406.09,-171.54 1446.44,-161 1503.5,-161 1543.86,-171.54"/>
<text text-anchor="middle" x="1474.97" y="-175.3" font-family="Times,serif" font-size="14.00">io_spi_miso</text>
</g>
<!-- n7 -->
<g id="node7" class="node">
<title>n7</title>
<polygon fill="none" stroke="black" points="137.83,-212.54 137.83,-227.46 97.48,-238 40.41,-238 0.06,-227.46 0.06,-212.54 40.41,-202 97.48,-202 137.83,-212.54"/>
<text text-anchor="middle" x="68.94" y="-216.3" font-family="Times,serif" font-size="14.00">io_spi_mosi</text>
</g>
<!-- n7&#45;&gt;c33 -->
<g id="edge23" class="edge">
<title>n7:e&#45;&gt;c33:w</title>
<path fill="none" stroke="#7570b3" d="M137.88,-220C345.46,-220 399.76,-210.32 602.4,-210.01"/>
<polygon fill="#7570b3" stroke="#7570b3" points="602.48,-213.51 612.48,-210 602.47,-206.51 602.48,-213.51"/>
</g>
<!-- x7 -->
<g id="node29" class="node">
<title>x7</title>
<path fill="none" stroke="black" d="M254.53,-288C254.53,-288 224.53,-288 224.53,-288 218.53,-288 212.53,-282 212.53,-276 212.53,-276 212.53,-264 212.53,-264 212.53,-258 218.53,-252 224.53,-252 224.53,-252 254.53,-252 254.53,-252 260.53,-252 266.53,-258 266.53,-264 266.53,-264 266.53,-276 266.53,-276 266.53,-282 260.53,-288 254.53,-288"/>
<text text-anchor="middle" x="239.53" y="-266.3" font-family="Times,serif" font-size="14.00">BUF</text>
</g>
<!-- n7&#45;&gt;x7 -->
<g id="edge24" class="edge">
<title>n7:e&#45;&gt;x7:w</title>
<path fill="none" stroke="#7570b3" d="M137.88,-220C173.74,-220 172.6,-261.06 201.52,-268.76"/>
<polygon fill="#7570b3" stroke="#7570b3" points="201.18,-272.25 211.53,-270 202.03,-265.3 201.18,-272.25"/>
</g>
<!-- n8 -->
<g id="node8" class="node">
<title>n8</title>
<polygon fill="none" stroke="black" points="106.01,-476.54 106.01,-491.46 84.3,-502 53.59,-502 31.87,-491.46 31.87,-476.54 53.59,-466 84.3,-466 106.01,-476.54"/>
<text text-anchor="middle" x="68.94" y="-480.3" font-family="Times,serif" font-size="14.00">reset</text>
</g>
<!-- c21 -->
<g id="node19" class="node">
<title>c21</title>
<polygon fill="none" stroke="black" points="187.03,-465 187.03,-503 292.03,-503 292.03,-465 187.03,-465"/>
<text text-anchor="middle" x="200.03" y="-480.3" font-family="Times,serif" font-size="14.00">A</text>
<polyline fill="none" stroke="black" points="213.03,-465 213.03,-503 "/>
<text text-anchor="middle" x="239.53" y="-487.8" font-family="Times,serif" font-size="14.00">$181</text>
<text text-anchor="middle" x="239.53" y="-472.8" font-family="Times,serif" font-size="14.00">$not</text>
<polyline fill="none" stroke="black" points="266.03,-465 266.03,-503 "/>
<text text-anchor="middle" x="279.03" y="-480.3" font-family="Times,serif" font-size="14.00">Y</text>
</g>
<!-- n8&#45;&gt;c21 -->
<g id="edge25" class="edge">
<title>n8:e&#45;&gt;c21:w</title>
<path fill="none" stroke="#7570b3" d="M106.94,-484C138.19,-484 148.47,-484 175.29,-484"/>
<polygon fill="#7570b3" stroke="#7570b3" points="175.53,-487.5 185.53,-484 175.53,-480.5 175.53,-487.5"/>
</g>
<!-- n9 -->
<g id="node9" class="node">
<title>n9</title>
<polygon fill="none" stroke="black" points="458.83,-389 386.1,-371 458.83,-353 531.55,-371 458.83,-389"/>
<text text-anchor="middle" x="458.83" y="-367.3" font-family="Times,serif" font-size="14.00">spi_i_Clk</text>
</g>
<!-- n10 -->
<g id="node10" class="node">
<title>n10</title>
<polygon fill="none" stroke="black" points="458.83,-501 371.68,-483 458.83,-465 545.97,-483 458.83,-501"/>
<text text-anchor="middle" x="458.83" y="-479.3" font-family="Times,serif" font-size="14.00">spi_i_Rst_L</text>
</g>
<!-- n10&#45;&gt;c33 -->
<g id="edge4" class="edge">
<title>n10:e&#45;&gt;c33:w</title>
<path fill="none" stroke="#e7298a" d="M546.83,-483C565.57,-483 567.62,-469.53 576.48,-453 593.37,-421.46 576.78,-304.18 602.91,-282.47"/>
<polygon fill="#e7298a" stroke="#e7298a" points="604.27,-285.7 612.48,-279 601.88,-279.12 604.27,-285.7"/>
</g>
<!-- n11 -->
<g id="node11" class="node">
<title>n11</title>
<polygon fill="none" stroke="black" points="458.83,-444 345.71,-426 458.83,-408 571.94,-426 458.83,-444"/>
<text text-anchor="middle" x="458.83" y="-422.3" font-family="Times,serif" font-size="14.00">spi_i_SPI_CS_n</text>
</g>
<!-- n11&#45;&gt;c33 -->
<g id="edge6" class="edge">
<title>n11:e&#45;&gt;c33:w</title>
<path fill="none" stroke="#7570b3" d="M572.83,-426C646.62,-426 545.71,-272.2 602.45,-257.18"/>
<polygon fill="#7570b3" stroke="#7570b3" points="602.95,-260.64 612.48,-256 602.14,-253.69 602.95,-260.64"/>
</g>
<!-- n12 -->
<g id="node12" class="node">
<title>n12</title>
<polygon fill="none" stroke="black" points="458.83,-59 357.61,-41 458.83,-23 560.04,-41 458.83,-59"/>
<text text-anchor="middle" x="458.83" y="-37.3" font-family="Times,serif" font-size="14.00">spi_i_SPI_Clk</text>
</g>
<!-- n13 -->
<g id="node13" class="node">
<title>n13</title>
<polygon fill="none" stroke="black" points="458.83,-297 341.02,-279 458.83,-261 576.63,-279 458.83,-297"/>
<text text-anchor="middle" x="458.83" y="-275.3" font-family="Times,serif" font-size="14.00">spi_i_SPI_MOSI</text>
</g>
<!-- n14 -->
<g id="node14" class="node">
<title>n14</title>
<polygon fill="none" stroke="black" points="794.48,-558 689.91,-540 794.48,-522 899.05,-540 794.48,-558"/>
<text text-anchor="middle" x="794.48" y="-536.3" font-family="Times,serif" font-size="14.00">spi_i_TX_Byte</text>
</g>
<!-- n15 -->
<g id="node15" class="node">
<title>n15</title>
<polygon fill="none" stroke="black" points="794.48,-612 700.97,-594 794.48,-576 887.99,-594 794.48,-612"/>
<text text-anchor="middle" x="794.48" y="-590.3" font-family="Times,serif" font-size="14.00">spi_i_TX_DV</text>
</g>
<!-- n16 -->
<g id="node16" class="node">
<title>n16</title>
<polygon fill="none" stroke="black" points="1132.89,-305 1023.63,-287 1132.89,-269 1242.15,-287 1132.89,-305"/>
<text text-anchor="middle" x="1132.89" y="-283.3" font-family="Times,serif" font-size="14.00">spi_o_RX_Byte</text>
</g>
<!-- x2 -->
<g id="node24" class="node">
<title>x2</title>
<path fill="none" stroke="black" d="M1331.3,-305C1331.3,-305 1301.3,-305 1301.3,-305 1295.3,-305 1289.3,-299 1289.3,-293 1289.3,-293 1289.3,-281 1289.3,-281 1289.3,-275 1295.3,-269 1301.3,-269 1301.3,-269 1331.3,-269 1331.3,-269 1337.3,-269 1343.3,-275 1343.3,-281 1343.3,-281 1343.3,-293 1343.3,-293 1343.3,-299 1337.3,-305 1331.3,-305"/>
<text text-anchor="middle" x="1316.3" y="-283.3" font-family="Times,serif" font-size="14.00">BUF</text>
</g>
<!-- n16&#45;&gt;x2 -->
<g id="edge12" class="edge">
<title>n16:e&#45;&gt;x2:w</title>
<path fill="none" stroke="#7570b3" stroke-width="3" d="M1242.89,-287C1259.65,-287 1266.19,-287 1279.12,-287"/>
<polygon fill="#7570b3" stroke="#7570b3" stroke-width="3" points="1279.3,-290.5 1289.3,-287 1279.3,-283.5 1279.3,-290.5"/>
</g>
<!-- n17 -->
<g id="node17" class="node">
<title>n17</title>
<polygon fill="none" stroke="black" points="1132.89,-251 1034.69,-233 1132.89,-215 1231.09,-233 1132.89,-251"/>
<text text-anchor="middle" x="1132.89" y="-229.3" font-family="Times,serif" font-size="14.00">spi_o_RX_DV</text>
</g>
<!-- x3 -->
<g id="node25" class="node">
<title>x3</title>
<path fill="none" stroke="black" d="M1331.3,-251C1331.3,-251 1301.3,-251 1301.3,-251 1295.3,-251 1289.3,-245 1289.3,-239 1289.3,-239 1289.3,-227 1289.3,-227 1289.3,-221 1295.3,-215 1301.3,-215 1301.3,-215 1331.3,-215 1331.3,-215 1337.3,-215 1343.3,-221 1343.3,-227 1343.3,-227 1343.3,-239 1343.3,-239 1343.3,-245 1337.3,-251 1331.3,-251"/>
<text text-anchor="middle" x="1316.3" y="-229.3" font-family="Times,serif" font-size="14.00">BUF</text>
</g>
<!-- n17&#45;&gt;x3 -->
<g id="edge14" class="edge">
<title>n17:e&#45;&gt;x3:w</title>
<path fill="none" stroke="#1b9e77" d="M1231.89,-233C1253.61,-233 1261.47,-233 1279.07,-233"/>
<polygon fill="#1b9e77" stroke="#1b9e77" points="1279.3,-236.5 1289.3,-233 1279.3,-229.5 1279.3,-236.5"/>
</g>
<!-- n18 -->
<g id="node18" class="node">
<title>n18</title>
<polygon fill="none" stroke="black" points="1132.89,-197 1012.57,-179 1132.89,-161 1253.21,-179 1132.89,-197"/>
<text text-anchor="middle" x="1132.89" y="-175.3" font-family="Times,serif" font-size="14.00">spi_o_SPI_MISO</text>
</g>
<!-- x4 -->
<g id="node26" class="node">
<title>x4</title>
<path fill="none" stroke="black" d="M1331.3,-197C1331.3,-197 1301.3,-197 1301.3,-197 1295.3,-197 1289.3,-191 1289.3,-185 1289.3,-185 1289.3,-173 1289.3,-173 1289.3,-167 1295.3,-161 1301.3,-161 1301.3,-161 1331.3,-161 1331.3,-161 1337.3,-161 1343.3,-167 1343.3,-173 1343.3,-173 1343.3,-185 1343.3,-185 1343.3,-191 1337.3,-197 1331.3,-197"/>
<text text-anchor="middle" x="1316.3" y="-175.3" font-family="Times,serif" font-size="14.00">BUF</text>
</g>
<!-- n18&#45;&gt;x4 -->
<g id="edge16" class="edge">
<title>n18:e&#45;&gt;x4:w</title>
<path fill="none" stroke="#e6ab02" d="M1253.3,-179C1265.3,-179 1270.55,-179 1279.17,-179"/>
<polygon fill="#e6ab02" stroke="#e6ab02" points="1279.3,-182.5 1289.3,-179 1279.3,-175.5 1279.3,-182.5"/>
</g>
<!-- c21&#45;&gt;n10 -->
<g id="edge3" class="edge">
<title>c21:e&#45;&gt;n10:w</title>
<path fill="none" stroke="#e7298a" d="M293.53,-484C324.26,-484 334.37,-483.2 360.75,-483.03"/>
<polygon fill="#e7298a" stroke="#e7298a" points="360.84,-486.53 370.83,-483 360.81,-479.53 360.84,-486.53"/>
</g>
<!-- c22&#45;&gt;n11 -->
<g id="edge5" class="edge">
<title>c22:e&#45;&gt;n11:w</title>
<path fill="none" stroke="#7570b3" d="M293.53,-427C312.41,-427 319.56,-426.31 334.41,-426.08"/>
<polygon fill="#7570b3" stroke="#7570b3" points="334.85,-429.58 344.83,-426 334.8,-422.58 334.85,-429.58"/>
</g>
<!-- v0 -->
<g id="node21" class="node">
<title>v0</title>
<ellipse fill="none" stroke="black" cx="458.83" cy="-149" rx="65.79" ry="18"/>
<text text-anchor="middle" x="458.83" y="-145.3" font-family="Times,serif" font-size="14.00">8&#39;00000000</text>
</g>
<!-- v0&#45;&gt;c33 -->
<g id="edge27" class="edge">
<title>v0:e&#45;&gt;c33:w</title>
<path fill="none" stroke="#a6761d" stroke-width="3" d="M525.83,-149C564.26,-149 569.7,-180.75 602.46,-186.21"/>
<polygon fill="#a6761d" stroke="#a6761d" stroke-width="3" points="602.23,-189.7 612.48,-187 602.78,-182.72 602.23,-189.7"/>
</g>
<!-- v1 -->
<g id="node22" class="node">
<title>v1</title>
<ellipse fill="none" stroke="black" cx="458.83" cy="-95" rx="27" ry="18"/>
<text text-anchor="middle" x="458.83" y="-91.3" font-family="Times,serif" font-size="14.00">1&#39;0</text>
</g>
<!-- v1&#45;&gt;c33 -->
<g id="edge28" class="edge">
<title>v1:e&#45;&gt;c33:w</title>
<path fill="none" stroke="#a6761d" d="M486.83,-95C528.44,-95 541.61,-99.29 576.48,-122 593.54,-133.11 590.17,-154.62 602.47,-161.69"/>
<polygon fill="#a6761d" stroke="#a6761d" points="601.95,-165.16 612.48,-164 603.52,-158.34 601.95,-165.16"/>
</g>
<!-- c33&#45;&gt;n16 -->
<g id="edge11" class="edge">
<title>c33:e&#45;&gt;n16:w</title>
<path fill="none" stroke="#7570b3" stroke-width="3" d="M976.48,-287C993.24,-287 999.78,-287 1012.71,-287"/>
<polygon fill="#7570b3" stroke="#7570b3" stroke-width="3" points="1012.89,-290.5 1022.89,-287 1012.89,-283.5 1012.89,-290.5"/>
</g>
<!-- c33&#45;&gt;n17 -->
<g id="edge13" class="edge">
<title>c33:e&#45;&gt;n17:w</title>
<path fill="none" stroke="#1b9e77" d="M976.48,-234C998.21,-234 1006.05,-233.27 1023.66,-233.06"/>
<polygon fill="#1b9e77" stroke="#1b9e77" points="1023.91,-236.56 1033.89,-233 1023.87,-229.56 1023.91,-236.56"/>
</g>
<!-- c33&#45;&gt;n18 -->
<g id="edge15" class="edge">
<title>c33:e&#45;&gt;n18:w</title>
<path fill="none" stroke="#e6ab02" d="M976.48,-179C988.48,-179 993.73,-179 1002.35,-179"/>
<polygon fill="#e6ab02" stroke="#e6ab02" points="1002.48,-182.5 1012.48,-179 1002.48,-175.5 1002.48,-182.5"/>
</g>
<!-- x2&#45;&gt;n2 -->
<g id="edge17" class="edge">
<title>x2:e&#45;&gt;n2:w</title>
<path fill="none" stroke="#a6761d" stroke-width="3" d="M1343.3,-287C1367.84,-287 1376.42,-287 1396.72,-287"/>
<polygon fill="#a6761d" stroke="#a6761d" stroke-width="3" points="1396.97,-290.5 1406.97,-287 1396.97,-283.5 1396.97,-290.5"/>
</g>
<!-- x3&#45;&gt;n3 -->
<g id="edge18" class="edge">
<title>x3:e&#45;&gt;n3:w</title>
<path fill="none" stroke="#7570b3" d="M1343.3,-233C1355.3,-233 1360.55,-233 1369.17,-233"/>
<polygon fill="#7570b3" stroke="#7570b3" points="1369.3,-236.5 1379.3,-233 1369.3,-229.5 1369.3,-236.5"/>
</g>
<!-- x4&#45;&gt;n6 -->
<g id="edge22" class="edge">
<title>x4:e&#45;&gt;n6:w</title>
<path fill="none" stroke="#666666" d="M1343.3,-179C1366.96,-179 1375.3,-179 1394.78,-179"/>
<polygon fill="#666666" stroke="#666666" points="1394.97,-182.5 1404.97,-179 1394.97,-175.5 1394.97,-182.5"/>
</g>
<!-- x5&#45;&gt;n9 -->
<g id="edge26" class="edge">
<title>x5:e&#45;&gt;n9:w</title>
<path fill="none" stroke="#d95f02" d="M267.53,-371C316.1,-371 330.73,-371 374.66,-371"/>
<polygon fill="#d95f02" stroke="#d95f02" points="374.83,-374.5 384.83,-371 374.82,-367.5 374.83,-374.5"/>
</g>
<!-- x6&#45;&gt;n12 -->
<g id="edge7" class="edge">
<title>x6:e&#45;&gt;n12:w</title>
<path fill="none" stroke="#e6ab02" d="M267.53,-67C305.15,-67 314.02,-45.46 346.47,-41.59"/>
<polygon fill="#e6ab02" stroke="#e6ab02" points="347.04,-45.07 356.83,-41 346.64,-38.08 347.04,-45.07"/>
</g>
<!-- x7&#45;&gt;n13 -->
<g id="edge8" class="edge">
<title>x7:e&#45;&gt;n13:w</title>
<path fill="none" stroke="#66a61e" d="M267.53,-270C296.77,-270 306.13,-277.08 330.87,-278.68"/>
<polygon fill="#66a61e" stroke="#66a61e" points="331.07,-282.19 341.17,-279 331.29,-275.19 331.07,-282.19"/>
</g>
<!-- v8 -->
<g id="node30" class="node">
<title>v8</title>
<ellipse fill="none" stroke="black" cx="239.53" cy="-540" rx="65.79" ry="18"/>
<text text-anchor="middle" x="239.53" y="-536.3" font-family="Times,serif" font-size="14.00">8&#39;00000000</text>
</g>
<!-- x9 -->
<g id="node31" class="node">
<title>x9</title>
<path fill="none" stroke="black" d="M473.83,-558C473.83,-558 443.83,-558 443.83,-558 437.83,-558 431.83,-552 431.83,-546 431.83,-546 431.83,-534 431.83,-534 431.83,-528 437.83,-522 443.83,-522 443.83,-522 473.83,-522 473.83,-522 479.83,-522 485.83,-528 485.83,-534 485.83,-534 485.83,-546 485.83,-546 485.83,-552 479.83,-558 473.83,-558"/>
<text text-anchor="middle" x="458.83" y="-536.3" font-family="Times,serif" font-size="14.00">BUF</text>
</g>
<!-- v8&#45;&gt;x9 -->
<g id="edge30" class="edge">
<title>v8:e&#45;&gt;x9:w</title>
<path fill="none" stroke="#e7298a" stroke-width="3" d="M305.17,-540C357.53,-540 373.07,-540 420.82,-540"/>
<polygon fill="#e7298a" stroke="#e7298a" stroke-width="3" points="420.83,-543.5 430.83,-540 420.82,-536.5 420.83,-543.5"/>
</g>
<!-- x9&#45;&gt;n14 -->
<g id="edge9" class="edge">
<title>x9:e&#45;&gt;n14:w</title>
<path fill="none" stroke="#d95f02" stroke-width="3" d="M486.83,-540C572.95,-540 597,-540 678.27,-540"/>
<polygon fill="#d95f02" stroke="#d95f02" stroke-width="3" points="678.48,-543.5 688.48,-540 678.48,-536.5 678.48,-543.5"/>
</g>
<!-- v10 -->
<g id="node32" class="node">
<title>v10</title>
<ellipse fill="none" stroke="black" cx="239.53" cy="-594" rx="27" ry="18"/>
<text text-anchor="middle" x="239.53" y="-590.3" font-family="Times,serif" font-size="14.00">1&#39;0</text>
</g>
<!-- x11 -->
<g id="node33" class="node">
<title>x11</title>
<path fill="none" stroke="black" d="M473.83,-612C473.83,-612 443.83,-612 443.83,-612 437.83,-612 431.83,-606 431.83,-600 431.83,-600 431.83,-588 431.83,-588 431.83,-582 437.83,-576 443.83,-576 443.83,-576 473.83,-576 473.83,-576 479.83,-576 485.83,-582 485.83,-588 485.83,-588 485.83,-600 485.83,-600 485.83,-606 479.83,-612 473.83,-612"/>
<text text-anchor="middle" x="458.83" y="-590.3" font-family="Times,serif" font-size="14.00">BUF</text>
</g>
<!-- v10&#45;&gt;x11 -->
<g id="edge29" class="edge">
<title>v10:e&#45;&gt;x11:w</title>
<path fill="none" stroke="#e7298a" d="M267.53,-594C336.56,-594 356.35,-594 420.57,-594"/>
<polygon fill="#e7298a" stroke="#e7298a" points="420.83,-597.5 430.83,-594 420.82,-590.5 420.83,-597.5"/>
</g>
<!-- x11&#45;&gt;n15 -->
<g id="edge10" class="edge">
<title>x11:e&#45;&gt;n15:w</title>
<path fill="none" stroke="#666666" d="M486.83,-594C577.83,-594 603.11,-594 689.24,-594"/>
<polygon fill="#666666" stroke="#666666" points="689.48,-597.5 699.48,-594 689.48,-590.5 689.48,-597.5"/>
</g>
</g>
</svg>
