<?xml version="1.0" encoding="UTF-8" standalone="no"?>
<!DOCTYPE svg PUBLIC "-//W3C//DTD SVG 1.1//EN"
 "http://www.w3.org/Graphics/SVG/1.1/DTD/svg11.dtd">
<!-- Generated by graphviz version 2.43.20190912.0211 (20190912.0211)
 -->
<!-- Title: Square Pages: 1 -->
<svg width="1136pt" height="312pt"
 viewBox="0.00 0.00 1136.44 312.00" xmlns="http://www.w3.org/2000/svg" xmlns:xlink="http://www.w3.org/1999/xlink">
<g id="graph0" class="graph" transform="scale(1 1) rotate(0) translate(4 308)">
<title>Square</title>
<polygon fill="white" stroke="transparent" points="-4,4 -4,-308 1132.44,-308 1132.44,4 -4,4"/>
<text text-anchor="middle" x="564.22" y="-7.8" font-family="Times,serif" font-size="14.00">Square</text>
<!-- n1 -->
<g id="node1" class="node">
<title>n1</title>
<polygon fill="none" stroke="black" points="443.15,-298.5 375.95,-280.5 443.15,-262.5 510.34,-280.5 443.15,-298.5"/>
<text text-anchor="middle" x="443.15" y="-276.8" font-family="Times,serif" font-size="14.00">_GEN_1</text>
</g>
<!-- n2 -->
<g id="node2" class="node">
<title>n2</title>
<polygon fill="none" stroke="black" points="443.15,-64.5 375.95,-46.5 443.15,-28.5 510.34,-46.5 443.15,-64.5"/>
<text text-anchor="middle" x="443.15" y="-42.8" font-family="Times,serif" font-size="14.00">_GEN_2</text>
</g>
<!-- n3 -->
<g id="node3" class="node">
<title>n3</title>
<polygon fill="none" stroke="black" points="443.15,-233.5 390.86,-215.5 443.15,-197.5 495.43,-215.5 443.15,-233.5"/>
<text text-anchor="middle" x="443.15" y="-211.8" font-family="Times,serif" font-size="14.00">_T_13</text>
</g>
<!-- n4 -->
<g id="node4" class="node">
<title>n4</title>
<polygon fill="none" stroke="black" points="664.53,-142.5 612.25,-124.5 664.53,-106.5 716.82,-124.5 664.53,-142.5"/>
<text text-anchor="middle" x="664.53" y="-120.8" font-family="Times,serif" font-size="14.00">_T_14</text>
</g>
<!-- c13 -->
<g id="node12" class="node">
<title>c13</title>
<polygon fill="none" stroke="black" points="818.82,-144 818.82,-213 927.82,-213 927.82,-144 818.82,-144"/>
<text text-anchor="middle" x="832.32" y="-197.8" font-family="Times,serif" font-size="14.00">A</text>
<polyline fill="none" stroke="black" points="818.82,-190 845.82,-190 "/>
<text text-anchor="middle" x="832.32" y="-174.8" font-family="Times,serif" font-size="14.00">B</text>
<polyline fill="none" stroke="black" points="818.82,-167 845.82,-167 "/>
<text text-anchor="middle" x="832.32" y="-151.8" font-family="Times,serif" font-size="14.00">S</text>
<polyline fill="none" stroke="black" points="845.82,-144 845.82,-213 "/>
<text text-anchor="middle" x="873.82" y="-182.3" font-family="Times,serif" font-size="14.00">$66</text>
<text text-anchor="middle" x="873.82" y="-167.3" font-family="Times,serif" font-size="14.00">$mux</text>
<polyline fill="none" stroke="black" points="901.82,-144 901.82,-213 "/>
<text text-anchor="middle" x="914.82" y="-174.8" font-family="Times,serif" font-size="14.00">Y</text>
</g>
<!-- n4&#45;&gt;c13 -->
<g id="edge6" class="edge">
<title>n4:e&#45;&gt;c13:w</title>
<path fill="none" stroke="#66a61e" d="M717.53,-124.5C760.93,-124.5 770.39,-150.85 808.48,-154.96"/>
<polygon fill="#66a61e" stroke="#66a61e" points="808.66,-158.48 818.82,-155.5 809.02,-151.49 808.66,-158.48"/>
</g>
<!-- n5 -->
<g id="node5" class="node">
<title>n5</title>
<polygon fill="none" stroke="black" points="1128.25,-171.04 1128.25,-185.96 1080.15,-196.5 1012.12,-196.5 964.01,-185.96 964.01,-171.04 1012.12,-160.5 1080.15,-160.5 1128.25,-171.04"/>
<text text-anchor="middle" x="1046.13" y="-174.8" font-family="Times,serif" font-size="14.00">io_sample_out</text>
</g>
<!-- n6 -->
<g id="node6" class="node">
<title>n6</title>
<polygon fill="none" stroke="black" points="189.46,-59.04 189.46,-73.96 140.29,-84.5 70.76,-84.5 21.59,-73.96 21.59,-59.04 70.76,-48.5 140.29,-48.5 189.46,-59.04"/>
<text text-anchor="middle" x="105.52" y="-62.8" font-family="Times,serif" font-size="14.00">io_wavelength</text>
</g>
<!-- c11 -->
<g id="node8" class="node">
<title>c11</title>
<polygon fill="none" stroke="black" points="394.65,-101.5 394.65,-147.5 491.65,-147.5 491.65,-101.5 394.65,-101.5"/>
<text text-anchor="middle" x="408.15" y="-132.3" font-family="Times,serif" font-size="14.00">A</text>
<polyline fill="none" stroke="black" points="394.65,-124.5 421.65,-124.5 "/>
<text text-anchor="middle" x="408.15" y="-109.3" font-family="Times,serif" font-size="14.00">B</text>
<polyline fill="none" stroke="black" points="421.65,-101.5 421.65,-147.5 "/>
<text text-anchor="middle" x="443.65" y="-128.3" font-family="Times,serif" font-size="14.00">$65</text>
<text text-anchor="middle" x="443.65" y="-113.3" font-family="Times,serif" font-size="14.00">$gt</text>
<polyline fill="none" stroke="black" points="465.65,-101.5 465.65,-147.5 "/>
<text text-anchor="middle" x="478.65" y="-120.8" font-family="Times,serif" font-size="14.00">Y</text>
</g>
<!-- n6&#45;&gt;c11 -->
<g id="edge8" class="edge">
<title>n6:e&#45;&gt;c11:w</title>
<path fill="none" stroke="#666666" stroke-width="3" d="M190.52,-66.5C200.76,-66.5 343.08,-102.67 383.24,-110.86"/>
<polygon fill="#666666" stroke="#666666" stroke-width="3" points="382.71,-114.32 393.15,-112.5 383.85,-107.42 382.71,-114.32"/>
</g>
<!-- x4 -->
<g id="node14" class="node">
<title>x4</title>
<path fill="none" stroke="black" d="M259.05,-23.5C259.05,-23.5 328.05,-23.5 328.05,-23.5 334.05,-23.5 340.05,-29.5 340.05,-35.5 340.05,-35.5 340.05,-57.5 340.05,-57.5 340.05,-63.5 334.05,-69.5 328.05,-69.5 328.05,-69.5 259.05,-69.5 259.05,-69.5 253.05,-69.5 247.05,-63.5 247.05,-57.5 247.05,-57.5 247.05,-35.5 247.05,-35.5 247.05,-29.5 253.05,-23.5 259.05,-23.5"/>
<text text-anchor="middle" x="293.55" y="-54.3" font-family="Times,serif" font-size="14.00">0 &#45;&gt; 32:12</text>
<polyline fill="none" stroke="black" points="247.05,-46.5 340.05,-46.5 "/>
<text text-anchor="middle" x="293.55" y="-31.3" font-family="Times,serif" font-size="14.00">11:0 &#45; 11:0</text>
</g>
<!-- n6&#45;&gt;x4 -->
<g id="edge9" class="edge">
<title>n6:e&#45;&gt;x4:w</title>
<path fill="none" stroke="#666666" stroke-width="3" d="M190.52,-66.5C215.56,-66.5 217.97,-42.44 237,-36.04"/>
<polygon fill="#666666" stroke="#666666" stroke-width="3" points="237.69,-39.48 247.05,-34.5 236.63,-32.56 237.69,-39.48"/>
</g>
<!-- n7 -->
<g id="node7" class="node">
<title>n7</title>
<polygon fill="none" stroke="black" points="211.07,-220.04 211.07,-234.96 149.24,-245.5 61.8,-245.5 -0.02,-234.96 -0.02,-220.04 61.8,-209.5 149.24,-209.5 211.07,-220.04"/>
<text text-anchor="middle" x="105.52" y="-223.8" font-family="Times,serif" font-size="14.00">io_wavelength_pos</text>
</g>
<!-- x0 -->
<g id="node9" class="node">
<title>x0</title>
<path fill="none" stroke="black" d="M259.05,-127.5C259.05,-127.5 328.05,-127.5 328.05,-127.5 334.05,-127.5 340.05,-133.5 340.05,-139.5 340.05,-139.5 340.05,-161.5 340.05,-161.5 340.05,-167.5 334.05,-173.5 328.05,-173.5 328.05,-173.5 259.05,-173.5 259.05,-173.5 253.05,-173.5 247.05,-167.5 247.05,-161.5 247.05,-161.5 247.05,-139.5 247.05,-139.5 247.05,-133.5 253.05,-127.5 259.05,-127.5"/>
<text text-anchor="middle" x="293.55" y="-158.3" font-family="Times,serif" font-size="14.00">31:0 &#45; 32:1</text>
<polyline fill="none" stroke="black" points="247.05,-150.5 340.05,-150.5 "/>
<text text-anchor="middle" x="293.55" y="-135.3" font-family="Times,serif" font-size="14.00">0 &#45;&gt; 0:0</text>
</g>
<!-- n7&#45;&gt;x0 -->
<g id="edge10" class="edge">
<title>n7:e&#45;&gt;x0:w</title>
<path fill="none" stroke="#7570b3" stroke-width="3" d="M211.05,-227.5C239.94,-227.5 220.55,-177.73 237.37,-165.29"/>
<polygon fill="#7570b3" stroke="#7570b3" stroke-width="3" points="238.41,-168.64 247.05,-162.5 236.47,-161.91 238.41,-168.64"/>
</g>
<!-- x3 -->
<g id="node13" class="node">
<title>x3</title>
<path fill="none" stroke="black" d="M259.05,-257.5C259.05,-257.5 328.05,-257.5 328.05,-257.5 334.05,-257.5 340.05,-263.5 340.05,-269.5 340.05,-269.5 340.05,-291.5 340.05,-291.5 340.05,-297.5 334.05,-303.5 328.05,-303.5 328.05,-303.5 259.05,-303.5 259.05,-303.5 253.05,-303.5 247.05,-297.5 247.05,-291.5 247.05,-291.5 247.05,-269.5 247.05,-269.5 247.05,-263.5 253.05,-257.5 259.05,-257.5"/>
<text text-anchor="middle" x="293.55" y="-288.3" font-family="Times,serif" font-size="14.00">0 &#45;&gt; 32:32</text>
<polyline fill="none" stroke="black" points="247.05,-280.5 340.05,-280.5 "/>
<text text-anchor="middle" x="293.55" y="-265.3" font-family="Times,serif" font-size="14.00">31:0 &#45; 31:0</text>
</g>
<!-- n7&#45;&gt;x3 -->
<g id="edge11" class="edge">
<title>n7:e&#45;&gt;x3:w</title>
<path fill="none" stroke="#7570b3" stroke-width="3" d="M211.05,-227.5C231.13,-227.5 226.01,-255.62 237.43,-265.28"/>
<polygon fill="#7570b3" stroke="#7570b3" stroke-width="3" points="236.45,-268.65 247.05,-268.5 238.67,-262.01 236.45,-268.65"/>
</g>
<!-- x5 -->
<g id="node15" class="node">
<title>x5</title>
<path fill="none" stroke="black" d="M259.05,-192.5C259.05,-192.5 328.05,-192.5 328.05,-192.5 334.05,-192.5 340.05,-198.5 340.05,-204.5 340.05,-204.5 340.05,-226.5 340.05,-226.5 340.05,-232.5 334.05,-238.5 328.05,-238.5 328.05,-238.5 259.05,-238.5 259.05,-238.5 253.05,-238.5 247.05,-232.5 247.05,-226.5 247.05,-226.5 247.05,-204.5 247.05,-204.5 247.05,-198.5 253.05,-192.5 259.05,-192.5"/>
<text text-anchor="middle" x="293.55" y="-223.3" font-family="Times,serif" font-size="14.00">31:0 &#45; 32:1</text>
<polyline fill="none" stroke="black" points="247.05,-215.5 340.05,-215.5 "/>
<text text-anchor="middle" x="293.55" y="-200.3" font-family="Times,serif" font-size="14.00">0 &#45;&gt; 0:0</text>
</g>
<!-- n7&#45;&gt;x5 -->
<g id="edge12" class="edge">
<title>n7:e&#45;&gt;x5:w</title>
<path fill="none" stroke="#7570b3" stroke-width="3" d="M211.05,-227.5C223.05,-227.5 228.3,-227.5 236.92,-227.5"/>
<polygon fill="#7570b3" stroke="#7570b3" stroke-width="3" points="237.05,-231 247.05,-227.5 237.05,-224 237.05,-231"/>
</g>
<!-- c11&#45;&gt;n4 -->
<g id="edge5" class="edge">
<title>c11:e&#45;&gt;n4:w</title>
<path fill="none" stroke="#66a61e" d="M493.15,-124.5C542.17,-124.5 556.93,-124.5 601.27,-124.5"/>
<polygon fill="#66a61e" stroke="#66a61e" points="601.53,-128 611.53,-124.5 601.53,-121 601.53,-128"/>
</g>
<!-- x0&#45;&gt;c11 -->
<g id="edge1" class="edge">
<title>x0:e&#45;&gt;c11:w</title>
<path fill="none" stroke="#e7298a" stroke-width="3" d="M352.35,-149.11C363.49,-146.4 369.97,-140.45 381.21,-137.81"/>
<polygon fill="none" stroke="#e7298a" stroke-width="3" points="351.97,-149.15 346.46,-153.8 340.05,-150.5 345.56,-145.85 351.97,-149.15"/>
<polygon fill="none" stroke="#e7298a" stroke-width="3" points="381.22,-137.81 386.75,-133.18 393.15,-136.5 387.62,-141.13 381.22,-137.81"/>
</g>
<!-- v1 -->
<g id="node10" class="node">
<title>v1</title>
<ellipse fill="none" stroke="black" cx="664.53" cy="-232.5" rx="118.08" ry="18"/>
<text text-anchor="middle" x="664.53" y="-228.8" font-family="Times,serif" font-size="14.00">16&#39;0111111111111111</text>
</g>
<!-- v1&#45;&gt;c13 -->
<g id="edge13" class="edge">
<title>v1:e&#45;&gt;c13:w</title>
<path fill="none" stroke="#1b9e77" stroke-width="3" d="M782.82,-232.5C799.81,-232.5 799.1,-212.43 809.17,-204.59"/>
<polygon fill="#1b9e77" stroke="#1b9e77" stroke-width="3" points="810.36,-207.88 818.82,-201.5 808.23,-201.21 810.36,-207.88"/>
</g>
<!-- v2 -->
<g id="node11" class="node">
<title>v2</title>
<ellipse fill="none" stroke="black" cx="664.53" cy="-178.5" rx="118.08" ry="18"/>
<text text-anchor="middle" x="664.53" y="-174.8" font-family="Times,serif" font-size="14.00">16&#39;1000000000000001</text>
</g>
<!-- v2&#45;&gt;c13 -->
<g id="edge14" class="edge">
<title>v2:e&#45;&gt;c13:w</title>
<path fill="none" stroke="#e6ab02" stroke-width="3" d="M782.82,-178.5C794.82,-178.5 800.07,-178.5 808.7,-178.5"/>
<polygon fill="#e6ab02" stroke="#e6ab02" stroke-width="3" points="808.82,-182 818.82,-178.5 808.82,-175 808.82,-182"/>
</g>
<!-- c13&#45;&gt;n5 -->
<g id="edge7" class="edge">
<title>c13:e&#45;&gt;n5:w</title>
<path fill="none" stroke="#d95f02" stroke-width="3" d="M927.82,-178.5C939.82,-178.5 945.07,-178.5 953.7,-178.5"/>
<polygon fill="#d95f02" stroke="#d95f02" stroke-width="3" points="953.82,-182 963.82,-178.5 953.82,-175 953.82,-182"/>
</g>
<!-- x3&#45;&gt;n1 -->
<g id="edge2" class="edge">
<title>x3:e&#45;&gt;n1:w</title>
<path fill="none" stroke="#e7298a" stroke-width="3" d="M340.05,-280.5C352.05,-280.5 357.3,-280.5 365.92,-280.5"/>
<polygon fill="#e7298a" stroke="#e7298a" stroke-width="3" points="366.05,-284 376.05,-280.5 366.05,-277 366.05,-284"/>
</g>
<!-- x4&#45;&gt;n2 -->
<g id="edge3" class="edge">
<title>x4:e&#45;&gt;n2:w</title>
<path fill="none" stroke="#7570b3" stroke-width="3" d="M340.05,-46.5C352.05,-46.5 357.3,-46.5 365.92,-46.5"/>
<polygon fill="#7570b3" stroke="#7570b3" stroke-width="3" points="366.05,-50 376.05,-46.5 366.05,-43 366.05,-50"/>
</g>
<!-- x5&#45;&gt;n3 -->
<g id="edge4" class="edge">
<title>x5:e&#45;&gt;n3:w</title>
<path fill="none" stroke="#e6ab02" stroke-width="3" d="M340.05,-215.5C358.49,-215.5 365.47,-215.5 379.98,-215.5"/>
<polygon fill="#e6ab02" stroke="#e6ab02" stroke-width="3" points="380.15,-219 390.15,-215.5 380.15,-212 380.15,-219"/>
</g>
</g>
</svg>
