<?xml version="1.0" encoding="UTF-8" standalone="no"?>
<!DOCTYPE svg PUBLIC "-//W3C//DTD SVG 1.1//EN"
 "http://www.w3.org/Graphics/SVG/1.1/DTD/svg11.dtd">
<!-- Generated by graphviz version 2.43.20190912.0211 (20190912.0211)
 -->
<!-- Title: Square Pages: 1 -->
<svg width="1850pt" height="217pt"
 viewBox="0.00 0.00 1850.42 217.00" xmlns="http://www.w3.org/2000/svg" xmlns:xlink="http://www.w3.org/1999/xlink">
<g id="graph0" class="graph" transform="scale(1 1) rotate(0) translate(4 213)">
<title>Square</title>
<polygon fill="white" stroke="transparent" points="-4,4 -4,-213 1846.42,-213 1846.42,4 -4,4"/>
<text text-anchor="middle" x="921.21" y="-7.8" font-family="Times,serif" font-size="14.00">Square</text>
<!-- n4 -->
<g id="node1" class="node">
<title>n4</title>
<polygon fill="none" stroke="black" points="1288.52,-101 1236.23,-83 1288.52,-65 1340.8,-83 1288.52,-101"/>
<text text-anchor="middle" x="1288.52" y="-79.3" font-family="Times,serif" font-size="14.00">_T_14</text>
</g>
<!-- c15 -->
<g id="node10" class="node">
<title>c15</title>
<polygon fill="none" stroke="black" points="1442.8,-102.5 1442.8,-171.5 1551.8,-171.5 1551.8,-102.5 1442.8,-102.5"/>
<text text-anchor="middle" x="1456.3" y="-156.3" font-family="Times,serif" font-size="14.00">A</text>
<polyline fill="none" stroke="black" points="1442.8,-148.5 1469.8,-148.5 "/>
<text text-anchor="middle" x="1456.3" y="-133.3" font-family="Times,serif" font-size="14.00">B</text>
<polyline fill="none" stroke="black" points="1442.8,-125.5 1469.8,-125.5 "/>
<text text-anchor="middle" x="1456.3" y="-110.3" font-family="Times,serif" font-size="14.00">S</text>
<polyline fill="none" stroke="black" points="1469.8,-102.5 1469.8,-171.5 "/>
<text text-anchor="middle" x="1497.8" y="-140.8" font-family="Times,serif" font-size="14.00">$66</text>
<text text-anchor="middle" x="1497.8" y="-125.8" font-family="Times,serif" font-size="14.00">$mux</text>
<polyline fill="none" stroke="black" points="1525.8,-102.5 1525.8,-171.5 "/>
<text text-anchor="middle" x="1538.8" y="-133.3" font-family="Times,serif" font-size="14.00">Y</text>
</g>
<!-- n4&#45;&gt;c15 -->
<g id="edge6" class="edge">
<title>n4:e&#45;&gt;c15:w</title>
<path fill="none" stroke="#66a61e" d="M1341.52,-83C1384.92,-83 1394.37,-109.35 1432.46,-113.46"/>
<polygon fill="#66a61e" stroke="#66a61e" points="1432.64,-116.98 1442.8,-114 1433,-109.99 1432.64,-116.98"/>
</g>
<!-- n5 -->
<g id="node2" class="node">
<title>n5</title>
<polygon fill="none" stroke="black" points="613.34,-71 546.15,-53 613.34,-35 680.54,-53 613.34,-71"/>
<text text-anchor="middle" x="613.34" y="-49.3" font-family="Times,serif" font-size="14.00">_GEN_2</text>
</g>
<!-- c16 -->
<g id="node11" class="node">
<title>c16</title>
<polygon fill="none" stroke="black" points="947.23,-60 947.23,-106 1044.23,-106 1044.23,-60 947.23,-60"/>
<text text-anchor="middle" x="960.73" y="-90.8" font-family="Times,serif" font-size="14.00">A</text>
<polyline fill="none" stroke="black" points="947.23,-83 974.23,-83 "/>
<text text-anchor="middle" x="960.73" y="-67.8" font-family="Times,serif" font-size="14.00">B</text>
<polyline fill="none" stroke="black" points="974.23,-60 974.23,-106 "/>
<text text-anchor="middle" x="996.23" y="-86.8" font-family="Times,serif" font-size="14.00">$65</text>
<text text-anchor="middle" x="996.23" y="-71.8" font-family="Times,serif" font-size="14.00">$gt</text>
<polyline fill="none" stroke="black" points="1018.23,-60 1018.23,-106 "/>
<text text-anchor="middle" x="1031.23" y="-79.3" font-family="Times,serif" font-size="14.00">Y</text>
</g>
<!-- n5&#45;&gt;c16 -->
<g id="edge8" class="edge">
<title>n5:e&#45;&gt;c16:w</title>
<path fill="none" stroke="#d95f02" stroke-width="3" d="M680.44,-53C795.8,-53 826.6,-69.96 937.01,-70.95"/>
<polygon fill="#d95f02" stroke="#d95f02" stroke-width="3" points="937.21,-74.46 947.23,-71 937.24,-67.46 937.21,-74.46"/>
</g>
<!-- n6 -->
<g id="node3" class="node">
<title>n6</title>
<polygon fill="none" stroke="black" points="858.83,-127 806.55,-109 858.83,-91 911.12,-109 858.83,-127"/>
<text text-anchor="middle" x="858.83" y="-105.3" font-family="Times,serif" font-size="14.00">_T_13</text>
</g>
<!-- n6&#45;&gt;c16 -->
<g id="edge10" class="edge">
<title>n6:e&#45;&gt;c16:w</title>
<path fill="none" stroke="#666666" stroke-width="3" d="M911.23,-109C924.37,-109 928.43,-100.79 937.31,-96.95"/>
<polygon fill="#666666" stroke="#666666" stroke-width="3" points="938.09,-100.36 947.23,-95 936.74,-93.49 938.09,-100.36"/>
</g>
<!-- n7 -->
<g id="node4" class="node">
<title>n7</title>
<polygon fill="none" stroke="black" points="443.15,-172 375.95,-154 443.15,-136 510.34,-154 443.15,-172"/>
<text text-anchor="middle" x="443.15" y="-150.3" font-family="Times,serif" font-size="14.00">_GEN_1</text>
</g>
<!-- c17 -->
<g id="node13" class="node">
<title>c17</title>
<polygon fill="none" stroke="black" points="563.34,-90 563.34,-136 663.34,-136 663.34,-90 563.34,-90"/>
<text text-anchor="middle" x="576.84" y="-120.8" font-family="Times,serif" font-size="14.00">A</text>
<polyline fill="none" stroke="black" points="563.34,-113 590.34,-113 "/>
<text text-anchor="middle" x="576.84" y="-97.8" font-family="Times,serif" font-size="14.00">B</text>
<polyline fill="none" stroke="black" points="590.34,-90 590.34,-136 "/>
<text text-anchor="middle" x="613.84" y="-116.8" font-family="Times,serif" font-size="14.00">$64</text>
<text text-anchor="middle" x="613.84" y="-101.8" font-family="Times,serif" font-size="14.00">$shl</text>
<polyline fill="none" stroke="black" points="637.34,-90 637.34,-136 "/>
<text text-anchor="middle" x="650.34" y="-109.3" font-family="Times,serif" font-size="14.00">Y</text>
</g>
<!-- n7&#45;&gt;c17 -->
<g id="edge12" class="edge">
<title>n7:e&#45;&gt;c17:w</title>
<path fill="none" stroke="#7570b3" stroke-width="3" d="M510.24,-154C532.81,-154 535.51,-132.97 552.17,-126.73"/>
<polygon fill="#7570b3" stroke="#7570b3" stroke-width="3" points="553.07,-130.13 562.34,-125 551.9,-123.22 553.07,-130.13"/>
</g>
<!-- n8 -->
<g id="node5" class="node">
<title>n8</title>
<polygon fill="none" stroke="black" points="1842.23,-129.54 1842.23,-144.46 1794.13,-155 1726.1,-155 1678,-144.46 1678,-129.54 1726.1,-119 1794.13,-119 1842.23,-129.54"/>
<text text-anchor="middle" x="1760.11" y="-133.3" font-family="Times,serif" font-size="14.00">io_sample_out</text>
</g>
<!-- n9 -->
<g id="node6" class="node">
<title>n9</title>
<polygon fill="none" stroke="black" points="211.07,-134.54 211.07,-149.46 149.24,-160 61.8,-160 -0.02,-149.46 -0.02,-134.54 61.8,-124 149.24,-124 211.07,-134.54"/>
<text text-anchor="middle" x="105.52" y="-138.3" font-family="Times,serif" font-size="14.00">io_wavelength_pos</text>
</g>
<!-- x3 -->
<g id="node14" class="node">
<title>x3</title>
<path fill="none" stroke="black" d="M259.05,-131C259.05,-131 328.05,-131 328.05,-131 334.05,-131 340.05,-137 340.05,-143 340.05,-143 340.05,-165 340.05,-165 340.05,-171 334.05,-177 328.05,-177 328.05,-177 259.05,-177 259.05,-177 253.05,-177 247.05,-171 247.05,-165 247.05,-165 247.05,-143 247.05,-143 247.05,-137 253.05,-131 259.05,-131"/>
<text text-anchor="middle" x="293.55" y="-161.8" font-family="Times,serif" font-size="14.00">0 &#45;&gt; 32:32</text>
<polyline fill="none" stroke="black" points="247.05,-154 340.05,-154 "/>
<text text-anchor="middle" x="293.55" y="-138.8" font-family="Times,serif" font-size="14.00">31:0 &#45; 31:0</text>
</g>
<!-- n9&#45;&gt;x3 -->
<g id="edge14" class="edge">
<title>n9:e&#45;&gt;x3:w</title>
<path fill="none" stroke="#e6ab02" stroke-width="3" d="M211.05,-142C223.05,-142 228.3,-142 236.92,-142"/>
<polygon fill="#e6ab02" stroke="#e6ab02" stroke-width="3" points="237.05,-145.5 247.05,-142 237.05,-138.5 237.05,-145.5"/>
</g>
<!-- n10 -->
<g id="node7" class="node">
<title>n10</title>
<polygon fill="none" stroke="black" points="189.46,-33.54 189.46,-48.46 140.29,-59 70.76,-59 21.59,-48.46 21.59,-33.54 70.76,-23 140.29,-23 189.46,-33.54"/>
<text text-anchor="middle" x="105.52" y="-37.3" font-family="Times,serif" font-size="14.00">io_wavelength</text>
</g>
<!-- x5 -->
<g id="node16" class="node">
<title>x5</title>
<path fill="none" stroke="black" d="M259.05,-30C259.05,-30 328.05,-30 328.05,-30 334.05,-30 340.05,-36 340.05,-42 340.05,-42 340.05,-64 340.05,-64 340.05,-70 334.05,-76 328.05,-76 328.05,-76 259.05,-76 259.05,-76 253.05,-76 247.05,-70 247.05,-64 247.05,-64 247.05,-42 247.05,-42 247.05,-36 253.05,-30 259.05,-30"/>
<text text-anchor="middle" x="293.55" y="-60.8" font-family="Times,serif" font-size="14.00">0 &#45;&gt; 32:12</text>
<polyline fill="none" stroke="black" points="247.05,-53 340.05,-53 "/>
<text text-anchor="middle" x="293.55" y="-37.8" font-family="Times,serif" font-size="14.00">11:0 &#45; 11:0</text>
</g>
<!-- n10&#45;&gt;x5 -->
<g id="edge2" class="edge">
<title>n10:e&#45;&gt;x5:w</title>
<path fill="none" stroke="#e7298a" stroke-width="3" d="M190.52,-41C211.92,-41 219.65,-41 236.98,-41"/>
<polygon fill="#e7298a" stroke="#e7298a" stroke-width="3" points="237.05,-44.5 247.05,-41 237.05,-37.5 237.05,-44.5"/>
</g>
<!-- v0 -->
<g id="node8" class="node">
<title>v0</title>
<ellipse fill="none" stroke="black" cx="1288.52" cy="-137" rx="118.08" ry="18"/>
<text text-anchor="middle" x="1288.52" y="-133.3" font-family="Times,serif" font-size="14.00">16&#39;1000000000000001</text>
</g>
<!-- v0&#45;&gt;c15 -->
<g id="edge15" class="edge">
<title>v0:e&#45;&gt;c15:w</title>
<path fill="none" stroke="#a6761d" stroke-width="3" d="M1406.8,-137C1418.8,-137 1424.05,-137 1432.68,-137"/>
<polygon fill="#a6761d" stroke="#a6761d" stroke-width="3" points="1432.8,-140.5 1442.8,-137 1432.8,-133.5 1432.8,-140.5"/>
</g>
<!-- v1 -->
<g id="node9" class="node">
<title>v1</title>
<ellipse fill="none" stroke="black" cx="1288.52" cy="-191" rx="118.08" ry="18"/>
<text text-anchor="middle" x="1288.52" y="-187.3" font-family="Times,serif" font-size="14.00">16&#39;0111111111111111</text>
</g>
<!-- v1&#45;&gt;c15 -->
<g id="edge16" class="edge">
<title>v1:e&#45;&gt;c15:w</title>
<path fill="none" stroke="#7570b3" stroke-width="3" d="M1406.8,-191C1423.8,-191 1423.08,-170.93 1433.15,-163.09"/>
<polygon fill="#7570b3" stroke="#7570b3" stroke-width="3" points="1434.35,-166.38 1442.8,-160 1432.21,-159.71 1434.35,-166.38"/>
</g>
<!-- x7 -->
<g id="node18" class="node">
<title>x7</title>
<path fill="none" stroke="black" d="M1629.8,-155C1629.8,-155 1599.8,-155 1599.8,-155 1593.8,-155 1587.8,-149 1587.8,-143 1587.8,-143 1587.8,-131 1587.8,-131 1587.8,-125 1593.8,-119 1599.8,-119 1599.8,-119 1629.8,-119 1629.8,-119 1635.8,-119 1641.8,-125 1641.8,-131 1641.8,-131 1641.8,-143 1641.8,-143 1641.8,-149 1635.8,-155 1629.8,-155"/>
<text text-anchor="middle" x="1614.8" y="-133.3" font-family="Times,serif" font-size="14.00">BUF</text>
</g>
<!-- c15&#45;&gt;x7 -->
<g id="edge1" class="edge">
<title>c15:e&#45;&gt;x7:w</title>
<path fill="none" stroke="#e7298a" stroke-width="3" d="M1551.8,-137C1563.8,-137 1569.05,-137 1577.68,-137"/>
<polygon fill="#e7298a" stroke="#e7298a" stroke-width="3" points="1577.8,-140.5 1587.8,-137 1577.8,-133.5 1577.8,-140.5"/>
</g>
<!-- x6 -->
<g id="node17" class="node">
<title>x6</title>
<path fill="none" stroke="black" d="M1122.23,-101C1122.23,-101 1092.23,-101 1092.23,-101 1086.23,-101 1080.23,-95 1080.23,-89 1080.23,-89 1080.23,-77 1080.23,-77 1080.23,-71 1086.23,-65 1092.23,-65 1092.23,-65 1122.23,-65 1122.23,-65 1128.23,-65 1134.23,-71 1134.23,-77 1134.23,-77 1134.23,-89 1134.23,-89 1134.23,-95 1128.23,-101 1122.23,-101"/>
<text text-anchor="middle" x="1107.23" y="-79.3" font-family="Times,serif" font-size="14.00">BUF</text>
</g>
<!-- c16&#45;&gt;x6 -->
<g id="edge3" class="edge">
<title>c16:e&#45;&gt;x6:w</title>
<path fill="none" stroke="#7570b3" d="M1044.23,-83C1056.23,-83 1061.48,-83 1070.1,-83"/>
<polygon fill="#7570b3" stroke="#7570b3" points="1070.23,-86.5 1080.23,-83 1070.23,-79.5 1070.23,-86.5"/>
</g>
<!-- v2 -->
<g id="node12" class="node">
<title>v2</title>
<ellipse fill="none" stroke="black" cx="443.15" cy="-100" rx="27" ry="18"/>
<text text-anchor="middle" x="443.15" y="-96.3" font-family="Times,serif" font-size="14.00">1</text>
</g>
<!-- v2&#45;&gt;c17 -->
<g id="edge17" class="edge">
<title>v2:e&#45;&gt;c17:w</title>
<path fill="none" stroke="#e7298a" stroke-width="3" d="M471.15,-100C508.04,-100 519.74,-100.83 552.11,-100.98"/>
<polygon fill="#e7298a" stroke="#e7298a" stroke-width="3" points="552.34,-104.48 562.34,-101 552.35,-97.48 552.34,-104.48"/>
</g>
<!-- x4 -->
<g id="node15" class="node">
<title>x4</title>
<path fill="none" stroke="black" d="M758.44,-129C758.44,-129 728.44,-129 728.44,-129 722.44,-129 716.44,-123 716.44,-117 716.44,-117 716.44,-105 716.44,-105 716.44,-99 722.44,-93 728.44,-93 728.44,-93 758.44,-93 758.44,-93 764.44,-93 770.44,-99 770.44,-105 770.44,-105 770.44,-117 770.44,-117 770.44,-123 764.44,-129 758.44,-129"/>
<text text-anchor="middle" x="743.44" y="-107.3" font-family="Times,serif" font-size="14.00">BUF</text>
</g>
<!-- c17&#45;&gt;x4 -->
<g id="edge4" class="edge">
<title>c17:e&#45;&gt;x4:w</title>
<path fill="none" stroke="#e6ab02" stroke-width="3" d="M664.34,-113C683.71,-113 690.91,-111.6 706.29,-111.14"/>
<polygon fill="#e6ab02" stroke="#e6ab02" stroke-width="3" points="706.49,-114.64 716.44,-111 706.39,-107.64 706.49,-114.64"/>
</g>
<!-- x3&#45;&gt;n7 -->
<g id="edge11" class="edge">
<title>x3:e&#45;&gt;n7:w</title>
<path fill="none" stroke="#7570b3" stroke-width="3" d="M340.05,-154C352.05,-154 357.3,-154 365.92,-154"/>
<polygon fill="#7570b3" stroke="#7570b3" stroke-width="3" points="366.05,-157.5 376.05,-154 366.05,-150.5 366.05,-157.5"/>
</g>
<!-- x4&#45;&gt;n6 -->
<g id="edge9" class="edge">
<title>x4:e&#45;&gt;n6:w</title>
<path fill="none" stroke="#666666" stroke-width="3" d="M770.44,-111C782.46,-111 787.69,-109.88 796.31,-109.31"/>
<polygon fill="#666666" stroke="#666666" stroke-width="3" points="796.55,-112.81 806.44,-109 796.34,-105.81 796.55,-112.81"/>
</g>
<!-- x5&#45;&gt;n5 -->
<g id="edge7" class="edge">
<title>x5:e&#45;&gt;n5:w</title>
<path fill="none" stroke="#d95f02" stroke-width="3" d="M340.05,-53C428.2,-53 452.76,-53 536.07,-53"/>
<polygon fill="#d95f02" stroke="#d95f02" stroke-width="3" points="536.24,-56.5 546.24,-53 536.24,-49.5 536.24,-56.5"/>
</g>
<!-- x6&#45;&gt;n4 -->
<g id="edge5" class="edge">
<title>x6:e&#45;&gt;n4:w</title>
<path fill="none" stroke="#66a61e" d="M1134.23,-83C1175.55,-83 1188.42,-83 1225.08,-83"/>
<polygon fill="#66a61e" stroke="#66a61e" points="1225.52,-86.5 1235.52,-83 1225.52,-79.5 1225.52,-86.5"/>
</g>
<!-- x7&#45;&gt;n8 -->
<g id="edge13" class="edge">
<title>x7:e&#45;&gt;n8:w</title>
<path fill="none" stroke="#1b9e77" stroke-width="3" d="M1641.8,-137C1653.8,-137 1659.05,-137 1667.68,-137"/>
<polygon fill="#1b9e77" stroke="#1b9e77" stroke-width="3" points="1667.8,-140.5 1677.8,-137 1667.8,-133.5 1667.8,-140.5"/>
</g>
</g>
</svg>
