<?xml version="1.0" encoding="UTF-8" standalone="no"?>
<!DOCTYPE svg PUBLIC "-//W3C//DTD SVG 1.1//EN"
 "http://www.w3.org/Graphics/SVG/1.1/DTD/svg11.dtd">
<!-- Generated by graphviz version 2.40.1 (0)
 -->
<!-- Title: Top Pages: 1 -->
<svg width="9515pt" height="607pt"
 viewBox="0.00 0.00 9515.34 607.00" xmlns="http://www.w3.org/2000/svg" xmlns:xlink="http://www.w3.org/1999/xlink">
<g id="graph0" class="graph" transform="scale(1 1) rotate(0) translate(4 603)">
<title>Top</title>
<polygon fill="#ffffff" stroke="transparent" points="-4,4 -4,-603 9511.3384,-603 9511.3384,4 -4,4"/>
<text text-anchor="middle" x="4753.6692" y="-7.8" font-family="Times,serif" font-size="14.00" fill="#000000">Top</text>
<!-- n7 -->
<g id="node1" class="node">
<title>n7</title>
<polygon fill="none" stroke="#000000" points="4506.7186,-348 4439.5215,-330 4506.7186,-312 4573.9157,-330 4506.7186,-348"/>
<text text-anchor="middle" x="4506.7186" y="-326.3" font-family="Times,serif" font-size="14.00" fill="#000000">_GEN_1</text>
</g>
<!-- c49 -->
<g id="node40" class="node">
<title>c49</title>
<polygon fill="none" stroke="#000000" points="4645.3945,-311.5 4645.3945,-380.5 4754.3945,-380.5 4754.3945,-311.5 4645.3945,-311.5"/>
<text text-anchor="middle" x="4658.8945" y="-365.3" font-family="Times,serif" font-size="14.00" fill="#000000">A</text>
<polyline fill="none" stroke="#000000" points="4645.3945,-357.5 4672.3945,-357.5 "/>
<text text-anchor="middle" x="4658.8945" y="-342.3" font-family="Times,serif" font-size="14.00" fill="#000000">B</text>
<polyline fill="none" stroke="#000000" points="4645.3945,-334.5 4672.3945,-334.5 "/>
<text text-anchor="middle" x="4658.8945" y="-319.3" font-family="Times,serif" font-size="14.00" fill="#000000">S</text>
<polyline fill="none" stroke="#000000" points="4672.3945,-311.5 4672.3945,-380.5 "/>
<text text-anchor="middle" x="4700.3945" y="-349.8" font-family="Times,serif" font-size="14.00" fill="#000000">$470</text>
<text text-anchor="middle" x="4700.3945" y="-334.8" font-family="Times,serif" font-size="14.00" fill="#000000">$mux</text>
<polyline fill="none" stroke="#000000" points="4728.3945,-311.5 4728.3945,-380.5 "/>
<text text-anchor="middle" x="4741.3945" y="-342.3" font-family="Times,serif" font-size="14.00" fill="#000000">Y</text>
</g>
<!-- n7&#45;&gt;c49 -->
<g id="edge82" class="edge">
<title>n7:e&#45;&gt;c49:w</title>
<path fill="none" stroke="#e6ab02" d="M4573.7186,-330C4602.4689,-330 4610.7025,-342.5803 4634.8044,-345.4306"/>
<polygon fill="#e6ab02" stroke="#e6ab02" points="4634.7132,-348.9309 4644.8945,-346 4635.1077,-341.942 4634.7132,-348.9309"/>
</g>
<!-- n8 -->
<g id="node2" class="node">
<title>n8</title>
<polygon fill="none" stroke="#000000" points="3788.3982,-402 3736.1141,-384 3788.3982,-366 3840.6824,-384 3788.3982,-402"/>
<text text-anchor="middle" x="3788.3982" y="-380.3" font-family="Times,serif" font-size="14.00" fill="#000000">_T_39</text>
</g>
<!-- c50 -->
<g id="node42" class="node">
<title>c50</title>
<polygon fill="none" stroke="#000000" points="3912.3676,-295.5 3912.3676,-364.5 4021.3676,-364.5 4021.3676,-295.5 3912.3676,-295.5"/>
<text text-anchor="middle" x="3925.8676" y="-349.3" font-family="Times,serif" font-size="14.00" fill="#000000">A</text>
<polyline fill="none" stroke="#000000" points="3912.3676,-341.5 3939.3676,-341.5 "/>
<text text-anchor="middle" x="3925.8676" y="-326.3" font-family="Times,serif" font-size="14.00" fill="#000000">B</text>
<polyline fill="none" stroke="#000000" points="3912.3676,-318.5 3939.3676,-318.5 "/>
<text text-anchor="middle" x="3925.8676" y="-303.3" font-family="Times,serif" font-size="14.00" fill="#000000">S</text>
<polyline fill="none" stroke="#000000" points="3939.3676,-295.5 3939.3676,-364.5 "/>
<text text-anchor="middle" x="3967.3676" y="-333.8" font-family="Times,serif" font-size="14.00" fill="#000000">$469</text>
<text text-anchor="middle" x="3967.3676" y="-318.8" font-family="Times,serif" font-size="14.00" fill="#000000">$mux</text>
<polyline fill="none" stroke="#000000" points="3995.3676,-295.5 3995.3676,-364.5 "/>
<text text-anchor="middle" x="4008.3676" y="-326.3" font-family="Times,serif" font-size="14.00" fill="#000000">Y</text>
</g>
<!-- n8&#45;&gt;c50 -->
<g id="edge84" class="edge">
<title>n8:e&#45;&gt;c50:w</title>
<path fill="none" stroke="#a6761d" d="M3840.3982,-384C3871.2348,-384 3876.3703,-359.4104 3901.5848,-354.0314"/>
<polygon fill="#a6761d" stroke="#a6761d" points="3902.2669,-357.4807 3911.8676,-353 3901.5682,-350.5156 3902.2669,-357.4807"/>
</g>
<!-- n9 -->
<g id="node3" class="node">
<title>n9</title>
<polygon fill="none" stroke="#000000" points="3788.3982,-294 3736.1141,-276 3788.3982,-258 3840.6824,-276 3788.3982,-294"/>
<text text-anchor="middle" x="3788.3982" y="-272.3" font-family="Times,serif" font-size="14.00" fill="#000000">_T_37</text>
</g>
<!-- n9&#45;&gt;c50 -->
<g id="edge86" class="edge">
<title>n9:e&#45;&gt;c50:w</title>
<path fill="none" stroke="#e6ab02" d="M3840.3982,-276C3871.2348,-276 3876.3703,-300.5896 3901.5848,-305.9686"/>
<polygon fill="#e6ab02" stroke="#e6ab02" points="3901.5682,-309.4844 3911.8676,-307 3902.2669,-302.5193 3901.5682,-309.4844"/>
</g>
<!-- n10 -->
<g id="node4" class="node">
<title>n10</title>
<polygon fill="none" stroke="#000000" points="3402.3621,-399 3350.0779,-381 3402.3621,-363 3454.6462,-381 3402.3621,-399"/>
<text text-anchor="middle" x="3402.3621" y="-377.3" font-family="Times,serif" font-size="14.00" fill="#000000">_T_35</text>
</g>
<!-- c51 -->
<g id="node44" class="node">
<title>c51</title>
<polygon fill="none" stroke="#000000" points="3504.0063,-370 3504.0063,-416 3610.0063,-416 3610.0063,-370 3504.0063,-370"/>
<text text-anchor="middle" x="3517.5063" y="-400.8" font-family="Times,serif" font-size="14.00" fill="#000000">A</text>
<polyline fill="none" stroke="#000000" points="3504.0063,-393 3531.0063,-393 "/>
<text text-anchor="middle" x="3517.5063" y="-377.8" font-family="Times,serif" font-size="14.00" fill="#000000">B</text>
<polyline fill="none" stroke="#000000" points="3531.0063,-370 3531.0063,-416 "/>
<text text-anchor="middle" x="3557.5063" y="-396.8" font-family="Times,serif" font-size="14.00" fill="#000000">$468</text>
<text text-anchor="middle" x="3557.5063" y="-381.8" font-family="Times,serif" font-size="14.00" fill="#000000">$eq</text>
<polyline fill="none" stroke="#000000" points="3584.0063,-370 3584.0063,-416 "/>
<text text-anchor="middle" x="3597.0063" y="-389.3" font-family="Times,serif" font-size="14.00" fill="#000000">Y</text>
</g>
<!-- n10&#45;&gt;c51 -->
<g id="edge4" class="edge">
<title>n10:e&#45;&gt;c51:w</title>
<path fill="none" stroke="#7570b3" stroke-width="3" d="M3454.3621,-381C3472.6339,-381 3479.5572,-381 3493.928,-381"/>
<polygon fill="#7570b3" stroke="#7570b3" stroke-width="3" points="3494.0063,-384.5001 3504.0063,-381 3494.0062,-377.5001 3494.0063,-384.5001"/>
</g>
<!-- c52 -->
<g id="node46" class="node">
<title>c52</title>
<polygon fill="none" stroke="#000000" points="3504.0063,-259 3504.0063,-305 3610.0063,-305 3610.0063,-259 3504.0063,-259"/>
<text text-anchor="middle" x="3517.5063" y="-289.8" font-family="Times,serif" font-size="14.00" fill="#000000">A</text>
<polyline fill="none" stroke="#000000" points="3504.0063,-282 3531.0063,-282 "/>
<text text-anchor="middle" x="3517.5063" y="-266.8" font-family="Times,serif" font-size="14.00" fill="#000000">B</text>
<polyline fill="none" stroke="#000000" points="3531.0063,-259 3531.0063,-305 "/>
<text text-anchor="middle" x="3557.5063" y="-285.8" font-family="Times,serif" font-size="14.00" fill="#000000">$467</text>
<text text-anchor="middle" x="3557.5063" y="-270.8" font-family="Times,serif" font-size="14.00" fill="#000000">$eq</text>
<polyline fill="none" stroke="#000000" points="3584.0063,-259 3584.0063,-305 "/>
<text text-anchor="middle" x="3597.0063" y="-278.3" font-family="Times,serif" font-size="14.00" fill="#000000">Y</text>
</g>
<!-- n10&#45;&gt;c52 -->
<g id="edge5" class="edge">
<title>n10:e&#45;&gt;c52:w</title>
<path fill="none" stroke="#7570b3" stroke-width="3" d="M3454.3621,-381C3504.3937,-381 3458.0189,-285.8651 3493.7402,-271.7435"/>
<polygon fill="#7570b3" stroke="#7570b3" stroke-width="3" points="3494.7335,-275.125 3504.0063,-270 3493.5614,-268.2239 3494.7335,-275.125"/>
</g>
<!-- n11 -->
<g id="node5" class="node">
<title>n11</title>
<polygon fill="none" stroke="#000000" points="8348.3221,-113 8296.0379,-95 8348.3221,-77 8400.6062,-95 8348.3221,-113"/>
<text text-anchor="middle" x="8348.3221" y="-91.3" font-family="Times,serif" font-size="14.00" fill="#000000">_T_31</text>
</g>
<!-- x32 -->
<g id="node81" class="node">
<title>x32</title>
<path fill="none" stroke="#000000" d="M8478.714,-113C8478.714,-113 8448.714,-113 8448.714,-113 8442.714,-113 8436.714,-107 8436.714,-101 8436.714,-101 8436.714,-89 8436.714,-89 8436.714,-83 8442.714,-77 8448.714,-77 8448.714,-77 8478.714,-77 8478.714,-77 8484.714,-77 8490.714,-83 8490.714,-89 8490.714,-89 8490.714,-101 8490.714,-101 8490.714,-107 8484.714,-113 8478.714,-113"/>
<text text-anchor="middle" x="8463.714" y="-91.3" font-family="Times,serif" font-size="14.00" fill="#000000">BUF</text>
</g>
<!-- n11&#45;&gt;x32 -->
<g id="edge7" class="edge">
<title>n11:e&#45;&gt;x32:w</title>
<path fill="none" stroke="#e6ab02" stroke-width="3" d="M8400.3221,-95C8412.4527,-95 8417.7599,-95 8426.4788,-95"/>
<polygon fill="#e6ab02" stroke="#e6ab02" stroke-width="3" points="8426.7141,-98.5001 8436.714,-95 8426.714,-91.5001 8426.7141,-98.5001"/>
</g>
<!-- n12 -->
<g id="node6" class="node">
<title>n12</title>
<polygon fill="none" stroke="#000000" points="8066.7542,-113 8014.4701,-95 8066.7542,-77 8119.0384,-95 8066.7542,-113"/>
<text text-anchor="middle" x="8066.7542" y="-91.3" font-family="Times,serif" font-size="14.00" fill="#000000">_T_30</text>
</g>
<!-- x9 -->
<g id="node58" class="node">
<title>x9</title>
<path fill="none" stroke="#000000" d="M8222.5381,-113C8222.5381,-113 8192.5381,-113 8192.5381,-113 8186.5381,-113 8180.5381,-107 8180.5381,-101 8180.5381,-101 8180.5381,-89 8180.5381,-89 8180.5381,-83 8186.5381,-77 8192.5381,-77 8192.5381,-77 8222.5381,-77 8222.5381,-77 8228.5381,-77 8234.5381,-83 8234.5381,-89 8234.5381,-89 8234.5381,-101 8234.5381,-101 8234.5381,-107 8228.5381,-113 8222.5381,-113"/>
<text text-anchor="middle" x="8207.5381" y="-91.3" font-family="Times,serif" font-size="14.00" fill="#000000">BUF</text>
</g>
<!-- n12&#45;&gt;x9 -->
<g id="edge9" class="edge">
<title>n12:e&#45;&gt;x9:w</title>
<path fill="none" stroke="#66a61e" stroke-width="3" d="M8118.7542,-95C8142.4595,-95 8150.8166,-95 8170.3251,-95"/>
<polygon fill="#66a61e" stroke="#66a61e" stroke-width="3" points="8170.5382,-98.5001 8180.5381,-95 8170.5381,-91.5001 8170.5382,-98.5001"/>
</g>
<!-- n13 -->
<g id="node7" class="node">
<title>n13</title>
<polygon fill="none" stroke="#000000" points="8207.5381,-303 8155.254,-285 8207.5381,-267 8259.8223,-285 8207.5381,-303"/>
<text text-anchor="middle" x="8207.5381" y="-281.3" font-family="Times,serif" font-size="14.00" fill="#000000">_T_29</text>
</g>
<!-- n14 -->
<g id="node8" class="node">
<title>n14</title>
<polygon fill="none" stroke="#000000" points="8641.6087,-112 8526.8193,-94 8641.6087,-76 8756.3981,-94 8641.6087,-112"/>
<text text-anchor="middle" x="8641.6087" y="-90.3" font-family="Times,serif" font-size="14.00" fill="#000000">PWM_io_target</text>
</g>
<!-- c57 -->
<g id="node52" class="node">
<title>c57</title>
<polygon fill="none" stroke="#000000" points="8792.5034,-56.5 8792.5034,-125.5 8995.5034,-125.5 8995.5034,-56.5 8792.5034,-56.5"/>
<text text-anchor="middle" x="8832.5034" y="-110.3" font-family="Times,serif" font-size="14.00" fill="#000000">clock</text>
<polyline fill="none" stroke="#000000" points="8792.5034,-102.5 8872.5034,-102.5 "/>
<text text-anchor="middle" x="8832.5034" y="-87.3" font-family="Times,serif" font-size="14.00" fill="#000000">io_target</text>
<polyline fill="none" stroke="#000000" points="8792.5034,-79.5 8872.5034,-79.5 "/>
<text text-anchor="middle" x="8832.5034" y="-64.3" font-family="Times,serif" font-size="14.00" fill="#000000">reset</text>
<polyline fill="none" stroke="#000000" points="8872.5034,-56.5 8872.5034,-125.5 "/>
<text text-anchor="middle" x="8900.0034" y="-94.8" font-family="Times,serif" font-size="14.00" fill="#000000">PWM</text>
<text text-anchor="middle" x="8900.0034" y="-79.8" font-family="Times,serif" font-size="14.00" fill="#000000">PWM</text>
<polyline fill="none" stroke="#000000" points="8927.5034,-56.5 8927.5034,-125.5 "/>
<text text-anchor="middle" x="8961.5034" y="-87.3" font-family="Times,serif" font-size="14.00" fill="#000000">io_high</text>
</g>
<!-- n14&#45;&gt;c57 -->
<g id="edge12" class="edge">
<title>n14:e&#45;&gt;c57:w</title>
<path fill="none" stroke="#666666" stroke-width="3" d="M8756.5034,-94C8768.5449,-94 8773.743,-92.3125 8782.3628,-91.4688"/>
<polygon fill="#666666" stroke="#666666" stroke-width="3" points="8782.6757,-94.9581 8792.5034,-91 8782.3524,-87.9656 8782.6757,-94.9581"/>
</g>
<!-- n15 -->
<g id="node9" class="node">
<title>n15</title>
<polygon fill="none" stroke="#000000" points="9135.3681,-109 9031.6384,-91 9135.3681,-73 9239.0978,-91 9135.3681,-109"/>
<text text-anchor="middle" x="9135.3681" y="-87.3" font-family="Times,serif" font-size="14.00" fill="#000000">PWM_io_high</text>
</g>
<!-- x15 -->
<g id="node64" class="node">
<title>x15</title>
<path fill="none" stroke="#000000" d="M9317.2329,-109C9317.2329,-109 9287.2329,-109 9287.2329,-109 9281.2329,-109 9275.2329,-103 9275.2329,-97 9275.2329,-97 9275.2329,-85 9275.2329,-85 9275.2329,-79 9281.2329,-73 9287.2329,-73 9287.2329,-73 9317.2329,-73 9317.2329,-73 9323.2329,-73 9329.2329,-79 9329.2329,-85 9329.2329,-85 9329.2329,-97 9329.2329,-97 9329.2329,-103 9323.2329,-109 9317.2329,-109"/>
<text text-anchor="middle" x="9302.2329" y="-87.3" font-family="Times,serif" font-size="14.00" fill="#000000">BUF</text>
</g>
<!-- n15&#45;&gt;x15 -->
<g id="edge14" class="edge">
<title>n15:e&#45;&gt;x15:w</title>
<path fill="none" stroke="#7570b3" d="M9239.2329,-91C9251.2329,-91 9256.4829,-91 9265.1079,-91"/>
<polygon fill="#7570b3" stroke="#7570b3" points="9265.2329,-94.5001 9275.2329,-91 9265.2329,-87.5001 9265.2329,-94.5001"/>
</g>
<!-- n16 -->
<g id="node10" class="node">
<title>n16</title>
<polygon fill="none" stroke="#000000" points="3966.8676,-60 3876.7127,-42 3966.8676,-24 4057.0225,-42 3966.8676,-60"/>
<text text-anchor="middle" x="3966.8676" y="-38.3" font-family="Times,serif" font-size="14.00" fill="#000000">PWM_reset</text>
</g>
<!-- n16&#45;&gt;c57 -->
<g id="edge16" class="edge">
<title>n16:e&#45;&gt;c57:w</title>
<path fill="none" stroke="#1b9e77" d="M4056.8676,-42C4256.8014,-42 4306.7848,-42 4506.7186,-42 4506.7186,-42 4506.7186,-42 8463.714,-42 8533.8571,-42 8703.7539,-65.8136 8782.4695,-67.8601"/>
<polygon fill="#1b9e77" stroke="#1b9e77" points="8782.4555,-71.3602 8792.5034,-68 8782.5531,-64.3608 8782.4555,-71.3602"/>
</g>
<!-- n17 -->
<g id="node11" class="node">
<title>n17</title>
<polygon fill="none" stroke="#000000" points="4699.8945,-591 4609.7396,-573 4699.8945,-555 4790.0494,-573 4699.8945,-591"/>
<text text-anchor="middle" x="4699.8945" y="-569.3" font-family="Times,serif" font-size="14.00" fill="#000000">PWM_clock</text>
</g>
<!-- n17&#45;&gt;c57 -->
<g id="edge18" class="edge">
<title>n17:e&#45;&gt;c57:w</title>
<path fill="none" stroke="#e6ab02" d="M4789.8945,-573C5320.3211,-573 5452.9172,-568 5983.3438,-568 5983.3438,-568 5983.3438,-568 8463.714,-568 8584.875,-568 8663.5465,-138.4887 8782.3839,-114.9998"/>
<polygon fill="#e6ab02" stroke="#e6ab02" points="8782.8959,-118.4663 8792.5034,-114 8782.2077,-111.5002 8782.8959,-118.4663"/>
</g>
<!-- n18 -->
<g id="node12" class="node">
<title>n18</title>
<polygon fill="none" stroke="#000000" points="1978.7243,-326 1736.7473,-308 1978.7243,-290 2220.7012,-308 1978.7243,-326"/>
<text text-anchor="middle" x="1978.7243" y="-304.3" font-family="Times,serif" font-size="14.00" fill="#000000">SPIInputHandler_io_RX_data_valid</text>
</g>
<!-- c62 -->
<g id="node53" class="node">
<title>c62</title>
<polygon fill="none" stroke="#000000" points="2256.4626,-284 2256.4626,-376 2654.4626,-376 2654.4626,-284 2256.4626,-284"/>
<text text-anchor="middle" x="2324.4626" y="-360.8" font-family="Times,serif" font-size="14.00" fill="#000000">clock</text>
<polyline fill="none" stroke="#000000" points="2256.4626,-353 2392.4626,-353 "/>
<text text-anchor="middle" x="2324.4626" y="-337.8" font-family="Times,serif" font-size="14.00" fill="#000000">io_RX_data</text>
<polyline fill="none" stroke="#000000" points="2256.4626,-330 2392.4626,-330 "/>
<text text-anchor="middle" x="2324.4626" y="-314.8" font-family="Times,serif" font-size="14.00" fill="#000000">io_RX_data_valid</text>
<polyline fill="none" stroke="#000000" points="2256.4626,-307 2392.4626,-307 "/>
<text text-anchor="middle" x="2324.4626" y="-291.8" font-family="Times,serif" font-size="14.00" fill="#000000">reset</text>
<polyline fill="none" stroke="#000000" points="2392.4626,-284 2392.4626,-376 "/>
<text text-anchor="middle" x="2460.9626" y="-333.8" font-family="Times,serif" font-size="14.00" fill="#000000">SPIInputHandler</text>
<text text-anchor="middle" x="2460.9626" y="-318.8" font-family="Times,serif" font-size="14.00" fill="#000000">SPIInputHandler</text>
<polyline fill="none" stroke="#000000" points="2529.4626,-284 2529.4626,-376 "/>
<text text-anchor="middle" x="2591.9626" y="-349.3" font-family="Times,serif" font-size="14.00" fill="#000000">io_packet_data</text>
<polyline fill="none" stroke="#000000" points="2529.4626,-330 2654.4626,-330 "/>
<text text-anchor="middle" x="2591.9626" y="-303.3" font-family="Times,serif" font-size="14.00" fill="#000000">io_packet_valid</text>
</g>
<!-- n18&#45;&gt;c62 -->
<g id="edge20" class="edge">
<title>n18:e&#45;&gt;c62:w</title>
<path fill="none" stroke="#a6761d" d="M2220.4626,-308C2233.0467,-308 2237.6958,-313.7428 2246.4363,-316.5245"/>
<polygon fill="#a6761d" stroke="#a6761d" points="2246.0596,-320.0066 2256.4626,-318 2247.0788,-313.0812 2246.0596,-320.0066"/>
</g>
<!-- n19 -->
<g id="node13" class="node">
<title>n19</title>
<polygon fill="none" stroke="#000000" points="1978.7243,-380 1774.6184,-362 1978.7243,-344 2182.8301,-362 1978.7243,-380"/>
<text text-anchor="middle" x="1978.7243" y="-358.3" font-family="Times,serif" font-size="14.00" fill="#000000">SPIInputHandler_io_RX_data</text>
</g>
<!-- n19&#45;&gt;c62 -->
<g id="edge22" class="edge">
<title>n19:e&#45;&gt;c62:w</title>
<path fill="none" stroke="#7570b3" stroke-width="3" d="M2182.7243,-362C2212.967,-362 2220.8952,-346.1357 2246.2566,-342.6654"/>
<polygon fill="#7570b3" stroke="#7570b3" stroke-width="3" points="2246.7116,-346.1433 2256.4626,-342 2246.2561,-339.1581 2246.7116,-346.1433"/>
</g>
<!-- n20 -->
<g id="node14" class="node">
<title>n20</title>
<polygon fill="none" stroke="#000000" points="2922.0903,-388 2693.3499,-370 2922.0903,-352 3150.8307,-370 2922.0903,-388"/>
<text text-anchor="middle" x="2922.0903" y="-366.3" font-family="Times,serif" font-size="14.00" fill="#000000">SPIInputHandler_io_packet_data</text>
</g>
<!-- x10 -->
<g id="node59" class="node">
<title>x10</title>
<path fill="none" stroke="#000000" d="M3219.7179,-368C3219.7179,-368 3270.7179,-368 3270.7179,-368 3276.7179,-368 3282.7179,-374 3282.7179,-380 3282.7179,-380 3282.7179,-392 3282.7179,-392 3282.7179,-398 3276.7179,-404 3270.7179,-404 3270.7179,-404 3219.7179,-404 3219.7179,-404 3213.7179,-404 3207.7179,-398 3207.7179,-392 3207.7179,-392 3207.7179,-380 3207.7179,-380 3207.7179,-374 3213.7179,-368 3219.7179,-368"/>
<text text-anchor="middle" x="3245.2179" y="-382.3" font-family="Times,serif" font-size="14.00" fill="#000000">7:0 &#45; 7:0</text>
</g>
<!-- n20&#45;&gt;x10 -->
<g id="edge25" class="edge">
<title>n20:e&#45;&gt;x10:w</title>
<path fill="none" stroke="#1b9e77" stroke-width="3" d="M3151.0903,-370C3173.1793,-370 3179.5392,-381.6025 3196.9587,-385.047"/>
<polygon fill="#1b9e77" stroke="#1b9e77" stroke-width="3" points="3196.937,-388.56 3207.2179,-386 3197.5845,-381.59 3196.937,-388.56"/>
</g>
<!-- x18 -->
<g id="node67" class="node">
<title>x18</title>
<path fill="none" stroke="#000000" d="M3210.7179,-445C3210.7179,-445 3279.7179,-445 3279.7179,-445 3285.7179,-445 3291.7179,-451 3291.7179,-457 3291.7179,-457 3291.7179,-469 3291.7179,-469 3291.7179,-475 3285.7179,-481 3279.7179,-481 3279.7179,-481 3210.7179,-481 3210.7179,-481 3204.7179,-481 3198.7179,-475 3198.7179,-469 3198.7179,-469 3198.7179,-457 3198.7179,-457 3198.7179,-451 3204.7179,-445 3210.7179,-445"/>
<text text-anchor="middle" x="3245.2179" y="-459.3" font-family="Times,serif" font-size="14.00" fill="#000000">87:0 &#45; 87:0</text>
</g>
<!-- n20&#45;&gt;x18 -->
<g id="edge26" class="edge">
<title>n20:e&#45;&gt;x18:w</title>
<path fill="none" stroke="#1b9e77" stroke-width="3" d="M3151.0903,-370C3193.4456,-370 3159.0303,-447.7025 3188.1907,-461.0576"/>
<polygon fill="#1b9e77" stroke="#1b9e77" stroke-width="3" points="3187.7348,-464.5342 3198.2179,-463 3189.0661,-457.662 3187.7348,-464.5342"/>
</g>
<!-- x19 -->
<g id="node68" class="node">
<title>x19</title>
<path fill="none" stroke="#000000" d="M3201.7179,-313C3201.7179,-313 3288.7179,-313 3288.7179,-313 3294.7179,-313 3300.7179,-319 3300.7179,-325 3300.7179,-325 3300.7179,-337 3300.7179,-337 3300.7179,-343 3294.7179,-349 3288.7179,-349 3288.7179,-349 3201.7179,-349 3201.7179,-349 3195.7179,-349 3189.7179,-343 3189.7179,-337 3189.7179,-337 3189.7179,-325 3189.7179,-325 3189.7179,-319 3195.7179,-313 3201.7179,-313"/>
<text text-anchor="middle" x="3245.2179" y="-327.3" font-family="Times,serif" font-size="14.00" fill="#000000">199:0 &#45; 199:0</text>
</g>
<!-- n20&#45;&gt;x19 -->
<g id="edge27" class="edge">
<title>n20:e&#45;&gt;x19:w</title>
<path fill="none" stroke="#1b9e77" stroke-width="3" d="M3151.0903,-370C3171.2935,-370 3167.7948,-343.2542 3179.8505,-334.0603"/>
<polygon fill="#1b9e77" stroke="#1b9e77" stroke-width="3" points="3181.2035,-337.3052 3189.7179,-331 3179.1299,-330.6194 3181.2035,-337.3052"/>
</g>
<!-- n21 -->
<g id="node15" class="node">
<title>n21</title>
<polygon fill="none" stroke="#000000" points="2922.0903,-290 2690.3349,-272 2922.0903,-254 3153.8456,-272 2922.0903,-290"/>
<text text-anchor="middle" x="2922.0903" y="-268.3" font-family="Times,serif" font-size="14.00" fill="#000000">SPIInputHandler_io_packet_valid</text>
</g>
<!-- n21&#45;&gt;c49 -->
<g id="edge29" class="edge">
<title>n21:e&#45;&gt;c49:w</title>
<path fill="none" stroke="#666666" d="M3153.7179,-272C3265.7919,-272 3290.2881,-230 3402.3621,-230 3402.3621,-230 3402.3621,-230 4248.2826,-230 4396.5578,-230 4430.0582,-266.6834 4573.8171,-303 4602.03,-310.1272 4610.2923,-320.3402 4634.6821,-322.5626"/>
<polygon fill="#666666" stroke="#666666" points="4634.7539,-326.0688 4644.8945,-323 4635.0535,-319.0752 4634.7539,-326.0688"/>
</g>
<!-- n22 -->
<g id="node16" class="node">
<title>n22</title>
<polygon fill="none" stroke="#000000" points="775.0888,-224 608.8538,-206 775.0888,-188 941.3239,-206 775.0888,-224"/>
<text text-anchor="middle" x="775.0888" y="-202.3" font-family="Times,serif" font-size="14.00" fill="#000000">SPIInputHandler_reset</text>
</g>
<!-- n22&#45;&gt;c62 -->
<g id="edge31" class="edge">
<title>n22:e&#45;&gt;c62:w</title>
<path fill="none" stroke="#7570b3" d="M941.4563,-206C1279.154,-206 1364.0148,-204.8595 1700.9859,-227 1932.6091,-242.2187 1994.8415,-226.4475 2220.4626,-281 2233.2382,-284.089 2237.4906,-290.6545 2246.4867,-293.5624"/>
<polygon fill="#7570b3" stroke="#7570b3" points="2246.0656,-297.0378 2256.4626,-295 2247.0641,-290.1094 2246.0656,-297.0378"/>
</g>
<!-- n23 -->
<g id="node17" class="node">
<title>n23</title>
<polygon fill="none" stroke="#000000" points="1166.8027,-460 1001.4061,-442 1166.8027,-424 1332.1993,-442 1166.8027,-460"/>
<text text-anchor="middle" x="1166.8027" y="-438.3" font-family="Times,serif" font-size="14.00" fill="#000000">SPIInputHandler_clock</text>
</g>
<!-- n23&#45;&gt;c62 -->
<g id="edge33" class="edge">
<title>n23:e&#45;&gt;c62:w</title>
<path fill="none" stroke="#7570b3" d="M1332.8027,-442C1728.0208,-442 1845.7852,-514.7545 2220.4626,-389 2234.8474,-384.172 2236.9728,-372.0203 2246.6766,-367.1086"/>
<polygon fill="#7570b3" stroke="#7570b3" points="2247.4243,-370.528 2256.4626,-365 2245.9497,-363.685 2247.4243,-370.528"/>
</g>
<!-- n24 -->
<g id="node18" class="node">
<title>n24</title>
<polygon fill="none" stroke="#000000" points="418.303,-329 266.4809,-311 418.303,-293 570.125,-311 418.303,-329"/>
<text text-anchor="middle" x="418.303" y="-307.3" font-family="Times,serif" font-size="14.00" fill="#000000">SPISlave_io_spi_cs_n</text>
</g>
<!-- c63 -->
<g id="node54" class="node">
<title>c63</title>
<polygon fill="none" stroke="#000000" points="618.0888,-252.5 618.0888,-367.5 932.0888,-367.5 932.0888,-252.5 618.0888,-252.5"/>
<text text-anchor="middle" x="667.0888" y="-352.3" font-family="Times,serif" font-size="14.00" fill="#000000">clock</text>
<polyline fill="none" stroke="#000000" points="618.0888,-344.5 716.0888,-344.5 "/>
<text text-anchor="middle" x="667.0888" y="-329.3" font-family="Times,serif" font-size="14.00" fill="#000000">io_spi_clk</text>
<polyline fill="none" stroke="#000000" points="618.0888,-321.5 716.0888,-321.5 "/>
<text text-anchor="middle" x="667.0888" y="-306.3" font-family="Times,serif" font-size="14.00" fill="#000000">io_spi_cs_n</text>
<polyline fill="none" stroke="#000000" points="618.0888,-298.5 716.0888,-298.5 "/>
<text text-anchor="middle" x="667.0888" y="-283.3" font-family="Times,serif" font-size="14.00" fill="#000000">io_spi_mosi</text>
<polyline fill="none" stroke="#000000" points="618.0888,-275.5 716.0888,-275.5 "/>
<text text-anchor="middle" x="667.0888" y="-260.3" font-family="Times,serif" font-size="14.00" fill="#000000">reset</text>
<polyline fill="none" stroke="#000000" points="716.0888,-252.5 716.0888,-367.5 "/>
<text text-anchor="middle" x="756.0888" y="-313.8" font-family="Times,serif" font-size="14.00" fill="#000000">SPISlave</text>
<text text-anchor="middle" x="756.0888" y="-298.8" font-family="Times,serif" font-size="14.00" fill="#000000">SPISlave</text>
<polyline fill="none" stroke="#000000" points="796.0888,-252.5 796.0888,-367.5 "/>
<text text-anchor="middle" x="864.0888" y="-344.8" font-family="Times,serif" font-size="14.00" fill="#000000">io_RX_data</text>
<polyline fill="none" stroke="#000000" points="796.0888,-329.5 932.0888,-329.5 "/>
<text text-anchor="middle" x="864.0888" y="-306.8" font-family="Times,serif" font-size="14.00" fill="#000000">io_RX_data_valid</text>
<polyline fill="none" stroke="#000000" points="796.0888,-291.5 932.0888,-291.5 "/>
<text text-anchor="middle" x="864.0888" y="-268.3" font-family="Times,serif" font-size="14.00" fill="#000000">io_spi_miso</text>
</g>
<!-- n24&#45;&gt;c63 -->
<g id="edge35" class="edge">
<title>n24:e&#45;&gt;c63:w</title>
<path fill="none" stroke="#d95f02" d="M570.303,-311C587.7287,-311 594.4265,-310.3271 607.9969,-310.0853"/>
<polygon fill="#d95f02" stroke="#d95f02" points="608.1188,-313.5845 618.0888,-310 608.0596,-306.5847 608.1188,-313.5845"/>
</g>
<!-- n25 -->
<g id="node19" class="node">
<title>n25</title>
<polygon fill="none" stroke="#000000" points="418.303,-383 275.8642,-365 418.303,-347 560.7417,-365 418.303,-383"/>
<text text-anchor="middle" x="418.303" y="-361.3" font-family="Times,serif" font-size="14.00" fill="#000000">SPISlave_io_spi_clk</text>
</g>
<!-- n25&#45;&gt;c63 -->
<g id="edge37" class="edge">
<title>n25:e&#45;&gt;c63:w</title>
<path fill="none" stroke="#a6761d" d="M561.303,-365C586.425,-365 588.8942,-340.9355 607.9992,-334.5434"/>
<polygon fill="#a6761d" stroke="#a6761d" points="608.7331,-337.972 618.0888,-333 607.6745,-331.0524 608.7331,-337.972"/>
</g>
<!-- n26 -->
<g id="node20" class="node">
<title>n26</title>
<polygon fill="none" stroke="#000000" points="1546.5675,-272 1392.2306,-254 1546.5675,-236 1700.9044,-254 1546.5675,-272"/>
<text text-anchor="middle" x="1546.5675" y="-250.3" font-family="Times,serif" font-size="14.00" fill="#000000">SPISlave_io_spi_miso</text>
</g>
<!-- x14 -->
<g id="node63" class="node">
<title>x14</title>
<path fill="none" stroke="#000000" d="M2470.4626,-259C2470.4626,-259 2440.4626,-259 2440.4626,-259 2434.4626,-259 2428.4626,-253 2428.4626,-247 2428.4626,-247 2428.4626,-235 2428.4626,-235 2428.4626,-229 2434.4626,-223 2440.4626,-223 2440.4626,-223 2470.4626,-223 2470.4626,-223 2476.4626,-223 2482.4626,-229 2482.4626,-235 2482.4626,-235 2482.4626,-247 2482.4626,-247 2482.4626,-253 2476.4626,-259 2470.4626,-259"/>
<text text-anchor="middle" x="2455.4626" y="-237.3" font-family="Times,serif" font-size="14.00" fill="#000000">BUF</text>
</g>
<!-- n26&#45;&gt;x14 -->
<g id="edge39" class="edge">
<title>n26:e&#45;&gt;x14:w</title>
<path fill="none" stroke="#a6761d" d="M1700.9859,-254C2020.8868,-254 2103.3257,-241.2778 2418.1248,-241.0045"/>
<polygon fill="#a6761d" stroke="#a6761d" points="2418.4642,-244.5044 2428.4626,-241 2418.4611,-237.5044 2418.4642,-244.5044"/>
</g>
<!-- n27 -->
<g id="node21" class="node">
<title>n27</title>
<polygon fill="none" stroke="#000000" points="418.303,-275 263.9661,-257 418.303,-239 572.6398,-257 418.303,-275"/>
<text text-anchor="middle" x="418.303" y="-253.3" font-family="Times,serif" font-size="14.00" fill="#000000">SPISlave_io_spi_mosi</text>
</g>
<!-- n27&#45;&gt;c63 -->
<g id="edge41" class="edge">
<title>n27:e&#45;&gt;c63:w</title>
<path fill="none" stroke="#e7298a" d="M572.7214,-257C592.9285,-257 594.1623,-277.9637 608.1438,-284.8425"/>
<polygon fill="#e7298a" stroke="#e7298a" points="607.5741,-288.3002 618.0888,-287 609.0582,-281.4593 607.5741,-288.3002"/>
</g>
<!-- n28 -->
<g id="node22" class="node">
<title>n28</title>
<polygon fill="none" stroke="#000000" points="1166.8027,-380 1014.9806,-362 1166.8027,-344 1318.6248,-362 1166.8027,-380"/>
<text text-anchor="middle" x="1166.8027" y="-358.3" font-family="Times,serif" font-size="14.00" fill="#000000">SPISlave_io_RX_data</text>
</g>
<!-- x28 -->
<g id="node77" class="node">
<title>x28</title>
<path fill="none" stroke="#000000" d="M1561.5675,-380C1561.5675,-380 1531.5675,-380 1531.5675,-380 1525.5675,-380 1519.5675,-374 1519.5675,-368 1519.5675,-368 1519.5675,-356 1519.5675,-356 1519.5675,-350 1525.5675,-344 1531.5675,-344 1531.5675,-344 1561.5675,-344 1561.5675,-344 1567.5675,-344 1573.5675,-350 1573.5675,-356 1573.5675,-356 1573.5675,-368 1573.5675,-368 1573.5675,-374 1567.5675,-380 1561.5675,-380"/>
<text text-anchor="middle" x="1546.5675" y="-358.3" font-family="Times,serif" font-size="14.00" fill="#000000">BUF</text>
</g>
<!-- n28&#45;&gt;x28 -->
<g id="edge43" class="edge">
<title>n28:e&#45;&gt;x28:w</title>
<path fill="none" stroke="#e7298a" stroke-width="3" d="M1318.8027,-362C1404.546,-362 1428.4938,-362 1509.4094,-362"/>
<polygon fill="#e7298a" stroke="#e7298a" stroke-width="3" points="1509.5675,-365.5001 1519.5675,-362 1509.5675,-358.5001 1509.5675,-365.5001"/>
</g>
<!-- n29 -->
<g id="node23" class="node">
<title>n29</title>
<polygon fill="none" stroke="#000000" points="1166.8027,-326 977.6098,-308 1166.8027,-290 1355.9956,-308 1166.8027,-326"/>
<text text-anchor="middle" x="1166.8027" y="-304.3" font-family="Times,serif" font-size="14.00" fill="#000000">SPISlave_io_RX_data_valid</text>
</g>
<!-- x29 -->
<g id="node78" class="node">
<title>x29</title>
<path fill="none" stroke="#000000" d="M1561.5675,-326C1561.5675,-326 1531.5675,-326 1531.5675,-326 1525.5675,-326 1519.5675,-320 1519.5675,-314 1519.5675,-314 1519.5675,-302 1519.5675,-302 1519.5675,-296 1525.5675,-290 1531.5675,-290 1531.5675,-290 1561.5675,-290 1561.5675,-290 1567.5675,-290 1573.5675,-296 1573.5675,-302 1573.5675,-302 1573.5675,-314 1573.5675,-314 1573.5675,-320 1567.5675,-326 1561.5675,-326"/>
<text text-anchor="middle" x="1546.5675" y="-304.3" font-family="Times,serif" font-size="14.00" fill="#000000">BUF</text>
</g>
<!-- n29&#45;&gt;x29 -->
<g id="edge45" class="edge">
<title>n29:e&#45;&gt;x29:w</title>
<path fill="none" stroke="#e7298a" d="M1356.1491,-308C1425.2331,-308 1445.034,-308 1509.3052,-308"/>
<polygon fill="#e7298a" stroke="#e7298a" points="1509.5675,-311.5001 1519.5675,-308 1509.5675,-304.5001 1509.5675,-311.5001"/>
</g>
<!-- n30 -->
<g id="node24" class="node">
<title>n30</title>
<polygon fill="none" stroke="#000000" points="418.303,-221 304.3519,-203 418.303,-185 532.254,-203 418.303,-221"/>
<text text-anchor="middle" x="418.303" y="-199.3" font-family="Times,serif" font-size="14.00" fill="#000000">SPISlave_reset</text>
</g>
<!-- n30&#45;&gt;c63 -->
<g id="edge48" class="edge">
<title>n30:e&#45;&gt;c63:w</title>
<path fill="none" stroke="#d95f02" d="M532.303,-203C575.4314,-203 572.1882,-254.8411 608.071,-262.9412"/>
<polygon fill="#d95f02" stroke="#d95f02" points="607.7763,-266.4295 618.0888,-264 608.5121,-259.4683 607.7763,-266.4295"/>
</g>
<!-- n31 -->
<g id="node25" class="node">
<title>n31</title>
<polygon fill="none" stroke="#000000" points="418.303,-437 305.1902,-419 418.303,-401 531.4157,-419 418.303,-437"/>
<text text-anchor="middle" x="418.303" y="-415.3" font-family="Times,serif" font-size="14.00" fill="#000000">SPISlave_clock</text>
</g>
<!-- n31&#45;&gt;c63 -->
<g id="edge50" class="edge">
<title>n31:e&#45;&gt;c63:w</title>
<path fill="none" stroke="#a6761d" d="M531.303,-419C553.2771,-419 554.8914,-404.8434 572.7214,-392 590.3438,-379.3061 592.2013,-362.4042 607.8131,-357.4323"/>
<polygon fill="#a6761d" stroke="#a6761d" points="608.6678,-360.8471 618.0888,-356 607.7014,-353.9141 608.6678,-360.8471"/>
</g>
<!-- n32 -->
<g id="node26" class="node">
<title>n32</title>
<polygon fill="none" stroke="#000000" points="7153.0197,-333 6949.7521,-315 7153.0197,-297 7356.2873,-315 7153.0197,-333"/>
<text text-anchor="middle" x="7153.0197" y="-311.3" font-family="Times,serif" font-size="14.00" fill="#000000">SoundTopLevel_io_resultOut</text>
</g>
<!-- c53 -->
<g id="node48" class="node">
<title>c53</title>
<polygon fill="none" stroke="#000000" points="7565.6316,-78 7565.6316,-124 7671.6316,-124 7671.6316,-78 7565.6316,-78"/>
<text text-anchor="middle" x="7579.1316" y="-108.8" font-family="Times,serif" font-size="14.00" fill="#000000">A</text>
<polyline fill="none" stroke="#000000" points="7565.6316,-101 7592.6316,-101 "/>
<text text-anchor="middle" x="7579.1316" y="-85.8" font-family="Times,serif" font-size="14.00" fill="#000000">B</text>
<polyline fill="none" stroke="#000000" points="7592.6316,-78 7592.6316,-124 "/>
<text text-anchor="middle" x="7619.1316" y="-104.8" font-family="Times,serif" font-size="14.00" fill="#000000">$466</text>
<text text-anchor="middle" x="7619.1316" y="-89.8" font-family="Times,serif" font-size="14.00" fill="#000000">$add</text>
<polyline fill="none" stroke="#000000" points="7645.6316,-78 7645.6316,-124 "/>
<text text-anchor="middle" x="7658.6316" y="-97.3" font-family="Times,serif" font-size="14.00" fill="#000000">Y</text>
</g>
<!-- n32&#45;&gt;c53 -->
<g id="edge52" class="edge">
<title>n32:e&#45;&gt;c53:w</title>
<path fill="none" stroke="#1b9e77" stroke-width="3" d="M7356.0197,-315C7399.5283,-315 7372.2511,-260.7443 7400.9009,-228 7457.3999,-163.4264 7474.9775,-116.7641 7555.4937,-113.2171"/>
<polygon fill="#1b9e77" stroke="#1b9e77" stroke-width="3" points="7555.7088,-116.7134 7565.6316,-113 7555.5589,-109.715 7555.7088,-116.7134"/>
</g>
<!-- x6 -->
<g id="node51" class="node">
<title>x6</title>
<path fill="none" stroke="#000000" d="M7575.1316,-292C7575.1316,-292 7662.1316,-292 7662.1316,-292 7668.1316,-292 7674.1316,-298 7674.1316,-304 7674.1316,-304 7674.1316,-326 7674.1316,-326 7674.1316,-332 7668.1316,-338 7662.1316,-338 7662.1316,-338 7575.1316,-338 7575.1316,-338 7569.1316,-338 7563.1316,-332 7563.1316,-326 7563.1316,-326 7563.1316,-304 7563.1316,-304 7563.1316,-298 7569.1316,-292 7575.1316,-292"/>
<text text-anchor="middle" x="7618.6316" y="-322.8" font-family="Times,serif" font-size="14.00" fill="#000000">31:31 &#45; 32:32</text>
<polyline fill="none" stroke="#000000" points="7563.1316,-315 7674.1316,-315 "/>
<text text-anchor="middle" x="7618.6316" y="-299.8" font-family="Times,serif" font-size="14.00" fill="#000000">31:0 &#45; 31:0</text>
</g>
<!-- n32&#45;&gt;x6 -->
<g id="edge53" class="edge">
<title>n32:e&#45;&gt;x6:w</title>
<path fill="none" stroke="#1b9e77" stroke-width="3" d="M7356.0197,-315C7444.4987,-315 7468.8237,-303.8967 7552.4159,-303.0509"/>
<polygon fill="#1b9e77" stroke="#1b9e77" stroke-width="3" points="7552.6492,-306.5499 7562.6316,-303 7552.6142,-299.55 7552.6492,-306.5499"/>
</g>
<!-- n32&#45;&gt;x6 -->
<g id="edge54" class="edge">
<title>n32:e&#45;&gt;x6:w</title>
<path fill="none" stroke="#1b9e77" stroke-width="3" d="M7356.0197,-315C7444.4987,-315 7468.8237,-326.1033 7552.4159,-326.9491"/>
<polygon fill="#1b9e77" stroke="#1b9e77" stroke-width="3" points="7552.6142,-330.45 7562.6316,-327 7552.6492,-323.4501 7552.6142,-330.45"/>
</g>
<!-- n33 -->
<g id="node27" class="node">
<title>n33</title>
<polygon fill="none" stroke="#000000" points="5983.3438,-378 5741.3668,-360 5983.3438,-342 6225.3207,-360 5983.3438,-378"/>
<text text-anchor="middle" x="5983.3438" y="-356.3" font-family="Times,serif" font-size="14.00" fill="#000000">SoundTopLevel_io_gloWriteEnable</text>
</g>
<!-- c68 -->
<g id="node55" class="node">
<title>c68</title>
<polygon fill="none" stroke="#000000" points="6374.1385,-348.5 6374.1385,-463.5 6905.1385,-463.5 6905.1385,-348.5 6374.1385,-348.5"/>
<text text-anchor="middle" x="6524.6385" y="-448.3" font-family="Times,serif" font-size="14.00" fill="#000000">clock</text>
<polyline fill="none" stroke="#000000" points="6374.1385,-440.5 6675.1385,-440.5 "/>
<text text-anchor="middle" x="6524.6385" y="-425.3" font-family="Times,serif" font-size="14.00" fill="#000000">io_genPacketIn_generatorUpdatePacket</text>
<polyline fill="none" stroke="#000000" points="6374.1385,-417.5 6675.1385,-417.5 "/>
<text text-anchor="middle" x="6524.6385" y="-402.3" font-family="Times,serif" font-size="14.00" fill="#000000">io_gloPacketIn_globalUpdatePacket</text>
<polyline fill="none" stroke="#000000" points="6374.1385,-394.5 6675.1385,-394.5 "/>
<text text-anchor="middle" x="6524.6385" y="-379.3" font-family="Times,serif" font-size="14.00" fill="#000000">io_gloWriteEnable</text>
<polyline fill="none" stroke="#000000" points="6374.1385,-371.5 6675.1385,-371.5 "/>
<text text-anchor="middle" x="6524.6385" y="-356.3" font-family="Times,serif" font-size="14.00" fill="#000000">reset</text>
<polyline fill="none" stroke="#000000" points="6675.1385,-348.5 6675.1385,-463.5 "/>
<text text-anchor="middle" x="6738.1385" y="-409.8" font-family="Times,serif" font-size="14.00" fill="#000000">SoundTopLevel</text>
<text text-anchor="middle" x="6738.1385" y="-394.8" font-family="Times,serif" font-size="14.00" fill="#000000">SoundTopLevel</text>
<polyline fill="none" stroke="#000000" points="6801.1385,-348.5 6801.1385,-463.5 "/>
<text text-anchor="middle" x="6853.1385" y="-402.3" font-family="Times,serif" font-size="14.00" fill="#000000">io_resultOut</text>
</g>
<!-- n33&#45;&gt;c68 -->
<g id="edge56" class="edge">
<title>n33:e&#45;&gt;c68:w</title>
<path fill="none" stroke="#e6ab02" d="M6225.3438,-360C6288.7314,-360 6305.4996,-380.6382 6363.9703,-382.8149"/>
<polygon fill="#e6ab02" stroke="#e6ab02" points="6364.0764,-386.3173 6374.1385,-383 6364.2039,-379.3184 6364.0764,-386.3173"/>
</g>
<!-- n34 -->
<g id="node28" class="node">
<title>n34</title>
<polygon fill="none" stroke="#000000" points="5983.3438,-439 5628.7543,-421 5983.3438,-403 6337.9333,-421 5983.3438,-439"/>
<text text-anchor="middle" x="5983.3438" y="-417.3" font-family="Times,serif" font-size="14.00" fill="#000000">SoundTopLevel_io_gloPacketIn_globalUpdatePacket</text>
</g>
<!-- n34&#45;&gt;c68 -->
<g id="edge58" class="edge">
<title>n34:e&#45;&gt;c68:w</title>
<path fill="none" stroke="#7570b3" stroke-width="3" d="M6338.1385,-421C6351.4093,-421 6355.3013,-412.2073 6364.1757,-408.0857"/>
<polygon fill="#7570b3" stroke="#7570b3" stroke-width="3" points="6365.0679,-411.4749 6374.1385,-406 6363.6335,-404.6234 6365.0679,-411.4749"/>
</g>
<!-- n35 -->
<g id="node29" class="node">
<title>n35</title>
<polygon fill="none" stroke="#000000" points="5209.2605,-497 4826.1832,-479 5209.2605,-461 5592.3378,-479 5209.2605,-497"/>
<text text-anchor="middle" x="5209.2605" y="-475.3" font-family="Times,serif" font-size="14.00" fill="#000000">SoundTopLevel_io_genPacketIn_generatorUpdatePacket</text>
</g>
<!-- n35&#45;&gt;c68 -->
<g id="edge60" class="edge">
<title>n35:e&#45;&gt;c68:w</title>
<path fill="none" stroke="#d95f02" stroke-width="3" d="M5592.2605,-479C5924.048,-479 6017.8098,-534.4434 6338.1385,-448 6351.648,-444.3543 6354.9729,-434.9822 6364.1565,-430.9225"/>
<polygon fill="#d95f02" stroke="#d95f02" stroke-width="3" points="6364.9809,-434.3282 6374.1385,-429 6363.657,-427.4545 6364.9809,-434.3282"/>
</g>
<!-- n36 -->
<g id="node30" class="node">
<title>n36</title>
<polygon fill="none" stroke="#000000" points="775.0888,-170 619.075,-152 775.0888,-134 931.1027,-152 775.0888,-170"/>
<text text-anchor="middle" x="775.0888" y="-148.3" font-family="Times,serif" font-size="14.00" fill="#000000">SoundTopLevel_reset</text>
</g>
<!-- n36&#45;&gt;c68 -->
<g id="edge62" class="edge">
<title>n36:e&#45;&gt;c68:w</title>
<path fill="none" stroke="#1b9e77" d="M931.0888,-152C1204.6353,-152 1273.0211,-153 1546.5675,-153 1546.5675,-153 1546.5675,-153 3966.8676,-153 4293.1181,-153 4373.644,-192 4699.8945,-192 4699.8945,-192 4699.8945,-192 5209.2605,-192 5714.8825,-192 5869.3165,-143.6339 6338.1385,-333 6352.7712,-338.9104 6354.2736,-352.3042 6364.082,-357.6917"/>
<polygon fill="#1b9e77" stroke="#1b9e77" points="6363.6089,-361.1741 6374.1385,-360 6365.175,-354.3515 6363.6089,-361.1741"/>
</g>
<!-- n37 -->
<g id="node31" class="node">
<title>n37</title>
<polygon fill="none" stroke="#000000" points="4248.2826,-545 4093.1073,-527 4248.2826,-509 4403.4579,-527 4248.2826,-545"/>
<text text-anchor="middle" x="4248.2826" y="-523.3" font-family="Times,serif" font-size="14.00" fill="#000000">SoundTopLevel_clock</text>
</g>
<!-- n37&#45;&gt;c68 -->
<g id="edge64" class="edge">
<title>n37:e&#45;&gt;c68:w</title>
<path fill="none" stroke="#a6761d" d="M4403.2826,-527C4535.1109,-527 4568.0662,-526 4699.8945,-526 4699.8945,-526 4699.8945,-526 5209.2605,-526 5460.2797,-526 6106.5576,-582.8552 6338.1385,-486 6354.6352,-479.1005 6353.5618,-460.9674 6364.3838,-454.41"/>
<polygon fill="#a6761d" stroke="#a6761d" points="6365.2699,-457.7964 6374.1385,-452 6363.5909,-451.0007 6365.2699,-457.7964"/>
</g>
<!-- n38 -->
<g id="node32" class="node">
<title>n38</title>
<polygon fill="none" stroke="#000000" points="9507.3912,-83.5442 9507.3912,-98.4558 9465.7385,-109 9406.8328,-109 9365.1801,-98.4558 9365.1801,-83.5442 9406.8328,-73 9465.7385,-73 9507.3912,-83.5442"/>
<text text-anchor="middle" x="9436.2856" y="-87.3" font-family="Times,serif" font-size="14.00" fill="#000000">io_pwm_out</text>
</g>
<!-- n39 -->
<g id="node33" class="node">
<title>n39</title>
<polygon fill="none" stroke="#000000" points="135.6063,-303.5442 135.6063,-318.4558 96.5554,-329 41.3291,-329 2.2783,-318.4558 2.2783,-303.5442 41.3291,-293 96.5554,-293 135.6063,-303.5442"/>
<text text-anchor="middle" x="68.9423" y="-307.3" font-family="Times,serif" font-size="14.00" fill="#000000">io_spi_cs_n</text>
</g>
<!-- x25 -->
<g id="node74" class="node">
<title>x25</title>
<path fill="none" stroke="#000000" d="M215.8845,-329C215.8845,-329 185.8845,-329 185.8845,-329 179.8845,-329 173.8845,-323 173.8845,-317 173.8845,-317 173.8845,-305 173.8845,-305 173.8845,-299 179.8845,-293 185.8845,-293 185.8845,-293 215.8845,-293 215.8845,-293 221.8845,-293 227.8845,-299 227.8845,-305 227.8845,-305 227.8845,-317 227.8845,-317 227.8845,-323 221.8845,-329 215.8845,-329"/>
<text text-anchor="middle" x="200.8845" y="-307.3" font-family="Times,serif" font-size="14.00" fill="#000000">BUF</text>
</g>
<!-- n39&#45;&gt;x25 -->
<g id="edge66" class="edge">
<title>n39:e&#45;&gt;x25:w</title>
<path fill="none" stroke="#66a61e" d="M135.9423,-311C148.8532,-311 154.3504,-311 163.7861,-311"/>
<polygon fill="#66a61e" stroke="#66a61e" points="163.8846,-314.5001 173.8845,-311 163.8845,-307.5001 163.8846,-314.5001"/>
</g>
<!-- n40 -->
<g id="node34" class="node">
<title>n40</title>
<polygon fill="none" stroke="#000000" points="128.1292,-357.5442 128.1292,-372.4558 93.4583,-383 44.4263,-383 9.7554,-372.4558 9.7554,-357.5442 44.4263,-347 93.4583,-347 128.1292,-357.5442"/>
<text text-anchor="middle" x="68.9423" y="-361.3" font-family="Times,serif" font-size="14.00" fill="#000000">io_spi_clk</text>
</g>
<!-- x24 -->
<g id="node73" class="node">
<title>x24</title>
<path fill="none" stroke="#000000" d="M215.8845,-383C215.8845,-383 185.8845,-383 185.8845,-383 179.8845,-383 173.8845,-377 173.8845,-371 173.8845,-371 173.8845,-359 173.8845,-359 173.8845,-353 179.8845,-347 185.8845,-347 185.8845,-347 215.8845,-347 215.8845,-347 221.8845,-347 227.8845,-353 227.8845,-359 227.8845,-359 227.8845,-371 227.8845,-371 227.8845,-377 221.8845,-383 215.8845,-383"/>
<text text-anchor="middle" x="200.8845" y="-361.3" font-family="Times,serif" font-size="14.00" fill="#000000">BUF</text>
</g>
<!-- n40&#45;&gt;x24 -->
<g id="edge68" class="edge">
<title>n40:e&#45;&gt;x24:w</title>
<path fill="none" stroke="#1b9e77" d="M127.9423,-365C144.5325,-365 151.0131,-365 163.8122,-365"/>
<polygon fill="#1b9e77" stroke="#1b9e77" points="163.8846,-368.5001 173.8845,-365 163.8845,-361.5001 163.8846,-368.5001"/>
</g>
<!-- n41 -->
<g id="node35" class="node">
<title>n41</title>
<polygon fill="none" stroke="#000000" points="9505.1702,-146.5442 9505.1702,-161.4558 9464.8186,-172 9407.7527,-172 9367.4011,-161.4558 9367.4011,-146.5442 9407.7527,-136 9464.8186,-136 9505.1702,-146.5442"/>
<text text-anchor="middle" x="9436.2856" y="-150.3" font-family="Times,serif" font-size="14.00" fill="#000000">io_spi_miso</text>
</g>
<!-- n42 -->
<g id="node36" class="node">
<title>n42</title>
<polygon fill="none" stroke="#000000" points="137.8268,-249.5442 137.8268,-264.4558 97.4752,-275 40.4093,-275 .0577,-264.4558 .0577,-249.5442 40.4093,-239 97.4752,-239 137.8268,-249.5442"/>
<text text-anchor="middle" x="68.9423" y="-253.3" font-family="Times,serif" font-size="14.00" fill="#000000">io_spi_mosi</text>
</g>
<!-- x23 -->
<g id="node72" class="node">
<title>x23</title>
<path fill="none" stroke="#000000" d="M215.8845,-275C215.8845,-275 185.8845,-275 185.8845,-275 179.8845,-275 173.8845,-269 173.8845,-263 173.8845,-263 173.8845,-251 173.8845,-251 173.8845,-245 179.8845,-239 185.8845,-239 185.8845,-239 215.8845,-239 215.8845,-239 221.8845,-239 227.8845,-245 227.8845,-251 227.8845,-251 227.8845,-263 227.8845,-263 227.8845,-269 221.8845,-275 215.8845,-275"/>
<text text-anchor="middle" x="200.8845" y="-253.3" font-family="Times,serif" font-size="14.00" fill="#000000">BUF</text>
</g>
<!-- n42&#45;&gt;x23 -->
<g id="edge70" class="edge">
<title>n42:e&#45;&gt;x23:w</title>
<path fill="none" stroke="#e7298a" d="M137.8845,-257C149.8845,-257 155.1345,-257 163.7595,-257"/>
<polygon fill="#e7298a" stroke="#e7298a" points="163.8846,-260.5001 173.8845,-257 163.8845,-253.5001 163.8846,-260.5001"/>
</g>
<!-- n43 -->
<g id="node37" class="node">
<title>n43</title>
<polygon fill="none" stroke="#000000" points="106.0137,-114.5442 106.0137,-129.4558 84.2978,-140 53.5868,-140 31.8708,-129.4558 31.8708,-114.5442 53.5868,-104 84.2978,-104 106.0137,-114.5442"/>
<text text-anchor="middle" x="68.9423" y="-118.3" font-family="Times,serif" font-size="14.00" fill="#000000">reset</text>
</g>
<!-- x17 -->
<g id="node66" class="node">
<title>x17</title>
<path fill="none" stroke="#000000" d="M215.8845,-167C215.8845,-167 185.8845,-167 185.8845,-167 179.8845,-167 173.8845,-161 173.8845,-155 173.8845,-155 173.8845,-143 173.8845,-143 173.8845,-137 179.8845,-131 185.8845,-131 185.8845,-131 215.8845,-131 215.8845,-131 221.8845,-131 227.8845,-137 227.8845,-143 227.8845,-143 227.8845,-155 227.8845,-155 227.8845,-161 221.8845,-167 215.8845,-167"/>
<text text-anchor="middle" x="200.8845" y="-145.3" font-family="Times,serif" font-size="14.00" fill="#000000">BUF</text>
</g>
<!-- n43&#45;&gt;x17 -->
<g id="edge71" class="edge">
<title>n43:e&#45;&gt;x17:w</title>
<path fill="none" stroke="#7570b3" d="M105.9423,-122C134.7549,-122 140.3424,-143.2293 163.8931,-148.0391"/>
<polygon fill="#7570b3" stroke="#7570b3" points="163.5954,-151.5265 173.8845,-149 164.2656,-144.5586 163.5954,-151.5265"/>
</g>
<!-- x22 -->
<g id="node71" class="node">
<title>x22</title>
<path fill="none" stroke="#000000" d="M215.8845,-221C215.8845,-221 185.8845,-221 185.8845,-221 179.8845,-221 173.8845,-215 173.8845,-209 173.8845,-209 173.8845,-197 173.8845,-197 173.8845,-191 179.8845,-185 185.8845,-185 185.8845,-185 215.8845,-185 215.8845,-185 221.8845,-185 227.8845,-191 227.8845,-197 227.8845,-197 227.8845,-209 227.8845,-209 227.8845,-215 221.8845,-221 215.8845,-221"/>
<text text-anchor="middle" x="200.8845" y="-199.3" font-family="Times,serif" font-size="14.00" fill="#000000">BUF</text>
</g>
<!-- n43&#45;&gt;x22 -->
<g id="edge72" class="edge">
<title>n43:e&#45;&gt;x22:w</title>
<path fill="none" stroke="#7570b3" d="M105.9423,-122C149.0754,-122 130.6766,-190.256 163.7147,-201.4542"/>
<polygon fill="#7570b3" stroke="#7570b3" points="163.4721,-204.9575 173.8845,-203 164.524,-198.037 163.4721,-204.9575"/>
</g>
<!-- x27 -->
<g id="node76" class="node">
<title>x27</title>
<path fill="none" stroke="#000000" d="M215.8845,-113C215.8845,-113 185.8845,-113 185.8845,-113 179.8845,-113 173.8845,-107 173.8845,-101 173.8845,-101 173.8845,-89 173.8845,-89 173.8845,-83 179.8845,-77 185.8845,-77 185.8845,-77 215.8845,-77 215.8845,-77 221.8845,-77 227.8845,-83 227.8845,-89 227.8845,-89 227.8845,-101 227.8845,-101 227.8845,-107 221.8845,-113 215.8845,-113"/>
<text text-anchor="middle" x="200.8845" y="-91.3" font-family="Times,serif" font-size="14.00" fill="#000000">BUF</text>
</g>
<!-- n43&#45;&gt;x27 -->
<g id="edge73" class="edge">
<title>n43:e&#45;&gt;x27:w</title>
<path fill="none" stroke="#7570b3" d="M105.9423,-122C134.7549,-122 140.3424,-100.7707 163.8931,-95.9609"/>
<polygon fill="#7570b3" stroke="#7570b3" points="164.2656,-99.4414 173.8845,-95 163.5954,-92.4735 164.2656,-99.4414"/>
</g>
<!-- x31 -->
<g id="node80" class="node">
<title>x31</title>
<path fill="none" stroke="#000000" d="M215.8845,-59C215.8845,-59 185.8845,-59 185.8845,-59 179.8845,-59 173.8845,-53 173.8845,-47 173.8845,-47 173.8845,-35 173.8845,-35 173.8845,-29 179.8845,-23 185.8845,-23 185.8845,-23 215.8845,-23 215.8845,-23 221.8845,-23 227.8845,-29 227.8845,-35 227.8845,-35 227.8845,-47 227.8845,-47 227.8845,-53 221.8845,-59 215.8845,-59"/>
<text text-anchor="middle" x="200.8845" y="-37.3" font-family="Times,serif" font-size="14.00" fill="#000000">BUF</text>
</g>
<!-- n43&#45;&gt;x31 -->
<g id="edge74" class="edge">
<title>n43:e&#45;&gt;x31:w</title>
<path fill="none" stroke="#7570b3" d="M105.9423,-122C149.0754,-122 130.6766,-53.744 163.7147,-42.5458"/>
<polygon fill="#7570b3" stroke="#7570b3" points="164.524,-45.963 173.8845,-41 163.4721,-39.0425 164.524,-45.963"/>
</g>
<!-- n44 -->
<g id="node38" class="node">
<title>n44</title>
<polygon fill="none" stroke="#000000" points="106.0137,-492.5442 106.0137,-507.4558 84.2978,-518 53.5868,-518 31.8708,-507.4558 31.8708,-492.5442 53.5868,-482 84.2978,-482 106.0137,-492.5442"/>
<text text-anchor="middle" x="68.9423" y="-496.3" font-family="Times,serif" font-size="14.00" fill="#000000">clock</text>
</g>
<!-- x16 -->
<g id="node65" class="node">
<title>x16</title>
<path fill="none" stroke="#000000" d="M215.8845,-545C215.8845,-545 185.8845,-545 185.8845,-545 179.8845,-545 173.8845,-539 173.8845,-533 173.8845,-533 173.8845,-521 173.8845,-521 173.8845,-515 179.8845,-509 185.8845,-509 185.8845,-509 215.8845,-509 215.8845,-509 221.8845,-509 227.8845,-515 227.8845,-521 227.8845,-521 227.8845,-533 227.8845,-533 227.8845,-539 221.8845,-545 215.8845,-545"/>
<text text-anchor="middle" x="200.8845" y="-523.3" font-family="Times,serif" font-size="14.00" fill="#000000">BUF</text>
</g>
<!-- n44&#45;&gt;x16 -->
<g id="edge75" class="edge">
<title>n44:e&#45;&gt;x16:w</title>
<path fill="none" stroke="#1b9e77" d="M105.9423,-500C134.7549,-500 140.3424,-521.2293 163.8931,-526.0391"/>
<polygon fill="#1b9e77" stroke="#1b9e77" points="163.5954,-529.5265 173.8845,-527 164.2656,-522.5586 163.5954,-529.5265"/>
</g>
<!-- x21 -->
<g id="node70" class="node">
<title>x21</title>
<path fill="none" stroke="#000000" d="M215.8845,-437C215.8845,-437 185.8845,-437 185.8845,-437 179.8845,-437 173.8845,-431 173.8845,-425 173.8845,-425 173.8845,-413 173.8845,-413 173.8845,-407 179.8845,-401 185.8845,-401 185.8845,-401 215.8845,-401 215.8845,-401 221.8845,-401 227.8845,-407 227.8845,-413 227.8845,-413 227.8845,-425 227.8845,-425 227.8845,-431 221.8845,-437 215.8845,-437"/>
<text text-anchor="middle" x="200.8845" y="-415.3" font-family="Times,serif" font-size="14.00" fill="#000000">BUF</text>
</g>
<!-- n44&#45;&gt;x21 -->
<g id="edge76" class="edge">
<title>n44:e&#45;&gt;x21:w</title>
<path fill="none" stroke="#1b9e77" d="M105.9423,-500C149.0754,-500 130.6766,-431.744 163.7147,-420.5458"/>
<polygon fill="#1b9e77" stroke="#1b9e77" points="164.524,-423.963 173.8845,-419 163.4721,-417.0425 164.524,-423.963"/>
</g>
<!-- x26 -->
<g id="node75" class="node">
<title>x26</title>
<path fill="none" stroke="#000000" d="M215.8845,-491C215.8845,-491 185.8845,-491 185.8845,-491 179.8845,-491 173.8845,-485 173.8845,-479 173.8845,-479 173.8845,-467 173.8845,-467 173.8845,-461 179.8845,-455 185.8845,-455 185.8845,-455 215.8845,-455 215.8845,-455 221.8845,-455 227.8845,-461 227.8845,-467 227.8845,-467 227.8845,-479 227.8845,-479 227.8845,-485 221.8845,-491 215.8845,-491"/>
<text text-anchor="middle" x="200.8845" y="-469.3" font-family="Times,serif" font-size="14.00" fill="#000000">BUF</text>
</g>
<!-- n44&#45;&gt;x26 -->
<g id="edge77" class="edge">
<title>n44:e&#45;&gt;x26:w</title>
<path fill="none" stroke="#1b9e77" d="M105.9423,-500C134.7549,-500 140.3424,-478.7707 163.8931,-473.9609"/>
<polygon fill="#1b9e77" stroke="#1b9e77" points="164.2656,-477.4414 173.8845,-473 163.5954,-470.4735 164.2656,-477.4414"/>
</g>
<!-- x30 -->
<g id="node79" class="node">
<title>x30</title>
<path fill="none" stroke="#000000" d="M215.8845,-599C215.8845,-599 185.8845,-599 185.8845,-599 179.8845,-599 173.8845,-593 173.8845,-587 173.8845,-587 173.8845,-575 173.8845,-575 173.8845,-569 179.8845,-563 185.8845,-563 185.8845,-563 215.8845,-563 215.8845,-563 221.8845,-563 227.8845,-569 227.8845,-575 227.8845,-575 227.8845,-587 227.8845,-587 227.8845,-593 221.8845,-599 215.8845,-599"/>
<text text-anchor="middle" x="200.8845" y="-577.3" font-family="Times,serif" font-size="14.00" fill="#000000">BUF</text>
</g>
<!-- n44&#45;&gt;x30 -->
<g id="edge78" class="edge">
<title>n44:e&#45;&gt;x30:w</title>
<path fill="none" stroke="#1b9e77" d="M105.9423,-500C149.0754,-500 130.6766,-568.256 163.7147,-579.4542"/>
<polygon fill="#1b9e77" stroke="#1b9e77" points="163.4721,-582.9575 173.8845,-581 164.524,-576.037 163.4721,-582.9575"/>
</g>
<!-- v0 -->
<g id="node39" class="node">
<title>v0</title>
<ellipse fill="none" stroke="#000000" cx="4506.7186" cy="-384" rx="27" ry="18"/>
<text text-anchor="middle" x="4506.7186" y="-380.3" font-family="Times,serif" font-size="14.00" fill="#000000">1&#39;0</text>
</g>
<!-- v0&#45;&gt;c49 -->
<g id="edge87" class="edge">
<title>v0:e&#45;&gt;c49:w</title>
<path fill="none" stroke="#e6ab02" d="M4533.7186,-384C4579.9747,-384 4593.1788,-371.0896 4634.6579,-369.2237"/>
<polygon fill="#e6ab02" stroke="#e6ab02" points="4634.9734,-372.7177 4644.8945,-369 4634.8204,-365.7194 4634.9734,-372.7177"/>
</g>
<!-- x20 -->
<g id="node69" class="node">
<title>x20</title>
<path fill="none" stroke="#000000" d="M5224.2605,-374C5224.2605,-374 5194.2605,-374 5194.2605,-374 5188.2605,-374 5182.2605,-368 5182.2605,-362 5182.2605,-362 5182.2605,-350 5182.2605,-350 5182.2605,-344 5188.2605,-338 5194.2605,-338 5194.2605,-338 5224.2605,-338 5224.2605,-338 5230.2605,-338 5236.2605,-344 5236.2605,-350 5236.2605,-350 5236.2605,-362 5236.2605,-362 5236.2605,-368 5230.2605,-374 5224.2605,-374"/>
<text text-anchor="middle" x="5209.2605" y="-352.3" font-family="Times,serif" font-size="14.00" fill="#000000">BUF</text>
</g>
<!-- c49&#45;&gt;x20 -->
<g id="edge2" class="edge">
<title>c49:e&#45;&gt;x20:w</title>
<path fill="none" stroke="#e7298a" d="M4754.8945,-346C4941.4545,-346 4990.5095,-355.6419 5172.101,-355.9903"/>
<polygon fill="#e7298a" stroke="#e7298a" points="5172.2572,-359.4904 5182.2605,-356 5172.2639,-352.4904 5172.2572,-359.4904"/>
</g>
<!-- v1 -->
<g id="node41" class="node">
<title>v1</title>
<ellipse fill="none" stroke="#000000" cx="3788.3982" cy="-330" rx="27" ry="18"/>
<text text-anchor="middle" x="3788.3982" y="-326.3" font-family="Times,serif" font-size="14.00" fill="#000000">1&#39;0</text>
</g>
<!-- v1&#45;&gt;c50 -->
<g id="edge88" class="edge">
<title>v1:e&#45;&gt;c50:w</title>
<path fill="none" stroke="#a6761d" d="M3815.3982,-330C3854.5889,-330 3866.9125,-330 3901.4854,-330"/>
<polygon fill="#a6761d" stroke="#a6761d" points="3901.8676,-333.5001 3911.8676,-330 3901.8676,-326.5001 3901.8676,-333.5001"/>
</g>
<!-- x13 -->
<g id="node62" class="node">
<title>x13</title>
<path fill="none" stroke="#000000" d="M4263.2826,-348C4263.2826,-348 4233.2826,-348 4233.2826,-348 4227.2826,-348 4221.2826,-342 4221.2826,-336 4221.2826,-336 4221.2826,-324 4221.2826,-324 4221.2826,-318 4227.2826,-312 4233.2826,-312 4233.2826,-312 4263.2826,-312 4263.2826,-312 4269.2826,-312 4275.2826,-318 4275.2826,-324 4275.2826,-324 4275.2826,-336 4275.2826,-336 4275.2826,-342 4269.2826,-348 4263.2826,-348"/>
<text text-anchor="middle" x="4248.2826" y="-326.3" font-family="Times,serif" font-size="14.00" fill="#000000">BUF</text>
</g>
<!-- c50&#45;&gt;x13 -->
<g id="edge23" class="edge">
<title>c50:e&#45;&gt;x13:w</title>
<path fill="none" stroke="#e7298a" d="M4021.8676,-330C4107.0344,-330 4130.8212,-330 4211.1927,-330"/>
<polygon fill="#e7298a" stroke="#e7298a" points="4211.2826,-333.5001 4221.2826,-330 4211.2825,-326.5001 4211.2826,-333.5001"/>
</g>
<!-- v2 -->
<g id="node43" class="node">
<title>v2</title>
<ellipse fill="none" stroke="#000000" cx="3402.3621" cy="-435" rx="65.7887" ry="18"/>
<text text-anchor="middle" x="3402.3621" y="-431.3" font-family="Times,serif" font-size="14.00" fill="#000000">8&#39;00000001</text>
</g>
<!-- v2&#45;&gt;c51 -->
<g id="edge89" class="edge">
<title>v2:e&#45;&gt;c51:w</title>
<path fill="none" stroke="#e7298a" stroke-width="3" d="M3468.0063,-435C3484.7657,-435 3484.3776,-415.5743 3494.4388,-407.9862"/>
<polygon fill="#e7298a" stroke="#e7298a" stroke-width="3" points="3495.5032,-411.3205 3504.0063,-405 3493.4176,-404.6385 3495.5032,-411.3205"/>
</g>
<!-- x12 -->
<g id="node61" class="node">
<title>x12</title>
<path fill="none" stroke="#000000" d="M3688.0063,-406C3688.0063,-406 3658.0063,-406 3658.0063,-406 3652.0063,-406 3646.0063,-400 3646.0063,-394 3646.0063,-394 3646.0063,-382 3646.0063,-382 3646.0063,-376 3652.0063,-370 3658.0063,-370 3658.0063,-370 3688.0063,-370 3688.0063,-370 3694.0063,-370 3700.0063,-376 3700.0063,-382 3700.0063,-382 3700.0063,-394 3700.0063,-394 3700.0063,-400 3694.0063,-406 3688.0063,-406"/>
<text text-anchor="middle" x="3673.0063" y="-384.3" font-family="Times,serif" font-size="14.00" fill="#000000">BUF</text>
</g>
<!-- c51&#45;&gt;x12 -->
<g id="edge46" class="edge">
<title>c51:e&#45;&gt;x12:w</title>
<path fill="none" stroke="#a6761d" d="M3610.0063,-393C3622.1214,-393 3627.2275,-390.1875 3635.8381,-388.7813"/>
<polygon fill="#a6761d" stroke="#a6761d" points="3636.3038,-392.2559 3646.0063,-388 3635.7675,-385.2764 3636.3038,-392.2559"/>
</g>
<!-- v3 -->
<g id="node45" class="node">
<title>v3</title>
<ellipse fill="none" stroke="#000000" cx="3402.3621" cy="-289" rx="65.7887" ry="18"/>
<text text-anchor="middle" x="3402.3621" y="-285.3" font-family="Times,serif" font-size="14.00" fill="#000000">8&#39;00000000</text>
</g>
<!-- v3&#45;&gt;c52 -->
<g id="edge90" class="edge">
<title>v3:e&#45;&gt;c52:w</title>
<path fill="none" stroke="#e6ab02" stroke-width="3" d="M3468.0063,-289C3480.1214,-289 3485.2275,-291.8125 3493.8381,-293.2188"/>
<polygon fill="#e6ab02" stroke="#e6ab02" stroke-width="3" points="3493.7675,-296.7236 3504.0063,-294 3494.3038,-289.7441 3493.7675,-296.7236"/>
</g>
<!-- x11 -->
<g id="node60" class="node">
<title>x11</title>
<path fill="none" stroke="#000000" d="M3688.0063,-297C3688.0063,-297 3658.0063,-297 3658.0063,-297 3652.0063,-297 3646.0063,-291 3646.0063,-285 3646.0063,-285 3646.0063,-273 3646.0063,-273 3646.0063,-267 3652.0063,-261 3658.0063,-261 3658.0063,-261 3688.0063,-261 3688.0063,-261 3694.0063,-261 3700.0063,-267 3700.0063,-273 3700.0063,-273 3700.0063,-285 3700.0063,-285 3700.0063,-291 3694.0063,-297 3688.0063,-297"/>
<text text-anchor="middle" x="3673.0063" y="-275.3" font-family="Times,serif" font-size="14.00" fill="#000000">BUF</text>
</g>
<!-- c52&#45;&gt;x11 -->
<g id="edge67" class="edge">
<title>c52:e&#45;&gt;x11:w</title>
<path fill="none" stroke="#1b9e77" d="M3610.0063,-282C3622.0478,-282 3627.2459,-280.3125 3635.8657,-279.4688"/>
<polygon fill="#1b9e77" stroke="#1b9e77" points="3636.1786,-282.9581 3646.0063,-279 3635.8553,-275.9656 3636.1786,-282.9581"/>
</g>
<!-- v4 -->
<g id="node47" class="node">
<title>v4</title>
<ellipse fill="none" stroke="#000000" cx="7153.0197" cy="-89" rx="211.7625" ry="18"/>
<text text-anchor="middle" x="7153.0197" y="-85.3" font-family="Times,serif" font-size="14.00" fill="#000000">32&#39;10000000000000000000000000000000</text>
</g>
<!-- v4&#45;&gt;c53 -->
<g id="edge91" class="edge">
<title>v4:e&#45;&gt;c53:w</title>
<path fill="none" stroke="#a6761d" stroke-width="3" d="M7364.9009,-89C7450.6296,-89 7474.5734,-89 7555.4752,-89"/>
<polygon fill="#a6761d" stroke="#a6761d" stroke-width="3" points="7555.6316,-92.5001 7565.6316,-89 7555.6315,-85.5001 7555.6316,-92.5001"/>
</g>
<!-- x8 -->
<g id="node57" class="node">
<title>x8</title>
<path fill="none" stroke="#000000" d="M7940.3623,-114C7940.3623,-114 7910.3623,-114 7910.3623,-114 7904.3623,-114 7898.3623,-108 7898.3623,-102 7898.3623,-102 7898.3623,-90 7898.3623,-90 7898.3623,-84 7904.3623,-78 7910.3623,-78 7910.3623,-78 7940.3623,-78 7940.3623,-78 7946.3623,-78 7952.3623,-84 7952.3623,-90 7952.3623,-90 7952.3623,-102 7952.3623,-102 7952.3623,-108 7946.3623,-114 7940.3623,-114"/>
<text text-anchor="middle" x="7925.3623" y="-92.3" font-family="Times,serif" font-size="14.00" fill="#000000">BUF</text>
</g>
<!-- c53&#45;&gt;x8 -->
<g id="edge79" class="edge">
<title>c53:e&#45;&gt;x8:w</title>
<path fill="none" stroke="#e7298a" stroke-width="3" d="M7671.6316,-101C7768.9802,-101 7795.7614,-96.336 7888.2861,-96.0171"/>
<polygon fill="#e7298a" stroke="#e7298a" stroke-width="3" points="7888.3683,-99.5171 7898.3623,-96 7888.3563,-92.5171 7888.3683,-99.5171"/>
</g>
<!-- v5 -->
<g id="node49" class="node">
<title>v5</title>
<ellipse fill="none" stroke="#000000" cx="7618.6316" cy="-255" rx="217.9616" ry="18"/>
<text text-anchor="middle" x="7618.6316" y="-251.3" font-family="Times,serif" font-size="14.00" fill="#000000">33&#39;110000000000000000000000000000000</text>
</g>
<!-- c54 -->
<g id="node50" class="node">
<title>c54</title>
<polygon fill="none" stroke="#000000" points="7872.3623,-262 7872.3623,-308 7978.3623,-308 7978.3623,-262 7872.3623,-262"/>
<text text-anchor="middle" x="7885.8623" y="-292.8" font-family="Times,serif" font-size="14.00" fill="#000000">A</text>
<polyline fill="none" stroke="#000000" points="7872.3623,-285 7899.3623,-285 "/>
<text text-anchor="middle" x="7885.8623" y="-269.8" font-family="Times,serif" font-size="14.00" fill="#000000">B</text>
<polyline fill="none" stroke="#000000" points="7899.3623,-262 7899.3623,-308 "/>
<text text-anchor="middle" x="7925.8623" y="-288.8" font-family="Times,serif" font-size="14.00" fill="#000000">$465</text>
<text text-anchor="middle" x="7925.8623" y="-273.8" font-family="Times,serif" font-size="14.00" fill="#000000">$add</text>
<polyline fill="none" stroke="#000000" points="7952.3623,-262 7952.3623,-308 "/>
<text text-anchor="middle" x="7965.3623" y="-281.3" font-family="Times,serif" font-size="14.00" fill="#000000">Y</text>
</g>
<!-- v5&#45;&gt;c54 -->
<g id="edge92" class="edge">
<title>v5:e&#45;&gt;c54:w</title>
<path fill="none" stroke="#d95f02" stroke-width="3" d="M7836.3623,-255C7850.1979,-255 7853.4659,-265.7677 7862.5131,-270.6468"/>
<polygon fill="#d95f02" stroke="#d95f02" stroke-width="3" points="7861.8226,-274.0803 7872.3623,-273 7863.4494,-267.2719 7861.8226,-274.0803"/>
</g>
<!-- x7 -->
<g id="node56" class="node">
<title>x7</title>
<path fill="none" stroke="#000000" d="M8081.7542,-303C8081.7542,-303 8051.7542,-303 8051.7542,-303 8045.7542,-303 8039.7542,-297 8039.7542,-291 8039.7542,-291 8039.7542,-279 8039.7542,-279 8039.7542,-273 8045.7542,-267 8051.7542,-267 8051.7542,-267 8081.7542,-267 8081.7542,-267 8087.7542,-267 8093.7542,-273 8093.7542,-279 8093.7542,-279 8093.7542,-291 8093.7542,-291 8093.7542,-297 8087.7542,-303 8081.7542,-303"/>
<text text-anchor="middle" x="8066.7542" y="-281.3" font-family="Times,serif" font-size="14.00" fill="#000000">BUF</text>
</g>
<!-- c54&#45;&gt;x7 -->
<g id="edge80" class="edge">
<title>c54:e&#45;&gt;x7:w</title>
<path fill="none" stroke="#1b9e77" stroke-width="3" d="M7978.3623,-285C8001.9172,-285 8010.2212,-285 8029.6059,-285"/>
<polygon fill="#1b9e77" stroke="#1b9e77" stroke-width="3" points="8029.7543,-288.5001 8039.7542,-285 8029.7542,-281.5001 8029.7543,-288.5001"/>
</g>
<!-- x6&#45;&gt;c54 -->
<g id="edge1" class="edge">
<title>x6:e&#45;&gt;c54:w</title>
<path fill="none" stroke="#e7298a" stroke-width="3" d="M7687.0943,-314.8754C7761.1478,-313.3659 7785.9181,-298.6161 7860.0291,-297.1219"/>
<polygon fill="none" stroke="#e7298a" stroke-width="3" points="7686.631,-314.88 7680.6713,-318.9398 7674.6316,-315 7680.5913,-310.9402 7686.631,-314.88"/>
<polygon fill="none" stroke="#e7298a" stroke-width="3" points="7860.3628,-297.1187 7866.323,-293.0596 7872.3623,-297 7866.4021,-301.0592 7860.3628,-297.1187"/>
</g>
<!-- c57&#45;&gt;n15 -->
<g id="edge13" class="edge">
<title>c57:e&#45;&gt;n15:w</title>
<path fill="none" stroke="#7570b3" d="M8995.5034,-91C9007.5034,-91 9012.7534,-91 9021.3784,-91"/>
<polygon fill="#7570b3" stroke="#7570b3" points="9021.5034,-94.5001 9031.5034,-91 9021.5033,-87.5001 9021.5034,-94.5001"/>
</g>
<!-- c62&#45;&gt;n20 -->
<g id="edge24" class="edge">
<title>c62:e&#45;&gt;n20:w</title>
<path fill="none" stroke="#1b9e77" stroke-width="3" d="M2654.4626,-353C2669.263,-353 2673.0785,-363.5845 2683.2446,-368.0499"/>
<polygon fill="#1b9e77" stroke="#1b9e77" stroke-width="3" points="2682.6008,-371.4903 2693.0903,-370 2683.9609,-364.6237 2682.6008,-371.4903"/>
</g>
<!-- c62&#45;&gt;n21 -->
<g id="edge28" class="edge">
<title>c62:e&#45;&gt;n21:w</title>
<path fill="none" stroke="#666666" d="M2654.4626,-307C2672.5939,-307 2670.2959,-283.8945 2680.7661,-275.23"/>
<polygon fill="#666666" stroke="#666666" points="2682.0813,-278.481 2690.4626,-272 2679.869,-271.8398 2682.0813,-278.481"/>
</g>
<!-- c63&#45;&gt;n26 -->
<g id="edge38" class="edge">
<title>c63:e&#45;&gt;n26:w</title>
<path fill="none" stroke="#a6761d" d="M932.0888,-272C1133.3194,-272 1185.7921,-254.5927 1382.0834,-254.0147"/>
<polygon fill="#a6761d" stroke="#a6761d" points="1382.1543,-257.5147 1392.1491,-254 1382.1439,-250.5147 1382.1543,-257.5147"/>
</g>
<!-- c63&#45;&gt;n28 -->
<g id="edge42" class="edge">
<title>c63:e&#45;&gt;n28:w</title>
<path fill="none" stroke="#e7298a" stroke-width="3" d="M932.0888,-349C965.6677,-349 975.6951,-359.5849 1004.6741,-361.6523"/>
<polygon fill="#e7298a" stroke="#e7298a" stroke-width="3" points="1004.6885,-365.1547 1014.8027,-362 1004.9287,-358.1589 1004.6885,-365.1547"/>
</g>
<!-- c63&#45;&gt;n29 -->
<g id="edge44" class="edge">
<title>c63:e&#45;&gt;n29:w</title>
<path fill="none" stroke="#e7298a" d="M932.0888,-311C948.3494,-311 954.7324,-309.0574 967.1345,-308.2986"/>
<polygon fill="#e7298a" stroke="#e7298a" points="967.5617,-311.7878 977.4563,-308 967.3592,-304.7907 967.5617,-311.7878"/>
</g>
<!-- c68&#45;&gt;n32 -->
<g id="edge51" class="edge">
<title>c68:e&#45;&gt;n32:w</title>
<path fill="none" stroke="#1b9e77" stroke-width="3" d="M6905.1385,-406C6946.1828,-406 6912.3358,-330.617 6939.9231,-317.0716"/>
<polygon fill="#1b9e77" stroke="#1b9e77" stroke-width="3" points="6940.9273,-320.4386 6950.0197,-315 6939.5203,-313.5814 6940.9273,-320.4386"/>
</g>
<!-- x7&#45;&gt;n13 -->
<g id="edge10" class="edge">
<title>x7:e&#45;&gt;n13:w</title>
<path fill="none" stroke="#d95f02" stroke-width="3" d="M8093.7542,-285C8117.4595,-285 8125.8166,-285 8145.3251,-285"/>
<polygon fill="#d95f02" stroke="#d95f02" stroke-width="3" points="8145.5382,-288.5001 8155.5381,-285 8145.5381,-281.5001 8145.5382,-288.5001"/>
</g>
<!-- x8&#45;&gt;n12 -->
<g id="edge8" class="edge">
<title>x8:e&#45;&gt;n12:w</title>
<path fill="none" stroke="#66a61e" stroke-width="3" d="M7952.3623,-96C7976.4122,-96 7984.8143,-95.248 8004.7078,-95.0482"/>
<polygon fill="#66a61e" stroke="#66a61e" stroke-width="3" points="8004.7712,-98.5481 8014.7542,-95 8004.7375,-91.5481 8004.7712,-98.5481"/>
</g>
<!-- x9&#45;&gt;n11 -->
<g id="edge6" class="edge">
<title>x9:e&#45;&gt;n11:w</title>
<path fill="none" stroke="#e6ab02" stroke-width="3" d="M8234.5381,-95C8258.2434,-95 8266.6005,-95 8286.109,-95"/>
<polygon fill="#e6ab02" stroke="#e6ab02" stroke-width="3" points="8286.3221,-98.5001 8296.3221,-95 8286.322,-91.5001 8286.3221,-98.5001"/>
</g>
<!-- x10&#45;&gt;n10 -->
<g id="edge3" class="edge">
<title>x10:e&#45;&gt;n10:w</title>
<path fill="none" stroke="#7570b3" stroke-width="3" d="M3283.2179,-386C3309.4018,-386 3318.2602,-382.1719 3340.1127,-381.2148"/>
<polygon fill="#7570b3" stroke="#7570b3" stroke-width="3" points="3340.4377,-384.7089 3350.3621,-381 3340.2909,-377.7104 3340.4377,-384.7089"/>
</g>
<!-- x11&#45;&gt;n9 -->
<g id="edge85" class="edge">
<title>x11:e&#45;&gt;n9:w</title>
<path fill="none" stroke="#e6ab02" d="M3700.0063,-279C3712.1781,-279 3717.4338,-277.3125 3726.1475,-276.4688"/>
<polygon fill="#e6ab02" stroke="#e6ab02" points="3726.5686,-279.9532 3736.3982,-276 3726.2487,-272.9606 3726.5686,-279.9532"/>
</g>
<!-- x12&#45;&gt;n8 -->
<g id="edge83" class="edge">
<title>x12:e&#45;&gt;n8:w</title>
<path fill="none" stroke="#a6761d" d="M3700.0063,-388C3712.3371,-388 3717.5337,-385.7029 3726.4089,-384.5902"/>
<polygon fill="#a6761d" stroke="#a6761d" points="3726.6221,-388.0838 3736.3982,-384 3726.2092,-381.096 3726.6221,-388.0838"/>
</g>
<!-- x13&#45;&gt;n7 -->
<g id="edge81" class="edge">
<title>x13:e&#45;&gt;n7:w</title>
<path fill="none" stroke="#e6ab02" d="M4275.2826,-330C4344.7968,-330 4364.721,-330 4429.3924,-330"/>
<polygon fill="#e6ab02" stroke="#e6ab02" points="4429.7187,-333.5001 4439.7186,-330 4429.7186,-326.5001 4429.7187,-333.5001"/>
</g>
<!-- x14&#45;&gt;n41 -->
<g id="edge69" class="edge">
<title>x14:e&#45;&gt;n41:w</title>
<path fill="none" stroke="#e7298a" d="M2482.4626,-241C2822.1926,-241 2905.488,-191 3245.2179,-191 3245.2179,-191 3245.2179,-191 3966.8676,-191 4293.0721,-191 4373.69,-154 4699.8945,-154 4699.8945,-154 4699.8945,-154 9135.3681,-154 9235.0202,-154 9262.4148,-154 9357.2685,-154"/>
<polygon fill="#e7298a" stroke="#e7298a" points="9357.2857,-157.5001 9367.2856,-154 9357.2856,-150.5001 9357.2857,-157.5001"/>
</g>
<!-- x15&#45;&gt;n38 -->
<g id="edge65" class="edge">
<title>x15:e&#45;&gt;n38:w</title>
<path fill="none" stroke="#e6ab02" d="M9329.2329,-91C9341.2505,-91 9346.5082,-91 9355.1458,-91"/>
<polygon fill="#e6ab02" stroke="#e6ab02" points="9355.2857,-94.5001 9365.2856,-91 9355.2856,-87.5001 9355.2857,-94.5001"/>
</g>
<!-- x16&#45;&gt;n37 -->
<g id="edge63" class="edge">
<title>x16:e&#45;&gt;n37:w</title>
<path fill="none" stroke="#a6761d" d="M227.8845,-527C471.0864,-527 531.8869,-527 775.0888,-527 775.0888,-527 775.0888,-527 3788.3982,-527 3920.4618,-527 3955.9926,-527 4083.1542,-527"/>
<polygon fill="#a6761d" stroke="#a6761d" points="4083.2826,-530.5001 4093.2826,-527 4083.2825,-523.5001 4083.2826,-530.5001"/>
</g>
<!-- x17&#45;&gt;n36 -->
<g id="edge61" class="edge">
<title>x17:e&#45;&gt;n36:w</title>
<path fill="none" stroke="#1b9e77" d="M227.8845,-149C398.3623,-149 443.4679,-151.884 609.0482,-151.9966"/>
<polygon fill="#1b9e77" stroke="#1b9e77" points="609.0876,-155.4965 619.0888,-152 609.0901,-148.4965 609.0876,-155.4965"/>
</g>
<!-- x18&#45;&gt;n35 -->
<g id="edge59" class="edge">
<title>x18:e&#45;&gt;n35:w</title>
<path fill="none" stroke="#d95f02" stroke-width="3" d="M3292.2179,-463C3410.1732,-463 3439.0509,-481 3557.0063,-481 3557.0063,-481 3557.0063,-481 4506.7186,-481 4645.2727,-481 4682.4423,-479.0965 4816.0459,-479.0035"/>
<polygon fill="#d95f02" stroke="#d95f02" stroke-width="3" points="4816.2618,-482.5035 4826.2605,-479 4816.2593,-475.5035 4816.2618,-482.5035"/>
</g>
<!-- x19&#45;&gt;n34 -->
<g id="edge57" class="edge">
<title>x19:e&#45;&gt;n34:w</title>
<path fill="none" stroke="#7570b3" stroke-width="3" d="M3300.7179,-331C3389.6987,-331 3622.3871,-317.493 3700.0063,-361 3723.8928,-374.3888 3712.1676,-397.5262 3736.0063,-411 3825.6327,-461.6576 3863.9156,-430 3966.8676,-430 3966.8676,-430 3966.8676,-430 4699.8945,-430 5109.2231,-430 5214.0606,-421.1488 5618.3342,-421.0019"/>
<polygon fill="#7570b3" stroke="#7570b3" stroke-width="3" points="5618.5498,-424.5019 5628.5491,-421 5618.5484,-417.5019 5618.5498,-424.5019"/>
</g>
<!-- x20&#45;&gt;n33 -->
<g id="edge55" class="edge">
<title>x20:e&#45;&gt;n33:w</title>
<path fill="none" stroke="#e6ab02" d="M5236.2605,-356C5457.351,-356 5515.1182,-359.8798 5731.2643,-359.9973"/>
<polygon fill="#e6ab02" stroke="#e6ab02" points="5731.3428,-363.4972 5741.3438,-360 5731.3448,-356.4972 5731.3428,-363.4972"/>
</g>
<!-- x21&#45;&gt;n31 -->
<g id="edge49" class="edge">
<title>x21:e&#45;&gt;n31:w</title>
<path fill="none" stroke="#a6761d" d="M227.8845,-419C258.6637,-419 268.7932,-419 295.2166,-419"/>
<polygon fill="#a6761d" stroke="#a6761d" points="295.303,-422.5001 305.303,-419 295.3029,-415.5001 295.303,-422.5001"/>
</g>
<!-- x22&#45;&gt;n30 -->
<g id="edge47" class="edge">
<title>x22:e&#45;&gt;n30:w</title>
<path fill="none" stroke="#d95f02" d="M227.8845,-203C258.1335,-203 268.1771,-203 294.0061,-203"/>
<polygon fill="#d95f02" stroke="#d95f02" points="294.303,-206.5001 304.303,-203 294.3029,-199.5001 294.303,-206.5001"/>
</g>
<!-- x23&#45;&gt;n27 -->
<g id="edge40" class="edge">
<title>x23:e&#45;&gt;n27:w</title>
<path fill="none" stroke="#e7298a" d="M227.8845,-257C239.8845,-257 245.1345,-257 253.7595,-257"/>
<polygon fill="#e7298a" stroke="#e7298a" points="253.8846,-260.5001 263.8845,-257 253.8845,-253.5001 253.8846,-260.5001"/>
</g>
<!-- x24&#45;&gt;n25 -->
<g id="edge36" class="edge">
<title>x24:e&#45;&gt;n25:w</title>
<path fill="none" stroke="#a6761d" d="M227.8845,-365C245.1725,-365 251.8243,-365 265.2899,-365"/>
<polygon fill="#a6761d" stroke="#a6761d" points="265.303,-368.5001 275.303,-365 265.3029,-361.5001 265.303,-368.5001"/>
</g>
<!-- x25&#45;&gt;n24 -->
<g id="edge34" class="edge">
<title>x25:e&#45;&gt;n24:w</title>
<path fill="none" stroke="#d95f02" d="M227.8845,-311C240.9575,-311 246.5237,-311 256.0778,-311"/>
<polygon fill="#d95f02" stroke="#d95f02" points="256.303,-314.5001 266.303,-311 256.3029,-307.5001 256.303,-314.5001"/>
</g>
<!-- x26&#45;&gt;n23 -->
<g id="edge32" class="edge">
<title>x26:e&#45;&gt;n23:w</title>
<path fill="none" stroke="#7570b3" d="M227.8845,-473C568.1547,-473 655.2303,-442.6325 990.3079,-442.0097"/>
<polygon fill="#7570b3" stroke="#7570b3" points="990.806,-445.5093 1000.8027,-442 990.7994,-438.5094 990.806,-445.5093"/>
</g>
<!-- x27&#45;&gt;n22 -->
<g id="edge30" class="edge">
<title>x27:e&#45;&gt;n22:w</title>
<path fill="none" stroke="#7570b3" d="M227.8845,-95C385.3167,-95 431.8449,-105.7242 572.7214,-176 587.5728,-183.4086 588.3896,-198.06 598.6477,-203.7065"/>
<polygon fill="#7570b3" stroke="#7570b3" points="598.1939,-207.1927 608.7214,-206 599.7479,-200.3673 598.1939,-207.1927"/>
</g>
<!-- x28&#45;&gt;n19 -->
<g id="edge21" class="edge">
<title>x28:e&#45;&gt;n19:w</title>
<path fill="none" stroke="#7570b3" stroke-width="3" d="M1573.5675,-362C1659.4782,-362 1683.4728,-362 1764.5463,-362"/>
<polygon fill="#7570b3" stroke="#7570b3" stroke-width="3" points="1764.7243,-365.5001 1774.7243,-362 1764.7243,-358.5001 1764.7243,-365.5001"/>
</g>
<!-- x29&#45;&gt;n18 -->
<g id="edge19" class="edge">
<title>x29:e&#45;&gt;n18:w</title>
<path fill="none" stroke="#a6761d" d="M1573.5675,-308C1642.6515,-308 1662.4524,-308 1726.7236,-308"/>
<polygon fill="#a6761d" stroke="#a6761d" points="1726.986,-311.5001 1736.9859,-308 1726.9859,-304.5001 1726.986,-311.5001"/>
</g>
<!-- x30&#45;&gt;n17 -->
<g id="edge17" class="edge">
<title>x30:e&#45;&gt;n17:w</title>
<path fill="none" stroke="#e6ab02" d="M227.8845,-581C471.0929,-581 531.8804,-577 775.0888,-577 775.0888,-577 775.0888,-577 4248.2826,-577 4405.5557,-577 4447.387,-573.17 4599.6998,-573.0055"/>
<polygon fill="#e6ab02" stroke="#e6ab02" points="4599.8964,-576.5055 4609.8945,-573 4599.8926,-569.5055 4599.8964,-576.5055"/>
</g>
<!-- x31&#45;&gt;n16 -->
<g id="edge15" class="edge">
<title>x31:e&#45;&gt;n16:w</title>
<path fill="none" stroke="#1b9e77" d="M227.8845,-41C471.0864,-41 531.8869,-41 775.0888,-41 775.0888,-41 775.0888,-41 3673.0063,-41 3760.1616,-41 3784.4377,-41.9253 3866.8033,-41.9958"/>
<polygon fill="#1b9e77" stroke="#1b9e77" points="3866.8661,-45.4957 3876.8676,-42 3866.8691,-38.4957 3866.8661,-45.4957"/>
</g>
<!-- x32&#45;&gt;n14 -->
<g id="edge11" class="edge">
<title>x32:e&#45;&gt;n14:w</title>
<path fill="none" stroke="#666666" stroke-width="3" d="M8490.714,-95C8502.7187,-95 8507.9629,-94.4375 8516.5873,-94.1563"/>
<polygon fill="#666666" stroke="#666666" stroke-width="3" points="8516.7693,-97.654 8526.714,-94 8516.6612,-90.6548 8516.7693,-97.654"/>
</g>
</g>
</svg>
