<?xml version="1.0" encoding="UTF-8" standalone="no"?>
<!DOCTYPE svg PUBLIC "-//W3C//DTD SVG 1.1//EN"
 "http://www.w3.org/Graphics/SVG/1.1/DTD/svg11.dtd">
<!-- Generated by graphviz version 2.40.1 (0)
 -->
<!-- Title: Top Pages: 1 -->
<svg width="6553pt" height="1027pt"
 viewBox="0.00 0.00 6552.78 1027.00" xmlns="http://www.w3.org/2000/svg" xmlns:xlink="http://www.w3.org/1999/xlink">
<g id="graph0" class="graph" transform="scale(1 1) rotate(0) translate(4 1023)">
<title>Top</title>
<polygon fill="#ffffff" stroke="transparent" points="-4,4 -4,-1023 6548.7783,-1023 6548.7783,4 -4,4"/>
<text text-anchor="middle" x="3272.3892" y="-7.8" font-family="Times,serif" font-size="14.00" fill="#000000">Top</text>
<!-- n1 -->
<g id="node1" class="node">
<title>n1</title>
<polygon fill="none" stroke="#000000" points="765.6229,-873 675.468,-855 765.6229,-837 855.7778,-855 765.6229,-873"/>
<text text-anchor="middle" x="765.6229" y="-851.3" font-family="Times,serif" font-size="14.00" fill="#000000">PWM_clock</text>
</g>
<!-- n2 -->
<g id="node2" class="node">
<title>n2</title>
<polygon fill="none" stroke="#000000" points="6172.8081,-514 6069.0783,-496 6172.8081,-478 6276.5378,-496 6172.8081,-514"/>
<text text-anchor="middle" x="6172.8081" y="-492.3" font-family="Times,serif" font-size="14.00" fill="#000000">PWM_io_high</text>
</g>
<!-- x26 -->
<g id="node73" class="node">
<title>x26</title>
<path fill="none" stroke="#000000" d="M6354.6728,-514C6354.6728,-514 6324.6728,-514 6324.6728,-514 6318.6728,-514 6312.6728,-508 6312.6728,-502 6312.6728,-502 6312.6728,-490 6312.6728,-490 6312.6728,-484 6318.6728,-478 6324.6728,-478 6324.6728,-478 6354.6728,-478 6354.6728,-478 6360.6728,-478 6366.6728,-484 6366.6728,-490 6366.6728,-490 6366.6728,-502 6366.6728,-502 6366.6728,-508 6360.6728,-514 6354.6728,-514"/>
<text text-anchor="middle" x="6339.6728" y="-492.3" font-family="Times,serif" font-size="14.00" fill="#000000">BUF</text>
</g>
<!-- n2&#45;&gt;x26 -->
<g id="edge18" class="edge">
<title>n2:e&#45;&gt;x26:w</title>
<path fill="none" stroke="#7570b3" d="M6276.6728,-496C6288.6728,-496 6293.9228,-496 6302.5478,-496"/>
<polygon fill="#7570b3" stroke="#7570b3" points="6302.6729,-499.5001 6312.6728,-496 6302.6728,-492.5001 6302.6729,-499.5001"/>
</g>
<!-- n3 -->
<g id="node3" class="node">
<title>n3</title>
<polygon fill="none" stroke="#000000" points="5679.0486,-389 5564.2592,-371 5679.0486,-353 5793.838,-371 5679.0486,-389"/>
<text text-anchor="middle" x="5679.0486" y="-367.3" font-family="Times,serif" font-size="14.00" fill="#000000">PWM_io_target</text>
</g>
<!-- c49 -->
<g id="node49" class="node">
<title>c49</title>
<polygon fill="none" stroke="#000000" points="5829.9433,-461.5 5829.9433,-530.5 6032.9433,-530.5 6032.9433,-461.5 5829.9433,-461.5"/>
<text text-anchor="middle" x="5869.9433" y="-515.3" font-family="Times,serif" font-size="14.00" fill="#000000">clock</text>
<polyline fill="none" stroke="#000000" points="5829.9433,-507.5 5909.9433,-507.5 "/>
<text text-anchor="middle" x="5869.9433" y="-492.3" font-family="Times,serif" font-size="14.00" fill="#000000">io_target</text>
<polyline fill="none" stroke="#000000" points="5829.9433,-484.5 5909.9433,-484.5 "/>
<text text-anchor="middle" x="5869.9433" y="-469.3" font-family="Times,serif" font-size="14.00" fill="#000000">reset</text>
<polyline fill="none" stroke="#000000" points="5909.9433,-461.5 5909.9433,-530.5 "/>
<text text-anchor="middle" x="5937.4433" y="-499.8" font-family="Times,serif" font-size="14.00" fill="#000000">PWM</text>
<text text-anchor="middle" x="5937.4433" y="-484.8" font-family="Times,serif" font-size="14.00" fill="#000000">PWM</text>
<polyline fill="none" stroke="#000000" points="5964.9433,-461.5 5964.9433,-530.5 "/>
<text text-anchor="middle" x="5998.9433" y="-492.3" font-family="Times,serif" font-size="14.00" fill="#000000">io_high</text>
</g>
<!-- n3&#45;&gt;c49 -->
<g id="edge34" class="edge">
<title>n3:e&#45;&gt;c49:w</title>
<path fill="none" stroke="#1b9e77" stroke-width="3" d="M5793.9433,-371C5847.6919,-371 5782.6477,-479.0399 5819.6911,-494.233"/>
<polygon fill="#1b9e77" stroke="#1b9e77" stroke-width="3" points="5819.4941,-497.7505 5829.9433,-496 5820.6831,-490.8522 5819.4941,-497.7505"/>
</g>
<!-- x23 -->
<g id="node70" class="node">
<title>x23</title>
<path fill="none" stroke="#000000" d="M5946.4433,-389C5946.4433,-389 5916.4433,-389 5916.4433,-389 5910.4433,-389 5904.4433,-383 5904.4433,-377 5904.4433,-377 5904.4433,-365 5904.4433,-365 5904.4433,-359 5910.4433,-353 5916.4433,-353 5916.4433,-353 5946.4433,-353 5946.4433,-353 5952.4433,-353 5958.4433,-359 5958.4433,-365 5958.4433,-365 5958.4433,-377 5958.4433,-377 5958.4433,-383 5952.4433,-389 5946.4433,-389"/>
<text text-anchor="middle" x="5931.4433" y="-367.3" font-family="Times,serif" font-size="14.00" fill="#000000">BUF</text>
</g>
<!-- n3&#45;&gt;x23 -->
<g id="edge35" class="edge">
<title>n3:e&#45;&gt;x23:w</title>
<path fill="none" stroke="#1b9e77" stroke-width="3" d="M5793.9433,-371C5839.5054,-371 5853.3653,-371 5894.3454,-371"/>
<polygon fill="#1b9e77" stroke="#1b9e77" stroke-width="3" points="5894.4433,-374.5001 5904.4433,-371 5894.4433,-367.5001 5894.4433,-374.5001"/>
</g>
<!-- x24 -->
<g id="node71" class="node">
<title>x24</title>
<path fill="none" stroke="#000000" d="M5946.4433,-443C5946.4433,-443 5916.4433,-443 5916.4433,-443 5910.4433,-443 5904.4433,-437 5904.4433,-431 5904.4433,-431 5904.4433,-419 5904.4433,-419 5904.4433,-413 5910.4433,-407 5916.4433,-407 5916.4433,-407 5946.4433,-407 5946.4433,-407 5952.4433,-407 5958.4433,-413 5958.4433,-419 5958.4433,-419 5958.4433,-431 5958.4433,-431 5958.4433,-437 5952.4433,-443 5946.4433,-443"/>
<text text-anchor="middle" x="5931.4433" y="-421.3" font-family="Times,serif" font-size="14.00" fill="#000000">BUF</text>
</g>
<!-- n3&#45;&gt;x24 -->
<g id="edge36" class="edge">
<title>n3:e&#45;&gt;x24:w</title>
<path fill="none" stroke="#1b9e77" stroke-width="3" d="M5793.9433,-371C5813.9433,-371 5812.3496,-388.4889 5829.9433,-398 5857.657,-412.982 5867.2216,-422.7653 5894.14,-424.6623"/>
<polygon fill="#1b9e77" stroke="#1b9e77" stroke-width="3" points="5894.334,-428.1704 5904.4433,-425 5894.5633,-421.1742 5894.334,-428.1704"/>
</g>
<!-- n4 -->
<g id="node4" class="node">
<title>n4</title>
<polygon fill="none" stroke="#000000" points="765.6229,-167 675.468,-149 765.6229,-131 855.7778,-149 765.6229,-167"/>
<text text-anchor="middle" x="765.6229" y="-145.3" font-family="Times,serif" font-size="14.00" fill="#000000">PWM_reset</text>
</g>
<!-- n5 -->
<g id="node5" class="node">
<title>n5</title>
<polygon fill="none" stroke="#000000" points="765.6229,-1019 600.2263,-1001 765.6229,-983 931.0195,-1001 765.6229,-1019"/>
<text text-anchor="middle" x="765.6229" y="-997.3" font-family="Times,serif" font-size="14.00" fill="#000000">SPIInputHandler_clock</text>
</g>
<!-- n6 -->
<g id="node6" class="node">
<title>n6</title>
<polygon fill="none" stroke="#000000" points="765.6229,-551 561.5171,-533 765.6229,-515 969.7287,-533 765.6229,-551"/>
<text text-anchor="middle" x="765.6229" y="-529.3" font-family="Times,serif" font-size="14.00" fill="#000000">SPIInputHandler_io_RX_data</text>
</g>
<!-- c54 -->
<g id="node50" class="node">
<title>c54</title>
<polygon fill="none" stroke="#000000" points="1043.3612,-454 1043.3612,-546 1441.3612,-546 1441.3612,-454 1043.3612,-454"/>
<text text-anchor="middle" x="1111.3612" y="-530.8" font-family="Times,serif" font-size="14.00" fill="#000000">clock</text>
<polyline fill="none" stroke="#000000" points="1043.3612,-523 1179.3612,-523 "/>
<text text-anchor="middle" x="1111.3612" y="-507.8" font-family="Times,serif" font-size="14.00" fill="#000000">io_RX_data</text>
<polyline fill="none" stroke="#000000" points="1043.3612,-500 1179.3612,-500 "/>
<text text-anchor="middle" x="1111.3612" y="-484.8" font-family="Times,serif" font-size="14.00" fill="#000000">io_RX_data_valid</text>
<polyline fill="none" stroke="#000000" points="1043.3612,-477 1179.3612,-477 "/>
<text text-anchor="middle" x="1111.3612" y="-461.8" font-family="Times,serif" font-size="14.00" fill="#000000">reset</text>
<polyline fill="none" stroke="#000000" points="1179.3612,-454 1179.3612,-546 "/>
<text text-anchor="middle" x="1247.8612" y="-503.8" font-family="Times,serif" font-size="14.00" fill="#000000">SPIInputHandler</text>
<text text-anchor="middle" x="1247.8612" y="-488.8" font-family="Times,serif" font-size="14.00" fill="#000000">SPIInputHandler</text>
<polyline fill="none" stroke="#000000" points="1316.3612,-454 1316.3612,-546 "/>
<text text-anchor="middle" x="1378.8612" y="-519.3" font-family="Times,serif" font-size="14.00" fill="#000000">io_packet_data</text>
<polyline fill="none" stroke="#000000" points="1316.3612,-500 1441.3612,-500 "/>
<text text-anchor="middle" x="1378.8612" y="-473.3" font-family="Times,serif" font-size="14.00" fill="#000000">io_packet_valid</text>
</g>
<!-- n6&#45;&gt;c54 -->
<g id="edge66" class="edge">
<title>n6:e&#45;&gt;c54:w</title>
<path fill="none" stroke="#e7298a" stroke-width="3" d="M969.6229,-533C999.9716,-533 1007.7226,-516.3425 1033.128,-512.6987"/>
<polygon fill="#e7298a" stroke="#e7298a" stroke-width="3" points="1033.6229,-516.1732 1043.3612,-512 1033.146,-509.1894 1033.6229,-516.1732"/>
</g>
<!-- x13 -->
<g id="node60" class="node">
<title>x13</title>
<path fill="none" stroke="#000000" d="M1257.3612,-620C1257.3612,-620 1227.3612,-620 1227.3612,-620 1221.3612,-620 1215.3612,-614 1215.3612,-608 1215.3612,-608 1215.3612,-596 1215.3612,-596 1215.3612,-590 1221.3612,-584 1227.3612,-584 1227.3612,-584 1257.3612,-584 1257.3612,-584 1263.3612,-584 1269.3612,-590 1269.3612,-596 1269.3612,-596 1269.3612,-608 1269.3612,-608 1269.3612,-614 1263.3612,-620 1257.3612,-620"/>
<text text-anchor="middle" x="1242.3612" y="-598.3" font-family="Times,serif" font-size="14.00" fill="#000000">BUF</text>
</g>
<!-- n6&#45;&gt;x13 -->
<g id="edge67" class="edge">
<title>n6:e&#45;&gt;x13:w</title>
<path fill="none" stroke="#e7298a" stroke-width="3" d="M969.6229,-533C1003.823,-533 1010.4774,-545.603 1043.3612,-555 1116.1353,-575.7961 1134.5064,-599.7406 1205.0499,-601.8499"/>
<polygon fill="#e7298a" stroke="#e7298a" stroke-width="3" points="1205.3113,-605.354 1215.3612,-602 1205.4133,-598.3547 1205.3113,-605.354"/>
</g>
<!-- n7 -->
<g id="node7" class="node">
<title>n7</title>
<polygon fill="none" stroke="#000000" points="765.6229,-497 523.6459,-479 765.6229,-461 1007.5998,-479 765.6229,-497"/>
<text text-anchor="middle" x="765.6229" y="-475.3" font-family="Times,serif" font-size="14.00" fill="#000000">SPIInputHandler_io_RX_data_valid</text>
</g>
<!-- n7&#45;&gt;c54 -->
<g id="edge69" class="edge">
<title>n7:e&#45;&gt;c54:w</title>
<path fill="none" stroke="#7570b3" d="M1007.3612,-479C1019.8594,-479 1024.6179,-484.1685 1033.3671,-486.672"/>
<polygon fill="#7570b3" stroke="#7570b3" points="1032.9873,-490.1522 1043.3612,-488 1033.9094,-483.2132 1032.9873,-490.1522"/>
</g>
<!-- x14 -->
<g id="node61" class="node">
<title>x14</title>
<path fill="none" stroke="#000000" d="M1257.3612,-417C1257.3612,-417 1227.3612,-417 1227.3612,-417 1221.3612,-417 1215.3612,-411 1215.3612,-405 1215.3612,-405 1215.3612,-393 1215.3612,-393 1215.3612,-387 1221.3612,-381 1227.3612,-381 1227.3612,-381 1257.3612,-381 1257.3612,-381 1263.3612,-381 1269.3612,-387 1269.3612,-393 1269.3612,-393 1269.3612,-405 1269.3612,-405 1269.3612,-411 1263.3612,-417 1257.3612,-417"/>
<text text-anchor="middle" x="1242.3612" y="-395.3" font-family="Times,serif" font-size="14.00" fill="#000000">BUF</text>
</g>
<!-- n7&#45;&gt;x14 -->
<g id="edge70" class="edge">
<title>n7:e&#45;&gt;x14:w</title>
<path fill="none" stroke="#7570b3" d="M1007.3612,-479C1029.6766,-479 1023.925,-454.964 1043.3612,-444 1109.0922,-406.9212 1134.0831,-399.6209 1205.0355,-399.0398"/>
<polygon fill="#7570b3" stroke="#7570b3" points="1205.3748,-402.5386 1215.3612,-399 1205.3478,-395.5387 1205.3748,-402.5386"/>
</g>
<!-- n8 -->
<g id="node8" class="node">
<title>n8</title>
<polygon fill="none" stroke="#000000" points="1706.2314,-576 1477.491,-558 1706.2314,-540 1934.9718,-558 1706.2314,-576"/>
<text text-anchor="middle" x="1706.2314" y="-554.3" font-family="Times,serif" font-size="14.00" fill="#000000">SPIInputHandler_io_packet_data</text>
</g>
<!-- x1 -->
<g id="node41" class="node">
<title>x1</title>
<path fill="none" stroke="#000000" d="M2001.1016,-540C2001.1016,-540 2052.1016,-540 2052.1016,-540 2058.1016,-540 2064.1016,-546 2064.1016,-552 2064.1016,-552 2064.1016,-564 2064.1016,-564 2064.1016,-570 2058.1016,-576 2052.1016,-576 2052.1016,-576 2001.1016,-576 2001.1016,-576 1995.1016,-576 1989.1016,-570 1989.1016,-564 1989.1016,-564 1989.1016,-552 1989.1016,-552 1989.1016,-546 1995.1016,-540 2001.1016,-540"/>
<text text-anchor="middle" x="2026.6016" y="-554.3" font-family="Times,serif" font-size="14.00" fill="#000000">7:0 &#45; 7:0</text>
</g>
<!-- n8&#45;&gt;x1 -->
<g id="edge72" class="edge">
<title>n8:e&#45;&gt;x1:w</title>
<path fill="none" stroke="#1b9e77" stroke-width="3" d="M1935.1016,-558C1954.9783,-558 1962.3933,-558 1978.181,-558"/>
<polygon fill="#1b9e77" stroke="#1b9e77" stroke-width="3" points="1978.6016,-561.5001 1988.6016,-558 1978.6015,-554.5001 1978.6016,-561.5001"/>
</g>
<!-- x3 -->
<g id="node44" class="node">
<title>x3</title>
<path fill="none" stroke="#000000" d="M2001.1016,-430C2001.1016,-430 2052.1016,-430 2052.1016,-430 2058.1016,-430 2064.1016,-436 2064.1016,-442 2064.1016,-442 2064.1016,-454 2064.1016,-454 2064.1016,-460 2058.1016,-466 2052.1016,-466 2052.1016,-466 2001.1016,-466 2001.1016,-466 1995.1016,-466 1989.1016,-460 1989.1016,-454 1989.1016,-454 1989.1016,-442 1989.1016,-442 1989.1016,-436 1995.1016,-430 2001.1016,-430"/>
<text text-anchor="middle" x="2026.6016" y="-444.3" font-family="Times,serif" font-size="14.00" fill="#000000">7:0 &#45; 7:0</text>
</g>
<!-- n8&#45;&gt;x3 -->
<g id="edge76" class="edge">
<title>n8:e&#45;&gt;x3:w</title>
<path fill="none" stroke="#1b9e77" stroke-width="3" d="M1935.1016,-558C1985.6436,-558 1941.4618,-462.9249 1978.6833,-449.555"/>
<polygon fill="#1b9e77" stroke="#1b9e77" stroke-width="3" points="1979.2644,-453.0067 1988.6016,-448 1978.1801,-446.0912 1979.2644,-453.0067"/>
</g>
<!-- x6 -->
<g id="node53" class="node">
<title>x6</title>
<path fill="none" stroke="#000000" d="M4083.1532,-637C4083.1532,-637 4152.1532,-637 4152.1532,-637 4158.1532,-637 4164.1532,-643 4164.1532,-649 4164.1532,-649 4164.1532,-661 4164.1532,-661 4164.1532,-667 4158.1532,-673 4152.1532,-673 4152.1532,-673 4083.1532,-673 4083.1532,-673 4077.1532,-673 4071.1532,-667 4071.1532,-661 4071.1532,-661 4071.1532,-649 4071.1532,-649 4071.1532,-643 4077.1532,-637 4083.1532,-637"/>
<text text-anchor="middle" x="4117.6532" y="-651.3" font-family="Times,serif" font-size="14.00" fill="#000000">87:0 &#45; 87:0</text>
</g>
<!-- n8&#45;&gt;x6 -->
<g id="edge77" class="edge">
<title>n8:e&#45;&gt;x6:w</title>
<path fill="none" stroke="#1b9e77" stroke-width="3" d="M1935.1016,-558C1998.0576,-558 1921.9815,-655.6214 1971.1016,-695 2063.1106,-768.7618 2383.4645,-715 2501.3901,-715 2501.3901,-715 2501.3901,-715 3627.8164,-715 3823.0368,-715 3870.435,-657.0333 4060.6029,-655.052"/>
<polygon fill="#1b9e77" stroke="#1b9e77" stroke-width="3" points="4060.6715,-658.5518 4070.6532,-655 4060.6352,-651.5519 4060.6715,-658.5518"/>
</g>
<!-- x7 -->
<g id="node54" class="node">
<title>x7</title>
<path fill="none" stroke="#000000" d="M3249.5903,-410C3249.5903,-410 3336.5903,-410 3336.5903,-410 3342.5903,-410 3348.5903,-416 3348.5903,-422 3348.5903,-422 3348.5903,-434 3348.5903,-434 3348.5903,-440 3342.5903,-446 3336.5903,-446 3336.5903,-446 3249.5903,-446 3249.5903,-446 3243.5903,-446 3237.5903,-440 3237.5903,-434 3237.5903,-434 3237.5903,-422 3237.5903,-422 3237.5903,-416 3243.5903,-410 3249.5903,-410"/>
<text text-anchor="middle" x="3293.0903" y="-424.3" font-family="Times,serif" font-size="14.00" fill="#000000">199:0 &#45; 199:0</text>
</g>
<!-- n8&#45;&gt;x7 -->
<g id="edge78" class="edge">
<title>n8:e&#45;&gt;x7:w</title>
<path fill="none" stroke="#1b9e77" stroke-width="3" d="M1935.1016,-558C1998.4875,-558 1920.9421,-458.7531 1971.1016,-420 2080.0257,-335.8456 3053.2682,-424.0439 3226.832,-427.8725"/>
<polygon fill="#1b9e77" stroke="#1b9e77" stroke-width="3" points="3227.0475,-431.3754 3237.0903,-428 3227.1346,-424.3759 3227.0475,-431.3754"/>
</g>
<!-- x20 -->
<g id="node67" class="node">
<title>x20</title>
<path fill="none" stroke="#000000" d="M1992.1016,-595C1992.1016,-595 2061.1016,-595 2061.1016,-595 2067.1016,-595 2073.1016,-601 2073.1016,-607 2073.1016,-607 2073.1016,-619 2073.1016,-619 2073.1016,-625 2067.1016,-631 2061.1016,-631 2061.1016,-631 1992.1016,-631 1992.1016,-631 1986.1016,-631 1980.1016,-625 1980.1016,-619 1980.1016,-619 1980.1016,-607 1980.1016,-607 1980.1016,-601 1986.1016,-595 1992.1016,-595"/>
<text text-anchor="middle" x="2026.6016" y="-609.3" font-family="Times,serif" font-size="14.00" fill="#000000">87:0 &#45; 87:0</text>
</g>
<!-- n8&#45;&gt;x20 -->
<g id="edge73" class="edge">
<title>n8:e&#45;&gt;x20:w</title>
<path fill="none" stroke="#1b9e77" stroke-width="3" d="M1935.1016,-558C1962.3689,-558 1952.1632,-599.3608 1969.4767,-610.3472"/>
<polygon fill="#1b9e77" stroke="#1b9e77" stroke-width="3" points="1969.041,-613.8511 1979.6016,-613 1970.8152,-607.0797 1969.041,-613.8511"/>
</g>
<!-- x21 -->
<g id="node68" class="node">
<title>x21</title>
<path fill="none" stroke="#000000" d="M1983.1016,-744C1983.1016,-744 2070.1016,-744 2070.1016,-744 2076.1016,-744 2082.1016,-750 2082.1016,-756 2082.1016,-756 2082.1016,-768 2082.1016,-768 2082.1016,-774 2076.1016,-780 2070.1016,-780 2070.1016,-780 1983.1016,-780 1983.1016,-780 1977.1016,-780 1971.1016,-774 1971.1016,-768 1971.1016,-768 1971.1016,-756 1971.1016,-756 1971.1016,-750 1977.1016,-744 1983.1016,-744"/>
<text text-anchor="middle" x="2026.6016" y="-758.3" font-family="Times,serif" font-size="14.00" fill="#000000">199:0 &#45; 199:0</text>
</g>
<!-- n8&#45;&gt;x21 -->
<g id="edge74" class="edge">
<title>n8:e&#45;&gt;x21:w</title>
<path fill="none" stroke="#1b9e77" stroke-width="3" d="M1935.1016,-558C2023.393,-558 1890.7816,-745.6088 1960.9521,-760.9986"/>
<polygon fill="#1b9e77" stroke="#1b9e77" stroke-width="3" points="1960.8062,-764.5011 1971.1016,-762 1961.4936,-757.5349 1960.8062,-764.5011"/>
</g>
<!-- x25 -->
<g id="node72" class="node">
<title>x25</title>
<path fill="none" stroke="#000000" d="M2001.1016,-650C2001.1016,-650 2052.1016,-650 2052.1016,-650 2058.1016,-650 2064.1016,-656 2064.1016,-662 2064.1016,-662 2064.1016,-674 2064.1016,-674 2064.1016,-680 2058.1016,-686 2052.1016,-686 2052.1016,-686 2001.1016,-686 2001.1016,-686 1995.1016,-686 1989.1016,-680 1989.1016,-674 1989.1016,-674 1989.1016,-662 1989.1016,-662 1989.1016,-656 1995.1016,-650 2001.1016,-650"/>
<text text-anchor="middle" x="2026.6016" y="-664.3" font-family="Times,serif" font-size="14.00" fill="#000000">7:0 &#45; 7:0</text>
</g>
<!-- n8&#45;&gt;x25 -->
<g id="edge75" class="edge">
<title>n8:e&#45;&gt;x25:w</title>
<path fill="none" stroke="#1b9e77" stroke-width="3" d="M1935.1016,-558C1985.6436,-558 1941.4618,-653.0751 1978.6833,-666.445"/>
<polygon fill="#1b9e77" stroke="#1b9e77" stroke-width="3" points="1978.1801,-669.9088 1988.6016,-668 1979.2644,-662.9933 1978.1801,-669.9088"/>
</g>
<!-- n9 -->
<g id="node9" class="node">
<title>n9</title>
<polygon fill="none" stroke="#000000" points="3293.0903,-390 3061.3349,-372 3293.0903,-354 3524.8456,-372 3293.0903,-390"/>
<text text-anchor="middle" x="3293.0903" y="-368.3" font-family="Times,serif" font-size="14.00" fill="#000000">SPIInputHandler_io_packet_valid</text>
</g>
<!-- c46 -->
<g id="node48" class="node">
<title>c46</title>
<polygon fill="none" stroke="#000000" points="3730.9149,-428.5 3730.9149,-497.5 3839.9149,-497.5 3839.9149,-428.5 3730.9149,-428.5"/>
<text text-anchor="middle" x="3744.4149" y="-482.3" font-family="Times,serif" font-size="14.00" fill="#000000">A</text>
<polyline fill="none" stroke="#000000" points="3730.9149,-474.5 3757.9149,-474.5 "/>
<text text-anchor="middle" x="3744.4149" y="-459.3" font-family="Times,serif" font-size="14.00" fill="#000000">B</text>
<polyline fill="none" stroke="#000000" points="3730.9149,-451.5 3757.9149,-451.5 "/>
<text text-anchor="middle" x="3744.4149" y="-436.3" font-family="Times,serif" font-size="14.00" fill="#000000">S</text>
<polyline fill="none" stroke="#000000" points="3757.9149,-428.5 3757.9149,-497.5 "/>
<text text-anchor="middle" x="3785.9149" y="-466.8" font-family="Times,serif" font-size="14.00" fill="#000000">$470</text>
<text text-anchor="middle" x="3785.9149" y="-451.8" font-family="Times,serif" font-size="14.00" fill="#000000">$mux</text>
<polyline fill="none" stroke="#000000" points="3813.9149,-428.5 3813.9149,-497.5 "/>
<text text-anchor="middle" x="3826.9149" y="-459.3" font-family="Times,serif" font-size="14.00" fill="#000000">Y</text>
</g>
<!-- n9&#45;&gt;c46 -->
<g id="edge80" class="edge">
<title>n9:e&#45;&gt;c46:w</title>
<path fill="none" stroke="#e7298a" d="M3524.7179,-372C3544.3664,-372 3676.7493,-412.5119 3694.9149,-420 3708.003,-425.3951 3711.4317,-434.4088 3720.7819,-438.2162"/>
<polygon fill="#e7298a" stroke="#e7298a" points="3720.4595,-441.7131 3730.9149,-440 3721.6732,-434.8191 3720.4595,-441.7131"/>
</g>
<!-- n10 -->
<g id="node10" class="node">
<title>n10</title>
<polygon fill="none" stroke="#000000" points="765.6229,-113 599.3879,-95 765.6229,-77 931.8579,-95 765.6229,-113"/>
<text text-anchor="middle" x="765.6229" y="-91.3" font-family="Times,serif" font-size="14.00" fill="#000000">SPIInputHandler_reset</text>
</g>
<!-- n11 -->
<g id="node11" class="node">
<title>n11</title>
<polygon fill="none" stroke="#000000" points="765.6229,-965 652.5102,-947 765.6229,-929 878.7356,-947 765.6229,-965"/>
<text text-anchor="middle" x="765.6229" y="-943.3" font-family="Times,serif" font-size="14.00" fill="#000000">SPISlave_clock</text>
</g>
<!-- n12 -->
<g id="node12" class="node">
<title>n12</title>
<polygon fill="none" stroke="#000000" points="1706.2314,-630 1554.4093,-612 1706.2314,-594 1858.0535,-612 1706.2314,-630"/>
<text text-anchor="middle" x="1706.2314" y="-608.3" font-family="Times,serif" font-size="14.00" fill="#000000">SPISlave_io_RX_data</text>
</g>
<!-- n13 -->
<g id="node13" class="node">
<title>n13</title>
<polygon fill="none" stroke="#000000" points="1706.2314,-389 1517.0385,-371 1706.2314,-353 1895.4243,-371 1706.2314,-389"/>
<text text-anchor="middle" x="1706.2314" y="-367.3" font-family="Times,serif" font-size="14.00" fill="#000000">SPISlave_io_RX_data_valid</text>
</g>
<!-- n14 -->
<g id="node14" class="node">
<title>n14</title>
<polygon fill="none" stroke="#000000" points="765.6229,-659 623.1841,-641 765.6229,-623 908.0616,-641 765.6229,-659"/>
<text text-anchor="middle" x="765.6229" y="-637.3" font-family="Times,serif" font-size="14.00" fill="#000000">SPISlave_io_spi_clk</text>
</g>
<!-- n15 -->
<g id="node15" class="node">
<title>n15</title>
<polygon fill="none" stroke="#000000" points="765.6229,-605 613.8008,-587 765.6229,-569 917.445,-587 765.6229,-605"/>
<text text-anchor="middle" x="765.6229" y="-583.3" font-family="Times,serif" font-size="14.00" fill="#000000">SPISlave_io_spi_cs_n</text>
</g>
<!-- n16 -->
<g id="node16" class="node">
<title>n16</title>
<polygon fill="none" stroke="#000000" points="765.6229,-443 611.286,-425 765.6229,-407 919.9598,-425 765.6229,-443"/>
<text text-anchor="middle" x="765.6229" y="-421.3" font-family="Times,serif" font-size="14.00" fill="#000000">SPISlave_io_spi_miso</text>
</g>
<!-- x27 -->
<g id="node74" class="node">
<title>x27</title>
<path fill="none" stroke="#000000" d="M3800.4149,-351C3800.4149,-351 3770.4149,-351 3770.4149,-351 3764.4149,-351 3758.4149,-345 3758.4149,-339 3758.4149,-339 3758.4149,-327 3758.4149,-327 3758.4149,-321 3764.4149,-315 3770.4149,-315 3770.4149,-315 3800.4149,-315 3800.4149,-315 3806.4149,-315 3812.4149,-321 3812.4149,-327 3812.4149,-327 3812.4149,-339 3812.4149,-339 3812.4149,-345 3806.4149,-351 3800.4149,-351"/>
<text text-anchor="middle" x="3785.4149" y="-329.3" font-family="Times,serif" font-size="14.00" fill="#000000">BUF</text>
</g>
<!-- n16&#45;&gt;x27 -->
<g id="edge13" class="edge">
<title>n16:e&#45;&gt;x27:w</title>
<path fill="none" stroke="#7570b3" d="M920.6229,-425C960.9978,-425 971.2485,-416.0555 1007.3612,-398 1025.0143,-389.1739 1024.8087,-378.733 1043.3612,-372 1320.992,-271.2432 1410.8828,-325 1706.2314,-325 1706.2314,-325 1706.2314,-325 3293.0903,-325 3496.4979,-325 3549.8159,-332.7366 3748.2401,-332.9935"/>
<polygon fill="#7570b3" stroke="#7570b3" points="3748.4126,-336.4935 3758.4149,-333 3748.4171,-329.4935 3748.4126,-336.4935"/>
</g>
<!-- n17 -->
<g id="node17" class="node">
<title>n17</title>
<polygon fill="none" stroke="#000000" points="765.6229,-389 611.286,-371 765.6229,-353 919.9598,-371 765.6229,-389"/>
<text text-anchor="middle" x="765.6229" y="-367.3" font-family="Times,serif" font-size="14.00" fill="#000000">SPISlave_io_spi_mosi</text>
</g>
<!-- n18 -->
<g id="node18" class="node">
<title>n18</title>
<polygon fill="none" stroke="#000000" points="765.6229,-59 651.6719,-41 765.6229,-23 879.5739,-41 765.6229,-59"/>
<text text-anchor="middle" x="765.6229" y="-37.3" font-family="Times,serif" font-size="14.00" fill="#000000">SPISlave_reset</text>
</g>
<!-- n19 -->
<g id="node19" class="node">
<title>n19</title>
<polygon fill="none" stroke="#000000" points="765.6229,-781 610.4476,-763 765.6229,-745 920.7982,-763 765.6229,-781"/>
<text text-anchor="middle" x="765.6229" y="-759.3" font-family="Times,serif" font-size="14.00" fill="#000000">SoundTopLevel_clock</text>
</g>
<!-- n20 -->
<g id="node20" class="node">
<title>n20</title>
<polygon fill="none" stroke="#000000" points="2501.3901,-631 2118.3129,-613 2501.3901,-595 2884.4674,-613 2501.3901,-631"/>
<text text-anchor="middle" x="2501.3901" y="-609.3" font-family="Times,serif" font-size="14.00" fill="#000000">SoundTopLevel_io_genPacketIn_generatorUpdatePacket</text>
</g>
<!-- n21 -->
<g id="node21" class="node">
<title>n21</title>
<polygon fill="none" stroke="#000000" points="2501.3901,-780 2146.8006,-762 2501.3901,-744 2855.9797,-762 2501.3901,-780"/>
<text text-anchor="middle" x="2501.3901" y="-758.3" font-family="Times,serif" font-size="14.00" fill="#000000">SoundTopLevel_io_gloPacketIn_globalUpdatePacket</text>
</g>
<!-- n22 -->
<g id="node22" class="node">
<title>n22</title>
<polygon fill="none" stroke="#000000" points="4117.6532,-492 3875.6763,-474 4117.6532,-456 4359.6302,-474 4117.6532,-492"/>
<text text-anchor="middle" x="4117.6532" y="-470.3" font-family="Times,serif" font-size="14.00" fill="#000000">SoundTopLevel_io_gloWriteEnable</text>
</g>
<!-- c60 -->
<g id="node52" class="node">
<title>c60</title>
<polygon fill="none" stroke="#000000" points="4395.3916,-480.5 4395.3916,-595.5 4926.3916,-595.5 4926.3916,-480.5 4395.3916,-480.5"/>
<text text-anchor="middle" x="4545.8916" y="-580.3" font-family="Times,serif" font-size="14.00" fill="#000000">clock</text>
<polyline fill="none" stroke="#000000" points="4395.3916,-572.5 4696.3916,-572.5 "/>
<text text-anchor="middle" x="4545.8916" y="-557.3" font-family="Times,serif" font-size="14.00" fill="#000000">io_genPacketIn_generatorUpdatePacket</text>
<polyline fill="none" stroke="#000000" points="4395.3916,-549.5 4696.3916,-549.5 "/>
<text text-anchor="middle" x="4545.8916" y="-534.3" font-family="Times,serif" font-size="14.00" fill="#000000">io_gloPacketIn_globalUpdatePacket</text>
<polyline fill="none" stroke="#000000" points="4395.3916,-526.5 4696.3916,-526.5 "/>
<text text-anchor="middle" x="4545.8916" y="-511.3" font-family="Times,serif" font-size="14.00" fill="#000000">io_gloWriteEnable</text>
<polyline fill="none" stroke="#000000" points="4395.3916,-503.5 4696.3916,-503.5 "/>
<text text-anchor="middle" x="4545.8916" y="-488.3" font-family="Times,serif" font-size="14.00" fill="#000000">reset</text>
<polyline fill="none" stroke="#000000" points="4696.3916,-480.5 4696.3916,-595.5 "/>
<text text-anchor="middle" x="4759.3916" y="-541.8" font-family="Times,serif" font-size="14.00" fill="#000000">SoundTopLevel</text>
<text text-anchor="middle" x="4759.3916" y="-526.8" font-family="Times,serif" font-size="14.00" fill="#000000">SoundTopLevel</text>
<polyline fill="none" stroke="#000000" points="4822.3916,-480.5 4822.3916,-595.5 "/>
<text text-anchor="middle" x="4874.3916" y="-534.3" font-family="Times,serif" font-size="14.00" fill="#000000">io_resultOut</text>
</g>
<!-- n22&#45;&gt;c60 -->
<g id="edge22" class="edge">
<title>n22:e&#45;&gt;c60:w</title>
<path fill="none" stroke="#a6761d" d="M4359.3916,-474C4379.4734,-474 4374.3529,-502.1174 4385.7715,-511.7828"/>
<polygon fill="#a6761d" stroke="#a6761d" points="4384.7978,-515.1477 4395.3916,-515 4387.0179,-508.509 4384.7978,-515.1477"/>
</g>
<!-- n23 -->
<g id="node23" class="node">
<title>n23</title>
<polygon fill="none" stroke="#000000" points="5174.2728,-525 4971.0052,-507 5174.2728,-489 5377.5404,-507 5174.2728,-525"/>
<text text-anchor="middle" x="5174.2728" y="-503.3" font-family="Times,serif" font-size="14.00" fill="#000000">SoundTopLevel_io_resultOut</text>
</g>
<!-- c41 -->
<g id="node39" class="node">
<title>c41</title>
<polygon fill="none" stroke="#000000" points="5422.154,-435 5422.154,-481 5528.154,-481 5528.154,-435 5422.154,-435"/>
<text text-anchor="middle" x="5435.654" y="-465.8" font-family="Times,serif" font-size="14.00" fill="#000000">A</text>
<polyline fill="none" stroke="#000000" points="5422.154,-458 5449.154,-458 "/>
<text text-anchor="middle" x="5435.654" y="-442.8" font-family="Times,serif" font-size="14.00" fill="#000000">B</text>
<polyline fill="none" stroke="#000000" points="5449.154,-435 5449.154,-481 "/>
<text text-anchor="middle" x="5475.654" y="-461.8" font-family="Times,serif" font-size="14.00" fill="#000000">$466</text>
<text text-anchor="middle" x="5475.654" y="-446.8" font-family="Times,serif" font-size="14.00" fill="#000000">$add</text>
<polyline fill="none" stroke="#000000" points="5502.154,-435 5502.154,-481 "/>
<text text-anchor="middle" x="5515.154" y="-454.3" font-family="Times,serif" font-size="14.00" fill="#000000">Y</text>
</g>
<!-- n23&#45;&gt;c41 -->
<g id="edge24" class="edge">
<title>n23:e&#45;&gt;c41:w</title>
<path fill="none" stroke="#a6761d" stroke-width="3" d="M5377.2728,-507C5399.0852,-507 5397.6365,-480.6592 5412.1798,-472.4277"/>
<polygon fill="#a6761d" stroke="#a6761d" stroke-width="3" points="5413.2654,-475.7657 5422.154,-470 5411.6099,-468.9643 5413.2654,-475.7657"/>
</g>
<!-- n24 -->
<g id="node24" class="node">
<title>n24</title>
<polygon fill="none" stroke="#000000" points="765.6229,-221 609.609,-203 765.6229,-185 921.6367,-203 765.6229,-221"/>
<text text-anchor="middle" x="765.6229" y="-199.3" font-family="Times,serif" font-size="14.00" fill="#000000">SoundTopLevel_reset</text>
</g>
<!-- n25 -->
<g id="node25" class="node">
<title>n25</title>
<polygon fill="none" stroke="#000000" points="3627.8164,-465 3560.6193,-447 3627.8164,-429 3695.0135,-447 3627.8164,-465"/>
<text text-anchor="middle" x="3627.8164" y="-443.3" font-family="Times,serif" font-size="14.00" fill="#000000">_GEN_1</text>
</g>
<!-- n25&#45;&gt;c46 -->
<g id="edge27" class="edge">
<title>n25:e&#45;&gt;c46:w</title>
<path fill="none" stroke="#e7298a" d="M3694.8164,-447C3708.2524,-447 3711.9878,-456.3789 3720.8767,-460.7753"/>
<polygon fill="#e7298a" stroke="#e7298a" points="3720.3944,-464.2532 3730.9149,-463 3721.9091,-457.4191 3720.3944,-464.2532"/>
</g>
<!-- n26 -->
<g id="node26" class="node">
<title>n26</title>
<polygon fill="none" stroke="#000000" points="6172.8081,-389 6120.5239,-371 6172.8081,-353 6225.0922,-371 6172.8081,-389"/>
<text text-anchor="middle" x="6172.8081" y="-367.3" font-family="Times,serif" font-size="14.00" fill="#000000">_T_30</text>
</g>
<!-- n27 -->
<g id="node27" class="node">
<title>n27</title>
<polygon fill="none" stroke="#000000" points="6172.8081,-443 6120.5239,-425 6172.8081,-407 6225.0922,-425 6172.8081,-443"/>
<text text-anchor="middle" x="6172.8081" y="-421.3" font-family="Times,serif" font-size="14.00" fill="#000000">_T_31</text>
</g>
<!-- n28 -->
<g id="node28" class="node">
<title>n28</title>
<polygon fill="none" stroke="#000000" points="2501.3901,-686 2449.106,-668 2501.3901,-650 2553.6743,-668 2501.3901,-686"/>
<text text-anchor="middle" x="2501.3901" y="-664.3" font-family="Times,serif" font-size="14.00" fill="#000000">_T_35</text>
</g>
<!-- n29 -->
<g id="node29" class="node">
<title>n29</title>
<polygon fill="none" stroke="#000000" points="2973.0707,-465 2920.7865,-447 2973.0707,-429 3025.3548,-447 2973.0707,-465"/>
<text text-anchor="middle" x="2973.0707" y="-443.3" font-family="Times,serif" font-size="14.00" fill="#000000">_T_37</text>
</g>
<!-- c45 -->
<g id="node46" class="node">
<title>c45</title>
<polygon fill="none" stroke="#000000" points="3238.5903,-465.5 3238.5903,-534.5 3347.5903,-534.5 3347.5903,-465.5 3238.5903,-465.5"/>
<text text-anchor="middle" x="3252.0903" y="-519.3" font-family="Times,serif" font-size="14.00" fill="#000000">A</text>
<polyline fill="none" stroke="#000000" points="3238.5903,-511.5 3265.5903,-511.5 "/>
<text text-anchor="middle" x="3252.0903" y="-496.3" font-family="Times,serif" font-size="14.00" fill="#000000">B</text>
<polyline fill="none" stroke="#000000" points="3238.5903,-488.5 3265.5903,-488.5 "/>
<text text-anchor="middle" x="3252.0903" y="-473.3" font-family="Times,serif" font-size="14.00" fill="#000000">S</text>
<polyline fill="none" stroke="#000000" points="3265.5903,-465.5 3265.5903,-534.5 "/>
<text text-anchor="middle" x="3293.5903" y="-503.8" font-family="Times,serif" font-size="14.00" fill="#000000">$469</text>
<text text-anchor="middle" x="3293.5903" y="-488.8" font-family="Times,serif" font-size="14.00" fill="#000000">$mux</text>
<polyline fill="none" stroke="#000000" points="3321.5903,-465.5 3321.5903,-534.5 "/>
<text text-anchor="middle" x="3334.5903" y="-496.3" font-family="Times,serif" font-size="14.00" fill="#000000">Y</text>
</g>
<!-- n29&#45;&gt;c45 -->
<g id="edge32" class="edge">
<title>n29:e&#45;&gt;c45:w</title>
<path fill="none" stroke="#a6761d" d="M3025.0707,-447C3041.6311,-447 3045.1414,-452.1958 3061.4626,-455 3135.9257,-467.7938 3157.1078,-476.2173 3227.7791,-476.9483"/>
<polygon fill="#a6761d" stroke="#a6761d" points="3228.0728,-480.4497 3238.0903,-477 3228.108,-473.4498 3228.0728,-480.4497"/>
</g>
<!-- n30 -->
<g id="node30" class="node">
<title>n30</title>
<polygon fill="none" stroke="#000000" points="2973.0707,-573 2920.7865,-555 2973.0707,-537 3025.3548,-555 2973.0707,-573"/>
<text text-anchor="middle" x="2973.0707" y="-551.3" font-family="Times,serif" font-size="14.00" fill="#000000">_T_39</text>
</g>
<!-- n30&#45;&gt;c45 -->
<g id="edge38" class="edge">
<title>n30:e&#45;&gt;c45:w</title>
<path fill="none" stroke="#e6ab02" d="M3025.0707,-555C3117.3491,-555 3140.6988,-525.2707 3227.9961,-523.1223"/>
<polygon fill="#e6ab02" stroke="#e6ab02" points="3228.1335,-526.621 3238.0903,-523 3228.0486,-519.6215 3228.1335,-526.621"/>
</g>
<!-- n31 -->
<g id="node31" class="node">
<title>n31</title>
<polygon fill="none" stroke="#000000" points="106.0137,-824.5442 106.0137,-839.4558 84.2978,-850 53.5868,-850 31.8708,-839.4558 31.8708,-824.5442 53.5868,-814 84.2978,-814 106.0137,-824.5442"/>
<text text-anchor="middle" x="68.9423" y="-828.3" font-family="Times,serif" font-size="14.00" fill="#000000">clock</text>
</g>
<!-- n31&#45;&gt;c49 -->
<g id="edge39" class="edge">
<title>n31:e&#45;&gt;c49:w</title>
<path fill="none" stroke="#7570b3" d="M105.9423,-832C143.4344,-832 138.4552,-869.7353 173.8845,-882 298.211,-925.0387 634.0577,-901 765.6229,-901 765.6229,-901 765.6229,-901 5475.154,-901 5703.3551,-901 5601.4454,-530.4769 5819.653,-519.2599"/>
<polygon fill="#7570b3" stroke="#7570b3" points="5820.0349,-522.7515 5829.9433,-519 5819.8581,-515.7537 5820.0349,-522.7515"/>
</g>
<!-- n31&#45;&gt;c54 -->
<g id="edge40" class="edge">
<title>n31:e&#45;&gt;c54:w</title>
<path fill="none" stroke="#7570b3" d="M105.9423,-832C158.2135,-832 128.4747,-761.8887 173.8845,-736 335.3238,-643.9616 864.5047,-786.8516 1007.3612,-668 1051.4952,-631.2821 990.6959,-546.5157 1033.3824,-536.0634"/>
<polygon fill="#7570b3" stroke="#7570b3" points="1033.7884,-539.54 1043.3612,-535 1033.0466,-532.5794 1033.7884,-539.54"/>
</g>
<!-- c55 -->
<g id="node51" class="node">
<title>c55</title>
<polygon fill="none" stroke="#000000" points="173.8845,-422.5 173.8845,-537.5 487.8845,-537.5 487.8845,-422.5 173.8845,-422.5"/>
<text text-anchor="middle" x="222.8845" y="-522.3" font-family="Times,serif" font-size="14.00" fill="#000000">clock</text>
<polyline fill="none" stroke="#000000" points="173.8845,-514.5 271.8845,-514.5 "/>
<text text-anchor="middle" x="222.8845" y="-499.3" font-family="Times,serif" font-size="14.00" fill="#000000">io_spi_clk</text>
<polyline fill="none" stroke="#000000" points="173.8845,-491.5 271.8845,-491.5 "/>
<text text-anchor="middle" x="222.8845" y="-476.3" font-family="Times,serif" font-size="14.00" fill="#000000">io_spi_cs_n</text>
<polyline fill="none" stroke="#000000" points="173.8845,-468.5 271.8845,-468.5 "/>
<text text-anchor="middle" x="222.8845" y="-453.3" font-family="Times,serif" font-size="14.00" fill="#000000">io_spi_mosi</text>
<polyline fill="none" stroke="#000000" points="173.8845,-445.5 271.8845,-445.5 "/>
<text text-anchor="middle" x="222.8845" y="-430.3" font-family="Times,serif" font-size="14.00" fill="#000000">reset</text>
<polyline fill="none" stroke="#000000" points="271.8845,-422.5 271.8845,-537.5 "/>
<text text-anchor="middle" x="311.8845" y="-483.8" font-family="Times,serif" font-size="14.00" fill="#000000">SPISlave</text>
<text text-anchor="middle" x="311.8845" y="-468.8" font-family="Times,serif" font-size="14.00" fill="#000000">SPISlave</text>
<polyline fill="none" stroke="#000000" points="351.8845,-422.5 351.8845,-537.5 "/>
<text text-anchor="middle" x="419.8845" y="-514.8" font-family="Times,serif" font-size="14.00" fill="#000000">io_RX_data</text>
<polyline fill="none" stroke="#000000" points="351.8845,-499.5 487.8845,-499.5 "/>
<text text-anchor="middle" x="419.8845" y="-476.8" font-family="Times,serif" font-size="14.00" fill="#000000">io_RX_data_valid</text>
<polyline fill="none" stroke="#000000" points="351.8845,-461.5 487.8845,-461.5 "/>
<text text-anchor="middle" x="419.8845" y="-438.3" font-family="Times,serif" font-size="14.00" fill="#000000">io_spi_miso</text>
</g>
<!-- n31&#45;&gt;c55 -->
<g id="edge41" class="edge">
<title>n31:e&#45;&gt;c55:w</title>
<path fill="none" stroke="#7570b3" d="M105.9423,-832C171.925,-832 111.3636,-557.4225 163.9999,-528.4631"/>
<polygon fill="#7570b3" stroke="#7570b3" points="165.0276,-531.8142 173.8845,-526 163.3349,-525.0219 165.0276,-531.8142"/>
</g>
<!-- n31&#45;&gt;c60 -->
<g id="edge42" class="edge">
<title>n31:e&#45;&gt;c60:w</title>
<path fill="none" stroke="#7570b3" d="M105.9423,-832C136.1911,-832 143.6669,-829.3744 173.8845,-828 436.7431,-816.0444 502.4925,-809 765.6229,-809 765.6229,-809 765.6229,-809 3785.4149,-809 4046.6856,-809 4162.6662,-853.9346 4359.3916,-682 4391.3273,-654.0888 4356.1901,-595.3228 4385.3521,-585.4285"/>
<polygon fill="#7570b3" stroke="#7570b3" points="4385.9844,-588.8739 4395.3916,-584 4384.9982,-581.9437 4385.9844,-588.8739"/>
</g>
<!-- x8 -->
<g id="node55" class="node">
<title>x8</title>
<path fill="none" stroke="#000000" d="M345.8845,-873C345.8845,-873 315.8845,-873 315.8845,-873 309.8845,-873 303.8845,-867 303.8845,-861 303.8845,-861 303.8845,-849 303.8845,-849 303.8845,-843 309.8845,-837 315.8845,-837 315.8845,-837 345.8845,-837 345.8845,-837 351.8845,-837 357.8845,-843 357.8845,-849 357.8845,-849 357.8845,-861 357.8845,-861 357.8845,-867 351.8845,-873 345.8845,-873"/>
<text text-anchor="middle" x="330.8845" y="-851.3" font-family="Times,serif" font-size="14.00" fill="#000000">BUF</text>
</g>
<!-- n31&#45;&gt;x8 -->
<g id="edge46" class="edge">
<title>n31:e&#45;&gt;x8:w</title>
<path fill="none" stroke="#7570b3" d="M105.9423,-832C191.0489,-832 213.5891,-853.2382 293.8078,-854.8975"/>
<polygon fill="#7570b3" stroke="#7570b3" points="293.8494,-858.398 303.8845,-855 293.9207,-851.3983 293.8494,-858.398"/>
</g>
<!-- x10 -->
<g id="node57" class="node">
<title>x10</title>
<path fill="none" stroke="#000000" d="M345.8845,-1019C345.8845,-1019 315.8845,-1019 315.8845,-1019 309.8845,-1019 303.8845,-1013 303.8845,-1007 303.8845,-1007 303.8845,-995 303.8845,-995 303.8845,-989 309.8845,-983 315.8845,-983 315.8845,-983 345.8845,-983 345.8845,-983 351.8845,-983 357.8845,-989 357.8845,-995 357.8845,-995 357.8845,-1007 357.8845,-1007 357.8845,-1013 351.8845,-1019 345.8845,-1019"/>
<text text-anchor="middle" x="330.8845" y="-997.3" font-family="Times,serif" font-size="14.00" fill="#000000">BUF</text>
</g>
<!-- n31&#45;&gt;x10 -->
<g id="edge43" class="edge">
<title>n31:e&#45;&gt;x10:w</title>
<path fill="none" stroke="#7570b3" d="M105.9423,-832C175.9054,-832 118.8143,-930.8477 173.8845,-974 217.6121,-1008.2643 241.9228,-1001.944 293.8552,-1001.0857"/>
<polygon fill="#7570b3" stroke="#7570b3" points="293.9148,-1004.5854 303.8845,-1001 293.855,-997.5857 293.9148,-1004.5854"/>
</g>
<!-- x12 -->
<g id="node59" class="node">
<title>x12</title>
<path fill="none" stroke="#000000" d="M345.8845,-965C345.8845,-965 315.8845,-965 315.8845,-965 309.8845,-965 303.8845,-959 303.8845,-953 303.8845,-953 303.8845,-941 303.8845,-941 303.8845,-935 309.8845,-929 315.8845,-929 315.8845,-929 345.8845,-929 345.8845,-929 351.8845,-929 357.8845,-935 357.8845,-941 357.8845,-941 357.8845,-953 357.8845,-953 357.8845,-959 351.8845,-965 345.8845,-965"/>
<text text-anchor="middle" x="330.8845" y="-943.3" font-family="Times,serif" font-size="14.00" fill="#000000">BUF</text>
</g>
<!-- n31&#45;&gt;x12 -->
<g id="edge44" class="edge">
<title>n31:e&#45;&gt;x12:w</title>
<path fill="none" stroke="#7570b3" d="M105.9423,-832C153.6143,-832 133.5726,-889.5525 173.8845,-915 221.2522,-944.9015 241.9136,-946.8639 293.8161,-946.9913"/>
<polygon fill="#7570b3" stroke="#7570b3" points="293.8815,-950.4912 303.8845,-947 293.8876,-943.4912 293.8815,-950.4912"/>
</g>
<!-- x19 -->
<g id="node66" class="node">
<title>x19</title>
<path fill="none" stroke="#000000" d="M345.8845,-781C345.8845,-781 315.8845,-781 315.8845,-781 309.8845,-781 303.8845,-775 303.8845,-769 303.8845,-769 303.8845,-757 303.8845,-757 303.8845,-751 309.8845,-745 315.8845,-745 315.8845,-745 345.8845,-745 345.8845,-745 351.8845,-745 357.8845,-751 357.8845,-757 357.8845,-757 357.8845,-769 357.8845,-769 357.8845,-775 351.8845,-781 345.8845,-781"/>
<text text-anchor="middle" x="330.8845" y="-759.3" font-family="Times,serif" font-size="14.00" fill="#000000">BUF</text>
</g>
<!-- n31&#45;&gt;x19 -->
<g id="edge45" class="edge">
<title>n31:e&#45;&gt;x19:w</title>
<path fill="none" stroke="#7570b3" d="M105.9423,-832C140.3262,-832 141.8277,-807.4342 173.8845,-795 226.1095,-774.743 242.4828,-764.2663 293.8662,-763.1081"/>
<polygon fill="#7570b3" stroke="#7570b3" points="293.9229,-766.6078 303.8845,-763 293.8473,-759.6082 293.9229,-766.6078"/>
</g>
<!-- n32 -->
<g id="node32" class="node">
<title>n32</title>
<polygon fill="none" stroke="#000000" points="6544.8311,-488.5442 6544.8311,-503.4558 6503.1785,-514 6444.2727,-514 6402.6201,-503.4558 6402.6201,-488.5442 6444.2727,-478 6503.1785,-478 6544.8311,-488.5442"/>
<text text-anchor="middle" x="6473.7256" y="-492.3" font-family="Times,serif" font-size="14.00" fill="#000000">io_pwm_out</text>
</g>
<!-- n33 -->
<g id="node33" class="node">
<title>n33</title>
<polygon fill="none" stroke="#000000" points="128.1292,-631.5442 128.1292,-646.4558 93.4583,-657 44.4263,-657 9.7554,-646.4558 9.7554,-631.5442 44.4263,-621 93.4583,-621 128.1292,-631.5442"/>
<text text-anchor="middle" x="68.9423" y="-635.3" font-family="Times,serif" font-size="14.00" fill="#000000">io_spi_clk</text>
</g>
<!-- n33&#45;&gt;c55 -->
<g id="edge48" class="edge">
<title>n33:e&#45;&gt;c55:w</title>
<path fill="none" stroke="#1b9e77" d="M127.9423,-639C187.8795,-639 119.4394,-518.9702 163.831,-504.4353"/>
<polygon fill="#1b9e77" stroke="#1b9e77" points="164.4796,-507.8783 173.8845,-503 163.4902,-500.9486 164.4796,-507.8783"/>
</g>
<!-- x15 -->
<g id="node62" class="node">
<title>x15</title>
<path fill="none" stroke="#000000" d="M345.8845,-657C345.8845,-657 315.8845,-657 315.8845,-657 309.8845,-657 303.8845,-651 303.8845,-645 303.8845,-645 303.8845,-633 303.8845,-633 303.8845,-627 309.8845,-621 315.8845,-621 315.8845,-621 345.8845,-621 345.8845,-621 351.8845,-621 357.8845,-627 357.8845,-633 357.8845,-633 357.8845,-645 357.8845,-645 357.8845,-651 351.8845,-657 345.8845,-657"/>
<text text-anchor="middle" x="330.8845" y="-635.3" font-family="Times,serif" font-size="14.00" fill="#000000">BUF</text>
</g>
<!-- n33&#45;&gt;x15 -->
<g id="edge49" class="edge">
<title>n33:e&#45;&gt;x15:w</title>
<path fill="none" stroke="#1b9e77" d="M127.9423,-639C202.6261,-639 223.8133,-639 293.6907,-639"/>
<polygon fill="#1b9e77" stroke="#1b9e77" points="293.8846,-642.5001 303.8845,-639 293.8845,-635.5001 293.8846,-642.5001"/>
</g>
<!-- n34 -->
<g id="node34" class="node">
<title>n34</title>
<polygon fill="none" stroke="#000000" points="135.6063,-538.5442 135.6063,-553.4558 96.5554,-564 41.3291,-564 2.2783,-553.4558 2.2783,-538.5442 41.3291,-528 96.5554,-528 135.6063,-538.5442"/>
<text text-anchor="middle" x="68.9423" y="-542.3" font-family="Times,serif" font-size="14.00" fill="#000000">io_spi_cs_n</text>
</g>
<!-- n34&#45;&gt;c55 -->
<g id="edge50" class="edge">
<title>n34:e&#45;&gt;c55:w</title>
<path fill="none" stroke="#a6761d" d="M135.9423,-546C165.548,-546 146.4883,-495.4688 163.9276,-482.8359"/>
<polygon fill="#a6761d" stroke="#a6761d" points="165.2258,-486.1055 173.8845,-480 163.3083,-479.3732 165.2258,-486.1055"/>
</g>
<!-- x16 -->
<g id="node63" class="node">
<title>x16</title>
<path fill="none" stroke="#000000" d="M345.8845,-599C345.8845,-599 315.8845,-599 315.8845,-599 309.8845,-599 303.8845,-593 303.8845,-587 303.8845,-587 303.8845,-575 303.8845,-575 303.8845,-569 309.8845,-563 315.8845,-563 315.8845,-563 345.8845,-563 345.8845,-563 351.8845,-563 357.8845,-569 357.8845,-575 357.8845,-575 357.8845,-587 357.8845,-587 357.8845,-593 351.8845,-599 345.8845,-599"/>
<text text-anchor="middle" x="330.8845" y="-577.3" font-family="Times,serif" font-size="14.00" fill="#000000">BUF</text>
</g>
<!-- n34&#45;&gt;x16 -->
<g id="edge51" class="edge">
<title>n34:e&#45;&gt;x16:w</title>
<path fill="none" stroke="#a6761d" d="M135.9423,-546C208.613,-546 226.0575,-577.7957 293.5508,-580.7765"/>
<polygon fill="#a6761d" stroke="#a6761d" points="293.8112,-584.2829 303.8845,-581 293.9626,-577.2845 293.8112,-584.2829"/>
</g>
<!-- n35 -->
<g id="node35" class="node">
<title>n35</title>
<polygon fill="none" stroke="#000000" points="6542.6102,-317.5442 6542.6102,-332.4558 6502.2585,-343 6445.1927,-343 6404.841,-332.4558 6404.841,-317.5442 6445.1927,-307 6502.2585,-307 6542.6102,-317.5442"/>
<text text-anchor="middle" x="6473.7256" y="-321.3" font-family="Times,serif" font-size="14.00" fill="#000000">io_spi_miso</text>
</g>
<!-- n36 -->
<g id="node36" class="node">
<title>n36</title>
<polygon fill="none" stroke="#000000" points="137.8268,-405.5442 137.8268,-420.4558 97.4752,-431 40.4093,-431 .0577,-420.4558 .0577,-405.5442 40.4093,-395 97.4752,-395 137.8268,-405.5442"/>
<text text-anchor="middle" x="68.9423" y="-409.3" font-family="Times,serif" font-size="14.00" fill="#000000">io_spi_mosi</text>
</g>
<!-- n36&#45;&gt;c55 -->
<g id="edge53" class="edge">
<title>n36:e&#45;&gt;c55:w</title>
<path fill="none" stroke="#66a61e" d="M137.8845,-413C159.0061,-413 152.3152,-443.7468 164.3108,-453.8356"/>
<polygon fill="#66a61e" stroke="#66a61e" points="163.2913,-457.1848 173.8845,-457 165.4882,-450.5385 163.2913,-457.1848"/>
</g>
<!-- x17 -->
<g id="node64" class="node">
<title>x17</title>
<path fill="none" stroke="#000000" d="M345.8845,-396C345.8845,-396 315.8845,-396 315.8845,-396 309.8845,-396 303.8845,-390 303.8845,-384 303.8845,-384 303.8845,-372 303.8845,-372 303.8845,-366 309.8845,-360 315.8845,-360 315.8845,-360 345.8845,-360 345.8845,-360 351.8845,-360 357.8845,-366 357.8845,-372 357.8845,-372 357.8845,-384 357.8845,-384 357.8845,-390 351.8845,-396 345.8845,-396"/>
<text text-anchor="middle" x="330.8845" y="-374.3" font-family="Times,serif" font-size="14.00" fill="#000000">BUF</text>
</g>
<!-- n36&#45;&gt;x17 -->
<g id="edge54" class="edge">
<title>n36:e&#45;&gt;x17:w</title>
<path fill="none" stroke="#66a61e" d="M137.8845,-413C209.75,-413 226.9274,-381.2043 293.6659,-378.2235"/>
<polygon fill="#66a61e" stroke="#66a61e" points="293.9635,-381.7179 303.8845,-378 293.8104,-374.7196 293.9635,-381.7179"/>
</g>
<!-- n37 -->
<g id="node37" class="node">
<title>n37</title>
<polygon fill="none" stroke="#000000" points="106.0137,-218.5442 106.0137,-233.4558 84.2978,-244 53.5868,-244 31.8708,-233.4558 31.8708,-218.5442 53.5868,-208 84.2978,-208 106.0137,-218.5442"/>
<text text-anchor="middle" x="68.9423" y="-222.3" font-family="Times,serif" font-size="14.00" fill="#000000">reset</text>
</g>
<!-- n37&#45;&gt;c49 -->
<g id="edge55" class="edge">
<title>n37:e&#45;&gt;c49:w</title>
<path fill="none" stroke="#1b9e77" d="M105.9423,-226C138.2743,-226 142.2782,-245.1879 173.8845,-252 431.4251,-307.5075 502.1684,-287 765.6229,-287 765.6229,-287 765.6229,-287 4117.6532,-287 4747.5357,-287 4903.3947,-344.827 5528.154,-425 5659.4435,-441.8479 5692.4744,-471.449 5819.7968,-472.9413"/>
<polygon fill="#1b9e77" stroke="#1b9e77" points="5819.9232,-476.442 5829.9433,-473 5819.9637,-469.4421 5819.9232,-476.442"/>
</g>
<!-- n37&#45;&gt;c54 -->
<g id="edge56" class="edge">
<title>n37:e&#45;&gt;c54:w</title>
<path fill="none" stroke="#1b9e77" d="M105.9423,-226C150.9194,-226 133.2517,-281.7148 173.8845,-301 257.6593,-340.7613 934.4797,-286.6638 1007.3612,-344 1048.3578,-376.2521 995.7471,-453.118 1033.231,-463.7679"/>
<polygon fill="#1b9e77" stroke="#1b9e77" points="1033.0118,-467.2669 1043.3612,-465 1033.857,-460.3181 1033.0118,-467.2669"/>
</g>
<!-- n37&#45;&gt;c55 -->
<g id="edge57" class="edge">
<title>n37:e&#45;&gt;c55:w</title>
<path fill="none" stroke="#1b9e77" d="M105.9423,-226C150.959,-226 129.1802,-404.2708 164.2819,-430.7328"/>
<polygon fill="#1b9e77" stroke="#1b9e77" points="163.2901,-434.0923 173.8845,-434 165.5449,-427.4654 163.2901,-434.0923"/>
</g>
<!-- n37&#45;&gt;c60 -->
<g id="edge58" class="edge">
<title>n37:e&#45;&gt;c60:w</title>
<path fill="none" stroke="#1b9e77" d="M105.9423,-226C136.1911,-226 143.6669,-228.6256 173.8845,-230 436.7431,-241.9556 502.4925,-249 765.6229,-249 765.6229,-249 765.6229,-249 2973.0707,-249 3313.484,-249 3393.9035,-311.9938 3730.9149,-360 4010.0834,-399.7667 4114.2319,-307.6689 4359.3916,-447 4378.0059,-457.579 4372.7581,-481.9169 4385.4966,-489.618"/>
<polygon fill="#1b9e77" stroke="#1b9e77" points="4384.8501,-493.0623 4395.3916,-492 4386.4885,-486.2567 4384.8501,-493.0623"/>
</g>
<!-- x9 -->
<g id="node56" class="node">
<title>x9</title>
<path fill="none" stroke="#000000" d="M345.8845,-167C345.8845,-167 315.8845,-167 315.8845,-167 309.8845,-167 303.8845,-161 303.8845,-155 303.8845,-155 303.8845,-143 303.8845,-143 303.8845,-137 309.8845,-131 315.8845,-131 315.8845,-131 345.8845,-131 345.8845,-131 351.8845,-131 357.8845,-137 357.8845,-143 357.8845,-143 357.8845,-155 357.8845,-155 357.8845,-161 351.8845,-167 345.8845,-167"/>
<text text-anchor="middle" x="330.8845" y="-145.3" font-family="Times,serif" font-size="14.00" fill="#000000">BUF</text>
</g>
<!-- n37&#45;&gt;x9 -->
<g id="edge62" class="edge">
<title>n37:e&#45;&gt;x9:w</title>
<path fill="none" stroke="#1b9e77" d="M105.9423,-226C143.4344,-226 139.6448,-191.2743 173.8845,-176 224.5132,-153.4147 242.6685,-149.4356 293.6093,-149.0366"/>
<polygon fill="#1b9e77" stroke="#1b9e77" points="293.8971,-152.5357 303.8845,-149 293.8721,-145.5357 293.8971,-152.5357"/>
</g>
<!-- x11 -->
<g id="node58" class="node">
<title>x11</title>
<path fill="none" stroke="#000000" d="M345.8845,-113C345.8845,-113 315.8845,-113 315.8845,-113 309.8845,-113 303.8845,-107 303.8845,-101 303.8845,-101 303.8845,-89 303.8845,-89 303.8845,-83 309.8845,-77 315.8845,-77 315.8845,-77 345.8845,-77 345.8845,-77 351.8845,-77 357.8845,-83 357.8845,-89 357.8845,-89 357.8845,-101 357.8845,-101 357.8845,-107 351.8845,-113 345.8845,-113"/>
<text text-anchor="middle" x="330.8845" y="-91.3" font-family="Times,serif" font-size="14.00" fill="#000000">BUF</text>
</g>
<!-- n37&#45;&gt;x11 -->
<g id="edge59" class="edge">
<title>n37:e&#45;&gt;x11:w</title>
<path fill="none" stroke="#1b9e77" d="M105.9423,-226C161.1539,-226 128.268,-153.104 173.8845,-122 219.7832,-90.7036 242.1772,-94.4038 293.8776,-94.9449"/>
<polygon fill="#1b9e77" stroke="#1b9e77" points="293.8654,-98.4448 303.8845,-95 293.904,-91.4449 293.8654,-98.4448"/>
</g>
<!-- x18 -->
<g id="node65" class="node">
<title>x18</title>
<path fill="none" stroke="#000000" d="M345.8845,-59C345.8845,-59 315.8845,-59 315.8845,-59 309.8845,-59 303.8845,-53 303.8845,-47 303.8845,-47 303.8845,-35 303.8845,-35 303.8845,-29 309.8845,-23 315.8845,-23 315.8845,-23 345.8845,-23 345.8845,-23 351.8845,-23 357.8845,-29 357.8845,-35 357.8845,-35 357.8845,-47 357.8845,-47 357.8845,-53 351.8845,-59 345.8845,-59"/>
<text text-anchor="middle" x="330.8845" y="-37.3" font-family="Times,serif" font-size="14.00" fill="#000000">BUF</text>
</g>
<!-- n37&#45;&gt;x18 -->
<g id="edge60" class="edge">
<title>n37:e&#45;&gt;x18:w</title>
<path fill="none" stroke="#1b9e77" d="M105.9423,-226C182.3817,-226 114.6755,-116.3454 173.8845,-68 216.9153,-32.8645 241.8411,-39.9539 293.8481,-40.9053"/>
<polygon fill="#1b9e77" stroke="#1b9e77" points="293.8519,-44.4054 303.8845,-41 293.918,-37.4057 293.8519,-44.4054"/>
</g>
<!-- x22 -->
<g id="node69" class="node">
<title>x22</title>
<path fill="none" stroke="#000000" d="M345.8845,-221C345.8845,-221 315.8845,-221 315.8845,-221 309.8845,-221 303.8845,-215 303.8845,-209 303.8845,-209 303.8845,-197 303.8845,-197 303.8845,-191 309.8845,-185 315.8845,-185 315.8845,-185 345.8845,-185 345.8845,-185 351.8845,-185 357.8845,-191 357.8845,-197 357.8845,-197 357.8845,-209 357.8845,-209 357.8845,-215 351.8845,-221 345.8845,-221"/>
<text text-anchor="middle" x="330.8845" y="-199.3" font-family="Times,serif" font-size="14.00" fill="#000000">BUF</text>
</g>
<!-- n37&#45;&gt;x22 -->
<g id="edge61" class="edge">
<title>n37:e&#45;&gt;x22:w</title>
<path fill="none" stroke="#1b9e77" d="M105.9423,-226C191.0489,-226 213.5891,-204.7618 293.8078,-203.1025"/>
<polygon fill="#1b9e77" stroke="#1b9e77" points="293.9207,-206.6017 303.8845,-203 293.8494,-199.602 293.9207,-206.6017"/>
</g>
<!-- v0 -->
<g id="node38" class="node">
<title>v0</title>
<ellipse fill="none" stroke="#000000" cx="5174.2728" cy="-446" rx="211.7625" ry="18"/>
<text text-anchor="middle" x="5174.2728" y="-442.3" font-family="Times,serif" font-size="14.00" fill="#000000">32&#39;10000000000000000000000000000000</text>
</g>
<!-- v0&#45;&gt;c41 -->
<g id="edge81" class="edge">
<title>v0:e&#45;&gt;c41:w</title>
<path fill="none" stroke="#1b9e77" stroke-width="3" d="M5386.154,-446C5398.154,-446 5403.404,-446 5412.029,-446"/>
<polygon fill="#1b9e77" stroke="#1b9e77" stroke-width="3" points="5412.154,-449.5001 5422.154,-446 5412.1539,-442.5001 5412.154,-449.5001"/>
</g>
<!-- c41&#45;&gt;n3 -->
<g id="edge33" class="edge">
<title>c41:e&#45;&gt;n3:w</title>
<path fill="none" stroke="#1b9e77" stroke-width="3" d="M5528.154,-458C5565.9137,-458 5530.7687,-387.1625 5554.2893,-373.327"/>
<polygon fill="#1b9e77" stroke="#1b9e77" stroke-width="3" points="5555.2247,-376.7025 5564.154,-371 5553.6175,-369.8895 5555.2247,-376.7025"/>
</g>
<!-- c42 -->
<g id="node40" class="node">
<title>c42</title>
<polygon fill="none" stroke="#000000" points="2430.8901,-536 2430.8901,-574 2571.8901,-574 2571.8901,-536 2430.8901,-536"/>
<text text-anchor="middle" x="2443.8901" y="-551.3" font-family="Times,serif" font-size="14.00" fill="#000000">A</text>
<polyline fill="none" stroke="#000000" points="2456.8901,-536 2456.8901,-574 "/>
<text text-anchor="middle" x="2501.3901" y="-558.8" font-family="Times,serif" font-size="14.00" fill="#000000">$467</text>
<text text-anchor="middle" x="2501.3901" y="-543.8" font-family="Times,serif" font-size="14.00" fill="#000000">$logic_not</text>
<polyline fill="none" stroke="#000000" points="2545.8901,-536 2545.8901,-574 "/>
<text text-anchor="middle" x="2558.8901" y="-551.3" font-family="Times,serif" font-size="14.00" fill="#000000">Y</text>
</g>
<!-- c42&#45;&gt;n29 -->
<g id="edge31" class="edge">
<title>c42:e&#45;&gt;n29:w</title>
<path fill="none" stroke="#a6761d" d="M2572.3901,-555C2711.9118,-555 2770.5736,-603.289 2884.6787,-523 2911.957,-503.8059 2889.8062,-458.5171 2911.0915,-448.8398"/>
<polygon fill="#a6761d" stroke="#a6761d" points="2911.871,-452.2552 2921.0707,-447 2910.6018,-445.3712 2911.871,-452.2552"/>
</g>
<!-- x1&#45;&gt;c42 -->
<g id="edge1" class="edge">
<title>x1:e&#45;&gt;c42:w</title>
<path fill="none" stroke="#e7298a" stroke-width="3" d="M2076.7536,-557.9943C2225.2989,-557.8534 2269.616,-555.1484 2418.0939,-555.0058"/>
<polygon fill="none" stroke="#e7298a" stroke-width="3" points="2076.6016,-557.9943 2070.6035,-561.9971 2064.6016,-558 2070.5997,-553.9971 2076.6016,-557.9943"/>
<polygon fill="none" stroke="#e7298a" stroke-width="3" points="2418.3901,-555.0058 2424.3882,-551.0029 2430.3901,-555 2424.3921,-559.0029 2418.3901,-555.0058"/>
</g>
<!-- v2 -->
<g id="node42" class="node">
<title>v2</title>
<ellipse fill="none" stroke="#000000" cx="2026.6016" cy="-503" rx="27" ry="18"/>
<text text-anchor="middle" x="2026.6016" y="-499.3" font-family="Times,serif" font-size="14.00" fill="#000000">1&#39;1</text>
</g>
<!-- c43 -->
<g id="node43" class="node">
<title>c43</title>
<polygon fill="none" stroke="#000000" points="2448.3901,-468 2448.3901,-514 2554.3901,-514 2554.3901,-468 2448.3901,-468"/>
<text text-anchor="middle" x="2461.8901" y="-498.8" font-family="Times,serif" font-size="14.00" fill="#000000">A</text>
<polyline fill="none" stroke="#000000" points="2448.3901,-491 2475.3901,-491 "/>
<text text-anchor="middle" x="2461.8901" y="-475.8" font-family="Times,serif" font-size="14.00" fill="#000000">B</text>
<polyline fill="none" stroke="#000000" points="2475.3901,-468 2475.3901,-514 "/>
<text text-anchor="middle" x="2501.8901" y="-494.8" font-family="Times,serif" font-size="14.00" fill="#000000">$468</text>
<text text-anchor="middle" x="2501.8901" y="-479.8" font-family="Times,serif" font-size="14.00" fill="#000000">$eq</text>
<polyline fill="none" stroke="#000000" points="2528.3901,-468 2528.3901,-514 "/>
<text text-anchor="middle" x="2541.3901" y="-487.3" font-family="Times,serif" font-size="14.00" fill="#000000">Y</text>
</g>
<!-- v2&#45;&gt;c43 -->
<g id="edge82" class="edge">
<title>v2:e&#45;&gt;c43:w</title>
<path fill="none" stroke="#e6ab02" d="M2053.6016,-503C2225.6362,-503 2271.1649,-503 2438.2578,-503"/>
<polygon fill="#e6ab02" stroke="#e6ab02" points="2438.3902,-506.5001 2448.3901,-503 2438.3901,-499.5001 2438.3902,-506.5001"/>
</g>
<!-- c43&#45;&gt;n30 -->
<g id="edge37" class="edge">
<title>c43:e&#45;&gt;n30:w</title>
<path fill="none" stroke="#e6ab02" d="M2554.3901,-491C2702.007,-491 2748.102,-469.9864 2884.6787,-526 2899.9268,-532.2536 2900.8495,-546.9558 2911.0606,-552.6706"/>
<polygon fill="#e6ab02" stroke="#e6ab02" points="2910.5376,-556.1423 2921.0707,-555 2912.1242,-549.3245 2910.5376,-556.1423"/>
</g>
<!-- x3&#45;&gt;c43 -->
<g id="edge2" class="edge">
<title>x3:e&#45;&gt;c43:w</title>
<path fill="none" stroke="#e7298a" stroke-width="3" d="M2076.9074,-448.0545C2233.9061,-449.46 2279.2408,-477.5761 2436.3794,-478.9481"/>
<polygon fill="none" stroke="#e7298a" stroke-width="3" points="2076.6014,-448.0533 2070.5837,-452.0266 2064.6016,-448 2070.6193,-444.0267 2076.6014,-448.0533"/>
<polygon fill="none" stroke="#e7298a" stroke-width="3" points="2436.3903,-478.948 2442.4075,-474.9741 2448.3901,-479 2442.3729,-482.974 2436.3903,-478.948"/>
</g>
<!-- v4 -->
<g id="node45" class="node">
<title>v4</title>
<ellipse fill="none" stroke="#000000" cx="2973.0707" cy="-501" rx="27" ry="18"/>
<text text-anchor="middle" x="2973.0707" y="-497.3" font-family="Times,serif" font-size="14.00" fill="#000000">1&#39;0</text>
</g>
<!-- v4&#45;&gt;c45 -->
<g id="edge83" class="edge">
<title>v4:e&#45;&gt;c45:w</title>
<path fill="none" stroke="#a6761d" d="M3000.0707,-501C3102.3456,-501 3130.4593,-500.0653 3227.8095,-500.0032"/>
<polygon fill="#a6761d" stroke="#a6761d" points="3228.0914,-503.5032 3238.0903,-500 3228.0891,-496.5032 3228.0914,-503.5032"/>
</g>
<!-- c45&#45;&gt;n25 -->
<g id="edge26" class="edge">
<title>c45:e&#45;&gt;n25:w</title>
<path fill="none" stroke="#e7298a" d="M3348.0903,-500C3358.9375,-500 3509.5394,-457.9597 3550.9579,-448.7634"/>
<polygon fill="#e7298a" stroke="#e7298a" points="3551.5889,-452.2062 3560.8164,-447 3550.3563,-445.3155 3551.5889,-452.2062"/>
</g>
<!-- v5 -->
<g id="node47" class="node">
<title>v5</title>
<ellipse fill="none" stroke="#000000" cx="3627.8164" cy="-501" rx="27" ry="18"/>
<text text-anchor="middle" x="3627.8164" y="-497.3" font-family="Times,serif" font-size="14.00" fill="#000000">1&#39;0</text>
</g>
<!-- v5&#45;&gt;c46 -->
<g id="edge84" class="edge">
<title>v5:e&#45;&gt;c46:w</title>
<path fill="none" stroke="#e6ab02" d="M3654.8164,-501C3685.653,-501 3694.6296,-488.9972 3720.8551,-486.4654"/>
<polygon fill="#e6ab02" stroke="#e6ab02" points="3721.0873,-489.9585 3730.9149,-486 3720.7638,-482.9659 3721.0873,-489.9585"/>
</g>
<!-- c46&#45;&gt;n22 -->
<g id="edge21" class="edge">
<title>c46:e&#45;&gt;n22:w</title>
<path fill="none" stroke="#a6761d" d="M3839.9149,-463C3852.5933,-463 3857.1222,-469.3171 3865.8532,-472.3769"/>
<polygon fill="#a6761d" stroke="#a6761d" points="3865.4851,-475.8627 3875.9149,-474 3866.5999,-468.952 3865.4851,-475.8627"/>
</g>
<!-- c49&#45;&gt;n2 -->
<g id="edge17" class="edge">
<title>c49:e&#45;&gt;n2:w</title>
<path fill="none" stroke="#7570b3" d="M6032.9433,-496C6044.9433,-496 6050.1933,-496 6058.8183,-496"/>
<polygon fill="#7570b3" stroke="#7570b3" points="6058.9433,-499.5001 6068.9433,-496 6058.9433,-492.5001 6058.9433,-499.5001"/>
</g>
<!-- c54&#45;&gt;n8 -->
<g id="edge71" class="edge">
<title>c54:e&#45;&gt;n8:w</title>
<path fill="none" stroke="#1b9e77" stroke-width="3" d="M1441.3612,-523C1459.4925,-523 1457.1945,-546.1055 1467.6647,-554.77"/>
<polygon fill="#1b9e77" stroke="#1b9e77" stroke-width="3" points="1466.7676,-558.1602 1477.3612,-558 1468.9799,-551.519 1466.7676,-558.1602"/>
</g>
<!-- c54&#45;&gt;n9 -->
<g id="edge79" class="edge">
<title>c54:e&#45;&gt;n9:w</title>
<path fill="none" stroke="#e7298a" d="M1441.3612,-477C1663.5926,-477 1717.9774,-445.3696 1935.1016,-398 1951.3258,-394.4604 1954.7149,-390.6892 1971.1016,-388 2035.6679,-377.4042 2052.7039,-382.0557 2118.1016,-380 2533.8049,-366.9326 2640.4638,-371.9178 3051.3894,-371.999"/>
<polygon fill="#e7298a" stroke="#e7298a" points="3051.4623,-375.4989 3061.4626,-372 3051.463,-368.4989 3051.4623,-375.4989"/>
</g>
<!-- c55&#45;&gt;n6 -->
<g id="edge65" class="edge">
<title>c55:e&#45;&gt;n6:w</title>
<path fill="none" stroke="#e7298a" stroke-width="3" d="M487.8845,-519C517.594,-519 526.4137,-530.105 551.5535,-532.5342"/>
<polygon fill="#e7298a" stroke="#e7298a" stroke-width="3" points="551.4718,-536.0341 561.6229,-533 551.7953,-529.0415 551.4718,-536.0341"/>
</g>
<!-- c55&#45;&gt;n7 -->
<g id="edge68" class="edge">
<title>c55:e&#45;&gt;n7:w</title>
<path fill="none" stroke="#7570b3" d="M487.8845,-481C499.903,-481 505.1299,-479.875 513.7526,-479.3125"/>
<polygon fill="#7570b3" stroke="#7570b3" points="513.9972,-482.8067 523.8845,-479 513.7814,-475.81 513.9972,-482.8067"/>
</g>
<!-- c55&#45;&gt;n16 -->
<g id="edge12" class="edge">
<title>c55:e&#45;&gt;n16:w</title>
<path fill="none" stroke="#7570b3" d="M487.8845,-442C539.4062,-442 553.7516,-427.1208 600.481,-425.2028"/>
<polygon fill="#7570b3" stroke="#7570b3" points="600.6949,-428.6993 610.6229,-425 600.5549,-421.7007 600.6949,-428.6993"/>
</g>
<!-- c60&#45;&gt;n23 -->
<g id="edge23" class="edge">
<title>c60:e&#45;&gt;n23:w</title>
<path fill="none" stroke="#a6761d" stroke-width="3" d="M4926.3916,-538C4946.6571,-538 4947.4631,-516.3375 4961.3435,-509.2294"/>
<polygon fill="#a6761d" stroke="#a6761d" stroke-width="3" points="4962.2825,-512.6058 4971.2728,-507 4960.7489,-505.7759 4962.2825,-512.6058"/>
</g>
<!-- x6&#45;&gt;c60 -->
<g id="edge3" class="edge">
<title>x6:e&#45;&gt;c60:w</title>
<path fill="none" stroke="#7570b3" stroke-width="3" d="M4176.8751,-654.6013C4272.3589,-648.235 4287.7558,-567.6724 4383.3282,-561.3882"/>
<polygon fill="none" stroke="#7570b3" stroke-width="3" points="4176.6468,-654.6087 4170.7805,-658.8022 4164.6532,-655 4170.5196,-650.8065 4176.6468,-654.6087"/>
<polygon fill="none" stroke="#7570b3" stroke-width="3" points="4383.3978,-561.386 4389.266,-557.1951 4395.3916,-561 4389.5234,-565.1909 4383.3978,-561.386"/>
</g>
<!-- x7&#45;&gt;c60 -->
<g id="edge4" class="edge">
<title>x7:e&#45;&gt;c60:w</title>
<path fill="none" stroke="#e6ab02" stroke-width="3" d="M3361.2209,-427.856C3431.6822,-426.2061 3464.3334,-411.7297 3524.7179,-456 3553.5714,-477.1536 3530.3973,-509.0089 3560.7179,-528 3871.6749,-722.7657 4021.0991,-542.061 4383.2438,-538.0669"/>
<polygon fill="none" stroke="#e6ab02" stroke-width="3" points="3361.0894,-427.8575 3355.1373,-431.9285 3349.0903,-428 3355.0424,-423.929 3361.0894,-427.8575"/>
<polygon fill="none" stroke="#e6ab02" stroke-width="3" points="4383.3918,-538.0662 4389.3696,-534.0332 4395.3916,-538 4389.4137,-542.033 4383.3918,-538.0662"/>
</g>
<!-- x8&#45;&gt;n1 -->
<g id="edge5" class="edge">
<title>x8:e&#45;&gt;n1:w</title>
<path fill="none" stroke="#66a61e" d="M357.8845,-855C495.6539,-855 532.6189,-855 665.4661,-855"/>
<polygon fill="#66a61e" stroke="#66a61e" points="665.6229,-858.5001 675.6229,-855 665.6229,-851.5001 665.6229,-858.5001"/>
</g>
<!-- x9&#45;&gt;n4 -->
<g id="edge63" class="edge">
<title>x9:e&#45;&gt;n4:w</title>
<path fill="none" stroke="#1b9e77" d="M357.8845,-149C495.6539,-149 532.6189,-149 665.4661,-149"/>
<polygon fill="#1b9e77" stroke="#1b9e77" points="665.6229,-152.5001 675.6229,-149 665.6229,-145.5001 665.6229,-152.5001"/>
</g>
<!-- x10&#45;&gt;n5 -->
<g id="edge64" class="edge">
<title>x10:e&#45;&gt;n5:w</title>
<path fill="none" stroke="#e7298a" d="M357.8845,-1001C461.8614,-1001 490.3687,-1001 589.4814,-1001"/>
<polygon fill="#e7298a" stroke="#e7298a" points="589.6229,-1004.5001 599.6229,-1001 589.6229,-997.5001 589.6229,-1004.5001"/>
</g>
<!-- x11&#45;&gt;n10 -->
<g id="edge6" class="edge">
<title>x11:e&#45;&gt;n10:w</title>
<path fill="none" stroke="#d95f02" d="M357.8845,-95C461.4313,-95 489.8207,-95 588.5233,-95"/>
<polygon fill="#d95f02" stroke="#d95f02" points="588.6229,-98.5001 598.6229,-95 588.6229,-91.5001 588.6229,-98.5001"/>
</g>
<!-- x12&#45;&gt;n11 -->
<g id="edge7" class="edge">
<title>x12:e&#45;&gt;n11:w</title>
<path fill="none" stroke="#666666" d="M357.8845,-947C485.4254,-947 519.8328,-947 642.4623,-947"/>
<polygon fill="#666666" stroke="#666666" points="642.6229,-950.5001 652.6229,-947 642.6229,-943.5001 642.6229,-950.5001"/>
</g>
<!-- x13&#45;&gt;n12 -->
<g id="edge8" class="edge">
<title>x13:e&#45;&gt;n12:w</title>
<path fill="none" stroke="#7570b3" stroke-width="3" d="M1269.3612,-602C1392.5841,-602 1425.7508,-611.4606 1544.0487,-611.978"/>
<polygon fill="#7570b3" stroke="#7570b3" stroke-width="3" points="1544.2238,-615.4783 1554.2314,-612 1544.239,-608.4783 1544.2238,-615.4783"/>
</g>
<!-- x14&#45;&gt;n13 -->
<g id="edge9" class="edge">
<title>x14:e&#45;&gt;n13:w</title>
<path fill="none" stroke="#1b9e77" d="M1269.3612,-399C1376.3341,-399 1404.099,-372.7227 1506.1213,-371.0803"/>
<polygon fill="#1b9e77" stroke="#1b9e77" points="1506.2596,-374.5794 1516.2314,-371 1506.2039,-367.5797 1506.2596,-374.5794"/>
</g>
<!-- x15&#45;&gt;n14 -->
<g id="edge10" class="edge">
<title>x15:e&#45;&gt;n14:w</title>
<path fill="none" stroke="#e6ab02" d="M357.8845,-639C472.1022,-639 503.1591,-640.8845 612.5041,-640.995"/>
<polygon fill="#e6ab02" stroke="#e6ab02" points="612.6211,-644.4949 622.6229,-641 612.6247,-637.4949 612.6211,-644.4949"/>
</g>
<!-- x16&#45;&gt;n15 -->
<g id="edge11" class="edge">
<title>x16:e&#45;&gt;n15:w</title>
<path fill="none" stroke="#a6761d" d="M357.8845,-581C468.1354,-581 498.1352,-586.6422 603.5272,-586.9838"/>
<polygon fill="#a6761d" stroke="#a6761d" points="603.6173,-590.4839 613.6229,-587 603.6285,-583.4839 603.6173,-590.4839"/>
</g>
<!-- x17&#45;&gt;n17 -->
<g id="edge14" class="edge">
<title>x17:e&#45;&gt;n17:w</title>
<path fill="none" stroke="#e7298a" d="M357.8845,-378C466.7442,-378 496.4195,-371.4307 600.3301,-371.0201"/>
<polygon fill="#e7298a" stroke="#e7298a" points="600.6298,-374.5196 610.6229,-371 600.616,-367.5196 600.6298,-374.5196"/>
</g>
<!-- x18&#45;&gt;n18 -->
<g id="edge15" class="edge">
<title>x18:e&#45;&gt;n18:w</title>
<path fill="none" stroke="#1b9e77" d="M357.8845,-41C484.9927,-41 519.2833,-41 641.4968,-41"/>
<polygon fill="#1b9e77" stroke="#1b9e77" points="641.6229,-44.5001 651.6229,-41 641.6229,-37.5001 641.6229,-44.5001"/>
</g>
<!-- x19&#45;&gt;n19 -->
<g id="edge16" class="edge">
<title>x19:e&#45;&gt;n19:w</title>
<path fill="none" stroke="#666666" d="M357.8845,-763C466.7024,-763 496.4573,-763 600.3338,-763"/>
<polygon fill="#666666" stroke="#666666" points="600.6229,-766.5001 610.6229,-763 600.6229,-759.5001 600.6229,-766.5001"/>
</g>
<!-- x20&#45;&gt;n20 -->
<g id="edge19" class="edge">
<title>x20:e&#45;&gt;n20:w</title>
<path fill="none" stroke="#7570b3" stroke-width="3" d="M2073.6016,-613C2089.6197,-613 2095.9706,-613 2108.2125,-613"/>
<polygon fill="#7570b3" stroke="#7570b3" stroke-width="3" points="2108.3902,-616.5001 2118.3901,-613 2108.3901,-609.5001 2108.3902,-616.5001"/>
</g>
<!-- x21&#45;&gt;n21 -->
<g id="edge20" class="edge">
<title>x21:e&#45;&gt;n21:w</title>
<path fill="none" stroke="#d95f02" stroke-width="3" d="M2082.1016,-762C2106.9911,-762 2115.6197,-762 2136.317,-762"/>
<polygon fill="#d95f02" stroke="#d95f02" stroke-width="3" points="2136.3902,-765.5001 2146.3901,-762 2136.3901,-758.5001 2136.3902,-765.5001"/>
</g>
<!-- x22&#45;&gt;n24 -->
<g id="edge25" class="edge">
<title>x22:e&#45;&gt;n24:w</title>
<path fill="none" stroke="#e7298a" d="M357.8845,-203C466.2719,-203 495.909,-203 599.3745,-203"/>
<polygon fill="#e7298a" stroke="#e7298a" points="599.6229,-206.5001 609.6229,-203 599.6229,-199.5001 599.6229,-206.5001"/>
</g>
<!-- x23&#45;&gt;n26 -->
<g id="edge28" class="edge">
<title>x23:e&#45;&gt;n26:w</title>
<path fill="none" stroke="#e7298a" stroke-width="3" d="M5958.4433,-371C6027.0819,-371 6046.7551,-371 6110.6119,-371"/>
<polygon fill="#e7298a" stroke="#e7298a" stroke-width="3" points="6110.8081,-374.5001 6120.8081,-371 6110.808,-367.5001 6110.8081,-374.5001"/>
</g>
<!-- x24&#45;&gt;n27 -->
<g id="edge29" class="edge">
<title>x24:e&#45;&gt;n27:w</title>
<path fill="none" stroke="#a6761d" stroke-width="3" d="M5958.4433,-425C6027.0819,-425 6046.7551,-425 6110.6119,-425"/>
<polygon fill="#a6761d" stroke="#a6761d" stroke-width="3" points="6110.8081,-428.5001 6120.8081,-425 6110.808,-421.5001 6110.8081,-428.5001"/>
</g>
<!-- x25&#45;&gt;n28 -->
<g id="edge30" class="edge">
<title>x25:e&#45;&gt;n28:w</title>
<path fill="none" stroke="#d95f02" stroke-width="3" d="M2064.6016,-668C2232.1115,-668 2276.5655,-668 2439.0282,-668"/>
<polygon fill="#d95f02" stroke="#d95f02" stroke-width="3" points="2439.3902,-671.5001 2449.3901,-668 2439.3901,-664.5001 2439.3902,-671.5001"/>
</g>
<!-- x26&#45;&gt;n32 -->
<g id="edge47" class="edge">
<title>x26:e&#45;&gt;n32:w</title>
<path fill="none" stroke="#d95f02" d="M6366.6728,-496C6378.6904,-496 6383.9481,-496 6392.5857,-496"/>
<polygon fill="#d95f02" stroke="#d95f02" points="6392.7256,-499.5001 6402.7256,-496 6392.7255,-492.5001 6392.7256,-499.5001"/>
</g>
<!-- x27&#45;&gt;n35 -->
<g id="edge52" class="edge">
<title>x27:e&#45;&gt;n35:w</title>
<path fill="none" stroke="#e6ab02" d="M3812.4149,-333C4189.5324,-333 4283.7741,-325 4660.8916,-325 4660.8916,-325 4660.8916,-325 6172.8081,-325 6272.4601,-325 6299.8547,-325 6394.7084,-325"/>
<polygon fill="#e6ab02" stroke="#e6ab02" points="6394.7256,-328.5001 6404.7256,-325 6394.7255,-321.5001 6394.7256,-328.5001"/>
</g>
</g>
</svg>
