<?xml version="1.0" encoding="UTF-8" standalone="no"?>
<!DOCTYPE svg PUBLIC "-//W3C//DTD SVG 1.1//EN"
 "http://www.w3.org/Graphics/SVG/1.1/DTD/svg11.dtd">
<!-- Generated by graphviz version 2.40.1 (0)
 -->
<!-- Title: TopModule Pages: 1 -->
<svg width="2223pt" height="504pt"
 viewBox="0.00 0.00 2222.66 504.00" xmlns="http://www.w3.org/2000/svg" xmlns:xlink="http://www.w3.org/1999/xlink">
<g id="graph0" class="graph" transform="scale(1 1) rotate(0) translate(4 500)">
<title>TopModule</title>
<polygon fill="#ffffff" stroke="transparent" points="-4,4 -4,-500 2218.6612,-500 2218.6612,4 -4,4"/>
<text text-anchor="middle" x="1107.3306" y="-7.8" font-family="Times,serif" font-size="14.00" fill="#000000">TopModule</text>
<!-- n2 -->
<g id="node1" class="node">
<title>n2</title>
<polygon fill="none" stroke="#000000" points="716.2628,-69 551.7045,-51 716.2628,-33 880.8211,-51 716.2628,-69"/>
<text text-anchor="middle" x="716.2628" y="-47.3" font-family="Times,serif" font-size="14.00" fill="#000000">VivadoTest_io_spi_cs_n</text>
</g>
<!-- c32 -->
<g id="node29" class="node">
<title>c32</title>
<polygon fill="none" stroke="#000000" points="1287.3652,-159.5 1287.3652,-320.5 1578.3652,-320.5 1578.3652,-159.5 1287.3652,-159.5"/>
<text text-anchor="middle" x="1336.3652" y="-305.3" font-family="Times,serif" font-size="14.00" fill="#000000">clock</text>
<polyline fill="none" stroke="#000000" points="1287.3652,-297.5 1385.3652,-297.5 "/>
<text text-anchor="middle" x="1336.3652" y="-282.3" font-family="Times,serif" font-size="14.00" fill="#000000">io_btn</text>
<polyline fill="none" stroke="#000000" points="1287.3652,-274.5 1385.3652,-274.5 "/>
<text text-anchor="middle" x="1336.3652" y="-259.3" font-family="Times,serif" font-size="14.00" fill="#000000">io_spi_clk</text>
<polyline fill="none" stroke="#000000" points="1287.3652,-251.5 1385.3652,-251.5 "/>
<text text-anchor="middle" x="1336.3652" y="-236.3" font-family="Times,serif" font-size="14.00" fill="#000000">io_spi_cs_n</text>
<polyline fill="none" stroke="#000000" points="1287.3652,-228.5 1385.3652,-228.5 "/>
<text text-anchor="middle" x="1336.3652" y="-213.3" font-family="Times,serif" font-size="14.00" fill="#000000">io_spi_mosi</text>
<polyline fill="none" stroke="#000000" points="1287.3652,-205.5 1385.3652,-205.5 "/>
<text text-anchor="middle" x="1336.3652" y="-190.3" font-family="Times,serif" font-size="14.00" fill="#000000">io_sw</text>
<polyline fill="none" stroke="#000000" points="1287.3652,-182.5 1385.3652,-182.5 "/>
<text text-anchor="middle" x="1336.3652" y="-167.3" font-family="Times,serif" font-size="14.00" fill="#000000">reset</text>
<polyline fill="none" stroke="#000000" points="1385.3652,-159.5 1385.3652,-320.5 "/>
<text text-anchor="middle" x="1432.8652" y="-243.8" font-family="Times,serif" font-size="14.00" fill="#000000">VivadoTest</text>
<text text-anchor="middle" x="1432.8652" y="-228.8" font-family="Times,serif" font-size="14.00" fill="#000000">VivadoTest</text>
<polyline fill="none" stroke="#000000" points="1480.3652,-159.5 1480.3652,-320.5 "/>
<text text-anchor="middle" x="1529.3652" y="-303.8" font-family="Times,serif" font-size="14.00" fill="#000000">io_led</text>
<polyline fill="none" stroke="#000000" points="1480.3652,-294.5 1578.3652,-294.5 "/>
<text text-anchor="middle" x="1529.3652" y="-277.3" font-family="Times,serif" font-size="14.00" fill="#000000">io_rgbled_0</text>
<polyline fill="none" stroke="#000000" points="1480.3652,-267.5 1578.3652,-267.5 "/>
<text text-anchor="middle" x="1529.3652" y="-250.3" font-family="Times,serif" font-size="14.00" fill="#000000">io_rgbled_1</text>
<polyline fill="none" stroke="#000000" points="1480.3652,-240.5 1578.3652,-240.5 "/>
<text text-anchor="middle" x="1529.3652" y="-223.3" font-family="Times,serif" font-size="14.00" fill="#000000">io_rgbled_2</text>
<polyline fill="none" stroke="#000000" points="1480.3652,-213.5 1578.3652,-213.5 "/>
<text text-anchor="middle" x="1529.3652" y="-196.3" font-family="Times,serif" font-size="14.00" fill="#000000">io_rgbled_3</text>
<polyline fill="none" stroke="#000000" points="1480.3652,-186.5 1578.3652,-186.5 "/>
<text text-anchor="middle" x="1529.3652" y="-169.3" font-family="Times,serif" font-size="14.00" fill="#000000">io_spi_miso</text>
</g>
<!-- n2&#45;&gt;c32 -->
<g id="edge18" class="edge">
<title>n2:e&#45;&gt;c32:w</title>
<path fill="none" stroke="#7570b3" d="M880.7919,-51C958.023,-51 858.0555,-170.8534 916.7919,-221 977.1149,-272.5012 1187.9739,-242.5032 1277.3386,-240.1435"/>
<polygon fill="#7570b3" stroke="#7570b3" points="1277.4163,-243.6429 1287.3652,-240 1277.3161,-236.6436 1277.4163,-243.6429"/>
</g>
<!-- n3 -->
<g id="node2" class="node">
<title>n3</title>
<polygon fill="none" stroke="#000000" points="1084.0785,-358 928.9032,-340 1084.0785,-322 1239.2539,-340 1084.0785,-358"/>
<text text-anchor="middle" x="1084.0785" y="-336.3" font-family="Times,serif" font-size="14.00" fill="#000000">VivadoTest_io_spi_clk</text>
</g>
<!-- n3&#45;&gt;c32 -->
<g id="edge28" class="edge">
<title>n3:e&#45;&gt;c32:w</title>
<path fill="none" stroke="#e7298a" d="M1239.0785,-340C1275.5283,-340 1252.6235,-277.3047 1277.4806,-265.0596"/>
<polygon fill="#e7298a" stroke="#e7298a" points="1278.2894,-268.4663 1287.3652,-263 1276.8614,-261.6135 1278.2894,-268.4663"/>
</g>
<!-- n4 -->
<g id="node3" class="node">
<title>n4</title>
<polygon fill="none" stroke="#000000" points="1782.5709,-124 1615.4974,-106 1782.5709,-88 1949.6445,-106 1782.5709,-124"/>
<text text-anchor="middle" x="1782.5709" y="-102.3" font-family="Times,serif" font-size="14.00" fill="#000000">VivadoTest_io_spi_miso</text>
</g>
<!-- x6 -->
<g id="node35" class="node">
<title>x6</title>
<path fill="none" stroke="#000000" d="M2028.7767,-124C2028.7767,-124 1998.7767,-124 1998.7767,-124 1992.7767,-124 1986.7767,-118 1986.7767,-112 1986.7767,-112 1986.7767,-100 1986.7767,-100 1986.7767,-94 1992.7767,-88 1998.7767,-88 1998.7767,-88 2028.7767,-88 2028.7767,-88 2034.7767,-88 2040.7767,-94 2040.7767,-100 2040.7767,-100 2040.7767,-112 2040.7767,-112 2040.7767,-118 2034.7767,-124 2028.7767,-124"/>
<text text-anchor="middle" x="2013.7767" y="-102.3" font-family="Times,serif" font-size="14.00" fill="#000000">BUF</text>
</g>
<!-- n4&#45;&gt;x6 -->
<g id="edge30" class="edge">
<title>n4:e&#45;&gt;x6:w</title>
<path fill="none" stroke="#e7298a" d="M1949.5709,-106C1962.1021,-106 1967.511,-106 1976.5923,-106"/>
<polygon fill="#e7298a" stroke="#e7298a" points="1976.7768,-109.5001 1986.7767,-106 1976.7767,-102.5001 1976.7768,-109.5001"/>
</g>
<!-- n5 -->
<g id="node4" class="node">
<title>n5</title>
<polygon fill="none" stroke="#000000" points="1084.0785,-119 917.005,-101 1084.0785,-83 1251.1521,-101 1084.0785,-119"/>
<text text-anchor="middle" x="1084.0785" y="-97.3" font-family="Times,serif" font-size="14.00" fill="#000000">VivadoTest_io_spi_mosi</text>
</g>
<!-- n5&#45;&gt;c32 -->
<g id="edge32" class="edge">
<title>n5:e&#45;&gt;c32:w</title>
<path fill="none" stroke="#e7298a" d="M1251.0785,-101C1301.0885,-101 1243.3039,-200.4202 1277.313,-215.1779"/>
<polygon fill="#e7298a" stroke="#e7298a" points="1276.9012,-218.6602 1287.3652,-217 1278.1498,-211.7725 1276.9012,-218.6602"/>
</g>
<!-- n6 -->
<g id="node5" class="node">
<title>n6</title>
<polygon fill="none" stroke="#000000" points="1782.5709,-178 1614.1591,-160 1782.5709,-142 1950.9827,-160 1782.5709,-178"/>
<text text-anchor="middle" x="1782.5709" y="-156.3" font-family="Times,serif" font-size="14.00" fill="#000000">VivadoTest_io_rgbled_3</text>
</g>
<!-- x5 -->
<g id="node34" class="node">
<title>x5</title>
<path fill="none" stroke="#000000" d="M2028.7767,-178C2028.7767,-178 1998.7767,-178 1998.7767,-178 1992.7767,-178 1986.7767,-172 1986.7767,-166 1986.7767,-166 1986.7767,-154 1986.7767,-154 1986.7767,-148 1992.7767,-142 1998.7767,-142 1998.7767,-142 2028.7767,-142 2028.7767,-142 2034.7767,-142 2040.7767,-148 2040.7767,-154 2040.7767,-154 2040.7767,-166 2040.7767,-166 2040.7767,-172 2034.7767,-178 2028.7767,-178"/>
<text text-anchor="middle" x="2013.7767" y="-156.3" font-family="Times,serif" font-size="14.00" fill="#000000">BUF</text>
</g>
<!-- n6&#45;&gt;x5 -->
<g id="edge34" class="edge">
<title>n6:e&#45;&gt;x5:w</title>
<path fill="none" stroke="#a6761d" stroke-width="3" d="M1950.5709,-160C1962.6395,-160 1967.9195,-160 1976.5938,-160"/>
<polygon fill="#a6761d" stroke="#a6761d" stroke-width="3" points="1976.7768,-163.5001 1986.7767,-160 1976.7767,-156.5001 1976.7768,-163.5001"/>
</g>
<!-- n7 -->
<g id="node6" class="node">
<title>n7</title>
<polygon fill="none" stroke="#000000" points="1782.5709,-232 1614.1591,-214 1782.5709,-196 1950.9827,-214 1782.5709,-232"/>
<text text-anchor="middle" x="1782.5709" y="-210.3" font-family="Times,serif" font-size="14.00" fill="#000000">VivadoTest_io_rgbled_2</text>
</g>
<!-- x4 -->
<g id="node33" class="node">
<title>x4</title>
<path fill="none" stroke="#000000" d="M2028.7767,-232C2028.7767,-232 1998.7767,-232 1998.7767,-232 1992.7767,-232 1986.7767,-226 1986.7767,-220 1986.7767,-220 1986.7767,-208 1986.7767,-208 1986.7767,-202 1992.7767,-196 1998.7767,-196 1998.7767,-196 2028.7767,-196 2028.7767,-196 2034.7767,-196 2040.7767,-202 2040.7767,-208 2040.7767,-208 2040.7767,-220 2040.7767,-220 2040.7767,-226 2034.7767,-232 2028.7767,-232"/>
<text text-anchor="middle" x="2013.7767" y="-210.3" font-family="Times,serif" font-size="14.00" fill="#000000">BUF</text>
</g>
<!-- n7&#45;&gt;x4 -->
<g id="edge36" class="edge">
<title>n7:e&#45;&gt;x4:w</title>
<path fill="none" stroke="#d95f02" stroke-width="3" d="M1950.5709,-214C1962.6395,-214 1967.9195,-214 1976.5938,-214"/>
<polygon fill="#d95f02" stroke="#d95f02" stroke-width="3" points="1976.7768,-217.5001 1986.7767,-214 1976.7767,-210.5001 1976.7768,-217.5001"/>
</g>
<!-- n8 -->
<g id="node7" class="node">
<title>n8</title>
<polygon fill="none" stroke="#000000" points="1782.5709,-286 1614.1591,-268 1782.5709,-250 1950.9827,-268 1782.5709,-286"/>
<text text-anchor="middle" x="1782.5709" y="-264.3" font-family="Times,serif" font-size="14.00" fill="#000000">VivadoTest_io_rgbled_1</text>
</g>
<!-- x3 -->
<g id="node32" class="node">
<title>x3</title>
<path fill="none" stroke="#000000" d="M2028.7767,-286C2028.7767,-286 1998.7767,-286 1998.7767,-286 1992.7767,-286 1986.7767,-280 1986.7767,-274 1986.7767,-274 1986.7767,-262 1986.7767,-262 1986.7767,-256 1992.7767,-250 1998.7767,-250 1998.7767,-250 2028.7767,-250 2028.7767,-250 2034.7767,-250 2040.7767,-256 2040.7767,-262 2040.7767,-262 2040.7767,-274 2040.7767,-274 2040.7767,-280 2034.7767,-286 2028.7767,-286"/>
<text text-anchor="middle" x="2013.7767" y="-264.3" font-family="Times,serif" font-size="14.00" fill="#000000">BUF</text>
</g>
<!-- n8&#45;&gt;x3 -->
<g id="edge38" class="edge">
<title>n8:e&#45;&gt;x3:w</title>
<path fill="none" stroke="#a6761d" stroke-width="3" d="M1950.5709,-268C1962.6395,-268 1967.9195,-268 1976.5938,-268"/>
<polygon fill="#a6761d" stroke="#a6761d" stroke-width="3" points="1976.7768,-271.5001 1986.7767,-268 1976.7767,-264.5001 1976.7768,-271.5001"/>
</g>
<!-- n9 -->
<g id="node8" class="node">
<title>n9</title>
<polygon fill="none" stroke="#000000" points="1782.5709,-340 1614.1591,-322 1782.5709,-304 1950.9827,-322 1782.5709,-340"/>
<text text-anchor="middle" x="1782.5709" y="-318.3" font-family="Times,serif" font-size="14.00" fill="#000000">VivadoTest_io_rgbled_0</text>
</g>
<!-- x2 -->
<g id="node31" class="node">
<title>x2</title>
<path fill="none" stroke="#000000" d="M2028.7767,-340C2028.7767,-340 1998.7767,-340 1998.7767,-340 1992.7767,-340 1986.7767,-334 1986.7767,-328 1986.7767,-328 1986.7767,-316 1986.7767,-316 1986.7767,-310 1992.7767,-304 1998.7767,-304 1998.7767,-304 2028.7767,-304 2028.7767,-304 2034.7767,-304 2040.7767,-310 2040.7767,-316 2040.7767,-316 2040.7767,-328 2040.7767,-328 2040.7767,-334 2034.7767,-340 2028.7767,-340"/>
<text text-anchor="middle" x="2013.7767" y="-318.3" font-family="Times,serif" font-size="14.00" fill="#000000">BUF</text>
</g>
<!-- n9&#45;&gt;x2 -->
<g id="edge40" class="edge">
<title>n9:e&#45;&gt;x2:w</title>
<path fill="none" stroke="#1b9e77" stroke-width="3" d="M1950.5709,-322C1962.6395,-322 1967.9195,-322 1976.5938,-322"/>
<polygon fill="#1b9e77" stroke="#1b9e77" stroke-width="3" points="1976.7768,-325.5001 1986.7767,-322 1976.7767,-318.5001 1976.7768,-325.5001"/>
</g>
<!-- n10 -->
<g id="node9" class="node">
<title>n10</title>
<polygon fill="none" stroke="#000000" points="1782.5709,-394 1651.1919,-376 1782.5709,-358 1913.9499,-376 1782.5709,-394"/>
<text text-anchor="middle" x="1782.5709" y="-372.3" font-family="Times,serif" font-size="14.00" fill="#000000">VivadoTest_io_led</text>
</g>
<!-- x1 -->
<g id="node30" class="node">
<title>x1</title>
<path fill="none" stroke="#000000" d="M2028.7767,-394C2028.7767,-394 1998.7767,-394 1998.7767,-394 1992.7767,-394 1986.7767,-388 1986.7767,-382 1986.7767,-382 1986.7767,-370 1986.7767,-370 1986.7767,-364 1992.7767,-358 1998.7767,-358 1998.7767,-358 2028.7767,-358 2028.7767,-358 2034.7767,-358 2040.7767,-364 2040.7767,-370 2040.7767,-370 2040.7767,-382 2040.7767,-382 2040.7767,-388 2034.7767,-394 2028.7767,-394"/>
<text text-anchor="middle" x="2013.7767" y="-372.3" font-family="Times,serif" font-size="14.00" fill="#000000">BUF</text>
</g>
<!-- n10&#45;&gt;x1 -->
<g id="edge3" class="edge">
<title>n10:e&#45;&gt;x1:w</title>
<path fill="none" stroke="#e7298a" stroke-width="3" d="M1914.5709,-376C1943.027,-376 1952.5587,-376 1976.7273,-376"/>
<polygon fill="#e7298a" stroke="#e7298a" stroke-width="3" points="1976.7768,-379.5001 1986.7767,-376 1976.7767,-372.5001 1976.7768,-379.5001"/>
</g>
<!-- n11 -->
<g id="node10" class="node">
<title>n11</title>
<polygon fill="none" stroke="#000000" points="716.2628,-166 587.3985,-148 716.2628,-130 845.1271,-148 716.2628,-166"/>
<text text-anchor="middle" x="716.2628" y="-144.3" font-family="Times,serif" font-size="14.00" fill="#000000">VivadoTest_io_sw</text>
</g>
<!-- n11&#45;&gt;c32 -->
<g id="edge5" class="edge">
<title>n11:e&#45;&gt;c32:w</title>
<path fill="none" stroke="#7570b3" stroke-width="3" d="M845.2628,-148C1025.9502,-148 1081.3324,-105.8706 1251.3652,-167 1266.2158,-172.339 1267.5922,-186.0631 1277.3378,-191.6154"/>
<polygon fill="#7570b3" stroke="#7570b3" stroke-width="3" points="1276.8267,-195.0914 1287.3652,-194 1278.4462,-188.2813 1276.8267,-195.0914"/>
</g>
<!-- n12 -->
<g id="node11" class="node">
<title>n12</title>
<polygon fill="none" stroke="#000000" points="1084.0785,-304 951.0226,-286 1084.0785,-268 1217.1345,-286 1084.0785,-304"/>
<text text-anchor="middle" x="1084.0785" y="-282.3" font-family="Times,serif" font-size="14.00" fill="#000000">VivadoTest_io_btn</text>
</g>
<!-- n12&#45;&gt;c32 -->
<g id="edge7" class="edge">
<title>n12:e&#45;&gt;c32:w</title>
<path fill="none" stroke="#e6ab02" stroke-width="3" d="M1217.0785,-286C1244.6563,-286 1253.9745,-286 1277.2727,-286"/>
<polygon fill="#e6ab02" stroke="#e6ab02" stroke-width="3" points="1277.3652,-289.5001 1287.3652,-286 1277.3651,-282.5001 1277.3652,-289.5001"/>
</g>
<!-- n13 -->
<g id="node12" class="node">
<title>n13</title>
<polygon fill="none" stroke="#000000" points="1084.0785,-212 957.3909,-194 1084.0785,-176 1210.7661,-194 1084.0785,-212"/>
<text text-anchor="middle" x="1084.0785" y="-190.3" font-family="Times,serif" font-size="14.00" fill="#000000">VivadoTest_reset</text>
</g>
<!-- n13&#45;&gt;c32 -->
<g id="edge9" class="edge">
<title>n13:e&#45;&gt;c32:w</title>
<path fill="none" stroke="#66a61e" d="M1211.0785,-194C1242.7562,-194 1250.4674,-175.5957 1277.0896,-171.7136"/>
<polygon fill="#66a61e" stroke="#66a61e" points="1277.6317,-175.1844 1287.3652,-171 1277.1467,-168.2013 1277.6317,-175.1844"/>
</g>
<!-- n14 -->
<g id="node13" class="node">
<title>n14</title>
<polygon fill="none" stroke="#000000" points="389.8091,-392 263.9599,-374 389.8091,-356 515.6582,-374 389.8091,-392"/>
<text text-anchor="middle" x="389.8091" y="-370.3" font-family="Times,serif" font-size="14.00" fill="#000000">VivadoTest_clock</text>
</g>
<!-- n14&#45;&gt;c32 -->
<g id="edge11" class="edge">
<title>n14:e&#45;&gt;c32:w</title>
<path fill="none" stroke="#d95f02" d="M515.7336,-374C842.6958,-374 966.3961,-527.3024 1251.3652,-367 1274.0896,-354.2169 1261.9367,-320.5703 1277.325,-311.36"/>
<polygon fill="#d95f02" stroke="#d95f02" points="1278.4313,-314.6954 1287.3652,-309 1276.8296,-307.8811 1278.4313,-314.6954"/>
</g>
<!-- n15 -->
<g id="node14" class="node">
<title>n15</title>
<polygon fill="none" stroke="#000000" points="135.6063,-33.5442 135.6063,-48.4558 96.5554,-59 41.3291,-59 2.2783,-48.4558 2.2783,-33.5442 41.3291,-23 96.5554,-23 135.6063,-33.5442"/>
<text text-anchor="middle" x="68.9423" y="-37.3" font-family="Times,serif" font-size="14.00" fill="#000000">io_spi_cs_n</text>
</g>
<!-- x13 -->
<g id="node42" class="node">
<title>x13</title>
<path fill="none" stroke="#000000" d="M404.8091,-65C404.8091,-65 374.8091,-65 374.8091,-65 368.8091,-65 362.8091,-59 362.8091,-53 362.8091,-53 362.8091,-41 362.8091,-41 362.8091,-35 368.8091,-29 374.8091,-29 374.8091,-29 404.8091,-29 404.8091,-29 410.8091,-29 416.8091,-35 416.8091,-41 416.8091,-41 416.8091,-53 416.8091,-53 416.8091,-59 410.8091,-65 404.8091,-65"/>
<text text-anchor="middle" x="389.8091" y="-43.3" font-family="Times,serif" font-size="14.00" fill="#000000">BUF</text>
</g>
<!-- n15&#45;&gt;x13 -->
<g id="edge12" class="edge">
<title>n15:e&#45;&gt;x13:w</title>
<path fill="none" stroke="#666666" d="M135.9423,-41C233.3597,-41 260.1373,-46.5969 352.7258,-46.9795"/>
<polygon fill="#666666" stroke="#666666" points="352.8019,-50.4795 362.8091,-47 352.8163,-43.4795 352.8019,-50.4795"/>
</g>
<!-- n16 -->
<g id="node15" class="node">
<title>n16</title>
<polygon fill="none" stroke="#000000" points="128.1292,-470.5442 128.1292,-485.4558 93.4583,-496 44.4263,-496 9.7554,-485.4558 9.7554,-470.5442 44.4263,-460 93.4583,-460 128.1292,-470.5442"/>
<text text-anchor="middle" x="68.9423" y="-474.3" font-family="Times,serif" font-size="14.00" fill="#000000">io_spi_clk</text>
</g>
<!-- x12 -->
<g id="node41" class="node">
<title>x12</title>
<path fill="none" stroke="#000000" d="M731.2628,-492C731.2628,-492 701.2628,-492 701.2628,-492 695.2628,-492 689.2628,-486 689.2628,-480 689.2628,-480 689.2628,-468 689.2628,-468 689.2628,-462 695.2628,-456 701.2628,-456 701.2628,-456 731.2628,-456 731.2628,-456 737.2628,-456 743.2628,-462 743.2628,-468 743.2628,-468 743.2628,-480 743.2628,-480 743.2628,-486 737.2628,-492 731.2628,-492"/>
<text text-anchor="middle" x="716.2628" y="-470.3" font-family="Times,serif" font-size="14.00" fill="#000000">BUF</text>
</g>
<!-- n16&#45;&gt;x12 -->
<g id="edge13" class="edge">
<title>n16:e&#45;&gt;x12:w</title>
<path fill="none" stroke="#7570b3" d="M127.9423,-478C374.0135,-478 438.0406,-474.1086 679.1341,-474.0022"/>
<polygon fill="#7570b3" stroke="#7570b3" points="679.2636,-477.5023 689.2628,-474 679.262,-470.5023 679.2636,-477.5023"/>
</g>
<!-- n17 -->
<g id="node16" class="node">
<title>n17</title>
<polygon fill="none" stroke="#000000" points="2214.6036,-98.5442 2214.6036,-113.4558 2174.2519,-124 2117.1861,-124 2076.8344,-113.4558 2076.8344,-98.5442 2117.1861,-88 2174.2519,-88 2214.6036,-98.5442"/>
<text text-anchor="middle" x="2145.719" y="-102.3" font-family="Times,serif" font-size="14.00" fill="#000000">io_spi_miso</text>
</g>
<!-- n18 -->
<g id="node17" class="node">
<title>n18</title>
<polygon fill="none" stroke="#000000" points="137.8268,-87.5442 137.8268,-102.4558 97.4752,-113 40.4093,-113 .0577,-102.4558 .0577,-87.5442 40.4093,-77 97.4752,-77 137.8268,-87.5442"/>
<text text-anchor="middle" x="68.9423" y="-91.3" font-family="Times,serif" font-size="14.00" fill="#000000">io_spi_mosi</text>
</g>
<!-- x11 -->
<g id="node40" class="node">
<title>x11</title>
<path fill="none" stroke="#000000" d="M215.8845,-113C215.8845,-113 185.8845,-113 185.8845,-113 179.8845,-113 173.8845,-107 173.8845,-101 173.8845,-101 173.8845,-89 173.8845,-89 173.8845,-83 179.8845,-77 185.8845,-77 185.8845,-77 215.8845,-77 215.8845,-77 221.8845,-77 227.8845,-83 227.8845,-89 227.8845,-89 227.8845,-101 227.8845,-101 227.8845,-107 221.8845,-113 215.8845,-113"/>
<text text-anchor="middle" x="200.8845" y="-91.3" font-family="Times,serif" font-size="14.00" fill="#000000">BUF</text>
</g>
<!-- n18&#45;&gt;x11 -->
<g id="edge15" class="edge">
<title>n18:e&#45;&gt;x11:w</title>
<path fill="none" stroke="#e6ab02" d="M137.8845,-95C149.8845,-95 155.1345,-95 163.7595,-95"/>
<polygon fill="#e6ab02" stroke="#e6ab02" points="163.8846,-98.5001 173.8845,-95 163.8845,-91.5001 163.8846,-98.5001"/>
</g>
<!-- n19 -->
<g id="node18" class="node">
<title>n19</title>
<polygon fill="none" stroke="#000000" points="2214.6036,-152.5442 2214.6036,-167.4558 2174.2519,-178 2117.1861,-178 2076.8344,-167.4558 2076.8344,-152.5442 2117.1861,-142 2174.2519,-142 2214.6036,-152.5442"/>
<text text-anchor="middle" x="2145.719" y="-156.3" font-family="Times,serif" font-size="14.00" fill="#000000">io_rgbled_3</text>
</g>
<!-- n20 -->
<g id="node19" class="node">
<title>n20</title>
<polygon fill="none" stroke="#000000" points="2214.6036,-206.5442 2214.6036,-221.4558 2174.2519,-232 2117.1861,-232 2076.8344,-221.4558 2076.8344,-206.5442 2117.1861,-196 2174.2519,-196 2214.6036,-206.5442"/>
<text text-anchor="middle" x="2145.719" y="-210.3" font-family="Times,serif" font-size="14.00" fill="#000000">io_rgbled_2</text>
</g>
<!-- n21 -->
<g id="node20" class="node">
<title>n21</title>
<polygon fill="none" stroke="#000000" points="2214.6036,-260.5442 2214.6036,-275.4558 2174.2519,-286 2117.1861,-286 2076.8344,-275.4558 2076.8344,-260.5442 2117.1861,-250 2174.2519,-250 2214.6036,-260.5442"/>
<text text-anchor="middle" x="2145.719" y="-264.3" font-family="Times,serif" font-size="14.00" fill="#000000">io_rgbled_1</text>
</g>
<!-- n22 -->
<g id="node21" class="node">
<title>n22</title>
<polygon fill="none" stroke="#000000" points="2214.6036,-314.5442 2214.6036,-329.4558 2174.2519,-340 2117.1861,-340 2076.8344,-329.4558 2076.8344,-314.5442 2117.1861,-304 2174.2519,-304 2214.6036,-314.5442"/>
<text text-anchor="middle" x="2145.719" y="-318.3" font-family="Times,serif" font-size="14.00" fill="#000000">io_rgbled_0</text>
</g>
<!-- n23 -->
<g id="node22" class="node">
<title>n23</title>
<polygon fill="none" stroke="#000000" points="2186.3251,-368.5442 2186.3251,-383.4558 2162.5386,-394 2128.8994,-394 2105.1129,-383.4558 2105.1129,-368.5442 2128.8994,-358 2162.5386,-358 2186.3251,-368.5442"/>
<text text-anchor="middle" x="2145.719" y="-372.3" font-family="Times,serif" font-size="14.00" fill="#000000">io_led</text>
</g>
<!-- n24 -->
<g id="node23" class="node">
<title>n24</title>
<polygon fill="none" stroke="#000000" points="108.2337,-141.5442 108.2337,-156.4558 85.2173,-167 52.6672,-167 29.6508,-156.4558 29.6508,-141.5442 52.6672,-131 85.2173,-131 108.2337,-141.5442"/>
<text text-anchor="middle" x="68.9423" y="-145.3" font-family="Times,serif" font-size="14.00" fill="#000000">io_sw</text>
</g>
<!-- x10 -->
<g id="node39" class="node">
<title>x10</title>
<path fill="none" stroke="#000000" d="M215.8845,-167C215.8845,-167 185.8845,-167 185.8845,-167 179.8845,-167 173.8845,-161 173.8845,-155 173.8845,-155 173.8845,-143 173.8845,-143 173.8845,-137 179.8845,-131 185.8845,-131 185.8845,-131 215.8845,-131 215.8845,-131 221.8845,-131 227.8845,-137 227.8845,-143 227.8845,-143 227.8845,-155 227.8845,-155 227.8845,-161 221.8845,-167 215.8845,-167"/>
<text text-anchor="middle" x="200.8845" y="-145.3" font-family="Times,serif" font-size="14.00" fill="#000000">BUF</text>
</g>
<!-- n24&#45;&gt;x10 -->
<g id="edge23" class="edge">
<title>n24:e&#45;&gt;x10:w</title>
<path fill="none" stroke="#7570b3" stroke-width="3" d="M107.9423,-149C133.5865,-149 142.4017,-149 163.8386,-149"/>
<polygon fill="#7570b3" stroke="#7570b3" stroke-width="3" points="163.8846,-152.5001 173.8845,-149 163.8845,-145.5001 163.8846,-152.5001"/>
</g>
<!-- n25 -->
<g id="node24" class="node">
<title>n25</title>
<polygon fill="none" stroke="#000000" points="111.3624,-416.5442 111.3624,-431.4558 86.5133,-442 51.3713,-442 26.5221,-431.4558 26.5221,-416.5442 51.3713,-406 86.5133,-406 111.3624,-416.5442"/>
<text text-anchor="middle" x="68.9423" y="-420.3" font-family="Times,serif" font-size="14.00" fill="#000000">io_btn</text>
</g>
<!-- x9 -->
<g id="node38" class="node">
<title>x9</title>
<path fill="none" stroke="#000000" d="M215.8845,-442C215.8845,-442 185.8845,-442 185.8845,-442 179.8845,-442 173.8845,-436 173.8845,-430 173.8845,-430 173.8845,-418 173.8845,-418 173.8845,-412 179.8845,-406 185.8845,-406 185.8845,-406 215.8845,-406 215.8845,-406 221.8845,-406 227.8845,-412 227.8845,-418 227.8845,-418 227.8845,-430 227.8845,-430 227.8845,-436 221.8845,-442 215.8845,-442"/>
<text text-anchor="middle" x="200.8845" y="-420.3" font-family="Times,serif" font-size="14.00" fill="#000000">BUF</text>
</g>
<!-- n25&#45;&gt;x9 -->
<g id="edge24" class="edge">
<title>n25:e&#45;&gt;x9:w</title>
<path fill="none" stroke="#d95f02" stroke-width="3" d="M111.9423,-424C135.7083,-424 144.0868,-424 163.6453,-424"/>
<polygon fill="#d95f02" stroke="#d95f02" stroke-width="3" points="163.8846,-427.5001 173.8845,-424 163.8845,-420.5001 163.8846,-427.5001"/>
</g>
<!-- n26 -->
<g id="node25" class="node">
<title>n26</title>
<polygon fill="none" stroke="#000000" points="106.0137,-241.5442 106.0137,-256.4558 84.2978,-267 53.5868,-267 31.8708,-256.4558 31.8708,-241.5442 53.5868,-231 84.2978,-231 106.0137,-241.5442"/>
<text text-anchor="middle" x="68.9423" y="-245.3" font-family="Times,serif" font-size="14.00" fill="#000000">reset</text>
</g>
<!-- c31 -->
<g id="node28" class="node">
<title>c31</title>
<polygon fill="none" stroke="#000000" points="341.3091,-192 341.3091,-238 438.3091,-238 438.3091,-192 341.3091,-192"/>
<text text-anchor="middle" x="354.8091" y="-222.8" font-family="Times,serif" font-size="14.00" fill="#000000">A</text>
<polyline fill="none" stroke="#000000" points="341.3091,-215 368.3091,-215 "/>
<text text-anchor="middle" x="354.8091" y="-199.8" font-family="Times,serif" font-size="14.00" fill="#000000">B</text>
<polyline fill="none" stroke="#000000" points="368.3091,-192 368.3091,-238 "/>
<text text-anchor="middle" x="390.3091" y="-218.8" font-family="Times,serif" font-size="14.00" fill="#000000">$93</text>
<text text-anchor="middle" x="390.3091" y="-203.8" font-family="Times,serif" font-size="14.00" fill="#000000">$eq</text>
<polyline fill="none" stroke="#000000" points="412.3091,-192 412.3091,-238 "/>
<text text-anchor="middle" x="425.3091" y="-211.3" font-family="Times,serif" font-size="14.00" fill="#000000">Y</text>
</g>
<!-- n26&#45;&gt;c31 -->
<g id="edge25" class="edge">
<title>n26:e&#45;&gt;c31:w</title>
<path fill="none" stroke="#a6761d" d="M105.9423,-249C207.3034,-249 234.2068,-228.4367 330.6234,-227.0712"/>
<polygon fill="#a6761d" stroke="#a6761d" points="330.8338,-230.5699 340.8091,-227 330.7848,-223.57 330.8338,-230.5699"/>
</g>
<!-- n27 -->
<g id="node26" class="node">
<title>n27</title>
<polygon fill="none" stroke="#000000" points="106.0137,-362.5442 106.0137,-377.4558 84.2978,-388 53.5868,-388 31.8708,-377.4558 31.8708,-362.5442 53.5868,-352 84.2978,-352 106.0137,-362.5442"/>
<text text-anchor="middle" x="68.9423" y="-366.3" font-family="Times,serif" font-size="14.00" fill="#000000">clock</text>
</g>
<!-- x7 -->
<g id="node36" class="node">
<title>x7</title>
<path fill="none" stroke="#000000" d="M215.8845,-388C215.8845,-388 185.8845,-388 185.8845,-388 179.8845,-388 173.8845,-382 173.8845,-376 173.8845,-376 173.8845,-364 173.8845,-364 173.8845,-358 179.8845,-352 185.8845,-352 185.8845,-352 215.8845,-352 215.8845,-352 221.8845,-352 227.8845,-358 227.8845,-364 227.8845,-364 227.8845,-376 227.8845,-376 227.8845,-382 221.8845,-388 215.8845,-388"/>
<text text-anchor="middle" x="200.8845" y="-366.3" font-family="Times,serif" font-size="14.00" fill="#000000">BUF</text>
</g>
<!-- n27&#45;&gt;x7 -->
<g id="edge26" class="edge">
<title>n27:e&#45;&gt;x7:w</title>
<path fill="none" stroke="#a6761d" d="M105.9423,-370C132.4822,-370 141.5276,-370 163.8305,-370"/>
<polygon fill="#a6761d" stroke="#a6761d" points="163.8846,-373.5001 173.8845,-370 163.8845,-366.5001 163.8846,-373.5001"/>
</g>
<!-- v0 -->
<g id="node27" class="node">
<title>v0</title>
<ellipse fill="none" stroke="#000000" cx="200.8845" cy="-203" rx="27" ry="18"/>
<text text-anchor="middle" x="200.8845" y="-199.3" font-family="Times,serif" font-size="14.00" fill="#000000">1&#39;0</text>
</g>
<!-- v0&#45;&gt;c31 -->
<g id="edge41" class="edge">
<title>v0:e&#45;&gt;c31:w</title>
<path fill="none" stroke="#e6ab02" d="M227.8845,-203C274.5443,-203 288.6698,-203 330.7545,-203"/>
<polygon fill="#e6ab02" stroke="#e6ab02" points="330.8091,-206.5001 340.8091,-203 330.809,-199.5001 330.8091,-206.5001"/>
</g>
<!-- x8 -->
<g id="node37" class="node">
<title>x8</title>
<path fill="none" stroke="#000000" d="M731.2628,-227C731.2628,-227 701.2628,-227 701.2628,-227 695.2628,-227 689.2628,-221 689.2628,-215 689.2628,-215 689.2628,-203 689.2628,-203 689.2628,-197 695.2628,-191 701.2628,-191 701.2628,-191 731.2628,-191 731.2628,-191 737.2628,-191 743.2628,-197 743.2628,-203 743.2628,-203 743.2628,-215 743.2628,-215 743.2628,-221 737.2628,-227 731.2628,-227"/>
<text text-anchor="middle" x="716.2628" y="-205.3" font-family="Times,serif" font-size="14.00" fill="#000000">BUF</text>
</g>
<!-- c31&#45;&gt;x8 -->
<g id="edge1" class="edge">
<title>c31:e&#45;&gt;x8:w</title>
<path fill="none" stroke="#e7298a" d="M438.8091,-215C546.6742,-215 576.1012,-209.3691 679.064,-209.0172"/>
<polygon fill="#e7298a" stroke="#e7298a" points="679.2687,-212.517 689.2628,-209 679.2568,-205.517 679.2687,-212.517"/>
</g>
<!-- c32&#45;&gt;n4 -->
<g id="edge29" class="edge">
<title>c32:e&#45;&gt;n4:w</title>
<path fill="none" stroke="#e7298a" d="M1578.3652,-173C1608.1685,-173 1588.2237,-121.7031 1605.5901,-108.8789"/>
<polygon fill="#e7298a" stroke="#e7298a" points="1606.9327,-112.1344 1615.5709,-106 1604.9926,-105.4086 1606.9327,-112.1344"/>
</g>
<!-- c32&#45;&gt;n6 -->
<g id="edge33" class="edge">
<title>c32:e&#45;&gt;n6:w</title>
<path fill="none" stroke="#a6761d" stroke-width="3" d="M1578.3652,-200C1598.2226,-200 1593.5763,-172.5684 1605.0106,-163.1387"/>
<polygon fill="#a6761d" stroke="#a6761d" stroke-width="3" points="1606.1616,-166.4447 1614.5709,-160 1603.9781,-159.794 1606.1616,-166.4447"/>
</g>
<!-- c32&#45;&gt;n7 -->
<g id="edge35" class="edge">
<title>c32:e&#45;&gt;n7:w</title>
<path fill="none" stroke="#d95f02" stroke-width="3" d="M1578.3652,-227C1591.4553,-227 1595.7022,-219.3796 1604.6471,-215.8076"/>
<polygon fill="#d95f02" stroke="#d95f02" stroke-width="3" points="1605.36,-219.2354 1614.5709,-214 1604.1056,-212.3487 1605.36,-219.2354"/>
</g>
<!-- c32&#45;&gt;n8 -->
<g id="edge37" class="edge">
<title>c32:e&#45;&gt;n8:w</title>
<path fill="none" stroke="#a6761d" stroke-width="3" d="M1578.3652,-254C1591.5742,-254 1595.6669,-262.2065 1604.6027,-266.0534"/>
<polygon fill="#a6761d" stroke="#a6761d" stroke-width="3" points="1604.0855,-269.5184 1614.5709,-268 1605.4272,-262.6482 1604.0855,-269.5184"/>
</g>
<!-- c32&#45;&gt;n9 -->
<g id="edge39" class="edge">
<title>c32:e&#45;&gt;n9:w</title>
<path fill="none" stroke="#1b9e77" stroke-width="3" d="M1578.3652,-281C1598.497,-281 1593.4434,-309.1174 1604.9177,-318.7828"/>
<polygon fill="#1b9e77" stroke="#1b9e77" stroke-width="3" points="1603.9773,-322.1586 1614.5709,-322 1606.1906,-315.5177 1603.9773,-322.1586"/>
</g>
<!-- c32&#45;&gt;n10 -->
<g id="edge2" class="edge">
<title>c32:e&#45;&gt;n10:w</title>
<path fill="none" stroke="#e7298a" stroke-width="3" d="M1578.3652,-308C1602.6149,-308 1596.5478,-332.5504 1614.3652,-349 1626.1181,-359.8507 1629.3841,-370.5534 1640.3835,-374.4536"/>
<polygon fill="#e7298a" stroke="#e7298a" stroke-width="3" points="1640.1589,-377.9595 1650.5709,-376 1641.2095,-371.0388 1640.1589,-377.9595"/>
</g>
<!-- x1&#45;&gt;n23 -->
<g id="edge22" class="edge">
<title>x1:e&#45;&gt;n23:w</title>
<path fill="none" stroke="#7570b3" stroke-width="3" d="M2040.7767,-376C2065.5321,-376 2074.1143,-376 2094.7001,-376"/>
<polygon fill="#7570b3" stroke="#7570b3" stroke-width="3" points="2094.719,-379.5001 2104.719,-376 2094.7189,-372.5001 2094.719,-379.5001"/>
</g>
<!-- x2&#45;&gt;n22 -->
<g id="edge21" class="edge">
<title>x2:e&#45;&gt;n22:w</title>
<path fill="none" stroke="#666666" stroke-width="3" d="M2040.7767,-322C2052.7767,-322 2058.0267,-322 2066.6517,-322"/>
<polygon fill="#666666" stroke="#666666" stroke-width="3" points="2066.7768,-325.5001 2076.7767,-322 2066.7767,-318.5001 2066.7768,-325.5001"/>
</g>
<!-- x3&#45;&gt;n21 -->
<g id="edge20" class="edge">
<title>x3:e&#45;&gt;n21:w</title>
<path fill="none" stroke="#1b9e77" stroke-width="3" d="M2040.7767,-268C2052.7767,-268 2058.0267,-268 2066.6517,-268"/>
<polygon fill="#1b9e77" stroke="#1b9e77" stroke-width="3" points="2066.7768,-271.5001 2076.7767,-268 2066.7767,-264.5001 2066.7768,-271.5001"/>
</g>
<!-- x4&#45;&gt;n20 -->
<g id="edge19" class="edge">
<title>x4:e&#45;&gt;n20:w</title>
<path fill="none" stroke="#e7298a" stroke-width="3" d="M2040.7767,-214C2052.7767,-214 2058.0267,-214 2066.6517,-214"/>
<polygon fill="#e7298a" stroke="#e7298a" stroke-width="3" points="2066.7768,-217.5001 2076.7767,-214 2066.7767,-210.5001 2066.7768,-217.5001"/>
</g>
<!-- x5&#45;&gt;n19 -->
<g id="edge16" class="edge">
<title>x5:e&#45;&gt;n19:w</title>
<path fill="none" stroke="#a6761d" stroke-width="3" d="M2040.7767,-160C2052.7767,-160 2058.0267,-160 2066.6517,-160"/>
<polygon fill="#a6761d" stroke="#a6761d" stroke-width="3" points="2066.7768,-163.5001 2076.7767,-160 2066.7767,-156.5001 2066.7768,-163.5001"/>
</g>
<!-- x6&#45;&gt;n17 -->
<g id="edge14" class="edge">
<title>x6:e&#45;&gt;n17:w</title>
<path fill="none" stroke="#1b9e77" d="M2040.7767,-106C2052.7767,-106 2058.0267,-106 2066.6517,-106"/>
<polygon fill="#1b9e77" stroke="#1b9e77" points="2066.7768,-109.5001 2076.7767,-106 2066.7767,-102.5001 2066.7768,-109.5001"/>
</g>
<!-- x7&#45;&gt;n14 -->
<g id="edge10" class="edge">
<title>x7:e&#45;&gt;n14:w</title>
<path fill="none" stroke="#d95f02" d="M227.8845,-370C239.9584,-370 245.1161,-372.25 253.7318,-373.375"/>
<polygon fill="#d95f02" stroke="#d95f02" points="253.6883,-376.8789 263.8845,-374 254.1185,-369.8921 253.6883,-376.8789"/>
</g>
<!-- x8&#45;&gt;n13 -->
<g id="edge8" class="edge">
<title>x8:e&#45;&gt;n13:w</title>
<path fill="none" stroke="#66a61e" d="M743.2628,-209C835.0834,-209 860.0387,-195.0644 947.0273,-194.0573"/>
<polygon fill="#66a61e" stroke="#66a61e" points="947.0987,-197.5571 957.0785,-194 947.0587,-190.5572 947.0987,-197.5571"/>
</g>
<!-- x9&#45;&gt;n12 -->
<g id="edge6" class="edge">
<title>x9:e&#45;&gt;n12:w</title>
<path fill="none" stroke="#e6ab02" stroke-width="3" d="M227.8845,-424C356.2252,-424 389.2213,-422.586 515.7336,-401 709.6348,-367.9158 749.6114,-288.7663 940.9588,-286.0706"/>
<polygon fill="#e6ab02" stroke="#e6ab02" stroke-width="3" points="941.1032,-289.5698 951.0785,-286 941.0543,-282.57 941.1032,-289.5698"/>
</g>
<!-- x10&#45;&gt;n11 -->
<g id="edge4" class="edge">
<title>x10:e&#45;&gt;n11:w</title>
<path fill="none" stroke="#7570b3" stroke-width="3" d="M227.8845,-149C384.1772,-149 425.7675,-148.0425 577.1315,-148.0014"/>
<polygon fill="#7570b3" stroke="#7570b3" stroke-width="3" points="577.2633,-151.5014 587.2628,-148 577.2623,-144.5014 577.2633,-151.5014"/>
</g>
<!-- x11&#45;&gt;n5 -->
<g id="edge31" class="edge">
<title>x11:e&#45;&gt;n5:w</title>
<path fill="none" stroke="#e7298a" d="M227.8845,-95C530.7645,-95 609.01,-100.866 906.8445,-100.9977"/>
<polygon fill="#e7298a" stroke="#e7298a" points="907.0777,-104.4977 917.0785,-101 907.0793,-97.4977 907.0777,-104.4977"/>
</g>
<!-- x12&#45;&gt;n3 -->
<g id="edge27" class="edge">
<title>x12:e&#45;&gt;n3:w</title>
<path fill="none" stroke="#e7298a" d="M743.2628,-474C806.4462,-474 831.8416,-477.9502 880.7919,-438 915.3237,-409.8173 886.2306,-350.7949 918.785,-341.3012"/>
<polygon fill="#e7298a" stroke="#e7298a" points="919.5965,-344.7266 929.0785,-340 918.7185,-337.7819 919.5965,-344.7266"/>
</g>
<!-- x13&#45;&gt;n2 -->
<g id="edge17" class="edge">
<title>x13:e&#45;&gt;n2:w</title>
<path fill="none" stroke="#7570b3" d="M416.8091,-47C473.2867,-47 489.8355,-50.545 541.6339,-50.9604"/>
<polygon fill="#7570b3" stroke="#7570b3" points="541.7199,-54.4607 551.7336,-51 541.7475,-47.4607 541.7199,-54.4607"/>
</g>
</g>
</svg>
