<?xml version="1.0" encoding="UTF-8" standalone="no"?>
<!DOCTYPE svg PUBLIC "-//W3C//DTD SVG 1.1//EN"
 "http://www.w3.org/Graphics/SVG/1.1/DTD/svg11.dtd">
<!-- Generated by graphviz version 2.43.20190912.0211 (20190912.0211)
 -->
<!-- Title: TopModule Pages: 1 -->
<svg width="1447pt" height="649pt"
 viewBox="0.00 0.00 1447.33 649.30" xmlns="http://www.w3.org/2000/svg" xmlns:xlink="http://www.w3.org/1999/xlink">
<g id="graph0" class="graph" transform="scale(1 1) rotate(0) translate(4 645.3)">
<title>TopModule</title>
<polygon fill="white" stroke="transparent" points="-4,4 -4,-645.3 1443.33,-645.3 1443.33,4 -4,4"/>
<text text-anchor="middle" x="719.67" y="-7.8" font-family="Times,serif" font-size="14.00">TopModule</text>
<!-- n1 -->
<g id="node1" class="node">
<title>n1</title>
<polygon fill="none" stroke="black" points="435.29,-511.3 356.2,-493.3 435.29,-475.3 514.39,-493.3 435.29,-511.3"/>
<text text-anchor="middle" x="435.29" y="-489.6" font-family="Times,serif" font-size="14.00">Top_clock</text>
</g>
<!-- n2 -->
<g id="node2" class="node">
<title>n2</title>
<polygon fill="none" stroke="black" points="1017.82,-371.3 884.76,-353.3 1017.82,-335.3 1150.88,-353.3 1017.82,-371.3"/>
<text text-anchor="middle" x="1017.82" y="-349.6" font-family="Times,serif" font-size="14.00">Top_io_pwm_out_l</text>
</g>
<!-- x7 -->
<g id="node34" class="node">
<title>x7</title>
<path fill="none" stroke="black" d="M1230.94,-371.3C1230.94,-371.3 1200.94,-371.3 1200.94,-371.3 1194.94,-371.3 1188.94,-365.3 1188.94,-359.3 1188.94,-359.3 1188.94,-347.3 1188.94,-347.3 1188.94,-341.3 1194.94,-335.3 1200.94,-335.3 1200.94,-335.3 1230.94,-335.3 1230.94,-335.3 1236.94,-335.3 1242.94,-341.3 1242.94,-347.3 1242.94,-347.3 1242.94,-359.3 1242.94,-359.3 1242.94,-365.3 1236.94,-371.3 1230.94,-371.3"/>
<text text-anchor="middle" x="1215.94" y="-349.6" font-family="Times,serif" font-size="14.00">BUF</text>
</g>
<!-- n2&#45;&gt;x7 -->
<g id="edge14" class="edge">
<title>n2:e&#45;&gt;x7:w</title>
<path fill="none" stroke="#a6761d" d="M1151.82,-353.3C1164.32,-353.3 1169.72,-353.3 1178.78,-353.3"/>
<polygon fill="#a6761d" stroke="#a6761d" points="1178.94,-356.8 1188.94,-353.3 1178.94,-349.8 1178.94,-356.8"/>
</g>
<!-- n3 -->
<g id="node3" class="node">
<title>n3</title>
<polygon fill="none" stroke="black" points="1017.82,-317.3 882.59,-299.3 1017.82,-281.3 1153.05,-299.3 1017.82,-317.3"/>
<text text-anchor="middle" x="1017.82" y="-295.6" font-family="Times,serif" font-size="14.00">Top_io_pwm_out_r</text>
</g>
<!-- x8 -->
<g id="node35" class="node">
<title>x8</title>
<path fill="none" stroke="black" d="M1230.94,-317.3C1230.94,-317.3 1200.94,-317.3 1200.94,-317.3 1194.94,-317.3 1188.94,-311.3 1188.94,-305.3 1188.94,-305.3 1188.94,-293.3 1188.94,-293.3 1188.94,-287.3 1194.94,-281.3 1200.94,-281.3 1200.94,-281.3 1230.94,-281.3 1230.94,-281.3 1236.94,-281.3 1242.94,-287.3 1242.94,-293.3 1242.94,-293.3 1242.94,-305.3 1242.94,-305.3 1242.94,-311.3 1236.94,-317.3 1230.94,-317.3"/>
<text text-anchor="middle" x="1215.94" y="-295.6" font-family="Times,serif" font-size="14.00">BUF</text>
</g>
<!-- n3&#45;&gt;x8 -->
<g id="edge24" class="edge">
<title>n3:e&#45;&gt;x8:w</title>
<path fill="none" stroke="#7570b3" d="M1152.94,-299.3C1164.94,-299.3 1170.19,-299.3 1178.81,-299.3"/>
<polygon fill="#7570b3" stroke="#7570b3" points="1178.94,-302.8 1188.94,-299.3 1178.94,-295.8 1178.94,-302.8"/>
</g>
<!-- n4 -->
<g id="node4" class="node">
<title>n4</title>
<polygon fill="none" stroke="black" points="435.29,-457.3 327.71,-439.3 435.29,-421.3 542.88,-439.3 435.29,-457.3"/>
<text text-anchor="middle" x="435.29" y="-435.6" font-family="Times,serif" font-size="14.00">Top_io_spi_clk</text>
</g>
<!-- n5 -->
<g id="node5" class="node">
<title>n5</title>
<polygon fill="none" stroke="black" points="435.29,-365.3 317.49,-347.3 435.29,-329.3 553.1,-347.3 435.29,-365.3"/>
<text text-anchor="middle" x="435.29" y="-343.6" font-family="Times,serif" font-size="14.00">Top_io_spi_cs_n</text>
</g>
<!-- n6 -->
<g id="node6" class="node">
<title>n6</title>
<polygon fill="none" stroke="black" points="1017.82,-263.3 897.5,-245.3 1017.82,-227.3 1138.14,-245.3 1017.82,-263.3"/>
<text text-anchor="middle" x="1017.82" y="-241.6" font-family="Times,serif" font-size="14.00">Top_io_spi_miso</text>
</g>
<!-- x17 -->
<g id="node44" class="node">
<title>x17</title>
<path fill="none" stroke="black" d="M1230.94,-263.3C1230.94,-263.3 1200.94,-263.3 1200.94,-263.3 1194.94,-263.3 1188.94,-257.3 1188.94,-251.3 1188.94,-251.3 1188.94,-239.3 1188.94,-239.3 1188.94,-233.3 1194.94,-227.3 1200.94,-227.3 1200.94,-227.3 1230.94,-227.3 1230.94,-227.3 1236.94,-227.3 1242.94,-233.3 1242.94,-239.3 1242.94,-239.3 1242.94,-251.3 1242.94,-251.3 1242.94,-257.3 1236.94,-263.3 1230.94,-263.3"/>
<text text-anchor="middle" x="1215.94" y="-241.6" font-family="Times,serif" font-size="14.00">BUF</text>
</g>
<!-- n6&#45;&gt;x17 -->
<g id="edge28" class="edge">
<title>n6:e&#45;&gt;x17:w</title>
<path fill="none" stroke="#a6761d" d="M1139.82,-245.3C1157.73,-245.3 1164.62,-245.3 1178.56,-245.3"/>
<polygon fill="#a6761d" stroke="#a6761d" points="1178.94,-248.8 1188.94,-245.3 1178.94,-241.8 1178.94,-248.8"/>
</g>
<!-- n7 -->
<g id="node7" class="node">
<title>n7</title>
<polygon fill="none" stroke="black" points="435.29,-177.3 314.97,-159.3 435.29,-141.3 555.61,-159.3 435.29,-177.3"/>
<text text-anchor="middle" x="435.29" y="-155.6" font-family="Times,serif" font-size="14.00">Top_io_spi_mosi</text>
</g>
<!-- n8 -->
<g id="node8" class="node">
<title>n8</title>
<polygon fill="none" stroke="black" points="435.29,-123.3 353.68,-105.3 435.29,-87.3 516.9,-105.3 435.29,-123.3"/>
<text text-anchor="middle" x="435.29" y="-101.6" font-family="Times,serif" font-size="14.00">Top_io_sw</text>
</g>
<!-- n9 -->
<g id="node9" class="node">
<title>n9</title>
<polygon fill="none" stroke="black" points="435.29,-270.3 356.2,-252.3 435.29,-234.3 514.39,-252.3 435.29,-270.3"/>
<text text-anchor="middle" x="435.29" y="-248.6" font-family="Times,serif" font-size="14.00">Top_reset</text>
</g>
<!-- c28 -->
<g id="node26" class="node">
<title>c28</title>
<polygon fill="none" stroke="black" points="591.7,-230.3 591.7,-368.3 846.7,-368.3 846.7,-230.3 591.7,-230.3"/>
<text text-anchor="middle" x="640.7" y="-353.1" font-family="Times,serif" font-size="14.00">clock</text>
<polyline fill="none" stroke="black" points="591.7,-345.3 689.7,-345.3 "/>
<text text-anchor="middle" x="640.7" y="-330.1" font-family="Times,serif" font-size="14.00">io_spi_clk</text>
<polyline fill="none" stroke="black" points="591.7,-322.3 689.7,-322.3 "/>
<text text-anchor="middle" x="640.7" y="-307.1" font-family="Times,serif" font-size="14.00">io_spi_cs_n</text>
<polyline fill="none" stroke="black" points="591.7,-299.3 689.7,-299.3 "/>
<text text-anchor="middle" x="640.7" y="-284.1" font-family="Times,serif" font-size="14.00">io_spi_mosi</text>
<polyline fill="none" stroke="black" points="591.7,-276.3 689.7,-276.3 "/>
<text text-anchor="middle" x="640.7" y="-261.1" font-family="Times,serif" font-size="14.00">io_sw</text>
<polyline fill="none" stroke="black" points="591.7,-253.3 689.7,-253.3 "/>
<text text-anchor="middle" x="640.7" y="-238.1" font-family="Times,serif" font-size="14.00">reset</text>
<polyline fill="none" stroke="black" points="689.7,-230.3 689.7,-368.3 "/>
<text text-anchor="middle" x="711.2" y="-303.1" font-family="Times,serif" font-size="14.00">Top</text>
<text text-anchor="middle" x="711.2" y="-288.1" font-family="Times,serif" font-size="14.00">Top</text>
<polyline fill="none" stroke="black" points="732.7,-230.3 732.7,-368.3 "/>
<text text-anchor="middle" x="789.7" y="-341.6" font-family="Times,serif" font-size="14.00">io_pwm_out_l</text>
<polyline fill="none" stroke="black" points="732.7,-322.3 846.7,-322.3 "/>
<text text-anchor="middle" x="789.7" y="-295.6" font-family="Times,serif" font-size="14.00">io_pwm_out_r</text>
<polyline fill="none" stroke="black" points="732.7,-276.3 846.7,-276.3 "/>
<text text-anchor="middle" x="789.7" y="-249.6" font-family="Times,serif" font-size="14.00">io_spi_miso</text>
</g>
<!-- n9&#45;&gt;c28 -->
<g id="edge32" class="edge">
<title>n9:e&#45;&gt;c28:w</title>
<path fill="none" stroke="#e7298a" d="M515.29,-252.3C545.99,-252.3 555.46,-243.5 581.67,-241.64"/>
<polygon fill="#e7298a" stroke="#e7298a" points="581.83,-245.14 591.7,-241.3 581.59,-238.14 581.83,-245.14"/>
</g>
<!-- n10 -->
<g id="node10" class="node">
<title>n10</title>
<polygon fill="none" stroke="black" points="106.01,-508.84 106.01,-523.76 84.3,-534.3 53.59,-534.3 31.87,-523.76 31.87,-508.84 53.59,-498.3 84.3,-498.3 106.01,-508.84"/>
<text text-anchor="middle" x="68.94" y="-512.6" font-family="Times,serif" font-size="14.00">clock</text>
</g>
<!-- n10&#45;&gt;c28 -->
<g id="edge2" class="edge">
<title>n10:e&#45;&gt;c28:w</title>
<path fill="none" stroke="#e7298a" d="M106.94,-516.3C306.4,-516.3 400.2,-645.21 555.7,-520.3 610.61,-476.2 526.87,-368.95 581.68,-358.18"/>
<polygon fill="#e7298a" stroke="#e7298a" points="582.05,-361.66 591.7,-357.3 581.44,-354.68 582.05,-361.66"/>
</g>
<!-- x0 -->
<g id="node27" class="node">
<title>x0</title>
<path fill="none" stroke="black" d="M241.38,-511.3C241.38,-511.3 211.38,-511.3 211.38,-511.3 205.38,-511.3 199.38,-505.3 199.38,-499.3 199.38,-499.3 199.38,-487.3 199.38,-487.3 199.38,-481.3 205.38,-475.3 211.38,-475.3 211.38,-475.3 241.38,-475.3 241.38,-475.3 247.38,-475.3 253.38,-481.3 253.38,-487.3 253.38,-487.3 253.38,-499.3 253.38,-499.3 253.38,-505.3 247.38,-511.3 241.38,-511.3"/>
<text text-anchor="middle" x="226.38" y="-489.6" font-family="Times,serif" font-size="14.00">BUF</text>
</g>
<!-- n10&#45;&gt;x0 -->
<g id="edge3" class="edge">
<title>n10:e&#45;&gt;x0:w</title>
<path fill="none" stroke="#e7298a" d="M106.94,-516.3C145.25,-516.3 154.91,-497.08 188.3,-493.78"/>
<polygon fill="#e7298a" stroke="#e7298a" points="188.56,-497.27 198.38,-493.3 188.23,-490.28 188.56,-497.27"/>
</g>
<!-- n11 -->
<g id="node11" class="node">
<title>n11</title>
<polygon fill="none" stroke="black" points="111.36,-562.84 111.36,-577.76 86.51,-588.3 51.37,-588.3 26.52,-577.76 26.52,-562.84 51.37,-552.3 86.51,-552.3 111.36,-562.84"/>
<text text-anchor="middle" x="68.94" y="-566.6" font-family="Times,serif" font-size="14.00">io_btn</text>
</g>
<!-- n12 -->
<g id="node12" class="node">
<title>n12</title>
<polygon fill="none" stroke="black" points="1399.74,-399.84 1399.74,-414.76 1375.95,-425.3 1342.31,-425.3 1318.53,-414.76 1318.53,-399.84 1342.31,-389.3 1375.95,-389.3 1399.74,-399.84"/>
<text text-anchor="middle" x="1359.13" y="-403.6" font-family="Times,serif" font-size="14.00">io_led</text>
</g>
<!-- n13 -->
<g id="node13" class="node">
<title>n13</title>
<polygon fill="none" stroke="black" points="1437.72,-345.84 1437.72,-360.76 1391.68,-371.3 1326.58,-371.3 1280.55,-360.76 1280.55,-345.84 1326.58,-335.3 1391.68,-335.3 1437.72,-345.84"/>
<text text-anchor="middle" x="1359.13" y="-349.6" font-family="Times,serif" font-size="14.00">io_pwm_out_l</text>
</g>
<!-- n14 -->
<g id="node14" class="node">
<title>n14</title>
<polygon fill="none" stroke="black" points="1439.53,-291.84 1439.53,-306.76 1392.44,-317.3 1325.83,-317.3 1278.74,-306.76 1278.74,-291.84 1325.83,-281.3 1392.44,-281.3 1439.53,-291.84"/>
<text text-anchor="middle" x="1359.13" y="-295.6" font-family="Times,serif" font-size="14.00">io_pwm_out_r</text>
</g>
<!-- n15 -->
<g id="node15" class="node">
<title>n15</title>
<polygon fill="none" stroke="black" points="1428.02,-453.84 1428.02,-468.76 1387.67,-479.3 1330.6,-479.3 1290.25,-468.76 1290.25,-453.84 1330.6,-443.3 1387.67,-443.3 1428.02,-453.84"/>
<text text-anchor="middle" x="1359.13" y="-457.6" font-family="Times,serif" font-size="14.00">io_rgbled_0</text>
</g>
<!-- n16 -->
<g id="node16" class="node">
<title>n16</title>
<polygon fill="none" stroke="black" points="1428.02,-507.84 1428.02,-522.76 1387.67,-533.3 1330.6,-533.3 1290.25,-522.76 1290.25,-507.84 1330.6,-497.3 1387.67,-497.3 1428.02,-507.84"/>
<text text-anchor="middle" x="1359.13" y="-511.6" font-family="Times,serif" font-size="14.00">io_rgbled_1</text>
</g>
<!-- n17 -->
<g id="node17" class="node">
<title>n17</title>
<polygon fill="none" stroke="black" points="1428.02,-561.84 1428.02,-576.76 1387.67,-587.3 1330.6,-587.3 1290.25,-576.76 1290.25,-561.84 1330.6,-551.3 1387.67,-551.3 1428.02,-561.84"/>
<text text-anchor="middle" x="1359.13" y="-565.6" font-family="Times,serif" font-size="14.00">io_rgbled_2</text>
</g>
<!-- n18 -->
<g id="node18" class="node">
<title>n18</title>
<polygon fill="none" stroke="black" points="1428.02,-615.84 1428.02,-630.76 1387.67,-641.3 1330.6,-641.3 1290.25,-630.76 1290.25,-615.84 1330.6,-605.3 1387.67,-605.3 1428.02,-615.84"/>
<text text-anchor="middle" x="1359.13" y="-619.6" font-family="Times,serif" font-size="14.00">io_rgbled_3</text>
</g>
<!-- n19 -->
<g id="node19" class="node">
<title>n19</title>
<polygon fill="none" stroke="black" points="128.13,-397.84 128.13,-412.76 93.46,-423.3 44.43,-423.3 9.76,-412.76 9.76,-397.84 44.43,-387.3 93.46,-387.3 128.13,-397.84"/>
<text text-anchor="middle" x="68.94" y="-401.6" font-family="Times,serif" font-size="14.00">io_spi_clk</text>
</g>
<!-- n19&#45;&gt;c28 -->
<g id="edge11" class="edge">
<title>n19:e&#45;&gt;c28:w</title>
<path fill="none" stroke="#e6ab02" d="M128.94,-405.3C224.03,-405.3 470.3,-416.11 555.7,-374.3 573.33,-365.67 570.17,-344.28 581.67,-336.87"/>
<polygon fill="#e6ab02" stroke="#e6ab02" points="582.89,-340.17 591.7,-334.3 581.15,-333.39 582.89,-340.17"/>
</g>
<!-- x1 -->
<g id="node28" class="node">
<title>x1</title>
<path fill="none" stroke="black" d="M241.38,-457.3C241.38,-457.3 211.38,-457.3 211.38,-457.3 205.38,-457.3 199.38,-451.3 199.38,-445.3 199.38,-445.3 199.38,-433.3 199.38,-433.3 199.38,-427.3 205.38,-421.3 211.38,-421.3 211.38,-421.3 241.38,-421.3 241.38,-421.3 247.38,-421.3 253.38,-427.3 253.38,-433.3 253.38,-433.3 253.38,-445.3 253.38,-445.3 253.38,-451.3 247.38,-457.3 241.38,-457.3"/>
<text text-anchor="middle" x="226.38" y="-435.6" font-family="Times,serif" font-size="14.00">BUF</text>
</g>
<!-- n19&#45;&gt;x1 -->
<g id="edge12" class="edge">
<title>n19:e&#45;&gt;x1:w</title>
<path fill="none" stroke="#e6ab02" d="M128.94,-405.3C159.55,-405.3 163.46,-432.27 188.23,-438.17"/>
<polygon fill="#e6ab02" stroke="#e6ab02" points="188.06,-441.67 198.38,-439.3 188.83,-434.71 188.06,-441.67"/>
</g>
<!-- n20 -->
<g id="node20" class="node">
<title>n20</title>
<polygon fill="none" stroke="black" points="135.61,-327.84 135.61,-342.76 96.56,-353.3 41.33,-353.3 2.28,-342.76 2.28,-327.84 41.33,-317.3 96.56,-317.3 135.61,-327.84"/>
<text text-anchor="middle" x="68.94" y="-331.6" font-family="Times,serif" font-size="14.00">io_spi_cs_n</text>
</g>
<!-- n20&#45;&gt;c28 -->
<g id="edge15" class="edge">
<title>n20:e&#45;&gt;c28:w</title>
<path fill="none" stroke="#7570b3" d="M136.94,-335.3C154.66,-335.3 156.53,-323.88 173.88,-320.3 352.41,-283.44 404.06,-310.26 581.5,-311.27"/>
<polygon fill="#7570b3" stroke="#7570b3" points="581.69,-314.77 591.7,-311.3 581.71,-307.77 581.69,-314.77"/>
</g>
<!-- x2 -->
<g id="node29" class="node">
<title>x2</title>
<path fill="none" stroke="black" d="M241.38,-365.3C241.38,-365.3 211.38,-365.3 211.38,-365.3 205.38,-365.3 199.38,-359.3 199.38,-353.3 199.38,-353.3 199.38,-341.3 199.38,-341.3 199.38,-335.3 205.38,-329.3 211.38,-329.3 211.38,-329.3 241.38,-329.3 241.38,-329.3 247.38,-329.3 253.38,-335.3 253.38,-341.3 253.38,-341.3 253.38,-353.3 253.38,-353.3 253.38,-359.3 247.38,-365.3 241.38,-365.3"/>
<text text-anchor="middle" x="226.38" y="-343.6" font-family="Times,serif" font-size="14.00">BUF</text>
</g>
<!-- n20&#45;&gt;x2 -->
<g id="edge16" class="edge">
<title>n20:e&#45;&gt;x2:w</title>
<path fill="none" stroke="#7570b3" d="M136.94,-335.3C161.07,-335.3 168.63,-344.32 188.36,-346.72"/>
<polygon fill="#7570b3" stroke="#7570b3" points="188.2,-350.22 198.38,-347.3 188.6,-343.23 188.2,-350.22"/>
</g>
<!-- n21 -->
<g id="node21" class="node">
<title>n21</title>
<polygon fill="none" stroke="black" points="1428.02,-237.84 1428.02,-252.76 1387.67,-263.3 1330.6,-263.3 1290.25,-252.76 1290.25,-237.84 1330.6,-227.3 1387.67,-227.3 1428.02,-237.84"/>
<text text-anchor="middle" x="1359.13" y="-241.6" font-family="Times,serif" font-size="14.00">io_spi_miso</text>
</g>
<!-- n22 -->
<g id="node22" class="node">
<title>n22</title>
<polygon fill="none" stroke="black" points="137.83,-171.84 137.83,-186.76 97.48,-197.3 40.41,-197.3 0.06,-186.76 0.06,-171.84 40.41,-161.3 97.48,-161.3 137.83,-171.84"/>
<text text-anchor="middle" x="68.94" y="-175.6" font-family="Times,serif" font-size="14.00">io_spi_mosi</text>
</g>
<!-- n22&#45;&gt;c28 -->
<g id="edge18" class="edge">
<title>n22:e&#45;&gt;c28:w</title>
<path fill="none" stroke="#1b9e77" d="M137.88,-179.3C154.18,-179.3 157.76,-183.91 173.88,-186.3 258.26,-198.78 484.05,-179.04 555.7,-225.3 578.92,-240.29 564.98,-275.9 581.65,-285.1"/>
<polygon fill="#1b9e77" stroke="#1b9e77" points="581.19,-288.58 591.7,-287.3 582.68,-281.74 581.19,-288.58"/>
</g>
<!-- x3 -->
<g id="node30" class="node">
<title>x3</title>
<path fill="none" stroke="black" d="M241.38,-177.3C241.38,-177.3 211.38,-177.3 211.38,-177.3 205.38,-177.3 199.38,-171.3 199.38,-165.3 199.38,-165.3 199.38,-153.3 199.38,-153.3 199.38,-147.3 205.38,-141.3 211.38,-141.3 211.38,-141.3 241.38,-141.3 241.38,-141.3 247.38,-141.3 253.38,-147.3 253.38,-153.3 253.38,-153.3 253.38,-165.3 253.38,-165.3 253.38,-171.3 247.38,-177.3 241.38,-177.3"/>
<text text-anchor="middle" x="226.38" y="-155.6" font-family="Times,serif" font-size="14.00">BUF</text>
</g>
<!-- n22&#45;&gt;x3 -->
<g id="edge19" class="edge">
<title>n22:e&#45;&gt;x3:w</title>
<path fill="none" stroke="#1b9e77" d="M137.88,-179.3C162.44,-179.3 168.61,-164.26 188.28,-160.26"/>
<polygon fill="#1b9e77" stroke="#1b9e77" points="188.76,-163.73 198.38,-159.3 188.1,-156.77 188.76,-163.73"/>
</g>
<!-- n23 -->
<g id="node23" class="node">
<title>n23</title>
<polygon fill="none" stroke="black" points="108.23,-74.84 108.23,-89.76 85.22,-100.3 52.67,-100.3 29.65,-89.76 29.65,-74.84 52.67,-64.3 85.22,-64.3 108.23,-74.84"/>
<text text-anchor="middle" x="68.94" y="-78.6" font-family="Times,serif" font-size="14.00">io_sw</text>
</g>
<!-- n23&#45;&gt;c28 -->
<g id="edge20" class="edge">
<title>n23:e&#45;&gt;c28:w</title>
<path fill="none" stroke="#666666" stroke-width="3" d="M108.94,-82.3C307.51,-82.3 402.53,48.07 555.7,-78.3 617.74,-129.48 517.31,-252.56 581.52,-263.52"/>
<polygon fill="#666666" stroke="#666666" stroke-width="3" points="581.47,-267.02 591.7,-264.3 582,-260.04 581.47,-267.02"/>
</g>
<!-- x4 -->
<g id="node31" class="node">
<title>x4</title>
<path fill="none" stroke="black" d="M241.38,-123.3C241.38,-123.3 211.38,-123.3 211.38,-123.3 205.38,-123.3 199.38,-117.3 199.38,-111.3 199.38,-111.3 199.38,-99.3 199.38,-99.3 199.38,-93.3 205.38,-87.3 211.38,-87.3 211.38,-87.3 241.38,-87.3 241.38,-87.3 247.38,-87.3 253.38,-93.3 253.38,-99.3 253.38,-99.3 253.38,-111.3 253.38,-111.3 253.38,-117.3 247.38,-123.3 241.38,-123.3"/>
<text text-anchor="middle" x="226.38" y="-101.6" font-family="Times,serif" font-size="14.00">BUF</text>
</g>
<!-- n23&#45;&gt;x4 -->
<g id="edge21" class="edge">
<title>n23:e&#45;&gt;x4:w</title>
<path fill="none" stroke="#666666" stroke-width="3" d="M108.94,-82.3C146.3,-82.3 155.75,-101.35 188.09,-104.78"/>
<polygon fill="#666666" stroke="#666666" stroke-width="3" points="188.22,-108.29 198.38,-105.3 188.58,-101.3 188.22,-108.29"/>
</g>
<!-- n24 -->
<g id="node24" class="node">
<title>n24</title>
<polygon fill="none" stroke="black" points="106.01,-245.84 106.01,-260.76 84.3,-271.3 53.59,-271.3 31.87,-260.76 31.87,-245.84 53.59,-235.3 84.3,-235.3 106.01,-245.84"/>
<text text-anchor="middle" x="68.94" y="-249.6" font-family="Times,serif" font-size="14.00">reset</text>
</g>
<!-- c27 -->
<g id="node25" class="node">
<title>c27</title>
<polygon fill="none" stroke="black" points="173.88,-234.3 173.88,-272.3 278.88,-272.3 278.88,-234.3 173.88,-234.3"/>
<text text-anchor="middle" x="186.88" y="-249.6" font-family="Times,serif" font-size="14.00">A</text>
<polyline fill="none" stroke="black" points="199.88,-234.3 199.88,-272.3 "/>
<text text-anchor="middle" x="226.38" y="-257.1" font-family="Times,serif" font-size="14.00">$228</text>
<text text-anchor="middle" x="226.38" y="-242.1" font-family="Times,serif" font-size="14.00">$not</text>
<polyline fill="none" stroke="black" points="252.88,-234.3 252.88,-272.3 "/>
<text text-anchor="middle" x="265.88" y="-249.6" font-family="Times,serif" font-size="14.00">Y</text>
</g>
<!-- n24&#45;&gt;c27 -->
<g id="edge22" class="edge">
<title>n24:e&#45;&gt;c27:w</title>
<path fill="none" stroke="#7570b3" d="M106.94,-253.3C132.98,-253.3 141.92,-253.3 163.69,-253.3"/>
<polygon fill="#7570b3" stroke="#7570b3" points="163.88,-256.8 173.88,-253.3 163.88,-249.8 163.88,-256.8"/>
</g>
<!-- c27&#45;&gt;n9 -->
<g id="edge31" class="edge">
<title>c27:e&#45;&gt;n9:w</title>
<path fill="none" stroke="#e7298a" d="M278.88,-253.3C309.13,-253.3 319.17,-252.51 345,-252.33"/>
<polygon fill="#e7298a" stroke="#e7298a" points="345.31,-255.83 355.29,-252.3 345.28,-248.83 345.31,-255.83"/>
</g>
<!-- c28&#45;&gt;n2 -->
<g id="edge13" class="edge">
<title>c28:e&#45;&gt;n2:w</title>
<path fill="none" stroke="#a6761d" d="M846.7,-345.3C859.62,-345.3 864.62,-349.99 873.83,-352.19"/>
<polygon fill="#a6761d" stroke="#a6761d" points="873.49,-355.67 883.82,-353.3 874.27,-348.71 873.49,-355.67"/>
</g>
<!-- c28&#45;&gt;n3 -->
<g id="edge23" class="edge">
<title>c28:e&#45;&gt;n3:w</title>
<path fill="none" stroke="#7570b3" d="M846.7,-299.3C858.7,-299.3 863.95,-299.3 872.58,-299.3"/>
<polygon fill="#7570b3" stroke="#7570b3" points="872.7,-302.8 882.7,-299.3 872.7,-295.8 872.7,-302.8"/>
</g>
<!-- c28&#45;&gt;n6 -->
<g id="edge27" class="edge">
<title>c28:e&#45;&gt;n6:w</title>
<path fill="none" stroke="#a6761d" d="M846.7,-253.3C865.02,-253.3 871.52,-247.81 885.77,-245.93"/>
<polygon fill="#a6761d" stroke="#a6761d" points="886.06,-249.42 895.82,-245.3 885.62,-242.43 886.06,-249.42"/>
</g>
<!-- x0&#45;&gt;n1 -->
<g id="edge1" class="edge">
<title>x0:e&#45;&gt;n1:w</title>
<path fill="none" stroke="#e7298a" d="M254.38,-493.3C295.55,-493.3 308.38,-493.3 344.9,-493.3"/>
<polygon fill="#e7298a" stroke="#e7298a" points="345.29,-496.8 355.29,-493.3 345.29,-489.8 345.29,-496.8"/>
</g>
<!-- x1&#45;&gt;n4 -->
<g id="edge25" class="edge">
<title>x1:e&#45;&gt;n4:w</title>
<path fill="none" stroke="#d95f02" d="M254.38,-439.3C282.72,-439.3 292.22,-439.3 316.29,-439.3"/>
<polygon fill="#d95f02" stroke="#d95f02" points="316.29,-442.8 326.29,-439.3 316.29,-435.8 316.29,-442.8"/>
</g>
<!-- x2&#45;&gt;n5 -->
<g id="edge26" class="edge">
<title>x2:e&#45;&gt;n5:w</title>
<path fill="none" stroke="#a6761d" d="M254.38,-347.3C278.14,-347.3 286.51,-347.3 306.06,-347.3"/>
<polygon fill="#a6761d" stroke="#a6761d" points="306.29,-350.8 316.29,-347.3 306.29,-343.8 306.29,-350.8"/>
</g>
<!-- x3&#45;&gt;n7 -->
<g id="edge29" class="edge">
<title>x3:e&#45;&gt;n7:w</title>
<path fill="none" stroke="#e7298a" d="M254.38,-159.3C277.6,-159.3 285.78,-159.3 304.88,-159.3"/>
<polygon fill="#e7298a" stroke="#e7298a" points="304.88,-162.8 314.88,-159.3 304.88,-155.8 304.88,-162.8"/>
</g>
<!-- x4&#45;&gt;n8 -->
<g id="edge30" class="edge">
<title>x4:e&#45;&gt;n8:w</title>
<path fill="none" stroke="#e7298a" stroke-width="3" d="M254.38,-105.3C294.33,-105.3 306.77,-105.3 342.21,-105.3"/>
<polygon fill="#e7298a" stroke="#e7298a" stroke-width="3" points="342.29,-108.8 352.29,-105.3 342.29,-101.8 342.29,-108.8"/>
</g>
<!-- v5 -->
<g id="node32" class="node">
<title>v5</title>
<ellipse fill="none" stroke="black" cx="1017.82" cy="-407.3" rx="42.49" ry="18"/>
<text text-anchor="middle" x="1017.82" y="-403.6" font-family="Times,serif" font-size="14.00">4&#39;0000</text>
</g>
<!-- x6 -->
<g id="node33" class="node">
<title>x6</title>
<path fill="none" stroke="black" d="M1230.94,-425.3C1230.94,-425.3 1200.94,-425.3 1200.94,-425.3 1194.94,-425.3 1188.94,-419.3 1188.94,-413.3 1188.94,-413.3 1188.94,-401.3 1188.94,-401.3 1188.94,-395.3 1194.94,-389.3 1200.94,-389.3 1200.94,-389.3 1230.94,-389.3 1230.94,-389.3 1236.94,-389.3 1242.94,-395.3 1242.94,-401.3 1242.94,-401.3 1242.94,-413.3 1242.94,-413.3 1242.94,-419.3 1236.94,-425.3 1230.94,-425.3"/>
<text text-anchor="middle" x="1215.94" y="-403.6" font-family="Times,serif" font-size="14.00">BUF</text>
</g>
<!-- v5&#45;&gt;x6 -->
<g id="edge36" class="edge">
<title>v5:e&#45;&gt;x6:w</title>
<path fill="none" stroke="#1b9e77" stroke-width="3" d="M1061.82,-407.3C1114.78,-407.3 1130.51,-407.3 1178.82,-407.3"/>
<polygon fill="#1b9e77" stroke="#1b9e77" stroke-width="3" points="1178.94,-410.8 1188.94,-407.3 1178.94,-403.8 1178.94,-410.8"/>
</g>
<!-- x6&#45;&gt;n12 -->
<g id="edge4" class="edge">
<title>x6:e&#45;&gt;n12:w</title>
<path fill="none" stroke="#7570b3" stroke-width="3" d="M1242.94,-407.3C1272.18,-407.3 1281.97,-407.3 1306.81,-407.3"/>
<polygon fill="#7570b3" stroke="#7570b3" stroke-width="3" points="1307.13,-410.8 1317.13,-407.3 1307.13,-403.8 1307.13,-410.8"/>
</g>
<!-- x7&#45;&gt;n13 -->
<g id="edge5" class="edge">
<title>x7:e&#45;&gt;n13:w</title>
<path fill="none" stroke="#e6ab02" d="M1242.94,-353.3C1255,-353.3 1260.28,-353.3 1268.95,-353.3"/>
<polygon fill="#e6ab02" stroke="#e6ab02" points="1269.13,-356.8 1279.13,-353.3 1269.13,-349.8 1269.13,-356.8"/>
</g>
<!-- x8&#45;&gt;n14 -->
<g id="edge6" class="edge">
<title>x8:e&#45;&gt;n14:w</title>
<path fill="none" stroke="#66a61e" d="M1242.94,-299.3C1254.94,-299.3 1260.19,-299.3 1268.81,-299.3"/>
<polygon fill="#66a61e" stroke="#66a61e" points="1268.94,-302.8 1278.94,-299.3 1268.94,-295.8 1268.94,-302.8"/>
</g>
<!-- v9 -->
<g id="node36" class="node">
<title>v9</title>
<ellipse fill="none" stroke="black" cx="1017.82" cy="-461.3" rx="36.29" ry="18"/>
<text text-anchor="middle" x="1017.82" y="-457.6" font-family="Times,serif" font-size="14.00">3&#39;000</text>
</g>
<!-- x10 -->
<g id="node37" class="node">
<title>x10</title>
<path fill="none" stroke="black" d="M1230.94,-479.3C1230.94,-479.3 1200.94,-479.3 1200.94,-479.3 1194.94,-479.3 1188.94,-473.3 1188.94,-467.3 1188.94,-467.3 1188.94,-455.3 1188.94,-455.3 1188.94,-449.3 1194.94,-443.3 1200.94,-443.3 1200.94,-443.3 1230.94,-443.3 1230.94,-443.3 1236.94,-443.3 1242.94,-449.3 1242.94,-455.3 1242.94,-455.3 1242.94,-467.3 1242.94,-467.3 1242.94,-473.3 1236.94,-479.3 1230.94,-479.3"/>
<text text-anchor="middle" x="1215.94" y="-457.6" font-family="Times,serif" font-size="14.00">BUF</text>
</g>
<!-- v9&#45;&gt;x10 -->
<g id="edge37" class="edge">
<title>v9:e&#45;&gt;x10:w</title>
<path fill="none" stroke="#e6ab02" stroke-width="3" d="M1055.82,-461.3C1111.4,-461.3 1127.82,-461.3 1178.66,-461.3"/>
<polygon fill="#e6ab02" stroke="#e6ab02" stroke-width="3" points="1178.94,-464.8 1188.94,-461.3 1178.94,-457.8 1178.94,-464.8"/>
</g>
<!-- x10&#45;&gt;n15 -->
<g id="edge7" class="edge">
<title>x10:e&#45;&gt;n15:w</title>
<path fill="none" stroke="#d95f02" stroke-width="3" d="M1242.94,-461.3C1259.62,-461.3 1266.14,-461.3 1279.01,-461.3"/>
<polygon fill="#d95f02" stroke="#d95f02" stroke-width="3" points="1279.13,-464.8 1289.13,-461.3 1279.13,-457.8 1279.13,-464.8"/>
</g>
<!-- v11 -->
<g id="node38" class="node">
<title>v11</title>
<ellipse fill="none" stroke="black" cx="1017.82" cy="-515.3" rx="36.29" ry="18"/>
<text text-anchor="middle" x="1017.82" y="-511.6" font-family="Times,serif" font-size="14.00">3&#39;000</text>
</g>
<!-- x12 -->
<g id="node39" class="node">
<title>x12</title>
<path fill="none" stroke="black" d="M1230.94,-533.3C1230.94,-533.3 1200.94,-533.3 1200.94,-533.3 1194.94,-533.3 1188.94,-527.3 1188.94,-521.3 1188.94,-521.3 1188.94,-509.3 1188.94,-509.3 1188.94,-503.3 1194.94,-497.3 1200.94,-497.3 1200.94,-497.3 1230.94,-497.3 1230.94,-497.3 1236.94,-497.3 1242.94,-503.3 1242.94,-509.3 1242.94,-509.3 1242.94,-521.3 1242.94,-521.3 1242.94,-527.3 1236.94,-533.3 1230.94,-533.3"/>
<text text-anchor="middle" x="1215.94" y="-511.6" font-family="Times,serif" font-size="14.00">BUF</text>
</g>
<!-- v11&#45;&gt;x12 -->
<g id="edge33" class="edge">
<title>v11:e&#45;&gt;x12:w</title>
<path fill="none" stroke="#a6761d" stroke-width="3" d="M1055.82,-515.3C1111.4,-515.3 1127.82,-515.3 1178.66,-515.3"/>
<polygon fill="#a6761d" stroke="#a6761d" stroke-width="3" points="1178.94,-518.8 1188.94,-515.3 1178.94,-511.8 1178.94,-518.8"/>
</g>
<!-- x12&#45;&gt;n16 -->
<g id="edge8" class="edge">
<title>x12:e&#45;&gt;n16:w</title>
<path fill="none" stroke="#666666" stroke-width="3" d="M1242.94,-515.3C1259.62,-515.3 1266.14,-515.3 1279.01,-515.3"/>
<polygon fill="#666666" stroke="#666666" stroke-width="3" points="1279.13,-518.8 1289.13,-515.3 1279.13,-511.8 1279.13,-518.8"/>
</g>
<!-- v13 -->
<g id="node40" class="node">
<title>v13</title>
<ellipse fill="none" stroke="black" cx="1017.82" cy="-569.3" rx="36.29" ry="18"/>
<text text-anchor="middle" x="1017.82" y="-565.6" font-family="Times,serif" font-size="14.00">3&#39;000</text>
</g>
<!-- x14 -->
<g id="node41" class="node">
<title>x14</title>
<path fill="none" stroke="black" d="M1230.94,-587.3C1230.94,-587.3 1200.94,-587.3 1200.94,-587.3 1194.94,-587.3 1188.94,-581.3 1188.94,-575.3 1188.94,-575.3 1188.94,-563.3 1188.94,-563.3 1188.94,-557.3 1194.94,-551.3 1200.94,-551.3 1200.94,-551.3 1230.94,-551.3 1230.94,-551.3 1236.94,-551.3 1242.94,-557.3 1242.94,-563.3 1242.94,-563.3 1242.94,-575.3 1242.94,-575.3 1242.94,-581.3 1236.94,-587.3 1230.94,-587.3"/>
<text text-anchor="middle" x="1215.94" y="-565.6" font-family="Times,serif" font-size="14.00">BUF</text>
</g>
<!-- v13&#45;&gt;x14 -->
<g id="edge34" class="edge">
<title>v13:e&#45;&gt;x14:w</title>
<path fill="none" stroke="#d95f02" stroke-width="3" d="M1055.82,-569.3C1111.4,-569.3 1127.82,-569.3 1178.66,-569.3"/>
<polygon fill="#d95f02" stroke="#d95f02" stroke-width="3" points="1178.94,-572.8 1188.94,-569.3 1178.94,-565.8 1178.94,-572.8"/>
</g>
<!-- x14&#45;&gt;n17 -->
<g id="edge9" class="edge">
<title>x14:e&#45;&gt;n17:w</title>
<path fill="none" stroke="#7570b3" stroke-width="3" d="M1242.94,-569.3C1259.62,-569.3 1266.14,-569.3 1279.01,-569.3"/>
<polygon fill="#7570b3" stroke="#7570b3" stroke-width="3" points="1279.13,-572.8 1289.13,-569.3 1279.13,-565.8 1279.13,-572.8"/>
</g>
<!-- v15 -->
<g id="node42" class="node">
<title>v15</title>
<ellipse fill="none" stroke="black" cx="1017.82" cy="-623.3" rx="36.29" ry="18"/>
<text text-anchor="middle" x="1017.82" y="-619.6" font-family="Times,serif" font-size="14.00">3&#39;000</text>
</g>
<!-- x16 -->
<g id="node43" class="node">
<title>x16</title>
<path fill="none" stroke="black" d="M1230.94,-641.3C1230.94,-641.3 1200.94,-641.3 1200.94,-641.3 1194.94,-641.3 1188.94,-635.3 1188.94,-629.3 1188.94,-629.3 1188.94,-617.3 1188.94,-617.3 1188.94,-611.3 1194.94,-605.3 1200.94,-605.3 1200.94,-605.3 1230.94,-605.3 1230.94,-605.3 1236.94,-605.3 1242.94,-611.3 1242.94,-617.3 1242.94,-617.3 1242.94,-629.3 1242.94,-629.3 1242.94,-635.3 1236.94,-641.3 1230.94,-641.3"/>
<text text-anchor="middle" x="1215.94" y="-619.6" font-family="Times,serif" font-size="14.00">BUF</text>
</g>
<!-- v15&#45;&gt;x16 -->
<g id="edge35" class="edge">
<title>v15:e&#45;&gt;x16:w</title>
<path fill="none" stroke="#a6761d" stroke-width="3" d="M1055.82,-623.3C1111.4,-623.3 1127.82,-623.3 1178.66,-623.3"/>
<polygon fill="#a6761d" stroke="#a6761d" stroke-width="3" points="1178.94,-626.8 1188.94,-623.3 1178.94,-619.8 1178.94,-626.8"/>
</g>
<!-- x16&#45;&gt;n18 -->
<g id="edge10" class="edge">
<title>x16:e&#45;&gt;n18:w</title>
<path fill="none" stroke="#1b9e77" stroke-width="3" d="M1242.94,-623.3C1259.62,-623.3 1266.14,-623.3 1279.01,-623.3"/>
<polygon fill="#1b9e77" stroke="#1b9e77" stroke-width="3" points="1279.13,-626.8 1289.13,-623.3 1279.13,-619.8 1279.13,-626.8"/>
</g>
<!-- x17&#45;&gt;n21 -->
<g id="edge17" class="edge">
<title>x17:e&#45;&gt;n21:w</title>
<path fill="none" stroke="#e7298a" d="M1242.94,-245.3C1259.62,-245.3 1266.14,-245.3 1279.01,-245.3"/>
<polygon fill="#e7298a" stroke="#e7298a" points="1279.13,-248.8 1289.13,-245.3 1279.13,-241.8 1279.13,-248.8"/>
</g>
</g>
</svg>
