<?xml version="1.0" encoding="UTF-8" standalone="no"?>
<!DOCTYPE svg PUBLIC "-//W3C//DTD SVG 1.1//EN"
 "http://www.w3.org/Graphics/SVG/1.1/DTD/svg11.dtd">
<!-- Generated by graphviz version 2.40.1 (0)
 -->
<!-- Title: TopModule Pages: 1 -->
<svg width="1734pt" height="348pt"
 viewBox="0.00 0.00 1734.23 348.00" xmlns="http://www.w3.org/2000/svg" xmlns:xlink="http://www.w3.org/1999/xlink">
<g id="graph0" class="graph" transform="scale(1 1) rotate(0) translate(4 344)">
<title>TopModule</title>
<polygon fill="#ffffff" stroke="transparent" points="-4,4 -4,-344 1730.2262,-344 1730.2262,4 -4,4"/>
<text text-anchor="middle" x="863.1131" y="-7.8" font-family="Times,serif" font-size="14.00" fill="#000000">TopModule</text>
<!-- n2 -->
<g id="node1" class="node">
<title>n2</title>
<polygon fill="none" stroke="#000000" points="1334.9536,-234 1211.6192,-216 1334.9536,-198 1458.288,-216 1334.9536,-234"/>
<text text-anchor="middle" x="1334.9536" y="-212.3" font-family="Times,serif" font-size="14.00" fill="#000000">Top_io_pwm_out</text>
</g>
<!-- x2 -->
<g id="node19" class="node">
<title>x2</title>
<path fill="none" stroke="#000000" d="M1536.1207,-234C1536.1207,-234 1506.1207,-234 1506.1207,-234 1500.1207,-234 1494.1207,-228 1494.1207,-222 1494.1207,-222 1494.1207,-210 1494.1207,-210 1494.1207,-204 1500.1207,-198 1506.1207,-198 1506.1207,-198 1536.1207,-198 1536.1207,-198 1542.1207,-198 1548.1207,-204 1548.1207,-210 1548.1207,-210 1548.1207,-222 1548.1207,-222 1548.1207,-228 1542.1207,-234 1536.1207,-234"/>
<text text-anchor="middle" x="1521.1207" y="-212.3" font-family="Times,serif" font-size="14.00" fill="#000000">BUF</text>
</g>
<!-- n2&#45;&gt;x2 -->
<g id="edge9" class="edge">
<title>n2:e&#45;&gt;x2:w</title>
<path fill="none" stroke="#7570b3" d="M1457.9536,-216C1470.0093,-216 1475.2837,-216 1483.9487,-216"/>
<polygon fill="#7570b3" stroke="#7570b3" points="1484.1207,-219.5001 1494.1207,-216 1484.1206,-212.5001 1484.1207,-219.5001"/>
</g>
<!-- n3 -->
<g id="node2" class="node">
<title>n3</title>
<polygon fill="none" stroke="#000000" points="526.2941,-59 408.4897,-41 526.2941,-23 644.0986,-41 526.2941,-59"/>
<text text-anchor="middle" x="526.2941" y="-37.3" font-family="Times,serif" font-size="14.00" fill="#000000">Top_io_spi_cs_n</text>
</g>
<!-- c20 -->
<g id="node17" class="node">
<title>c20</title>
<polygon fill="none" stroke="#000000" points="933.7865,-129.5 933.7865,-244.5 1175.7865,-244.5 1175.7865,-129.5 933.7865,-129.5"/>
<text text-anchor="middle" x="982.7865" y="-229.3" font-family="Times,serif" font-size="14.00" fill="#000000">clock</text>
<polyline fill="none" stroke="#000000" points="933.7865,-221.5 1031.7865,-221.5 "/>
<text text-anchor="middle" x="982.7865" y="-206.3" font-family="Times,serif" font-size="14.00" fill="#000000">io_spi_clk</text>
<polyline fill="none" stroke="#000000" points="933.7865,-198.5 1031.7865,-198.5 "/>
<text text-anchor="middle" x="982.7865" y="-183.3" font-family="Times,serif" font-size="14.00" fill="#000000">io_spi_cs_n</text>
<polyline fill="none" stroke="#000000" points="933.7865,-175.5 1031.7865,-175.5 "/>
<text text-anchor="middle" x="982.7865" y="-160.3" font-family="Times,serif" font-size="14.00" fill="#000000">io_spi_mosi</text>
<polyline fill="none" stroke="#000000" points="933.7865,-152.5 1031.7865,-152.5 "/>
<text text-anchor="middle" x="982.7865" y="-137.3" font-family="Times,serif" font-size="14.00" fill="#000000">reset</text>
<polyline fill="none" stroke="#000000" points="1031.7865,-129.5 1031.7865,-244.5 "/>
<text text-anchor="middle" x="1053.2865" y="-190.8" font-family="Times,serif" font-size="14.00" fill="#000000">Top</text>
<text text-anchor="middle" x="1053.2865" y="-175.8" font-family="Times,serif" font-size="14.00" fill="#000000">Top</text>
<polyline fill="none" stroke="#000000" points="1074.7865,-129.5 1074.7865,-244.5 "/>
<text text-anchor="middle" x="1125.2865" y="-212.3" font-family="Times,serif" font-size="14.00" fill="#000000">io_pwm_out</text>
<polyline fill="none" stroke="#000000" points="1074.7865,-187.5 1175.7865,-187.5 "/>
<text text-anchor="middle" x="1125.2865" y="-154.8" font-family="Times,serif" font-size="14.00" fill="#000000">io_spi_miso</text>
</g>
<!-- n3&#45;&gt;c20 -->
<g id="edge11" class="edge">
<title>n3:e&#45;&gt;c20:w</title>
<path fill="none" stroke="#1b9e77" d="M644.2941,-41C703.2635,-41 636.7144,-131.0896 682.7037,-168 767.3394,-235.9275 818.7007,-189.9798 923.7851,-187.1356"/>
<polygon fill="#1b9e77" stroke="#1b9e77" points="923.8349,-190.6353 933.7865,-187 923.74,-183.636 923.8349,-190.6353"/>
</g>
<!-- n4 -->
<g id="node3" class="node">
<title>n4</title>
<polygon fill="none" stroke="#000000" points="790.2451,-251 682.6623,-233 790.2451,-215 897.8279,-233 790.2451,-251"/>
<text text-anchor="middle" x="790.2451" y="-229.3" font-family="Times,serif" font-size="14.00" fill="#000000">Top_io_spi_clk</text>
</g>
<!-- n4&#45;&gt;c20 -->
<g id="edge13" class="edge">
<title>n4:e&#45;&gt;c20:w</title>
<path fill="none" stroke="#e6ab02" d="M897.7865,-233C912.6199,-233 914.6602,-218.9619 923.8966,-212.8203"/>
<polygon fill="#e6ab02" stroke="#e6ab02" points="925.1297,-216.1082 933.7865,-210 923.2101,-209.3766 925.1297,-216.1082"/>
</g>
<!-- n5 -->
<g id="node4" class="node">
<title>n5</title>
<polygon fill="none" stroke="#000000" points="1334.9536,-176 1214.6343,-158 1334.9536,-140 1455.2729,-158 1334.9536,-176"/>
<text text-anchor="middle" x="1334.9536" y="-154.3" font-family="Times,serif" font-size="14.00" fill="#000000">Top_io_spi_miso</text>
</g>
<!-- x1 -->
<g id="node18" class="node">
<title>x1</title>
<path fill="none" stroke="#000000" d="M1536.1207,-176C1536.1207,-176 1506.1207,-176 1506.1207,-176 1500.1207,-176 1494.1207,-170 1494.1207,-164 1494.1207,-164 1494.1207,-152 1494.1207,-152 1494.1207,-146 1500.1207,-140 1506.1207,-140 1506.1207,-140 1536.1207,-140 1536.1207,-140 1542.1207,-140 1548.1207,-146 1548.1207,-152 1548.1207,-152 1548.1207,-164 1548.1207,-164 1548.1207,-170 1542.1207,-176 1536.1207,-176"/>
<text text-anchor="middle" x="1521.1207" y="-154.3" font-family="Times,serif" font-size="14.00" fill="#000000">BUF</text>
</g>
<!-- n5&#45;&gt;x1 -->
<g id="edge15" class="edge">
<title>n5:e&#45;&gt;x1:w</title>
<path fill="none" stroke="#a6761d" d="M1455.9536,-158C1468.941,-158 1474.4708,-158 1483.9625,-158"/>
<polygon fill="#a6761d" stroke="#a6761d" points="1484.1207,-161.5001 1494.1207,-158 1484.1206,-154.5001 1484.1207,-161.5001"/>
</g>
<!-- n6 -->
<g id="node5" class="node">
<title>n6</title>
<polygon fill="none" stroke="#000000" points="526.2941,-113 405.9749,-95 526.2941,-77 646.6134,-95 526.2941,-113"/>
<text text-anchor="middle" x="526.2941" y="-91.3" font-family="Times,serif" font-size="14.00" fill="#000000">Top_io_spi_mosi</text>
</g>
<!-- n6&#45;&gt;c20 -->
<g id="edge17" class="edge">
<title>n6:e&#45;&gt;c20:w</title>
<path fill="none" stroke="#7570b3" d="M646.7037,-95C758.6151,-95 800.1794,-59.255 897.7865,-114 917.9378,-125.3022 910.2184,-153.1277 923.7624,-161.5472"/>
<polygon fill="#7570b3" stroke="#7570b3" points="923.2412,-165.0228 933.7865,-164 924.905,-158.2234 923.2412,-165.0228"/>
</g>
<!-- n7 -->
<g id="node6" class="node">
<title>n7</title>
<polygon fill="none" stroke="#000000" points="790.2451,-159 711.1501,-141 790.2451,-123 869.3402,-141 790.2451,-159"/>
<text text-anchor="middle" x="790.2451" y="-137.3" font-family="Times,serif" font-size="14.00" fill="#000000">Top_reset</text>
</g>
<!-- n7&#45;&gt;c20 -->
<g id="edge19" class="edge">
<title>n7:e&#45;&gt;c20:w</title>
<path fill="none" stroke="#e7298a" d="M869.2451,-141C894.2325,-141 902.8951,-141 923.6738,-141"/>
<polygon fill="#e7298a" stroke="#e7298a" points="923.7866,-144.5001 933.7865,-141 923.7865,-137.5001 923.7866,-144.5001"/>
</g>
<!-- n8 -->
<g id="node7" class="node">
<title>n8</title>
<polygon fill="none" stroke="#000000" points="790.2451,-305 711.1501,-287 790.2451,-269 869.3402,-287 790.2451,-305"/>
<text text-anchor="middle" x="790.2451" y="-283.3" font-family="Times,serif" font-size="14.00" fill="#000000">Top_clock</text>
</g>
<!-- n8&#45;&gt;c20 -->
<g id="edge21" class="edge">
<title>n8:e&#45;&gt;c20:w</title>
<path fill="none" stroke="#1b9e77" d="M869.2451,-287C902.8476,-287 897.9781,-243.4117 923.7659,-234.5579"/>
<polygon fill="#1b9e77" stroke="#1b9e77" points="924.4429,-237.9948 933.7865,-233 923.3675,-231.0779 924.4429,-237.9948"/>
</g>
<!-- n9 -->
<g id="node8" class="node">
<title>n9</title>
<polygon fill="none" stroke="#000000" points="1726.2789,-208.5442 1726.2789,-223.4558 1684.6263,-234 1625.7205,-234 1584.0679,-223.4558 1584.0679,-208.5442 1625.7205,-198 1684.6263,-198 1726.2789,-208.5442"/>
<text text-anchor="middle" x="1655.1734" y="-212.3" font-family="Times,serif" font-size="14.00" fill="#000000">io_pwm_out</text>
</g>
<!-- n10 -->
<g id="node9" class="node">
<title>n10</title>
<polygon fill="none" stroke="#000000" points="135.6063,-33.5442 135.6063,-48.4558 96.5554,-59 41.3291,-59 2.2783,-48.4558 2.2783,-33.5442 41.3291,-23 96.5554,-23 135.6063,-33.5442"/>
<text text-anchor="middle" x="68.9423" y="-37.3" font-family="Times,serif" font-size="14.00" fill="#000000">io_spi_cs_n</text>
</g>
<!-- x7 -->
<g id="node24" class="node">
<title>x7</title>
<path fill="none" stroke="#000000" d="M331.8845,-59C331.8845,-59 301.8845,-59 301.8845,-59 295.8845,-59 289.8845,-53 289.8845,-47 289.8845,-47 289.8845,-35 289.8845,-35 289.8845,-29 295.8845,-23 301.8845,-23 301.8845,-23 331.8845,-23 331.8845,-23 337.8845,-23 343.8845,-29 343.8845,-35 343.8845,-35 343.8845,-47 343.8845,-47 343.8845,-53 337.8845,-59 331.8845,-59"/>
<text text-anchor="middle" x="316.8845" y="-37.3" font-family="Times,serif" font-size="14.00" fill="#000000">BUF</text>
</g>
<!-- n10&#45;&gt;x7 -->
<g id="edge2" class="edge">
<title>n10:e&#45;&gt;x7:w</title>
<path fill="none" stroke="#e7298a" d="M135.9423,-41C200.8867,-41 219.5962,-41 279.8449,-41"/>
<polygon fill="#e7298a" stroke="#e7298a" points="279.8846,-44.5001 289.8845,-41 279.8845,-37.5001 279.8846,-44.5001"/>
</g>
<!-- n11 -->
<g id="node10" class="node">
<title>n11</title>
<polygon fill="none" stroke="#000000" points="128.1292,-314.5442 128.1292,-329.4558 93.4583,-340 44.4263,-340 9.7554,-329.4558 9.7554,-314.5442 44.4263,-304 93.4583,-304 128.1292,-314.5442"/>
<text text-anchor="middle" x="68.9423" y="-318.3" font-family="Times,serif" font-size="14.00" fill="#000000">io_spi_clk</text>
</g>
<!-- x6 -->
<g id="node23" class="node">
<title>x6</title>
<path fill="none" stroke="#000000" d="M215.8845,-340C215.8845,-340 185.8845,-340 185.8845,-340 179.8845,-340 173.8845,-334 173.8845,-328 173.8845,-328 173.8845,-316 173.8845,-316 173.8845,-310 179.8845,-304 185.8845,-304 185.8845,-304 215.8845,-304 215.8845,-304 221.8845,-304 227.8845,-310 227.8845,-316 227.8845,-316 227.8845,-328 227.8845,-328 227.8845,-334 221.8845,-340 215.8845,-340"/>
<text text-anchor="middle" x="200.8845" y="-318.3" font-family="Times,serif" font-size="14.00" fill="#000000">BUF</text>
</g>
<!-- n11&#45;&gt;x6 -->
<g id="edge3" class="edge">
<title>n11:e&#45;&gt;x6:w</title>
<path fill="none" stroke="#7570b3" d="M127.9423,-322C144.5325,-322 151.0131,-322 163.8122,-322"/>
<polygon fill="#7570b3" stroke="#7570b3" points="163.8846,-325.5001 173.8845,-322 163.8845,-318.5001 163.8846,-325.5001"/>
</g>
<!-- n12 -->
<g id="node11" class="node">
<title>n12</title>
<polygon fill="none" stroke="#000000" points="1724.058,-150.5442 1724.058,-165.4558 1683.7063,-176 1626.6405,-176 1586.2888,-165.4558 1586.2888,-150.5442 1626.6405,-140 1683.7063,-140 1724.058,-150.5442"/>
<text text-anchor="middle" x="1655.1734" y="-154.3" font-family="Times,serif" font-size="14.00" fill="#000000">io_spi_miso</text>
</g>
<!-- n13 -->
<g id="node12" class="node">
<title>n13</title>
<polygon fill="none" stroke="#000000" points="137.8268,-87.5442 137.8268,-102.4558 97.4752,-113 40.4093,-113 .0577,-102.4558 .0577,-87.5442 40.4093,-77 97.4752,-77 137.8268,-87.5442"/>
<text text-anchor="middle" x="68.9423" y="-91.3" font-family="Times,serif" font-size="14.00" fill="#000000">io_spi_mosi</text>
</g>
<!-- x5 -->
<g id="node22" class="node">
<title>x5</title>
<path fill="none" stroke="#000000" d="M215.8845,-113C215.8845,-113 185.8845,-113 185.8845,-113 179.8845,-113 173.8845,-107 173.8845,-101 173.8845,-101 173.8845,-89 173.8845,-89 173.8845,-83 179.8845,-77 185.8845,-77 185.8845,-77 215.8845,-77 215.8845,-77 221.8845,-77 227.8845,-83 227.8845,-89 227.8845,-89 227.8845,-101 227.8845,-101 227.8845,-107 221.8845,-113 215.8845,-113"/>
<text text-anchor="middle" x="200.8845" y="-91.3" font-family="Times,serif" font-size="14.00" fill="#000000">BUF</text>
</g>
<!-- n13&#45;&gt;x5 -->
<g id="edge5" class="edge">
<title>n13:e&#45;&gt;x5:w</title>
<path fill="none" stroke="#66a61e" d="M137.8845,-95C149.8845,-95 155.1345,-95 163.7595,-95"/>
<polygon fill="#66a61e" stroke="#66a61e" points="163.8846,-98.5001 173.8845,-95 163.8845,-91.5001 163.8846,-98.5001"/>
</g>
<!-- n14 -->
<g id="node13" class="node">
<title>n14</title>
<polygon fill="none" stroke="#000000" points="106.0137,-187.5442 106.0137,-202.4558 84.2978,-213 53.5868,-213 31.8708,-202.4558 31.8708,-187.5442 53.5868,-177 84.2978,-177 106.0137,-187.5442"/>
<text text-anchor="middle" x="68.9423" y="-191.3" font-family="Times,serif" font-size="14.00" fill="#000000">reset</text>
</g>
<!-- c19 -->
<g id="node16" class="node">
<title>c19</title>
<polygon fill="none" stroke="#000000" points="263.8845,-138 263.8845,-184 369.8845,-184 369.8845,-138 263.8845,-138"/>
<text text-anchor="middle" x="277.3845" y="-168.8" font-family="Times,serif" font-size="14.00" fill="#000000">A</text>
<polyline fill="none" stroke="#000000" points="263.8845,-161 290.8845,-161 "/>
<text text-anchor="middle" x="277.3845" y="-145.8" font-family="Times,serif" font-size="14.00" fill="#000000">B</text>
<polyline fill="none" stroke="#000000" points="290.8845,-138 290.8845,-184 "/>
<text text-anchor="middle" x="317.3845" y="-164.8" font-family="Times,serif" font-size="14.00" fill="#000000">$471</text>
<text text-anchor="middle" x="317.3845" y="-149.8" font-family="Times,serif" font-size="14.00" fill="#000000">$eq</text>
<polyline fill="none" stroke="#000000" points="343.8845,-138 343.8845,-184 "/>
<text text-anchor="middle" x="356.8845" y="-157.3" font-family="Times,serif" font-size="14.00" fill="#000000">Y</text>
</g>
<!-- n14&#45;&gt;c19 -->
<g id="edge6" class="edge">
<title>n14:e&#45;&gt;c19:w</title>
<path fill="none" stroke="#d95f02" d="M105.9423,-195C138.334,-195 213.8639,-176.6188 253.67,-173.4595"/>
<polygon fill="#d95f02" stroke="#d95f02" points="254.052,-176.946 263.8845,-173 253.7373,-169.953 254.052,-176.946"/>
</g>
<!-- n15 -->
<g id="node14" class="node">
<title>n15</title>
<polygon fill="none" stroke="#000000" points="106.0137,-260.5442 106.0137,-275.4558 84.2978,-286 53.5868,-286 31.8708,-275.4558 31.8708,-260.5442 53.5868,-250 84.2978,-250 106.0137,-260.5442"/>
<text text-anchor="middle" x="68.9423" y="-264.3" font-family="Times,serif" font-size="14.00" fill="#000000">clock</text>
</g>
<!-- x3 -->
<g id="node20" class="node">
<title>x3</title>
<path fill="none" stroke="#000000" d="M215.8845,-286C215.8845,-286 185.8845,-286 185.8845,-286 179.8845,-286 173.8845,-280 173.8845,-274 173.8845,-274 173.8845,-262 173.8845,-262 173.8845,-256 179.8845,-250 185.8845,-250 185.8845,-250 215.8845,-250 215.8845,-250 221.8845,-250 227.8845,-256 227.8845,-262 227.8845,-262 227.8845,-274 227.8845,-274 227.8845,-280 221.8845,-286 215.8845,-286"/>
<text text-anchor="middle" x="200.8845" y="-264.3" font-family="Times,serif" font-size="14.00" fill="#000000">BUF</text>
</g>
<!-- n15&#45;&gt;x3 -->
<g id="edge7" class="edge">
<title>n15:e&#45;&gt;x3:w</title>
<path fill="none" stroke="#666666" d="M105.9423,-268C132.4822,-268 141.5276,-268 163.8305,-268"/>
<polygon fill="#666666" stroke="#666666" points="163.8846,-271.5001 173.8845,-268 163.8845,-264.5001 163.8846,-271.5001"/>
</g>
<!-- v0 -->
<g id="node15" class="node">
<title>v0</title>
<ellipse fill="none" stroke="#000000" cx="200.8845" cy="-149" rx="27" ry="18"/>
<text text-anchor="middle" x="200.8845" y="-145.3" font-family="Times,serif" font-size="14.00" fill="#000000">1&#39;0</text>
</g>
<!-- v0&#45;&gt;c19 -->
<g id="edge23" class="edge">
<title>v0:e&#45;&gt;c19:w</title>
<path fill="none" stroke="#7570b3" d="M227.8845,-149C239.8845,-149 245.1345,-149 253.7595,-149"/>
<polygon fill="#7570b3" stroke="#7570b3" points="253.8846,-152.5001 263.8845,-149 253.8845,-145.5001 253.8846,-152.5001"/>
</g>
<!-- x4 -->
<g id="node21" class="node">
<title>x4</title>
<path fill="none" stroke="#000000" d="M541.2941,-173C541.2941,-173 511.2941,-173 511.2941,-173 505.2941,-173 499.2941,-167 499.2941,-161 499.2941,-161 499.2941,-149 499.2941,-149 499.2941,-143 505.2941,-137 511.2941,-137 511.2941,-137 541.2941,-137 541.2941,-137 547.2941,-137 553.2941,-143 553.2941,-149 553.2941,-149 553.2941,-161 553.2941,-161 553.2941,-167 547.2941,-173 541.2941,-173"/>
<text text-anchor="middle" x="526.2941" y="-151.3" font-family="Times,serif" font-size="14.00" fill="#000000">BUF</text>
</g>
<!-- c19&#45;&gt;x4 -->
<g id="edge1" class="edge">
<title>c19:e&#45;&gt;x4:w</title>
<path fill="none" stroke="#e7298a" d="M369.8845,-161C423.9756,-161 439.8319,-155.7046 489.293,-155.0633"/>
<polygon fill="#e7298a" stroke="#e7298a" points="489.3165,-158.5633 499.2941,-155 489.2721,-151.5635 489.3165,-158.5633"/>
</g>
<!-- c20&#45;&gt;n2 -->
<g id="edge8" class="edge">
<title>c20:e&#45;&gt;n2:w</title>
<path fill="none" stroke="#7570b3" d="M1175.7865,-216C1187.8422,-216 1193.1166,-216 1201.7816,-216"/>
<polygon fill="#7570b3" stroke="#7570b3" points="1201.9536,-219.5001 1211.9536,-216 1201.9536,-212.5001 1201.9536,-219.5001"/>
</g>
<!-- c20&#45;&gt;n5 -->
<g id="edge14" class="edge">
<title>c20:e&#45;&gt;n5:w</title>
<path fill="none" stroke="#a6761d" d="M1175.7865,-158C1188.7739,-158 1194.3037,-158 1203.7954,-158"/>
<polygon fill="#a6761d" stroke="#a6761d" points="1203.9536,-161.5001 1213.9536,-158 1203.9536,-154.5001 1203.9536,-161.5001"/>
</g>
<!-- x1&#45;&gt;n12 -->
<g id="edge4" class="edge">
<title>x1:e&#45;&gt;n12:w</title>
<path fill="none" stroke="#e6ab02" d="M1548.1207,-158C1561.0692,-158 1566.5824,-158 1576.0456,-158"/>
<polygon fill="#e6ab02" stroke="#e6ab02" points="1576.1735,-161.5001 1586.1734,-158 1576.1734,-154.5001 1576.1735,-161.5001"/>
</g>
<!-- x2&#45;&gt;n9 -->
<g id="edge22" class="edge">
<title>x2:e&#45;&gt;n9:w</title>
<path fill="none" stroke="#666666" d="M1548.1207,-216C1560.1383,-216 1565.3959,-216 1574.0336,-216"/>
<polygon fill="#666666" stroke="#666666" points="1574.1735,-219.5001 1584.1734,-216 1574.1734,-212.5001 1574.1735,-219.5001"/>
</g>
<!-- x3&#45;&gt;n8 -->
<g id="edge20" class="edge">
<title>x3:e&#45;&gt;n8:w</title>
<path fill="none" stroke="#1b9e77" d="M227.8845,-268C439.4131,-268 494.4902,-286.3926 700.9769,-286.9854"/>
<polygon fill="#1b9e77" stroke="#1b9e77" points="701.2401,-290.4856 711.2451,-287 701.2502,-283.4856 701.2401,-290.4856"/>
</g>
<!-- x4&#45;&gt;n7 -->
<g id="edge18" class="edge">
<title>x4:e&#45;&gt;n7:w</title>
<path fill="none" stroke="#e7298a" d="M553.2941,-155C620.1909,-155 638.905,-142.3858 700.9083,-141.1046"/>
<polygon fill="#e7298a" stroke="#e7298a" points="701.2811,-144.6011 711.2451,-141 701.2102,-137.6015 701.2811,-144.6011"/>
</g>
<!-- x5&#45;&gt;n6 -->
<g id="edge16" class="edge">
<title>x5:e&#45;&gt;n6:w</title>
<path fill="none" stroke="#7570b3" d="M227.8845,-95C303.4418,-95 324.8768,-95 395.5715,-95"/>
<polygon fill="#7570b3" stroke="#7570b3" points="395.8846,-98.5001 405.8845,-95 395.8845,-91.5001 395.8846,-98.5001"/>
</g>
<!-- x6&#45;&gt;n4 -->
<g id="edge12" class="edge">
<title>x6:e&#45;&gt;n4:w</title>
<path fill="none" stroke="#e6ab02" d="M227.8845,-322C430.4407,-322 475.2598,-235.9305 672.5786,-233.0728"/>
<polygon fill="#e6ab02" stroke="#e6ab02" points="672.7292,-236.5719 682.7037,-233 672.6788,-229.5721 672.7292,-236.5719"/>
</g>
<!-- x7&#45;&gt;n3 -->
<g id="edge10" class="edge">
<title>x7:e&#45;&gt;n3:w</title>
<path fill="none" stroke="#1b9e77" d="M343.8845,-41C368.8209,-41 377.4658,-41 398.202,-41"/>
<polygon fill="#1b9e77" stroke="#1b9e77" points="398.2942,-44.5001 408.2941,-41 398.2941,-37.5001 398.2942,-44.5001"/>
</g>
</g>
</svg>
