<?xml version="1.0" encoding="UTF-8" standalone="no"?>
<!DOCTYPE svg PUBLIC "-//W3C//DTD SVG 1.1//EN"
 "http://www.w3.org/Graphics/SVG/1.1/DTD/svg11.dtd">
<!-- Generated by graphviz version 2.40.1 (0)
 -->
<!-- Title: TopModule Pages: 1 -->
<svg width="1457pt" height="378pt"
 viewBox="0.00 0.00 1457.27 377.52" xmlns="http://www.w3.org/2000/svg" xmlns:xlink="http://www.w3.org/1999/xlink">
<g id="graph0" class="graph" transform="scale(1 1) rotate(0) translate(4 373.5202)">
<title>TopModule</title>
<polygon fill="#ffffff" stroke="transparent" points="-4,4 -4,-373.5202 1453.2708,-373.5202 1453.2708,4 -4,4"/>
<text text-anchor="middle" x="724.6354" y="-7.8" font-family="Times,serif" font-size="14.00" fill="#000000">TopModule</text>
<!-- n1 -->
<g id="node1" class="node">
<title>n1</title>
<polygon fill="none" stroke="#000000" points="390.6969,-306 264.8478,-288 390.6969,-270 516.546,-288 390.6969,-306"/>
<text text-anchor="middle" x="390.6969" y="-284.3" font-family="Times,serif" font-size="14.00" fill="#000000">VivadoTest_clock</text>
</g>
<!-- n2 -->
<g id="node2" class="node">
<title>n2</title>
<polygon fill="none" stroke="#000000" points="390.6969,-252 257.6409,-234 390.6969,-216 523.7529,-234 390.6969,-252"/>
<text text-anchor="middle" x="390.6969" y="-230.3" font-family="Times,serif" font-size="14.00" fill="#000000">VivadoTest_io_btn</text>
</g>
<!-- n3 -->
<g id="node3" class="node">
<title>n3</title>
<polygon fill="none" stroke="#000000" points="1017.1805,-301 885.8015,-283 1017.1805,-265 1148.5595,-283 1017.1805,-301"/>
<text text-anchor="middle" x="1017.1805" y="-279.3" font-family="Times,serif" font-size="14.00" fill="#000000">VivadoTest_io_led</text>
</g>
<!-- x3 -->
<g id="node24" class="node">
<title>x3</title>
<path fill="none" stroke="#000000" d="M1263.3863,-301C1263.3863,-301 1233.3863,-301 1233.3863,-301 1227.3863,-301 1221.3863,-295 1221.3863,-289 1221.3863,-289 1221.3863,-277 1221.3863,-277 1221.3863,-271 1227.3863,-265 1233.3863,-265 1233.3863,-265 1263.3863,-265 1263.3863,-265 1269.3863,-265 1275.3863,-271 1275.3863,-277 1275.3863,-277 1275.3863,-289 1275.3863,-289 1275.3863,-295 1269.3863,-301 1263.3863,-301"/>
<text text-anchor="middle" x="1248.3863" y="-279.3" font-family="Times,serif" font-size="14.00" fill="#000000">BUF</text>
</g>
<!-- n3&#45;&gt;x3 -->
<g id="edge16" class="edge">
<title>n3:e&#45;&gt;x3:w</title>
<path fill="none" stroke="#7570b3" stroke-width="3" d="M1149.1805,-283C1177.6366,-283 1187.1683,-283 1211.3368,-283"/>
<polygon fill="#7570b3" stroke="#7570b3" stroke-width="3" points="1211.3863,-286.5001 1221.3863,-283 1211.3862,-279.5001 1211.3863,-286.5001"/>
</g>
<!-- n4 -->
<g id="node4" class="node">
<title>n4</title>
<polygon fill="none" stroke="#000000" points="1017.1805,-247 848.7687,-229 1017.1805,-211 1185.5923,-229 1017.1805,-247"/>
<text text-anchor="middle" x="1017.1805" y="-225.3" font-family="Times,serif" font-size="14.00" fill="#000000">VivadoTest_io_rgbled_0</text>
</g>
<!-- x4 -->
<g id="node25" class="node">
<title>x4</title>
<path fill="none" stroke="#000000" d="M1263.3863,-247C1263.3863,-247 1233.3863,-247 1233.3863,-247 1227.3863,-247 1221.3863,-241 1221.3863,-235 1221.3863,-235 1221.3863,-223 1221.3863,-223 1221.3863,-217 1227.3863,-211 1233.3863,-211 1233.3863,-211 1263.3863,-211 1263.3863,-211 1269.3863,-211 1275.3863,-217 1275.3863,-223 1275.3863,-223 1275.3863,-235 1275.3863,-235 1275.3863,-241 1269.3863,-247 1263.3863,-247"/>
<text text-anchor="middle" x="1248.3863" y="-225.3" font-family="Times,serif" font-size="14.00" fill="#000000">BUF</text>
</g>
<!-- n4&#45;&gt;x4 -->
<g id="edge18" class="edge">
<title>n4:e&#45;&gt;x4:w</title>
<path fill="none" stroke="#e7298a" stroke-width="3" d="M1185.1805,-229C1197.2491,-229 1202.5291,-229 1211.2034,-229"/>
<polygon fill="#e7298a" stroke="#e7298a" stroke-width="3" points="1211.3863,-232.5001 1221.3863,-229 1211.3862,-225.5001 1211.3863,-232.5001"/>
</g>
<!-- n5 -->
<g id="node5" class="node">
<title>n5</title>
<polygon fill="none" stroke="#000000" points="1017.1805,-193 848.7687,-175 1017.1805,-157 1185.5923,-175 1017.1805,-193"/>
<text text-anchor="middle" x="1017.1805" y="-171.3" font-family="Times,serif" font-size="14.00" fill="#000000">VivadoTest_io_rgbled_1</text>
</g>
<!-- x5 -->
<g id="node26" class="node">
<title>x5</title>
<path fill="none" stroke="#000000" d="M1263.3863,-193C1263.3863,-193 1233.3863,-193 1233.3863,-193 1227.3863,-193 1221.3863,-187 1221.3863,-181 1221.3863,-181 1221.3863,-169 1221.3863,-169 1221.3863,-163 1227.3863,-157 1233.3863,-157 1233.3863,-157 1263.3863,-157 1263.3863,-157 1269.3863,-157 1275.3863,-163 1275.3863,-169 1275.3863,-169 1275.3863,-181 1275.3863,-181 1275.3863,-187 1269.3863,-193 1263.3863,-193"/>
<text text-anchor="middle" x="1248.3863" y="-171.3" font-family="Times,serif" font-size="14.00" fill="#000000">BUF</text>
</g>
<!-- n5&#45;&gt;x5 -->
<g id="edge20" class="edge">
<title>n5:e&#45;&gt;x5:w</title>
<path fill="none" stroke="#1b9e77" stroke-width="3" d="M1185.1805,-175C1197.2491,-175 1202.5291,-175 1211.2034,-175"/>
<polygon fill="#1b9e77" stroke="#1b9e77" stroke-width="3" points="1211.3863,-178.5001 1221.3863,-175 1211.3862,-171.5001 1211.3863,-178.5001"/>
</g>
<!-- n6 -->
<g id="node6" class="node">
<title>n6</title>
<polygon fill="none" stroke="#000000" points="1017.1805,-139 848.7687,-121 1017.1805,-103 1185.5923,-121 1017.1805,-139"/>
<text text-anchor="middle" x="1017.1805" y="-117.3" font-family="Times,serif" font-size="14.00" fill="#000000">VivadoTest_io_rgbled_2</text>
</g>
<!-- x6 -->
<g id="node27" class="node">
<title>x6</title>
<path fill="none" stroke="#000000" d="M1263.3863,-139C1263.3863,-139 1233.3863,-139 1233.3863,-139 1227.3863,-139 1221.3863,-133 1221.3863,-127 1221.3863,-127 1221.3863,-115 1221.3863,-115 1221.3863,-109 1227.3863,-103 1233.3863,-103 1233.3863,-103 1263.3863,-103 1263.3863,-103 1269.3863,-103 1275.3863,-109 1275.3863,-115 1275.3863,-115 1275.3863,-127 1275.3863,-127 1275.3863,-133 1269.3863,-139 1263.3863,-139"/>
<text text-anchor="middle" x="1248.3863" y="-117.3" font-family="Times,serif" font-size="14.00" fill="#000000">BUF</text>
</g>
<!-- n6&#45;&gt;x6 -->
<g id="edge22" class="edge">
<title>n6:e&#45;&gt;x6:w</title>
<path fill="none" stroke="#666666" stroke-width="3" d="M1185.1805,-121C1197.2491,-121 1202.5291,-121 1211.2034,-121"/>
<polygon fill="#666666" stroke="#666666" stroke-width="3" points="1211.3863,-124.5001 1221.3863,-121 1211.3862,-117.5001 1211.3863,-124.5001"/>
</g>
<!-- n7 -->
<g id="node7" class="node">
<title>n7</title>
<polygon fill="none" stroke="#000000" points="1017.1805,-85 848.7687,-67 1017.1805,-49 1185.5923,-67 1017.1805,-85"/>
<text text-anchor="middle" x="1017.1805" y="-63.3" font-family="Times,serif" font-size="14.00" fill="#000000">VivadoTest_io_rgbled_3</text>
</g>
<!-- x7 -->
<g id="node28" class="node">
<title>x7</title>
<path fill="none" stroke="#000000" d="M1263.3863,-85C1263.3863,-85 1233.3863,-85 1233.3863,-85 1227.3863,-85 1221.3863,-79 1221.3863,-73 1221.3863,-73 1221.3863,-61 1221.3863,-61 1221.3863,-55 1227.3863,-49 1233.3863,-49 1233.3863,-49 1263.3863,-49 1263.3863,-49 1269.3863,-49 1275.3863,-55 1275.3863,-61 1275.3863,-61 1275.3863,-73 1275.3863,-73 1275.3863,-79 1269.3863,-85 1263.3863,-85"/>
<text text-anchor="middle" x="1248.3863" y="-63.3" font-family="Times,serif" font-size="14.00" fill="#000000">BUF</text>
</g>
<!-- n7&#45;&gt;x7 -->
<g id="edge24" class="edge">
<title>n7:e&#45;&gt;x7:w</title>
<path fill="none" stroke="#7570b3" stroke-width="3" d="M1185.1805,-67C1197.2491,-67 1202.5291,-67 1211.2034,-67"/>
<polygon fill="#7570b3" stroke="#7570b3" stroke-width="3" points="1211.3863,-70.5001 1221.3863,-67 1211.3862,-63.5001 1211.3863,-70.5001"/>
</g>
<!-- n8 -->
<g id="node8" class="node">
<title>n8</title>
<polygon fill="none" stroke="#000000" points="390.6969,-59 261.8326,-41 390.6969,-23 519.5612,-41 390.6969,-59"/>
<text text-anchor="middle" x="390.6969" y="-37.3" font-family="Times,serif" font-size="14.00" fill="#000000">VivadoTest_io_sw</text>
</g>
<!-- n9 -->
<g id="node9" class="node">
<title>n9</title>
<polygon fill="none" stroke="#000000" points="390.6969,-152 264.0093,-134 390.6969,-116 517.3845,-134 390.6969,-152"/>
<text text-anchor="middle" x="390.6969" y="-130.3" font-family="Times,serif" font-size="14.00" fill="#000000">VivadoTest_reset</text>
</g>
<!-- c22 -->
<g id="node20" class="node">
<title>c22</title>
<polygon fill="none" stroke="#000000" points="559.9747,-117.5 559.9747,-232.5 812.9747,-232.5 812.9747,-117.5 559.9747,-117.5"/>
<text text-anchor="middle" x="589.9747" y="-214.8" font-family="Times,serif" font-size="14.00" fill="#000000">clock</text>
<polyline fill="none" stroke="#000000" points="559.9747,-204.5 619.9747,-204.5 "/>
<text text-anchor="middle" x="589.9747" y="-186.3" font-family="Times,serif" font-size="14.00" fill="#000000">io_btn</text>
<polyline fill="none" stroke="#000000" points="559.9747,-175.5 619.9747,-175.5 "/>
<text text-anchor="middle" x="589.9747" y="-157.3" font-family="Times,serif" font-size="14.00" fill="#000000">io_sw</text>
<polyline fill="none" stroke="#000000" points="559.9747,-146.5 619.9747,-146.5 "/>
<text text-anchor="middle" x="589.9747" y="-128.3" font-family="Times,serif" font-size="14.00" fill="#000000">reset</text>
<polyline fill="none" stroke="#000000" points="619.9747,-117.5 619.9747,-232.5 "/>
<text text-anchor="middle" x="667.4747" y="-178.8" font-family="Times,serif" font-size="14.00" fill="#000000">VivadoTest</text>
<text text-anchor="middle" x="667.4747" y="-163.8" font-family="Times,serif" font-size="14.00" fill="#000000">VivadoTest</text>
<polyline fill="none" stroke="#000000" points="714.9747,-117.5 714.9747,-232.5 "/>
<text text-anchor="middle" x="763.9747" y="-217.3" font-family="Times,serif" font-size="14.00" fill="#000000">io_led</text>
<polyline fill="none" stroke="#000000" points="714.9747,-209.5 812.9747,-209.5 "/>
<text text-anchor="middle" x="763.9747" y="-194.3" font-family="Times,serif" font-size="14.00" fill="#000000">io_rgbled_0</text>
<polyline fill="none" stroke="#000000" points="714.9747,-186.5 812.9747,-186.5 "/>
<text text-anchor="middle" x="763.9747" y="-171.3" font-family="Times,serif" font-size="14.00" fill="#000000">io_rgbled_1</text>
<polyline fill="none" stroke="#000000" points="714.9747,-163.5 812.9747,-163.5 "/>
<text text-anchor="middle" x="763.9747" y="-148.3" font-family="Times,serif" font-size="14.00" fill="#000000">io_rgbled_2</text>
<polyline fill="none" stroke="#000000" points="714.9747,-140.5 812.9747,-140.5 "/>
<text text-anchor="middle" x="763.9747" y="-125.3" font-family="Times,serif" font-size="14.00" fill="#000000">io_rgbled_3</text>
</g>
<!-- n9&#45;&gt;c22 -->
<g id="edge27" class="edge">
<title>n9:e&#45;&gt;c22:w</title>
<path fill="none" stroke="#d95f02" d="M517.6969,-134C532.5401,-134 538.5697,-132.7548 549.6946,-132.2294"/>
<polygon fill="#d95f02" stroke="#d95f02" points="550.0553,-135.7223 559.9747,-132 549.8991,-128.7241 550.0553,-135.7223"/>
</g>
<!-- n10 -->
<g id="node10" class="node">
<title>n10</title>
<polygon fill="none" stroke="#000000" points="79.281,-290.5442 79.281,-305.4558 57.565,-316 26.8541,-316 5.1381,-305.4558 5.1381,-290.5442 26.8541,-280 57.565,-280 79.281,-290.5442"/>
<text text-anchor="middle" x="42.2096" y="-294.3" font-family="Times,serif" font-size="14.00" fill="#000000">clock</text>
</g>
<!-- n10&#45;&gt;c22 -->
<g id="edge2" class="edge">
<title>n10:e&#45;&gt;c22:w</title>
<path fill="none" stroke="#e7298a" d="M79.2096,-298C99.0221,-298 100.9844,-311.1488 120.4191,-315 296.356,-349.8642 376.5557,-417.1614 523.9747,-315 558.0633,-291.3766 522.174,-231.2303 549.8064,-220.6134"/>
<polygon fill="#e7298a" stroke="#e7298a" points="550.6468,-224.0239 559.9747,-219 549.5497,-217.1104 550.6468,-224.0239"/>
</g>
<!-- x0 -->
<g id="node21" class="node">
<title>x0</title>
<path fill="none" stroke="#000000" d="M185.9191,-306C185.9191,-306 155.9191,-306 155.9191,-306 149.9191,-306 143.9191,-300 143.9191,-294 143.9191,-294 143.9191,-282 143.9191,-282 143.9191,-276 149.9191,-270 155.9191,-270 155.9191,-270 185.9191,-270 185.9191,-270 191.9191,-270 197.9191,-276 197.9191,-282 197.9191,-282 197.9191,-294 197.9191,-294 197.9191,-300 191.9191,-306 185.9191,-306"/>
<text text-anchor="middle" x="170.9191" y="-284.3" font-family="Times,serif" font-size="14.00" fill="#000000">BUF</text>
</g>
<!-- n10&#45;&gt;x0 -->
<g id="edge3" class="edge">
<title>n10:e&#45;&gt;x0:w</title>
<path fill="none" stroke="#e7298a" d="M79.2096,-298C104.5594,-298 112.7648,-290.412 133.6947,-288.4557"/>
<polygon fill="#e7298a" stroke="#e7298a" points="134.0849,-291.9418 143.9191,-288 133.7732,-284.9488 134.0849,-291.9418"/>
</g>
<!-- n11 -->
<g id="node11" class="node">
<title>n11</title>
<polygon fill="none" stroke="#000000" points="84.6297,-216.5442 84.6297,-231.4558 59.7806,-242 24.6386,-242 -.2106,-231.4558 -.2106,-216.5442 24.6386,-206 59.7806,-206 84.6297,-216.5442"/>
<text text-anchor="middle" x="42.2096" y="-220.3" font-family="Times,serif" font-size="14.00" fill="#000000">io_btn</text>
</g>
<!-- n11&#45;&gt;c22 -->
<g id="edge4" class="edge">
<title>n11:e&#45;&gt;c22:w</title>
<path fill="none" stroke="#7570b3" stroke-width="3" d="M84.4191,-224C102.1133,-224 103.2317,-211.2046 120.4191,-207 306.9853,-161.3604 362.525,-188.9879 549.7944,-189.9733"/>
<polygon fill="#7570b3" stroke="#7570b3" stroke-width="3" points="549.9655,-193.4736 559.9747,-190 549.984,-186.4737 549.9655,-193.4736"/>
</g>
<!-- x1 -->
<g id="node22" class="node">
<title>x1</title>
<path fill="none" stroke="#000000" d="M185.9191,-252C185.9191,-252 155.9191,-252 155.9191,-252 149.9191,-252 143.9191,-246 143.9191,-240 143.9191,-240 143.9191,-228 143.9191,-228 143.9191,-222 149.9191,-216 155.9191,-216 155.9191,-216 185.9191,-216 185.9191,-216 191.9191,-216 197.9191,-222 197.9191,-228 197.9191,-228 197.9191,-240 197.9191,-240 197.9191,-246 191.9191,-252 185.9191,-252"/>
<text text-anchor="middle" x="170.9191" y="-230.3" font-family="Times,serif" font-size="14.00" fill="#000000">BUF</text>
</g>
<!-- n11&#45;&gt;x1 -->
<g id="edge5" class="edge">
<title>n11:e&#45;&gt;x1:w</title>
<path fill="none" stroke="#7570b3" stroke-width="3" d="M84.4191,-224C107.4635,-224 115.0388,-231.3853 133.7325,-233.4624"/>
<polygon fill="#7570b3" stroke="#7570b3" stroke-width="3" points="133.7485,-236.968 143.9191,-234 134.1175,-229.9777 133.7485,-236.968"/>
</g>
<!-- n12 -->
<g id="node12" class="node">
<title>n12</title>
<polygon fill="none" stroke="#000000" points="1420.9346,-275.5442 1420.9346,-290.4558 1397.1481,-301 1363.5089,-301 1339.7224,-290.4558 1339.7224,-275.5442 1363.5089,-265 1397.1481,-265 1420.9346,-275.5442"/>
<text text-anchor="middle" x="1380.3285" y="-279.3" font-family="Times,serif" font-size="14.00" fill="#000000">io_led</text>
</g>
<!-- n13 -->
<g id="node13" class="node">
<title>n13</title>
<polygon fill="none" stroke="#000000" points="1449.2131,-221.5442 1449.2131,-236.4558 1408.8615,-247 1351.7956,-247 1311.4439,-236.4558 1311.4439,-221.5442 1351.7956,-211 1408.8615,-211 1449.2131,-221.5442"/>
<text text-anchor="middle" x="1380.3285" y="-225.3" font-family="Times,serif" font-size="14.00" fill="#000000">io_rgbled_0</text>
</g>
<!-- n14 -->
<g id="node14" class="node">
<title>n14</title>
<polygon fill="none" stroke="#000000" points="1449.2131,-167.5442 1449.2131,-182.4558 1408.8615,-193 1351.7956,-193 1311.4439,-182.4558 1311.4439,-167.5442 1351.7956,-157 1408.8615,-157 1449.2131,-167.5442"/>
<text text-anchor="middle" x="1380.3285" y="-171.3" font-family="Times,serif" font-size="14.00" fill="#000000">io_rgbled_1</text>
</g>
<!-- n15 -->
<g id="node15" class="node">
<title>n15</title>
<polygon fill="none" stroke="#000000" points="1449.2131,-113.5442 1449.2131,-128.4558 1408.8615,-139 1351.7956,-139 1311.4439,-128.4558 1311.4439,-113.5442 1351.7956,-103 1408.8615,-103 1449.2131,-113.5442"/>
<text text-anchor="middle" x="1380.3285" y="-117.3" font-family="Times,serif" font-size="14.00" fill="#000000">io_rgbled_2</text>
</g>
<!-- n16 -->
<g id="node16" class="node">
<title>n16</title>
<polygon fill="none" stroke="#000000" points="1449.2131,-59.5442 1449.2131,-74.4558 1408.8615,-85 1351.7956,-85 1311.4439,-74.4558 1311.4439,-59.5442 1351.7956,-49 1408.8615,-49 1449.2131,-59.5442"/>
<text text-anchor="middle" x="1380.3285" y="-63.3" font-family="Times,serif" font-size="14.00" fill="#000000">io_rgbled_3</text>
</g>
<!-- n17 -->
<g id="node17" class="node">
<title>n17</title>
<polygon fill="none" stroke="#000000" points="81.501,-53.5442 81.501,-68.4558 58.4846,-79 25.9345,-79 2.9181,-68.4558 2.9181,-53.5442 25.9345,-43 58.4846,-43 81.501,-53.5442"/>
<text text-anchor="middle" x="42.2096" y="-57.3" font-family="Times,serif" font-size="14.00" fill="#000000">io_sw</text>
</g>
<!-- n17&#45;&gt;c22 -->
<g id="edge11" class="edge">
<title>n17:e&#45;&gt;c22:w</title>
<path fill="none" stroke="#1b9e77" stroke-width="3" d="M81.2096,-61C98.9115,-61 102.8818,-65.5911 120.4191,-68 209.6778,-80.2604 446.6779,-60.7114 523.9747,-107 545.0479,-119.6195 535.4198,-149.905 549.909,-158.6179"/>
<polygon fill="#1b9e77" stroke="#1b9e77" stroke-width="3" points="549.4374,-162.1029 559.9747,-161 551.0495,-155.2911 549.4374,-162.1029"/>
</g>
<!-- x2 -->
<g id="node23" class="node">
<title>x2</title>
<path fill="none" stroke="#000000" d="M185.9191,-59C185.9191,-59 155.9191,-59 155.9191,-59 149.9191,-59 143.9191,-53 143.9191,-47 143.9191,-47 143.9191,-35 143.9191,-35 143.9191,-29 149.9191,-23 155.9191,-23 155.9191,-23 185.9191,-23 185.9191,-23 191.9191,-23 197.9191,-29 197.9191,-35 197.9191,-35 197.9191,-47 197.9191,-47 197.9191,-53 191.9191,-59 185.9191,-59"/>
<text text-anchor="middle" x="170.9191" y="-37.3" font-family="Times,serif" font-size="14.00" fill="#000000">BUF</text>
</g>
<!-- n17&#45;&gt;x2 -->
<g id="edge12" class="edge">
<title>n17:e&#45;&gt;x2:w</title>
<path fill="none" stroke="#1b9e77" stroke-width="3" d="M81.2096,-61C106.6926,-61 113.1656,-45.8239 133.7476,-41.9113"/>
<polygon fill="#1b9e77" stroke="#1b9e77" stroke-width="3" points="134.2714,-45.3785 143.9191,-41 133.6466,-38.4064 134.2714,-45.3785"/>
</g>
<!-- n18 -->
<g id="node18" class="node">
<title>n18</title>
<polygon fill="none" stroke="#000000" points="79.281,-127.5442 79.281,-142.4558 57.565,-153 26.8541,-153 5.1381,-142.4558 5.1381,-127.5442 26.8541,-117 57.565,-117 79.281,-127.5442"/>
<text text-anchor="middle" x="42.2096" y="-131.3" font-family="Times,serif" font-size="14.00" fill="#000000">reset</text>
</g>
<!-- c21 -->
<g id="node19" class="node">
<title>c21</title>
<polygon fill="none" stroke="#000000" points="120.4191,-116 120.4191,-154 221.4191,-154 221.4191,-116 120.4191,-116"/>
<text text-anchor="middle" x="133.4191" y="-131.3" font-family="Times,serif" font-size="14.00" fill="#000000">A</text>
<polyline fill="none" stroke="#000000" points="146.4191,-116 146.4191,-154 "/>
<text text-anchor="middle" x="170.9191" y="-138.8" font-family="Times,serif" font-size="14.00" fill="#000000">$16</text>
<text text-anchor="middle" x="170.9191" y="-123.8" font-family="Times,serif" font-size="14.00" fill="#000000">$not</text>
<polyline fill="none" stroke="#000000" points="195.4191,-116 195.4191,-154 "/>
<text text-anchor="middle" x="208.4191" y="-131.3" font-family="Times,serif" font-size="14.00" fill="#000000">Y</text>
</g>
<!-- n18&#45;&gt;c21 -->
<g id="edge13" class="edge">
<title>n18:e&#45;&gt;c21:w</title>
<path fill="none" stroke="#e6ab02" d="M79.2096,-135C93.6615,-135 99.5608,-135 110.4047,-135"/>
<polygon fill="#e6ab02" stroke="#e6ab02" points="110.4191,-138.5001 120.4191,-135 110.4191,-131.5001 110.4191,-138.5001"/>
</g>
<!-- c21&#45;&gt;n9 -->
<g id="edge26" class="edge">
<title>c21:e&#45;&gt;n9:w</title>
<path fill="none" stroke="#d95f02" d="M221.4191,-135C236.2498,-135 242.2964,-134.3774 253.4214,-134.1147"/>
<polygon fill="#d95f02" stroke="#d95f02" points="253.7366,-137.6115 263.6969,-134 253.6584,-130.6119 253.7366,-137.6115"/>
</g>
<!-- c22&#45;&gt;n3 -->
<g id="edge15" class="edge">
<title>c22:e&#45;&gt;n3:w</title>
<path fill="none" stroke="#7570b3" stroke-width="3" d="M812.9747,-221C835.2901,-221 831.9941,-241.5212 848.9747,-256 861.1465,-266.3785 864.1638,-277.3615 875.0449,-281.3952"/>
<polygon fill="#7570b3" stroke="#7570b3" stroke-width="3" points="874.7561,-284.893 885.1805,-283 875.8509,-277.9791 874.7561,-284.893"/>
</g>
<!-- c22&#45;&gt;n4 -->
<g id="edge17" class="edge">
<title>c22:e&#45;&gt;n4:w</title>
<path fill="none" stroke="#e7298a" stroke-width="3" d="M812.9747,-198C830.0212,-198 829.3604,-218.0732 839.49,-225.9143"/>
<polygon fill="#e7298a" stroke="#e7298a" stroke-width="3" points="838.5899,-229.3008 849.1805,-229 840.7139,-222.6307 838.5899,-229.3008"/>
</g>
<!-- c22&#45;&gt;n5 -->
<g id="edge19" class="edge">
<title>c22:e&#45;&gt;n5:w</title>
<path fill="none" stroke="#1b9e77" stroke-width="3" d="M812.9747,-175C825.0433,-175 830.3233,-175 838.9976,-175"/>
<polygon fill="#1b9e77" stroke="#1b9e77" stroke-width="3" points="839.1805,-178.5001 849.1805,-175 839.1804,-171.5001 839.1805,-178.5001"/>
</g>
<!-- c22&#45;&gt;n6 -->
<g id="edge21" class="edge">
<title>c22:e&#45;&gt;n6:w</title>
<path fill="none" stroke="#666666" stroke-width="3" d="M812.9747,-152C830.0212,-152 829.3604,-131.9268 839.49,-124.0857"/>
<polygon fill="#666666" stroke="#666666" stroke-width="3" points="840.7139,-127.3693 849.1805,-121 838.5899,-120.6992 840.7139,-127.3693"/>
</g>
<!-- c22&#45;&gt;n7 -->
<g id="edge23" class="edge">
<title>c22:e&#45;&gt;n7:w</title>
<path fill="none" stroke="#7570b3" stroke-width="3" d="M812.9747,-129C840.6466,-129 823.5556,-82.3751 839.3373,-69.9904"/>
<polygon fill="#7570b3" stroke="#7570b3" stroke-width="3" points="840.6297,-73.2558 849.1805,-67 838.5949,-66.5581 840.6297,-73.2558"/>
</g>
<!-- x0&#45;&gt;n1 -->
<g id="edge1" class="edge">
<title>x0:e&#45;&gt;n1:w</title>
<path fill="none" stroke="#e7298a" d="M197.9191,-288C223.8882,-288 232.8151,-288 254.5237,-288"/>
<polygon fill="#e7298a" stroke="#e7298a" points="254.6969,-291.5001 264.6969,-288 254.6969,-284.5001 254.6969,-291.5001"/>
</g>
<!-- x1&#45;&gt;n2 -->
<g id="edge14" class="edge">
<title>x1:e&#45;&gt;n2:w</title>
<path fill="none" stroke="#a6761d" stroke-width="3" d="M197.9191,-234C220.7509,-234 228.8669,-234 247.5599,-234"/>
<polygon fill="#a6761d" stroke="#a6761d" stroke-width="3" points="247.6969,-237.5001 257.6969,-234 247.6969,-230.5001 247.6969,-237.5001"/>
</g>
<!-- x2&#45;&gt;n8 -->
<g id="edge25" class="edge">
<title>x2:e&#45;&gt;n8:w</title>
<path fill="none" stroke="#7570b3" stroke-width="3" d="M197.9191,-41C222.5001,-41 231.0939,-41 251.4283,-41"/>
<polygon fill="#7570b3" stroke="#7570b3" stroke-width="3" points="251.6969,-44.5001 261.6969,-41 251.6969,-37.5001 251.6969,-44.5001"/>
</g>
<!-- x3&#45;&gt;n12 -->
<g id="edge6" class="edge">
<title>x3:e&#45;&gt;n12:w</title>
<path fill="none" stroke="#e6ab02" stroke-width="3" d="M1275.3863,-283C1300.1417,-283 1308.7239,-283 1329.3097,-283"/>
<polygon fill="#e6ab02" stroke="#e6ab02" stroke-width="3" points="1329.3286,-286.5001 1339.3285,-283 1329.3285,-279.5001 1329.3286,-286.5001"/>
</g>
<!-- x4&#45;&gt;n13 -->
<g id="edge7" class="edge">
<title>x4:e&#45;&gt;n13:w</title>
<path fill="none" stroke="#66a61e" stroke-width="3" d="M1275.3863,-229C1287.3863,-229 1292.6363,-229 1301.2613,-229"/>
<polygon fill="#66a61e" stroke="#66a61e" stroke-width="3" points="1301.3863,-232.5001 1311.3863,-229 1301.3862,-225.5001 1301.3863,-232.5001"/>
</g>
<!-- x5&#45;&gt;n14 -->
<g id="edge8" class="edge">
<title>x5:e&#45;&gt;n14:w</title>
<path fill="none" stroke="#d95f02" stroke-width="3" d="M1275.3863,-175C1287.3863,-175 1292.6363,-175 1301.2613,-175"/>
<polygon fill="#d95f02" stroke="#d95f02" stroke-width="3" points="1301.3863,-178.5001 1311.3863,-175 1301.3862,-171.5001 1301.3863,-178.5001"/>
</g>
<!-- x6&#45;&gt;n15 -->
<g id="edge9" class="edge">
<title>x6:e&#45;&gt;n15:w</title>
<path fill="none" stroke="#666666" stroke-width="3" d="M1275.3863,-121C1287.3863,-121 1292.6363,-121 1301.2613,-121"/>
<polygon fill="#666666" stroke="#666666" stroke-width="3" points="1301.3863,-124.5001 1311.3863,-121 1301.3862,-117.5001 1301.3863,-124.5001"/>
</g>
<!-- x7&#45;&gt;n16 -->
<g id="edge10" class="edge">
<title>x7:e&#45;&gt;n16:w</title>
<path fill="none" stroke="#7570b3" stroke-width="3" d="M1275.3863,-67C1287.3863,-67 1292.6363,-67 1301.2613,-67"/>
<polygon fill="#7570b3" stroke="#7570b3" stroke-width="3" points="1301.3863,-70.5001 1311.3863,-67 1301.3862,-63.5001 1301.3863,-70.5001"/>
</g>
</g>
</svg>
