<?xml version="1.0" encoding="UTF-8" standalone="no"?>
<!DOCTYPE svg PUBLIC "-//W3C//DTD SVG 1.1//EN"
 "http://www.w3.org/Graphics/SVG/1.1/DTD/svg11.dtd">
<!-- Generated by graphviz version 2.43.20190912.0211 (20190912.0211)
 -->
<!-- Title: TopModule Pages: 1 -->
<svg width="1842pt" height="575pt"
 viewBox="0.00 0.00 1841.51 574.52" xmlns="http://www.w3.org/2000/svg" xmlns:xlink="http://www.w3.org/1999/xlink">
<g id="graph0" class="graph" transform="scale(1 1) rotate(0) translate(4 570.52)">
<title>TopModule</title>
<polygon fill="white" stroke="transparent" points="-4,4 -4,-570.52 1837.51,-570.52 1837.51,4 -4,4"/>
<text text-anchor="middle" x="916.76" y="-7.8" font-family="Times,serif" font-size="14.00">TopModule</text>
<!-- n2 -->
<g id="node1" class="node">
<title>n2</title>
<polygon fill="none" stroke="black" points="565.52,-131.52 483.91,-113.52 565.52,-95.52 647.13,-113.52 565.52,-131.52"/>
<text text-anchor="middle" x="565.52" y="-109.82" font-family="Times,serif" font-size="14.00">Top_io_sw</text>
</g>
<!-- c30 -->
<g id="node27" class="node">
<title>c30</title>
<polygon fill="none" stroke="black" points="985.88,-155.52 985.88,-293.52 1240.88,-293.52 1240.88,-155.52 985.88,-155.52"/>
<text text-anchor="middle" x="1034.88" y="-278.32" font-family="Times,serif" font-size="14.00">clock</text>
<polyline fill="none" stroke="black" points="985.88,-270.52 1083.88,-270.52 "/>
<text text-anchor="middle" x="1034.88" y="-255.32" font-family="Times,serif" font-size="14.00">io_spi_clk</text>
<polyline fill="none" stroke="black" points="985.88,-247.52 1083.88,-247.52 "/>
<text text-anchor="middle" x="1034.88" y="-232.32" font-family="Times,serif" font-size="14.00">io_spi_cs_n</text>
<polyline fill="none" stroke="black" points="985.88,-224.52 1083.88,-224.52 "/>
<text text-anchor="middle" x="1034.88" y="-209.32" font-family="Times,serif" font-size="14.00">io_spi_mosi</text>
<polyline fill="none" stroke="black" points="985.88,-201.52 1083.88,-201.52 "/>
<text text-anchor="middle" x="1034.88" y="-186.32" font-family="Times,serif" font-size="14.00">io_sw</text>
<polyline fill="none" stroke="black" points="985.88,-178.52 1083.88,-178.52 "/>
<text text-anchor="middle" x="1034.88" y="-163.32" font-family="Times,serif" font-size="14.00">reset</text>
<polyline fill="none" stroke="black" points="1083.88,-155.52 1083.88,-293.52 "/>
<text text-anchor="middle" x="1105.38" y="-228.32" font-family="Times,serif" font-size="14.00">Top</text>
<text text-anchor="middle" x="1105.38" y="-213.32" font-family="Times,serif" font-size="14.00">Top</text>
<polyline fill="none" stroke="black" points="1126.88,-155.52 1126.88,-293.52 "/>
<text text-anchor="middle" x="1183.88" y="-266.82" font-family="Times,serif" font-size="14.00">io_pwm_out_l</text>
<polyline fill="none" stroke="black" points="1126.88,-247.52 1240.88,-247.52 "/>
<text text-anchor="middle" x="1183.88" y="-220.82" font-family="Times,serif" font-size="14.00">io_pwm_out_r</text>
<polyline fill="none" stroke="black" points="1126.88,-201.52 1240.88,-201.52 "/>
<text text-anchor="middle" x="1183.88" y="-174.82" font-family="Times,serif" font-size="14.00">io_spi_miso</text>
</g>
<!-- n2&#45;&gt;c30 -->
<g id="edge13" class="edge">
<title>n2:e&#45;&gt;c30:w</title>
<path fill="none" stroke="#a6761d" stroke-width="3" d="M648.52,-113.52C782.72,-113.52 834.45,-64.07 949.88,-132.52 972.03,-145.65 960.57,-178.31 975.92,-187.23"/>
<polygon fill="#a6761d" stroke="#a6761d" stroke-width="3" points="975.35,-190.69 985.88,-189.52 976.92,-183.87 975.35,-190.69"/>
</g>
<!-- n3 -->
<g id="node2" class="node">
<title>n3</title>
<polygon fill="none" stroke="black" points="1412,-242.52 1276.77,-224.52 1412,-206.52 1547.23,-224.52 1412,-242.52"/>
<text text-anchor="middle" x="1412" y="-220.82" font-family="Times,serif" font-size="14.00">Top_io_pwm_out_r</text>
</g>
<!-- x3 -->
<g id="node30" class="node">
<title>x3</title>
<path fill="none" stroke="black" d="M1625.11,-242.52C1625.11,-242.52 1595.11,-242.52 1595.11,-242.52 1589.11,-242.52 1583.11,-236.52 1583.11,-230.52 1583.11,-230.52 1583.11,-218.52 1583.11,-218.52 1583.11,-212.52 1589.11,-206.52 1595.11,-206.52 1595.11,-206.52 1625.11,-206.52 1625.11,-206.52 1631.11,-206.52 1637.11,-212.52 1637.11,-218.52 1637.11,-218.52 1637.11,-230.52 1637.11,-230.52 1637.11,-236.52 1631.11,-242.52 1625.11,-242.52"/>
<text text-anchor="middle" x="1610.11" y="-220.82" font-family="Times,serif" font-size="14.00">BUF</text>
</g>
<!-- n3&#45;&gt;x3 -->
<g id="edge21" class="edge">
<title>n3:e&#45;&gt;x3:w</title>
<path fill="none" stroke="#d95f02" d="M1547.11,-224.52C1559.11,-224.52 1564.36,-224.52 1572.99,-224.52"/>
<polygon fill="#d95f02" stroke="#d95f02" points="1573.11,-228.02 1583.11,-224.52 1573.11,-221.02 1573.11,-228.02"/>
</g>
<!-- n4 -->
<g id="node3" class="node">
<title>n4</title>
<polygon fill="none" stroke="black" points="1412,-296.52 1278.94,-278.52 1412,-260.52 1545.05,-278.52 1412,-296.52"/>
<text text-anchor="middle" x="1412" y="-274.82" font-family="Times,serif" font-size="14.00">Top_io_pwm_out_l</text>
</g>
<!-- x2 -->
<g id="node29" class="node">
<title>x2</title>
<path fill="none" stroke="black" d="M1625.11,-296.52C1625.11,-296.52 1595.11,-296.52 1595.11,-296.52 1589.11,-296.52 1583.11,-290.52 1583.11,-284.52 1583.11,-284.52 1583.11,-272.52 1583.11,-272.52 1583.11,-266.52 1589.11,-260.52 1595.11,-260.52 1595.11,-260.52 1625.11,-260.52 1625.11,-260.52 1631.11,-260.52 1637.11,-266.52 1637.11,-272.52 1637.11,-272.52 1637.11,-284.52 1637.11,-284.52 1637.11,-290.52 1631.11,-296.52 1625.11,-296.52"/>
<text text-anchor="middle" x="1610.11" y="-274.82" font-family="Times,serif" font-size="14.00">BUF</text>
</g>
<!-- n4&#45;&gt;x2 -->
<g id="edge23" class="edge">
<title>n4:e&#45;&gt;x2:w</title>
<path fill="none" stroke="#a6761d" d="M1546,-278.52C1558.5,-278.52 1563.89,-278.52 1572.95,-278.52"/>
<polygon fill="#a6761d" stroke="#a6761d" points="1573.11,-282.02 1583.11,-278.52 1573.11,-275.02 1573.11,-282.02"/>
</g>
<!-- n5 -->
<g id="node4" class="node">
<title>n5</title>
<polygon fill="none" stroke="black" points="829.47,-323.52 711.67,-305.52 829.47,-287.52 947.28,-305.52 829.47,-323.52"/>
<text text-anchor="middle" x="829.47" y="-301.82" font-family="Times,serif" font-size="14.00">Top_io_spi_cs_n</text>
</g>
<!-- n5&#45;&gt;c30 -->
<g id="edge25" class="edge">
<title>n5:e&#45;&gt;c30:w</title>
<path fill="none" stroke="#a6761d" d="M948.47,-305.52C979.27,-305.52 957.66,-251.74 976.17,-239.14"/>
<polygon fill="#a6761d" stroke="#a6761d" points="977.14,-242.51 985.88,-236.52 975.32,-235.75 977.14,-242.51"/>
</g>
<!-- n6 -->
<g id="node5" class="node">
<title>n6</title>
<polygon fill="none" stroke="black" points="565.52,-415.52 457.94,-397.52 565.52,-379.52 673.1,-397.52 565.52,-415.52"/>
<text text-anchor="middle" x="565.52" y="-393.82" font-family="Times,serif" font-size="14.00">Top_io_spi_clk</text>
</g>
<!-- n6&#45;&gt;c30 -->
<g id="edge27" class="edge">
<title>n6:e&#45;&gt;c30:w</title>
<path fill="none" stroke="#e7298a" d="M673.06,-397.52C728.32,-397.52 665.85,-312.95 709.06,-278.52 754.84,-242.05 907.57,-257.7 975.7,-259.38"/>
<polygon fill="#e7298a" stroke="#e7298a" points="975.83,-262.88 985.88,-259.52 975.93,-255.88 975.83,-262.88"/>
</g>
<!-- n7 -->
<g id="node6" class="node">
<title>n7</title>
<polygon fill="none" stroke="black" points="1412,-188.52 1291.68,-170.52 1412,-152.52 1532.32,-170.52 1412,-188.52"/>
<text text-anchor="middle" x="1412" y="-166.82" font-family="Times,serif" font-size="14.00">Top_io_spi_miso</text>
</g>
<!-- x1 -->
<g id="node28" class="node">
<title>x1</title>
<path fill="none" stroke="black" d="M1625.11,-188.52C1625.11,-188.52 1595.11,-188.52 1595.11,-188.52 1589.11,-188.52 1583.11,-182.52 1583.11,-176.52 1583.11,-176.52 1583.11,-164.52 1583.11,-164.52 1583.11,-158.52 1589.11,-152.52 1595.11,-152.52 1595.11,-152.52 1625.11,-152.52 1625.11,-152.52 1631.11,-152.52 1637.11,-158.52 1637.11,-164.52 1637.11,-164.52 1637.11,-176.52 1637.11,-176.52 1637.11,-182.52 1631.11,-188.52 1625.11,-188.52"/>
<text text-anchor="middle" x="1610.11" y="-166.82" font-family="Times,serif" font-size="14.00">BUF</text>
</g>
<!-- n7&#45;&gt;x1 -->
<g id="edge29" class="edge">
<title>n7:e&#45;&gt;x1:w</title>
<path fill="none" stroke="#e7298a" d="M1534,-170.52C1551.9,-170.52 1558.79,-170.52 1572.74,-170.52"/>
<polygon fill="#e7298a" stroke="#e7298a" points="1573.11,-174.02 1583.11,-170.52 1573.11,-167.02 1573.11,-174.02"/>
</g>
<!-- n8 -->
<g id="node7" class="node">
<title>n8</title>
<polygon fill="none" stroke="black" points="829.47,-231.52 709.15,-213.52 829.47,-195.52 949.79,-213.52 829.47,-231.52"/>
<text text-anchor="middle" x="829.47" y="-209.82" font-family="Times,serif" font-size="14.00">Top_io_spi_mosi</text>
</g>
<!-- n8&#45;&gt;c30 -->
<g id="edge31" class="edge">
<title>n8:e&#45;&gt;c30:w</title>
<path fill="none" stroke="#e7298a" d="M949.88,-213.52C961.89,-213.52 967.13,-212.96 975.75,-212.68"/>
<polygon fill="#e7298a" stroke="#e7298a" points="975.94,-216.17 985.88,-212.52 975.83,-209.18 975.94,-216.17"/>
</g>
<!-- n9 -->
<g id="node8" class="node">
<title>n9</title>
<polygon fill="none" stroke="black" points="829.47,-177.52 750.38,-159.52 829.47,-141.52 908.57,-159.52 829.47,-177.52"/>
<text text-anchor="middle" x="829.47" y="-155.82" font-family="Times,serif" font-size="14.00">Top_reset</text>
</g>
<!-- n9&#45;&gt;c30 -->
<g id="edge33" class="edge">
<title>n9:e&#45;&gt;c30:w</title>
<path fill="none" stroke="#a6761d" d="M909.47,-159.52C939.84,-159.52 949.67,-165.07 975.55,-166.29"/>
<polygon fill="#a6761d" stroke="#a6761d" points="975.81,-169.79 985.88,-166.52 975.96,-162.8 975.81,-169.79"/>
</g>
<!-- n10 -->
<g id="node9" class="node">
<title>n10</title>
<polygon fill="none" stroke="black" points="342.93,-365.52 263.84,-347.52 342.93,-329.52 422.03,-347.52 342.93,-365.52"/>
<text text-anchor="middle" x="342.93" y="-343.82" font-family="Times,serif" font-size="14.00">Top_clock</text>
</g>
<!-- n10&#45;&gt;c30 -->
<g id="edge3" class="edge">
<title>n10:e&#45;&gt;c30:w</title>
<path fill="none" stroke="#e7298a" d="M421.98,-347.52C539.34,-347.52 846.2,-387.5 949.88,-332.52 970.29,-321.7 962.39,-293.54 975.88,-285.01"/>
<polygon fill="#e7298a" stroke="#e7298a" points="977.02,-288.33 985.88,-282.52 975.33,-281.54 977.02,-288.33"/>
</g>
<!-- n11 -->
<g id="node10" class="node">
<title>n11</title>
<polygon fill="none" stroke="black" points="1822.2,-325.06 1822.2,-339.98 1781.84,-350.52 1724.78,-350.52 1684.43,-339.98 1684.43,-325.06 1724.78,-314.52 1781.84,-314.52 1822.2,-325.06"/>
<text text-anchor="middle" x="1753.31" y="-328.82" font-family="Times,serif" font-size="14.00">io_rgbled_3</text>
</g>
<!-- n12 -->
<g id="node11" class="node">
<title>n12</title>
<polygon fill="none" stroke="black" points="1822.2,-379.06 1822.2,-393.98 1781.84,-404.52 1724.78,-404.52 1684.43,-393.98 1684.43,-379.06 1724.78,-368.52 1781.84,-368.52 1822.2,-379.06"/>
<text text-anchor="middle" x="1753.31" y="-382.82" font-family="Times,serif" font-size="14.00">io_rgbled_2</text>
</g>
<!-- n13 -->
<g id="node12" class="node">
<title>n13</title>
<polygon fill="none" stroke="black" points="1822.2,-433.06 1822.2,-447.98 1781.84,-458.52 1724.78,-458.52 1684.43,-447.98 1684.43,-433.06 1724.78,-422.52 1781.84,-422.52 1822.2,-433.06"/>
<text text-anchor="middle" x="1753.31" y="-436.82" font-family="Times,serif" font-size="14.00">io_rgbled_1</text>
</g>
<!-- n14 -->
<g id="node13" class="node">
<title>n14</title>
<polygon fill="none" stroke="black" points="1822.2,-487.06 1822.2,-501.98 1781.84,-512.52 1724.78,-512.52 1684.43,-501.98 1684.43,-487.06 1724.78,-476.52 1781.84,-476.52 1822.2,-487.06"/>
<text text-anchor="middle" x="1753.31" y="-490.82" font-family="Times,serif" font-size="14.00">io_rgbled_0</text>
</g>
<!-- n15 -->
<g id="node14" class="node">
<title>n15</title>
<polygon fill="none" stroke="black" points="1793.92,-541.06 1793.92,-555.98 1770.13,-566.52 1736.49,-566.52 1712.71,-555.98 1712.71,-541.06 1736.49,-530.52 1770.13,-530.52 1793.92,-541.06"/>
<text text-anchor="middle" x="1753.31" y="-544.82" font-family="Times,serif" font-size="14.00">io_led</text>
</g>
<!-- n16 -->
<g id="node15" class="node">
<title>n16</title>
<polygon fill="none" stroke="black" points="111.36,-498.06 111.36,-512.98 86.51,-523.52 51.37,-523.52 26.52,-512.98 26.52,-498.06 51.37,-487.52 86.51,-487.52 111.36,-498.06"/>
<text text-anchor="middle" x="68.94" y="-501.82" font-family="Times,serif" font-size="14.00">io_btn</text>
</g>
<!-- n17 -->
<g id="node16" class="node">
<title>n17</title>
<polygon fill="none" stroke="black" points="108.23,-106.06 108.23,-120.98 85.22,-131.52 52.67,-131.52 29.65,-120.98 29.65,-106.06 52.67,-95.52 85.22,-95.52 108.23,-106.06"/>
<text text-anchor="middle" x="68.94" y="-109.82" font-family="Times,serif" font-size="14.00">io_sw</text>
</g>
<!-- x19 -->
<g id="node46" class="node">
<title>x19</title>
<path fill="none" stroke="black" d="M215.88,-131.52C215.88,-131.52 185.88,-131.52 185.88,-131.52 179.88,-131.52 173.88,-125.52 173.88,-119.52 173.88,-119.52 173.88,-107.52 173.88,-107.52 173.88,-101.52 179.88,-95.52 185.88,-95.52 185.88,-95.52 215.88,-95.52 215.88,-95.52 221.88,-95.52 227.88,-101.52 227.88,-107.52 227.88,-107.52 227.88,-119.52 227.88,-119.52 227.88,-125.52 221.88,-131.52 215.88,-131.52"/>
<text text-anchor="middle" x="200.88" y="-109.82" font-family="Times,serif" font-size="14.00">BUF</text>
</g>
<!-- n17&#45;&gt;x19 -->
<g id="edge9" class="edge">
<title>n17:e&#45;&gt;x19:w</title>
<path fill="none" stroke="#7570b3" stroke-width="3" d="M108.94,-113.52C134.08,-113.52 142.8,-113.52 163.71,-113.52"/>
<polygon fill="#7570b3" stroke="#7570b3" stroke-width="3" points="163.88,-117.02 173.88,-113.52 163.88,-110.02 163.88,-117.02"/>
</g>
<!-- n18 -->
<g id="node17" class="node">
<title>n18</title>
<polygon fill="none" stroke="black" points="1833.71,-217.06 1833.71,-231.98 1786.61,-242.52 1720.01,-242.52 1672.92,-231.98 1672.92,-217.06 1720.01,-206.52 1786.61,-206.52 1833.71,-217.06"/>
<text text-anchor="middle" x="1753.31" y="-220.82" font-family="Times,serif" font-size="14.00">io_pwm_out_r</text>
</g>
<!-- n19 -->
<g id="node18" class="node">
<title>n19</title>
<polygon fill="none" stroke="black" points="1831.89,-271.06 1831.89,-285.98 1785.86,-296.52 1720.76,-296.52 1674.73,-285.98 1674.73,-271.06 1720.76,-260.52 1785.86,-260.52 1831.89,-271.06"/>
<text text-anchor="middle" x="1753.31" y="-274.82" font-family="Times,serif" font-size="14.00">io_pwm_out_l</text>
</g>
<!-- n20 -->
<g id="node19" class="node">
<title>n20</title>
<polygon fill="none" stroke="black" points="135.61,-444.06 135.61,-458.98 96.56,-469.52 41.33,-469.52 2.28,-458.98 2.28,-444.06 41.33,-433.52 96.56,-433.52 135.61,-444.06"/>
<text text-anchor="middle" x="68.94" y="-447.82" font-family="Times,serif" font-size="14.00">io_spi_cs_n</text>
</g>
<!-- x18 -->
<g id="node45" class="node">
<title>x18</title>
<path fill="none" stroke="black" d="M215.88,-469.52C215.88,-469.52 185.88,-469.52 185.88,-469.52 179.88,-469.52 173.88,-463.52 173.88,-457.52 173.88,-457.52 173.88,-445.52 173.88,-445.52 173.88,-439.52 179.88,-433.52 185.88,-433.52 185.88,-433.52 215.88,-433.52 215.88,-433.52 221.88,-433.52 227.88,-439.52 227.88,-445.52 227.88,-445.52 227.88,-457.52 227.88,-457.52 227.88,-463.52 221.88,-469.52 215.88,-469.52"/>
<text text-anchor="middle" x="200.88" y="-447.82" font-family="Times,serif" font-size="14.00">BUF</text>
</g>
<!-- n20&#45;&gt;x18 -->
<g id="edge14" class="edge">
<title>n20:e&#45;&gt;x18:w</title>
<path fill="none" stroke="#7570b3" d="M136.94,-451.52C149.38,-451.52 154.76,-451.52 163.77,-451.52"/>
<polygon fill="#7570b3" stroke="#7570b3" points="163.88,-455.02 173.88,-451.52 163.88,-448.02 163.88,-455.02"/>
</g>
<!-- n21 -->
<g id="node20" class="node">
<title>n21</title>
<polygon fill="none" stroke="black" points="128.13,-390.06 128.13,-404.98 93.46,-415.52 44.43,-415.52 9.76,-404.98 9.76,-390.06 44.43,-379.52 93.46,-379.52 128.13,-390.06"/>
<text text-anchor="middle" x="68.94" y="-393.82" font-family="Times,serif" font-size="14.00">io_spi_clk</text>
</g>
<!-- x17 -->
<g id="node44" class="node">
<title>x17</title>
<path fill="none" stroke="black" d="M215.88,-415.52C215.88,-415.52 185.88,-415.52 185.88,-415.52 179.88,-415.52 173.88,-409.52 173.88,-403.52 173.88,-403.52 173.88,-391.52 173.88,-391.52 173.88,-385.52 179.88,-379.52 185.88,-379.52 185.88,-379.52 215.88,-379.52 215.88,-379.52 221.88,-379.52 227.88,-385.52 227.88,-391.52 227.88,-391.52 227.88,-403.52 227.88,-403.52 227.88,-409.52 221.88,-415.52 215.88,-415.52"/>
<text text-anchor="middle" x="200.88" y="-393.82" font-family="Times,serif" font-size="14.00">BUF</text>
</g>
<!-- n21&#45;&gt;x17 -->
<g id="edge15" class="edge">
<title>n21:e&#45;&gt;x17:w</title>
<path fill="none" stroke="#e7298a" d="M128.94,-397.52C145.02,-397.52 151.39,-397.52 163.67,-397.52"/>
<polygon fill="#e7298a" stroke="#e7298a" points="163.88,-401.02 173.88,-397.52 163.88,-394.02 163.88,-401.02"/>
</g>
<!-- n22 -->
<g id="node21" class="node">
<title>n22</title>
<polygon fill="none" stroke="black" points="1822.2,-163.06 1822.2,-177.98 1781.84,-188.52 1724.78,-188.52 1684.43,-177.98 1684.43,-163.06 1724.78,-152.52 1781.84,-152.52 1822.2,-163.06"/>
<text text-anchor="middle" x="1753.31" y="-166.82" font-family="Times,serif" font-size="14.00">io_spi_miso</text>
</g>
<!-- n23 -->
<g id="node22" class="node">
<title>n23</title>
<polygon fill="none" stroke="black" points="137.83,-52.06 137.83,-66.98 97.48,-77.52 40.41,-77.52 0.06,-66.98 0.06,-52.06 40.41,-41.52 97.48,-41.52 137.83,-52.06"/>
<text text-anchor="middle" x="68.94" y="-55.82" font-family="Times,serif" font-size="14.00">io_spi_mosi</text>
</g>
<!-- x16 -->
<g id="node43" class="node">
<title>x16</title>
<path fill="none" stroke="black" d="M215.88,-77.52C215.88,-77.52 185.88,-77.52 185.88,-77.52 179.88,-77.52 173.88,-71.52 173.88,-65.52 173.88,-65.52 173.88,-53.52 173.88,-53.52 173.88,-47.52 179.88,-41.52 185.88,-41.52 185.88,-41.52 215.88,-41.52 215.88,-41.52 221.88,-41.52 227.88,-47.52 227.88,-53.52 227.88,-53.52 227.88,-65.52 227.88,-65.52 227.88,-71.52 221.88,-77.52 215.88,-77.52"/>
<text text-anchor="middle" x="200.88" y="-55.82" font-family="Times,serif" font-size="14.00">BUF</text>
</g>
<!-- n23&#45;&gt;x16 -->
<g id="edge17" class="edge">
<title>n23:e&#45;&gt;x16:w</title>
<path fill="none" stroke="#666666" d="M137.88,-59.52C149.88,-59.52 155.13,-59.52 163.76,-59.52"/>
<polygon fill="#666666" stroke="#666666" points="163.88,-63.02 173.88,-59.52 163.88,-56.02 163.88,-63.02"/>
</g>
<!-- n24 -->
<g id="node23" class="node">
<title>n24</title>
<polygon fill="none" stroke="black" points="106.01,-206.06 106.01,-220.98 84.3,-231.52 53.59,-231.52 31.87,-220.98 31.87,-206.06 53.59,-195.52 84.3,-195.52 106.01,-206.06"/>
<text text-anchor="middle" x="68.94" y="-209.82" font-family="Times,serif" font-size="14.00">reset</text>
</g>
<!-- c29 -->
<g id="node26" class="node">
<title>c29</title>
<polygon fill="none" stroke="black" points="289.93,-156.52 289.93,-202.52 395.93,-202.52 395.93,-156.52 289.93,-156.52"/>
<text text-anchor="middle" x="303.43" y="-187.32" font-family="Times,serif" font-size="14.00">A</text>
<polyline fill="none" stroke="black" points="289.93,-179.52 316.93,-179.52 "/>
<text text-anchor="middle" x="303.43" y="-164.32" font-family="Times,serif" font-size="14.00">B</text>
<polyline fill="none" stroke="black" points="316.93,-156.52 316.93,-202.52 "/>
<text text-anchor="middle" x="343.43" y="-183.32" font-family="Times,serif" font-size="14.00">$260</text>
<text text-anchor="middle" x="343.43" y="-168.32" font-family="Times,serif" font-size="14.00">$eq</text>
<polyline fill="none" stroke="black" points="369.93,-156.52 369.93,-202.52 "/>
<text text-anchor="middle" x="382.93" y="-175.82" font-family="Times,serif" font-size="14.00">Y</text>
</g>
<!-- n24&#45;&gt;c29 -->
<g id="edge18" class="edge">
<title>n24:e&#45;&gt;c29:w</title>
<path fill="none" stroke="#7570b3" d="M106.94,-213.52C184.91,-213.52 205.71,-193.37 278.77,-191.64"/>
<polygon fill="#7570b3" stroke="#7570b3" points="278.97,-195.14 288.93,-191.52 278.89,-188.14 278.97,-195.14"/>
</g>
<!-- n25 -->
<g id="node24" class="node">
<title>n25</title>
<polygon fill="none" stroke="black" points="106.01,-336.06 106.01,-350.98 84.3,-361.52 53.59,-361.52 31.87,-350.98 31.87,-336.06 53.59,-325.52 84.3,-325.52 106.01,-336.06"/>
<text text-anchor="middle" x="68.94" y="-339.82" font-family="Times,serif" font-size="14.00">clock</text>
</g>
<!-- x14 -->
<g id="node41" class="node">
<title>x14</title>
<path fill="none" stroke="black" d="M215.88,-361.52C215.88,-361.52 185.88,-361.52 185.88,-361.52 179.88,-361.52 173.88,-355.52 173.88,-349.52 173.88,-349.52 173.88,-337.52 173.88,-337.52 173.88,-331.52 179.88,-325.52 185.88,-325.52 185.88,-325.52 215.88,-325.52 215.88,-325.52 221.88,-325.52 227.88,-331.52 227.88,-337.52 227.88,-337.52 227.88,-349.52 227.88,-349.52 227.88,-355.52 221.88,-361.52 215.88,-361.52"/>
<text text-anchor="middle" x="200.88" y="-339.82" font-family="Times,serif" font-size="14.00">BUF</text>
</g>
<!-- n25&#45;&gt;x14 -->
<g id="edge19" class="edge">
<title>n25:e&#45;&gt;x14:w</title>
<path fill="none" stroke="#7570b3" d="M106.94,-343.52C132.98,-343.52 141.92,-343.52 163.69,-343.52"/>
<polygon fill="#7570b3" stroke="#7570b3" points="163.88,-347.02 173.88,-343.52 163.88,-340.02 163.88,-347.02"/>
</g>
<!-- v0 -->
<g id="node25" class="node">
<title>v0</title>
<ellipse fill="none" stroke="black" cx="200.88" cy="-167.52" rx="27" ry="18"/>
<text text-anchor="middle" x="200.88" y="-163.82" font-family="Times,serif" font-size="14.00">1&#39;0</text>
</g>
<!-- v0&#45;&gt;c29 -->
<g id="edge34" class="edge">
<title>v0:e&#45;&gt;c29:w</title>
<path fill="none" stroke="#d95f02" d="M227.88,-167.52C251.31,-167.52 259.56,-167.52 278.84,-167.52"/>
<polygon fill="#d95f02" stroke="#d95f02" points="278.93,-171.02 288.93,-167.52 278.93,-164.02 278.93,-171.02"/>
</g>
<!-- x15 -->
<g id="node42" class="node">
<title>x15</title>
<path fill="none" stroke="black" d="M580.52,-191.52C580.52,-191.52 550.52,-191.52 550.52,-191.52 544.52,-191.52 538.52,-185.52 538.52,-179.52 538.52,-179.52 538.52,-167.52 538.52,-167.52 538.52,-161.52 544.52,-155.52 550.52,-155.52 550.52,-155.52 580.52,-155.52 580.52,-155.52 586.52,-155.52 592.52,-161.52 592.52,-167.52 592.52,-167.52 592.52,-179.52 592.52,-179.52 592.52,-185.52 586.52,-191.52 580.52,-191.52"/>
<text text-anchor="middle" x="565.52" y="-169.82" font-family="Times,serif" font-size="14.00">BUF</text>
</g>
<!-- c29&#45;&gt;x15 -->
<g id="edge1" class="edge">
<title>c29:e&#45;&gt;x15:w</title>
<path fill="none" stroke="#e7298a" d="M396.93,-179.52C455.93,-179.52 473.07,-174.18 527.33,-173.58"/>
<polygon fill="#e7298a" stroke="#e7298a" points="527.54,-177.08 537.52,-173.52 527.5,-170.08 527.54,-177.08"/>
</g>
<!-- c30&#45;&gt;n3 -->
<g id="edge20" class="edge">
<title>c30:e&#45;&gt;n3:w</title>
<path fill="none" stroke="#d95f02" d="M1240.88,-224.52C1252.88,-224.52 1258.13,-224.52 1266.76,-224.52"/>
<polygon fill="#d95f02" stroke="#d95f02" points="1266.88,-228.02 1276.88,-224.52 1266.88,-221.02 1266.88,-228.02"/>
</g>
<!-- c30&#45;&gt;n4 -->
<g id="edge22" class="edge">
<title>c30:e&#45;&gt;n4:w</title>
<path fill="none" stroke="#a6761d" d="M1240.88,-270.52C1253.8,-270.52 1258.8,-275.21 1268.01,-277.41"/>
<polygon fill="#a6761d" stroke="#a6761d" points="1267.67,-280.89 1278,-278.52 1268.45,-273.93 1267.67,-280.89"/>
</g>
<!-- c30&#45;&gt;n7 -->
<g id="edge28" class="edge">
<title>c30:e&#45;&gt;n7:w</title>
<path fill="none" stroke="#e7298a" d="M1240.88,-178.52C1259.2,-178.52 1265.69,-173.03 1279.95,-171.15"/>
<polygon fill="#e7298a" stroke="#e7298a" points="1280.24,-174.64 1290,-170.52 1279.8,-167.65 1280.24,-174.64"/>
</g>
<!-- x1&#45;&gt;n22 -->
<g id="edge16" class="edge">
<title>x1:e&#45;&gt;n22:w</title>
<path fill="none" stroke="#1b9e77" d="M1637.11,-170.52C1653.8,-170.52 1660.31,-170.52 1673.18,-170.52"/>
<polygon fill="#1b9e77" stroke="#1b9e77" points="1673.31,-174.02 1683.31,-170.52 1673.31,-167.02 1673.31,-174.02"/>
</g>
<!-- x2&#45;&gt;n19 -->
<g id="edge11" class="edge">
<title>x2:e&#45;&gt;n19:w</title>
<path fill="none" stroke="#e6ab02" d="M1637.11,-278.52C1649.18,-278.52 1654.46,-278.52 1663.13,-278.52"/>
<polygon fill="#e6ab02" stroke="#e6ab02" points="1663.31,-282.02 1673.31,-278.52 1663.31,-275.02 1663.31,-282.02"/>
</g>
<!-- x3&#45;&gt;n18 -->
<g id="edge10" class="edge">
<title>x3:e&#45;&gt;n18:w</title>
<path fill="none" stroke="#1b9e77" d="M1637.11,-224.52C1649.11,-224.52 1654.36,-224.52 1662.99,-224.52"/>
<polygon fill="#1b9e77" stroke="#1b9e77" points="1663.11,-228.02 1673.11,-224.52 1663.11,-221.02 1663.11,-228.02"/>
</g>
<!-- v4 -->
<g id="node31" class="node">
<title>v4</title>
<ellipse fill="none" stroke="black" cx="1412" cy="-548.52" rx="42.49" ry="18"/>
<text text-anchor="middle" x="1412" y="-544.82" font-family="Times,serif" font-size="14.00">4&#39;0000</text>
</g>
<!-- x5 -->
<g id="node32" class="node">
<title>x5</title>
<path fill="none" stroke="black" d="M1625.11,-566.52C1625.11,-566.52 1595.11,-566.52 1595.11,-566.52 1589.11,-566.52 1583.11,-560.52 1583.11,-554.52 1583.11,-554.52 1583.11,-542.52 1583.11,-542.52 1583.11,-536.52 1589.11,-530.52 1595.11,-530.52 1595.11,-530.52 1625.11,-530.52 1625.11,-530.52 1631.11,-530.52 1637.11,-536.52 1637.11,-542.52 1637.11,-542.52 1637.11,-554.52 1637.11,-554.52 1637.11,-560.52 1631.11,-566.52 1625.11,-566.52"/>
<text text-anchor="middle" x="1610.11" y="-544.82" font-family="Times,serif" font-size="14.00">BUF</text>
</g>
<!-- v4&#45;&gt;x5 -->
<g id="edge37" class="edge">
<title>v4:e&#45;&gt;x5:w</title>
<path fill="none" stroke="#e6ab02" stroke-width="3" d="M1456,-548.52C1508.96,-548.52 1524.69,-548.52 1573,-548.52"/>
<polygon fill="#e6ab02" stroke="#e6ab02" stroke-width="3" points="1573.11,-552.02 1583.11,-548.52 1573.11,-545.02 1573.11,-552.02"/>
</g>
<!-- x5&#45;&gt;n15 -->
<g id="edge8" class="edge">
<title>x5:e&#45;&gt;n15:w</title>
<path fill="none" stroke="#666666" stroke-width="3" d="M1637.11,-548.52C1666.36,-548.52 1676.15,-548.52 1700.99,-548.52"/>
<polygon fill="#666666" stroke="#666666" stroke-width="3" points="1701.31,-552.02 1711.31,-548.52 1701.31,-545.02 1701.31,-552.02"/>
</g>
<!-- v6 -->
<g id="node33" class="node">
<title>v6</title>
<ellipse fill="none" stroke="black" cx="1412" cy="-494.52" rx="36.29" ry="18"/>
<text text-anchor="middle" x="1412" y="-490.82" font-family="Times,serif" font-size="14.00">3&#39;000</text>
</g>
<!-- x7 -->
<g id="node34" class="node">
<title>x7</title>
<path fill="none" stroke="black" d="M1625.11,-512.52C1625.11,-512.52 1595.11,-512.52 1595.11,-512.52 1589.11,-512.52 1583.11,-506.52 1583.11,-500.52 1583.11,-500.52 1583.11,-488.52 1583.11,-488.52 1583.11,-482.52 1589.11,-476.52 1595.11,-476.52 1595.11,-476.52 1625.11,-476.52 1625.11,-476.52 1631.11,-476.52 1637.11,-482.52 1637.11,-488.52 1637.11,-488.52 1637.11,-500.52 1637.11,-500.52 1637.11,-506.52 1631.11,-512.52 1625.11,-512.52"/>
<text text-anchor="middle" x="1610.11" y="-490.82" font-family="Times,serif" font-size="14.00">BUF</text>
</g>
<!-- v6&#45;&gt;x7 -->
<g id="edge38" class="edge">
<title>v6:e&#45;&gt;x7:w</title>
<path fill="none" stroke="#7570b3" stroke-width="3" d="M1450,-494.52C1505.58,-494.52 1522,-494.52 1572.84,-494.52"/>
<polygon fill="#7570b3" stroke="#7570b3" stroke-width="3" points="1573.11,-498.02 1583.11,-494.52 1573.11,-491.02 1573.11,-498.02"/>
</g>
<!-- x7&#45;&gt;n14 -->
<g id="edge7" class="edge">
<title>x7:e&#45;&gt;n14:w</title>
<path fill="none" stroke="#d95f02" stroke-width="3" d="M1637.11,-494.52C1653.8,-494.52 1660.31,-494.52 1673.18,-494.52"/>
<polygon fill="#d95f02" stroke="#d95f02" stroke-width="3" points="1673.31,-498.02 1683.31,-494.52 1673.31,-491.02 1673.31,-498.02"/>
</g>
<!-- v8 -->
<g id="node35" class="node">
<title>v8</title>
<ellipse fill="none" stroke="black" cx="1412" cy="-440.52" rx="36.29" ry="18"/>
<text text-anchor="middle" x="1412" y="-436.82" font-family="Times,serif" font-size="14.00">3&#39;000</text>
</g>
<!-- x9 -->
<g id="node36" class="node">
<title>x9</title>
<path fill="none" stroke="black" d="M1625.11,-458.52C1625.11,-458.52 1595.11,-458.52 1595.11,-458.52 1589.11,-458.52 1583.11,-452.52 1583.11,-446.52 1583.11,-446.52 1583.11,-434.52 1583.11,-434.52 1583.11,-428.52 1589.11,-422.52 1595.11,-422.52 1595.11,-422.52 1625.11,-422.52 1625.11,-422.52 1631.11,-422.52 1637.11,-428.52 1637.11,-434.52 1637.11,-434.52 1637.11,-446.52 1637.11,-446.52 1637.11,-452.52 1631.11,-458.52 1625.11,-458.52"/>
<text text-anchor="middle" x="1610.11" y="-436.82" font-family="Times,serif" font-size="14.00">BUF</text>
</g>
<!-- v8&#45;&gt;x9 -->
<g id="edge39" class="edge">
<title>v8:e&#45;&gt;x9:w</title>
<path fill="none" stroke="#d95f02" stroke-width="3" d="M1450,-440.52C1505.58,-440.52 1522,-440.52 1572.84,-440.52"/>
<polygon fill="#d95f02" stroke="#d95f02" stroke-width="3" points="1573.11,-444.02 1583.11,-440.52 1573.11,-437.02 1573.11,-444.02"/>
</g>
<!-- x9&#45;&gt;n13 -->
<g id="edge6" class="edge">
<title>x9:e&#45;&gt;n13:w</title>
<path fill="none" stroke="#66a61e" stroke-width="3" d="M1637.11,-440.52C1653.8,-440.52 1660.31,-440.52 1673.18,-440.52"/>
<polygon fill="#66a61e" stroke="#66a61e" stroke-width="3" points="1673.31,-444.02 1683.31,-440.52 1673.31,-437.02 1673.31,-444.02"/>
</g>
<!-- v10 -->
<g id="node37" class="node">
<title>v10</title>
<ellipse fill="none" stroke="black" cx="1412" cy="-386.52" rx="36.29" ry="18"/>
<text text-anchor="middle" x="1412" y="-382.82" font-family="Times,serif" font-size="14.00">3&#39;000</text>
</g>
<!-- x11 -->
<g id="node38" class="node">
<title>x11</title>
<path fill="none" stroke="black" d="M1625.11,-404.52C1625.11,-404.52 1595.11,-404.52 1595.11,-404.52 1589.11,-404.52 1583.11,-398.52 1583.11,-392.52 1583.11,-392.52 1583.11,-380.52 1583.11,-380.52 1583.11,-374.52 1589.11,-368.52 1595.11,-368.52 1595.11,-368.52 1625.11,-368.52 1625.11,-368.52 1631.11,-368.52 1637.11,-374.52 1637.11,-380.52 1637.11,-380.52 1637.11,-392.52 1637.11,-392.52 1637.11,-398.52 1631.11,-404.52 1625.11,-404.52"/>
<text text-anchor="middle" x="1610.11" y="-382.82" font-family="Times,serif" font-size="14.00">BUF</text>
</g>
<!-- v10&#45;&gt;x11 -->
<g id="edge35" class="edge">
<title>v10:e&#45;&gt;x11:w</title>
<path fill="none" stroke="#a6761d" stroke-width="3" d="M1450,-386.52C1505.58,-386.52 1522,-386.52 1572.84,-386.52"/>
<polygon fill="#a6761d" stroke="#a6761d" stroke-width="3" points="1573.11,-390.02 1583.11,-386.52 1573.11,-383.02 1573.11,-390.02"/>
</g>
<!-- x11&#45;&gt;n12 -->
<g id="edge5" class="edge">
<title>x11:e&#45;&gt;n12:w</title>
<path fill="none" stroke="#e6ab02" stroke-width="3" d="M1637.11,-386.52C1653.8,-386.52 1660.31,-386.52 1673.18,-386.52"/>
<polygon fill="#e6ab02" stroke="#e6ab02" stroke-width="3" points="1673.31,-390.02 1683.31,-386.52 1673.31,-383.02 1673.31,-390.02"/>
</g>
<!-- v12 -->
<g id="node39" class="node">
<title>v12</title>
<ellipse fill="none" stroke="black" cx="1412" cy="-332.52" rx="36.29" ry="18"/>
<text text-anchor="middle" x="1412" y="-328.82" font-family="Times,serif" font-size="14.00">3&#39;000</text>
</g>
<!-- x13 -->
<g id="node40" class="node">
<title>x13</title>
<path fill="none" stroke="black" d="M1625.11,-350.52C1625.11,-350.52 1595.11,-350.52 1595.11,-350.52 1589.11,-350.52 1583.11,-344.52 1583.11,-338.52 1583.11,-338.52 1583.11,-326.52 1583.11,-326.52 1583.11,-320.52 1589.11,-314.52 1595.11,-314.52 1595.11,-314.52 1625.11,-314.52 1625.11,-314.52 1631.11,-314.52 1637.11,-320.52 1637.11,-326.52 1637.11,-326.52 1637.11,-338.52 1637.11,-338.52 1637.11,-344.52 1631.11,-350.52 1625.11,-350.52"/>
<text text-anchor="middle" x="1610.11" y="-328.82" font-family="Times,serif" font-size="14.00">BUF</text>
</g>
<!-- v12&#45;&gt;x13 -->
<g id="edge36" class="edge">
<title>v12:e&#45;&gt;x13:w</title>
<path fill="none" stroke="#1b9e77" stroke-width="3" d="M1450,-332.52C1505.58,-332.52 1522,-332.52 1572.84,-332.52"/>
<polygon fill="#1b9e77" stroke="#1b9e77" stroke-width="3" points="1573.11,-336.02 1583.11,-332.52 1573.11,-329.02 1573.11,-336.02"/>
</g>
<!-- x13&#45;&gt;n11 -->
<g id="edge4" class="edge">
<title>x13:e&#45;&gt;n11:w</title>
<path fill="none" stroke="#7570b3" stroke-width="3" d="M1637.11,-332.52C1653.8,-332.52 1660.31,-332.52 1673.18,-332.52"/>
<polygon fill="#7570b3" stroke="#7570b3" stroke-width="3" points="1673.31,-336.02 1683.31,-332.52 1673.31,-329.02 1673.31,-336.02"/>
</g>
<!-- x14&#45;&gt;n10 -->
<g id="edge2" class="edge">
<title>x14:e&#45;&gt;n10:w</title>
<path fill="none" stroke="#e7298a" d="M227.88,-343.52C239.96,-343.52 245.12,-345.77 253.73,-346.9"/>
<polygon fill="#e7298a" stroke="#e7298a" points="253.69,-350.4 263.88,-347.52 254.12,-343.41 253.69,-350.4"/>
</g>
<!-- x15&#45;&gt;n9 -->
<g id="edge32" class="edge">
<title>x15:e&#45;&gt;n9:w</title>
<path fill="none" stroke="#a6761d" d="M593.52,-173.52C659.58,-173.52 678.04,-160.91 739.27,-159.63"/>
<polygon fill="#a6761d" stroke="#a6761d" points="739.51,-163.12 749.47,-159.52 739.44,-156.12 739.51,-163.12"/>
</g>
<!-- x16&#45;&gt;n8 -->
<g id="edge30" class="edge">
<title>x16:e&#45;&gt;n8:w</title>
<path fill="none" stroke="#e7298a" d="M227.88,-59.52C426.1,-59.52 518.63,37.75 673.06,-86.52 715.74,-120.86 658.97,-201.77 698.98,-212.37"/>
<polygon fill="#e7298a" stroke="#e7298a" points="698.73,-215.86 709.06,-213.52 699.52,-208.91 698.73,-215.86"/>
</g>
<!-- x17&#45;&gt;n6 -->
<g id="edge26" class="edge">
<title>x17:e&#45;&gt;n6:w</title>
<path fill="none" stroke="#e7298a" d="M227.88,-397.52C326.65,-397.52 353.88,-397.52 447.76,-397.52"/>
<polygon fill="#e7298a" stroke="#e7298a" points="447.98,-401.02 457.98,-397.52 447.98,-394.02 447.98,-401.02"/>
</g>
<!-- x18&#45;&gt;n5 -->
<g id="edge24" class="edge">
<title>x18:e&#45;&gt;n5:w</title>
<path fill="none" stroke="#a6761d" d="M227.88,-451.52C426.1,-451.52 516.88,-546.58 673.06,-424.52 713.67,-392.78 663.19,-317.2 700.44,-306.73"/>
<polygon fill="#a6761d" stroke="#a6761d" points="700.96,-310.19 710.47,-305.52 700.12,-303.24 700.96,-310.19"/>
</g>
<!-- x19&#45;&gt;n2 -->
<g id="edge12" class="edge">
<title>x19:e&#45;&gt;n2:w</title>
<path fill="none" stroke="#a6761d" stroke-width="3" d="M227.88,-113.52C337.63,-113.52 367.56,-113.52 472.47,-113.52"/>
<polygon fill="#a6761d" stroke="#a6761d" stroke-width="3" points="472.52,-117.02 482.52,-113.52 472.52,-110.02 472.52,-117.02"/>
</g>
</g>
</svg>
