<?xml version="1.0" encoding="UTF-8" standalone="no"?>
<!DOCTYPE svg PUBLIC "-//W3C//DTD SVG 1.1//EN"
 "http://www.w3.org/Graphics/SVG/1.1/DTD/svg11.dtd">
<!-- Generated by graphviz version 2.40.1 (0)
 -->
<!-- Title: TopModule Pages: 1 -->
<svg width="1392pt" height="486pt"
 viewBox="0.00 0.00 1392.14 486.11" xmlns="http://www.w3.org/2000/svg" xmlns:xlink="http://www.w3.org/1999/xlink">
<g id="graph0" class="graph" transform="scale(1 1) rotate(0) translate(4 482.1141)">
<title>TopModule</title>
<polygon fill="#ffffff" stroke="transparent" points="-4,4 -4,-482.1141 1388.1434,-482.1141 1388.1434,4 -4,4"/>
<text text-anchor="middle" x="692.0717" y="-7.8" font-family="Times,serif" font-size="14.00" fill="#000000">TopModule</text>
<!-- n1 -->
<g id="node1" class="node">
<title>n1</title>
<polygon fill="none" stroke="#000000" points="435.2941,-420.2767 356.1991,-402.2767 435.2941,-384.2767 514.3892,-402.2767 435.2941,-420.2767"/>
<text text-anchor="middle" x="435.2941" y="-398.5767" font-family="Times,serif" font-size="14.00" fill="#000000">Top_clock</text>
</g>
<!-- n2 -->
<g id="node2" class="node">
<title>n2</title>
<polygon fill="none" stroke="#000000" points="992.8708,-326.2767 869.5364,-308.2767 992.8708,-290.2767 1116.2052,-308.2767 992.8708,-326.2767"/>
<text text-anchor="middle" x="992.8708" y="-304.5767" font-family="Times,serif" font-size="14.00" fill="#000000">Top_io_pwm_out</text>
</g>
<!-- x4 -->
<g id="node21" class="node">
<title>x4</title>
<path fill="none" stroke="#000000" d="M1194.0379,-326.2767C1194.0379,-326.2767 1164.0379,-326.2767 1164.0379,-326.2767 1158.0379,-326.2767 1152.0379,-320.2767 1152.0379,-314.2767 1152.0379,-314.2767 1152.0379,-302.2767 1152.0379,-302.2767 1152.0379,-296.2767 1158.0379,-290.2767 1164.0379,-290.2767 1164.0379,-290.2767 1194.0379,-290.2767 1194.0379,-290.2767 1200.0379,-290.2767 1206.0379,-296.2767 1206.0379,-302.2767 1206.0379,-302.2767 1206.0379,-314.2767 1206.0379,-314.2767 1206.0379,-320.2767 1200.0379,-326.2767 1194.0379,-326.2767"/>
<text text-anchor="middle" x="1179.0379" y="-304.5767" font-family="Times,serif" font-size="14.00" fill="#000000">BUF</text>
</g>
<!-- n2&#45;&gt;x4 -->
<g id="edge11" class="edge">
<title>n2:e&#45;&gt;x4:w</title>
<path fill="none" stroke="#666666" d="M1115.8708,-308.2767C1127.9265,-308.2767 1133.2009,-308.2767 1141.8659,-308.2767"/>
<polygon fill="#666666" stroke="#666666" points="1142.0379,-311.7768 1152.0379,-308.2767 1142.0378,-304.7768 1142.0379,-311.7768"/>
</g>
<!-- n3 -->
<g id="node3" class="node">
<title>n3</title>
<polygon fill="none" stroke="#000000" points="435.2941,-366.2767 327.7113,-348.2767 435.2941,-330.2767 542.8769,-348.2767 435.2941,-366.2767"/>
<text text-anchor="middle" x="435.2941" y="-344.5767" font-family="Times,serif" font-size="14.00" fill="#000000">Top_io_spi_clk</text>
</g>
<!-- n4 -->
<g id="node4" class="node">
<title>n4</title>
<polygon fill="none" stroke="#000000" points="435.2941,-178.2767 317.4897,-160.2767 435.2941,-142.2767 553.0986,-160.2767 435.2941,-178.2767"/>
<text text-anchor="middle" x="435.2941" y="-156.5767" font-family="Times,serif" font-size="14.00" fill="#000000">Top_io_spi_cs_n</text>
</g>
<!-- n5 -->
<g id="node5" class="node">
<title>n5</title>
<polygon fill="none" stroke="#000000" points="992.8708,-268.2767 872.5515,-250.2767 992.8708,-232.2767 1113.1901,-250.2767 992.8708,-268.2767"/>
<text text-anchor="middle" x="992.8708" y="-246.5767" font-family="Times,serif" font-size="14.00" fill="#000000">Top_io_spi_miso</text>
</g>
<!-- x5 -->
<g id="node22" class="node">
<title>x5</title>
<path fill="none" stroke="#000000" d="M1194.0379,-268.2767C1194.0379,-268.2767 1164.0379,-268.2767 1164.0379,-268.2767 1158.0379,-268.2767 1152.0379,-262.2767 1152.0379,-256.2767 1152.0379,-256.2767 1152.0379,-244.2767 1152.0379,-244.2767 1152.0379,-238.2767 1158.0379,-232.2767 1164.0379,-232.2767 1164.0379,-232.2767 1194.0379,-232.2767 1194.0379,-232.2767 1200.0379,-232.2767 1206.0379,-238.2767 1206.0379,-244.2767 1206.0379,-244.2767 1206.0379,-256.2767 1206.0379,-256.2767 1206.0379,-262.2767 1200.0379,-268.2767 1194.0379,-268.2767"/>
<text text-anchor="middle" x="1179.0379" y="-246.5767" font-family="Times,serif" font-size="14.00" fill="#000000">BUF</text>
</g>
<!-- n5&#45;&gt;x5 -->
<g id="edge15" class="edge">
<title>n5:e&#45;&gt;x5:w</title>
<path fill="none" stroke="#e6ab02" d="M1113.8708,-250.2767C1126.8582,-250.2767 1132.388,-250.2767 1141.8797,-250.2767"/>
<polygon fill="#e6ab02" stroke="#e6ab02" points="1142.0379,-253.7768 1152.0379,-250.2767 1142.0378,-246.7768 1142.0379,-253.7768"/>
</g>
<!-- n6 -->
<g id="node6" class="node">
<title>n6</title>
<polygon fill="none" stroke="#000000" points="435.2941,-124.2767 314.9749,-106.2767 435.2941,-88.2767 555.6134,-106.2767 435.2941,-124.2767"/>
<text text-anchor="middle" x="435.2941" y="-102.5767" font-family="Times,serif" font-size="14.00" fill="#000000">Top_io_spi_mosi</text>
</g>
<!-- n7 -->
<g id="node7" class="node">
<title>n7</title>
<polygon fill="none" stroke="#000000" points="435.2941,-271.2767 356.1991,-253.2767 435.2941,-235.2767 514.3892,-253.2767 435.2941,-271.2767"/>
<text text-anchor="middle" x="435.2941" y="-249.5767" font-family="Times,serif" font-size="14.00" fill="#000000">Top_reset</text>
</g>
<!-- c18 -->
<g id="node16" class="node">
<title>c18</title>
<polygon fill="none" stroke="#000000" points="591.7037,-221.7767 591.7037,-336.7767 833.7037,-336.7767 833.7037,-221.7767 591.7037,-221.7767"/>
<text text-anchor="middle" x="640.7037" y="-321.5767" font-family="Times,serif" font-size="14.00" fill="#000000">clock</text>
<polyline fill="none" stroke="#000000" points="591.7037,-313.7767 689.7037,-313.7767 "/>
<text text-anchor="middle" x="640.7037" y="-298.5767" font-family="Times,serif" font-size="14.00" fill="#000000">io_spi_clk</text>
<polyline fill="none" stroke="#000000" points="591.7037,-290.7767 689.7037,-290.7767 "/>
<text text-anchor="middle" x="640.7037" y="-275.5767" font-family="Times,serif" font-size="14.00" fill="#000000">io_spi_cs_n</text>
<polyline fill="none" stroke="#000000" points="591.7037,-267.7767 689.7037,-267.7767 "/>
<text text-anchor="middle" x="640.7037" y="-252.5767" font-family="Times,serif" font-size="14.00" fill="#000000">io_spi_mosi</text>
<polyline fill="none" stroke="#000000" points="591.7037,-244.7767 689.7037,-244.7767 "/>
<text text-anchor="middle" x="640.7037" y="-229.5767" font-family="Times,serif" font-size="14.00" fill="#000000">reset</text>
<polyline fill="none" stroke="#000000" points="689.7037,-221.7767 689.7037,-336.7767 "/>
<text text-anchor="middle" x="711.2037" y="-283.0767" font-family="Times,serif" font-size="14.00" fill="#000000">Top</text>
<text text-anchor="middle" x="711.2037" y="-268.0767" font-family="Times,serif" font-size="14.00" fill="#000000">Top</text>
<polyline fill="none" stroke="#000000" points="732.7037,-221.7767 732.7037,-336.7767 "/>
<text text-anchor="middle" x="783.2037" y="-304.5767" font-family="Times,serif" font-size="14.00" fill="#000000">io_pwm_out</text>
<polyline fill="none" stroke="#000000" points="732.7037,-279.7767 833.7037,-279.7767 "/>
<text text-anchor="middle" x="783.2037" y="-247.0767" font-family="Times,serif" font-size="14.00" fill="#000000">io_spi_miso</text>
</g>
<!-- n7&#45;&gt;c18 -->
<g id="edge18" class="edge">
<title>n7:e&#45;&gt;c18:w</title>
<path fill="none" stroke="#7570b3" d="M514.2941,-253.2767C546.2192,-253.2767 554.5805,-237.1329 581.7192,-233.8537"/>
<polygon fill="#7570b3" stroke="#7570b3" points="581.9223,-237.3479 591.7037,-233.2767 581.5184,-230.3595 581.9223,-237.3479"/>
</g>
<!-- n8 -->
<g id="node8" class="node">
<title>n8</title>
<polygon fill="none" stroke="#000000" points="106.0137,-404.8209 106.0137,-419.7325 84.2978,-430.2767 53.5868,-430.2767 31.8708,-419.7325 31.8708,-404.8209 53.5868,-394.2767 84.2978,-394.2767 106.0137,-404.8209"/>
<text text-anchor="middle" x="68.9423" y="-408.5767" font-family="Times,serif" font-size="14.00" fill="#000000">clock</text>
</g>
<!-- n8&#45;&gt;c18 -->
<g id="edge19" class="edge">
<title>n8:e&#45;&gt;c18:w</title>
<path fill="none" stroke="#e7298a" d="M105.9423,-412.2767C137.0697,-412.2767 142.9907,-425.4704 173.8845,-429.2767 342.3084,-450.0277 417.4701,-527.7077 555.7037,-429.2767 592.2794,-403.2326 550.823,-337.3665 581.6117,-326.7356"/>
<polygon fill="#e7298a" stroke="#e7298a" points="582.3074,-330.1715 591.7037,-325.2767 581.3058,-323.2435 582.3074,-330.1715"/>
</g>
<!-- x0 -->
<g id="node17" class="node">
<title>x0</title>
<path fill="none" stroke="#000000" d="M241.3845,-420.2767C241.3845,-420.2767 211.3845,-420.2767 211.3845,-420.2767 205.3845,-420.2767 199.3845,-414.2767 199.3845,-408.2767 199.3845,-408.2767 199.3845,-396.2767 199.3845,-396.2767 199.3845,-390.2767 205.3845,-384.2767 211.3845,-384.2767 211.3845,-384.2767 241.3845,-384.2767 241.3845,-384.2767 247.3845,-384.2767 253.3845,-390.2767 253.3845,-396.2767 253.3845,-396.2767 253.3845,-408.2767 253.3845,-408.2767 253.3845,-414.2767 247.3845,-420.2767 241.3845,-420.2767"/>
<text text-anchor="middle" x="226.3845" y="-398.5767" font-family="Times,serif" font-size="14.00" fill="#000000">BUF</text>
</g>
<!-- n8&#45;&gt;x0 -->
<g id="edge20" class="edge">
<title>n8:e&#45;&gt;x0:w</title>
<path fill="none" stroke="#e7298a" d="M105.9423,-412.2767C144.1199,-412.2767 155.6792,-403.9216 189.2819,-402.4856"/>
<polygon fill="#e7298a" stroke="#e7298a" points="189.459,-405.9828 199.3845,-402.2767 189.3143,-398.9842 189.459,-405.9828"/>
</g>
<!-- n9 -->
<g id="node9" class="node">
<title>n9</title>
<polygon fill="none" stroke="#000000" points="1384.1961,-300.8209 1384.1961,-315.7325 1342.5435,-326.2767 1283.6377,-326.2767 1241.9851,-315.7325 1241.9851,-300.8209 1283.6377,-290.2767 1342.5435,-290.2767 1384.1961,-300.8209"/>
<text text-anchor="middle" x="1313.0906" y="-304.5767" font-family="Times,serif" font-size="14.00" fill="#000000">io_pwm_out</text>
</g>
<!-- n10 -->
<g id="node10" class="node">
<title>n10</title>
<polygon fill="none" stroke="#000000" points="128.1292,-330.8209 128.1292,-345.7325 93.4583,-356.2767 44.4263,-356.2767 9.7554,-345.7325 9.7554,-330.8209 44.4263,-320.2767 93.4583,-320.2767 128.1292,-330.8209"/>
<text text-anchor="middle" x="68.9423" y="-334.5767" font-family="Times,serif" font-size="14.00" fill="#000000">io_spi_clk</text>
</g>
<!-- n10&#45;&gt;c18 -->
<g id="edge2" class="edge">
<title>n10:e&#45;&gt;c18:w</title>
<path fill="none" stroke="#e7298a" d="M127.9423,-338.2767C149.7141,-338.2767 152.5463,-325.6005 173.8845,-321.2767 352.6908,-285.0449 403.9229,-301.6307 581.4953,-302.2587"/>
<polygon fill="#e7298a" stroke="#e7298a" points="581.6975,-305.7589 591.7037,-302.2767 581.71,-298.7589 581.6975,-305.7589"/>
</g>
<!-- x1 -->
<g id="node18" class="node">
<title>x1</title>
<path fill="none" stroke="#000000" d="M241.3845,-366.2767C241.3845,-366.2767 211.3845,-366.2767 211.3845,-366.2767 205.3845,-366.2767 199.3845,-360.2767 199.3845,-354.2767 199.3845,-354.2767 199.3845,-342.2767 199.3845,-342.2767 199.3845,-336.2767 205.3845,-330.2767 211.3845,-330.2767 211.3845,-330.2767 241.3845,-330.2767 241.3845,-330.2767 247.3845,-330.2767 253.3845,-336.2767 253.3845,-342.2767 253.3845,-342.2767 253.3845,-354.2767 253.3845,-354.2767 253.3845,-360.2767 247.3845,-366.2767 241.3845,-366.2767"/>
<text text-anchor="middle" x="226.3845" y="-344.5767" font-family="Times,serif" font-size="14.00" fill="#000000">BUF</text>
</g>
<!-- n10&#45;&gt;x1 -->
<g id="edge3" class="edge">
<title>n10:e&#45;&gt;x1:w</title>
<path fill="none" stroke="#e7298a" d="M127.9423,-338.2767C156.3719,-338.2767 165.3472,-346.1394 189.3692,-347.9208"/>
<polygon fill="#e7298a" stroke="#e7298a" points="189.2665,-351.4193 199.3845,-348.2767 189.5152,-344.4237 189.2665,-351.4193"/>
</g>
<!-- n11 -->
<g id="node11" class="node">
<title>n11</title>
<polygon fill="none" stroke="#000000" points="135.6063,-163.8209 135.6063,-178.7325 96.5554,-189.2767 41.3291,-189.2767 2.2783,-178.7325 2.2783,-163.8209 41.3291,-153.2767 96.5554,-153.2767 135.6063,-163.8209"/>
<text text-anchor="middle" x="68.9423" y="-167.5767" font-family="Times,serif" font-size="14.00" fill="#000000">io_spi_cs_n</text>
</g>
<!-- n11&#45;&gt;c18 -->
<g id="edge4" class="edge">
<title>n11:e&#45;&gt;c18:w</title>
<path fill="none" stroke="#7570b3" d="M135.9423,-171.2767C154.2435,-171.2767 156.1541,-182.7413 173.8845,-187.2767 256.5142,-208.4132 482.4604,-182.5751 555.7037,-226.2767 576.5275,-238.7015 567.3421,-268.3987 581.7406,-276.9413"/>
<polygon fill="#7570b3" stroke="#7570b3" points="581.1688,-280.4021 591.7037,-279.2767 582.7664,-273.5868 581.1688,-280.4021"/>
</g>
<!-- x2 -->
<g id="node19" class="node">
<title>x2</title>
<path fill="none" stroke="#000000" d="M241.3845,-178.2767C241.3845,-178.2767 211.3845,-178.2767 211.3845,-178.2767 205.3845,-178.2767 199.3845,-172.2767 199.3845,-166.2767 199.3845,-166.2767 199.3845,-154.2767 199.3845,-154.2767 199.3845,-148.2767 205.3845,-142.2767 211.3845,-142.2767 211.3845,-142.2767 241.3845,-142.2767 241.3845,-142.2767 247.3845,-142.2767 253.3845,-148.2767 253.3845,-154.2767 253.3845,-154.2767 253.3845,-166.2767 253.3845,-166.2767 253.3845,-172.2767 247.3845,-178.2767 241.3845,-178.2767"/>
<text text-anchor="middle" x="226.3845" y="-156.5767" font-family="Times,serif" font-size="14.00" fill="#000000">BUF</text>
</g>
<!-- n11&#45;&gt;x2 -->
<g id="edge5" class="edge">
<title>n11:e&#45;&gt;x2:w</title>
<path fill="none" stroke="#7570b3" d="M135.9423,-171.2767C160.8706,-171.2767 168.7945,-162.9299 189.3388,-160.7779"/>
<polygon fill="#7570b3" stroke="#7570b3" points="189.5714,-164.2708 199.3845,-160.2767 189.2225,-157.2795 189.5714,-164.2708"/>
</g>
<!-- n12 -->
<g id="node12" class="node">
<title>n12</title>
<polygon fill="none" stroke="#000000" points="1381.9752,-242.8209 1381.9752,-257.7325 1341.6235,-268.2767 1284.5577,-268.2767 1244.206,-257.7325 1244.206,-242.8209 1284.5577,-232.2767 1341.6235,-232.2767 1381.9752,-242.8209"/>
<text text-anchor="middle" x="1313.0906" y="-246.5767" font-family="Times,serif" font-size="14.00" fill="#000000">io_spi_miso</text>
</g>
<!-- n13 -->
<g id="node13" class="node">
<title>n13</title>
<polygon fill="none" stroke="#000000" points="137.8268,-86.8209 137.8268,-101.7325 97.4752,-112.2767 40.4093,-112.2767 .0577,-101.7325 .0577,-86.8209 40.4093,-76.2767 97.4752,-76.2767 137.8268,-86.8209"/>
<text text-anchor="middle" x="68.9423" y="-90.5767" font-family="Times,serif" font-size="14.00" fill="#000000">io_spi_mosi</text>
</g>
<!-- n13&#45;&gt;c18 -->
<g id="edge7" class="edge">
<title>n13:e&#45;&gt;c18:w</title>
<path fill="none" stroke="#66a61e" d="M137.8845,-94.2767C155.2179,-94.2767 156.8878,-82.676 173.8845,-79.2767 340.2865,-45.9963 424.2945,28.0957 555.7037,-79.2767 614.9544,-127.6895 521.0349,-244.6106 581.609,-255.4655"/>
<polygon fill="#66a61e" stroke="#66a61e" points="581.4555,-258.9644 591.7037,-256.2767 582.0162,-251.9869 581.4555,-258.9644"/>
</g>
<!-- x3 -->
<g id="node20" class="node">
<title>x3</title>
<path fill="none" stroke="#000000" d="M241.3845,-124.2767C241.3845,-124.2767 211.3845,-124.2767 211.3845,-124.2767 205.3845,-124.2767 199.3845,-118.2767 199.3845,-112.2767 199.3845,-112.2767 199.3845,-100.2767 199.3845,-100.2767 199.3845,-94.2767 205.3845,-88.2767 211.3845,-88.2767 211.3845,-88.2767 241.3845,-88.2767 241.3845,-88.2767 247.3845,-88.2767 253.3845,-94.2767 253.3845,-100.2767 253.3845,-100.2767 253.3845,-112.2767 253.3845,-112.2767 253.3845,-118.2767 247.3845,-124.2767 241.3845,-124.2767"/>
<text text-anchor="middle" x="226.3845" y="-102.5767" font-family="Times,serif" font-size="14.00" fill="#000000">BUF</text>
</g>
<!-- n13&#45;&gt;x3 -->
<g id="edge8" class="edge">
<title>n13:e&#45;&gt;x3:w</title>
<path fill="none" stroke="#66a61e" d="M137.8845,-94.2767C162.0347,-94.2767 169.6056,-103.3009 189.3519,-105.6979"/>
<polygon fill="#66a61e" stroke="#66a61e" points="189.1995,-109.1949 199.3845,-106.2767 189.6027,-102.2065 189.1995,-109.1949"/>
</g>
<!-- n14 -->
<g id="node14" class="node">
<title>n14</title>
<polygon fill="none" stroke="#000000" points="106.0137,-246.8209 106.0137,-261.7325 84.2978,-272.2767 53.5868,-272.2767 31.8708,-261.7325 31.8708,-246.8209 53.5868,-236.2767 84.2978,-236.2767 106.0137,-246.8209"/>
<text text-anchor="middle" x="68.9423" y="-250.5767" font-family="Times,serif" font-size="14.00" fill="#000000">reset</text>
</g>
<!-- c17 -->
<g id="node15" class="node">
<title>c17</title>
<polygon fill="none" stroke="#000000" points="173.8845,-235.2767 173.8845,-273.2767 278.8845,-273.2767 278.8845,-235.2767 173.8845,-235.2767"/>
<text text-anchor="middle" x="186.8845" y="-250.5767" font-family="Times,serif" font-size="14.00" fill="#000000">A</text>
<polyline fill="none" stroke="#000000" points="199.8845,-235.2767 199.8845,-273.2767 "/>
<text text-anchor="middle" x="226.3845" y="-258.0767" font-family="Times,serif" font-size="14.00" fill="#000000">$471</text>
<text text-anchor="middle" x="226.3845" y="-243.0767" font-family="Times,serif" font-size="14.00" fill="#000000">$not</text>
<polyline fill="none" stroke="#000000" points="252.8845,-235.2767 252.8845,-273.2767 "/>
<text text-anchor="middle" x="265.8845" y="-250.5767" font-family="Times,serif" font-size="14.00" fill="#000000">Y</text>
</g>
<!-- n14&#45;&gt;c17 -->
<g id="edge9" class="edge">
<title>n14:e&#45;&gt;c17:w</title>
<path fill="none" stroke="#d95f02" d="M105.9423,-254.2767C132.4822,-254.2767 141.5276,-254.2767 163.8305,-254.2767"/>
<polygon fill="#d95f02" stroke="#d95f02" points="163.8846,-257.7768 173.8845,-254.2767 163.8845,-250.7768 163.8846,-257.7768"/>
</g>
<!-- c17&#45;&gt;n7 -->
<g id="edge17" class="edge">
<title>c17:e&#45;&gt;n7:w</title>
<path fill="none" stroke="#7570b3" d="M278.8845,-254.2767C309.6628,-254.2767 319.7868,-253.4765 346.2083,-253.3077"/>
<polygon fill="#7570b3" stroke="#7570b3" points="346.305,-256.8075 356.2941,-253.2767 346.2834,-249.8076 346.305,-256.8075"/>
</g>
<!-- c18&#45;&gt;n2 -->
<g id="edge10" class="edge">
<title>c18:e&#45;&gt;n2:w</title>
<path fill="none" stroke="#666666" d="M833.7037,-308.2767C845.7594,-308.2767 851.0338,-308.2767 859.6988,-308.2767"/>
<polygon fill="#666666" stroke="#666666" points="859.8708,-311.7768 869.8708,-308.2767 859.8708,-304.7768 859.8708,-311.7768"/>
</g>
<!-- c18&#45;&gt;n5 -->
<g id="edge14" class="edge">
<title>c18:e&#45;&gt;n5:w</title>
<path fill="none" stroke="#e6ab02" d="M833.7037,-250.2767C846.6911,-250.2767 852.2209,-250.2767 861.7126,-250.2767"/>
<polygon fill="#e6ab02" stroke="#e6ab02" points="861.8708,-253.7768 871.8708,-250.2767 861.8708,-246.7768 861.8708,-253.7768"/>
</g>
<!-- x0&#45;&gt;n1 -->
<g id="edge1" class="edge">
<title>x0:e&#45;&gt;n1:w</title>
<path fill="none" stroke="#e7298a" d="M253.3845,-402.2767C295.5489,-402.2767 308.5605,-402.2767 346.1698,-402.2767"/>
<polygon fill="#e7298a" stroke="#e7298a" points="346.2942,-405.7768 356.2941,-402.2767 346.2941,-398.7768 346.2942,-405.7768"/>
</g>
<!-- x1&#45;&gt;n3 -->
<g id="edge12" class="edge">
<title>x1:e&#45;&gt;n3:w</title>
<path fill="none" stroke="#7570b3" d="M253.3845,-348.2767C282.5121,-348.2767 292.2687,-348.2767 317.0075,-348.2767"/>
<polygon fill="#7570b3" stroke="#7570b3" points="317.2942,-351.7768 327.2941,-348.2767 317.2941,-344.7768 317.2942,-351.7768"/>
</g>
<!-- x2&#45;&gt;n4 -->
<g id="edge13" class="edge">
<title>x2:e&#45;&gt;n4:w</title>
<path fill="none" stroke="#1b9e77" d="M253.3845,-160.2767C278.1273,-160.2767 286.7051,-160.2767 307.2804,-160.2767"/>
<polygon fill="#1b9e77" stroke="#1b9e77" points="307.2942,-163.7768 317.2941,-160.2767 307.2941,-156.7768 307.2942,-163.7768"/>
</g>
<!-- x3&#45;&gt;n6 -->
<g id="edge16" class="edge">
<title>x3:e&#45;&gt;n6:w</title>
<path fill="none" stroke="#a6761d" d="M253.3845,-106.2767C276.9809,-106.2767 285.2995,-106.2767 304.7184,-106.2767"/>
<polygon fill="#a6761d" stroke="#a6761d" points="304.8846,-109.7768 314.8845,-106.2767 304.8845,-102.7768 304.8846,-109.7768"/>
</g>
<!-- x4&#45;&gt;n9 -->
<g id="edge21" class="edge">
<title>x4:e&#45;&gt;n9:w</title>
<path fill="none" stroke="#1b9e77" d="M1206.0379,-308.2767C1218.0555,-308.2767 1223.3132,-308.2767 1231.9508,-308.2767"/>
<polygon fill="#1b9e77" stroke="#1b9e77" points="1232.0907,-311.7768 1242.0906,-308.2767 1232.0906,-304.7768 1232.0907,-311.7768"/>
</g>
<!-- x5&#45;&gt;n12 -->
<g id="edge6" class="edge">
<title>x5:e&#45;&gt;n12:w</title>
<path fill="none" stroke="#e6ab02" d="M1206.0379,-250.2767C1218.9864,-250.2767 1224.4996,-250.2767 1233.9628,-250.2767"/>
<polygon fill="#e6ab02" stroke="#e6ab02" points="1234.0907,-253.7768 1244.0906,-250.2767 1234.0906,-246.7768 1234.0907,-253.7768"/>
</g>
</g>
</svg>
