<?xml version="1.0" encoding="UTF-8" standalone="no"?>
<!DOCTYPE svg PUBLIC "-//W3C//DTD SVG 1.1//EN"
 "http://www.w3.org/Graphics/SVG/1.1/DTD/svg11.dtd">
<!-- Generated by graphviz version 2.40.1 (0)
 -->
<!-- Title: TopModule Pages: 1 -->
<svg width="1617pt" height="623pt"
 viewBox="0.00 0.00 1616.75 623.00" xmlns="http://www.w3.org/2000/svg" xmlns:xlink="http://www.w3.org/1999/xlink">
<g id="graph0" class="graph" transform="scale(1 1) rotate(0) translate(4 619)">
<title>TopModule</title>
<polygon fill="#ffffff" stroke="transparent" points="-4,4 -4,-619 1612.7539,-619 1612.7539,4 -4,4"/>
<text text-anchor="middle" x="804.3769" y="-7.8" font-family="Times,serif" font-size="14.00" fill="#000000">TopModule</text>
<!-- n1 -->
<g id="node1" class="node">
<title>n1</title>
<polygon fill="none" stroke="#000000" points="478.1712,-615 352.322,-597 478.1712,-579 604.0203,-597 478.1712,-615"/>
<text text-anchor="middle" x="478.1712" y="-593.3" font-family="Times,serif" font-size="14.00" fill="#000000">VivadoTest_clock</text>
</g>
<!-- n2 -->
<g id="node2" class="node">
<title>n2</title>
<polygon fill="none" stroke="#000000" points="478.1712,-427 345.1152,-409 478.1712,-391 611.2271,-409 478.1712,-427"/>
<text text-anchor="middle" x="478.1712" y="-405.3" font-family="Times,serif" font-size="14.00" fill="#000000">VivadoTest_io_btn</text>
</g>
<!-- n3 -->
<g id="node3" class="node">
<title>n3</title>
<polygon fill="none" stroke="#000000" points="1176.6636,-440 1045.2845,-422 1176.6636,-404 1308.0426,-422 1176.6636,-440"/>
<text text-anchor="middle" x="1176.6636" y="-418.3" font-family="Times,serif" font-size="14.00" fill="#000000">VivadoTest_io_led</text>
</g>
<!-- x6 -->
<g id="node35" class="node">
<title>x6</title>
<path fill="none" stroke="#000000" d="M1422.8693,-440C1422.8693,-440 1392.8693,-440 1392.8693,-440 1386.8693,-440 1380.8693,-434 1380.8693,-428 1380.8693,-428 1380.8693,-416 1380.8693,-416 1380.8693,-410 1386.8693,-404 1392.8693,-404 1392.8693,-404 1422.8693,-404 1422.8693,-404 1428.8693,-404 1434.8693,-410 1434.8693,-416 1434.8693,-416 1434.8693,-428 1434.8693,-428 1434.8693,-434 1428.8693,-440 1422.8693,-440"/>
<text text-anchor="middle" x="1407.8693" y="-418.3" font-family="Times,serif" font-size="14.00" fill="#000000">BUF</text>
</g>
<!-- n3&#45;&gt;x6 -->
<g id="edge29" class="edge">
<title>n3:e&#45;&gt;x6:w</title>
<path fill="none" stroke="#a6761d" stroke-width="3" d="M1308.6636,-422C1337.1196,-422 1346.6513,-422 1370.8199,-422"/>
<polygon fill="#a6761d" stroke="#a6761d" stroke-width="3" points="1370.8694,-425.5001 1380.8693,-422 1370.8693,-418.5001 1370.8694,-425.5001"/>
</g>
<!-- n4 -->
<g id="node4" class="node">
<title>n4</title>
<polygon fill="none" stroke="#000000" points="1176.6636,-386 1008.2517,-368 1176.6636,-350 1345.0754,-368 1176.6636,-386"/>
<text text-anchor="middle" x="1176.6636" y="-364.3" font-family="Times,serif" font-size="14.00" fill="#000000">VivadoTest_io_rgbled_0</text>
</g>
<!-- x7 -->
<g id="node36" class="node">
<title>x7</title>
<path fill="none" stroke="#000000" d="M1422.8693,-386C1422.8693,-386 1392.8693,-386 1392.8693,-386 1386.8693,-386 1380.8693,-380 1380.8693,-374 1380.8693,-374 1380.8693,-362 1380.8693,-362 1380.8693,-356 1386.8693,-350 1392.8693,-350 1392.8693,-350 1422.8693,-350 1422.8693,-350 1428.8693,-350 1434.8693,-356 1434.8693,-362 1434.8693,-362 1434.8693,-374 1434.8693,-374 1434.8693,-380 1428.8693,-386 1422.8693,-386"/>
<text text-anchor="middle" x="1407.8693" y="-364.3" font-family="Times,serif" font-size="14.00" fill="#000000">BUF</text>
</g>
<!-- n4&#45;&gt;x7 -->
<g id="edge31" class="edge">
<title>n4:e&#45;&gt;x7:w</title>
<path fill="none" stroke="#e7298a" stroke-width="3" d="M1344.6636,-368C1356.7321,-368 1362.0122,-368 1370.6865,-368"/>
<polygon fill="#e7298a" stroke="#e7298a" stroke-width="3" points="1370.8694,-371.5001 1380.8693,-368 1370.8693,-364.5001 1370.8694,-371.5001"/>
</g>
<!-- n5 -->
<g id="node5" class="node">
<title>n5</title>
<polygon fill="none" stroke="#000000" points="1176.6636,-332 1008.2517,-314 1176.6636,-296 1345.0754,-314 1176.6636,-332"/>
<text text-anchor="middle" x="1176.6636" y="-310.3" font-family="Times,serif" font-size="14.00" fill="#000000">VivadoTest_io_rgbled_1</text>
</g>
<!-- x8 -->
<g id="node37" class="node">
<title>x8</title>
<path fill="none" stroke="#000000" d="M1422.8693,-332C1422.8693,-332 1392.8693,-332 1392.8693,-332 1386.8693,-332 1380.8693,-326 1380.8693,-320 1380.8693,-320 1380.8693,-308 1380.8693,-308 1380.8693,-302 1386.8693,-296 1392.8693,-296 1392.8693,-296 1422.8693,-296 1422.8693,-296 1428.8693,-296 1434.8693,-302 1434.8693,-308 1434.8693,-308 1434.8693,-320 1434.8693,-320 1434.8693,-326 1428.8693,-332 1422.8693,-332"/>
<text text-anchor="middle" x="1407.8693" y="-310.3" font-family="Times,serif" font-size="14.00" fill="#000000">BUF</text>
</g>
<!-- n5&#45;&gt;x8 -->
<g id="edge33" class="edge">
<title>n5:e&#45;&gt;x8:w</title>
<path fill="none" stroke="#e7298a" stroke-width="3" d="M1344.6636,-314C1356.7321,-314 1362.0122,-314 1370.6865,-314"/>
<polygon fill="#e7298a" stroke="#e7298a" stroke-width="3" points="1370.8694,-317.5001 1380.8693,-314 1370.8693,-310.5001 1370.8694,-317.5001"/>
</g>
<!-- n6 -->
<g id="node6" class="node">
<title>n6</title>
<polygon fill="none" stroke="#000000" points="1176.6636,-278 1008.2517,-260 1176.6636,-242 1345.0754,-260 1176.6636,-278"/>
<text text-anchor="middle" x="1176.6636" y="-256.3" font-family="Times,serif" font-size="14.00" fill="#000000">VivadoTest_io_rgbled_2</text>
</g>
<!-- x9 -->
<g id="node38" class="node">
<title>x9</title>
<path fill="none" stroke="#000000" d="M1422.8693,-278C1422.8693,-278 1392.8693,-278 1392.8693,-278 1386.8693,-278 1380.8693,-272 1380.8693,-266 1380.8693,-266 1380.8693,-254 1380.8693,-254 1380.8693,-248 1386.8693,-242 1392.8693,-242 1392.8693,-242 1422.8693,-242 1422.8693,-242 1428.8693,-242 1434.8693,-248 1434.8693,-254 1434.8693,-254 1434.8693,-266 1434.8693,-266 1434.8693,-272 1428.8693,-278 1422.8693,-278"/>
<text text-anchor="middle" x="1407.8693" y="-256.3" font-family="Times,serif" font-size="14.00" fill="#000000">BUF</text>
</g>
<!-- n6&#45;&gt;x9 -->
<g id="edge35" class="edge">
<title>n6:e&#45;&gt;x9:w</title>
<path fill="none" stroke="#e7298a" stroke-width="3" d="M1344.6636,-260C1356.7321,-260 1362.0122,-260 1370.6865,-260"/>
<polygon fill="#e7298a" stroke="#e7298a" stroke-width="3" points="1370.8694,-263.5001 1380.8693,-260 1370.8693,-256.5001 1370.8694,-263.5001"/>
</g>
<!-- n7 -->
<g id="node7" class="node">
<title>n7</title>
<polygon fill="none" stroke="#000000" points="1176.6636,-224 1008.2517,-206 1176.6636,-188 1345.0754,-206 1176.6636,-224"/>
<text text-anchor="middle" x="1176.6636" y="-202.3" font-family="Times,serif" font-size="14.00" fill="#000000">VivadoTest_io_rgbled_3</text>
</g>
<!-- x10 -->
<g id="node39" class="node">
<title>x10</title>
<path fill="none" stroke="#000000" d="M1422.8693,-224C1422.8693,-224 1392.8693,-224 1392.8693,-224 1386.8693,-224 1380.8693,-218 1380.8693,-212 1380.8693,-212 1380.8693,-200 1380.8693,-200 1380.8693,-194 1386.8693,-188 1392.8693,-188 1392.8693,-188 1422.8693,-188 1422.8693,-188 1428.8693,-188 1434.8693,-194 1434.8693,-200 1434.8693,-200 1434.8693,-212 1434.8693,-212 1434.8693,-218 1428.8693,-224 1422.8693,-224"/>
<text text-anchor="middle" x="1407.8693" y="-202.3" font-family="Times,serif" font-size="14.00" fill="#000000">BUF</text>
</g>
<!-- n7&#45;&gt;x10 -->
<g id="edge37" class="edge">
<title>n7:e&#45;&gt;x10:w</title>
<path fill="none" stroke="#a6761d" stroke-width="3" d="M1344.6636,-206C1356.7321,-206 1362.0122,-206 1370.6865,-206"/>
<polygon fill="#a6761d" stroke="#a6761d" stroke-width="3" points="1370.8694,-209.5001 1380.8693,-206 1370.8693,-202.5001 1370.8694,-209.5001"/>
</g>
<!-- n8 -->
<g id="node8" class="node">
<title>n8</title>
<polygon fill="none" stroke="#000000" points="478.1712,-373 322.9958,-355 478.1712,-337 633.3465,-355 478.1712,-373"/>
<text text-anchor="middle" x="478.1712" y="-351.3" font-family="Times,serif" font-size="14.00" fill="#000000">VivadoTest_io_spi_clk</text>
</g>
<!-- n9 -->
<g id="node9" class="node">
<title>n9</title>
<polygon fill="none" stroke="#000000" points="478.1712,-243 313.6128,-225 478.1712,-207 642.7295,-225 478.1712,-243"/>
<text text-anchor="middle" x="478.1712" y="-221.3" font-family="Times,serif" font-size="14.00" fill="#000000">VivadoTest_io_spi_cs_n</text>
</g>
<!-- n10 -->
<g id="node10" class="node">
<title>n10</title>
<polygon fill="none" stroke="#000000" points="1176.6636,-170 1009.59,-152 1176.6636,-134 1343.7371,-152 1176.6636,-170"/>
<text text-anchor="middle" x="1176.6636" y="-148.3" font-family="Times,serif" font-size="14.00" fill="#000000">VivadoTest_io_spi_miso</text>
</g>
<!-- x11 -->
<g id="node40" class="node">
<title>x11</title>
<path fill="none" stroke="#000000" d="M1422.8693,-170C1422.8693,-170 1392.8693,-170 1392.8693,-170 1386.8693,-170 1380.8693,-164 1380.8693,-158 1380.8693,-158 1380.8693,-146 1380.8693,-146 1380.8693,-140 1386.8693,-134 1392.8693,-134 1392.8693,-134 1422.8693,-134 1422.8693,-134 1428.8693,-134 1434.8693,-140 1434.8693,-146 1434.8693,-146 1434.8693,-158 1434.8693,-158 1434.8693,-164 1428.8693,-170 1422.8693,-170"/>
<text text-anchor="middle" x="1407.8693" y="-148.3" font-family="Times,serif" font-size="14.00" fill="#000000">BUF</text>
</g>
<!-- n10&#45;&gt;x11 -->
<g id="edge3" class="edge">
<title>n10:e&#45;&gt;x11:w</title>
<path fill="none" stroke="#e7298a" d="M1343.6636,-152C1356.1947,-152 1361.6036,-152 1370.6849,-152"/>
<polygon fill="#e7298a" stroke="#e7298a" points="1370.8694,-155.5001 1380.8693,-152 1370.8693,-148.5001 1370.8694,-155.5001"/>
</g>
<!-- n11 -->
<g id="node11" class="node">
<title>n11</title>
<polygon fill="none" stroke="#000000" points="478.1712,-189 311.0976,-171 478.1712,-153 645.2447,-171 478.1712,-189"/>
<text text-anchor="middle" x="478.1712" y="-167.3" font-family="Times,serif" font-size="14.00" fill="#000000">VivadoTest_io_spi_mosi</text>
</g>
<!-- n12 -->
<g id="node12" class="node">
<title>n12</title>
<polygon fill="none" stroke="#000000" points="478.1712,-59 349.3069,-41 478.1712,-23 607.0354,-41 478.1712,-59"/>
<text text-anchor="middle" x="478.1712" y="-37.3" font-family="Times,serif" font-size="14.00" fill="#000000">VivadoTest_io_sw</text>
</g>
<!-- n13 -->
<g id="node13" class="node">
<title>n13</title>
<polygon fill="none" stroke="#000000" points="478.1712,-520 351.4836,-502 478.1712,-484 604.8587,-502 478.1712,-520"/>
<text text-anchor="middle" x="478.1712" y="-498.3" font-family="Times,serif" font-size="14.00" fill="#000000">VivadoTest_reset</text>
</g>
<!-- c30 -->
<g id="node28" class="node">
<title>c30</title>
<polygon fill="none" stroke="#000000" points="681.4578,-205.5 681.4578,-366.5 972.4578,-366.5 972.4578,-205.5 681.4578,-205.5"/>
<text text-anchor="middle" x="730.4578" y="-351.3" font-family="Times,serif" font-size="14.00" fill="#000000">clock</text>
<polyline fill="none" stroke="#000000" points="681.4578,-343.5 779.4578,-343.5 "/>
<text text-anchor="middle" x="730.4578" y="-328.3" font-family="Times,serif" font-size="14.00" fill="#000000">io_btn</text>
<polyline fill="none" stroke="#000000" points="681.4578,-320.5 779.4578,-320.5 "/>
<text text-anchor="middle" x="730.4578" y="-305.3" font-family="Times,serif" font-size="14.00" fill="#000000">io_spi_clk</text>
<polyline fill="none" stroke="#000000" points="681.4578,-297.5 779.4578,-297.5 "/>
<text text-anchor="middle" x="730.4578" y="-282.3" font-family="Times,serif" font-size="14.00" fill="#000000">io_spi_cs_n</text>
<polyline fill="none" stroke="#000000" points="681.4578,-274.5 779.4578,-274.5 "/>
<text text-anchor="middle" x="730.4578" y="-259.3" font-family="Times,serif" font-size="14.00" fill="#000000">io_spi_mosi</text>
<polyline fill="none" stroke="#000000" points="681.4578,-251.5 779.4578,-251.5 "/>
<text text-anchor="middle" x="730.4578" y="-236.3" font-family="Times,serif" font-size="14.00" fill="#000000">io_sw</text>
<polyline fill="none" stroke="#000000" points="681.4578,-228.5 779.4578,-228.5 "/>
<text text-anchor="middle" x="730.4578" y="-213.3" font-family="Times,serif" font-size="14.00" fill="#000000">reset</text>
<polyline fill="none" stroke="#000000" points="779.4578,-205.5 779.4578,-366.5 "/>
<text text-anchor="middle" x="826.9578" y="-289.8" font-family="Times,serif" font-size="14.00" fill="#000000">VivadoTest</text>
<text text-anchor="middle" x="826.9578" y="-274.8" font-family="Times,serif" font-size="14.00" fill="#000000">VivadoTest</text>
<polyline fill="none" stroke="#000000" points="874.4578,-205.5 874.4578,-366.5 "/>
<text text-anchor="middle" x="923.4578" y="-349.8" font-family="Times,serif" font-size="14.00" fill="#000000">io_led</text>
<polyline fill="none" stroke="#000000" points="874.4578,-340.5 972.4578,-340.5 "/>
<text text-anchor="middle" x="923.4578" y="-323.3" font-family="Times,serif" font-size="14.00" fill="#000000">io_rgbled_0</text>
<polyline fill="none" stroke="#000000" points="874.4578,-313.5 972.4578,-313.5 "/>
<text text-anchor="middle" x="923.4578" y="-296.3" font-family="Times,serif" font-size="14.00" fill="#000000">io_rgbled_1</text>
<polyline fill="none" stroke="#000000" points="874.4578,-286.5 972.4578,-286.5 "/>
<text text-anchor="middle" x="923.4578" y="-269.3" font-family="Times,serif" font-size="14.00" fill="#000000">io_rgbled_2</text>
<polyline fill="none" stroke="#000000" points="874.4578,-259.5 972.4578,-259.5 "/>
<text text-anchor="middle" x="923.4578" y="-242.3" font-family="Times,serif" font-size="14.00" fill="#000000">io_rgbled_3</text>
<polyline fill="none" stroke="#000000" points="874.4578,-232.5 972.4578,-232.5 "/>
<text text-anchor="middle" x="923.4578" y="-215.3" font-family="Times,serif" font-size="14.00" fill="#000000">io_spi_miso</text>
</g>
<!-- n13&#45;&gt;c30 -->
<g id="edge7" class="edge">
<title>n13:e&#45;&gt;c30:w</title>
<path fill="none" stroke="#66a61e" d="M605.1712,-502C628.3165,-502 634.0942,-489.1637 645.4578,-469 671.3867,-422.9913 630.974,-243.2469 671.5231,-219.5775"/>
<polygon fill="#66a61e" stroke="#66a61e" points="672.6573,-222.8993 681.4578,-217 670.8993,-216.1236 672.6573,-222.8993"/>
</g>
<!-- n14 -->
<g id="node14" class="node">
<title>n14</title>
<polygon fill="none" stroke="#000000" points="106.0137,-569.5442 106.0137,-584.4558 84.2978,-595 53.5868,-595 31.8708,-584.4558 31.8708,-569.5442 53.5868,-559 84.2978,-559 106.0137,-569.5442"/>
<text text-anchor="middle" x="68.9423" y="-573.3" font-family="Times,serif" font-size="14.00" fill="#000000">clock</text>
</g>
<!-- n14&#45;&gt;c30 -->
<g id="edge8" class="edge">
<title>n14:e&#45;&gt;c30:w</title>
<path fill="none" stroke="#d95f02" d="M105.9423,-577C136.2987,-577 143.6641,-572.8703 173.8845,-570 226.2436,-565.027 606.1518,-563.9463 645.4578,-529 701.5941,-479.0901 612.0626,-366.7033 671.1443,-355.847"/>
<polygon fill="#d95f02" stroke="#d95f02" points="671.7779,-359.3069 681.4578,-355 671.2048,-352.3304 671.7779,-359.3069"/>
</g>
<!-- x0 -->
<g id="node29" class="node">
<title>x0</title>
<path fill="none" stroke="#000000" d="M239.3845,-615C239.3845,-615 209.3845,-615 209.3845,-615 203.3845,-615 197.3845,-609 197.3845,-603 197.3845,-603 197.3845,-591 197.3845,-591 197.3845,-585 203.3845,-579 209.3845,-579 209.3845,-579 239.3845,-579 239.3845,-579 245.3845,-579 251.3845,-585 251.3845,-591 251.3845,-591 251.3845,-603 251.3845,-603 251.3845,-609 245.3845,-615 239.3845,-615"/>
<text text-anchor="middle" x="224.3845" y="-593.3" font-family="Times,serif" font-size="14.00" fill="#000000">BUF</text>
</g>
<!-- n14&#45;&gt;x0 -->
<g id="edge9" class="edge">
<title>n14:e&#45;&gt;x0:w</title>
<path fill="none" stroke="#d95f02" d="M105.9423,-577C143.9688,-577 154.1204,-593.7102 187.3559,-596.5823"/>
<polygon fill="#d95f02" stroke="#d95f02" points="187.2475,-600.0807 197.3845,-597 187.5389,-593.0868 187.2475,-600.0807"/>
</g>
<!-- n15 -->
<g id="node15" class="node">
<title>n15</title>
<polygon fill="none" stroke="#000000" points="111.3624,-421.5442 111.3624,-436.4558 86.5133,-447 51.3713,-447 26.5221,-436.4558 26.5221,-421.5442 51.3713,-411 86.5133,-411 111.3624,-421.5442"/>
<text text-anchor="middle" x="68.9423" y="-425.3" font-family="Times,serif" font-size="14.00" fill="#000000">io_btn</text>
</g>
<!-- n15&#45;&gt;c30 -->
<g id="edge10" class="edge">
<title>n15:e&#45;&gt;c30:w</title>
<path fill="none" stroke="#666666" stroke-width="3" d="M111.9423,-429C139.6474,-429 146.2232,-434.442 173.8845,-436 278.5128,-441.8932 560.0937,-496.7846 645.4578,-436 682.0334,-409.9559 640.577,-344.0898 671.3658,-333.4589"/>
<polygon fill="#666666" stroke="#666666" stroke-width="3" points="672.0614,-336.8948 681.4578,-332 671.0599,-329.9668 672.0614,-336.8948"/>
</g>
<!-- x1 -->
<g id="node30" class="node">
<title>x1</title>
<path fill="none" stroke="#000000" d="M239.3845,-427C239.3845,-427 209.3845,-427 209.3845,-427 203.3845,-427 197.3845,-421 197.3845,-415 197.3845,-415 197.3845,-403 197.3845,-403 197.3845,-397 203.3845,-391 209.3845,-391 209.3845,-391 239.3845,-391 239.3845,-391 245.3845,-391 251.3845,-397 251.3845,-403 251.3845,-403 251.3845,-415 251.3845,-415 251.3845,-421 245.3845,-427 239.3845,-427"/>
<text text-anchor="middle" x="224.3845" y="-405.3" font-family="Times,serif" font-size="14.00" fill="#000000">BUF</text>
</g>
<!-- n15&#45;&gt;x1 -->
<g id="edge11" class="edge">
<title>n15:e&#45;&gt;x1:w</title>
<path fill="none" stroke="#666666" stroke-width="3" d="M111.9423,-429C147.2867,-429 156.7112,-412.5742 187.1957,-409.4944"/>
<polygon fill="#666666" stroke="#666666" stroke-width="3" points="187.5659,-412.9806 197.3845,-409 187.2266,-405.9889 187.5659,-412.9806"/>
</g>
<!-- n16 -->
<g id="node16" class="node">
<title>n16</title>
<polygon fill="none" stroke="#000000" points="1580.4177,-414.5442 1580.4177,-429.4558 1556.6312,-440 1522.992,-440 1499.2055,-429.4558 1499.2055,-414.5442 1522.992,-404 1556.6312,-404 1580.4177,-414.5442"/>
<text text-anchor="middle" x="1539.8116" y="-418.3" font-family="Times,serif" font-size="14.00" fill="#000000">io_led</text>
</g>
<!-- n17 -->
<g id="node17" class="node">
<title>n17</title>
<polygon fill="none" stroke="#000000" points="1608.6962,-360.5442 1608.6962,-375.4558 1568.3445,-386 1511.2787,-386 1470.927,-375.4558 1470.927,-360.5442 1511.2787,-350 1568.3445,-350 1608.6962,-360.5442"/>
<text text-anchor="middle" x="1539.8116" y="-364.3" font-family="Times,serif" font-size="14.00" fill="#000000">io_rgbled_0</text>
</g>
<!-- n18 -->
<g id="node18" class="node">
<title>n18</title>
<polygon fill="none" stroke="#000000" points="1608.6962,-306.5442 1608.6962,-321.4558 1568.3445,-332 1511.2787,-332 1470.927,-321.4558 1470.927,-306.5442 1511.2787,-296 1568.3445,-296 1608.6962,-306.5442"/>
<text text-anchor="middle" x="1539.8116" y="-310.3" font-family="Times,serif" font-size="14.00" fill="#000000">io_rgbled_1</text>
</g>
<!-- n19 -->
<g id="node19" class="node">
<title>n19</title>
<polygon fill="none" stroke="#000000" points="1608.6962,-252.5442 1608.6962,-267.4558 1568.3445,-278 1511.2787,-278 1470.927,-267.4558 1470.927,-252.5442 1511.2787,-242 1568.3445,-242 1608.6962,-252.5442"/>
<text text-anchor="middle" x="1539.8116" y="-256.3" font-family="Times,serif" font-size="14.00" fill="#000000">io_rgbled_2</text>
</g>
<!-- n20 -->
<g id="node20" class="node">
<title>n20</title>
<polygon fill="none" stroke="#000000" points="1608.6962,-198.5442 1608.6962,-213.4558 1568.3445,-224 1511.2787,-224 1470.927,-213.4558 1470.927,-198.5442 1511.2787,-188 1568.3445,-188 1608.6962,-198.5442"/>
<text text-anchor="middle" x="1539.8116" y="-202.3" font-family="Times,serif" font-size="14.00" fill="#000000">io_rgbled_3</text>
</g>
<!-- n21 -->
<g id="node21" class="node">
<title>n21</title>
<polygon fill="none" stroke="#000000" points="128.1292,-324.5442 128.1292,-339.4558 93.4583,-350 44.4263,-350 9.7554,-339.4558 9.7554,-324.5442 44.4263,-314 93.4583,-314 128.1292,-324.5442"/>
<text text-anchor="middle" x="68.9423" y="-328.3" font-family="Times,serif" font-size="14.00" fill="#000000">io_spi_clk</text>
</g>
<!-- n21&#45;&gt;c30 -->
<g id="edge18" class="edge">
<title>n21:e&#45;&gt;c30:w</title>
<path fill="none" stroke="#1b9e77" d="M127.9423,-332C148.4383,-332 153.428,-329.2726 173.8845,-328 395.7846,-314.1953 453.962,-309.1529 671.3218,-309.0034"/>
<polygon fill="#1b9e77" stroke="#1b9e77" points="671.459,-312.5035 681.4578,-309 671.4566,-305.5035 671.459,-312.5035"/>
</g>
<!-- x2 -->
<g id="node31" class="node">
<title>x2</title>
<path fill="none" stroke="#000000" d="M239.3845,-373C239.3845,-373 209.3845,-373 209.3845,-373 203.3845,-373 197.3845,-367 197.3845,-361 197.3845,-361 197.3845,-349 197.3845,-349 197.3845,-343 203.3845,-337 209.3845,-337 209.3845,-337 239.3845,-337 239.3845,-337 245.3845,-337 251.3845,-343 251.3845,-349 251.3845,-349 251.3845,-361 251.3845,-361 251.3845,-367 245.3845,-373 239.3845,-373"/>
<text text-anchor="middle" x="224.3845" y="-351.3" font-family="Times,serif" font-size="14.00" fill="#000000">BUF</text>
</g>
<!-- n21&#45;&gt;x2 -->
<g id="edge19" class="edge">
<title>n21:e&#45;&gt;x2:w</title>
<path fill="none" stroke="#1b9e77" d="M127.9423,-332C156.7713,-332 163.511,-350.0842 187.3354,-354.1814"/>
<polygon fill="#1b9e77" stroke="#1b9e77" points="187.1334,-357.6765 197.3845,-355 187.7017,-350.6996 187.1334,-357.6765"/>
</g>
<!-- n22 -->
<g id="node22" class="node">
<title>n22</title>
<polygon fill="none" stroke="#000000" points="135.6063,-240.5442 135.6063,-255.4558 96.5554,-266 41.3291,-266 2.2783,-255.4558 2.2783,-240.5442 41.3291,-230 96.5554,-230 135.6063,-240.5442"/>
<text text-anchor="middle" x="68.9423" y="-244.3" font-family="Times,serif" font-size="14.00" fill="#000000">io_spi_cs_n</text>
</g>
<!-- n22&#45;&gt;c30 -->
<g id="edge20" class="edge">
<title>n22:e&#45;&gt;c30:w</title>
<path fill="none" stroke="#666666" d="M135.9423,-248C152.8989,-248 156.9905,-250.5442 173.8845,-252 395.7337,-271.1174 453.6234,-285.5572 671.3064,-285.99"/>
<polygon fill="#666666" stroke="#666666" points="671.4543,-289.4901 681.4578,-286 671.4613,-282.4901 671.4543,-289.4901"/>
</g>
<!-- x3 -->
<g id="node32" class="node">
<title>x3</title>
<path fill="none" stroke="#000000" d="M239.3845,-243C239.3845,-243 209.3845,-243 209.3845,-243 203.3845,-243 197.3845,-237 197.3845,-231 197.3845,-231 197.3845,-219 197.3845,-219 197.3845,-213 203.3845,-207 209.3845,-207 209.3845,-207 239.3845,-207 239.3845,-207 245.3845,-207 251.3845,-213 251.3845,-219 251.3845,-219 251.3845,-231 251.3845,-231 251.3845,-237 245.3845,-243 239.3845,-243"/>
<text text-anchor="middle" x="224.3845" y="-221.3" font-family="Times,serif" font-size="14.00" fill="#000000">BUF</text>
</g>
<!-- n22&#45;&gt;x3 -->
<g id="edge21" class="edge">
<title>n22:e&#45;&gt;x3:w</title>
<path fill="none" stroke="#666666" d="M135.9423,-248C161.3418,-248 166.9878,-230.5475 187.2947,-226.048"/>
<polygon fill="#666666" stroke="#666666" points="187.7997,-229.5145 197.3845,-225 187.0764,-222.552 187.7997,-229.5145"/>
</g>
<!-- n23 -->
<g id="node23" class="node">
<title>n23</title>
<polygon fill="none" stroke="#000000" points="1608.6962,-144.5442 1608.6962,-159.4558 1568.3445,-170 1511.2787,-170 1470.927,-159.4558 1470.927,-144.5442 1511.2787,-134 1568.3445,-134 1608.6962,-144.5442"/>
<text text-anchor="middle" x="1539.8116" y="-148.3" font-family="Times,serif" font-size="14.00" fill="#000000">io_spi_miso</text>
</g>
<!-- n24 -->
<g id="node24" class="node">
<title>n24</title>
<polygon fill="none" stroke="#000000" points="137.8268,-132.5442 137.8268,-147.4558 97.4752,-158 40.4093,-158 .0577,-147.4558 .0577,-132.5442 40.4093,-122 97.4752,-122 137.8268,-132.5442"/>
<text text-anchor="middle" x="68.9423" y="-136.3" font-family="Times,serif" font-size="14.00" fill="#000000">io_spi_mosi</text>
</g>
<!-- n24&#45;&gt;c30 -->
<g id="edge23" class="edge">
<title>n24:e&#45;&gt;c30:w</title>
<path fill="none" stroke="#7570b3" d="M137.8845,-140C250.6821,-140 555.1489,-76.416 645.4578,-144 686.5867,-174.7795 634.5981,-251.1823 671.4847,-261.7743"/>
<polygon fill="#7570b3" stroke="#7570b3" points="671.1055,-265.2539 681.4578,-263 671.9594,-258.3062 671.1055,-265.2539"/>
</g>
<!-- x4 -->
<g id="node33" class="node">
<title>x4</title>
<path fill="none" stroke="#000000" d="M239.3845,-189C239.3845,-189 209.3845,-189 209.3845,-189 203.3845,-189 197.3845,-183 197.3845,-177 197.3845,-177 197.3845,-165 197.3845,-165 197.3845,-159 203.3845,-153 209.3845,-153 209.3845,-153 239.3845,-153 239.3845,-153 245.3845,-153 251.3845,-159 251.3845,-165 251.3845,-165 251.3845,-177 251.3845,-177 251.3845,-183 245.3845,-189 239.3845,-189"/>
<text text-anchor="middle" x="224.3845" y="-167.3" font-family="Times,serif" font-size="14.00" fill="#000000">BUF</text>
</g>
<!-- n24&#45;&gt;x4 -->
<g id="edge24" class="edge">
<title>n24:e&#45;&gt;x4:w</title>
<path fill="none" stroke="#7570b3" d="M137.8845,-140C163.8591,-140 167.1037,-163.5229 187.2182,-169.5874"/>
<polygon fill="#7570b3" stroke="#7570b3" points="186.998,-173.0904 197.3845,-171 187.9614,-166.157 186.998,-173.0904"/>
</g>
<!-- n25 -->
<g id="node25" class="node">
<title>n25</title>
<polygon fill="none" stroke="#000000" points="108.2337,-63.5442 108.2337,-78.4558 85.2173,-89 52.6672,-89 29.6508,-78.4558 29.6508,-63.5442 52.6672,-53 85.2173,-53 108.2337,-63.5442"/>
<text text-anchor="middle" x="68.9423" y="-67.3" font-family="Times,serif" font-size="14.00" fill="#000000">io_sw</text>
</g>
<!-- n25&#45;&gt;c30 -->
<g id="edge25" class="edge">
<title>n25:e&#45;&gt;c30:w</title>
<path fill="none" stroke="#d95f02" stroke-width="3" d="M107.9423,-71C167.8075,-71 599.159,-70.0491 645.4578,-108 689.4555,-144.0648 629.415,-228.1817 671.2855,-238.8751"/>
<polygon fill="#d95f02" stroke="#d95f02" stroke-width="3" points="671.1336,-242.3795 681.4578,-240 671.9031,-235.422 671.1336,-242.3795"/>
</g>
<!-- x5 -->
<g id="node34" class="node">
<title>x5</title>
<path fill="none" stroke="#000000" d="M239.3845,-59C239.3845,-59 209.3845,-59 209.3845,-59 203.3845,-59 197.3845,-53 197.3845,-47 197.3845,-47 197.3845,-35 197.3845,-35 197.3845,-29 203.3845,-23 209.3845,-23 209.3845,-23 239.3845,-23 239.3845,-23 245.3845,-23 251.3845,-29 251.3845,-35 251.3845,-35 251.3845,-47 251.3845,-47 251.3845,-53 245.3845,-59 239.3845,-59"/>
<text text-anchor="middle" x="224.3845" y="-37.3" font-family="Times,serif" font-size="14.00" fill="#000000">BUF</text>
</g>
<!-- n25&#45;&gt;x5 -->
<g id="edge26" class="edge">
<title>n25:e&#45;&gt;x5:w</title>
<path fill="none" stroke="#d95f02" stroke-width="3" d="M107.9423,-71C146.2676,-71 154.2276,-45.9347 187.3339,-41.6266"/>
<polygon fill="#d95f02" stroke="#d95f02" stroke-width="3" points="187.6217,-45.1155 197.3845,-41 187.1861,-38.1291 187.6217,-45.1155"/>
</g>
<!-- n26 -->
<g id="node26" class="node">
<title>n26</title>
<polygon fill="none" stroke="#000000" points="106.0137,-495.5442 106.0137,-510.4558 84.2978,-521 53.5868,-521 31.8708,-510.4558 31.8708,-495.5442 53.5868,-485 84.2978,-485 106.0137,-495.5442"/>
<text text-anchor="middle" x="68.9423" y="-499.3" font-family="Times,serif" font-size="14.00" fill="#000000">reset</text>
</g>
<!-- c29 -->
<g id="node27" class="node">
<title>c29</title>
<polygon fill="none" stroke="#000000" points="173.8845,-484 173.8845,-522 274.8845,-522 274.8845,-484 173.8845,-484"/>
<text text-anchor="middle" x="186.8845" y="-499.3" font-family="Times,serif" font-size="14.00" fill="#000000">A</text>
<polyline fill="none" stroke="#000000" points="199.8845,-484 199.8845,-522 "/>
<text text-anchor="middle" x="224.3845" y="-506.8" font-family="Times,serif" font-size="14.00" fill="#000000">$93</text>
<text text-anchor="middle" x="224.3845" y="-491.8" font-family="Times,serif" font-size="14.00" fill="#000000">$not</text>
<polyline fill="none" stroke="#000000" points="248.8845,-484 248.8845,-522 "/>
<text text-anchor="middle" x="261.8845" y="-499.3" font-family="Times,serif" font-size="14.00" fill="#000000">Y</text>
</g>
<!-- n26&#45;&gt;c29 -->
<g id="edge27" class="edge">
<title>n26:e&#45;&gt;c29:w</title>
<path fill="none" stroke="#a6761d" d="M105.9423,-503C132.4822,-503 141.5276,-503 163.8305,-503"/>
<polygon fill="#a6761d" stroke="#a6761d" points="163.8846,-506.5001 173.8845,-503 163.8845,-499.5001 163.8846,-506.5001"/>
</g>
<!-- c29&#45;&gt;n13 -->
<g id="edge6" class="edge">
<title>c29:e&#45;&gt;n13:w</title>
<path fill="none" stroke="#66a61e" d="M274.8845,-503C305.0839,-503 315.1059,-502.2068 340.8914,-502.0333"/>
<polygon fill="#66a61e" stroke="#66a61e" points="341.1826,-505.5324 351.1712,-502 341.1598,-498.5325 341.1826,-505.5324"/>
</g>
<!-- c30&#45;&gt;n3 -->
<g id="edge28" class="edge">
<title>c30:e&#45;&gt;n3:w</title>
<path fill="none" stroke="#a6761d" stroke-width="3" d="M972.4578,-354C996.7075,-354 990.6404,-378.5504 1008.4578,-395 1020.2107,-405.8507 1023.4767,-416.5534 1034.4761,-420.4536"/>
<polygon fill="#a6761d" stroke="#a6761d" stroke-width="3" points="1034.2515,-423.9595 1044.6636,-422 1035.3021,-417.0388 1034.2515,-423.9595"/>
</g>
<!-- c30&#45;&gt;n4 -->
<g id="edge30" class="edge">
<title>c30:e&#45;&gt;n4:w</title>
<path fill="none" stroke="#e7298a" stroke-width="3" d="M972.4578,-327C992.5896,-327 987.536,-355.1174 999.0103,-364.7828"/>
<polygon fill="#e7298a" stroke="#e7298a" stroke-width="3" points="998.0699,-368.1586 1008.6636,-368 1000.2832,-361.5177 998.0699,-368.1586"/>
</g>
<!-- c30&#45;&gt;n5 -->
<g id="edge32" class="edge">
<title>c30:e&#45;&gt;n5:w</title>
<path fill="none" stroke="#e7298a" stroke-width="3" d="M972.4578,-300C985.6668,-300 989.7595,-308.2065 998.6953,-312.0534"/>
<polygon fill="#e7298a" stroke="#e7298a" stroke-width="3" points="998.1781,-315.5184 1008.6636,-314 999.5198,-308.6482 998.1781,-315.5184"/>
</g>
<!-- c30&#45;&gt;n6 -->
<g id="edge34" class="edge">
<title>c30:e&#45;&gt;n6:w</title>
<path fill="none" stroke="#e7298a" stroke-width="3" d="M972.4578,-273C985.5479,-273 989.7948,-265.3796 998.7397,-261.8076"/>
<polygon fill="#e7298a" stroke="#e7298a" stroke-width="3" points="999.4526,-265.2354 1008.6636,-260 998.1982,-258.3487 999.4526,-265.2354"/>
</g>
<!-- c30&#45;&gt;n7 -->
<g id="edge36" class="edge">
<title>c30:e&#45;&gt;n7:w</title>
<path fill="none" stroke="#a6761d" stroke-width="3" d="M972.4578,-246C992.3152,-246 987.6689,-218.5684 999.1032,-209.1387"/>
<polygon fill="#a6761d" stroke="#a6761d" stroke-width="3" points="1000.2543,-212.4447 1008.6636,-206 998.0707,-205.794 1000.2543,-212.4447"/>
</g>
<!-- c30&#45;&gt;n10 -->
<g id="edge2" class="edge">
<title>c30:e&#45;&gt;n10:w</title>
<path fill="none" stroke="#e7298a" d="M972.4578,-219C1002.2612,-219 982.3163,-167.7031 999.6827,-154.8789"/>
<polygon fill="#e7298a" stroke="#e7298a" points="1001.0253,-158.1344 1009.6636,-152 999.0852,-151.4086 1001.0253,-158.1344"/>
</g>
<!-- x0&#45;&gt;n1 -->
<g id="edge1" class="edge">
<title>x0:e&#45;&gt;n1:w</title>
<path fill="none" stroke="#e7298a" d="M251.3845,-597C292.5041,-597 305.3138,-597 341.7887,-597"/>
<polygon fill="#e7298a" stroke="#e7298a" points="342.1712,-600.5001 352.1712,-597 342.1711,-593.5001 342.1712,-600.5001"/>
</g>
<!-- x1&#45;&gt;n2 -->
<g id="edge16" class="edge">
<title>x1:e&#45;&gt;n2:w</title>
<path fill="none" stroke="#7570b3" stroke-width="3" d="M251.3845,-409C289.4853,-409 301.4663,-409 335.0777,-409"/>
<polygon fill="#7570b3" stroke="#7570b3" stroke-width="3" points="335.1712,-412.5001 345.1712,-409 335.1711,-405.5001 335.1712,-412.5001"/>
</g>
<!-- x2&#45;&gt;n8 -->
<g id="edge38" class="edge">
<title>x2:e&#45;&gt;n8:w</title>
<path fill="none" stroke="#d95f02" d="M251.3845,-355C279.5508,-355 289.0679,-355 312.8633,-355"/>
<polygon fill="#d95f02" stroke="#d95f02" points="313.1712,-358.5001 323.1712,-355 313.1711,-351.5001 313.1712,-358.5001"/>
</g>
<!-- x3&#45;&gt;n9 -->
<g id="edge39" class="edge">
<title>x3:e&#45;&gt;n9:w</title>
<path fill="none" stroke="#a6761d" d="M251.3845,-225C275.0909,-225 283.4483,-225 302.9576,-225"/>
<polygon fill="#a6761d" stroke="#a6761d" points="303.1712,-228.5001 313.1712,-225 303.1711,-221.5001 303.1712,-228.5001"/>
</g>
<!-- x4&#45;&gt;n11 -->
<g id="edge4" class="edge">
<title>x4:e&#45;&gt;n11:w</title>
<path fill="none" stroke="#7570b3" d="M251.3845,-171C274.2197,-171 282.3369,-171 301.0326,-171"/>
<polygon fill="#7570b3" stroke="#7570b3" points="301.1712,-174.5001 311.1712,-171 301.1711,-167.5001 301.1712,-174.5001"/>
</g>
<!-- x5&#45;&gt;n12 -->
<g id="edge5" class="edge">
<title>x5:e&#45;&gt;n12:w</title>
<path fill="none" stroke="#e6ab02" stroke-width="3" d="M251.3845,-41C291.2801,-41 303.7085,-41 339.0978,-41"/>
<polygon fill="#e6ab02" stroke="#e6ab02" stroke-width="3" points="339.1712,-44.5001 349.1712,-41 339.1711,-37.5001 339.1712,-44.5001"/>
</g>
<!-- x6&#45;&gt;n16 -->
<g id="edge12" class="edge">
<title>x6:e&#45;&gt;n16:w</title>
<path fill="none" stroke="#7570b3" stroke-width="3" d="M1434.8693,-422C1459.6248,-422 1468.207,-422 1488.7927,-422"/>
<polygon fill="#7570b3" stroke="#7570b3" stroke-width="3" points="1488.8116,-425.5001 1498.8116,-422 1488.8116,-418.5001 1488.8116,-425.5001"/>
</g>
<!-- x7&#45;&gt;n17 -->
<g id="edge13" class="edge">
<title>x7:e&#45;&gt;n17:w</title>
<path fill="none" stroke="#1b9e77" stroke-width="3" d="M1434.8693,-368C1446.8693,-368 1452.1193,-368 1460.7443,-368"/>
<polygon fill="#1b9e77" stroke="#1b9e77" stroke-width="3" points="1460.8694,-371.5001 1470.8693,-368 1460.8693,-364.5001 1460.8694,-371.5001"/>
</g>
<!-- x8&#45;&gt;n18 -->
<g id="edge14" class="edge">
<title>x8:e&#45;&gt;n18:w</title>
<path fill="none" stroke="#e6ab02" stroke-width="3" d="M1434.8693,-314C1446.8693,-314 1452.1193,-314 1460.7443,-314"/>
<polygon fill="#e6ab02" stroke="#e6ab02" stroke-width="3" points="1460.8694,-317.5001 1470.8693,-314 1460.8693,-310.5001 1460.8694,-317.5001"/>
</g>
<!-- x9&#45;&gt;n19 -->
<g id="edge15" class="edge">
<title>x9:e&#45;&gt;n19:w</title>
<path fill="none" stroke="#a6761d" stroke-width="3" d="M1434.8693,-260C1446.8693,-260 1452.1193,-260 1460.7443,-260"/>
<polygon fill="#a6761d" stroke="#a6761d" stroke-width="3" points="1460.8694,-263.5001 1470.8693,-260 1460.8693,-256.5001 1460.8694,-263.5001"/>
</g>
<!-- x10&#45;&gt;n20 -->
<g id="edge17" class="edge">
<title>x10:e&#45;&gt;n20:w</title>
<path fill="none" stroke="#e7298a" stroke-width="3" d="M1434.8693,-206C1446.8693,-206 1452.1193,-206 1460.7443,-206"/>
<polygon fill="#e7298a" stroke="#e7298a" stroke-width="3" points="1460.8694,-209.5001 1470.8693,-206 1460.8693,-202.5001 1460.8694,-209.5001"/>
</g>
<!-- x11&#45;&gt;n23 -->
<g id="edge22" class="edge">
<title>x11:e&#45;&gt;n23:w</title>
<path fill="none" stroke="#7570b3" d="M1434.8693,-152C1446.8693,-152 1452.1193,-152 1460.7443,-152"/>
<polygon fill="#7570b3" stroke="#7570b3" points="1460.8694,-155.5001 1470.8693,-152 1460.8693,-148.5001 1460.8694,-155.5001"/>
</g>
</g>
</svg>
