<?xml version="1.0" encoding="UTF-8" standalone="no"?>
<!DOCTYPE svg PUBLIC "-//W3C//DTD SVG 1.1//EN"
 "http://www.w3.org/Graphics/SVG/1.1/DTD/svg11.dtd">
<!-- Generated by graphviz version 2.43.20190912.0211 (20190912.0211)
 -->
<!-- Title: Triangle Pages: 1 -->
<svg width="2781pt" height="899pt"
 viewBox="0.00 0.00 2780.56 899.13" xmlns="http://www.w3.org/2000/svg" xmlns:xlink="http://www.w3.org/1999/xlink">
<g id="graph0" class="graph" transform="scale(1 1) rotate(0) translate(4 895.13)">
<title>Triangle</title>
<polygon fill="white" stroke="transparent" points="-4,4 -4,-895.13 2776.56,-895.13 2776.56,4 -4,4"/>
<text text-anchor="middle" x="1386.28" y="-7.8" font-family="Times,serif" font-size="14.00">Triangle</text>
<!-- n1 -->
<g id="node1" class="node">
<title>n1</title>
<polygon fill="none" stroke="black" points="492.15,-422.5 424.95,-404.5 492.15,-386.5 559.34,-404.5 492.15,-422.5"/>
<text text-anchor="middle" x="492.15" y="-400.8" font-family="Times,serif" font-size="14.00">_GEN_1</text>
</g>
<!-- n2 -->
<g id="node2" class="node">
<title>n2</title>
<polygon fill="none" stroke="black" points="943.13,-772.5 875.93,-754.5 943.13,-736.5 1010.32,-754.5 943.13,-772.5"/>
<text text-anchor="middle" x="943.13" y="-750.8" font-family="Times,serif" font-size="14.00">_GEN_2</text>
</g>
<!-- n3 -->
<g id="node3" class="node">
<title>n3</title>
<polygon fill="none" stroke="black" points="492.15,-359.5 424.95,-341.5 492.15,-323.5 559.34,-341.5 492.15,-359.5"/>
<text text-anchor="middle" x="492.15" y="-337.8" font-family="Times,serif" font-size="14.00">_GEN_5</text>
</g>
<!-- n4 -->
<g id="node4" class="node">
<title>n4</title>
<polygon fill="none" stroke="black" points="492.15,-294.5 424.95,-276.5 492.15,-258.5 559.34,-276.5 492.15,-294.5"/>
<text text-anchor="middle" x="492.15" y="-272.8" font-family="Times,serif" font-size="14.00">_GEN_6</text>
</g>
<!-- n5 -->
<g id="node5" class="node">
<title>n5</title>
<polygon fill="none" stroke="black" points="492.15,-229.5 424.95,-211.5 492.15,-193.5 559.34,-211.5 492.15,-229.5"/>
<text text-anchor="middle" x="492.15" y="-207.8" font-family="Times,serif" font-size="14.00">_GEN_8</text>
</g>
<!-- n6 -->
<g id="node6" class="node">
<title>n6</title>
<polygon fill="none" stroke="black" points="647.64,-769.5 595.35,-751.5 647.64,-733.5 699.92,-751.5 647.64,-769.5"/>
<text text-anchor="middle" x="647.64" y="-747.8" font-family="Times,serif" font-size="14.00">_T_19</text>
</g>
<!-- c32 -->
<g id="node34" class="node">
<title>c32</title>
<polygon fill="none" stroke="black" points="739.53,-625.5 739.53,-671.5 836.53,-671.5 836.53,-625.5 739.53,-625.5"/>
<text text-anchor="middle" x="753.03" y="-656.3" font-family="Times,serif" font-size="14.00">A</text>
<polyline fill="none" stroke="black" points="739.53,-648.5 766.53,-648.5 "/>
<text text-anchor="middle" x="753.03" y="-633.3" font-family="Times,serif" font-size="14.00">B</text>
<polyline fill="none" stroke="black" points="766.53,-625.5 766.53,-671.5 "/>
<text text-anchor="middle" x="788.53" y="-652.3" font-family="Times,serif" font-size="14.00">$69</text>
<text text-anchor="middle" x="788.53" y="-637.3" font-family="Times,serif" font-size="14.00">$gt</text>
<polyline fill="none" stroke="black" points="810.53,-625.5 810.53,-671.5 "/>
<text text-anchor="middle" x="823.53" y="-644.8" font-family="Times,serif" font-size="14.00">Y</text>
</g>
<!-- n6&#45;&gt;c32 -->
<g id="edge63" class="edge">
<title>n6:e&#45;&gt;c32:w</title>
<path fill="none" stroke="#7570b3" stroke-width="3" d="M700.03,-751.5C749.86,-751.5 693.86,-652.94 727.98,-638.31"/>
<polygon fill="#7570b3" stroke="#7570b3" stroke-width="3" points="728.81,-641.71 738.03,-636.5 727.57,-634.83 728.81,-641.71"/>
</g>
<!-- c34 -->
<g id="node37" class="node">
<title>c34</title>
<polygon fill="none" stroke="black" points="736.03,-796.5 736.03,-842.5 840.03,-842.5 840.03,-796.5 736.03,-796.5"/>
<text text-anchor="middle" x="749.53" y="-827.3" font-family="Times,serif" font-size="14.00">A</text>
<polyline fill="none" stroke="black" points="736.03,-819.5 763.03,-819.5 "/>
<text text-anchor="middle" x="749.53" y="-804.3" font-family="Times,serif" font-size="14.00">B</text>
<polyline fill="none" stroke="black" points="763.03,-796.5 763.03,-842.5 "/>
<text text-anchor="middle" x="788.53" y="-823.3" font-family="Times,serif" font-size="14.00">$70</text>
<text text-anchor="middle" x="788.53" y="-808.3" font-family="Times,serif" font-size="14.00">$sub</text>
<polyline fill="none" stroke="black" points="814.03,-796.5 814.03,-842.5 "/>
<text text-anchor="middle" x="827.03" y="-815.8" font-family="Times,serif" font-size="14.00">Y</text>
</g>
<!-- n6&#45;&gt;c34 -->
<g id="edge64" class="edge">
<title>n6:e&#45;&gt;c34:w</title>
<path fill="none" stroke="#7570b3" stroke-width="3" d="M700.03,-751.5C725.46,-751.5 711.92,-792.86 726.38,-804.49"/>
<polygon fill="#7570b3" stroke="#7570b3" stroke-width="3" points="725.44,-807.86 736.03,-807.5 727.53,-801.18 725.44,-807.86"/>
</g>
<!-- x9 -->
<g id="node44" class="node">
<title>x9</title>
<path fill="none" stroke="black" d="M753.53,-731.5C753.53,-731.5 822.53,-731.5 822.53,-731.5 828.53,-731.5 834.53,-737.5 834.53,-743.5 834.53,-743.5 834.53,-765.5 834.53,-765.5 834.53,-771.5 828.53,-777.5 822.53,-777.5 822.53,-777.5 753.53,-777.5 753.53,-777.5 747.53,-777.5 741.53,-771.5 741.53,-765.5 741.53,-765.5 741.53,-743.5 741.53,-743.5 741.53,-737.5 747.53,-731.5 753.53,-731.5"/>
<text text-anchor="middle" x="788.03" y="-762.3" font-family="Times,serif" font-size="14.00">0 &#45;&gt; 31:31</text>
<polyline fill="none" stroke="black" points="741.53,-754.5 834.53,-754.5 "/>
<text text-anchor="middle" x="788.03" y="-739.3" font-family="Times,serif" font-size="14.00">30:0 &#45; 30:0</text>
</g>
<!-- n6&#45;&gt;x9 -->
<g id="edge65" class="edge">
<title>n6:e&#45;&gt;x9:w</title>
<path fill="none" stroke="#7570b3" stroke-width="3" d="M700.03,-751.5C714.26,-751.5 719.55,-746.01 729.87,-743.6"/>
<polygon fill="#7570b3" stroke="#7570b3" stroke-width="3" points="730.47,-747.06 740.03,-742.5 729.71,-740.1 730.47,-747.06"/>
</g>
<!-- n7 -->
<g id="node7" class="node">
<title>n7</title>
<polygon fill="none" stroke="black" points="943.13,-669.5 890.84,-651.5 943.13,-633.5 995.41,-651.5 943.13,-669.5"/>
<text text-anchor="middle" x="943.13" y="-647.8" font-family="Times,serif" font-size="14.00">_T_20</text>
</g>
<!-- c38 -->
<g id="node42" class="node">
<title>c38</title>
<polygon fill="none" stroke="black" points="1046.23,-643 1046.23,-712 1155.23,-712 1155.23,-643 1046.23,-643"/>
<text text-anchor="middle" x="1059.73" y="-696.8" font-family="Times,serif" font-size="14.00">A</text>
<polyline fill="none" stroke="black" points="1046.23,-689 1073.23,-689 "/>
<text text-anchor="middle" x="1059.73" y="-673.8" font-family="Times,serif" font-size="14.00">B</text>
<polyline fill="none" stroke="black" points="1046.23,-666 1073.23,-666 "/>
<text text-anchor="middle" x="1059.73" y="-650.8" font-family="Times,serif" font-size="14.00">S</text>
<polyline fill="none" stroke="black" points="1073.23,-643 1073.23,-712 "/>
<text text-anchor="middle" x="1101.23" y="-681.3" font-family="Times,serif" font-size="14.00">$73</text>
<text text-anchor="middle" x="1101.23" y="-666.3" font-family="Times,serif" font-size="14.00">$mux</text>
<polyline fill="none" stroke="black" points="1129.23,-643 1129.23,-712 "/>
<text text-anchor="middle" x="1142.23" y="-673.8" font-family="Times,serif" font-size="14.00">Y</text>
</g>
<!-- n7&#45;&gt;c38 -->
<g id="edge67" class="edge">
<title>n7:e&#45;&gt;c38:w</title>
<path fill="none" stroke="#d95f02" d="M996.13,-651.5C1014.6,-651.5 1021.54,-653.56 1036.04,-654.26"/>
<polygon fill="#d95f02" stroke="#d95f02" points="1036.15,-657.77 1046.23,-654.5 1036.31,-650.77 1036.15,-657.77"/>
</g>
<!-- n8 -->
<g id="node8" class="node">
<title>n8</title>
<polygon fill="none" stroke="black" points="1243.62,-853.5 1191.33,-835.5 1243.62,-817.5 1295.9,-835.5 1243.62,-853.5"/>
<text text-anchor="middle" x="1243.62" y="-831.8" font-family="Times,serif" font-size="14.00">_T_23</text>
</g>
<!-- x14 -->
<g id="node49" class="node">
<title>x14</title>
<path fill="none" stroke="black" d="M1344.01,-789.5C1344.01,-789.5 1431.01,-789.5 1431.01,-789.5 1437.01,-789.5 1443.01,-795.5 1443.01,-801.5 1443.01,-801.5 1443.01,-823.5 1443.01,-823.5 1443.01,-829.5 1437.01,-835.5 1431.01,-835.5 1431.01,-835.5 1344.01,-835.5 1344.01,-835.5 1338.01,-835.5 1332.01,-829.5 1332.01,-823.5 1332.01,-823.5 1332.01,-801.5 1332.01,-801.5 1332.01,-795.5 1338.01,-789.5 1344.01,-789.5"/>
<text text-anchor="middle" x="1387.51" y="-820.3" font-family="Times,serif" font-size="14.00">32:32 &#45; 32:32</text>
<polyline fill="none" stroke="black" points="1332.01,-812.5 1443.01,-812.5 "/>
<text text-anchor="middle" x="1387.51" y="-797.3" font-family="Times,serif" font-size="14.00">31:0 &#45; 31:0</text>
</g>
<!-- n8&#45;&gt;x14 -->
<g id="edge69" class="edge">
<title>n8:e&#45;&gt;x14:w</title>
<path fill="none" stroke="#1b9e77" d="M1296.01,-835.5C1308.69,-835.5 1313.22,-829.18 1321.95,-826.12"/>
<polygon fill="#1b9e77" stroke="#1b9e77" points="1322.69,-829.55 1332.01,-824.5 1321.58,-822.64 1322.69,-829.55"/>
</g>
<!-- n9 -->
<g id="node9" class="node">
<title>n9</title>
<polygon fill="none" stroke="black" points="1531.4,-830.5 1479.12,-812.5 1531.4,-794.5 1583.69,-812.5 1531.4,-830.5"/>
<text text-anchor="middle" x="1531.4" y="-808.8" font-family="Times,serif" font-size="14.00">_T_24</text>
</g>
<!-- n10 -->
<g id="node10" class="node">
<title>n10</title>
<polygon fill="none" stroke="black" points="943.13,-831.5 890.84,-813.5 943.13,-795.5 995.41,-813.5 943.13,-831.5"/>
<text text-anchor="middle" x="943.13" y="-809.8" font-family="Times,serif" font-size="14.00">_T_25</text>
</g>
<!-- n10&#45;&gt;c38 -->
<g id="edge10" class="edge">
<title>n10:e&#45;&gt;c38:w</title>
<path fill="none" stroke="#1b9e77" stroke-width="3" d="M996.13,-813.5C1056.64,-813.5 990.82,-693.47 1036.04,-678.94"/>
<polygon fill="#1b9e77" stroke="#1b9e77" stroke-width="3" points="1036.81,-682.36 1046.23,-677.5 1035.84,-675.43 1036.81,-682.36"/>
</g>
<!-- x13 -->
<g id="node48" class="node">
<title>x13</title>
<path fill="none" stroke="black" d="M1066.23,-818.5C1066.23,-818.5 1135.23,-818.5 1135.23,-818.5 1141.23,-818.5 1147.23,-824.5 1147.23,-830.5 1147.23,-830.5 1147.23,-842.5 1147.23,-842.5 1147.23,-848.5 1141.23,-854.5 1135.23,-854.5 1135.23,-854.5 1066.23,-854.5 1066.23,-854.5 1060.23,-854.5 1054.23,-848.5 1054.23,-842.5 1054.23,-842.5 1054.23,-830.5 1054.23,-830.5 1054.23,-824.5 1060.23,-818.5 1066.23,-818.5"/>
<text text-anchor="middle" x="1100.73" y="-832.8" font-family="Times,serif" font-size="14.00">31:0 &#45; 31:0</text>
</g>
<!-- n10&#45;&gt;x13 -->
<g id="edge11" class="edge">
<title>n10:e&#45;&gt;x13:w</title>
<path fill="none" stroke="#1b9e77" stroke-width="3" d="M996.13,-813.5C1019.46,-813.5 1024.44,-830.49 1042.61,-835.26"/>
<polygon fill="#1b9e77" stroke="#1b9e77" stroke-width="3" points="1042.37,-838.76 1052.73,-836.5 1043.22,-831.81 1042.37,-838.76"/>
</g>
<!-- n10&#45;&gt;x14 -->
<g id="edge12" class="edge">
<title>n10:e&#45;&gt;x14:w</title>
<path fill="none" stroke="#1b9e77" stroke-width="3" d="M996.13,-813.5C1018.46,-813.5 1023.92,-810.74 1046.23,-809.5 1169.64,-802.63 1203.12,-800.61 1321.79,-800.5"/>
<polygon fill="#1b9e77" stroke="#1b9e77" stroke-width="3" points="1322.01,-804 1332.01,-800.5 1322.01,-797 1322.01,-804"/>
</g>
<!-- n11 -->
<g id="node11" class="node">
<title>n11</title>
<polygon fill="none" stroke="black" points="647.64,-707.5 595.35,-689.5 647.64,-671.5 699.92,-689.5 647.64,-707.5"/>
<text text-anchor="middle" x="647.64" y="-685.8" font-family="Times,serif" font-size="14.00">_T_27</text>
</g>
<!-- n11&#45;&gt;c38 -->
<g id="edge14" class="edge">
<title>n11:e&#45;&gt;c38:w</title>
<path fill="none" stroke="#e6ab02" stroke-width="3" d="M700.03,-689.5C850.51,-689.5 890.5,-700.01 1036.02,-700.48"/>
<polygon fill="#e6ab02" stroke="#e6ab02" stroke-width="3" points="1036.22,-703.98 1046.23,-700.5 1036.23,-696.98 1036.22,-703.98"/>
</g>
<!-- n12 -->
<g id="node12" class="node">
<title>n12</title>
<polygon fill="none" stroke="black" points="1878.08,-741.5 1825.8,-723.5 1878.08,-705.5 1930.37,-723.5 1878.08,-741.5"/>
<text text-anchor="middle" x="1878.08" y="-719.8" font-family="Times,serif" font-size="14.00">_T_28</text>
</g>
<!-- x16 -->
<g id="node51" class="node">
<title>x16</title>
<path fill="none" stroke="black" d="M2044.37,-692.5C2044.37,-692.5 2131.37,-692.5 2131.37,-692.5 2137.37,-692.5 2143.37,-698.5 2143.37,-704.5 2143.37,-704.5 2143.37,-726.5 2143.37,-726.5 2143.37,-732.5 2137.37,-738.5 2131.37,-738.5 2131.37,-738.5 2044.37,-738.5 2044.37,-738.5 2038.37,-738.5 2032.37,-732.5 2032.37,-726.5 2032.37,-726.5 2032.37,-704.5 2032.37,-704.5 2032.37,-698.5 2038.37,-692.5 2044.37,-692.5"/>
<text text-anchor="middle" x="2087.87" y="-723.3" font-family="Times,serif" font-size="14.00">32:32 &#45; 32:32</text>
<polyline fill="none" stroke="black" points="2032.37,-715.5 2143.37,-715.5 "/>
<text text-anchor="middle" x="2087.87" y="-700.3" font-family="Times,serif" font-size="14.00">31:0 &#45; 31:0</text>
</g>
<!-- n12&#45;&gt;x16 -->
<g id="edge16" class="edge">
<title>n12:e&#45;&gt;x16:w</title>
<path fill="none" stroke="#a6761d" d="M1931.08,-723.5C1972.44,-723.5 1985.26,-726.87 2021.93,-727.42"/>
<polygon fill="#a6761d" stroke="#a6761d" points="2022.35,-730.93 2032.37,-727.5 2022.4,-723.93 2022.35,-730.93"/>
</g>
<!-- n13 -->
<g id="node13" class="node">
<title>n13</title>
<polygon fill="none" stroke="black" points="2231.76,-733.5 2179.48,-715.5 2231.76,-697.5 2284.05,-715.5 2231.76,-733.5"/>
<text text-anchor="middle" x="2231.76" y="-711.8" font-family="Times,serif" font-size="14.00">_T_29</text>
</g>
<!-- n14 -->
<g id="node14" class="node">
<title>n14</title>
<polygon fill="none" stroke="black" points="1531.4,-689.5 1479.12,-671.5 1531.4,-653.5 1583.69,-671.5 1531.4,-689.5"/>
<text text-anchor="middle" x="1531.4" y="-667.8" font-family="Times,serif" font-size="14.00">_T_30</text>
</g>
<!-- c36 -->
<g id="node40" class="node">
<title>c36</title>
<polygon fill="none" stroke="black" points="1619.79,-551.5 1619.79,-597.5 1723.79,-597.5 1723.79,-551.5 1619.79,-551.5"/>
<text text-anchor="middle" x="1633.29" y="-582.3" font-family="Times,serif" font-size="14.00">A</text>
<polyline fill="none" stroke="black" points="1619.79,-574.5 1646.79,-574.5 "/>
<text text-anchor="middle" x="1633.29" y="-559.3" font-family="Times,serif" font-size="14.00">B</text>
<polyline fill="none" stroke="black" points="1646.79,-551.5 1646.79,-597.5 "/>
<text text-anchor="middle" x="1672.29" y="-578.3" font-family="Times,serif" font-size="14.00">$75</text>
<text text-anchor="middle" x="1672.29" y="-563.3" font-family="Times,serif" font-size="14.00">$sub</text>
<polyline fill="none" stroke="black" points="1697.79,-551.5 1697.79,-597.5 "/>
<text text-anchor="middle" x="1710.79" y="-570.8" font-family="Times,serif" font-size="14.00">Y</text>
</g>
<!-- n14&#45;&gt;c36 -->
<g id="edge19" class="edge">
<title>n14:e&#45;&gt;c36:w</title>
<path fill="none" stroke="#e7298a" stroke-width="3" d="M1583.79,-671.5C1620.65,-671.5 1587.22,-602.89 1609.81,-588.95"/>
<polygon fill="#e7298a" stroke="#e7298a" stroke-width="3" points="1610.92,-592.28 1619.79,-586.5 1609.25,-585.49 1610.92,-592.28"/>
</g>
<!-- x15 -->
<g id="node50" class="node">
<title>x15</title>
<path fill="none" stroke="black" d="M1637.29,-702.5C1637.29,-702.5 1706.29,-702.5 1706.29,-702.5 1712.29,-702.5 1718.29,-708.5 1718.29,-714.5 1718.29,-714.5 1718.29,-726.5 1718.29,-726.5 1718.29,-732.5 1712.29,-738.5 1706.29,-738.5 1706.29,-738.5 1637.29,-738.5 1637.29,-738.5 1631.29,-738.5 1625.29,-732.5 1625.29,-726.5 1625.29,-726.5 1625.29,-714.5 1625.29,-714.5 1625.29,-708.5 1631.29,-702.5 1637.29,-702.5"/>
<text text-anchor="middle" x="1671.79" y="-716.8" font-family="Times,serif" font-size="14.00">31:0 &#45; 31:0</text>
</g>
<!-- n14&#45;&gt;x15 -->
<g id="edge20" class="edge">
<title>n14:e&#45;&gt;x15:w</title>
<path fill="none" stroke="#e7298a" stroke-width="3" d="M1583.79,-671.5C1607.73,-671.5 1599.52,-707.03 1613.92,-717.58"/>
<polygon fill="#e7298a" stroke="#e7298a" stroke-width="3" points="1613.21,-721.02 1623.79,-720.5 1615.19,-714.31 1613.21,-721.02"/>
</g>
<!-- n14&#45;&gt;x16 -->
<g id="edge21" class="edge">
<title>n14:e&#45;&gt;x16:w</title>
<path fill="none" stroke="#e7298a" stroke-width="3" d="M1583.79,-671.5C1767.5,-671.5 1814.13,-673.36 1996.37,-696.5 2008.5,-698.04 2013.52,-701.21 2022.14,-702.69"/>
<polygon fill="#e7298a" stroke="#e7298a" stroke-width="3" points="2022.13,-706.2 2032.37,-703.5 2022.68,-699.23 2022.13,-706.2"/>
</g>
<!-- n15 -->
<g id="node15" class="node">
<title>n15</title>
<polygon fill="none" stroke="black" points="2231.76,-673.5 2179.48,-655.5 2231.76,-637.5 2284.05,-655.5 2231.76,-673.5"/>
<text text-anchor="middle" x="2231.76" y="-651.8" font-family="Times,serif" font-size="14.00">_T_31</text>
</g>
<!-- x18 -->
<g id="node53" class="node">
<title>x18</title>
<path fill="none" stroke="black" d="M2332.16,-608.5C2332.16,-608.5 2419.16,-608.5 2419.16,-608.5 2425.16,-608.5 2431.16,-614.5 2431.16,-620.5 2431.16,-620.5 2431.16,-642.5 2431.16,-642.5 2431.16,-648.5 2425.16,-654.5 2419.16,-654.5 2419.16,-654.5 2332.16,-654.5 2332.16,-654.5 2326.16,-654.5 2320.16,-648.5 2320.16,-642.5 2320.16,-642.5 2320.16,-620.5 2320.16,-620.5 2320.16,-614.5 2326.16,-608.5 2332.16,-608.5"/>
<text text-anchor="middle" x="2375.66" y="-639.3" font-family="Times,serif" font-size="14.00">32:32 &#45; 32:32</text>
<polyline fill="none" stroke="black" points="2320.16,-631.5 2431.16,-631.5 "/>
<text text-anchor="middle" x="2375.66" y="-616.3" font-family="Times,serif" font-size="14.00">31:0 &#45; 31:0</text>
</g>
<!-- n15&#45;&gt;x18 -->
<g id="edge23" class="edge">
<title>n15:e&#45;&gt;x18:w</title>
<path fill="none" stroke="#1b9e77" d="M2284.16,-655.5C2296.94,-655.5 2301.34,-648.61 2310.06,-645.27"/>
<polygon fill="#1b9e77" stroke="#1b9e77" points="2310.91,-648.67 2320.16,-643.5 2309.7,-641.78 2310.91,-648.67"/>
</g>
<!-- n16 -->
<g id="node16" class="node">
<title>n16</title>
<polygon fill="none" stroke="black" points="2519.55,-649.5 2467.26,-631.5 2519.55,-613.5 2571.83,-631.5 2519.55,-649.5"/>
<text text-anchor="middle" x="2519.55" y="-627.8" font-family="Times,serif" font-size="14.00">_T_32</text>
</g>
<!-- n17 -->
<g id="node17" class="node">
<title>n17</title>
<polygon fill="none" stroke="black" points="1878.08,-592.5 1825.8,-574.5 1878.08,-556.5 1930.37,-574.5 1878.08,-592.5"/>
<text text-anchor="middle" x="1878.08" y="-570.8" font-family="Times,serif" font-size="14.00">_T_33</text>
</g>
<!-- c33 -->
<g id="node36" class="node">
<title>c33</title>
<polygon fill="none" stroke="black" points="2034.87,-479.5 2034.87,-525.5 2140.87,-525.5 2140.87,-479.5 2034.87,-479.5"/>
<text text-anchor="middle" x="2048.37" y="-510.3" font-family="Times,serif" font-size="14.00">A</text>
<polyline fill="none" stroke="black" points="2034.87,-502.5 2061.87,-502.5 "/>
<text text-anchor="middle" x="2048.37" y="-487.3" font-family="Times,serif" font-size="14.00">B</text>
<polyline fill="none" stroke="black" points="2061.87,-479.5 2061.87,-525.5 "/>
<text text-anchor="middle" x="2088.37" y="-506.3" font-family="Times,serif" font-size="14.00">$76</text>
<text text-anchor="middle" x="2088.37" y="-491.3" font-family="Times,serif" font-size="14.00">$mul</text>
<polyline fill="none" stroke="black" points="2114.87,-479.5 2114.87,-525.5 "/>
<text text-anchor="middle" x="2127.87" y="-498.8" font-family="Times,serif" font-size="14.00">Y</text>
</g>
<!-- n17&#45;&gt;c33 -->
<g id="edge26" class="edge">
<title>n17:e&#45;&gt;c33:w</title>
<path fill="none" stroke="#7570b3" stroke-width="3" d="M1931.08,-574.5C1980.36,-574.5 1981.12,-522.42 2023.77,-515.3"/>
<polygon fill="#7570b3" stroke="#7570b3" stroke-width="3" points="2024.18,-518.78 2033.87,-514.5 2023.63,-511.8 2024.18,-518.78"/>
</g>
<!-- x17 -->
<g id="node52" class="node">
<title>x17</title>
<path fill="none" stroke="black" d="M2053.37,-637.5C2053.37,-637.5 2122.37,-637.5 2122.37,-637.5 2128.37,-637.5 2134.37,-643.5 2134.37,-649.5 2134.37,-649.5 2134.37,-661.5 2134.37,-661.5 2134.37,-667.5 2128.37,-673.5 2122.37,-673.5 2122.37,-673.5 2053.37,-673.5 2053.37,-673.5 2047.37,-673.5 2041.37,-667.5 2041.37,-661.5 2041.37,-661.5 2041.37,-649.5 2041.37,-649.5 2041.37,-643.5 2047.37,-637.5 2053.37,-637.5"/>
<text text-anchor="middle" x="2087.87" y="-651.8" font-family="Times,serif" font-size="14.00">31:0 &#45; 31:0</text>
</g>
<!-- n17&#45;&gt;x17 -->
<g id="edge27" class="edge">
<title>n17:e&#45;&gt;x17:w</title>
<path fill="none" stroke="#7570b3" stroke-width="3" d="M1931.08,-574.5C1987.71,-574.5 1980.75,-645.99 2029.68,-654.65"/>
<polygon fill="#7570b3" stroke="#7570b3" stroke-width="3" points="2029.61,-658.15 2039.87,-655.5 2030.2,-651.18 2029.61,-658.15"/>
</g>
<!-- n17&#45;&gt;x18 -->
<g id="edge28" class="edge">
<title>n17:e&#45;&gt;x18:w</title>
<path fill="none" stroke="#7570b3" stroke-width="3" d="M1931.08,-574.5C1976.59,-574.5 1987.22,-583.81 2032.37,-589.5 2156.47,-605.15 2189.76,-618.74 2309.82,-619.47"/>
<polygon fill="#7570b3" stroke="#7570b3" stroke-width="3" points="2310.15,-622.97 2320.16,-619.5 2310.17,-615.97 2310.15,-622.97"/>
</g>
<!-- x19 -->
<g id="node54" class="node">
<title>x19</title>
<path fill="none" stroke="black" d="M2102.87,-580.5C2102.87,-580.5 2072.87,-580.5 2072.87,-580.5 2066.87,-580.5 2060.87,-574.5 2060.87,-568.5 2060.87,-568.5 2060.87,-556.5 2060.87,-556.5 2060.87,-550.5 2066.87,-544.5 2072.87,-544.5 2072.87,-544.5 2102.87,-544.5 2102.87,-544.5 2108.87,-544.5 2114.87,-550.5 2114.87,-556.5 2114.87,-556.5 2114.87,-568.5 2114.87,-568.5 2114.87,-574.5 2108.87,-580.5 2102.87,-580.5"/>
<text text-anchor="middle" x="2087.87" y="-558.8" font-family="Times,serif" font-size="14.00">BUF</text>
</g>
<!-- n17&#45;&gt;x19 -->
<g id="edge29" class="edge">
<title>n17:e&#45;&gt;x19:w</title>
<path fill="none" stroke="#7570b3" stroke-width="3" d="M1931.08,-574.5C1984.98,-574.5 2000.49,-563.95 2049.58,-562.63"/>
<polygon fill="#7570b3" stroke="#7570b3" stroke-width="3" points="2049.92,-566.13 2059.87,-562.5 2049.83,-559.13 2049.92,-566.13"/>
</g>
<!-- n18 -->
<g id="node18" class="node">
<title>n18</title>
<polygon fill="none" stroke="black" points="2231.76,-580.5 2179.48,-562.5 2231.76,-544.5 2284.05,-562.5 2231.76,-580.5"/>
<text text-anchor="middle" x="2231.76" y="-558.8" font-family="Times,serif" font-size="14.00">_T_34</text>
</g>
<!-- n19 -->
<g id="node19" class="node">
<title>n19</title>
<polygon fill="none" stroke="black" points="2231.76,-520.5 2179.48,-502.5 2231.76,-484.5 2284.05,-502.5 2231.76,-520.5"/>
<text text-anchor="middle" x="2231.76" y="-498.8" font-family="Times,serif" font-size="14.00">_T_36</text>
</g>
<!-- x3 -->
<g id="node32" class="node">
<title>x3</title>
<path fill="none" stroke="black" d="M2332.16,-479.5C2332.16,-479.5 2419.16,-479.5 2419.16,-479.5 2425.16,-479.5 2431.16,-485.5 2431.16,-491.5 2431.16,-491.5 2431.16,-513.5 2431.16,-513.5 2431.16,-519.5 2425.16,-525.5 2419.16,-525.5 2419.16,-525.5 2332.16,-525.5 2332.16,-525.5 2326.16,-525.5 2320.16,-519.5 2320.16,-513.5 2320.16,-513.5 2320.16,-491.5 2320.16,-491.5 2320.16,-485.5 2326.16,-479.5 2332.16,-479.5"/>
<text text-anchor="middle" x="2375.66" y="-510.3" font-family="Times,serif" font-size="14.00">47:47 &#45; 48:48</text>
<polyline fill="none" stroke="black" points="2320.16,-502.5 2431.16,-502.5 "/>
<text text-anchor="middle" x="2375.66" y="-487.3" font-family="Times,serif" font-size="14.00">47:0 &#45; 47:0</text>
</g>
<!-- n19&#45;&gt;x3 -->
<g id="edge32" class="edge">
<title>n19:e&#45;&gt;x3:w</title>
<path fill="none" stroke="#d95f02" stroke-width="3" d="M2284.16,-502.5C2296.94,-502.5 2301.34,-495.61 2310.06,-492.27"/>
<polygon fill="#d95f02" stroke="#d95f02" stroke-width="3" points="2310.91,-495.67 2320.16,-490.5 2309.7,-488.78 2310.91,-495.67"/>
</g>
<!-- n19&#45;&gt;x3 -->
<g id="edge33" class="edge">
<title>n19:e&#45;&gt;x3:w</title>
<path fill="none" stroke="#d95f02" stroke-width="3" d="M2284.16,-502.5C2296.94,-502.5 2301.34,-509.39 2310.06,-512.73"/>
<polygon fill="#d95f02" stroke="#d95f02" stroke-width="3" points="2309.7,-516.22 2320.16,-514.5 2310.91,-509.33 2309.7,-516.22"/>
</g>
<!-- n20 -->
<g id="node20" class="node">
<title>n20</title>
<polygon fill="none" stroke="black" points="492.15,-169.5 439.86,-151.5 492.15,-133.5 544.43,-151.5 492.15,-169.5"/>
<text text-anchor="middle" x="492.15" y="-147.8" font-family="Times,serif" font-size="14.00">_T_37</text>
</g>
<!-- n21 -->
<g id="node21" class="node">
<title>n21</title>
<polygon fill="none" stroke="black" points="492.15,-114.5 451.76,-96.5 492.15,-78.5 532.53,-96.5 492.15,-114.5"/>
<text text-anchor="middle" x="492.15" y="-92.8" font-family="Times,serif" font-size="14.00">half</text>
</g>
<!-- n22 -->
<g id="node22" class="node">
<title>n22</title>
<polygon fill="none" stroke="black" points="2772.37,-469.04 2772.37,-483.96 2724.26,-494.5 2656.23,-494.5 2608.13,-483.96 2608.13,-469.04 2656.23,-458.5 2724.26,-458.5 2772.37,-469.04"/>
<text text-anchor="middle" x="2690.25" y="-472.8" font-family="Times,serif" font-size="14.00">io_sample_out</text>
</g>
<!-- n23 -->
<g id="node23" class="node">
<title>n23</title>
<polygon fill="none" stroke="black" points="211.07,-464.04 211.07,-478.96 149.24,-489.5 61.8,-489.5 -0.02,-478.96 -0.02,-464.04 61.8,-453.5 149.24,-453.5 211.07,-464.04"/>
<text text-anchor="middle" x="105.52" y="-467.8" font-family="Times,serif" font-size="14.00">io_wavelength_pos</text>
</g>
<!-- x0 -->
<g id="node27" class="node">
<title>x0</title>
<path fill="none" stroke="black" d="M283.55,-777.5C283.55,-777.5 352.55,-777.5 352.55,-777.5 358.55,-777.5 364.55,-783.5 364.55,-789.5 364.55,-789.5 364.55,-801.5 364.55,-801.5 364.55,-807.5 358.55,-813.5 352.55,-813.5 352.55,-813.5 283.55,-813.5 283.55,-813.5 277.55,-813.5 271.55,-807.5 271.55,-801.5 271.55,-801.5 271.55,-789.5 271.55,-789.5 271.55,-783.5 277.55,-777.5 283.55,-777.5"/>
<text text-anchor="middle" x="318.05" y="-791.8" font-family="Times,serif" font-size="14.00">31:1 &#45; 30:0</text>
</g>
<!-- n23&#45;&gt;x0 -->
<g id="edge41" class="edge">
<title>n23:e&#45;&gt;x0:w</title>
<path fill="none" stroke="#e7298a" stroke-width="3" d="M211.05,-471.5C280.52,-471.5 205.32,-763.43 260.1,-793.08"/>
<polygon fill="#e7298a" stroke="#e7298a" stroke-width="3" points="259.5,-796.54 270.05,-795.5 261.16,-789.73 259.5,-796.54"/>
</g>
<!-- x1 -->
<g id="node28" class="node">
<title>x1</title>
<path fill="none" stroke="black" d="M283.55,-722.5C283.55,-722.5 352.55,-722.5 352.55,-722.5 358.55,-722.5 364.55,-728.5 364.55,-734.5 364.55,-734.5 364.55,-746.5 364.55,-746.5 364.55,-752.5 358.55,-758.5 352.55,-758.5 352.55,-758.5 283.55,-758.5 283.55,-758.5 277.55,-758.5 271.55,-752.5 271.55,-746.5 271.55,-746.5 271.55,-734.5 271.55,-734.5 271.55,-728.5 277.55,-722.5 283.55,-722.5"/>
<text text-anchor="middle" x="318.05" y="-736.8" font-family="Times,serif" font-size="14.00">31:2 &#45; 29:0</text>
</g>
<!-- n23&#45;&gt;x1 -->
<g id="edge46" class="edge">
<title>n23:e&#45;&gt;x1:w</title>
<path fill="none" stroke="#e7298a" stroke-width="3" d="M211.05,-471.5C268.54,-471.5 216.07,-708.91 260.25,-737.66"/>
<polygon fill="#e7298a" stroke="#e7298a" stroke-width="3" points="259.47,-741.08 270.05,-740.5 261.42,-734.36 259.47,-741.08"/>
</g>
<!-- c30 -->
<g id="node29" class="node">
<title>c30</title>
<polygon fill="none" stroke="black" points="439.65,-658.5 439.65,-704.5 544.65,-704.5 544.65,-658.5 439.65,-658.5"/>
<text text-anchor="middle" x="453.15" y="-689.3" font-family="Times,serif" font-size="14.00">A</text>
<polyline fill="none" stroke="black" points="439.65,-681.5 466.65,-681.5 "/>
<text text-anchor="middle" x="453.15" y="-666.3" font-family="Times,serif" font-size="14.00">B</text>
<polyline fill="none" stroke="black" points="466.65,-658.5 466.65,-704.5 "/>
<text text-anchor="middle" x="492.65" y="-685.3" font-family="Times,serif" font-size="14.00">$72</text>
<text text-anchor="middle" x="492.65" y="-670.3" font-family="Times,serif" font-size="14.00">$add</text>
<polyline fill="none" stroke="black" points="518.65,-658.5 518.65,-704.5 "/>
<text text-anchor="middle" x="531.65" y="-677.8" font-family="Times,serif" font-size="14.00">Y</text>
</g>
<!-- n23&#45;&gt;c30 -->
<g id="edge38" class="edge">
<title>n23:e&#45;&gt;c30:w</title>
<path fill="none" stroke="#e7298a" stroke-width="3" d="M211.05,-471.5C302.68,-471.5 179.83,-612.23 247.05,-674.5 307.09,-730.12 349.22,-696.54 427.85,-693.69"/>
<polygon fill="#e7298a" stroke="#e7298a" stroke-width="3" points="428.21,-697.18 438.15,-693.5 428.08,-690.18 428.21,-697.18"/>
</g>
<!-- x2 -->
<g id="node30" class="node">
<title>x2</title>
<path fill="none" stroke="black" d="M283.55,-628.5C283.55,-628.5 352.55,-628.5 352.55,-628.5 358.55,-628.5 364.55,-634.5 364.55,-640.5 364.55,-640.5 364.55,-652.5 364.55,-652.5 364.55,-658.5 358.55,-664.5 352.55,-664.5 352.55,-664.5 283.55,-664.5 283.55,-664.5 277.55,-664.5 271.55,-658.5 271.55,-652.5 271.55,-652.5 271.55,-640.5 271.55,-640.5 271.55,-634.5 277.55,-628.5 283.55,-628.5"/>
<text text-anchor="middle" x="318.05" y="-642.8" font-family="Times,serif" font-size="14.00">31:2 &#45; 29:0</text>
</g>
<!-- n23&#45;&gt;x2 -->
<g id="edge50" class="edge">
<title>n23:e&#45;&gt;x2:w</title>
<path fill="none" stroke="#e7298a" stroke-width="3" d="M211.05,-471.5C289.44,-471.5 197.04,-631.13 260.09,-645.47"/>
<polygon fill="#e7298a" stroke="#e7298a" stroke-width="3" points="259.74,-648.96 270.05,-646.5 260.46,-641.99 259.74,-648.96"/>
</g>
<!-- x4 -->
<g id="node33" class="node">
<title>x4</title>
<path fill="none" stroke="black" d="M259.05,-448.5C259.05,-448.5 377.05,-448.5 377.05,-448.5 383.05,-448.5 389.05,-454.5 389.05,-460.5 389.05,-460.5 389.05,-482.5 389.05,-482.5 389.05,-488.5 383.05,-494.5 377.05,-494.5 377.05,-494.5 259.05,-494.5 259.05,-494.5 253.05,-494.5 247.05,-488.5 247.05,-482.5 247.05,-482.5 247.05,-460.5 247.05,-460.5 247.05,-454.5 253.05,-448.5 259.05,-448.5"/>
<text text-anchor="middle" x="318.05" y="-479.3" font-family="Times,serif" font-size="14.00">19x 31:31 &#45; 48:30</text>
<polyline fill="none" stroke="black" points="247.05,-471.5 389.05,-471.5 "/>
<text text-anchor="middle" x="318.05" y="-456.3" font-family="Times,serif" font-size="14.00">31:2 &#45; 29:0</text>
</g>
<!-- n23&#45;&gt;x4 -->
<g id="edge51" class="edge">
<title>n23:e&#45;&gt;x4:w</title>
<path fill="none" stroke="#e7298a" stroke-width="3" d="M211.05,-471.5C223.83,-471.5 228.23,-464.61 236.95,-461.27"/>
<polygon fill="#e7298a" stroke="#e7298a" stroke-width="3" points="237.8,-464.67 247.05,-459.5 236.59,-457.78 237.8,-464.67"/>
</g>
<!-- n23&#45;&gt;x4 -->
<g id="edge52" class="edge">
<title>n23:e&#45;&gt;x4:w</title>
<path fill="none" stroke="#e7298a" stroke-width="3" d="M211.05,-471.5C223.83,-471.5 228.23,-478.39 236.95,-481.73"/>
<polygon fill="#e7298a" stroke="#e7298a" stroke-width="3" points="236.59,-485.22 247.05,-483.5 237.8,-478.33 236.59,-485.22"/>
</g>
<!-- n23&#45;&gt;c32 -->
<g id="edge39" class="edge">
<title>n23:e&#45;&gt;c32:w</title>
<path fill="none" stroke="#e7298a" stroke-width="3" d="M211.05,-471.5C256.2,-471.5 212.48,-537.45 247.05,-566.5 287.54,-600.52 645.68,-654.98 727.81,-660.11"/>
<polygon fill="#e7298a" stroke="#e7298a" stroke-width="3" points="727.9,-663.61 738.03,-660.5 728.17,-656.62 727.9,-663.61"/>
</g>
<!-- n23&#45;&gt;c34 -->
<g id="edge40" class="edge">
<title>n23:e&#45;&gt;c34:w</title>
<path fill="none" stroke="#e7298a" stroke-width="3" d="M211.05,-471.5C289.68,-471.5 189.12,-770.33 247.05,-823.5 404.67,-968.18 515.18,-835.77 725.92,-831.6"/>
<polygon fill="#e7298a" stroke="#e7298a" stroke-width="3" points="726.06,-835.1 736.03,-831.5 725.99,-828.1 726.06,-835.1"/>
</g>
<!-- x6 -->
<g id="node39" class="node">
<title>x6</title>
<path fill="none" stroke="black" d="M613.14,-552.5C613.14,-552.5 682.14,-552.5 682.14,-552.5 688.14,-552.5 694.14,-558.5 694.14,-564.5 694.14,-564.5 694.14,-576.5 694.14,-576.5 694.14,-582.5 688.14,-588.5 682.14,-588.5 682.14,-588.5 613.14,-588.5 613.14,-588.5 607.14,-588.5 601.14,-582.5 601.14,-576.5 601.14,-576.5 601.14,-564.5 601.14,-564.5 601.14,-558.5 607.14,-552.5 613.14,-552.5"/>
<text text-anchor="middle" x="647.64" y="-566.8" font-family="Times,serif" font-size="14.00">31:1 &#45; 30:0</text>
</g>
<!-- n23&#45;&gt;x6 -->
<g id="edge53" class="edge">
<title>n23:e&#45;&gt;x6:w</title>
<path fill="none" stroke="#e7298a" stroke-width="3" d="M211.05,-471.5C244.46,-471.5 219.14,-519.12 247.05,-537.5 310.14,-579.05 504.5,-571.24 589.58,-570.55"/>
<polygon fill="#e7298a" stroke="#e7298a" stroke-width="3" points="589.65,-574.05 599.64,-570.5 589.62,-567.05 589.65,-574.05"/>
</g>
<!-- x7 -->
<g id="node41" class="node">
<title>x7</title>
<path fill="none" stroke="black" d="M1066.23,-507.5C1066.23,-507.5 1135.23,-507.5 1135.23,-507.5 1141.23,-507.5 1147.23,-513.5 1147.23,-519.5 1147.23,-519.5 1147.23,-531.5 1147.23,-531.5 1147.23,-537.5 1141.23,-543.5 1135.23,-543.5 1135.23,-543.5 1066.23,-543.5 1066.23,-543.5 1060.23,-543.5 1054.23,-537.5 1054.23,-531.5 1054.23,-531.5 1054.23,-519.5 1054.23,-519.5 1054.23,-513.5 1060.23,-507.5 1066.23,-507.5"/>
<text text-anchor="middle" x="1100.73" y="-521.8" font-family="Times,serif" font-size="14.00">31:2 &#45; 29:0</text>
</g>
<!-- n23&#45;&gt;x7 -->
<g id="edge54" class="edge">
<title>n23:e&#45;&gt;x7:w</title>
<path fill="none" stroke="#e7298a" stroke-width="3" d="M211.05,-471.5C232.75,-471.5 227.14,-495.85 247.05,-504.5 346.85,-547.86 382.33,-523.5 491.15,-523.5 491.15,-523.5 491.15,-523.5 789.03,-523.5 902.8,-523.5 933.73,-525.38 1042.65,-525.49"/>
<polygon fill="#e7298a" stroke="#e7298a" stroke-width="3" points="1042.72,-528.99 1052.73,-525.5 1042.73,-521.99 1042.72,-528.99"/>
</g>
<!-- x8 -->
<g id="node43" class="node">
<title>x8</title>
<path fill="none" stroke="black" d="M283.55,-383.5C283.55,-383.5 352.55,-383.5 352.55,-383.5 358.55,-383.5 364.55,-389.5 364.55,-395.5 364.55,-395.5 364.55,-417.5 364.55,-417.5 364.55,-423.5 358.55,-429.5 352.55,-429.5 352.55,-429.5 283.55,-429.5 283.55,-429.5 277.55,-429.5 271.55,-423.5 271.55,-417.5 271.55,-417.5 271.55,-395.5 271.55,-395.5 271.55,-389.5 277.55,-383.5 283.55,-383.5"/>
<text text-anchor="middle" x="318.05" y="-414.3" font-family="Times,serif" font-size="14.00">0 &#45;&gt; 30:30</text>
<polyline fill="none" stroke="black" points="271.55,-406.5 364.55,-406.5 "/>
<text text-anchor="middle" x="318.05" y="-391.3" font-family="Times,serif" font-size="14.00">31:2 &#45; 29:0</text>
</g>
<!-- n23&#45;&gt;x8 -->
<g id="edge55" class="edge">
<title>n23:e&#45;&gt;x8:w</title>
<path fill="none" stroke="#e7298a" stroke-width="3" d="M211.05,-471.5C250.29,-471.5 231.26,-407.71 260.03,-396.25"/>
<polygon fill="#e7298a" stroke="#e7298a" stroke-width="3" points="260.8,-399.67 270.05,-394.5 259.59,-392.78 260.8,-399.67"/>
</g>
<!-- x10 -->
<g id="node45" class="node">
<title>x10</title>
<path fill="none" stroke="black" d="M283.55,-318.5C283.55,-318.5 352.55,-318.5 352.55,-318.5 358.55,-318.5 364.55,-324.5 364.55,-330.5 364.55,-330.5 364.55,-352.5 364.55,-352.5 364.55,-358.5 358.55,-364.5 352.55,-364.5 352.55,-364.5 283.55,-364.5 283.55,-364.5 277.55,-364.5 271.55,-358.5 271.55,-352.5 271.55,-352.5 271.55,-330.5 271.55,-330.5 271.55,-324.5 277.55,-318.5 283.55,-318.5"/>
<text text-anchor="middle" x="318.05" y="-349.3" font-family="Times,serif" font-size="14.00">0 &#45;&gt; 31:30</text>
<polyline fill="none" stroke="black" points="271.55,-341.5 364.55,-341.5 "/>
<text text-anchor="middle" x="318.05" y="-326.3" font-family="Times,serif" font-size="14.00">31:2 &#45; 29:0</text>
</g>
<!-- n23&#45;&gt;x10 -->
<g id="edge42" class="edge">
<title>n23:e&#45;&gt;x10:w</title>
<path fill="none" stroke="#e7298a" stroke-width="3" d="M211.05,-471.5C275.65,-471.5 209.77,-344.61 260.1,-330.73"/>
<polygon fill="#e7298a" stroke="#e7298a" stroke-width="3" points="260.55,-334.2 270.05,-329.5 259.69,-327.25 260.55,-334.2"/>
</g>
<!-- x11 -->
<g id="node46" class="node">
<title>x11</title>
<path fill="none" stroke="black" d="M283.55,-253.5C283.55,-253.5 352.55,-253.5 352.55,-253.5 358.55,-253.5 364.55,-259.5 364.55,-265.5 364.55,-265.5 364.55,-287.5 364.55,-287.5 364.55,-293.5 358.55,-299.5 352.55,-299.5 352.55,-299.5 283.55,-299.5 283.55,-299.5 277.55,-299.5 271.55,-293.5 271.55,-287.5 271.55,-287.5 271.55,-265.5 271.55,-265.5 271.55,-259.5 277.55,-253.5 283.55,-253.5"/>
<text text-anchor="middle" x="318.05" y="-284.3" font-family="Times,serif" font-size="14.00">0 &#45;&gt; 31:31</text>
<polyline fill="none" stroke="black" points="271.55,-276.5 364.55,-276.5 "/>
<text text-anchor="middle" x="318.05" y="-261.3" font-family="Times,serif" font-size="14.00">31:1 &#45; 30:0</text>
</g>
<!-- n23&#45;&gt;x11 -->
<g id="edge43" class="edge">
<title>n23:e&#45;&gt;x11:w</title>
<path fill="none" stroke="#e7298a" stroke-width="3" d="M211.05,-471.5C255.14,-471.5 227.43,-295.58 260.3,-268.09"/>
<polygon fill="#e7298a" stroke="#e7298a" stroke-width="3" points="261.88,-271.24 270.05,-264.5 259.45,-264.68 261.88,-271.24"/>
</g>
<!-- x12 -->
<g id="node47" class="node">
<title>x12</title>
<path fill="none" stroke="black" d="M259.05,-188.5C259.05,-188.5 377.05,-188.5 377.05,-188.5 383.05,-188.5 389.05,-194.5 389.05,-200.5 389.05,-200.5 389.05,-222.5 389.05,-222.5 389.05,-228.5 383.05,-234.5 377.05,-234.5 377.05,-234.5 259.05,-234.5 259.05,-234.5 253.05,-234.5 247.05,-228.5 247.05,-222.5 247.05,-222.5 247.05,-200.5 247.05,-200.5 247.05,-194.5 253.05,-188.5 259.05,-188.5"/>
<text text-anchor="middle" x="318.05" y="-219.3" font-family="Times,serif" font-size="14.00">18x 31:31 &#45; 47:30</text>
<polyline fill="none" stroke="black" points="247.05,-211.5 389.05,-211.5 "/>
<text text-anchor="middle" x="318.05" y="-196.3" font-family="Times,serif" font-size="14.00">31:2 &#45; 29:0</text>
</g>
<!-- n23&#45;&gt;x12 -->
<g id="edge44" class="edge">
<title>n23:e&#45;&gt;x12:w</title>
<path fill="none" stroke="#e7298a" stroke-width="3" d="M211.05,-471.5C268.21,-471.5 196.25,-232.44 237.27,-202.55"/>
<polygon fill="#e7298a" stroke="#e7298a" stroke-width="3" points="238.55,-205.82 247.05,-199.5 236.46,-199.14 238.55,-205.82"/>
</g>
<!-- n23&#45;&gt;x12 -->
<g id="edge45" class="edge">
<title>n23:e&#45;&gt;x12:w</title>
<path fill="none" stroke="#e7298a" stroke-width="3" d="M211.05,-471.5C262.82,-471.5 201.31,-257.15 237.15,-227.01"/>
<polygon fill="#e7298a" stroke="#e7298a" stroke-width="3" points="238.79,-230.14 247.05,-223.5 236.45,-223.54 238.79,-230.14"/>
</g>
<!-- x20 -->
<g id="node55" class="node">
<title>x20</title>
<path fill="none" stroke="black" d="M283.55,-133.5C283.55,-133.5 352.55,-133.5 352.55,-133.5 358.55,-133.5 364.55,-139.5 364.55,-145.5 364.55,-145.5 364.55,-157.5 364.55,-157.5 364.55,-163.5 358.55,-169.5 352.55,-169.5 352.55,-169.5 283.55,-169.5 283.55,-169.5 277.55,-169.5 271.55,-163.5 271.55,-157.5 271.55,-157.5 271.55,-145.5 271.55,-145.5 271.55,-139.5 277.55,-133.5 283.55,-133.5"/>
<text text-anchor="middle" x="318.05" y="-147.8" font-family="Times,serif" font-size="14.00">31:2 &#45; 29:0</text>
</g>
<!-- n23&#45;&gt;x20 -->
<g id="edge47" class="edge">
<title>n23:e&#45;&gt;x20:w</title>
<path fill="none" stroke="#e7298a" stroke-width="3" d="M211.05,-471.5C279.69,-471.5 206.03,-183.17 260.21,-153.89"/>
<polygon fill="#e7298a" stroke="#e7298a" stroke-width="3" points="261.16,-157.26 270.05,-151.5 259.5,-150.46 261.16,-157.26"/>
</g>
<!-- x21 -->
<g id="node56" class="node">
<title>x21</title>
<path fill="none" stroke="black" d="M283.55,-78.5C283.55,-78.5 352.55,-78.5 352.55,-78.5 358.55,-78.5 364.55,-84.5 364.55,-90.5 364.55,-90.5 364.55,-102.5 364.55,-102.5 364.55,-108.5 358.55,-114.5 352.55,-114.5 352.55,-114.5 283.55,-114.5 283.55,-114.5 277.55,-114.5 271.55,-108.5 271.55,-102.5 271.55,-102.5 271.55,-90.5 271.55,-90.5 271.55,-84.5 277.55,-78.5 283.55,-78.5"/>
<text text-anchor="middle" x="318.05" y="-92.8" font-family="Times,serif" font-size="14.00">31:1 &#45; 30:0</text>
</g>
<!-- n23&#45;&gt;x21 -->
<g id="edge48" class="edge">
<title>n23:e&#45;&gt;x21:w</title>
<path fill="none" stroke="#e7298a" stroke-width="3" d="M211.05,-471.5C291.78,-471.5 194.76,-128.03 260.22,-98.52"/>
<polygon fill="#e7298a" stroke="#e7298a" stroke-width="3" points="260.96,-101.94 270.05,-96.5 259.55,-95.08 260.96,-101.94"/>
</g>
<!-- x22 -->
<g id="node57" class="node">
<title>x22</title>
<path fill="none" stroke="black" d="M283.55,-23.5C283.55,-23.5 352.55,-23.5 352.55,-23.5 358.55,-23.5 364.55,-29.5 364.55,-35.5 364.55,-35.5 364.55,-47.5 364.55,-47.5 364.55,-53.5 358.55,-59.5 352.55,-59.5 352.55,-59.5 283.55,-59.5 283.55,-59.5 277.55,-59.5 271.55,-53.5 271.55,-47.5 271.55,-47.5 271.55,-35.5 271.55,-35.5 271.55,-29.5 277.55,-23.5 283.55,-23.5"/>
<text text-anchor="middle" x="318.05" y="-37.8" font-family="Times,serif" font-size="14.00">31:2 &#45; 29:0</text>
</g>
<!-- n23&#45;&gt;x22 -->
<g id="edge49" class="edge">
<title>n23:e&#45;&gt;x22:w</title>
<path fill="none" stroke="#e7298a" stroke-width="3" d="M211.05,-471.5C256,-471.5 229.65,-109.95 247.05,-68.5 251.53,-57.83 253.33,-48.27 260.22,-43.94"/>
<polygon fill="#e7298a" stroke="#e7298a" stroke-width="3" points="261.19,-47.31 270.05,-41.5 259.5,-40.52 261.19,-47.31"/>
</g>
<!-- n24 -->
<g id="node24" class="node">
<title>n24</title>
<polygon fill="none" stroke="black" points="1243.62,-695.5 1205.75,-677.5 1243.62,-659.5 1281.49,-677.5 1243.62,-695.5"/>
<text text-anchor="middle" x="1243.62" y="-673.8" font-family="Times,serif" font-size="14.00">pos</text>
</g>
<!-- c35 -->
<g id="node38" class="node">
<title>c35</title>
<polygon fill="none" stroke="black" points="1335.51,-642.5 1335.51,-688.5 1439.51,-688.5 1439.51,-642.5 1335.51,-642.5"/>
<text text-anchor="middle" x="1349.01" y="-673.3" font-family="Times,serif" font-size="14.00">A</text>
<polyline fill="none" stroke="black" points="1335.51,-665.5 1362.51,-665.5 "/>
<text text-anchor="middle" x="1349.01" y="-650.3" font-family="Times,serif" font-size="14.00">B</text>
<polyline fill="none" stroke="black" points="1362.51,-642.5 1362.51,-688.5 "/>
<text text-anchor="middle" x="1388.01" y="-669.3" font-family="Times,serif" font-size="14.00">$74</text>
<text text-anchor="middle" x="1388.01" y="-654.3" font-family="Times,serif" font-size="14.00">$sub</text>
<polyline fill="none" stroke="black" points="1413.51,-642.5 1413.51,-688.5 "/>
<text text-anchor="middle" x="1426.51" y="-661.8" font-family="Times,serif" font-size="14.00">Y</text>
</g>
<!-- n24&#45;&gt;c35 -->
<g id="edge57" class="edge">
<title>n24:e&#45;&gt;c35:w</title>
<path fill="none" stroke="#a6761d" stroke-width="3" d="M1282.62,-677.5C1301.9,-677.5 1309.09,-677.5 1324.4,-677.5"/>
<polygon fill="#a6761d" stroke="#a6761d" stroke-width="3" points="1324.51,-681 1334.51,-677.5 1324.51,-674 1324.51,-681"/>
</g>
<!-- n25 -->
<g id="node25" class="node">
<title>n25</title>
<polygon fill="none" stroke="black" points="492.15,-59.5 427.13,-41.5 492.15,-23.5 557.17,-41.5 492.15,-59.5"/>
<text text-anchor="middle" x="492.15" y="-37.8" font-family="Times,serif" font-size="14.00">quarter</text>
</g>
<!-- c29 -->
<g id="node26" class="node">
<title>c29</title>
<polygon fill="none" stroke="black" points="439.65,-729.5 439.65,-775.5 544.65,-775.5 544.65,-729.5 439.65,-729.5"/>
<text text-anchor="middle" x="453.15" y="-760.3" font-family="Times,serif" font-size="14.00">A</text>
<polyline fill="none" stroke="black" points="439.65,-752.5 466.65,-752.5 "/>
<text text-anchor="middle" x="453.15" y="-737.3" font-family="Times,serif" font-size="14.00">B</text>
<polyline fill="none" stroke="black" points="466.65,-729.5 466.65,-775.5 "/>
<text text-anchor="middle" x="492.65" y="-756.3" font-family="Times,serif" font-size="14.00">$68</text>
<text text-anchor="middle" x="492.65" y="-741.3" font-family="Times,serif" font-size="14.00">$add</text>
<polyline fill="none" stroke="black" points="518.65,-729.5 518.65,-775.5 "/>
<text text-anchor="middle" x="531.65" y="-748.8" font-family="Times,serif" font-size="14.00">Y</text>
</g>
<!-- c29&#45;&gt;n6 -->
<g id="edge62" class="edge">
<title>c29:e&#45;&gt;n6:w</title>
<path fill="none" stroke="#7570b3" stroke-width="3" d="M546.15,-752.5C564.05,-752.5 570.93,-751.83 584.88,-751.59"/>
<polygon fill="#7570b3" stroke="#7570b3" stroke-width="3" points="585.27,-755.08 595.24,-751.5 585.22,-748.08 585.27,-755.08"/>
</g>
<!-- x0&#45;&gt;c29 -->
<g id="edge1" class="edge">
<title>x0:e&#45;&gt;c29:w</title>
<path fill="none" stroke="#e7298a" stroke-width="3" d="M378.05,-794.09C398.51,-788.92 405.67,-771.1 426.11,-765.92"/>
<polygon fill="none" stroke="#e7298a" stroke-width="3" points="377.97,-794.1 372.47,-798.77 366.05,-795.5 371.54,-790.83 377.97,-794.1"/>
<polygon fill="none" stroke="#e7298a" stroke-width="3" points="426.23,-765.91 431.72,-761.23 438.15,-764.5 432.66,-769.18 426.23,-765.91"/>
</g>
<!-- x1&#45;&gt;c29 -->
<g id="edge2" class="edge">
<title>x1:e&#45;&gt;c29:w</title>
<path fill="none" stroke="#e7298a" stroke-width="3" d="M378.27,-740.5C397.12,-740.5 407.05,-740.5 425.89,-740.5"/>
<polygon fill="none" stroke="#e7298a" stroke-width="3" points="378.05,-740.5 372.05,-744.5 366.05,-740.5 372.05,-736.5 378.05,-740.5"/>
<polygon fill="none" stroke="#e7298a" stroke-width="3" points="426.15,-740.5 432.15,-736.5 438.15,-740.5 432.15,-744.5 426.15,-740.5"/>
</g>
<!-- c30&#45;&gt;n11 -->
<g id="edge13" class="edge">
<title>c30:e&#45;&gt;n11:w</title>
<path fill="none" stroke="#e6ab02" stroke-width="3" d="M546.15,-681.5C564.46,-681.5 570.95,-686.99 585.2,-688.87"/>
<polygon fill="#e6ab02" stroke="#e6ab02" stroke-width="3" points="585.05,-692.37 595.24,-689.5 585.48,-685.38 585.05,-692.37"/>
</g>
<!-- x2&#45;&gt;c30 -->
<g id="edge3" class="edge">
<title>x2:e&#45;&gt;c30:w</title>
<path fill="none" stroke="#7570b3" stroke-width="3" d="M378.06,-647.61C397.91,-651.5 406.32,-664.52 426.19,-668.4"/>
<polygon fill="none" stroke="#7570b3" stroke-width="3" points="378,-647.6 371.65,-651.03 366.05,-646.5 372.39,-643.07 378,-647.6"/>
<polygon fill="none" stroke="#7570b3" stroke-width="3" points="426.2,-668.4 432.54,-664.97 438.15,-669.5 431.81,-672.93 426.2,-668.4"/>
</g>
<!-- c31 -->
<g id="node31" class="node">
<title>c31</title>
<polygon fill="none" stroke="black" points="2469.55,-453.5 2469.55,-499.5 2569.55,-499.5 2569.55,-453.5 2469.55,-453.5"/>
<text text-anchor="middle" x="2483.05" y="-484.3" font-family="Times,serif" font-size="14.00">A</text>
<polyline fill="none" stroke="black" points="2469.55,-476.5 2496.55,-476.5 "/>
<text text-anchor="middle" x="2483.05" y="-461.3" font-family="Times,serif" font-size="14.00">B</text>
<polyline fill="none" stroke="black" points="2496.55,-453.5 2496.55,-499.5 "/>
<text text-anchor="middle" x="2520.05" y="-480.3" font-family="Times,serif" font-size="14.00">$77</text>
<text text-anchor="middle" x="2520.05" y="-465.3" font-family="Times,serif" font-size="14.00">$div</text>
<polyline fill="none" stroke="black" points="2543.55,-453.5 2543.55,-499.5 "/>
<text text-anchor="middle" x="2556.55" y="-472.8" font-family="Times,serif" font-size="14.00">Y</text>
</g>
<!-- c31&#45;&gt;n22 -->
<g id="edge37" class="edge">
<title>c31:e&#45;&gt;n22:w</title>
<path fill="none" stroke="#e7298a" stroke-width="3" d="M2570.55,-476.5C2583.14,-476.5 2588.58,-476.5 2597.7,-476.5"/>
<polygon fill="#e7298a" stroke="#e7298a" stroke-width="3" points="2597.94,-480 2607.94,-476.5 2597.94,-473 2597.94,-480"/>
</g>
<!-- x3&#45;&gt;c31 -->
<g id="edge4" class="edge">
<title>x3:e&#45;&gt;c31:w</title>
<path fill="none" stroke="#e6ab02" stroke-width="3" d="M2443.07,-499.8C2448.04,-497.32 2451.68,-493.67 2456.65,-491.19"/>
<polygon fill="none" stroke="#e6ab02" stroke-width="3" points="2442.86,-499.85 2437.89,-505.08 2431.16,-502.5 2436.12,-497.27 2442.86,-499.85"/>
<polygon fill="none" stroke="#e6ab02" stroke-width="3" points="2456.84,-491.15 2461.81,-485.92 2468.55,-488.5 2463.58,-493.72 2456.84,-491.15"/>
</g>
<!-- x4&#45;&gt;c31 -->
<g id="edge5" class="edge">
<title>x4:e&#45;&gt;c31:w</title>
<path fill="none" stroke="#66a61e" stroke-width="3" d="M401.17,-471.42C506.04,-470.01 535.92,-450.5 646.64,-450.5 646.64,-450.5 646.64,-450.5 2232.76,-450.5 2333.54,-450.5 2361.38,-463.4 2456.31,-464.43"/>
<polygon fill="none" stroke="#66a61e" stroke-width="3" points="401.05,-471.42 395.07,-475.46 389.05,-471.5 395.02,-467.46 401.05,-471.42"/>
<polygon fill="none" stroke="#66a61e" stroke-width="3" points="2456.55,-464.44 2462.57,-460.47 2468.55,-464.5 2462.53,-468.47 2456.55,-464.44"/>
</g>
<!-- c32&#45;&gt;n7 -->
<g id="edge66" class="edge">
<title>c32:e&#45;&gt;n7:w</title>
<path fill="none" stroke="#d95f02" d="M838.03,-648.5C857.42,-648.5 864.59,-650.6 879.97,-651.28"/>
<polygon fill="#d95f02" stroke="#d95f02" points="880.06,-654.79 890.13,-651.5 880.2,-647.79 880.06,-654.79"/>
</g>
<!-- v5 -->
<g id="node35" class="node">
<title>v5</title>
<ellipse fill="none" stroke="black" cx="1878.08" cy="-496.5" rx="118.08" ry="18"/>
<text text-anchor="middle" x="1878.08" y="-492.8" font-family="Times,serif" font-size="14.00">16&#39;0111111111111111</text>
</g>
<!-- v5&#45;&gt;c33 -->
<g id="edge71" class="edge">
<title>v5:e&#45;&gt;c33:w</title>
<path fill="none" stroke="#e6ab02" stroke-width="3" d="M1996.37,-496.5C2009.3,-496.5 2014.52,-492.98 2023.83,-491.33"/>
<polygon fill="#e6ab02" stroke="#e6ab02" stroke-width="3" points="2024.2,-494.82 2033.87,-490.5 2023.62,-487.84 2024.2,-494.82"/>
</g>
<!-- c33&#45;&gt;n19 -->
<g id="edge31" class="edge">
<title>c33:e&#45;&gt;n19:w</title>
<path fill="none" stroke="#d95f02" stroke-width="3" d="M2141.87,-502.5C2154.5,-502.5 2159.95,-502.5 2169.11,-502.5"/>
<polygon fill="#d95f02" stroke="#d95f02" stroke-width="3" points="2169.37,-506 2179.37,-502.5 2169.37,-499 2169.37,-506"/>
</g>
<!-- c34&#45;&gt;n10 -->
<g id="edge9" class="edge">
<title>c34:e&#45;&gt;n10:w</title>
<path fill="none" stroke="#1b9e77" stroke-width="3" d="M840.03,-819.5C858.6,-819.5 865.39,-815.39 879.91,-813.97"/>
<polygon fill="#1b9e77" stroke="#1b9e77" stroke-width="3" points="880.3,-817.46 890.13,-813.5 879.98,-810.46 880.3,-817.46"/>
</g>
<!-- c35&#45;&gt;n14 -->
<g id="edge18" class="edge">
<title>c35:e&#45;&gt;n14:w</title>
<path fill="none" stroke="#e7298a" stroke-width="3" d="M1440.51,-665.5C1453.9,-665.5 1459.25,-669.09 1469,-670.72"/>
<polygon fill="#e7298a" stroke="#e7298a" stroke-width="3" points="1468.77,-674.21 1479.01,-671.5 1469.31,-667.23 1468.77,-674.21"/>
</g>
<!-- x6&#45;&gt;c35 -->
<g id="edge6" class="edge">
<title>x6:e&#45;&gt;c35:w</title>
<path fill="none" stroke="#d95f02" stroke-width="3" d="M707.85,-570.59C807.73,-572.07 836.37,-591.5 942.13,-591.5 942.13,-591.5 942.13,-591.5 1101.73,-591.5 1204.61,-591.5 1225.85,-648.75 1322.36,-653.22"/>
<polygon fill="none" stroke="#d95f02" stroke-width="3" points="707.64,-570.59 701.61,-574.54 695.64,-570.5 701.67,-566.54 707.64,-570.59"/>
<polygon fill="none" stroke="#d95f02" stroke-width="3" points="1322.51,-653.23 1328.6,-649.36 1334.51,-653.5 1328.42,-657.36 1322.51,-653.23"/>
</g>
<!-- c36&#45;&gt;n17 -->
<g id="edge25" class="edge">
<title>c36:e&#45;&gt;n17:w</title>
<path fill="none" stroke="#7570b3" stroke-width="3" d="M1723.79,-574.5C1765.12,-574.5 1777.99,-574.5 1814.65,-574.5"/>
<polygon fill="#7570b3" stroke="#7570b3" stroke-width="3" points="1815.08,-578 1825.08,-574.5 1815.08,-571 1815.08,-578"/>
</g>
<!-- x7&#45;&gt;c36 -->
<g id="edge7" class="edge">
<title>x7:e&#45;&gt;c36:w</title>
<path fill="none" stroke="#666666" stroke-width="3" d="M1160.85,-525.54C1356.79,-526.9 1411.7,-561.09 1607.61,-562.46"/>
<polygon fill="none" stroke="#666666" stroke-width="3" points="1160.73,-525.54 1154.71,-529.52 1148.73,-525.5 1154.74,-521.52 1160.73,-525.54"/>
<polygon fill="none" stroke="#666666" stroke-width="3" points="1607.79,-562.46 1613.81,-558.48 1619.79,-562.5 1613.78,-566.48 1607.79,-562.46"/>
</g>
<!-- c38&#45;&gt;n24 -->
<g id="edge56" class="edge">
<title>c38:e&#45;&gt;n24:w</title>
<path fill="none" stroke="#a6761d" stroke-width="3" d="M1155.23,-677.5C1173.4,-677.5 1180.29,-677.5 1194.59,-677.5"/>
<polygon fill="#a6761d" stroke="#a6761d" stroke-width="3" points="1194.62,-681 1204.62,-677.5 1194.62,-674 1194.62,-681"/>
</g>
<!-- x8&#45;&gt;n1 -->
<g id="edge8" class="edge">
<title>x8:e&#45;&gt;n1:w</title>
<path fill="none" stroke="#7570b3" stroke-width="3" d="M366.05,-406.5C388.6,-406.5 396.59,-405.02 415.04,-404.61"/>
<polygon fill="#7570b3" stroke="#7570b3" stroke-width="3" points="415.09,-408.11 425.05,-404.5 415.01,-401.11 415.09,-408.11"/>
</g>
<!-- x9&#45;&gt;n2 -->
<g id="edge34" class="edge">
<title>x9:e&#45;&gt;n2:w</title>
<path fill="none" stroke="#a6761d" stroke-width="3" d="M836.03,-754.5C849.92,-754.5 855.67,-754.5 866,-754.5"/>
<polygon fill="#a6761d" stroke="#a6761d" stroke-width="3" points="866.03,-758 876.03,-754.5 866.03,-751 866.03,-758"/>
</g>
<!-- x10&#45;&gt;n3 -->
<g id="edge59" class="edge">
<title>x10:e&#45;&gt;n3:w</title>
<path fill="none" stroke="#a6761d" stroke-width="3" d="M366.05,-341.5C388.58,-341.5 396.59,-341.5 415.04,-341.5"/>
<polygon fill="#a6761d" stroke="#a6761d" stroke-width="3" points="415.05,-345 425.05,-341.5 415.05,-338 415.05,-345"/>
</g>
<!-- x11&#45;&gt;n4 -->
<g id="edge60" class="edge">
<title>x11:e&#45;&gt;n4:w</title>
<path fill="none" stroke="#1b9e77" stroke-width="3" d="M366.05,-276.5C388.58,-276.5 396.59,-276.5 415.04,-276.5"/>
<polygon fill="#1b9e77" stroke="#1b9e77" stroke-width="3" points="415.05,-280 425.05,-276.5 415.05,-273 415.05,-280"/>
</g>
<!-- x12&#45;&gt;n5 -->
<g id="edge61" class="edge">
<title>x12:e&#45;&gt;n5:w</title>
<path fill="none" stroke="#e6ab02" stroke-width="3" d="M389.05,-211.5C401.05,-211.5 406.3,-211.5 414.92,-211.5"/>
<polygon fill="#e6ab02" stroke="#e6ab02" stroke-width="3" points="415.05,-215 425.05,-211.5 415.05,-208 415.05,-215"/>
</g>
<!-- x13&#45;&gt;n8 -->
<g id="edge68" class="edge">
<title>x13:e&#45;&gt;n8:w</title>
<path fill="none" stroke="#1b9e77" d="M1148.73,-836.5C1163.63,-836.5 1169.71,-835.88 1180.9,-835.61"/>
<polygon fill="#1b9e77" stroke="#1b9e77" points="1181.27,-839.11 1191.23,-835.5 1181.19,-832.11 1181.27,-839.11"/>
</g>
<!-- x14&#45;&gt;n9 -->
<g id="edge70" class="edge">
<title>x14:e&#45;&gt;n9:w</title>
<path fill="none" stroke="#a6761d" stroke-width="3" d="M1443.01,-812.5C1455.01,-812.5 1460.26,-812.5 1468.88,-812.5"/>
<polygon fill="#a6761d" stroke="#a6761d" stroke-width="3" points="1469.01,-816 1479.01,-812.5 1469.01,-809 1469.01,-816"/>
</g>
<!-- x15&#45;&gt;n12 -->
<g id="edge15" class="edge">
<title>x15:e&#45;&gt;n12:w</title>
<path fill="none" stroke="#a6761d" d="M1719.79,-720.5C1762.95,-720.5 1776.23,-723.05 1814.72,-723.45"/>
<polygon fill="#a6761d" stroke="#a6761d" points="1815.07,-726.95 1825.08,-723.5 1815.1,-719.95 1815.07,-726.95"/>
</g>
<!-- x16&#45;&gt;n13 -->
<g id="edge17" class="edge">
<title>x16:e&#45;&gt;n13:w</title>
<path fill="none" stroke="#7570b3" stroke-width="3" d="M2143.37,-715.5C2155.37,-715.5 2160.62,-715.5 2169.25,-715.5"/>
<polygon fill="#7570b3" stroke="#7570b3" stroke-width="3" points="2169.37,-719 2179.37,-715.5 2169.37,-712 2169.37,-719"/>
</g>
<!-- x17&#45;&gt;n15 -->
<g id="edge22" class="edge">
<title>x17:e&#45;&gt;n15:w</title>
<path fill="none" stroke="#1b9e77" d="M2135.87,-655.5C2151.28,-655.5 2157.48,-655.5 2169.14,-655.5"/>
<polygon fill="#1b9e77" stroke="#1b9e77" points="2169.37,-659 2179.37,-655.5 2169.37,-652 2169.37,-659"/>
</g>
<!-- x18&#45;&gt;n16 -->
<g id="edge24" class="edge">
<title>x18:e&#45;&gt;n16:w</title>
<path fill="none" stroke="#666666" stroke-width="3" d="M2431.16,-631.5C2443.16,-631.5 2448.41,-631.5 2457.03,-631.5"/>
<polygon fill="#666666" stroke="#666666" stroke-width="3" points="2457.16,-635 2467.16,-631.5 2457.16,-628 2457.16,-635"/>
</g>
<!-- x19&#45;&gt;n18 -->
<g id="edge30" class="edge">
<title>x19:e&#45;&gt;n18:w</title>
<path fill="none" stroke="#7570b3" stroke-width="3" d="M2115.87,-562.5C2140.35,-562.5 2148.9,-562.5 2169.15,-562.5"/>
<polygon fill="#7570b3" stroke="#7570b3" stroke-width="3" points="2169.37,-566 2179.37,-562.5 2169.37,-559 2169.37,-566"/>
</g>
<!-- x20&#45;&gt;n20 -->
<g id="edge35" class="edge">
<title>x20:e&#45;&gt;n20:w</title>
<path fill="none" stroke="#a6761d" stroke-width="3" d="M366.05,-151.5C394.86,-151.5 404.51,-151.5 428.97,-151.5"/>
<polygon fill="#a6761d" stroke="#a6761d" stroke-width="3" points="429.15,-155 439.15,-151.5 429.15,-148 429.15,-155"/>
</g>
<!-- x21&#45;&gt;n21 -->
<g id="edge36" class="edge">
<title>x21:e&#45;&gt;n21:w</title>
<path fill="none" stroke="#e7298a" stroke-width="3" d="M366.05,-96.5C400.18,-96.5 411.21,-96.5 440.82,-96.5"/>
<polygon fill="#e7298a" stroke="#e7298a" stroke-width="3" points="441.15,-100 451.15,-96.5 441.15,-93 441.15,-100"/>
</g>
<!-- x22&#45;&gt;n25 -->
<g id="edge58" class="edge">
<title>x22:e&#45;&gt;n25:w</title>
<path fill="none" stroke="#d95f02" stroke-width="3" d="M366.05,-41.5C389,-41.5 397.16,-41.5 415.95,-41.5"/>
<polygon fill="#d95f02" stroke="#d95f02" stroke-width="3" points="416.15,-45 426.15,-41.5 416.15,-38 416.15,-45"/>
</g>
</g>
</svg>
