<?xml version="1.0" encoding="UTF-8" standalone="no"?>
<!DOCTYPE svg PUBLIC "-//W3C//DTD SVG 1.1//EN"
 "http://www.w3.org/Graphics/SVG/1.1/DTD/svg11.dtd">
<!-- Generated by graphviz version 2.43.20190912.0211 (20190912.0211)
 -->
<!-- Title: Triangle Pages: 1 -->
<svg width="6485pt" height="519pt"
 viewBox="0.00 0.00 6484.70 519.00" xmlns="http://www.w3.org/2000/svg" xmlns:xlink="http://www.w3.org/1999/xlink">
<g id="graph0" class="graph" transform="scale(1 1) rotate(0) translate(4 515)">
<title>Triangle</title>
<polygon fill="white" stroke="transparent" points="-4,4 -4,-515 6480.7,-515 6480.7,4 -4,4"/>
<text text-anchor="middle" x="3238.35" y="-7.8" font-family="Times,serif" font-size="14.00">Triangle</text>
<!-- n12 -->
<g id="node1" class="node">
<title>n12</title>
<polygon fill="none" stroke="black" points="1086.86,-64.5 1019.67,-46.5 1086.86,-28.5 1154.06,-46.5 1086.86,-64.5"/>
<text text-anchor="middle" x="1086.86" y="-42.8" font-family="Times,serif" font-size="14.00">_GEN_8</text>
</g>
<!-- x0 -->
<g id="node29" class="node">
<title>x0</title>
<path fill="none" stroke="black" d="M1201.96,-32.5C1201.96,-32.5 1288.96,-32.5 1288.96,-32.5 1294.96,-32.5 1300.96,-38.5 1300.96,-44.5 1300.96,-44.5 1300.96,-66.5 1300.96,-66.5 1300.96,-72.5 1294.96,-78.5 1288.96,-78.5 1288.96,-78.5 1201.96,-78.5 1201.96,-78.5 1195.96,-78.5 1189.96,-72.5 1189.96,-66.5 1189.96,-66.5 1189.96,-44.5 1189.96,-44.5 1189.96,-38.5 1195.96,-32.5 1201.96,-32.5"/>
<text text-anchor="middle" x="1245.46" y="-63.3" font-family="Times,serif" font-size="14.00">47:47 &#45; 48:48</text>
<polyline fill="none" stroke="black" points="1189.96,-55.5 1300.96,-55.5 "/>
<text text-anchor="middle" x="1245.46" y="-40.3" font-family="Times,serif" font-size="14.00">47:0 &#45; 47:0</text>
</g>
<!-- n12&#45;&gt;x0 -->
<g id="edge8" class="edge">
<title>n12:e&#45;&gt;x0:w</title>
<path fill="none" stroke="#666666" stroke-width="3" d="M1153.96,-46.5C1166,-46.5 1171.2,-44.81 1179.82,-43.97"/>
<polygon fill="#666666" stroke="#666666" stroke-width="3" points="1180.13,-47.46 1189.96,-43.5 1179.81,-40.47 1180.13,-47.46"/>
</g>
<!-- n12&#45;&gt;x0 -->
<g id="edge9" class="edge">
<title>n12:e&#45;&gt;x0:w</title>
<path fill="none" stroke="#666666" stroke-width="3" d="M1153.96,-46.5C1168.43,-46.5 1170.96,-59.32 1180.21,-64.92"/>
<polygon fill="#666666" stroke="#666666" stroke-width="3" points="1179.4,-68.33 1189.96,-67.5 1181.19,-61.56 1179.4,-68.33"/>
</g>
<!-- n13 -->
<g id="node2" class="node">
<title>n13</title>
<polygon fill="none" stroke="black" points="738.67,-76.5 686.38,-58.5 738.67,-40.5 790.95,-58.5 738.67,-76.5"/>
<text text-anchor="middle" x="738.67" y="-54.8" font-family="Times,serif" font-size="14.00">_T_37</text>
</g>
<!-- x28 -->
<g id="node67" class="node">
<title>x28</title>
<path fill="none" stroke="black" d="M853.77,-23.5C853.77,-23.5 971.77,-23.5 971.77,-23.5 977.77,-23.5 983.77,-29.5 983.77,-35.5 983.77,-35.5 983.77,-57.5 983.77,-57.5 983.77,-63.5 977.77,-69.5 971.77,-69.5 971.77,-69.5 853.77,-69.5 853.77,-69.5 847.77,-69.5 841.77,-63.5 841.77,-57.5 841.77,-57.5 841.77,-35.5 841.77,-35.5 841.77,-29.5 847.77,-23.5 853.77,-23.5"/>
<text text-anchor="middle" x="912.77" y="-54.3" font-family="Times,serif" font-size="14.00">18x 29:29 &#45; 47:30</text>
<polyline fill="none" stroke="black" points="841.77,-46.5 983.77,-46.5 "/>
<text text-anchor="middle" x="912.77" y="-31.3" font-family="Times,serif" font-size="14.00">29:0 &#45; 29:0</text>
</g>
<!-- n13&#45;&gt;x28 -->
<g id="edge11" class="edge">
<title>n13:e&#45;&gt;x28:w</title>
<path fill="none" stroke="#7570b3" stroke-width="3" d="M791.67,-58.5C812.5,-58.5 816.27,-41.41 831.76,-36.07"/>
<polygon fill="#7570b3" stroke="#7570b3" stroke-width="3" points="832.43,-39.51 841.77,-34.5 831.34,-32.6 832.43,-39.51"/>
</g>
<!-- n13&#45;&gt;x28 -->
<g id="edge12" class="edge">
<title>n13:e&#45;&gt;x28:w</title>
<path fill="none" stroke="#7570b3" stroke-width="3" d="M791.67,-58.5C810.11,-58.5 817.09,-58.5 831.59,-58.5"/>
<polygon fill="#7570b3" stroke="#7570b3" stroke-width="3" points="831.77,-62 841.77,-58.5 831.77,-55 831.77,-62"/>
</g>
<!-- n14 -->
<g id="node3" class="node">
<title>n14</title>
<polygon fill="none" stroke="black" points="5850.69,-140.5 5798.4,-122.5 5850.69,-104.5 5902.97,-122.5 5850.69,-140.5"/>
<text text-anchor="middle" x="5850.69" y="-118.8" font-family="Times,serif" font-size="14.00">_T_36</text>
</g>
<!-- x1 -->
<g id="node30" class="node">
<title>x1</title>
<path fill="none" stroke="black" d="M5951.08,-87.5C5951.08,-87.5 6038.08,-87.5 6038.08,-87.5 6044.08,-87.5 6050.08,-93.5 6050.08,-99.5 6050.08,-99.5 6050.08,-121.5 6050.08,-121.5 6050.08,-127.5 6044.08,-133.5 6038.08,-133.5 6038.08,-133.5 5951.08,-133.5 5951.08,-133.5 5945.08,-133.5 5939.08,-127.5 5939.08,-121.5 5939.08,-121.5 5939.08,-99.5 5939.08,-99.5 5939.08,-93.5 5945.08,-87.5 5951.08,-87.5"/>
<text text-anchor="middle" x="5994.58" y="-118.3" font-family="Times,serif" font-size="14.00">47:47 &#45; 48:48</text>
<polyline fill="none" stroke="black" points="5939.08,-110.5 6050.08,-110.5 "/>
<text text-anchor="middle" x="5994.58" y="-95.3" font-family="Times,serif" font-size="14.00">47:0 &#45; 47:0</text>
</g>
<!-- n14&#45;&gt;x1 -->
<g id="edge14" class="edge">
<title>n14:e&#45;&gt;x1:w</title>
<path fill="none" stroke="#1b9e77" stroke-width="3" d="M5903.08,-122.5C5918.25,-122.5 5919.92,-107.56 5929.4,-101.25"/>
<polygon fill="#1b9e77" stroke="#1b9e77" stroke-width="3" points="5930.42,-104.6 5939.08,-98.5 5928.5,-97.87 5930.42,-104.6"/>
</g>
<!-- n14&#45;&gt;x1 -->
<g id="edge15" class="edge">
<title>n14:e&#45;&gt;x1:w</title>
<path fill="none" stroke="#1b9e77" stroke-width="3" d="M5903.08,-122.5C5915.08,-122.5 5920.33,-122.5 5928.95,-122.5"/>
<polygon fill="#1b9e77" stroke="#1b9e77" stroke-width="3" points="5929.08,-126 5939.08,-122.5 5929.08,-119 5929.08,-126"/>
</g>
<!-- n15 -->
<g id="node4" class="node">
<title>n15</title>
<polygon fill="none" stroke="black" points="4830.96,-214.5 4778.67,-196.5 4830.96,-178.5 4883.24,-196.5 4830.96,-214.5"/>
<text text-anchor="middle" x="4830.96" y="-192.8" font-family="Times,serif" font-size="14.00">_T_34</text>
</g>
<!-- x3 -->
<g id="node33" class="node">
<title>x3</title>
<path fill="none" stroke="black" d="M5165.82,-161.5C5165.82,-161.5 5283.82,-161.5 5283.82,-161.5 5289.82,-161.5 5295.82,-167.5 5295.82,-173.5 5295.82,-173.5 5295.82,-195.5 5295.82,-195.5 5295.82,-201.5 5289.82,-207.5 5283.82,-207.5 5283.82,-207.5 5165.82,-207.5 5165.82,-207.5 5159.82,-207.5 5153.82,-201.5 5153.82,-195.5 5153.82,-195.5 5153.82,-173.5 5153.82,-173.5 5153.82,-167.5 5159.82,-161.5 5165.82,-161.5"/>
<text text-anchor="middle" x="5224.82" y="-192.3" font-family="Times,serif" font-size="14.00">16x 31:31 &#45; 47:32</text>
<polyline fill="none" stroke="black" points="5153.82,-184.5 5295.82,-184.5 "/>
<text text-anchor="middle" x="5224.82" y="-169.3" font-family="Times,serif" font-size="14.00">31:0 &#45; 31:0</text>
</g>
<!-- n15&#45;&gt;x3 -->
<g id="edge17" class="edge">
<title>n15:e&#45;&gt;x3:w</title>
<path fill="none" stroke="#e6ab02" stroke-width="3" d="M4883.35,-196.5C5000.18,-196.5 5030.87,-173.84 5142.82,-172.56"/>
<polygon fill="#e6ab02" stroke="#e6ab02" stroke-width="3" points="5142.84,-176.06 5152.82,-172.5 5142.8,-169.06 5142.84,-176.06"/>
</g>
<!-- n15&#45;&gt;x3 -->
<g id="edge18" class="edge">
<title>n15:e&#45;&gt;x3:w</title>
<path fill="none" stroke="#e6ab02" stroke-width="3" d="M4883.35,-196.5C4999.61,-196.5 5031.23,-196.5 5142.52,-196.5"/>
<polygon fill="#e6ab02" stroke="#e6ab02" stroke-width="3" points="5142.82,-200 5152.82,-196.5 5142.82,-193 5142.82,-200"/>
</g>
<!-- n16 -->
<g id="node5" class="node">
<title>n16</title>
<polygon fill="none" stroke="black" points="4600.17,-216.5 4547.89,-198.5 4600.17,-180.5 4652.46,-198.5 4600.17,-216.5"/>
<text text-anchor="middle" x="4600.17" y="-194.8" font-family="Times,serif" font-size="14.00">_T_33</text>
</g>
<!-- x25 -->
<g id="node64" class="node">
<title>x25</title>
<path fill="none" stroke="black" d="M4730.57,-215.5C4730.57,-215.5 4700.57,-215.5 4700.57,-215.5 4694.57,-215.5 4688.57,-209.5 4688.57,-203.5 4688.57,-203.5 4688.57,-191.5 4688.57,-191.5 4688.57,-185.5 4694.57,-179.5 4700.57,-179.5 4700.57,-179.5 4730.57,-179.5 4730.57,-179.5 4736.57,-179.5 4742.57,-185.5 4742.57,-191.5 4742.57,-191.5 4742.57,-203.5 4742.57,-203.5 4742.57,-209.5 4736.57,-215.5 4730.57,-215.5"/>
<text text-anchor="middle" x="4715.57" y="-193.8" font-family="Times,serif" font-size="14.00">BUF</text>
</g>
<!-- n16&#45;&gt;x25 -->
<g id="edge20" class="edge">
<title>n16:e&#45;&gt;x25:w</title>
<path fill="none" stroke="#a6761d" stroke-width="3" d="M4652.57,-198.5C4664.57,-198.5 4669.81,-197.94 4678.44,-197.66"/>
<polygon fill="#a6761d" stroke="#a6761d" stroke-width="3" points="4678.62,-201.15 4688.57,-197.5 4678.51,-194.15 4678.62,-201.15"/>
</g>
<!-- n17 -->
<g id="node6" class="node">
<title>n17</title>
<polygon fill="none" stroke="black" points="4330.39,-231.5 4278.11,-213.5 4330.39,-195.5 4382.67,-213.5 4330.39,-231.5"/>
<text text-anchor="middle" x="4330.39" y="-209.8" font-family="Times,serif" font-size="14.00">_T_32</text>
</g>
<!-- x24 -->
<g id="node63" class="node">
<title>x24</title>
<path fill="none" stroke="black" d="M4430.78,-195.5C4430.78,-195.5 4499.78,-195.5 4499.78,-195.5 4505.78,-195.5 4511.78,-201.5 4511.78,-207.5 4511.78,-207.5 4511.78,-219.5 4511.78,-219.5 4511.78,-225.5 4505.78,-231.5 4499.78,-231.5 4499.78,-231.5 4430.78,-231.5 4430.78,-231.5 4424.78,-231.5 4418.78,-225.5 4418.78,-219.5 4418.78,-219.5 4418.78,-207.5 4418.78,-207.5 4418.78,-201.5 4424.78,-195.5 4430.78,-195.5"/>
<text text-anchor="middle" x="4465.28" y="-209.8" font-family="Times,serif" font-size="14.00">31:0 &#45; 31:0</text>
</g>
<!-- n17&#45;&gt;x24 -->
<g id="edge22" class="edge">
<title>n17:e&#45;&gt;x24:w</title>
<path fill="none" stroke="#7570b3" stroke-width="3" d="M4382.78,-213.5C4394.78,-213.5 4400.03,-213.5 4408.66,-213.5"/>
<polygon fill="#7570b3" stroke="#7570b3" stroke-width="3" points="4408.78,-217 4418.78,-213.5 4408.78,-210 4408.78,-217"/>
</g>
<!-- n18 -->
<g id="node7" class="node">
<title>n18</title>
<polygon fill="none" stroke="black" points="4099.61,-231.5 4047.32,-213.5 4099.61,-195.5 4151.89,-213.5 4099.61,-231.5"/>
<text text-anchor="middle" x="4099.61" y="-209.8" font-family="Times,serif" font-size="14.00">_T_31</text>
</g>
<!-- x23 -->
<g id="node62" class="node">
<title>x23</title>
<path fill="none" stroke="black" d="M4230,-231.5C4230,-231.5 4200,-231.5 4200,-231.5 4194,-231.5 4188,-225.5 4188,-219.5 4188,-219.5 4188,-207.5 4188,-207.5 4188,-201.5 4194,-195.5 4200,-195.5 4200,-195.5 4230,-195.5 4230,-195.5 4236,-195.5 4242,-201.5 4242,-207.5 4242,-207.5 4242,-219.5 4242,-219.5 4242,-225.5 4236,-231.5 4230,-231.5"/>
<text text-anchor="middle" x="4215" y="-209.8" font-family="Times,serif" font-size="14.00">BUF</text>
</g>
<!-- n18&#45;&gt;x23 -->
<g id="edge24" class="edge">
<title>n18:e&#45;&gt;x23:w</title>
<path fill="none" stroke="#e7298a" stroke-width="3" d="M4152,-213.5C4164,-213.5 4169.25,-213.5 4177.87,-213.5"/>
<polygon fill="#e7298a" stroke="#e7298a" stroke-width="3" points="4178,-217 4188,-213.5 4178,-210 4178,-217"/>
</g>
<!-- n19 -->
<g id="node8" class="node">
<title>n19</title>
<polygon fill="none" stroke="black" points="3728.82,-297.5 3676.54,-279.5 3728.82,-261.5 3781.11,-279.5 3728.82,-297.5"/>
<text text-anchor="middle" x="3728.82" y="-275.8" font-family="Times,serif" font-size="14.00">_T_30</text>
</g>
<!-- c44 -->
<g id="node34" class="node">
<title>c44</title>
<polygon fill="none" stroke="black" points="3817.21,-221.5 3817.21,-267.5 3921.21,-267.5 3921.21,-221.5 3817.21,-221.5"/>
<text text-anchor="middle" x="3830.71" y="-252.3" font-family="Times,serif" font-size="14.00">A</text>
<polyline fill="none" stroke="black" points="3817.21,-244.5 3844.21,-244.5 "/>
<text text-anchor="middle" x="3830.71" y="-229.3" font-family="Times,serif" font-size="14.00">B</text>
<polyline fill="none" stroke="black" points="3844.21,-221.5 3844.21,-267.5 "/>
<text text-anchor="middle" x="3869.71" y="-248.3" font-family="Times,serif" font-size="14.00">$75</text>
<text text-anchor="middle" x="3869.71" y="-233.3" font-family="Times,serif" font-size="14.00">$sub</text>
<polyline fill="none" stroke="black" points="3895.21,-221.5 3895.21,-267.5 "/>
<text text-anchor="middle" x="3908.21" y="-240.8" font-family="Times,serif" font-size="14.00">Y</text>
</g>
<!-- n19&#45;&gt;c44 -->
<g id="edge26" class="edge">
<title>n19:e&#45;&gt;c44:w</title>
<path fill="none" stroke="#1b9e77" stroke-width="3" d="M3781.21,-279.5C3796.05,-279.5 3798.09,-265.46 3807.32,-259.32"/>
<polygon fill="#1b9e77" stroke="#1b9e77" stroke-width="3" points="3808.56,-262.61 3817.21,-256.5 3806.64,-255.88 3808.56,-262.61"/>
</g>
<!-- n20 -->
<g id="node9" class="node">
<title>n20</title>
<polygon fill="none" stroke="black" points="3459.04,-299.5 3406.75,-281.5 3459.04,-263.5 3511.32,-281.5 3459.04,-299.5"/>
<text text-anchor="middle" x="3459.04" y="-277.8" font-family="Times,serif" font-size="14.00">_T_29</text>
</g>
<!-- x21 -->
<g id="node60" class="node">
<title>x21</title>
<path fill="none" stroke="black" d="M3559.43,-262.5C3559.43,-262.5 3628.43,-262.5 3628.43,-262.5 3634.43,-262.5 3640.43,-268.5 3640.43,-274.5 3640.43,-274.5 3640.43,-286.5 3640.43,-286.5 3640.43,-292.5 3634.43,-298.5 3628.43,-298.5 3628.43,-298.5 3559.43,-298.5 3559.43,-298.5 3553.43,-298.5 3547.43,-292.5 3547.43,-286.5 3547.43,-286.5 3547.43,-274.5 3547.43,-274.5 3547.43,-268.5 3553.43,-262.5 3559.43,-262.5"/>
<text text-anchor="middle" x="3593.93" y="-276.8" font-family="Times,serif" font-size="14.00">31:0 &#45; 31:0</text>
</g>
<!-- n20&#45;&gt;x21 -->
<g id="edge29" class="edge">
<title>n20:e&#45;&gt;x21:w</title>
<path fill="none" stroke="#7570b3" stroke-width="3" d="M3511.43,-281.5C3523.44,-281.5 3528.68,-280.94 3537.3,-280.66"/>
<polygon fill="#7570b3" stroke="#7570b3" stroke-width="3" points="3537.49,-284.15 3547.43,-280.5 3537.38,-277.15 3537.49,-284.15"/>
</g>
<!-- n21 -->
<g id="node10" class="node">
<title>n21</title>
<polygon fill="none" stroke="black" points="3228.25,-299.5 3175.97,-281.5 3228.25,-263.5 3280.54,-281.5 3228.25,-299.5"/>
<text text-anchor="middle" x="3228.25" y="-277.8" font-family="Times,serif" font-size="14.00">_T_28</text>
</g>
<!-- x20 -->
<g id="node59" class="node">
<title>x20</title>
<path fill="none" stroke="black" d="M3358.65,-299.5C3358.65,-299.5 3328.65,-299.5 3328.65,-299.5 3322.65,-299.5 3316.65,-293.5 3316.65,-287.5 3316.65,-287.5 3316.65,-275.5 3316.65,-275.5 3316.65,-269.5 3322.65,-263.5 3328.65,-263.5 3328.65,-263.5 3358.65,-263.5 3358.65,-263.5 3364.65,-263.5 3370.65,-269.5 3370.65,-275.5 3370.65,-275.5 3370.65,-287.5 3370.65,-287.5 3370.65,-293.5 3364.65,-299.5 3358.65,-299.5"/>
<text text-anchor="middle" x="3343.65" y="-277.8" font-family="Times,serif" font-size="14.00">BUF</text>
</g>
<!-- n21&#45;&gt;x20 -->
<g id="edge31" class="edge">
<title>n21:e&#45;&gt;x20:w</title>
<path fill="none" stroke="#7570b3" stroke-width="3" d="M3280.65,-281.5C3292.65,-281.5 3297.9,-281.5 3306.52,-281.5"/>
<polygon fill="#7570b3" stroke="#7570b3" stroke-width="3" points="3306.65,-285 3316.65,-281.5 3306.65,-278 3306.65,-285"/>
</g>
<!-- n22 -->
<g id="node11" class="node">
<title>n22</title>
<polygon fill="none" stroke="black" points="1404.06,-265.5 1336.86,-247.5 1404.06,-229.5 1471.26,-247.5 1404.06,-265.5"/>
<text text-anchor="middle" x="1404.06" y="-243.8" font-family="Times,serif" font-size="14.00">_GEN_6</text>
</g>
<!-- c45 -->
<g id="node35" class="node">
<title>c45</title>
<polygon fill="none" stroke="black" points="2945.86,-261.5 2945.86,-307.5 3049.86,-307.5 3049.86,-261.5 2945.86,-261.5"/>
<text text-anchor="middle" x="2959.36" y="-292.3" font-family="Times,serif" font-size="14.00">A</text>
<polyline fill="none" stroke="black" points="2945.86,-284.5 2972.86,-284.5 "/>
<text text-anchor="middle" x="2959.36" y="-269.3" font-family="Times,serif" font-size="14.00">B</text>
<polyline fill="none" stroke="black" points="2972.86,-261.5 2972.86,-307.5 "/>
<text text-anchor="middle" x="2998.36" y="-288.3" font-family="Times,serif" font-size="14.00">$74</text>
<text text-anchor="middle" x="2998.36" y="-273.3" font-family="Times,serif" font-size="14.00">$sub</text>
<polyline fill="none" stroke="black" points="3023.86,-261.5 3023.86,-307.5 "/>
<text text-anchor="middle" x="3036.86" y="-280.8" font-family="Times,serif" font-size="14.00">Y</text>
</g>
<!-- n22&#45;&gt;c45 -->
<g id="edge33" class="edge">
<title>n22:e&#45;&gt;c45:w</title>
<path fill="none" stroke="#d95f02" stroke-width="3" d="M1471.16,-247.5C1585.52,-247.5 1613.99,-255.5 1728.36,-255.5 1728.36,-255.5 1728.36,-255.5 2654.99,-255.5 2781.07,-255.5 2814.62,-271.62 2935.82,-272.47"/>
<polygon fill="#d95f02" stroke="#d95f02" stroke-width="3" points="2935.85,-275.97 2945.86,-272.5 2935.87,-268.97 2935.85,-275.97"/>
</g>
<!-- n23 -->
<g id="node12" class="node">
<title>n23</title>
<polygon fill="none" stroke="black" points="2872.18,-368.5 2834.31,-350.5 2872.18,-332.5 2910.05,-350.5 2872.18,-368.5"/>
<text text-anchor="middle" x="2872.18" y="-346.8" font-family="Times,serif" font-size="14.00">pos</text>
</g>
<!-- n23&#45;&gt;c45 -->
<g id="edge35" class="edge">
<title>n23:e&#45;&gt;c45:w</title>
<path fill="none" stroke="#a6761d" stroke-width="3" d="M2909.86,-350.5C2934.43,-350.5 2922.34,-311.34 2936.03,-299.72"/>
<polygon fill="#a6761d" stroke="#a6761d" stroke-width="3" points="2937.45,-302.93 2945.86,-296.5 2935.27,-296.28 2937.45,-302.93"/>
</g>
<!-- n24 -->
<g id="node13" class="node">
<title>n24</title>
<polygon fill="none" stroke="black" points="1574.26,-505.5 1521.97,-487.5 1574.26,-469.5 1626.54,-487.5 1574.26,-505.5"/>
<text text-anchor="middle" x="1574.26" y="-483.8" font-family="Times,serif" font-size="14.00">_T_27</text>
</g>
<!-- c47 -->
<g id="node36" class="node">
<title>c47</title>
<polygon fill="none" stroke="black" points="2599.49,-394 2599.49,-463 2708.49,-463 2708.49,-394 2599.49,-394"/>
<text text-anchor="middle" x="2612.99" y="-447.8" font-family="Times,serif" font-size="14.00">A</text>
<polyline fill="none" stroke="black" points="2599.49,-440 2626.49,-440 "/>
<text text-anchor="middle" x="2612.99" y="-424.8" font-family="Times,serif" font-size="14.00">B</text>
<polyline fill="none" stroke="black" points="2599.49,-417 2626.49,-417 "/>
<text text-anchor="middle" x="2612.99" y="-401.8" font-family="Times,serif" font-size="14.00">S</text>
<polyline fill="none" stroke="black" points="2626.49,-394 2626.49,-463 "/>
<text text-anchor="middle" x="2654.49" y="-432.3" font-family="Times,serif" font-size="14.00">$73</text>
<text text-anchor="middle" x="2654.49" y="-417.3" font-family="Times,serif" font-size="14.00">$mux</text>
<polyline fill="none" stroke="black" points="2682.49,-394 2682.49,-463 "/>
<text text-anchor="middle" x="2695.49" y="-424.8" font-family="Times,serif" font-size="14.00">Y</text>
</g>
<!-- n24&#45;&gt;c47 -->
<g id="edge37" class="edge">
<title>n24:e&#45;&gt;c47:w</title>
<path fill="none" stroke="#a6761d" stroke-width="3" d="M1627.26,-487.5C1723.3,-487.5 1747.31,-487.5 1843.36,-487.5 1843.36,-487.5 1843.36,-487.5 2377.21,-487.5 2460.48,-487.5 2483.08,-489.12 2563.49,-467.5 2576.44,-464.02 2580.4,-456.49 2589.4,-453.15"/>
<polygon fill="#a6761d" stroke="#a6761d" stroke-width="3" points="2590.19,-456.57 2599.49,-451.5 2589.06,-449.66 2590.19,-456.57"/>
</g>
<!-- n25 -->
<g id="node14" class="node">
<title>n25</title>
<polygon fill="none" stroke="black" points="1245.46,-363.5 1193.18,-345.5 1245.46,-327.5 1297.75,-345.5 1245.46,-363.5"/>
<text text-anchor="middle" x="1245.46" y="-341.8" font-family="Times,serif" font-size="14.00">_T_26</text>
</g>
<!-- n26 -->
<g id="node15" class="node">
<title>n26</title>
<polygon fill="none" stroke="black" points="738.67,-322.5 671.47,-304.5 738.67,-286.5 805.86,-304.5 738.67,-322.5"/>
<text text-anchor="middle" x="738.67" y="-300.8" font-family="Times,serif" font-size="14.00">_GEN_5</text>
</g>
<!-- n26&#45;&gt;c44 -->
<g id="edge40" class="edge">
<title>n26:e&#45;&gt;c44:w</title>
<path fill="none" stroke="#e7298a" stroke-width="3" d="M805.77,-304.5C930.35,-304.5 961.28,-293.5 1085.86,-293.5 1085.86,-293.5 1085.86,-293.5 2654.99,-293.5 2809.33,-293.5 2842.52,-232.5 2996.86,-232.5 2996.86,-232.5 2996.86,-232.5 3594.93,-232.5 3690.25,-232.5 3716.59,-232.5 3807.06,-232.5"/>
<polygon fill="#e7298a" stroke="#e7298a" stroke-width="3" points="3807.21,-236 3817.21,-232.5 3807.21,-229 3807.21,-236"/>
</g>
<!-- c48 -->
<g id="node37" class="node">
<title>c48</title>
<polygon fill="none" stroke="black" points="860.27,-464.5 860.27,-510.5 965.27,-510.5 965.27,-464.5 860.27,-464.5"/>
<text text-anchor="middle" x="873.77" y="-495.3" font-family="Times,serif" font-size="14.00">A</text>
<polyline fill="none" stroke="black" points="860.27,-487.5 887.27,-487.5 "/>
<text text-anchor="middle" x="873.77" y="-472.3" font-family="Times,serif" font-size="14.00">B</text>
<polyline fill="none" stroke="black" points="887.27,-464.5 887.27,-510.5 "/>
<text text-anchor="middle" x="913.27" y="-491.3" font-family="Times,serif" font-size="14.00">$72</text>
<text text-anchor="middle" x="913.27" y="-476.3" font-family="Times,serif" font-size="14.00">$add</text>
<polyline fill="none" stroke="black" points="939.27,-464.5 939.27,-510.5 "/>
<text text-anchor="middle" x="952.27" y="-483.8" font-family="Times,serif" font-size="14.00">Y</text>
</g>
<!-- n26&#45;&gt;c48 -->
<g id="edge41" class="edge">
<title>n26:e&#45;&gt;c48:w</title>
<path fill="none" stroke="#e7298a" stroke-width="3" d="M805.77,-304.5C881.6,-304.5 788.74,-459.84 848.76,-474.41"/>
<polygon fill="#e7298a" stroke="#e7298a" stroke-width="3" points="848.44,-477.89 858.77,-475.5 849.2,-470.94 848.44,-477.89"/>
</g>
<!-- c49 -->
<g id="node38" class="node">
<title>c49</title>
<polygon fill="none" stroke="black" points="860.27,-322.5 860.27,-368.5 965.27,-368.5 965.27,-322.5 860.27,-322.5"/>
<text text-anchor="middle" x="873.77" y="-353.3" font-family="Times,serif" font-size="14.00">A</text>
<polyline fill="none" stroke="black" points="860.27,-345.5 887.27,-345.5 "/>
<text text-anchor="middle" x="873.77" y="-330.3" font-family="Times,serif" font-size="14.00">B</text>
<polyline fill="none" stroke="black" points="887.27,-322.5 887.27,-368.5 "/>
<text text-anchor="middle" x="913.27" y="-349.3" font-family="Times,serif" font-size="14.00">$71</text>
<text text-anchor="middle" x="913.27" y="-334.3" font-family="Times,serif" font-size="14.00">$add</text>
<polyline fill="none" stroke="black" points="939.27,-322.5 939.27,-368.5 "/>
<text text-anchor="middle" x="952.27" y="-341.8" font-family="Times,serif" font-size="14.00">Y</text>
</g>
<!-- n26&#45;&gt;c49 -->
<g id="edge42" class="edge">
<title>n26:e&#45;&gt;c49:w</title>
<path fill="none" stroke="#e7298a" stroke-width="3" d="M805.77,-304.5C828.63,-304.5 831.52,-325.53 848.45,-331.77"/>
<polygon fill="#e7298a" stroke="#e7298a" stroke-width="3" points="848.32,-335.3 858.77,-333.5 849.48,-328.4 848.32,-335.3"/>
</g>
<!-- n27 -->
<g id="node16" class="node">
<title>n27</title>
<polygon fill="none" stroke="black" points="2511.1,-458.5 2458.82,-440.5 2511.1,-422.5 2563.38,-440.5 2511.1,-458.5"/>
<text text-anchor="middle" x="2511.1" y="-436.8" font-family="Times,serif" font-size="14.00">_T_25</text>
</g>
<!-- n27&#45;&gt;c47 -->
<g id="edge44" class="edge">
<title>n27:e&#45;&gt;c47:w</title>
<path fill="none" stroke="#e7298a" stroke-width="3" d="M2563.49,-440.5C2576.27,-440.5 2580.67,-433.61 2589.39,-430.27"/>
<polygon fill="#e7298a" stroke="#e7298a" stroke-width="3" points="2590.25,-433.67 2599.49,-428.5 2589.04,-426.78 2590.25,-433.67"/>
</g>
<!-- n28 -->
<g id="node17" class="node">
<title>n28</title>
<polygon fill="none" stroke="black" points="2241.32,-365.5 2189.03,-347.5 2241.32,-329.5 2293.6,-347.5 2241.32,-365.5"/>
<text text-anchor="middle" x="2241.32" y="-343.8" font-family="Times,serif" font-size="14.00">_T_24</text>
</g>
<!-- x13 -->
<g id="node52" class="node">
<title>x13</title>
<path fill="none" stroke="black" d="M2341.71,-422.5C2341.71,-422.5 2410.71,-422.5 2410.71,-422.5 2416.71,-422.5 2422.71,-428.5 2422.71,-434.5 2422.71,-434.5 2422.71,-446.5 2422.71,-446.5 2422.71,-452.5 2416.71,-458.5 2410.71,-458.5 2410.71,-458.5 2341.71,-458.5 2341.71,-458.5 2335.71,-458.5 2329.71,-452.5 2329.71,-446.5 2329.71,-446.5 2329.71,-434.5 2329.71,-434.5 2329.71,-428.5 2335.71,-422.5 2341.71,-422.5"/>
<text text-anchor="middle" x="2376.21" y="-436.8" font-family="Times,serif" font-size="14.00">31:0 &#45; 31:0</text>
</g>
<!-- n28&#45;&gt;x13 -->
<g id="edge46" class="edge">
<title>n28:e&#45;&gt;x13:w</title>
<path fill="none" stroke="#a6761d" stroke-width="3" d="M2293.71,-347.5C2333.87,-347.5 2294.4,-423.88 2319.64,-438.2"/>
<polygon fill="#a6761d" stroke="#a6761d" stroke-width="3" points="2319.18,-441.69 2329.71,-440.5 2320.74,-434.86 2319.18,-441.69"/>
</g>
<!-- n29 -->
<g id="node18" class="node">
<title>n29</title>
<polygon fill="none" stroke="black" points="1959.75,-366.5 1907.46,-348.5 1959.75,-330.5 2012.03,-348.5 1959.75,-366.5"/>
<text text-anchor="middle" x="1959.75" y="-344.8" font-family="Times,serif" font-size="14.00">_T_23</text>
</g>
<!-- x12 -->
<g id="node51" class="node">
<title>x12</title>
<path fill="none" stroke="black" d="M2115.53,-366.5C2115.53,-366.5 2085.53,-366.5 2085.53,-366.5 2079.53,-366.5 2073.53,-360.5 2073.53,-354.5 2073.53,-354.5 2073.53,-342.5 2073.53,-342.5 2073.53,-336.5 2079.53,-330.5 2085.53,-330.5 2085.53,-330.5 2115.53,-330.5 2115.53,-330.5 2121.53,-330.5 2127.53,-336.5 2127.53,-342.5 2127.53,-342.5 2127.53,-354.5 2127.53,-354.5 2127.53,-360.5 2121.53,-366.5 2115.53,-366.5"/>
<text text-anchor="middle" x="2100.53" y="-344.8" font-family="Times,serif" font-size="14.00">BUF</text>
</g>
<!-- n29&#45;&gt;x12 -->
<g id="edge48" class="edge">
<title>n29:e&#45;&gt;x12:w</title>
<path fill="none" stroke="#d95f02" stroke-width="3" d="M2012.14,-348.5C2035.21,-348.5 2043.41,-348.5 2062.29,-348.5"/>
<polygon fill="#d95f02" stroke="#d95f02" stroke-width="3" points="2062.53,-352 2072.53,-348.5 2062.53,-345 2062.53,-352"/>
</g>
<!-- n30 -->
<g id="node19" class="node">
<title>n30</title>
<polygon fill="none" stroke="black" points="2100.53,-422.5 2048.25,-404.5 2100.53,-386.5 2152.82,-404.5 2100.53,-422.5"/>
<text text-anchor="middle" x="2100.53" y="-400.8" font-family="Times,serif" font-size="14.00">_T_20</text>
</g>
<!-- n30&#45;&gt;c47 -->
<g id="edge51" class="edge">
<title>n30:e&#45;&gt;c47:w</title>
<path fill="none" stroke="#1b9e77" d="M2152.92,-404.5C2348.01,-404.5 2399.28,-405.47 2589.44,-405.5"/>
<polygon fill="#1b9e77" stroke="#1b9e77" points="2589.49,-409 2599.49,-405.5 2589.49,-402 2589.49,-409"/>
</g>
<!-- n31 -->
<g id="node20" class="node">
<title>n31</title>
<polygon fill="none" stroke="black" points="1574.26,-357.5 1507.06,-339.5 1574.26,-321.5 1641.45,-339.5 1574.26,-357.5"/>
<text text-anchor="middle" x="1574.26" y="-335.8" font-family="Times,serif" font-size="14.00">_GEN_2</text>
</g>
<!-- c50 -->
<g id="node39" class="node">
<title>c50</title>
<polygon fill="none" stroke="black" points="1677.36,-326.5 1677.36,-372.5 1781.36,-372.5 1781.36,-326.5 1677.36,-326.5"/>
<text text-anchor="middle" x="1690.86" y="-357.3" font-family="Times,serif" font-size="14.00">A</text>
<polyline fill="none" stroke="black" points="1677.36,-349.5 1704.36,-349.5 "/>
<text text-anchor="middle" x="1690.86" y="-334.3" font-family="Times,serif" font-size="14.00">B</text>
<polyline fill="none" stroke="black" points="1704.36,-326.5 1704.36,-372.5 "/>
<text text-anchor="middle" x="1729.86" y="-353.3" font-family="Times,serif" font-size="14.00">$70</text>
<text text-anchor="middle" x="1729.86" y="-338.3" font-family="Times,serif" font-size="14.00">$sub</text>
<polyline fill="none" stroke="black" points="1755.36,-326.5 1755.36,-372.5 "/>
<text text-anchor="middle" x="1768.36" y="-345.8" font-family="Times,serif" font-size="14.00">Y</text>
</g>
<!-- n31&#45;&gt;c50 -->
<g id="edge53" class="edge">
<title>n31:e&#45;&gt;c50:w</title>
<path fill="none" stroke="#e6ab02" stroke-width="3" d="M1641.36,-339.5C1653.37,-339.5 1658.6,-338.38 1667.22,-337.81"/>
<polygon fill="#e6ab02" stroke="#e6ab02" stroke-width="3" points="1667.47,-341.31 1677.36,-337.5 1667.25,-334.31 1667.47,-341.31"/>
</g>
<!-- c51 -->
<g id="node40" class="node">
<title>c51</title>
<polygon fill="none" stroke="black" points="1680.86,-391.5 1680.86,-437.5 1777.86,-437.5 1777.86,-391.5 1680.86,-391.5"/>
<text text-anchor="middle" x="1694.36" y="-422.3" font-family="Times,serif" font-size="14.00">A</text>
<polyline fill="none" stroke="black" points="1680.86,-414.5 1707.86,-414.5 "/>
<text text-anchor="middle" x="1694.36" y="-399.3" font-family="Times,serif" font-size="14.00">B</text>
<polyline fill="none" stroke="black" points="1707.86,-391.5 1707.86,-437.5 "/>
<text text-anchor="middle" x="1729.86" y="-418.3" font-family="Times,serif" font-size="14.00">$69</text>
<text text-anchor="middle" x="1729.86" y="-403.3" font-family="Times,serif" font-size="14.00">$gt</text>
<polyline fill="none" stroke="black" points="1751.86,-391.5 1751.86,-437.5 "/>
<text text-anchor="middle" x="1764.86" y="-410.8" font-family="Times,serif" font-size="14.00">Y</text>
</g>
<!-- n31&#45;&gt;c51 -->
<g id="edge54" class="edge">
<title>n31:e&#45;&gt;c51:w</title>
<path fill="none" stroke="#e6ab02" stroke-width="3" d="M1641.36,-339.5C1669.97,-339.5 1652.57,-387.73 1669.68,-399.79"/>
<polygon fill="#e6ab02" stroke="#e6ab02" stroke-width="3" points="1668.78,-403.18 1679.36,-402.5 1670.67,-396.44 1668.78,-403.18"/>
</g>
<!-- n32 -->
<g id="node21" class="node">
<title>n32</title>
<polygon fill="none" stroke="black" points="1245.46,-194.5 1193.18,-176.5 1245.46,-158.5 1297.75,-176.5 1245.46,-194.5"/>
<text text-anchor="middle" x="1245.46" y="-172.8" font-family="Times,serif" font-size="14.00">_T_19</text>
</g>
<!-- x9 -->
<g id="node48" class="node">
<title>x9</title>
<path fill="none" stroke="black" d="M1369.56,-164.5C1369.56,-164.5 1438.56,-164.5 1438.56,-164.5 1444.56,-164.5 1450.56,-170.5 1450.56,-176.5 1450.56,-176.5 1450.56,-198.5 1450.56,-198.5 1450.56,-204.5 1444.56,-210.5 1438.56,-210.5 1438.56,-210.5 1369.56,-210.5 1369.56,-210.5 1363.56,-210.5 1357.56,-204.5 1357.56,-198.5 1357.56,-198.5 1357.56,-176.5 1357.56,-176.5 1357.56,-170.5 1363.56,-164.5 1369.56,-164.5"/>
<text text-anchor="middle" x="1404.06" y="-195.3" font-family="Times,serif" font-size="14.00">0 &#45;&gt; 31:31</text>
<polyline fill="none" stroke="black" points="1357.56,-187.5 1450.56,-187.5 "/>
<text text-anchor="middle" x="1404.06" y="-172.3" font-family="Times,serif" font-size="14.00">30:0 &#45; 30:0</text>
</g>
<!-- n32&#45;&gt;x9 -->
<g id="edge56" class="edge">
<title>n32:e&#45;&gt;x9:w</title>
<path fill="none" stroke="#7570b3" stroke-width="3" d="M1298.46,-176.5C1320.26,-176.5 1328.14,-175.77 1345.8,-175.56"/>
<polygon fill="#7570b3" stroke="#7570b3" stroke-width="3" points="1346.08,-179.06 1356.06,-175.5 1346.04,-172.06 1346.08,-179.06"/>
</g>
<!-- n33 -->
<g id="node22" class="node">
<title>n33</title>
<polygon fill="none" stroke="black" points="1245.46,-133.5 1193.18,-115.5 1245.46,-97.5 1297.75,-115.5 1245.46,-133.5"/>
<text text-anchor="middle" x="1245.46" y="-111.8" font-family="Times,serif" font-size="14.00">_T_18</text>
</g>
<!-- n34 -->
<g id="node23" class="node">
<title>n34</title>
<polygon fill="none" stroke="black" points="738.67,-182.5 671.47,-164.5 738.67,-146.5 805.86,-164.5 738.67,-182.5"/>
<text text-anchor="middle" x="738.67" y="-160.8" font-family="Times,serif" font-size="14.00">_GEN_1</text>
</g>
<!-- c52 -->
<g id="node41" class="node">
<title>c52</title>
<polygon fill="none" stroke="black" points="860.27,-153.5 860.27,-199.5 965.27,-199.5 965.27,-153.5 860.27,-153.5"/>
<text text-anchor="middle" x="873.77" y="-184.3" font-family="Times,serif" font-size="14.00">A</text>
<polyline fill="none" stroke="black" points="860.27,-176.5 887.27,-176.5 "/>
<text text-anchor="middle" x="873.77" y="-161.3" font-family="Times,serif" font-size="14.00">B</text>
<polyline fill="none" stroke="black" points="887.27,-153.5 887.27,-199.5 "/>
<text text-anchor="middle" x="913.27" y="-180.3" font-family="Times,serif" font-size="14.00">$68</text>
<text text-anchor="middle" x="913.27" y="-165.3" font-family="Times,serif" font-size="14.00">$add</text>
<polyline fill="none" stroke="black" points="939.27,-153.5 939.27,-199.5 "/>
<text text-anchor="middle" x="952.27" y="-172.8" font-family="Times,serif" font-size="14.00">Y</text>
</g>
<!-- n34&#45;&gt;c52 -->
<g id="edge59" class="edge">
<title>n34:e&#45;&gt;c52:w</title>
<path fill="none" stroke="#1b9e77" stroke-width="3" d="M805.77,-164.5C825.46,-164.5 832.8,-164.5 848.44,-164.5"/>
<polygon fill="#1b9e77" stroke="#1b9e77" stroke-width="3" points="848.77,-168 858.77,-164.5 848.77,-161 848.77,-168"/>
</g>
<!-- c53 -->
<g id="node42" class="node">
<title>c53</title>
<polygon fill="none" stroke="black" points="860.27,-88.5 860.27,-134.5 965.27,-134.5 965.27,-88.5 860.27,-88.5"/>
<text text-anchor="middle" x="873.77" y="-119.3" font-family="Times,serif" font-size="14.00">A</text>
<polyline fill="none" stroke="black" points="860.27,-111.5 887.27,-111.5 "/>
<text text-anchor="middle" x="873.77" y="-96.3" font-family="Times,serif" font-size="14.00">B</text>
<polyline fill="none" stroke="black" points="887.27,-88.5 887.27,-134.5 "/>
<text text-anchor="middle" x="913.27" y="-115.3" font-family="Times,serif" font-size="14.00">$67</text>
<text text-anchor="middle" x="913.27" y="-100.3" font-family="Times,serif" font-size="14.00">$add</text>
<polyline fill="none" stroke="black" points="939.27,-88.5 939.27,-134.5 "/>
<text text-anchor="middle" x="952.27" y="-107.8" font-family="Times,serif" font-size="14.00">Y</text>
</g>
<!-- n34&#45;&gt;c53 -->
<g id="edge60" class="edge">
<title>n34:e&#45;&gt;c53:w</title>
<path fill="none" stroke="#1b9e77" stroke-width="3" d="M805.77,-164.5C839.11,-164.5 825.38,-112.49 848.8,-101.52"/>
<polygon fill="#1b9e77" stroke="#1b9e77" stroke-width="3" points="849.66,-104.91 858.77,-99.5 848.27,-98.05 849.66,-104.91"/>
</g>
<!-- n35 -->
<g id="node24" class="node">
<title>n35</title>
<polygon fill="none" stroke="black" points="441.31,-199.5 376.29,-181.5 441.31,-163.5 506.33,-181.5 441.31,-199.5"/>
<text text-anchor="middle" x="441.31" y="-177.8" font-family="Times,serif" font-size="14.00">quarter</text>
</g>
<!-- x6 -->
<g id="node45" class="node">
<title>x6</title>
<path fill="none" stroke="black" d="M554.57,-159.5C554.57,-159.5 623.57,-159.5 623.57,-159.5 629.57,-159.5 635.57,-165.5 635.57,-171.5 635.57,-171.5 635.57,-193.5 635.57,-193.5 635.57,-199.5 629.57,-205.5 623.57,-205.5 623.57,-205.5 554.57,-205.5 554.57,-205.5 548.57,-205.5 542.57,-199.5 542.57,-193.5 542.57,-193.5 542.57,-171.5 542.57,-171.5 542.57,-165.5 548.57,-159.5 554.57,-159.5"/>
<text text-anchor="middle" x="589.07" y="-190.3" font-family="Times,serif" font-size="14.00">0 &#45;&gt; 30:30</text>
<polyline fill="none" stroke="black" points="542.57,-182.5 635.57,-182.5 "/>
<text text-anchor="middle" x="589.07" y="-167.3" font-family="Times,serif" font-size="14.00">29:0 &#45; 29:0</text>
</g>
<!-- n35&#45;&gt;x6 -->
<g id="edge64" class="edge">
<title>n35:e&#45;&gt;x6:w</title>
<path fill="none" stroke="#a6761d" stroke-width="3" d="M506.57,-181.5C519.25,-181.5 523.78,-175.18 532.51,-172.12"/>
<polygon fill="#a6761d" stroke="#a6761d" stroke-width="3" points="533.25,-175.55 542.57,-170.5 532.14,-168.64 533.25,-175.55"/>
</g>
<!-- x14 -->
<g id="node53" class="node">
<title>x14</title>
<path fill="none" stroke="black" d="M554.57,-278.5C554.57,-278.5 623.57,-278.5 623.57,-278.5 629.57,-278.5 635.57,-284.5 635.57,-290.5 635.57,-290.5 635.57,-312.5 635.57,-312.5 635.57,-318.5 629.57,-324.5 623.57,-324.5 623.57,-324.5 554.57,-324.5 554.57,-324.5 548.57,-324.5 542.57,-318.5 542.57,-312.5 542.57,-312.5 542.57,-290.5 542.57,-290.5 542.57,-284.5 548.57,-278.5 554.57,-278.5"/>
<text text-anchor="middle" x="589.07" y="-309.3" font-family="Times,serif" font-size="14.00">0 &#45;&gt; 31:30</text>
<polyline fill="none" stroke="black" points="542.57,-301.5 635.57,-301.5 "/>
<text text-anchor="middle" x="589.07" y="-286.3" font-family="Times,serif" font-size="14.00">29:0 &#45; 29:0</text>
</g>
<!-- n35&#45;&gt;x14 -->
<g id="edge62" class="edge">
<title>n35:e&#45;&gt;x14:w</title>
<path fill="none" stroke="#a6761d" stroke-width="3" d="M506.57,-181.5C553.21,-181.5 501.45,-273.28 532.72,-287.63"/>
<polygon fill="#a6761d" stroke="#a6761d" stroke-width="3" points="532.09,-291.07 542.57,-289.5 533.4,-284.19 532.09,-291.07"/>
</g>
<!-- x27 -->
<g id="node66" class="node">
<title>x27</title>
<path fill="none" stroke="black" d="M604.07,-108.5C604.07,-108.5 574.07,-108.5 574.07,-108.5 568.07,-108.5 562.07,-102.5 562.07,-96.5 562.07,-96.5 562.07,-84.5 562.07,-84.5 562.07,-78.5 568.07,-72.5 574.07,-72.5 574.07,-72.5 604.07,-72.5 604.07,-72.5 610.07,-72.5 616.07,-78.5 616.07,-84.5 616.07,-84.5 616.07,-96.5 616.07,-96.5 616.07,-102.5 610.07,-108.5 604.07,-108.5"/>
<text text-anchor="middle" x="589.07" y="-86.8" font-family="Times,serif" font-size="14.00">BUF</text>
</g>
<!-- n35&#45;&gt;x27 -->
<g id="edge63" class="edge">
<title>n35:e&#45;&gt;x27:w</title>
<path fill="none" stroke="#a6761d" stroke-width="3" d="M506.57,-181.5C549.84,-181.5 519.87,-104.82 551.13,-92.24"/>
<polygon fill="#a6761d" stroke="#a6761d" stroke-width="3" points="551.82,-95.67 561.07,-90.5 550.61,-88.77 551.82,-95.67"/>
</g>
<!-- n36 -->
<g id="node25" class="node">
<title>n36</title>
<polygon fill="none" stroke="black" points="738.67,-242.5 698.28,-224.5 738.67,-206.5 779.05,-224.5 738.67,-242.5"/>
<text text-anchor="middle" x="738.67" y="-220.8" font-family="Times,serif" font-size="14.00">half</text>
</g>
<!-- n36&#45;&gt;c52 -->
<g id="edge66" class="edge">
<title>n36:e&#45;&gt;c52:w</title>
<path fill="none" stroke="#e6ab02" stroke-width="3" d="M779.67,-224.5C814.52,-224.5 819.43,-195.19 848.43,-189.46"/>
<polygon fill="#e6ab02" stroke="#e6ab02" stroke-width="3" points="849.13,-192.91 858.77,-188.5 848.48,-185.94 849.13,-192.91"/>
</g>
<!-- n36&#45;&gt;c53 -->
<g id="edge67" class="edge">
<title>n36:e&#45;&gt;c53:w</title>
<path fill="none" stroke="#e6ab02" stroke-width="3" d="M779.67,-224.5C833.01,-224.5 805.87,-136.1 848.84,-124.7"/>
<polygon fill="#e6ab02" stroke="#e6ab02" stroke-width="3" points="849.26,-128.18 858.77,-123.5 848.42,-121.23 849.26,-128.18"/>
</g>
<!-- x18 -->
<g id="node57" class="node">
<title>x18</title>
<path fill="none" stroke="black" d="M878.27,-218.5C878.27,-218.5 947.27,-218.5 947.27,-218.5 953.27,-218.5 959.27,-224.5 959.27,-230.5 959.27,-230.5 959.27,-252.5 959.27,-252.5 959.27,-258.5 953.27,-264.5 947.27,-264.5 947.27,-264.5 878.27,-264.5 878.27,-264.5 872.27,-264.5 866.27,-258.5 866.27,-252.5 866.27,-252.5 866.27,-230.5 866.27,-230.5 866.27,-224.5 872.27,-218.5 878.27,-218.5"/>
<text text-anchor="middle" x="912.77" y="-249.3" font-family="Times,serif" font-size="14.00">0 &#45;&gt; 31:31</text>
<polyline fill="none" stroke="black" points="866.27,-241.5 959.27,-241.5 "/>
<text text-anchor="middle" x="912.77" y="-226.3" font-family="Times,serif" font-size="14.00">30:0 &#45; 30:0</text>
</g>
<!-- n36&#45;&gt;x18 -->
<g id="edge68" class="edge">
<title>n36:e&#45;&gt;x18:w</title>
<path fill="none" stroke="#e6ab02" stroke-width="3" d="M779.67,-224.5C813.85,-224.5 824.78,-228.57 854.43,-229.37"/>
<polygon fill="#e6ab02" stroke="#e6ab02" stroke-width="3" points="854.72,-232.87 864.77,-229.5 854.81,-225.87 854.72,-232.87"/>
</g>
<!-- n37 -->
<g id="node26" class="node">
<title>n37</title>
<polygon fill="none" stroke="black" points="6476.51,-76.04 6476.51,-90.96 6428.4,-101.5 6360.37,-101.5 6312.27,-90.96 6312.27,-76.04 6360.37,-65.5 6428.4,-65.5 6476.51,-76.04"/>
<text text-anchor="middle" x="6394.39" y="-79.8" font-family="Times,serif" font-size="14.00">io_sample_out</text>
</g>
<!-- n38 -->
<g id="node27" class="node">
<title>n38</title>
<polygon fill="none" stroke="black" points="211.07,-371.04 211.07,-385.96 149.24,-396.5 61.8,-396.5 -0.02,-385.96 -0.02,-371.04 61.8,-360.5 149.24,-360.5 211.07,-371.04"/>
<text text-anchor="middle" x="105.52" y="-374.8" font-family="Times,serif" font-size="14.00">io_wavelength_pos</text>
</g>
<!-- n38&#45;&gt;c48 -->
<g id="edge70" class="edge">
<title>n38:e&#45;&gt;c48:w</title>
<path fill="none" stroke="#1b9e77" stroke-width="3" d="M211.05,-378.5C246.43,-378.5 218.78,-428.22 247.05,-449.5 316.91,-502.1 352.85,-486.5 440.31,-486.5 440.31,-486.5 440.31,-486.5 590.07,-486.5 706.13,-486.5 737.39,-498.75 848.48,-499.47"/>
<polygon fill="#1b9e77" stroke="#1b9e77" stroke-width="3" points="848.75,-502.97 858.77,-499.5 848.78,-495.97 848.75,-502.97"/>
</g>
<!-- n38&#45;&gt;c49 -->
<g id="edge71" class="edge">
<title>n38:e&#45;&gt;c49:w</title>
<path fill="none" stroke="#1b9e77" stroke-width="3" d="M211.05,-378.5C313.33,-378.5 338.03,-358.5 440.31,-358.5 440.31,-358.5 440.31,-358.5 590.07,-358.5 705.99,-358.5 737.52,-357.56 848.5,-357.5"/>
<polygon fill="#1b9e77" stroke="#1b9e77" stroke-width="3" points="848.77,-361 858.77,-357.5 848.76,-354 848.77,-361"/>
</g>
<!-- n38&#45;&gt;c50 -->
<g id="edge72" class="edge">
<title>n38:e&#45;&gt;c50:w</title>
<path fill="none" stroke="#1b9e77" stroke-width="3" d="M211.05,-378.5C227.2,-378.5 230.98,-381.8 247.05,-383.5 332.69,-392.54 354.19,-397.5 440.31,-397.5 440.31,-397.5 440.31,-397.5 1405.06,-397.5 1510.98,-397.5 1536.39,-380.67 1641.36,-366.5 1653.36,-364.88 1658.52,-362.88 1667.17,-361.98"/>
<polygon fill="#1b9e77" stroke="#1b9e77" stroke-width="3" points="1667.53,-365.46 1677.36,-361.5 1667.2,-358.47 1667.53,-365.46"/>
</g>
<!-- n38&#45;&gt;c51 -->
<g id="edge73" class="edge">
<title>n38:e&#45;&gt;c51:w</title>
<path fill="none" stroke="#1b9e77" stroke-width="3" d="M211.05,-378.5C230.03,-378.5 229.36,-394.61 247.05,-401.5 328.32,-433.15 353.1,-435.5 440.31,-435.5 440.31,-435.5 440.31,-435.5 1405.06,-435.5 1523.58,-435.5 1555.59,-427 1669.21,-426.52"/>
<polygon fill="#1b9e77" stroke="#1b9e77" stroke-width="3" points="1669.36,-430.02 1679.36,-426.5 1669.35,-423.02 1669.36,-430.02"/>
</g>
<!-- x4 -->
<g id="node43" class="node">
<title>x4</title>
<path fill="none" stroke="black" d="M259.05,-272.5C259.05,-272.5 328.05,-272.5 328.05,-272.5 334.05,-272.5 340.05,-278.5 340.05,-284.5 340.05,-284.5 340.05,-296.5 340.05,-296.5 340.05,-302.5 334.05,-308.5 328.05,-308.5 328.05,-308.5 259.05,-308.5 259.05,-308.5 253.05,-308.5 247.05,-302.5 247.05,-296.5 247.05,-296.5 247.05,-284.5 247.05,-284.5 247.05,-278.5 253.05,-272.5 259.05,-272.5"/>
<text text-anchor="middle" x="293.55" y="-286.8" font-family="Times,serif" font-size="14.00">31:1 &#45; 30:0</text>
</g>
<!-- n38&#45;&gt;x4 -->
<g id="edge74" class="edge">
<title>n38:e&#45;&gt;x4:w</title>
<path fill="none" stroke="#1b9e77" stroke-width="3" d="M211.05,-378.5C249.18,-378.5 213.4,-306.85 237.1,-292.85"/>
<polygon fill="#1b9e77" stroke="#1b9e77" stroke-width="3" points="238.12,-296.21 247.05,-290.5 236.51,-289.4 238.12,-296.21"/>
</g>
<!-- x5 -->
<g id="node44" class="node">
<title>x5</title>
<path fill="none" stroke="black" d="M259.05,-175.5C259.05,-175.5 328.05,-175.5 328.05,-175.5 334.05,-175.5 340.05,-181.5 340.05,-187.5 340.05,-187.5 340.05,-199.5 340.05,-199.5 340.05,-205.5 334.05,-211.5 328.05,-211.5 328.05,-211.5 259.05,-211.5 259.05,-211.5 253.05,-211.5 247.05,-205.5 247.05,-199.5 247.05,-199.5 247.05,-187.5 247.05,-187.5 247.05,-181.5 253.05,-175.5 259.05,-175.5"/>
<text text-anchor="middle" x="293.55" y="-189.8" font-family="Times,serif" font-size="14.00">31:2 &#45; 29:0</text>
</g>
<!-- n38&#45;&gt;x5 -->
<g id="edge75" class="edge">
<title>n38:e&#45;&gt;x5:w</title>
<path fill="none" stroke="#1b9e77" stroke-width="3" d="M211.05,-378.5C291.05,-378.5 174.67,-209.75 237.02,-194.59"/>
<polygon fill="#1b9e77" stroke="#1b9e77" stroke-width="3" points="237.48,-198.06 247.05,-193.5 236.73,-191.1 237.48,-198.06"/>
</g>
<!-- c42 -->
<g id="node28" class="node">
<title>c42</title>
<polygon fill="none" stroke="black" points="6086.08,-60.5 6086.08,-106.5 6186.08,-106.5 6186.08,-60.5 6086.08,-60.5"/>
<text text-anchor="middle" x="6099.58" y="-91.3" font-family="Times,serif" font-size="14.00">A</text>
<polyline fill="none" stroke="black" points="6086.08,-83.5 6113.08,-83.5 "/>
<text text-anchor="middle" x="6099.58" y="-68.3" font-family="Times,serif" font-size="14.00">B</text>
<polyline fill="none" stroke="black" points="6113.08,-60.5 6113.08,-106.5 "/>
<text text-anchor="middle" x="6136.58" y="-87.3" font-family="Times,serif" font-size="14.00">$77</text>
<text text-anchor="middle" x="6136.58" y="-72.3" font-family="Times,serif" font-size="14.00">$div</text>
<polyline fill="none" stroke="black" points="6160.08,-60.5 6160.08,-106.5 "/>
<text text-anchor="middle" x="6173.08" y="-79.8" font-family="Times,serif" font-size="14.00">Y</text>
</g>
<!-- x29 -->
<g id="node68" class="node">
<title>x29</title>
<path fill="none" stroke="black" d="M6264.08,-101.5C6264.08,-101.5 6234.08,-101.5 6234.08,-101.5 6228.08,-101.5 6222.08,-95.5 6222.08,-89.5 6222.08,-89.5 6222.08,-77.5 6222.08,-77.5 6222.08,-71.5 6228.08,-65.5 6234.08,-65.5 6234.08,-65.5 6264.08,-65.5 6264.08,-65.5 6270.08,-65.5 6276.08,-71.5 6276.08,-77.5 6276.08,-77.5 6276.08,-89.5 6276.08,-89.5 6276.08,-95.5 6270.08,-101.5 6264.08,-101.5"/>
<text text-anchor="middle" x="6249.08" y="-79.8" font-family="Times,serif" font-size="14.00">BUF</text>
</g>
<!-- c42&#45;&gt;x29 -->
<g id="edge4" class="edge">
<title>c42:e&#45;&gt;x29:w</title>
<path fill="none" stroke="#e6ab02" stroke-width="3" d="M6186.08,-83.5C6198.08,-83.5 6203.33,-83.5 6211.95,-83.5"/>
<polygon fill="#e6ab02" stroke="#e6ab02" stroke-width="3" points="6212.08,-87 6222.08,-83.5 6212.08,-80 6212.08,-87"/>
</g>
<!-- x0&#45;&gt;c42 -->
<g id="edge1" class="edge">
<title>x0:e&#45;&gt;c42:w</title>
<path fill="none" stroke="#e7298a" stroke-width="3" d="M1313.06,-55.5C1424.16,-55.57 1456.37,-56.5 1573.26,-56.5 1573.26,-56.5 1573.26,-56.5 5851.69,-56.5 5951.9,-56.5 5979.51,-70.32 6073.91,-71.43"/>
<polygon fill="none" stroke="#e7298a" stroke-width="3" points="1312.96,-55.5 1306.96,-59.5 1300.96,-55.5 1306.96,-51.5 1312.96,-55.5"/>
<polygon fill="none" stroke="#e7298a" stroke-width="3" points="6074.08,-71.43 6080.1,-67.47 6086.08,-71.5 6080.06,-75.47 6074.08,-71.43"/>
</g>
<!-- x1&#45;&gt;c42 -->
<g id="edge2" class="edge">
<title>x1:e&#45;&gt;c42:w</title>
<path fill="none" stroke="#e7298a" stroke-width="3" d="M6061.87,-107.46C6066.41,-104.86 6069.75,-101.13 6074.29,-98.53"/>
<polygon fill="none" stroke="#e7298a" stroke-width="3" points="6061.7,-107.51 6056.89,-112.88 6050.08,-110.5 6054.89,-105.13 6061.7,-107.51"/>
<polygon fill="none" stroke="#e7298a" stroke-width="3" points="6074.46,-98.49 6079.27,-93.12 6086.08,-95.5 6081.27,-100.87 6074.46,-98.49"/>
</g>
<!-- v2 -->
<g id="node31" class="node">
<title>v2</title>
<ellipse fill="none" stroke="black" cx="5224.82" cy="-116.5" rx="305.45" ry="18"/>
<text text-anchor="middle" x="5224.82" y="-112.8" font-family="Times,serif" font-size="14.00">48&#39;000000000000000000000000000000000111111111111111</text>
</g>
<!-- c43 -->
<g id="node32" class="node">
<title>c43</title>
<polygon fill="none" stroke="black" points="5566.3,-105.5 5566.3,-151.5 5672.3,-151.5 5672.3,-105.5 5566.3,-105.5"/>
<text text-anchor="middle" x="5579.8" y="-136.3" font-family="Times,serif" font-size="14.00">A</text>
<polyline fill="none" stroke="black" points="5566.3,-128.5 5593.3,-128.5 "/>
<text text-anchor="middle" x="5579.8" y="-113.3" font-family="Times,serif" font-size="14.00">B</text>
<polyline fill="none" stroke="black" points="5593.3,-105.5 5593.3,-151.5 "/>
<text text-anchor="middle" x="5619.8" y="-132.3" font-family="Times,serif" font-size="14.00">$76</text>
<text text-anchor="middle" x="5619.8" y="-117.3" font-family="Times,serif" font-size="14.00">$mul</text>
<polyline fill="none" stroke="black" points="5646.3,-105.5 5646.3,-151.5 "/>
<text text-anchor="middle" x="5659.3" y="-124.8" font-family="Times,serif" font-size="14.00">Y</text>
</g>
<!-- v2&#45;&gt;c43 -->
<g id="edge82" class="edge">
<title>v2:e&#45;&gt;c43:w</title>
<path fill="none" stroke="#1b9e77" stroke-width="3" d="M5530.3,-116.5C5542.3,-116.5 5547.55,-116.5 5556.17,-116.5"/>
<polygon fill="#1b9e77" stroke="#1b9e77" stroke-width="3" points="5556.3,-120 5566.3,-116.5 5556.3,-113 5556.3,-120"/>
</g>
<!-- x26 -->
<g id="node65" class="node">
<title>x26</title>
<path fill="none" stroke="black" d="M5750.3,-142.5C5750.3,-142.5 5720.3,-142.5 5720.3,-142.5 5714.3,-142.5 5708.3,-136.5 5708.3,-130.5 5708.3,-130.5 5708.3,-118.5 5708.3,-118.5 5708.3,-112.5 5714.3,-106.5 5720.3,-106.5 5720.3,-106.5 5750.3,-106.5 5750.3,-106.5 5756.3,-106.5 5762.3,-112.5 5762.3,-118.5 5762.3,-118.5 5762.3,-130.5 5762.3,-130.5 5762.3,-136.5 5756.3,-142.5 5750.3,-142.5"/>
<text text-anchor="middle" x="5735.3" y="-120.8" font-family="Times,serif" font-size="14.00">BUF</text>
</g>
<!-- c43&#45;&gt;x26 -->
<g id="edge27" class="edge">
<title>c43:e&#45;&gt;x26:w</title>
<path fill="none" stroke="#666666" stroke-width="3" d="M5672.3,-128.5C5684.37,-128.5 5689.53,-126.25 5698.14,-125.12"/>
<polygon fill="#666666" stroke="#666666" stroke-width="3" points="5698.53,-128.61 5708.3,-124.5 5698.1,-121.62 5698.53,-128.61"/>
</g>
<!-- x3&#45;&gt;c43 -->
<g id="edge3" class="edge">
<title>x3:e&#45;&gt;c43:w</title>
<path fill="none" stroke="#7570b3" stroke-width="3" d="M5309.18,-184.01C5371.26,-179.49 5491.95,-145.49 5553.99,-140.99"/>
<polygon fill="none" stroke="#7570b3" stroke-width="3" points="5308.81,-184.02 5302.98,-188.26 5296.82,-184.5 5302.66,-180.26 5308.81,-184.02"/>
<polygon fill="none" stroke="#7570b3" stroke-width="3" points="5554.31,-140.98 5560.14,-136.74 5566.3,-140.5 5560.46,-144.74 5554.31,-140.98"/>
</g>
<!-- x22 -->
<g id="node61" class="node">
<title>x22</title>
<path fill="none" stroke="black" d="M3999.21,-231.5C3999.21,-231.5 3969.21,-231.5 3969.21,-231.5 3963.21,-231.5 3957.21,-225.5 3957.21,-219.5 3957.21,-219.5 3957.21,-207.5 3957.21,-207.5 3957.21,-201.5 3963.21,-195.5 3969.21,-195.5 3969.21,-195.5 3999.21,-195.5 3999.21,-195.5 4005.21,-195.5 4011.21,-201.5 4011.21,-207.5 4011.21,-207.5 4011.21,-219.5 4011.21,-219.5 4011.21,-225.5 4005.21,-231.5 3999.21,-231.5"/>
<text text-anchor="middle" x="3984.21" y="-209.8" font-family="Times,serif" font-size="14.00">BUF</text>
</g>
<!-- c44&#45;&gt;x22 -->
<g id="edge49" class="edge">
<title>c44:e&#45;&gt;x22:w</title>
<path fill="none" stroke="#a6761d" stroke-width="3" d="M3921.21,-244.5C3938.2,-244.5 3937.49,-224.43 3947.56,-216.59"/>
<polygon fill="#a6761d" stroke="#a6761d" stroke-width="3" points="3948.76,-219.88 3957.21,-213.5 3946.62,-213.21 3948.76,-219.88"/>
</g>
<!-- x19 -->
<g id="node58" class="node">
<title>x19</title>
<path fill="none" stroke="black" d="M3127.86,-301.5C3127.86,-301.5 3097.86,-301.5 3097.86,-301.5 3091.86,-301.5 3085.86,-295.5 3085.86,-289.5 3085.86,-289.5 3085.86,-277.5 3085.86,-277.5 3085.86,-271.5 3091.86,-265.5 3097.86,-265.5 3097.86,-265.5 3127.86,-265.5 3127.86,-265.5 3133.86,-265.5 3139.86,-271.5 3139.86,-277.5 3139.86,-277.5 3139.86,-289.5 3139.86,-289.5 3139.86,-295.5 3133.86,-301.5 3127.86,-301.5"/>
<text text-anchor="middle" x="3112.86" y="-279.8" font-family="Times,serif" font-size="14.00">BUF</text>
</g>
<!-- c45&#45;&gt;x19 -->
<g id="edge76" class="edge">
<title>c45:e&#45;&gt;x19:w</title>
<path fill="none" stroke="#1b9e77" stroke-width="3" d="M3049.86,-284.5C3061.87,-284.5 3067.11,-283.94 3075.74,-283.66"/>
<polygon fill="#1b9e77" stroke="#1b9e77" stroke-width="3" points="3075.92,-287.15 3085.86,-283.5 3075.81,-280.15 3075.92,-287.15"/>
</g>
<!-- x17 -->
<g id="node56" class="node">
<title>x17</title>
<path fill="none" stroke="black" d="M2786.49,-401.5C2786.49,-401.5 2756.49,-401.5 2756.49,-401.5 2750.49,-401.5 2744.49,-395.5 2744.49,-389.5 2744.49,-389.5 2744.49,-377.5 2744.49,-377.5 2744.49,-371.5 2750.49,-365.5 2756.49,-365.5 2756.49,-365.5 2786.49,-365.5 2786.49,-365.5 2792.49,-365.5 2798.49,-371.5 2798.49,-377.5 2798.49,-377.5 2798.49,-389.5 2798.49,-389.5 2798.49,-395.5 2792.49,-401.5 2786.49,-401.5"/>
<text text-anchor="middle" x="2771.49" y="-379.8" font-family="Times,serif" font-size="14.00">BUF</text>
</g>
<!-- c47&#45;&gt;x17 -->
<g id="edge77" class="edge">
<title>c47:e&#45;&gt;x17:w</title>
<path fill="none" stroke="#e7298a" stroke-width="3" d="M2708.49,-428.5C2729.9,-428.5 2722.78,-397.05 2734.82,-386.74"/>
<polygon fill="#e7298a" stroke="#e7298a" stroke-width="3" points="2736.12,-389.99 2744.49,-383.5 2733.9,-383.35 2736.12,-389.99"/>
</g>
<!-- x16 -->
<g id="node55" class="node">
<title>x16</title>
<path fill="none" stroke="black" d="M1101.86,-505.5C1101.86,-505.5 1071.86,-505.5 1071.86,-505.5 1065.86,-505.5 1059.86,-499.5 1059.86,-493.5 1059.86,-493.5 1059.86,-481.5 1059.86,-481.5 1059.86,-475.5 1065.86,-469.5 1071.86,-469.5 1071.86,-469.5 1101.86,-469.5 1101.86,-469.5 1107.86,-469.5 1113.86,-475.5 1113.86,-481.5 1113.86,-481.5 1113.86,-493.5 1113.86,-493.5 1113.86,-499.5 1107.86,-505.5 1101.86,-505.5"/>
<text text-anchor="middle" x="1086.86" y="-483.8" font-family="Times,serif" font-size="14.00">BUF</text>
</g>
<!-- c48&#45;&gt;x16 -->
<g id="edge78" class="edge">
<title>c48:e&#45;&gt;x16:w</title>
<path fill="none" stroke="#e7298a" stroke-width="3" d="M966.77,-487.5C1004.02,-487.5 1015.84,-487.5 1048.53,-487.5"/>
<polygon fill="#e7298a" stroke="#e7298a" stroke-width="3" points="1048.86,-491 1058.86,-487.5 1048.86,-484 1048.86,-491"/>
</g>
<!-- x15 -->
<g id="node54" class="node">
<title>x15</title>
<path fill="none" stroke="black" d="M1101.86,-363.5C1101.86,-363.5 1071.86,-363.5 1071.86,-363.5 1065.86,-363.5 1059.86,-357.5 1059.86,-351.5 1059.86,-351.5 1059.86,-339.5 1059.86,-339.5 1059.86,-333.5 1065.86,-327.5 1071.86,-327.5 1071.86,-327.5 1101.86,-327.5 1101.86,-327.5 1107.86,-327.5 1113.86,-333.5 1113.86,-339.5 1113.86,-339.5 1113.86,-351.5 1113.86,-351.5 1113.86,-357.5 1107.86,-363.5 1101.86,-363.5"/>
<text text-anchor="middle" x="1086.86" y="-341.8" font-family="Times,serif" font-size="14.00">BUF</text>
</g>
<!-- c49&#45;&gt;x15 -->
<g id="edge79" class="edge">
<title>c49:e&#45;&gt;x15:w</title>
<path fill="none" stroke="#7570b3" stroke-width="3" d="M966.77,-345.5C1004.02,-345.5 1015.84,-345.5 1048.53,-345.5"/>
<polygon fill="#7570b3" stroke="#7570b3" stroke-width="3" points="1048.86,-349 1058.86,-345.5 1048.86,-342 1048.86,-349"/>
</g>
<!-- x11 -->
<g id="node50" class="node">
<title>x11</title>
<path fill="none" stroke="black" d="M1859.36,-366.5C1859.36,-366.5 1829.36,-366.5 1829.36,-366.5 1823.36,-366.5 1817.36,-360.5 1817.36,-354.5 1817.36,-354.5 1817.36,-342.5 1817.36,-342.5 1817.36,-336.5 1823.36,-330.5 1829.36,-330.5 1829.36,-330.5 1859.36,-330.5 1859.36,-330.5 1865.36,-330.5 1871.36,-336.5 1871.36,-342.5 1871.36,-342.5 1871.36,-354.5 1871.36,-354.5 1871.36,-360.5 1865.36,-366.5 1859.36,-366.5"/>
<text text-anchor="middle" x="1844.36" y="-344.8" font-family="Times,serif" font-size="14.00">BUF</text>
</g>
<!-- c50&#45;&gt;x11 -->
<g id="edge80" class="edge">
<title>c50:e&#45;&gt;x11:w</title>
<path fill="none" stroke="#1b9e77" stroke-width="3" d="M1781.36,-349.5C1793.36,-349.5 1798.6,-348.94 1807.23,-348.66"/>
<polygon fill="#1b9e77" stroke="#1b9e77" stroke-width="3" points="1807.41,-352.15 1817.36,-348.5 1807.3,-345.15 1807.41,-352.15"/>
</g>
<!-- x10 -->
<g id="node49" class="node">
<title>x10</title>
<path fill="none" stroke="black" d="M1859.36,-429.5C1859.36,-429.5 1829.36,-429.5 1829.36,-429.5 1823.36,-429.5 1817.36,-423.5 1817.36,-417.5 1817.36,-417.5 1817.36,-405.5 1817.36,-405.5 1817.36,-399.5 1823.36,-393.5 1829.36,-393.5 1829.36,-393.5 1859.36,-393.5 1859.36,-393.5 1865.36,-393.5 1871.36,-399.5 1871.36,-405.5 1871.36,-405.5 1871.36,-417.5 1871.36,-417.5 1871.36,-423.5 1865.36,-429.5 1859.36,-429.5"/>
<text text-anchor="middle" x="1844.36" y="-407.8" font-family="Times,serif" font-size="14.00">BUF</text>
</g>
<!-- c51&#45;&gt;x10 -->
<g id="edge81" class="edge">
<title>c51:e&#45;&gt;x10:w</title>
<path fill="none" stroke="#e7298a" d="M1779.36,-414.5C1792.33,-414.5 1797.78,-412.74 1807.23,-411.92"/>
<polygon fill="#e7298a" stroke="#e7298a" points="1807.51,-415.41 1817.36,-411.5 1807.22,-408.41 1807.51,-415.41"/>
</g>
<!-- x8 -->
<g id="node47" class="node">
<title>x8</title>
<path fill="none" stroke="black" d="M1101.86,-194.5C1101.86,-194.5 1071.86,-194.5 1071.86,-194.5 1065.86,-194.5 1059.86,-188.5 1059.86,-182.5 1059.86,-182.5 1059.86,-170.5 1059.86,-170.5 1059.86,-164.5 1065.86,-158.5 1071.86,-158.5 1071.86,-158.5 1101.86,-158.5 1101.86,-158.5 1107.86,-158.5 1113.86,-164.5 1113.86,-170.5 1113.86,-170.5 1113.86,-182.5 1113.86,-182.5 1113.86,-188.5 1107.86,-194.5 1101.86,-194.5"/>
<text text-anchor="middle" x="1086.86" y="-172.8" font-family="Times,serif" font-size="14.00">BUF</text>
</g>
<!-- c52&#45;&gt;x8 -->
<g id="edge5" class="edge">
<title>c52:e&#45;&gt;x8:w</title>
<path fill="none" stroke="#66a61e" stroke-width="3" d="M966.77,-176.5C1004.02,-176.5 1015.84,-176.5 1048.53,-176.5"/>
<polygon fill="#66a61e" stroke="#66a61e" stroke-width="3" points="1048.86,-180 1058.86,-176.5 1048.86,-173 1048.86,-180"/>
</g>
<!-- x7 -->
<g id="node46" class="node">
<title>x7</title>
<path fill="none" stroke="black" d="M1101.86,-131.5C1101.86,-131.5 1071.86,-131.5 1071.86,-131.5 1065.86,-131.5 1059.86,-125.5 1059.86,-119.5 1059.86,-119.5 1059.86,-107.5 1059.86,-107.5 1059.86,-101.5 1065.86,-95.5 1071.86,-95.5 1071.86,-95.5 1101.86,-95.5 1101.86,-95.5 1107.86,-95.5 1113.86,-101.5 1113.86,-107.5 1113.86,-107.5 1113.86,-119.5 1113.86,-119.5 1113.86,-125.5 1107.86,-131.5 1101.86,-131.5"/>
<text text-anchor="middle" x="1086.86" y="-109.8" font-family="Times,serif" font-size="14.00">BUF</text>
</g>
<!-- c53&#45;&gt;x7 -->
<g id="edge6" class="edge">
<title>c53:e&#45;&gt;x7:w</title>
<path fill="none" stroke="#d95f02" stroke-width="3" d="M966.77,-111.5C1004.03,-111.5 1015.84,-113.16 1048.53,-113.45"/>
<polygon fill="#d95f02" stroke="#d95f02" stroke-width="3" points="1048.85,-116.96 1058.86,-113.5 1048.88,-109.96 1048.85,-116.96"/>
</g>
<!-- x4&#45;&gt;n36 -->
<g id="edge65" class="edge">
<title>x4:e&#45;&gt;n36:w</title>
<path fill="none" stroke="#e6ab02" stroke-width="3" d="M340.05,-290.5C498.2,-290.5 534.51,-227.31 687.42,-224.59"/>
<polygon fill="#e6ab02" stroke="#e6ab02" stroke-width="3" points="687.7,-228.09 697.67,-224.5 687.64,-221.09 687.7,-228.09"/>
</g>
<!-- x5&#45;&gt;n35 -->
<g id="edge61" class="edge">
<title>x5:e&#45;&gt;n35:w</title>
<path fill="none" stroke="#a6761d" stroke-width="3" d="M340.05,-193.5C352.83,-193.5 357.23,-186.61 365.95,-183.27"/>
<polygon fill="#a6761d" stroke="#a6761d" stroke-width="3" points="366.8,-186.67 376.05,-181.5 365.59,-179.78 366.8,-186.67"/>
</g>
<!-- x6&#45;&gt;n34 -->
<g id="edge58" class="edge">
<title>x6:e&#45;&gt;n34:w</title>
<path fill="none" stroke="#1b9e77" stroke-width="3" d="M635.57,-182.5C649.4,-182.5 652.67,-171.73 661.72,-166.85"/>
<polygon fill="#1b9e77" stroke="#1b9e77" stroke-width="3" points="662.66,-170.23 671.57,-164.5 661.03,-163.42 662.66,-170.23"/>
</g>
<!-- x7&#45;&gt;n33 -->
<g id="edge57" class="edge">
<title>x7:e&#45;&gt;n33:w</title>
<path fill="none" stroke="#d95f02" stroke-width="3" d="M1114.86,-113.5C1145.72,-113.5 1155.86,-115.1 1182.35,-115.44"/>
<polygon fill="#d95f02" stroke="#d95f02" stroke-width="3" points="1182.44,-118.94 1192.46,-115.5 1182.48,-111.94 1182.44,-118.94"/>
</g>
<!-- x8&#45;&gt;n32 -->
<g id="edge55" class="edge">
<title>x8:e&#45;&gt;n32:w</title>
<path fill="none" stroke="#7570b3" stroke-width="3" d="M1114.86,-176.5C1145.71,-176.5 1155.87,-176.5 1182.35,-176.5"/>
<polygon fill="#7570b3" stroke="#7570b3" stroke-width="3" points="1182.46,-180 1192.46,-176.5 1182.46,-173 1182.46,-180"/>
</g>
<!-- x9&#45;&gt;n31 -->
<g id="edge52" class="edge">
<title>x9:e&#45;&gt;n31:w</title>
<path fill="none" stroke="#e6ab02" stroke-width="3" d="M1452.06,-187.5C1520.13,-187.5 1444.2,-323.89 1497.08,-338.28"/>
<polygon fill="#e6ab02" stroke="#e6ab02" stroke-width="3" points="1496.81,-341.77 1507.16,-339.5 1497.65,-334.82 1496.81,-341.77"/>
</g>
<!-- x10&#45;&gt;n30 -->
<g id="edge50" class="edge">
<title>x10:e&#45;&gt;n30:w</title>
<path fill="none" stroke="#1b9e77" d="M1871.36,-411.5C1946.46,-411.5 1967.63,-405.11 2037.89,-404.54"/>
<polygon fill="#1b9e77" stroke="#1b9e77" points="2038.15,-408.04 2048.14,-404.5 2038.13,-401.04 2038.15,-408.04"/>
</g>
<!-- x11&#45;&gt;n29 -->
<g id="edge47" class="edge">
<title>x11:e&#45;&gt;n29:w</title>
<path fill="none" stroke="#d95f02" stroke-width="3" d="M1871.36,-348.5C1883.36,-348.5 1888.61,-348.5 1897.23,-348.5"/>
<polygon fill="#d95f02" stroke="#d95f02" stroke-width="3" points="1897.36,-352 1907.36,-348.5 1897.36,-345 1897.36,-352"/>
</g>
<!-- x12&#45;&gt;n28 -->
<g id="edge45" class="edge">
<title>x12:e&#45;&gt;n28:w</title>
<path fill="none" stroke="#a6761d" stroke-width="3" d="M2128.53,-348.5C2151.6,-348.5 2159.8,-347.76 2178.68,-347.55"/>
<polygon fill="#a6761d" stroke="#a6761d" stroke-width="3" points="2178.94,-351.05 2188.92,-347.5 2178.91,-344.05 2178.94,-351.05"/>
</g>
<!-- x13&#45;&gt;n27 -->
<g id="edge43" class="edge">
<title>x13:e&#45;&gt;n27:w</title>
<path fill="none" stroke="#e7298a" stroke-width="3" d="M2422.71,-440.5C2434.71,-440.5 2439.96,-440.5 2448.58,-440.5"/>
<polygon fill="#e7298a" stroke="#e7298a" stroke-width="3" points="2448.71,-444 2458.71,-440.5 2448.71,-437 2448.71,-444"/>
</g>
<!-- x14&#45;&gt;n26 -->
<g id="edge39" class="edge">
<title>x14:e&#45;&gt;n26:w</title>
<path fill="none" stroke="#e7298a" stroke-width="3" d="M635.57,-301.5C647.61,-301.5 652.81,-303.19 661.43,-304.03"/>
<polygon fill="#e7298a" stroke="#e7298a" stroke-width="3" points="661.42,-307.53 671.57,-304.5 661.74,-300.54 661.42,-307.53"/>
</g>
<!-- x15&#45;&gt;n25 -->
<g id="edge38" class="edge">
<title>x15:e&#45;&gt;n25:w</title>
<path fill="none" stroke="#e7298a" stroke-width="3" d="M1114.86,-345.5C1145.71,-345.5 1155.87,-345.5 1182.35,-345.5"/>
<polygon fill="#e7298a" stroke="#e7298a" stroke-width="3" points="1182.46,-349 1192.46,-345.5 1182.46,-342 1182.46,-349"/>
</g>
<!-- x16&#45;&gt;n24 -->
<g id="edge36" class="edge">
<title>x16:e&#45;&gt;n24:w</title>
<path fill="none" stroke="#a6761d" stroke-width="3" d="M1114.86,-487.5C1292.04,-487.5 1338.87,-487.5 1511.08,-487.5"/>
<polygon fill="#a6761d" stroke="#a6761d" stroke-width="3" points="1511.26,-491 1521.26,-487.5 1511.26,-484 1511.26,-491"/>
</g>
<!-- x17&#45;&gt;n23 -->
<g id="edge34" class="edge">
<title>x17:e&#45;&gt;n23:w</title>
<path fill="none" stroke="#a6761d" stroke-width="3" d="M2798.49,-383.5C2815.96,-383.5 2814.57,-362.13 2824.67,-353.78"/>
<polygon fill="#a6761d" stroke="#a6761d" stroke-width="3" points="2826.12,-356.99 2834.49,-350.5 2823.9,-350.35 2826.12,-356.99"/>
</g>
<!-- x18&#45;&gt;n22 -->
<g id="edge32" class="edge">
<title>x18:e&#45;&gt;n22:w</title>
<path fill="none" stroke="#d95f02" stroke-width="3" d="M960.77,-241.5C1124.56,-241.5 1167.98,-247.26 1326.83,-247.49"/>
<polygon fill="#d95f02" stroke="#d95f02" stroke-width="3" points="1326.96,-250.99 1336.96,-247.5 1326.96,-243.99 1326.96,-250.99"/>
</g>
<!-- x19&#45;&gt;n21 -->
<g id="edge30" class="edge">
<title>x19:e&#45;&gt;n21:w</title>
<path fill="none" stroke="#7570b3" stroke-width="3" d="M3139.86,-283.5C3151.88,-283.5 3157.11,-282.38 3165.73,-281.81"/>
<polygon fill="#7570b3" stroke="#7570b3" stroke-width="3" points="3165.98,-285.31 3175.86,-281.5 3165.76,-278.31 3165.98,-285.31"/>
</g>
<!-- x20&#45;&gt;n20 -->
<g id="edge28" class="edge">
<title>x20:e&#45;&gt;n20:w</title>
<path fill="none" stroke="#7570b3" stroke-width="3" d="M3370.65,-281.5C3382.65,-281.5 3387.9,-281.5 3396.52,-281.5"/>
<polygon fill="#7570b3" stroke="#7570b3" stroke-width="3" points="3396.65,-285 3406.65,-281.5 3396.65,-278 3396.65,-285"/>
</g>
<!-- x21&#45;&gt;n19 -->
<g id="edge25" class="edge">
<title>x21:e&#45;&gt;n19:w</title>
<path fill="none" stroke="#1b9e77" stroke-width="3" d="M3640.43,-280.5C3652.44,-280.5 3657.68,-279.94 3666.3,-279.66"/>
<polygon fill="#1b9e77" stroke="#1b9e77" stroke-width="3" points="3666.49,-283.15 3676.43,-279.5 3666.38,-276.15 3666.49,-283.15"/>
</g>
<!-- x22&#45;&gt;n18 -->
<g id="edge23" class="edge">
<title>x22:e&#45;&gt;n18:w</title>
<path fill="none" stroke="#e7298a" stroke-width="3" d="M4011.21,-213.5C4023.21,-213.5 4028.46,-213.5 4037.09,-213.5"/>
<polygon fill="#e7298a" stroke="#e7298a" stroke-width="3" points="4037.21,-217 4047.21,-213.5 4037.21,-210 4037.21,-217"/>
</g>
<!-- x23&#45;&gt;n17 -->
<g id="edge21" class="edge">
<title>x23:e&#45;&gt;n17:w</title>
<path fill="none" stroke="#7570b3" stroke-width="3" d="M4242,-213.5C4254,-213.5 4259.25,-213.5 4267.87,-213.5"/>
<polygon fill="#7570b3" stroke="#7570b3" stroke-width="3" points="4268,-217 4278,-213.5 4268,-210 4268,-217"/>
</g>
<!-- x24&#45;&gt;n16 -->
<g id="edge19" class="edge">
<title>x24:e&#45;&gt;n16:w</title>
<path fill="none" stroke="#a6761d" stroke-width="3" d="M4511.78,-213.5C4525.05,-213.5 4528.94,-204.71 4537.82,-200.59"/>
<polygon fill="#a6761d" stroke="#a6761d" stroke-width="3" points="4538.71,-203.97 4547.78,-198.5 4537.28,-197.12 4538.71,-203.97"/>
</g>
<!-- x25&#45;&gt;n15 -->
<g id="edge16" class="edge">
<title>x25:e&#45;&gt;n15:w</title>
<path fill="none" stroke="#e6ab02" stroke-width="3" d="M4742.57,-197.5C4754.57,-197.5 4759.81,-196.94 4768.44,-196.66"/>
<polygon fill="#e6ab02" stroke="#e6ab02" stroke-width="3" points="4768.62,-200.15 4778.57,-196.5 4768.51,-193.15 4768.62,-200.15"/>
</g>
<!-- x26&#45;&gt;n14 -->
<g id="edge13" class="edge">
<title>x26:e&#45;&gt;n14:w</title>
<path fill="none" stroke="#1b9e77" stroke-width="3" d="M5762.3,-124.5C5774.31,-124.5 5779.54,-123.38 5788.16,-122.81"/>
<polygon fill="#1b9e77" stroke="#1b9e77" stroke-width="3" points="5788.41,-126.31 5798.3,-122.5 5788.19,-119.31 5788.41,-126.31"/>
</g>
<!-- x27&#45;&gt;n13 -->
<g id="edge10" class="edge">
<title>x27:e&#45;&gt;n13:w</title>
<path fill="none" stroke="#7570b3" stroke-width="3" d="M617.07,-90.5C647.03,-90.5 651.35,-65.12 675.7,-59.56"/>
<polygon fill="#7570b3" stroke="#7570b3" stroke-width="3" points="676.1,-63.04 685.67,-58.5 675.35,-56.08 676.1,-63.04"/>
</g>
<!-- x28&#45;&gt;n12 -->
<g id="edge7" class="edge">
<title>x28:e&#45;&gt;n12:w</title>
<path fill="none" stroke="#666666" stroke-width="3" d="M983.77,-46.5C995.77,-46.5 1001.02,-46.5 1009.64,-46.5"/>
<polygon fill="#666666" stroke="#666666" stroke-width="3" points="1009.77,-50 1019.77,-46.5 1009.77,-43 1009.77,-50"/>
</g>
<!-- x29&#45;&gt;n37 -->
<g id="edge69" class="edge">
<title>x29:e&#45;&gt;n37:w</title>
<path fill="none" stroke="#66a61e" stroke-width="3" d="M6276.08,-83.5C6288.08,-83.5 6293.33,-83.5 6301.95,-83.5"/>
<polygon fill="#66a61e" stroke="#66a61e" stroke-width="3" points="6302.08,-87 6312.08,-83.5 6302.08,-80 6302.08,-87"/>
</g>
</g>
</svg>
