<?xml version="1.0" encoding="UTF-8" standalone="no"?>
<!DOCTYPE svg PUBLIC "-//W3C//DTD SVG 1.1//EN"
 "http://www.w3.org/Graphics/SVG/1.1/DTD/svg11.dtd">
<!-- Generated by graphviz version 2.40.1 (0)
 -->
<!-- Title: VivadoTest Pages: 1 -->
<svg width="2627pt" height="1830pt"
 viewBox="0.00 0.00 2627.13 1830.38" xmlns="http://www.w3.org/2000/svg" xmlns:xlink="http://www.w3.org/1999/xlink">
<g id="graph0" class="graph" transform="scale(1 1) rotate(0) translate(4 1826.3785)">
<title>VivadoTest</title>
<polygon fill="#ffffff" stroke="transparent" points="-4,4 -4,-1826.3785 2623.1327,-1826.3785 2623.1327,4 -4,4"/>
<text text-anchor="middle" x="1309.5664" y="-7.8" font-family="Times,serif" font-size="14.00" fill="#000000">VivadoTest</text>
<!-- n5 -->
<g id="node1" class="node">
<title>n5</title>
<polygon fill="none" stroke="#000000" points="839.7416,-595.3785 764.4996,-577.3785 839.7416,-559.3785 914.9836,-577.3785 839.7416,-595.3785"/>
<text text-anchor="middle" x="839.7416" y="-573.6785" font-family="Times,serif" font-size="14.00" fill="#000000">_GEN_10</text>
</g>
<!-- n6 -->
<g id="node2" class="node">
<title>n6</title>
<polygon fill="none" stroke="#000000" points="478.207,-1768.3785 411.0099,-1750.3785 478.207,-1732.3785 545.4041,-1750.3785 478.207,-1768.3785"/>
<text text-anchor="middle" x="478.207" y="-1746.6785" font-family="Times,serif" font-size="14.00" fill="#000000">_GEN_4</text>
</g>
<!-- x36 -->
<g id="node84" class="node">
<title>x36</title>
<path fill="none" stroke="#000000" d="M1400.5723,-1739.3785C1400.5723,-1739.3785 1451.5723,-1739.3785 1451.5723,-1739.3785 1457.5723,-1739.3785 1463.5723,-1745.3785 1463.5723,-1751.3785 1463.5723,-1751.3785 1463.5723,-1773.3785 1463.5723,-1773.3785 1463.5723,-1779.3785 1457.5723,-1785.3785 1451.5723,-1785.3785 1451.5723,-1785.3785 1400.5723,-1785.3785 1400.5723,-1785.3785 1394.5723,-1785.3785 1388.5723,-1779.3785 1388.5723,-1773.3785 1388.5723,-1773.3785 1388.5723,-1751.3785 1388.5723,-1751.3785 1388.5723,-1745.3785 1394.5723,-1739.3785 1400.5723,-1739.3785"/>
<text text-anchor="middle" x="1426.0723" y="-1770.1785" font-family="Times,serif" font-size="14.00" fill="#000000">0 &#45;&gt; 2:2</text>
<polyline fill="none" stroke="#000000" points="1388.5723,-1762.3785 1463.5723,-1762.3785 "/>
<text text-anchor="middle" x="1426.0723" y="-1747.1785" font-family="Times,serif" font-size="14.00" fill="#000000">1:0 &#45; 1:0</text>
</g>
<!-- n6&#45;&gt;x36 -->
<g id="edge80" class="edge">
<title>n6:e&#45;&gt;x36:w</title>
<path fill="none" stroke="#a6761d" stroke-width="3" d="M545.207,-1750.3785C676.1113,-1750.3785 708.8373,-1750.3785 839.7416,-1750.3785 839.7416,-1750.3785 839.7416,-1750.3785 1144.2884,-1750.3785 1249.1451,-1750.3785 1277.8936,-1750.3785 1377.8449,-1750.3785"/>
<polygon fill="#a6761d" stroke="#a6761d" stroke-width="3" points="1378.0723,-1753.8786 1388.0723,-1750.3785 1378.0723,-1746.8786 1378.0723,-1753.8786"/>
</g>
<!-- n7 -->
<g id="node3" class="node">
<title>n7</title>
<polygon fill="none" stroke="#000000" points="308.0101,-106.3785 240.813,-88.3785 308.0101,-70.3785 375.2072,-88.3785 308.0101,-106.3785"/>
<text text-anchor="middle" x="308.0101" y="-84.6785" font-family="Times,serif" font-size="14.00" fill="#000000">_GEN_7</text>
</g>
<!-- n8 -->
<g id="node4" class="node">
<title>n8</title>
<polygon fill="none" stroke="#000000" points="308.0101,-706.3785 240.813,-688.3785 308.0101,-670.3785 375.2072,-688.3785 308.0101,-706.3785"/>
<text text-anchor="middle" x="308.0101" y="-684.6785" font-family="Times,serif" font-size="14.00" fill="#000000">_GEN_8</text>
</g>
<!-- n9 -->
<g id="node5" class="node">
<title>n9</title>
<polygon fill="none" stroke="#000000" points="308.0101,-641.3785 240.813,-623.3785 308.0101,-605.3785 375.2072,-623.3785 308.0101,-641.3785"/>
<text text-anchor="middle" x="308.0101" y="-619.6785" font-family="Times,serif" font-size="14.00" fill="#000000">_GEN_9</text>
</g>
<!-- n10 -->
<g id="node6" class="node">
<title>n10</title>
<polygon fill="none" stroke="#000000" points="308.0101,-805.3785 255.7259,-787.3785 308.0101,-769.3785 360.2942,-787.3785 308.0101,-805.3785"/>
<text text-anchor="middle" x="308.0101" y="-783.6785" font-family="Times,serif" font-size="14.00" fill="#000000">_T_28</text>
</g>
<!-- n11 -->
<g id="node7" class="node">
<title>n11</title>
<polygon fill="none" stroke="#000000" points="308.0101,-1375.3785 255.7259,-1357.3785 308.0101,-1339.3785 360.2942,-1357.3785 308.0101,-1375.3785"/>
<text text-anchor="middle" x="308.0101" y="-1353.6785" font-family="Times,serif" font-size="14.00" fill="#000000">_T_30</text>
</g>
<!-- n12 -->
<g id="node8" class="node">
<title>n12</title>
<polygon fill="none" stroke="#000000" points="1003.5044,-1555.3785 951.2203,-1537.3785 1003.5044,-1519.3785 1055.7886,-1537.3785 1003.5044,-1555.3785"/>
<text text-anchor="middle" x="1003.5044" y="-1533.6785" font-family="Times,serif" font-size="14.00" fill="#000000">_T_31</text>
</g>
<!-- n13 -->
<g id="node9" class="node">
<title>n13</title>
<polygon fill="none" stroke="#000000" points="1144.2884,-1492.3785 1092.0042,-1474.3785 1144.2884,-1456.3785 1196.5725,-1474.3785 1144.2884,-1492.3785"/>
<text text-anchor="middle" x="1144.2884" y="-1470.6785" font-family="Times,serif" font-size="14.00" fill="#000000">_T_33</text>
</g>
<!-- c41 -->
<g id="node35" class="node">
<title>c41</title>
<polygon fill="none" stroke="#000000" points="1232.6803,-1463.3785 1232.6803,-1509.3785 1337.6803,-1509.3785 1337.6803,-1463.3785 1232.6803,-1463.3785"/>
<text text-anchor="middle" x="1246.1803" y="-1494.1785" font-family="Times,serif" font-size="14.00" fill="#000000">A</text>
<polyline fill="none" stroke="#000000" points="1232.6803,-1486.3785 1259.6803,-1486.3785 "/>
<text text-anchor="middle" x="1246.1803" y="-1471.1785" font-family="Times,serif" font-size="14.00" fill="#000000">B</text>
<polyline fill="none" stroke="#000000" points="1259.6803,-1463.3785 1259.6803,-1509.3785 "/>
<text text-anchor="middle" x="1285.6803" y="-1490.1785" font-family="Times,serif" font-size="14.00" fill="#000000">$2</text>
<text text-anchor="middle" x="1285.6803" y="-1475.1785" font-family="Times,serif" font-size="14.00" fill="#000000">$and</text>
<polyline fill="none" stroke="#000000" points="1311.6803,-1463.3785 1311.6803,-1509.3785 "/>
<text text-anchor="middle" x="1324.6803" y="-1482.6785" font-family="Times,serif" font-size="14.00" fill="#000000">Y</text>
</g>
<!-- n13&#45;&gt;c41 -->
<g id="edge17" class="edge">
<title>n13:e&#45;&gt;c41:w</title>
<path fill="none" stroke="#7570b3" d="M1196.2884,-1474.3785C1208.419,-1474.3785 1213.7262,-1474.3785 1222.4451,-1474.3785"/>
<polygon fill="#7570b3" stroke="#7570b3" points="1222.6804,-1477.8786 1232.6803,-1474.3785 1222.6803,-1470.8786 1222.6804,-1477.8786"/>
</g>
<!-- n14 -->
<g id="node10" class="node">
<title>n14</title>
<polygon fill="none" stroke="#000000" points="1426.0723,-1504.3785 1373.7881,-1486.3785 1426.0723,-1468.3785 1478.3564,-1486.3785 1426.0723,-1504.3785"/>
<text text-anchor="middle" x="1426.0723" y="-1482.6785" font-family="Times,serif" font-size="14.00" fill="#000000">_T_34</text>
</g>
<!-- c51 -->
<g id="node46" class="node">
<title>c51</title>
<polygon fill="none" stroke="#000000" points="1514.4643,-1474.8785 1514.4643,-1543.8785 1623.4643,-1543.8785 1623.4643,-1474.8785 1514.4643,-1474.8785"/>
<text text-anchor="middle" x="1527.9643" y="-1528.6785" font-family="Times,serif" font-size="14.00" fill="#000000">A</text>
<polyline fill="none" stroke="#000000" points="1514.4643,-1520.8785 1541.4643,-1520.8785 "/>
<text text-anchor="middle" x="1527.9643" y="-1505.6785" font-family="Times,serif" font-size="14.00" fill="#000000">B</text>
<polyline fill="none" stroke="#000000" points="1514.4643,-1497.8785 1541.4643,-1497.8785 "/>
<text text-anchor="middle" x="1527.9643" y="-1482.6785" font-family="Times,serif" font-size="14.00" fill="#000000">S</text>
<polyline fill="none" stroke="#000000" points="1541.4643,-1474.8785 1541.4643,-1543.8785 "/>
<text text-anchor="middle" x="1569.4643" y="-1513.1785" font-family="Times,serif" font-size="14.00" fill="#000000">$17</text>
<text text-anchor="middle" x="1569.4643" y="-1498.1785" font-family="Times,serif" font-size="14.00" fill="#000000">$mux</text>
<polyline fill="none" stroke="#000000" points="1597.4643,-1474.8785 1597.4643,-1543.8785 "/>
<text text-anchor="middle" x="1610.4643" y="-1505.6785" font-family="Times,serif" font-size="14.00" fill="#000000">Y</text>
</g>
<!-- n14&#45;&gt;c51 -->
<g id="edge19" class="edge">
<title>n14:e&#45;&gt;c51:w</title>
<path fill="none" stroke="#7570b3" d="M1478.0723,-1486.3785C1490.2029,-1486.3785 1495.5101,-1486.3785 1504.229,-1486.3785"/>
<polygon fill="#7570b3" stroke="#7570b3" points="1504.4643,-1489.8786 1514.4643,-1486.3785 1504.4642,-1482.8786 1504.4643,-1489.8786"/>
</g>
<!-- n15 -->
<g id="node11" class="node">
<title>n15</title>
<polygon fill="none" stroke="#000000" points="2392.8562,-1550.3785 2340.5721,-1532.3785 2392.8562,-1514.3785 2445.1404,-1532.3785 2392.8562,-1550.3785"/>
<text text-anchor="middle" x="2392.8562" y="-1528.6785" font-family="Times,serif" font-size="14.00" fill="#000000">_T_37</text>
</g>
<!-- n15&#45;&gt;c51 -->
<g id="edge21" class="edge">
<title>n15:e&#45;&gt;c51:w</title>
<path fill="none" stroke="#d95f02" stroke-width="3" d="M2444.8562,-1532.3785C2444.8562,-1532.3785 2340.4643,-1550.3785 2340.4643,-1550.3785 2322.0598,-1544.8061 2322.5156,-1533.0063 2304.4643,-1526.3785 2232.2204,-1499.8534 2209.4238,-1506.3785 2132.4643,-1506.3785 1858.9643,-1506.3785 1858.9643,-1506.3785 1858.9643,-1506.3785 1752.9438,-1506.3785 1729.1458,-1535.907 1623.4643,-1544.3785 1623.4643,-1544.3785 1550.4804,-1521.0504 1523.6817,-1512.4846"/>
<polygon fill="#d95f02" stroke="#d95f02" stroke-width="3" points="1524.5551,-1509.0894 1513.9643,-1509.3785 1522.4239,-1515.757 1524.5551,-1509.0894"/>
</g>
<!-- n16 -->
<g id="node12" class="node">
<title>n16</title>
<polygon fill="none" stroke="#000000" points="308.0101,-1320.3785 255.7259,-1302.3785 308.0101,-1284.3785 360.2942,-1302.3785 308.0101,-1320.3785"/>
<text text-anchor="middle" x="308.0101" y="-1298.6785" font-family="Times,serif" font-size="14.00" fill="#000000">_T_38</text>
</g>
<!-- n17 -->
<g id="node13" class="node">
<title>n17</title>
<polygon fill="none" stroke="#000000" points="308.0101,-1226.3785 255.7259,-1208.3785 308.0101,-1190.3785 360.2942,-1208.3785 308.0101,-1226.3785"/>
<text text-anchor="middle" x="308.0101" y="-1204.6785" font-family="Times,serif" font-size="14.00" fill="#000000">_T_41</text>
</g>
<!-- n18 -->
<g id="node14" class="node">
<title>n18</title>
<polygon fill="none" stroke="#000000" points="308.0101,-461.3785 255.7259,-443.3785 308.0101,-425.3785 360.2942,-443.3785 308.0101,-461.3785"/>
<text text-anchor="middle" x="308.0101" y="-439.6785" font-family="Times,serif" font-size="14.00" fill="#000000">_T_44</text>
</g>
<!-- n19 -->
<g id="node15" class="node">
<title>n19</title>
<polygon fill="none" stroke="#000000" points="308.0101,-406.3785 255.7259,-388.3785 308.0101,-370.3785 360.2942,-388.3785 308.0101,-406.3785"/>
<text text-anchor="middle" x="308.0101" y="-384.6785" font-family="Times,serif" font-size="14.00" fill="#000000">_T_45</text>
</g>
<!-- n20 -->
<g id="node16" class="node">
<title>n20</title>
<polygon fill="none" stroke="#000000" points="308.0101,-351.3785 255.7259,-333.3785 308.0101,-315.3785 360.2942,-333.3785 308.0101,-351.3785"/>
<text text-anchor="middle" x="308.0101" y="-329.6785" font-family="Times,serif" font-size="14.00" fill="#000000">_T_46</text>
</g>
<!-- n21 -->
<g id="node17" class="node">
<title>n21</title>
<polygon fill="none" stroke="#000000" points="308.0101,-291.3785 255.7259,-273.3785 308.0101,-255.3785 360.2942,-273.3785 308.0101,-291.3785"/>
<text text-anchor="middle" x="308.0101" y="-269.6785" font-family="Times,serif" font-size="14.00" fill="#000000">_T_48</text>
</g>
<!-- n22 -->
<g id="node18" class="node">
<title>n22</title>
<polygon fill="none" stroke="#000000" points="478.207,-583.3785 425.9229,-565.3785 478.207,-547.3785 530.4912,-565.3785 478.207,-583.3785"/>
<text text-anchor="middle" x="478.207" y="-561.6785" font-family="Times,serif" font-size="14.00" fill="#000000">_T_49</text>
</g>
<!-- c44 -->
<g id="node42" class="node">
<title>c44</title>
<polygon fill="none" stroke="#000000" points="606.3381,-633.3785 606.3381,-679.3785 703.3381,-679.3785 703.3381,-633.3785 606.3381,-633.3785"/>
<text text-anchor="middle" x="619.8381" y="-664.1785" font-family="Times,serif" font-size="14.00" fill="#000000">A</text>
<polyline fill="none" stroke="#000000" points="606.3381,-656.3785 633.3381,-656.3785 "/>
<text text-anchor="middle" x="619.8381" y="-641.1785" font-family="Times,serif" font-size="14.00" fill="#000000">B</text>
<polyline fill="none" stroke="#000000" points="633.3381,-633.3785 633.3381,-679.3785 "/>
<text text-anchor="middle" x="655.3381" y="-660.1785" font-family="Times,serif" font-size="14.00" fill="#000000">$11</text>
<text text-anchor="middle" x="655.3381" y="-645.1785" font-family="Times,serif" font-size="14.00" fill="#000000">$or</text>
<polyline fill="none" stroke="#000000" points="677.3381,-633.3785 677.3381,-679.3785 "/>
<text text-anchor="middle" x="690.3381" y="-652.6785" font-family="Times,serif" font-size="14.00" fill="#000000">Y</text>
</g>
<!-- n22&#45;&gt;c44 -->
<g id="edge30" class="edge">
<title>n22:e&#45;&gt;c44:w</title>
<path fill="none" stroke="#a6761d" stroke-width="3" d="M530.207,-565.3785C583.229,-565.3785 553.6679,-655.1531 595.7218,-667.0762"/>
<polygon fill="#a6761d" stroke="#a6761d" stroke-width="3" points="595.473,-670.573 605.8381,-668.3785 596.3669,-663.6303 595.473,-670.573"/>
</g>
<!-- x21 -->
<g id="node69" class="node">
<title>x21</title>
<path fill="none" stroke="#000000" d="M629.3381,-554.3785C629.3381,-554.3785 680.3381,-554.3785 680.3381,-554.3785 686.3381,-554.3785 692.3381,-560.3785 692.3381,-566.3785 692.3381,-566.3785 692.3381,-588.3785 692.3381,-588.3785 692.3381,-594.3785 686.3381,-600.3785 680.3381,-600.3785 680.3381,-600.3785 629.3381,-600.3785 629.3381,-600.3785 623.3381,-600.3785 617.3381,-594.3785 617.3381,-588.3785 617.3381,-588.3785 617.3381,-566.3785 617.3381,-566.3785 617.3381,-560.3785 623.3381,-554.3785 629.3381,-554.3785"/>
<text text-anchor="middle" x="654.8381" y="-585.1785" font-family="Times,serif" font-size="14.00" fill="#000000">0 &#45;&gt; 3:2</text>
<polyline fill="none" stroke="#000000" points="617.3381,-577.3785 692.3381,-577.3785 "/>
<text text-anchor="middle" x="654.8381" y="-562.1785" font-family="Times,serif" font-size="14.00" fill="#000000">1:0 &#45; 1:0</text>
</g>
<!-- n22&#45;&gt;x21 -->
<g id="edge31" class="edge">
<title>n22:e&#45;&gt;x21:w</title>
<path fill="none" stroke="#a6761d" stroke-width="3" d="M530.207,-565.3785C565.1001,-565.3785 576.2768,-565.3785 606.723,-565.3785"/>
<polygon fill="#a6761d" stroke="#a6761d" stroke-width="3" points="606.8381,-568.8786 616.8381,-565.3785 606.8381,-561.8786 606.8381,-568.8786"/>
</g>
<!-- n23 -->
<g id="node19" class="node">
<title>n23</title>
<polygon fill="none" stroke="#000000" points="308.0101,-231.3785 255.7259,-213.3785 308.0101,-195.3785 360.2942,-213.3785 308.0101,-231.3785"/>
<text text-anchor="middle" x="308.0101" y="-209.6785" font-family="Times,serif" font-size="14.00" fill="#000000">_T_50</text>
</g>
<!-- n24 -->
<g id="node20" class="node">
<title>n24</title>
<polygon fill="none" stroke="#000000" points="308.0101,-171.3785 255.7259,-153.3785 308.0101,-135.3785 360.2942,-153.3785 308.0101,-171.3785"/>
<text text-anchor="middle" x="308.0101" y="-149.6785" font-family="Times,serif" font-size="14.00" fill="#000000">_T_52</text>
</g>
<!-- n25 -->
<g id="node21" class="node">
<title>n25</title>
<polygon fill="none" stroke="#000000" points="839.7416,-674.3785 787.4574,-656.3785 839.7416,-638.3785 892.0257,-656.3785 839.7416,-674.3785"/>
<text text-anchor="middle" x="839.7416" y="-652.6785" font-family="Times,serif" font-size="14.00" fill="#000000">_T_53</text>
</g>
<!-- x13 -->
<g id="node59" class="node">
<title>x13</title>
<path fill="none" stroke="#000000" d="M1983.9643,-645.3785C1983.9643,-645.3785 2034.9643,-645.3785 2034.9643,-645.3785 2040.9643,-645.3785 2046.9643,-651.3785 2046.9643,-657.3785 2046.9643,-657.3785 2046.9643,-679.3785 2046.9643,-679.3785 2046.9643,-685.3785 2040.9643,-691.3785 2034.9643,-691.3785 2034.9643,-691.3785 1983.9643,-691.3785 1983.9643,-691.3785 1977.9643,-691.3785 1971.9643,-685.3785 1971.9643,-679.3785 1971.9643,-679.3785 1971.9643,-657.3785 1971.9643,-657.3785 1971.9643,-651.3785 1977.9643,-645.3785 1983.9643,-645.3785"/>
<text text-anchor="middle" x="2009.4643" y="-676.1785" font-family="Times,serif" font-size="14.00" fill="#000000">0 &#45;&gt; 3:3</text>
<polyline fill="none" stroke="#000000" points="1971.9643,-668.3785 2046.9643,-668.3785 "/>
<text text-anchor="middle" x="2009.4643" y="-653.1785" font-family="Times,serif" font-size="14.00" fill="#000000">2:0 &#45; 2:0</text>
</g>
<!-- n25&#45;&gt;x13 -->
<g id="edge35" class="edge">
<title>n25:e&#45;&gt;x13:w</title>
<path fill="none" stroke="#7570b3" stroke-width="3" d="M891.7416,-656.3785C1003.9846,-656.3785 1032.0454,-656.3785 1144.2884,-656.3785 1144.2884,-656.3785 1144.2884,-656.3785 1713.9643,-656.3785 1824.9441,-656.3785 1855.2088,-656.3785 1961.3016,-656.3785"/>
<polygon fill="#7570b3" stroke="#7570b3" stroke-width="3" points="1961.4643,-659.8786 1971.4643,-656.3785 1961.4642,-652.8786 1961.4643,-659.8786"/>
</g>
<!-- n26 -->
<g id="node22" class="node">
<title>n26</title>
<polygon fill="none" stroke="#000000" points="654.8381,-1555.3785 581.2729,-1537.3785 654.8381,-1519.3785 728.4033,-1537.3785 654.8381,-1555.3785"/>
<text text-anchor="middle" x="654.8381" y="-1533.6785" font-family="Times,serif" font-size="14.00" fill="#000000">btn_prev</text>
</g>
<!-- x2 -->
<g id="node38" class="node">
<title>x2</title>
<path fill="none" stroke="#000000" d="M814.2416,-1458.3785C814.2416,-1458.3785 865.2416,-1458.3785 865.2416,-1458.3785 871.2416,-1458.3785 877.2416,-1464.3785 877.2416,-1470.3785 877.2416,-1470.3785 877.2416,-1482.3785 877.2416,-1482.3785 877.2416,-1488.3785 871.2416,-1494.3785 865.2416,-1494.3785 865.2416,-1494.3785 814.2416,-1494.3785 814.2416,-1494.3785 808.2416,-1494.3785 802.2416,-1488.3785 802.2416,-1482.3785 802.2416,-1482.3785 802.2416,-1470.3785 802.2416,-1470.3785 802.2416,-1464.3785 808.2416,-1458.3785 814.2416,-1458.3785"/>
<text text-anchor="middle" x="839.7416" y="-1472.6785" font-family="Times,serif" font-size="14.00" fill="#000000">3:3 &#45; 0:0</text>
</g>
<!-- n26&#45;&gt;x2 -->
<g id="edge38" class="edge">
<title>n26:e&#45;&gt;x2:w</title>
<path fill="none" stroke="#d95f02" d="M728.3707,-1537.3785C766.9679,-1537.3785 760.9559,-1486.8471 791.5374,-1477.7672"/>
<polygon fill="#d95f02" stroke="#d95f02" points="792.3049,-1481.1951 801.7416,-1476.3785 791.3609,-1474.2591 792.3049,-1481.1951"/>
</g>
<!-- x27 -->
<g id="node75" class="node">
<title>x27</title>
<path fill="none" stroke="#000000" d="M814.2416,-1519.3785C814.2416,-1519.3785 865.2416,-1519.3785 865.2416,-1519.3785 871.2416,-1519.3785 877.2416,-1525.3785 877.2416,-1531.3785 877.2416,-1531.3785 877.2416,-1543.3785 877.2416,-1543.3785 877.2416,-1549.3785 871.2416,-1555.3785 865.2416,-1555.3785 865.2416,-1555.3785 814.2416,-1555.3785 814.2416,-1555.3785 808.2416,-1555.3785 802.2416,-1549.3785 802.2416,-1543.3785 802.2416,-1543.3785 802.2416,-1531.3785 802.2416,-1531.3785 802.2416,-1525.3785 808.2416,-1519.3785 814.2416,-1519.3785"/>
<text text-anchor="middle" x="839.7416" y="-1533.6785" font-family="Times,serif" font-size="14.00" fill="#000000">3:3 &#45; 0:0</text>
</g>
<!-- n26&#45;&gt;x27 -->
<g id="edge37" class="edge">
<title>n26:e&#45;&gt;x27:w</title>
<path fill="none" stroke="#d95f02" d="M728.3707,-1537.3785C757.286,-1537.3785 766.9714,-1537.3785 791.53,-1537.3785"/>
<polygon fill="#d95f02" stroke="#d95f02" points="791.7416,-1540.8786 801.7416,-1537.3785 791.7415,-1533.8786 791.7416,-1540.8786"/>
</g>
<!-- n27 -->
<g id="node23" class="node">
<title>n27</title>
<polygon fill="none" stroke="#000000" points="2132.4643,-1576.3785 2105.4643,-1558.3785 2132.4643,-1540.3785 2159.4643,-1558.3785 2132.4643,-1576.3785"/>
<text text-anchor="middle" x="2132.4643" y="-1554.6785" font-family="Times,serif" font-size="14.00" fill="#000000">c</text>
</g>
<!-- c40 -->
<g id="node34" class="node">
<title>c40</title>
<polygon fill="none" stroke="#000000" points="2197.4643,-1535.3785 2197.4643,-1581.3785 2302.4643,-1581.3785 2302.4643,-1535.3785 2197.4643,-1535.3785"/>
<text text-anchor="middle" x="2210.9643" y="-1566.1785" font-family="Times,serif" font-size="14.00" fill="#000000">A</text>
<polyline fill="none" stroke="#000000" points="2197.4643,-1558.3785 2224.4643,-1558.3785 "/>
<text text-anchor="middle" x="2210.9643" y="-1543.1785" font-family="Times,serif" font-size="14.00" fill="#000000">B</text>
<polyline fill="none" stroke="#000000" points="2224.4643,-1535.3785 2224.4643,-1581.3785 "/>
<text text-anchor="middle" x="2250.4643" y="-1562.1785" font-family="Times,serif" font-size="14.00" fill="#000000">$4</text>
<text text-anchor="middle" x="2250.4643" y="-1547.1785" font-family="Times,serif" font-size="14.00" fill="#000000">$add</text>
<polyline fill="none" stroke="#000000" points="2276.4643,-1535.3785 2276.4643,-1581.3785 "/>
<text text-anchor="middle" x="2289.4643" y="-1554.6785" font-family="Times,serif" font-size="14.00" fill="#000000">Y</text>
</g>
<!-- n27&#45;&gt;c40 -->
<g id="edge40" class="edge">
<title>n27:e&#45;&gt;c40:w</title>
<path fill="none" stroke="#1b9e77" stroke-width="3" d="M2159.4643,-1558.3785C2172.9988,-1558.3785 2177.5617,-1565.557 2187.0309,-1568.8097"/>
<polygon fill="#1b9e77" stroke="#1b9e77" stroke-width="3" points="2186.5407,-1572.2756 2196.9643,-1570.3785 2187.6327,-1565.3613 2186.5407,-1572.2756"/>
</g>
<!-- n27&#45;&gt;c51 -->
<g id="edge41" class="edge">
<title>n27:e&#45;&gt;c51:w</title>
<path fill="none" stroke="#1b9e77" stroke-width="3" d="M2159.4643,-1558.3785C2167.4643,-1558.3785 2164.6353,-1570.2744 2159.4643,-1576.3785 2157.826,-1578.3124 2071.9901,-1591.1695 2069.4643,-1591.3785 2016.3126,-1595.7775 2002.7206,-1594.244 1949.4643,-1591.3785 1755.066,-1580.919 1644.0286,-1689.2349 1513.9643,-1544.3785 1513.4075,-1543.7585 1512.8945,-1543.0392 1512.4456,-1542.2669"/>
<polygon fill="#1b9e77" stroke="#1b9e77" stroke-width="3" points="1515.9056,-1542.794 1513.9643,-1532.3785 1508.9867,-1541.7313 1515.9056,-1542.794"/>
</g>
<!-- c56 -->
<g id="node58" class="node">
<title>c56</title>
<polygon fill="none" stroke="#000000" points="2195.4643,-610.8785 2195.4643,-679.8785 2304.4643,-679.8785 2304.4643,-610.8785 2195.4643,-610.8785"/>
<text text-anchor="middle" x="2208.9643" y="-664.6785" font-family="Times,serif" font-size="14.00" fill="#000000">A</text>
<polyline fill="none" stroke="#000000" points="2195.4643,-656.8785 2222.4643,-656.8785 "/>
<text text-anchor="middle" x="2208.9643" y="-641.6785" font-family="Times,serif" font-size="14.00" fill="#000000">B</text>
<polyline fill="none" stroke="#000000" points="2195.4643,-633.8785 2222.4643,-633.8785 "/>
<text text-anchor="middle" x="2208.9643" y="-618.6785" font-family="Times,serif" font-size="14.00" fill="#000000">S</text>
<polyline fill="none" stroke="#000000" points="2222.4643,-610.8785 2222.4643,-679.8785 "/>
<text text-anchor="middle" x="2250.4643" y="-649.1785" font-family="Times,serif" font-size="14.00" fill="#000000">$12</text>
<text text-anchor="middle" x="2250.4643" y="-634.1785" font-family="Times,serif" font-size="14.00" fill="#000000">$mux</text>
<polyline fill="none" stroke="#000000" points="2278.4643,-610.8785 2278.4643,-679.8785 "/>
<text text-anchor="middle" x="2291.4643" y="-641.6785" font-family="Times,serif" font-size="14.00" fill="#000000">Y</text>
</g>
<!-- n27&#45;&gt;c56 -->
<g id="edge42" class="edge">
<title>n27:e&#45;&gt;c56:w</title>
<path fill="none" stroke="#1b9e77" stroke-width="3" d="M2159.4643,-1558.3785C2257.4184,-1558.3785 2105.3545,-708.4454 2185.7292,-648.6845"/>
<polygon fill="#1b9e77" stroke="#1b9e77" stroke-width="3" points="2187.1208,-651.9083 2195.4643,-645.3785 2184.8699,-645.2801 2187.1208,-651.9083"/>
</g>
<!-- n28 -->
<g id="node24" class="node">
<title>n28</title>
<polygon fill="none" stroke="#000000" points="79.281,-1621.9227 79.281,-1636.8344 57.565,-1647.3785 26.8541,-1647.3785 5.1381,-1636.8344 5.1381,-1621.9227 26.8541,-1611.3785 57.565,-1611.3785 79.281,-1621.9227"/>
<text text-anchor="middle" x="42.2096" y="-1625.6785" font-family="Times,serif" font-size="14.00" fill="#000000">clock</text>
</g>
<!-- c48 -->
<g id="node44" class="node">
<title>c48</title>
<polygon fill="none" stroke="#000000" points="418.207,-1515.3785 418.207,-1561.3785 538.207,-1561.3785 538.207,-1515.3785 418.207,-1515.3785"/>
<text text-anchor="middle" x="441.707" y="-1546.1785" font-family="Times,serif" font-size="14.00" fill="#000000">CLK</text>
<polyline fill="none" stroke="#000000" points="418.207,-1538.3785 465.207,-1538.3785 "/>
<text text-anchor="middle" x="441.707" y="-1523.1785" font-family="Times,serif" font-size="14.00" fill="#000000">D</text>
<polyline fill="none" stroke="#000000" points="465.207,-1515.3785 465.207,-1561.3785 "/>
<text text-anchor="middle" x="487.707" y="-1542.1785" font-family="Times,serif" font-size="14.00" fill="#000000">$28</text>
<text text-anchor="middle" x="487.707" y="-1527.1785" font-family="Times,serif" font-size="14.00" fill="#000000">$dff</text>
<polyline fill="none" stroke="#000000" points="510.207,-1515.3785 510.207,-1561.3785 "/>
<text text-anchor="middle" x="524.207" y="-1534.6785" font-family="Times,serif" font-size="14.00" fill="#000000">Q</text>
</g>
<!-- n28&#45;&gt;c48 -->
<g id="edge43" class="edge">
<title>n28:e&#45;&gt;c48:w</title>
<path fill="none" stroke="#a6761d" d="M79.2096,-1629.3785C213.309,-1629.3785 247.6341,-1612.007 375.1086,-1570.3785 391.4184,-1565.0524 395.736,-1555.1781 408.1084,-1551.6625"/>
<polygon fill="#a6761d" stroke="#a6761d" points="408.7284,-1555.1119 418.207,-1550.3785 407.8454,-1548.1678 408.7284,-1555.1119"/>
</g>
<!-- c49 -->
<g id="node45" class="node">
<title>c49</title>
<polygon fill="none" stroke="#000000" points="1949.4643,-1535.3785 1949.4643,-1581.3785 2069.4643,-1581.3785 2069.4643,-1535.3785 1949.4643,-1535.3785"/>
<text text-anchor="middle" x="1972.9643" y="-1566.1785" font-family="Times,serif" font-size="14.00" fill="#000000">CLK</text>
<polyline fill="none" stroke="#000000" points="1949.4643,-1558.3785 1996.4643,-1558.3785 "/>
<text text-anchor="middle" x="1972.9643" y="-1543.1785" font-family="Times,serif" font-size="14.00" fill="#000000">D</text>
<polyline fill="none" stroke="#000000" points="1996.4643,-1535.3785 1996.4643,-1581.3785 "/>
<text text-anchor="middle" x="2018.9643" y="-1562.1785" font-family="Times,serif" font-size="14.00" fill="#000000">$29</text>
<text text-anchor="middle" x="2018.9643" y="-1547.1785" font-family="Times,serif" font-size="14.00" fill="#000000">$dff</text>
<polyline fill="none" stroke="#000000" points="2041.4643,-1535.3785 2041.4643,-1581.3785 "/>
<text text-anchor="middle" x="2055.4643" y="-1554.6785" font-family="Times,serif" font-size="14.00" fill="#000000">Q</text>
</g>
<!-- n28&#45;&gt;c49 -->
<g id="edge44" class="edge">
<title>n28:e&#45;&gt;c49:w</title>
<path fill="none" stroke="#a6761d" d="M79.2096,-1629.3785C97.6592,-1629.3785 102.0573,-1632.5804 120.4191,-1634.3785 203.6267,-1642.5269 224.4045,-1648.3785 308.0101,-1648.3785 308.0101,-1648.3785 308.0101,-1648.3785 1713.9643,-1648.3785 1820.777,-1648.3785 1838.1765,-1575.1774 1939.4009,-1570.6023"/>
<polygon fill="#a6761d" stroke="#a6761d" points="1939.5446,-1574.1001 1949.4643,-1570.3785 1939.3889,-1567.1018 1939.5446,-1574.1001"/>
</g>
<!-- n29 -->
<g id="node25" class="node">
<title>n29</title>
<polygon fill="none" stroke="#000000" points="84.6297,-1247.9227 84.6297,-1262.8344 59.7806,-1273.3785 24.6386,-1273.3785 -.2106,-1262.8344 -.2106,-1247.9227 24.6386,-1237.3785 59.7806,-1237.3785 84.6297,-1247.9227"/>
<text text-anchor="middle" x="42.2096" y="-1251.6785" font-family="Times,serif" font-size="14.00" fill="#000000">io_btn</text>
</g>
<!-- x1 -->
<g id="node36" class="node">
<title>x1</title>
<path fill="none" stroke="#000000" d="M1118.7884,-1376.3785C1118.7884,-1376.3785 1169.7884,-1376.3785 1169.7884,-1376.3785 1175.7884,-1376.3785 1181.7884,-1382.3785 1181.7884,-1388.3785 1181.7884,-1388.3785 1181.7884,-1400.3785 1181.7884,-1400.3785 1181.7884,-1406.3785 1175.7884,-1412.3785 1169.7884,-1412.3785 1169.7884,-1412.3785 1118.7884,-1412.3785 1118.7884,-1412.3785 1112.7884,-1412.3785 1106.7884,-1406.3785 1106.7884,-1400.3785 1106.7884,-1400.3785 1106.7884,-1388.3785 1106.7884,-1388.3785 1106.7884,-1382.3785 1112.7884,-1376.3785 1118.7884,-1376.3785"/>
<text text-anchor="middle" x="1144.2884" y="-1390.6785" font-family="Times,serif" font-size="14.00" fill="#000000">3:3 &#45; 0:0</text>
</g>
<!-- n29&#45;&gt;x1 -->
<g id="edge48" class="edge">
<title>n29:e&#45;&gt;x1:w</title>
<path fill="none" stroke="#e6ab02" d="M84.4191,-1255.3785C213.9198,-1255.3785 246.4634,-1260.5168 375.1086,-1275.3785 698.8241,-1312.7757 775.482,-1392.7176 1096.2399,-1394.3531"/>
<polygon fill="#e6ab02" stroke="#e6ab02" points="1096.2795,-1397.8531 1106.2884,-1394.3785 1096.2973,-1390.8531 1096.2795,-1397.8531"/>
</g>
<!-- x7 -->
<g id="node49" class="node">
<title>x7</title>
<path fill="none" stroke="#000000" d="M1259.6803,-1261.3785C1259.6803,-1261.3785 1310.6803,-1261.3785 1310.6803,-1261.3785 1316.6803,-1261.3785 1322.6803,-1267.3785 1322.6803,-1273.3785 1322.6803,-1273.3785 1322.6803,-1285.3785 1322.6803,-1285.3785 1322.6803,-1291.3785 1316.6803,-1297.3785 1310.6803,-1297.3785 1310.6803,-1297.3785 1259.6803,-1297.3785 1259.6803,-1297.3785 1253.6803,-1297.3785 1247.6803,-1291.3785 1247.6803,-1285.3785 1247.6803,-1285.3785 1247.6803,-1273.3785 1247.6803,-1273.3785 1247.6803,-1267.3785 1253.6803,-1261.3785 1259.6803,-1261.3785"/>
<text text-anchor="middle" x="1285.1803" y="-1275.6785" font-family="Times,serif" font-size="14.00" fill="#000000">2:2 &#45; 0:0</text>
</g>
<!-- n29&#45;&gt;x7 -->
<g id="edge55" class="edge">
<title>n29:e&#45;&gt;x7:w</title>
<path fill="none" stroke="#e6ab02" d="M84.4191,-1255.3785C120.9934,-1255.3785 89.4121,-1200.7756 120.4191,-1181.3785 216.384,-1121.3458 262.0904,-1175.0482 375.1086,-1181.3785 761.1026,-1202.9987 855.5021,-1278.0435 1236.9649,-1279.361"/>
<polygon fill="#e6ab02" stroke="#e6ab02" points="1237.1743,-1282.8612 1247.1803,-1279.3785 1237.1864,-1275.8612 1237.1743,-1282.8612"/>
</g>
<!-- c54 -->
<g id="node53" class="node">
<title>c54</title>
<polygon fill="none" stroke="#000000" points="253.5101,-1491.8785 253.5101,-1560.8785 362.5101,-1560.8785 362.5101,-1491.8785 253.5101,-1491.8785"/>
<text text-anchor="middle" x="267.0101" y="-1545.6785" font-family="Times,serif" font-size="14.00" fill="#000000">A</text>
<polyline fill="none" stroke="#000000" points="253.5101,-1537.8785 280.5101,-1537.8785 "/>
<text text-anchor="middle" x="267.0101" y="-1522.6785" font-family="Times,serif" font-size="14.00" fill="#000000">B</text>
<polyline fill="none" stroke="#000000" points="253.5101,-1514.8785 280.5101,-1514.8785 "/>
<text text-anchor="middle" x="267.0101" y="-1499.6785" font-family="Times,serif" font-size="14.00" fill="#000000">S</text>
<polyline fill="none" stroke="#000000" points="280.5101,-1491.8785 280.5101,-1560.8785 "/>
<text text-anchor="middle" x="308.5101" y="-1530.1785" font-family="Times,serif" font-size="14.00" fill="#000000">$26</text>
<text text-anchor="middle" x="308.5101" y="-1515.1785" font-family="Times,serif" font-size="14.00" fill="#000000">$mux</text>
<polyline fill="none" stroke="#000000" points="336.5101,-1491.8785 336.5101,-1560.8785 "/>
<text text-anchor="middle" x="349.5101" y="-1522.6785" font-family="Times,serif" font-size="14.00" fill="#000000">Y</text>
</g>
<!-- n29&#45;&gt;c54 -->
<g id="edge45" class="edge">
<title>n29:e&#45;&gt;c54:w</title>
<path fill="none" stroke="#e6ab02" d="M84.4191,-1255.3785C151.1228,-1255.3785 70.5041,-1509.1306 120.4191,-1553.3785 161.9515,-1590.1956 190.5447,-1554.1481 242.9411,-1549.7973"/>
<polygon fill="#e6ab02" stroke="#e6ab02" points="243.1642,-1553.2912 253.0101,-1549.3785 242.8732,-1546.2972 243.1642,-1553.2912"/>
</g>
<!-- x12 -->
<g id="node57" class="node">
<title>x12</title>
<path fill="none" stroke="#000000" d="M137.1654,-1677.3785C137.1654,-1677.3785 188.1654,-1677.3785 188.1654,-1677.3785 194.1654,-1677.3785 200.1654,-1683.3785 200.1654,-1689.3785 200.1654,-1689.3785 200.1654,-1701.3785 200.1654,-1701.3785 200.1654,-1707.3785 194.1654,-1713.3785 188.1654,-1713.3785 188.1654,-1713.3785 137.1654,-1713.3785 137.1654,-1713.3785 131.1654,-1713.3785 125.1654,-1707.3785 125.1654,-1701.3785 125.1654,-1701.3785 125.1654,-1689.3785 125.1654,-1689.3785 125.1654,-1683.3785 131.1654,-1677.3785 137.1654,-1677.3785"/>
<text text-anchor="middle" x="162.6654" y="-1691.6785" font-family="Times,serif" font-size="14.00" fill="#000000">1:1 &#45; 0:0</text>
</g>
<!-- n29&#45;&gt;x12 -->
<g id="edge46" class="edge">
<title>n29:e&#45;&gt;x12:w</title>
<path fill="none" stroke="#e6ab02" d="M84.4191,-1255.3785C178.9614,-1255.3785 37.7166,-1663.3282 114.7591,-1693.6057"/>
<polygon fill="#e6ab02" stroke="#e6ab02" points="114.2051,-1697.0621 124.6654,-1695.3785 115.4383,-1690.1716 114.2051,-1697.0621"/>
</g>
<!-- x17 -->
<g id="node64" class="node">
<title>x17</title>
<path fill="none" stroke="#000000" d="M137.1654,-988.3785C137.1654,-988.3785 188.1654,-988.3785 188.1654,-988.3785 194.1654,-988.3785 200.1654,-994.3785 200.1654,-1000.3785 200.1654,-1000.3785 200.1654,-1012.3785 200.1654,-1012.3785 200.1654,-1018.3785 194.1654,-1024.3785 188.1654,-1024.3785 188.1654,-1024.3785 137.1654,-1024.3785 137.1654,-1024.3785 131.1654,-1024.3785 125.1654,-1018.3785 125.1654,-1012.3785 125.1654,-1012.3785 125.1654,-1000.3785 125.1654,-1000.3785 125.1654,-994.3785 131.1654,-988.3785 137.1654,-988.3785"/>
<text text-anchor="middle" x="162.6654" y="-1002.6785" font-family="Times,serif" font-size="14.00" fill="#000000">0:0 &#45; 0:0</text>
</g>
<!-- n29&#45;&gt;x17 -->
<g id="edge47" class="edge">
<title>n29:e&#45;&gt;x17:w</title>
<path fill="none" stroke="#e6ab02" d="M84.4191,-1255.3785C136.7484,-1255.3785 77.5933,-1038.3508 115.1161,-1009.5268"/>
<polygon fill="#e6ab02" stroke="#e6ab02" points="116.2641,-1012.8337 124.6654,-1006.3785 114.0723,-1006.1857 116.2641,-1012.8337"/>
</g>
<!-- x20 -->
<g id="node68" class="node">
<title>x20</title>
<path fill="none" stroke="#000000" d="M137.1654,-824.3785C137.1654,-824.3785 188.1654,-824.3785 188.1654,-824.3785 194.1654,-824.3785 200.1654,-830.3785 200.1654,-836.3785 200.1654,-836.3785 200.1654,-848.3785 200.1654,-848.3785 200.1654,-854.3785 194.1654,-860.3785 188.1654,-860.3785 188.1654,-860.3785 137.1654,-860.3785 137.1654,-860.3785 131.1654,-860.3785 125.1654,-854.3785 125.1654,-848.3785 125.1654,-848.3785 125.1654,-836.3785 125.1654,-836.3785 125.1654,-830.3785 131.1654,-824.3785 137.1654,-824.3785"/>
<text text-anchor="middle" x="162.6654" y="-838.6785" font-family="Times,serif" font-size="14.00" fill="#000000">1:1 &#45; 0:0</text>
</g>
<!-- n29&#45;&gt;x20 -->
<g id="edge49" class="edge">
<title>n29:e&#45;&gt;x20:w</title>
<path fill="none" stroke="#e6ab02" d="M84.4191,-1255.3785C172.8495,-1255.3785 43.8823,-875.5627 114.4793,-844.4059"/>
<polygon fill="#e6ab02" stroke="#e6ab02" points="115.541,-847.7633 124.6654,-842.3785 114.1745,-840.898 115.541,-847.7633"/>
</g>
<!-- x25 -->
<g id="node73" class="node">
<title>x25</title>
<path fill="none" stroke="#000000" d="M137.1654,-769.3785C137.1654,-769.3785 188.1654,-769.3785 188.1654,-769.3785 194.1654,-769.3785 200.1654,-775.3785 200.1654,-781.3785 200.1654,-781.3785 200.1654,-793.3785 200.1654,-793.3785 200.1654,-799.3785 194.1654,-805.3785 188.1654,-805.3785 188.1654,-805.3785 137.1654,-805.3785 137.1654,-805.3785 131.1654,-805.3785 125.1654,-799.3785 125.1654,-793.3785 125.1654,-793.3785 125.1654,-781.3785 125.1654,-781.3785 125.1654,-775.3785 131.1654,-769.3785 137.1654,-769.3785"/>
<text text-anchor="middle" x="162.6654" y="-783.6785" font-family="Times,serif" font-size="14.00" fill="#000000">2:2 &#45; 0:0</text>
</g>
<!-- n29&#45;&gt;x25 -->
<g id="edge50" class="edge">
<title>n29:e&#45;&gt;x25:w</title>
<path fill="none" stroke="#e6ab02" d="M84.4191,-1255.3785C185.1332,-1255.3785 31.7934,-819.7064 114.6443,-789.0732"/>
<polygon fill="#e6ab02" stroke="#e6ab02" points="115.389,-792.497 124.6654,-787.3785 114.2217,-785.595 115.389,-792.497"/>
</g>
<!-- x26 -->
<g id="node74" class="node">
<title>x26</title>
<path fill="none" stroke="#000000" d="M137.1654,-1339.3785C137.1654,-1339.3785 188.1654,-1339.3785 188.1654,-1339.3785 194.1654,-1339.3785 200.1654,-1345.3785 200.1654,-1351.3785 200.1654,-1351.3785 200.1654,-1363.3785 200.1654,-1363.3785 200.1654,-1369.3785 194.1654,-1375.3785 188.1654,-1375.3785 188.1654,-1375.3785 137.1654,-1375.3785 137.1654,-1375.3785 131.1654,-1375.3785 125.1654,-1369.3785 125.1654,-1363.3785 125.1654,-1363.3785 125.1654,-1351.3785 125.1654,-1351.3785 125.1654,-1345.3785 131.1654,-1339.3785 137.1654,-1339.3785"/>
<text text-anchor="middle" x="162.6654" y="-1353.6785" font-family="Times,serif" font-size="14.00" fill="#000000">3:3 &#45; 0:0</text>
</g>
<!-- n29&#45;&gt;x26 -->
<g id="edge51" class="edge">
<title>n29:e&#45;&gt;x26:w</title>
<path fill="none" stroke="#e6ab02" d="M84.4191,-1255.3785C129.156,-1255.3785 84.6059,-1341.3305 114.6941,-1355.432"/>
<polygon fill="#e6ab02" stroke="#e6ab02" points="114.18,-1358.8977 124.6654,-1357.3785 115.5212,-1352.0273 114.18,-1358.8977"/>
</g>
<!-- x28 -->
<g id="node76" class="node">
<title>x28</title>
<path fill="none" stroke="#000000" d="M137.1654,-1284.3785C137.1654,-1284.3785 188.1654,-1284.3785 188.1654,-1284.3785 194.1654,-1284.3785 200.1654,-1290.3785 200.1654,-1296.3785 200.1654,-1296.3785 200.1654,-1308.3785 200.1654,-1308.3785 200.1654,-1314.3785 194.1654,-1320.3785 188.1654,-1320.3785 188.1654,-1320.3785 137.1654,-1320.3785 137.1654,-1320.3785 131.1654,-1320.3785 125.1654,-1314.3785 125.1654,-1308.3785 125.1654,-1308.3785 125.1654,-1296.3785 125.1654,-1296.3785 125.1654,-1290.3785 131.1654,-1284.3785 137.1654,-1284.3785"/>
<text text-anchor="middle" x="162.6654" y="-1298.6785" font-family="Times,serif" font-size="14.00" fill="#000000">0:0 &#45; 0:0</text>
</g>
<!-- n29&#45;&gt;x28 -->
<g id="edge52" class="edge">
<title>n29:e&#45;&gt;x28:w</title>
<path fill="none" stroke="#e6ab02" d="M84.4191,-1255.3785C107.8378,-1255.3785 100.6139,-1289.461 114.9356,-1299.5792"/>
<polygon fill="#e6ab02" stroke="#e6ab02" points="114.0874,-1302.9771 124.6654,-1302.3785 116.0229,-1296.25 114.0874,-1302.9771"/>
</g>
<!-- x29 -->
<g id="node77" class="node">
<title>x29</title>
<path fill="none" stroke="#000000" d="M137.1654,-1190.3785C137.1654,-1190.3785 188.1654,-1190.3785 188.1654,-1190.3785 194.1654,-1190.3785 200.1654,-1196.3785 200.1654,-1202.3785 200.1654,-1202.3785 200.1654,-1214.3785 200.1654,-1214.3785 200.1654,-1220.3785 194.1654,-1226.3785 188.1654,-1226.3785 188.1654,-1226.3785 137.1654,-1226.3785 137.1654,-1226.3785 131.1654,-1226.3785 125.1654,-1220.3785 125.1654,-1214.3785 125.1654,-1214.3785 125.1654,-1202.3785 125.1654,-1202.3785 125.1654,-1196.3785 131.1654,-1190.3785 137.1654,-1190.3785"/>
<text text-anchor="middle" x="162.6654" y="-1204.6785" font-family="Times,serif" font-size="14.00" fill="#000000">1:1 &#45; 0:0</text>
</g>
<!-- n29&#45;&gt;x29 -->
<g id="edge53" class="edge">
<title>n29:e&#45;&gt;x29:w</title>
<path fill="none" stroke="#e6ab02" d="M84.4191,-1255.3785C107.8378,-1255.3785 100.6139,-1221.2961 114.9356,-1211.1779"/>
<polygon fill="#e6ab02" stroke="#e6ab02" points="116.0229,-1214.5071 124.6654,-1208.3785 114.0874,-1207.78 116.0229,-1214.5071"/>
</g>
<!-- x37 -->
<g id="node85" class="node">
<title>x37</title>
<path fill="none" stroke="#000000" d="M1833.4643,-1221.3785C1833.4643,-1221.3785 1884.4643,-1221.3785 1884.4643,-1221.3785 1890.4643,-1221.3785 1896.4643,-1227.3785 1896.4643,-1233.3785 1896.4643,-1233.3785 1896.4643,-1255.3785 1896.4643,-1255.3785 1896.4643,-1261.3785 1890.4643,-1267.3785 1884.4643,-1267.3785 1884.4643,-1267.3785 1833.4643,-1267.3785 1833.4643,-1267.3785 1827.4643,-1267.3785 1821.4643,-1261.3785 1821.4643,-1255.3785 1821.4643,-1255.3785 1821.4643,-1233.3785 1821.4643,-1233.3785 1821.4643,-1227.3785 1827.4643,-1221.3785 1833.4643,-1221.3785"/>
<text text-anchor="middle" x="1858.9643" y="-1252.1785" font-family="Times,serif" font-size="14.00" fill="#000000">0 &#45;&gt; 2:1</text>
<polyline fill="none" stroke="#000000" points="1821.4643,-1244.3785 1896.4643,-1244.3785 "/>
<text text-anchor="middle" x="1858.9643" y="-1229.1785" font-family="Times,serif" font-size="14.00" fill="#000000">0:0 &#45; 0:0</text>
</g>
<!-- n29&#45;&gt;x37 -->
<g id="edge54" class="edge">
<title>n29:e&#45;&gt;x37:w</title>
<path fill="none" stroke="#e6ab02" d="M84.4191,-1255.3785C144.3713,-1255.3785 72.7038,-1349.0809 120.4191,-1385.3785 131.7874,-1394.0265 283.1798,-1400.2449 375.1086,-1384.3785 470.7636,-1367.8691 486.6733,-1333.9935 581.3055,-1312.3785 888.2479,-1242.2698 970.333,-1232.3785 1285.1803,-1232.3785 1285.1803,-1232.3785 1285.1803,-1232.3785 1568.9643,-1232.3785 1677.4643,-1232.3785 1707.1322,-1232.3785 1810.7052,-1232.3785"/>
<polygon fill="#e6ab02" stroke="#e6ab02" points="1810.9643,-1235.8786 1820.9643,-1232.3785 1810.9642,-1228.8786 1810.9643,-1235.8786"/>
</g>
<!-- n30 -->
<g id="node26" class="node">
<title>n30</title>
<polygon fill="none" stroke="#000000" points="2590.7965,-637.9227 2590.7965,-652.8344 2567.01,-663.3785 2533.3709,-663.3785 2509.5844,-652.8344 2509.5844,-637.9227 2533.3709,-627.3785 2567.01,-627.3785 2590.7965,-637.9227"/>
<text text-anchor="middle" x="2550.1905" y="-641.6785" font-family="Times,serif" font-size="14.00" fill="#000000">io_led</text>
</g>
<!-- n31 -->
<g id="node27" class="node">
<title>n31</title>
<polygon fill="none" stroke="#000000" points="2619.075,-1053.9227 2619.075,-1068.8344 2578.7234,-1079.3785 2521.6575,-1079.3785 2481.3059,-1068.8344 2481.3059,-1053.9227 2521.6575,-1043.3785 2578.7234,-1043.3785 2619.075,-1053.9227"/>
<text text-anchor="middle" x="2550.1905" y="-1057.6785" font-family="Times,serif" font-size="14.00" fill="#000000">io_rgbled_0</text>
</g>
<!-- n32 -->
<g id="node28" class="node">
<title>n32</title>
<polygon fill="none" stroke="#000000" points="2619.075,-1754.9227 2619.075,-1769.8344 2578.7234,-1780.3785 2521.6575,-1780.3785 2481.3059,-1769.8344 2481.3059,-1754.9227 2521.6575,-1744.3785 2578.7234,-1744.3785 2619.075,-1754.9227"/>
<text text-anchor="middle" x="2550.1905" y="-1758.6785" font-family="Times,serif" font-size="14.00" fill="#000000">io_rgbled_1</text>
</g>
<!-- n33 -->
<g id="node29" class="node">
<title>n33</title>
<polygon fill="none" stroke="#000000" points="2619.075,-889.9227 2619.075,-904.8344 2578.7234,-915.3785 2521.6575,-915.3785 2481.3059,-904.8344 2481.3059,-889.9227 2521.6575,-879.3785 2578.7234,-879.3785 2619.075,-889.9227"/>
<text text-anchor="middle" x="2550.1905" y="-893.6785" font-family="Times,serif" font-size="14.00" fill="#000000">io_rgbled_2</text>
</g>
<!-- n34 -->
<g id="node30" class="node">
<title>n34</title>
<polygon fill="none" stroke="#000000" points="2619.075,-1236.9227 2619.075,-1251.8344 2578.7234,-1262.3785 2521.6575,-1262.3785 2481.3059,-1251.8344 2481.3059,-1236.9227 2521.6575,-1226.3785 2578.7234,-1226.3785 2619.075,-1236.9227"/>
<text text-anchor="middle" x="2550.1905" y="-1240.6785" font-family="Times,serif" font-size="14.00" fill="#000000">io_rgbled_3</text>
</g>
<!-- n35 -->
<g id="node31" class="node">
<title>n35</title>
<polygon fill="none" stroke="#000000" points="81.501,-380.9227 81.501,-395.8344 58.4846,-406.3785 25.9345,-406.3785 2.9181,-395.8344 2.9181,-380.9227 25.9345,-370.3785 58.4846,-370.3785 81.501,-380.9227"/>
<text text-anchor="middle" x="42.2096" y="-384.6785" font-family="Times,serif" font-size="14.00" fill="#000000">io_sw</text>
</g>
<!-- x3 -->
<g id="node40" class="node">
<title>x3</title>
<path fill="none" stroke="#000000" d="M137.1654,-545.3785C137.1654,-545.3785 188.1654,-545.3785 188.1654,-545.3785 194.1654,-545.3785 200.1654,-551.3785 200.1654,-557.3785 200.1654,-557.3785 200.1654,-569.3785 200.1654,-569.3785 200.1654,-575.3785 194.1654,-581.3785 188.1654,-581.3785 188.1654,-581.3785 137.1654,-581.3785 137.1654,-581.3785 131.1654,-581.3785 125.1654,-575.3785 125.1654,-569.3785 125.1654,-569.3785 125.1654,-557.3785 125.1654,-557.3785 125.1654,-551.3785 131.1654,-545.3785 137.1654,-545.3785"/>
<text text-anchor="middle" x="162.6654" y="-559.6785" font-family="Times,serif" font-size="14.00" fill="#000000">1:1 &#45; 0:0</text>
</g>
<!-- n35&#45;&gt;x3 -->
<g id="edge72" class="edge">
<title>n35:e&#45;&gt;x3:w</title>
<path fill="none" stroke="#1b9e77" d="M81.2096,-388.3785C157.5929,-388.3785 55.0449,-547.3568 114.6535,-562.261"/>
<polygon fill="#1b9e77" stroke="#1b9e77" points="114.3388,-565.7476 124.6654,-563.3785 115.1154,-558.7908 114.3388,-565.7476"/>
</g>
<!-- x4 -->
<g id="node41" class="node">
<title>x4</title>
<path fill="none" stroke="#000000" d="M137.1654,-480.3785C137.1654,-480.3785 188.1654,-480.3785 188.1654,-480.3785 194.1654,-480.3785 200.1654,-486.3785 200.1654,-492.3785 200.1654,-492.3785 200.1654,-514.3785 200.1654,-514.3785 200.1654,-520.3785 194.1654,-526.3785 188.1654,-526.3785 188.1654,-526.3785 137.1654,-526.3785 137.1654,-526.3785 131.1654,-526.3785 125.1654,-520.3785 125.1654,-514.3785 125.1654,-514.3785 125.1654,-492.3785 125.1654,-492.3785 125.1654,-486.3785 131.1654,-480.3785 137.1654,-480.3785"/>
<text text-anchor="middle" x="162.6654" y="-511.1785" font-family="Times,serif" font-size="14.00" fill="#000000">2:2 &#45; 1:1</text>
<polyline fill="none" stroke="#000000" points="125.1654,-503.3785 200.1654,-503.3785 "/>
<text text-anchor="middle" x="162.6654" y="-488.1785" font-family="Times,serif" font-size="14.00" fill="#000000">0 &#45;&gt; 0:0</text>
</g>
<!-- n35&#45;&gt;x4 -->
<g id="edge73" class="edge">
<title>n35:e&#45;&gt;x4:w</title>
<path fill="none" stroke="#1b9e77" d="M81.2096,-388.3785C136.9052,-388.3785 74.4854,-499.0714 114.4939,-513.7728"/>
<polygon fill="#1b9e77" stroke="#1b9e77" points="114.2419,-517.2763 124.6654,-515.3785 115.3335,-510.3619 114.2419,-517.2763"/>
</g>
<!-- x5 -->
<g id="node43" class="node">
<title>x5</title>
<path fill="none" stroke="#000000" d="M452.707,-649.3785C452.707,-649.3785 503.707,-649.3785 503.707,-649.3785 509.707,-649.3785 515.707,-655.3785 515.707,-661.3785 515.707,-661.3785 515.707,-683.3785 515.707,-683.3785 515.707,-689.3785 509.707,-695.3785 503.707,-695.3785 503.707,-695.3785 452.707,-695.3785 452.707,-695.3785 446.707,-695.3785 440.707,-689.3785 440.707,-683.3785 440.707,-683.3785 440.707,-661.3785 440.707,-661.3785 440.707,-655.3785 446.707,-649.3785 452.707,-649.3785"/>
<text text-anchor="middle" x="478.207" y="-680.1785" font-family="Times,serif" font-size="14.00" fill="#000000">3:3 &#45; 2:2</text>
<polyline fill="none" stroke="#000000" points="440.707,-672.3785 515.707,-672.3785 "/>
<text text-anchor="middle" x="478.207" y="-657.1785" font-family="Times,serif" font-size="14.00" fill="#000000">0 &#45;&gt; 1:0</text>
</g>
<!-- n35&#45;&gt;x5 -->
<g id="edge74" class="edge">
<title>n35:e&#45;&gt;x5:w</title>
<path fill="none" stroke="#1b9e77" d="M81.2096,-388.3785C155.7208,-388.3785 64.7363,-671.8675 120.4191,-721.3785 136.8243,-735.9655 293.0023,-735.4568 375.1086,-715.3785 402.5892,-708.6584 407.3093,-689.6434 430.0865,-685.2791"/>
<polygon fill="#1b9e77" stroke="#1b9e77" points="430.5566,-688.7511 440.207,-684.3785 429.9362,-681.7787 430.5566,-688.7511"/>
</g>
<!-- x14 -->
<g id="node60" class="node">
<title>x14</title>
<path fill="none" stroke="#000000" d="M978.0044,-263.3785C978.0044,-263.3785 1029.0044,-263.3785 1029.0044,-263.3785 1035.0044,-263.3785 1041.0044,-269.3785 1041.0044,-275.3785 1041.0044,-275.3785 1041.0044,-287.3785 1041.0044,-287.3785 1041.0044,-293.3785 1035.0044,-299.3785 1029.0044,-299.3785 1029.0044,-299.3785 978.0044,-299.3785 978.0044,-299.3785 972.0044,-299.3785 966.0044,-293.3785 966.0044,-287.3785 966.0044,-287.3785 966.0044,-275.3785 966.0044,-275.3785 966.0044,-269.3785 972.0044,-263.3785 978.0044,-263.3785"/>
<text text-anchor="middle" x="1003.5044" y="-277.6785" font-family="Times,serif" font-size="14.00" fill="#000000">0:0 &#45; 0:0</text>
</g>
<!-- n35&#45;&gt;x14 -->
<g id="edge62" class="edge">
<title>n35:e&#45;&gt;x14:w</title>
<path fill="none" stroke="#1b9e77" d="M81.2096,-388.3785C155.7208,-388.3785 67.3049,-107.6357 120.4191,-55.3785 180.1549,3.3933 224.2098,-36.3785 308.0101,-36.3785 308.0101,-36.3785 308.0101,-36.3785 654.8381,-36.3785 827.2479,-36.3785 791.1799,-271.9017 955.446,-281.1018"/>
<polygon fill="#1b9e77" stroke="#1b9e77" points="955.4119,-284.6021 965.5044,-281.3785 955.6045,-277.6047 955.4119,-284.6021"/>
</g>
<!-- x22 -->
<g id="node70" class="node">
<title>x22</title>
<path fill="none" stroke="#000000" d="M137.1654,-65.3785C137.1654,-65.3785 188.1654,-65.3785 188.1654,-65.3785 194.1654,-65.3785 200.1654,-71.3785 200.1654,-77.3785 200.1654,-77.3785 200.1654,-99.3785 200.1654,-99.3785 200.1654,-105.3785 194.1654,-111.3785 188.1654,-111.3785 188.1654,-111.3785 137.1654,-111.3785 137.1654,-111.3785 131.1654,-111.3785 125.1654,-105.3785 125.1654,-99.3785 125.1654,-99.3785 125.1654,-77.3785 125.1654,-77.3785 125.1654,-71.3785 131.1654,-65.3785 137.1654,-65.3785"/>
<text text-anchor="middle" x="162.6654" y="-96.1785" font-family="Times,serif" font-size="14.00" fill="#000000">0 &#45;&gt; 1:1</text>
<polyline fill="none" stroke="#000000" points="125.1654,-88.3785 200.1654,-88.3785 "/>
<text text-anchor="middle" x="162.6654" y="-73.1785" font-family="Times,serif" font-size="14.00" fill="#000000">2:2 &#45; 0:0</text>
</g>
<!-- n35&#45;&gt;x22 -->
<g id="edge63" class="edge">
<title>n35:e&#45;&gt;x22:w</title>
<path fill="none" stroke="#1b9e77" d="M81.2096,-388.3785C147.5206,-388.3785 64.3825,-108.4171 114.9314,-78.89"/>
<polygon fill="#1b9e77" stroke="#1b9e77" points="115.8569,-82.2659 124.6654,-76.3785 114.108,-75.4878 115.8569,-82.2659"/>
</g>
<!-- x23 -->
<g id="node71" class="node">
<title>x23</title>
<path fill="none" stroke="#000000" d="M137.1654,-665.3785C137.1654,-665.3785 188.1654,-665.3785 188.1654,-665.3785 194.1654,-665.3785 200.1654,-671.3785 200.1654,-677.3785 200.1654,-677.3785 200.1654,-699.3785 200.1654,-699.3785 200.1654,-705.3785 194.1654,-711.3785 188.1654,-711.3785 188.1654,-711.3785 137.1654,-711.3785 137.1654,-711.3785 131.1654,-711.3785 125.1654,-705.3785 125.1654,-699.3785 125.1654,-699.3785 125.1654,-677.3785 125.1654,-677.3785 125.1654,-671.3785 131.1654,-665.3785 137.1654,-665.3785"/>
<text text-anchor="middle" x="162.6654" y="-696.1785" font-family="Times,serif" font-size="14.00" fill="#000000">0 &#45;&gt; 1:1</text>
<polyline fill="none" stroke="#000000" points="125.1654,-688.3785 200.1654,-688.3785 "/>
<text text-anchor="middle" x="162.6654" y="-673.1785" font-family="Times,serif" font-size="14.00" fill="#000000">1:1 &#45; 0:0</text>
</g>
<!-- n35&#45;&gt;x23 -->
<g id="edge64" class="edge">
<title>n35:e&#45;&gt;x23:w</title>
<path fill="none" stroke="#1b9e77" d="M81.2096,-388.3785C142.1416,-388.3785 69.5008,-643.6173 114.7797,-673.5281"/>
<polygon fill="#1b9e77" stroke="#1b9e77" points="114.0871,-676.9709 124.6654,-676.3785 116.0265,-670.2449 114.0871,-676.9709"/>
</g>
<!-- x24 -->
<g id="node72" class="node">
<title>x24</title>
<path fill="none" stroke="#000000" d="M137.1654,-600.3785C137.1654,-600.3785 188.1654,-600.3785 188.1654,-600.3785 194.1654,-600.3785 200.1654,-606.3785 200.1654,-612.3785 200.1654,-612.3785 200.1654,-634.3785 200.1654,-634.3785 200.1654,-640.3785 194.1654,-646.3785 188.1654,-646.3785 188.1654,-646.3785 137.1654,-646.3785 137.1654,-646.3785 131.1654,-646.3785 125.1654,-640.3785 125.1654,-634.3785 125.1654,-634.3785 125.1654,-612.3785 125.1654,-612.3785 125.1654,-606.3785 131.1654,-600.3785 137.1654,-600.3785"/>
<text text-anchor="middle" x="162.6654" y="-631.1785" font-family="Times,serif" font-size="14.00" fill="#000000">0 &#45;&gt; 3:1</text>
<polyline fill="none" stroke="#000000" points="125.1654,-623.3785 200.1654,-623.3785 "/>
<text text-anchor="middle" x="162.6654" y="-608.1785" font-family="Times,serif" font-size="14.00" fill="#000000">3:3 &#45; 0:0</text>
</g>
<!-- n35&#45;&gt;x24 -->
<g id="edge65" class="edge">
<title>n35:e&#45;&gt;x24:w</title>
<path fill="none" stroke="#1b9e77" d="M81.2096,-388.3785C178.4378,-388.3785 35.0959,-595.1349 114.4694,-610.48"/>
<polygon fill="#1b9e77" stroke="#1b9e77" points="114.3967,-613.9871 124.6654,-611.3785 115.0112,-607.0141 114.3967,-613.9871"/>
</g>
<!-- x30 -->
<g id="node78" class="node">
<title>x30</title>
<path fill="none" stroke="#000000" d="M137.1654,-425.3785C137.1654,-425.3785 188.1654,-425.3785 188.1654,-425.3785 194.1654,-425.3785 200.1654,-431.3785 200.1654,-437.3785 200.1654,-437.3785 200.1654,-449.3785 200.1654,-449.3785 200.1654,-455.3785 194.1654,-461.3785 188.1654,-461.3785 188.1654,-461.3785 137.1654,-461.3785 137.1654,-461.3785 131.1654,-461.3785 125.1654,-455.3785 125.1654,-449.3785 125.1654,-449.3785 125.1654,-437.3785 125.1654,-437.3785 125.1654,-431.3785 131.1654,-425.3785 137.1654,-425.3785"/>
<text text-anchor="middle" x="162.6654" y="-439.6785" font-family="Times,serif" font-size="14.00" fill="#000000">0:0 &#45; 0:0</text>
</g>
<!-- n35&#45;&gt;x30 -->
<g id="edge66" class="edge">
<title>n35:e&#45;&gt;x30:w</title>
<path fill="none" stroke="#1b9e77" d="M81.2096,-388.3785C108.2256,-388.3785 97.6371,-429.7393 114.6644,-440.7258"/>
<polygon fill="#1b9e77" stroke="#1b9e77" points="114.1022,-444.1976 124.6654,-443.3785 115.897,-437.4316 114.1022,-444.1976"/>
</g>
<!-- x31 -->
<g id="node79" class="node">
<title>x31</title>
<path fill="none" stroke="#000000" d="M137.1654,-370.3785C137.1654,-370.3785 188.1654,-370.3785 188.1654,-370.3785 194.1654,-370.3785 200.1654,-376.3785 200.1654,-382.3785 200.1654,-382.3785 200.1654,-394.3785 200.1654,-394.3785 200.1654,-400.3785 194.1654,-406.3785 188.1654,-406.3785 188.1654,-406.3785 137.1654,-406.3785 137.1654,-406.3785 131.1654,-406.3785 125.1654,-400.3785 125.1654,-394.3785 125.1654,-394.3785 125.1654,-382.3785 125.1654,-382.3785 125.1654,-376.3785 131.1654,-370.3785 137.1654,-370.3785"/>
<text text-anchor="middle" x="162.6654" y="-384.6785" font-family="Times,serif" font-size="14.00" fill="#000000">1:1 &#45; 0:0</text>
</g>
<!-- n35&#45;&gt;x31 -->
<g id="edge67" class="edge">
<title>n35:e&#45;&gt;x31:w</title>
<path fill="none" stroke="#1b9e77" d="M81.2096,-388.3785C96.6001,-388.3785 102.7925,-388.3785 114.4463,-388.3785"/>
<polygon fill="#1b9e77" stroke="#1b9e77" points="114.6654,-391.8786 124.6654,-388.3785 114.6653,-384.8786 114.6654,-391.8786"/>
</g>
<!-- x32 -->
<g id="node80" class="node">
<title>x32</title>
<path fill="none" stroke="#000000" d="M137.1654,-315.3785C137.1654,-315.3785 188.1654,-315.3785 188.1654,-315.3785 194.1654,-315.3785 200.1654,-321.3785 200.1654,-327.3785 200.1654,-327.3785 200.1654,-339.3785 200.1654,-339.3785 200.1654,-345.3785 194.1654,-351.3785 188.1654,-351.3785 188.1654,-351.3785 137.1654,-351.3785 137.1654,-351.3785 131.1654,-351.3785 125.1654,-345.3785 125.1654,-339.3785 125.1654,-339.3785 125.1654,-327.3785 125.1654,-327.3785 125.1654,-321.3785 131.1654,-315.3785 137.1654,-315.3785"/>
<text text-anchor="middle" x="162.6654" y="-329.6785" font-family="Times,serif" font-size="14.00" fill="#000000">2:2 &#45; 0:0</text>
</g>
<!-- n35&#45;&gt;x32 -->
<g id="edge68" class="edge">
<title>n35:e&#45;&gt;x32:w</title>
<path fill="none" stroke="#1b9e77" d="M81.2096,-388.3785C108.2256,-388.3785 97.6371,-347.0178 114.6644,-336.0313"/>
<polygon fill="#1b9e77" stroke="#1b9e77" points="115.897,-339.3255 124.6654,-333.3785 114.1022,-332.5595 115.897,-339.3255"/>
</g>
<!-- x33 -->
<g id="node81" class="node">
<title>x33</title>
<path fill="none" stroke="#000000" d="M137.1654,-250.3785C137.1654,-250.3785 188.1654,-250.3785 188.1654,-250.3785 194.1654,-250.3785 200.1654,-256.3785 200.1654,-262.3785 200.1654,-262.3785 200.1654,-284.3785 200.1654,-284.3785 200.1654,-290.3785 194.1654,-296.3785 188.1654,-296.3785 188.1654,-296.3785 137.1654,-296.3785 137.1654,-296.3785 131.1654,-296.3785 125.1654,-290.3785 125.1654,-284.3785 125.1654,-284.3785 125.1654,-262.3785 125.1654,-262.3785 125.1654,-256.3785 131.1654,-250.3785 137.1654,-250.3785"/>
<text text-anchor="middle" x="162.6654" y="-281.1785" font-family="Times,serif" font-size="14.00" fill="#000000">2:2 &#45; 1:1</text>
<polyline fill="none" stroke="#000000" points="125.1654,-273.3785 200.1654,-273.3785 "/>
<text text-anchor="middle" x="162.6654" y="-258.1785" font-family="Times,serif" font-size="14.00" fill="#000000">0 &#45;&gt; 0:0</text>
</g>
<!-- n35&#45;&gt;x33 -->
<g id="edge69" class="edge">
<title>n35:e&#45;&gt;x33:w</title>
<path fill="none" stroke="#1b9e77" d="M81.2096,-388.3785C126.8191,-388.3785 83.443,-301.5839 114.4533,-287.3441"/>
<polygon fill="#1b9e77" stroke="#1b9e77" points="115.5072,-290.7056 124.6654,-285.3785 114.184,-283.8318 115.5072,-290.7056"/>
</g>
<!-- x34 -->
<g id="node82" class="node">
<title>x34</title>
<path fill="none" stroke="#000000" d="M137.1654,-195.3785C137.1654,-195.3785 188.1654,-195.3785 188.1654,-195.3785 194.1654,-195.3785 200.1654,-201.3785 200.1654,-207.3785 200.1654,-207.3785 200.1654,-219.3785 200.1654,-219.3785 200.1654,-225.3785 194.1654,-231.3785 188.1654,-231.3785 188.1654,-231.3785 137.1654,-231.3785 137.1654,-231.3785 131.1654,-231.3785 125.1654,-225.3785 125.1654,-219.3785 125.1654,-219.3785 125.1654,-207.3785 125.1654,-207.3785 125.1654,-201.3785 131.1654,-195.3785 137.1654,-195.3785"/>
<text text-anchor="middle" x="162.6654" y="-209.6785" font-family="Times,serif" font-size="14.00" fill="#000000">3:3 &#45; 0:0</text>
</g>
<!-- n35&#45;&gt;x34 -->
<g id="edge70" class="edge">
<title>n35:e&#45;&gt;x34:w</title>
<path fill="none" stroke="#1b9e77" d="M81.2096,-388.3785C157.5929,-388.3785 55.0449,-229.4003 114.6535,-214.4961"/>
<polygon fill="#1b9e77" stroke="#1b9e77" points="115.1154,-217.9663 124.6654,-213.3785 114.3388,-211.0095 115.1154,-217.9663"/>
</g>
<!-- x35 -->
<g id="node83" class="node">
<title>x35</title>
<path fill="none" stroke="#000000" d="M137.1654,-130.3785C137.1654,-130.3785 188.1654,-130.3785 188.1654,-130.3785 194.1654,-130.3785 200.1654,-136.3785 200.1654,-142.3785 200.1654,-142.3785 200.1654,-164.3785 200.1654,-164.3785 200.1654,-170.3785 194.1654,-176.3785 188.1654,-176.3785 188.1654,-176.3785 137.1654,-176.3785 137.1654,-176.3785 131.1654,-176.3785 125.1654,-170.3785 125.1654,-164.3785 125.1654,-164.3785 125.1654,-142.3785 125.1654,-142.3785 125.1654,-136.3785 131.1654,-130.3785 137.1654,-130.3785"/>
<text text-anchor="middle" x="162.6654" y="-161.1785" font-family="Times,serif" font-size="14.00" fill="#000000">3:3 &#45; 2:2</text>
<polyline fill="none" stroke="#000000" points="125.1654,-153.3785 200.1654,-153.3785 "/>
<text text-anchor="middle" x="162.6654" y="-138.1785" font-family="Times,serif" font-size="14.00" fill="#000000">0 &#45;&gt; 1:0</text>
</g>
<!-- n35&#45;&gt;x35 -->
<g id="edge71" class="edge">
<title>n35:e&#45;&gt;x35:w</title>
<path fill="none" stroke="#1b9e77" d="M81.2096,-388.3785C178.4378,-388.3785 35.0959,-181.6222 114.4694,-166.277"/>
<polygon fill="#1b9e77" stroke="#1b9e77" points="115.0112,-169.7429 124.6654,-165.3785 114.3967,-162.77 115.0112,-169.7429"/>
</g>
<!-- n36 -->
<g id="node32" class="node">
<title>n36</title>
<polygon fill="none" stroke="#000000" points="79.281,-1453.9227 79.281,-1468.8344 57.565,-1479.3785 26.8541,-1479.3785 5.1381,-1468.8344 5.1381,-1453.9227 26.8541,-1443.3785 57.565,-1443.3785 79.281,-1453.9227"/>
<text text-anchor="middle" x="42.2096" y="-1457.6785" font-family="Times,serif" font-size="14.00" fill="#000000">reset</text>
</g>
<!-- c53 -->
<g id="node51" class="node">
<title>c53</title>
<polygon fill="none" stroke="#000000" points="1804.4643,-1361.8785 1804.4643,-1430.8785 1913.4643,-1430.8785 1913.4643,-1361.8785 1804.4643,-1361.8785"/>
<text text-anchor="middle" x="1817.9643" y="-1415.6785" font-family="Times,serif" font-size="14.00" fill="#000000">A</text>
<polyline fill="none" stroke="#000000" points="1804.4643,-1407.8785 1831.4643,-1407.8785 "/>
<text text-anchor="middle" x="1817.9643" y="-1392.6785" font-family="Times,serif" font-size="14.00" fill="#000000">B</text>
<polyline fill="none" stroke="#000000" points="1804.4643,-1384.8785 1831.4643,-1384.8785 "/>
<text text-anchor="middle" x="1817.9643" y="-1369.6785" font-family="Times,serif" font-size="14.00" fill="#000000">S</text>
<polyline fill="none" stroke="#000000" points="1831.4643,-1361.8785 1831.4643,-1430.8785 "/>
<text text-anchor="middle" x="1859.4643" y="-1400.1785" font-family="Times,serif" font-size="14.00" fill="#000000">$23</text>
<text text-anchor="middle" x="1859.4643" y="-1385.1785" font-family="Times,serif" font-size="14.00" fill="#000000">$mux</text>
<polyline fill="none" stroke="#000000" points="1887.4643,-1361.8785 1887.4643,-1430.8785 "/>
<text text-anchor="middle" x="1900.4643" y="-1392.6785" font-family="Times,serif" font-size="14.00" fill="#000000">Y</text>
</g>
<!-- n36&#45;&gt;c53 -->
<g id="edge75" class="edge">
<title>n36:e&#45;&gt;c53:w</title>
<path fill="none" stroke="#e7298a" d="M79.2096,-1461.3785C422.5077,-1461.3785 496.4434,-1326.3785 839.7416,-1326.3785 839.7416,-1326.3785 839.7416,-1326.3785 1568.9643,-1326.3785 1658.0321,-1326.3785 1685.6841,-1312.5071 1768.4643,-1345.3785 1783.4765,-1351.3398 1784.5518,-1365.5806 1794.6263,-1371.1199"/>
<polygon fill="#e7298a" stroke="#e7298a" points="1793.9346,-1374.5521 1804.4643,-1373.3785 1795.501,-1367.7296 1793.9346,-1374.5521"/>
</g>
<!-- n36&#45;&gt;c54 -->
<g id="edge76" class="edge">
<title>n36:e&#45;&gt;c54:w</title>
<path fill="none" stroke="#e7298a" d="M79.2096,-1461.3785C155.1078,-1461.3785 172.0761,-1499.6899 242.6799,-1503.1319"/>
<polygon fill="#e7298a" stroke="#e7298a" points="242.9294,-1506.6387 253.0101,-1503.3785 243.0965,-1499.6407 242.9294,-1506.6387"/>
</g>
<!-- v0 -->
<g id="node33" class="node">
<title>v0</title>
<ellipse fill="none" stroke="#000000" cx="2132.4643" cy="-1612.3785" rx="27" ry="18"/>
<text text-anchor="middle" x="2132.4643" y="-1608.6785" font-family="Times,serif" font-size="14.00" fill="#000000">1&#39;1</text>
</g>
<!-- v0&#45;&gt;c40 -->
<g id="edge84" class="edge">
<title>v0:e&#45;&gt;c40:w</title>
<path fill="none" stroke="#e7298a" d="M2159.4643,-1612.3785C2188.9846,-1612.3785 2169.725,-1561.8473 2187.0503,-1549.2145"/>
<polygon fill="#e7298a" stroke="#e7298a" points="2188.3125,-1552.4939 2196.9643,-1546.3785 2186.3873,-1545.7638 2188.3125,-1552.4939"/>
</g>
<!-- c40&#45;&gt;n15 -->
<g id="edge20" class="edge">
<title>c40:e&#45;&gt;n15:w</title>
<path fill="none" stroke="#d95f02" stroke-width="3" d="M2302.9643,-1558.3785C2319.2398,-1558.3785 2320.6684,-1541.8683 2330.9124,-1535.161"/>
<polygon fill="#d95f02" stroke="#d95f02" stroke-width="3" points="2332.1693,-1538.4438 2340.8562,-1532.3785 2330.283,-1531.7027 2332.1693,-1538.4438"/>
</g>
<!-- c41&#45;&gt;n14 -->
<g id="edge18" class="edge">
<title>c41:e&#45;&gt;n14:w</title>
<path fill="none" stroke="#7570b3" d="M1337.6803,-1486.3785C1349.811,-1486.3785 1355.1181,-1486.3785 1363.8371,-1486.3785"/>
<polygon fill="#7570b3" stroke="#7570b3" points="1364.0723,-1489.8786 1374.0723,-1486.3785 1364.0723,-1482.8786 1364.0723,-1489.8786"/>
</g>
<!-- x1&#45;&gt;c41 -->
<g id="edge1" class="edge">
<title>x1:e&#45;&gt;c41:w</title>
<path fill="none" stroke="#e7298a" d="M1194.1708,-1396.9493C1221.5246,-1411.2754 1193.5091,-1481.1335 1220.6134,-1495.7098"/>
<polygon fill="none" stroke="#e7298a" points="1194.017,-1396.9161 1187.3068,-1399.5569 1182.2884,-1394.3785 1188.9986,-1391.7378 1194.017,-1396.9161"/>
<polygon fill="none" stroke="#e7298a" points="1220.9635,-1495.7872 1227.6857,-1493.1772 1232.6803,-1498.3785 1225.9581,-1500.9885 1220.9635,-1495.7872"/>
</g>
<!-- c42 -->
<g id="node37" class="node">
<title>c42</title>
<polygon fill="none" stroke="#000000" points="953.0044,-1456.3785 953.0044,-1494.3785 1054.0044,-1494.3785 1054.0044,-1456.3785 953.0044,-1456.3785"/>
<text text-anchor="middle" x="966.0044" y="-1471.6785" font-family="Times,serif" font-size="14.00" fill="#000000">A</text>
<polyline fill="none" stroke="#000000" points="979.0044,-1456.3785 979.0044,-1494.3785 "/>
<text text-anchor="middle" x="1003.5044" y="-1479.1785" font-family="Times,serif" font-size="14.00" fill="#000000">$1</text>
<text text-anchor="middle" x="1003.5044" y="-1464.1785" font-family="Times,serif" font-size="14.00" fill="#000000">$not</text>
<polyline fill="none" stroke="#000000" points="1028.0044,-1456.3785 1028.0044,-1494.3785 "/>
<text text-anchor="middle" x="1041.0044" y="-1471.6785" font-family="Times,serif" font-size="14.00" fill="#000000">Y</text>
</g>
<!-- c42&#45;&gt;n13 -->
<g id="edge16" class="edge">
<title>c42:e&#45;&gt;n13:w</title>
<path fill="none" stroke="#7570b3" d="M1054.5044,-1475.3785C1067.366,-1475.3785 1072.8344,-1474.7924 1082.2304,-1474.5176"/>
<polygon fill="#7570b3" stroke="#7570b3" points="1082.3377,-1478.0165 1092.2884,-1474.3785 1082.2409,-1471.0172 1082.3377,-1478.0165"/>
</g>
<!-- x2&#45;&gt;c42 -->
<g id="edge2" class="edge">
<title>x2:e&#45;&gt;c42:w</title>
<path fill="none" stroke="#e7298a" d="M889.7796,-1476.3303C909.8926,-1476.1618 920.2041,-1475.6001 940.2453,-1475.4286"/>
<polygon fill="none" stroke="#e7298a" points="889.7415,-1476.3304 883.7576,-1480.3544 877.7416,-1476.3785 883.7255,-1472.3545 889.7415,-1476.3304"/>
<polygon fill="none" stroke="#e7298a" points="940.5045,-1475.4277 946.4881,-1471.4031 952.5044,-1475.3785 946.5209,-1479.4031 940.5045,-1475.4277"/>
</g>
<!-- c43 -->
<g id="node39" class="node">
<title>c43</title>
<polygon fill="none" stroke="#000000" points="261.0101,-528.3785 261.0101,-574.3785 355.0101,-574.3785 355.0101,-528.3785 261.0101,-528.3785"/>
<text text-anchor="middle" x="274.5101" y="-559.1785" font-family="Times,serif" font-size="14.00" fill="#000000">A</text>
<polyline fill="none" stroke="#000000" points="261.0101,-551.3785 288.0101,-551.3785 "/>
<text text-anchor="middle" x="274.5101" y="-536.1785" font-family="Times,serif" font-size="14.00" fill="#000000">B</text>
<polyline fill="none" stroke="#000000" points="288.0101,-528.3785 288.0101,-574.3785 "/>
<text text-anchor="middle" x="308.5101" y="-555.1785" font-family="Times,serif" font-size="14.00" fill="#000000">$9</text>
<text text-anchor="middle" x="308.5101" y="-540.1785" font-family="Times,serif" font-size="14.00" fill="#000000">$or</text>
<polyline fill="none" stroke="#000000" points="329.0101,-528.3785 329.0101,-574.3785 "/>
<text text-anchor="middle" x="342.0101" y="-547.6785" font-family="Times,serif" font-size="14.00" fill="#000000">Y</text>
</g>
<!-- c43&#45;&gt;n22 -->
<g id="edge29" class="edge">
<title>c43:e&#45;&gt;n22:w</title>
<path fill="none" stroke="#a6761d" stroke-width="3" d="M355.0101,-551.3785C383.6059,-551.3785 392.1124,-562.3863 416.1567,-564.8803"/>
<polygon fill="#a6761d" stroke="#a6761d" stroke-width="3" points="416.046,-568.379 426.207,-565.3785 416.3927,-561.3876 416.046,-568.379"/>
</g>
<!-- x3&#45;&gt;c43 -->
<g id="edge3" class="edge">
<title>x3:e&#45;&gt;c43:w</title>
<path fill="none" stroke="#7570b3" d="M212.916,-563.3785C226.836,-563.3785 235.0075,-563.3785 248.9917,-563.3785"/>
<polygon fill="none" stroke="#7570b3" points="212.6654,-563.3786 206.6653,-567.3786 200.6654,-563.3785 206.6654,-559.3786 212.6654,-563.3786"/>
<polygon fill="none" stroke="#7570b3" points="249.0101,-563.3786 255.0101,-559.3786 261.0101,-563.3785 255.0101,-567.3786 249.0101,-563.3786"/>
</g>
<!-- x4&#45;&gt;c43 -->
<g id="edge4" class="edge">
<title>x4:e&#45;&gt;c43:w</title>
<path fill="none" stroke="#e6ab02" stroke-width="3" d="M212.5864,-505.5227C228.5133,-511.8802 232.9995,-530.5895 248.7774,-537.1078"/>
<polygon fill="none" stroke="#e6ab02" stroke-width="3" points="212.4758,-505.5029 205.8625,-508.3775 200.6654,-503.3785 207.2787,-500.5039 212.4758,-505.5029"/>
<polygon fill="none" stroke="#e6ab02" stroke-width="3" points="249.2116,-537.1883 255.8409,-534.3506 261.0101,-539.3785 254.3808,-542.2163 249.2116,-537.1883"/>
</g>
<!-- c44&#45;&gt;n25 -->
<g id="edge34" class="edge">
<title>c44:e&#45;&gt;n25:w</title>
<path fill="none" stroke="#7570b3" stroke-width="3" d="M703.8381,-656.3785C737.4869,-656.3785 748.3636,-656.3785 777.5647,-656.3785"/>
<polygon fill="#7570b3" stroke="#7570b3" stroke-width="3" points="777.7416,-659.8786 787.7416,-656.3785 777.7415,-652.8786 777.7416,-659.8786"/>
</g>
<!-- x5&#45;&gt;c44 -->
<g id="edge5" class="edge">
<title>x5:e&#45;&gt;c44:w</title>
<path fill="none" stroke="#66a61e" stroke-width="3" d="M528.3085,-671.5099C555.9658,-667.3376 566.1183,-649.387 593.804,-645.2371"/>
<polygon fill="none" stroke="#66a61e" stroke-width="3" points="528.1762,-671.5193 522.4781,-675.9386 516.207,-672.3785 521.9052,-667.9592 528.1762,-671.5193"/>
<polygon fill="none" stroke="#66a61e" stroke-width="3" points="593.8685,-645.2326 599.5686,-640.8157 605.8381,-644.3785 600.138,-648.7954 593.8685,-645.2326"/>
</g>
<!-- c48&#45;&gt;n26 -->
<g id="edge36" class="edge">
<title>c48:e&#45;&gt;n26:w</title>
<path fill="none" stroke="#d95f02" d="M538.207,-1538.3785C553.4752,-1538.3785 559.6109,-1537.7435 571.169,-1537.4856"/>
<polygon fill="#d95f02" stroke="#d95f02" points="571.3431,-1540.984 581.3055,-1537.3785 571.2691,-1533.9844 571.3431,-1540.984"/>
</g>
<!-- c49&#45;&gt;n27 -->
<g id="edge39" class="edge">
<title>c49:e&#45;&gt;n27:w</title>
<path fill="none" stroke="#1b9e77" stroke-width="3" d="M2069.4643,-1558.3785C2081.4643,-1558.3785 2086.7143,-1558.3785 2095.3393,-1558.3785"/>
<polygon fill="#1b9e77" stroke="#1b9e77" stroke-width="3" points="2095.4643,-1561.8786 2105.4643,-1558.3785 2095.4642,-1554.8786 2095.4643,-1561.8786"/>
</g>
<!-- c52 -->
<g id="node48" class="node">
<title>c52</title>
<polygon fill="none" stroke="#000000" points="1659.4643,-1408.8785 1659.4643,-1477.8785 1768.4643,-1477.8785 1768.4643,-1408.8785 1659.4643,-1408.8785"/>
<text text-anchor="middle" x="1672.9643" y="-1462.6785" font-family="Times,serif" font-size="14.00" fill="#000000">A</text>
<polyline fill="none" stroke="#000000" points="1659.4643,-1454.8785 1686.4643,-1454.8785 "/>
<text text-anchor="middle" x="1672.9643" y="-1439.6785" font-family="Times,serif" font-size="14.00" fill="#000000">B</text>
<polyline fill="none" stroke="#000000" points="1659.4643,-1431.8785 1686.4643,-1431.8785 "/>
<text text-anchor="middle" x="1672.9643" y="-1416.6785" font-family="Times,serif" font-size="14.00" fill="#000000">S</text>
<polyline fill="none" stroke="#000000" points="1686.4643,-1408.8785 1686.4643,-1477.8785 "/>
<text text-anchor="middle" x="1714.4643" y="-1447.1785" font-family="Times,serif" font-size="14.00" fill="#000000">$20</text>
<text text-anchor="middle" x="1714.4643" y="-1432.1785" font-family="Times,serif" font-size="14.00" fill="#000000">$mux</text>
<polyline fill="none" stroke="#000000" points="1742.4643,-1408.8785 1742.4643,-1477.8785 "/>
<text text-anchor="middle" x="1755.4643" y="-1439.6785" font-family="Times,serif" font-size="14.00" fill="#000000">Y</text>
</g>
<!-- c51&#45;&gt;c52 -->
<g id="edge56" class="edge">
<title>c51:e&#45;&gt;c52:w</title>
<path fill="none" stroke="#66a61e" stroke-width="3" d="M1623.4643,-1509.3785C1644.1049,-1509.3785 1638.1549,-1479.8895 1649.655,-1469.7527"/>
<polygon fill="#66a61e" stroke="#66a61e" stroke-width="3" points="1651.1465,-1472.941 1659.4643,-1466.3785 1648.8696,-1466.3216 1651.1465,-1472.941"/>
</g>
<!-- v6 -->
<g id="node47" class="node">
<title>v6</title>
<ellipse fill="none" stroke="#000000" cx="1568.9643" cy="-1438.3785" rx="42.4939" ry="18"/>
<text text-anchor="middle" x="1568.9643" y="-1434.6785" font-family="Times,serif" font-size="14.00" fill="#000000">4&#39;0001</text>
</g>
<!-- v6&#45;&gt;c52 -->
<g id="edge91" class="edge">
<title>v6:e&#45;&gt;c52:w</title>
<path fill="none" stroke="#666666" stroke-width="3" d="M1611.9643,-1438.3785C1629.3776,-1438.3785 1635.9011,-1441.7431 1649.4009,-1442.9522"/>
<polygon fill="#666666" stroke="#666666" stroke-width="3" points="1649.3251,-1446.4521 1659.4643,-1443.3785 1649.6214,-1439.4583 1649.3251,-1446.4521"/>
</g>
<!-- c52&#45;&gt;c53 -->
<g id="edge77" class="edge">
<title>c52:e&#45;&gt;c53:w</title>
<path fill="none" stroke="#1b9e77" stroke-width="3" d="M1768.4643,-1443.3785C1783.6376,-1443.3785 1785.3071,-1428.4357 1794.7835,-1422.1316"/>
<polygon fill="#1b9e77" stroke="#1b9e77" stroke-width="3" points="1795.8031,-1425.4806 1804.4643,-1419.3785 1793.8882,-1418.7475 1795.8031,-1425.4806"/>
</g>
<!-- x7&#45;&gt;c52 -->
<g id="edge6" class="edge">
<title>x7:e&#45;&gt;c52:w</title>
<path fill="none" stroke="#d95f02" d="M1335.1663,-1281.4812C1394.4436,-1297.6508 1588.0895,-1402.0501 1647.4338,-1418.2638"/>
<polygon fill="none" stroke="#d95f02" points="1334.9998,-1281.452 1328.3989,-1284.3551 1323.1803,-1279.3785 1329.7813,-1276.4754 1334.9998,-1281.452"/>
<polygon fill="none" stroke="#d95f02" points="1647.6455,-1418.3009 1654.2474,-1415.4001 1659.4643,-1420.3785 1652.8623,-1423.2793 1647.6455,-1418.3009"/>
</g>
<!-- v8 -->
<g id="node50" class="node">
<title>v8</title>
<ellipse fill="none" stroke="#000000" cx="1713.9643" cy="-1372.3785" rx="42.4939" ry="18"/>
<text text-anchor="middle" x="1713.9643" y="-1368.6785" font-family="Times,serif" font-size="14.00" fill="#000000">4&#39;0101</text>
</g>
<!-- v8&#45;&gt;c53 -->
<g id="edge92" class="edge">
<title>v8:e&#45;&gt;c53:w</title>
<path fill="none" stroke="#a6761d" stroke-width="3" d="M1756.9643,-1372.3785C1776.7366,-1372.3785 1780.1162,-1389.1495 1794.5097,-1394.6525"/>
<polygon fill="#a6761d" stroke="#a6761d" stroke-width="3" points="1794.0133,-1398.1186 1804.4643,-1396.3785 1795.2092,-1391.2215 1794.0133,-1398.1186"/>
</g>
<!-- c53&#45;&gt;c49 -->
<g id="edge26" class="edge">
<title>c53:e&#45;&gt;c49:w</title>
<path fill="none" stroke="#e7298a" stroke-width="3" d="M1913.4643,-1396.3785C1978.1408,-1396.3785 1891.8151,-1529.8676 1939.3859,-1544.9894"/>
<polygon fill="#e7298a" stroke="#e7298a" stroke-width="3" points="1939.08,-1548.4802 1949.4643,-1546.3785 1940.0359,-1541.5458 1939.08,-1548.4802"/>
</g>
<!-- v9 -->
<g id="node52" class="node">
<title>v9</title>
<ellipse fill="none" stroke="#000000" cx="162.6654" cy="-1526.3785" rx="42.4939" ry="18"/>
<text text-anchor="middle" x="162.6654" y="-1522.6785" font-family="Times,serif" font-size="14.00" fill="#000000">4&#39;0000</text>
</g>
<!-- v9&#45;&gt;c54 -->
<g id="edge93" class="edge">
<title>v9:e&#45;&gt;c54:w</title>
<path fill="none" stroke="#66a61e" stroke-width="3" d="M204.9116,-1526.3785C222.4475,-1526.3785 229.1947,-1526.3785 242.8534,-1526.3785"/>
<polygon fill="#66a61e" stroke="#66a61e" stroke-width="3" points="243.0101,-1529.8786 253.0101,-1526.3785 243.01,-1522.8786 243.0101,-1529.8786"/>
</g>
<!-- c54&#45;&gt;c48 -->
<g id="edge12" class="edge">
<title>c54:e&#45;&gt;c48:w</title>
<path fill="none" stroke="#7570b3" stroke-width="3" d="M363.0101,-1526.3785C383.7089,-1526.3785 391.3093,-1526.3785 407.9149,-1526.3785"/>
<polygon fill="#7570b3" stroke="#7570b3" stroke-width="3" points="408.2071,-1529.8786 418.207,-1526.3785 408.207,-1522.8786 408.2071,-1529.8786"/>
</g>
<!-- v10 -->
<g id="node54" class="node">
<title>v10</title>
<ellipse fill="none" stroke="#000000" cx="162.6654" cy="-1804.3785" rx="30.5947" ry="18"/>
<text text-anchor="middle" x="162.6654" y="-1800.6785" font-family="Times,serif" font-size="14.00" fill="#000000">2&#39;00</text>
</g>
<!-- c55 -->
<g id="node56" class="node">
<title>c55</title>
<polygon fill="none" stroke="#000000" points="253.5101,-1715.8785 253.5101,-1784.8785 362.5101,-1784.8785 362.5101,-1715.8785 253.5101,-1715.8785"/>
<text text-anchor="middle" x="267.0101" y="-1769.6785" font-family="Times,serif" font-size="14.00" fill="#000000">A</text>
<polyline fill="none" stroke="#000000" points="253.5101,-1761.8785 280.5101,-1761.8785 "/>
<text text-anchor="middle" x="267.0101" y="-1746.6785" font-family="Times,serif" font-size="14.00" fill="#000000">B</text>
<polyline fill="none" stroke="#000000" points="253.5101,-1738.8785 280.5101,-1738.8785 "/>
<text text-anchor="middle" x="267.0101" y="-1723.6785" font-family="Times,serif" font-size="14.00" fill="#000000">S</text>
<polyline fill="none" stroke="#000000" points="280.5101,-1715.8785 280.5101,-1784.8785 "/>
<text text-anchor="middle" x="308.5101" y="-1754.1785" font-family="Times,serif" font-size="14.00" fill="#000000">$7</text>
<text text-anchor="middle" x="308.5101" y="-1739.1785" font-family="Times,serif" font-size="14.00" fill="#000000">$mux</text>
<polyline fill="none" stroke="#000000" points="336.5101,-1715.8785 336.5101,-1784.8785 "/>
<text text-anchor="middle" x="349.5101" y="-1746.6785" font-family="Times,serif" font-size="14.00" fill="#000000">Y</text>
</g>
<!-- v10&#45;&gt;c55 -->
<g id="edge85" class="edge">
<title>v10:e&#45;&gt;c55:w</title>
<path fill="none" stroke="#e6ab02" stroke-width="3" d="M193.6654,-1804.3785C219.5867,-1804.3785 222.7993,-1780.8556 242.8661,-1774.7911"/>
<polygon fill="#e6ab02" stroke="#e6ab02" stroke-width="3" points="243.5884,-1778.2244 253.0101,-1773.3785 242.6229,-1771.2913 243.5884,-1778.2244"/>
</g>
<!-- v11 -->
<g id="node55" class="node">
<title>v11</title>
<ellipse fill="none" stroke="#000000" cx="162.6654" cy="-1750.3785" rx="30.5947" ry="18"/>
<text text-anchor="middle" x="162.6654" y="-1746.6785" font-family="Times,serif" font-size="14.00" fill="#000000">2&#39;10</text>
</g>
<!-- v11&#45;&gt;c55 -->
<g id="edge86" class="edge">
<title>v11:e&#45;&gt;c55:w</title>
<path fill="none" stroke="#a6761d" stroke-width="3" d="M193.6654,-1750.3785C216.3317,-1750.3785 224.3889,-1750.3785 242.9465,-1750.3785"/>
<polygon fill="#a6761d" stroke="#a6761d" stroke-width="3" points="243.0101,-1753.8786 253.0101,-1750.3785 243.01,-1746.8786 243.0101,-1753.8786"/>
</g>
<!-- c55&#45;&gt;n6 -->
<g id="edge79" class="edge">
<title>c55:e&#45;&gt;n6:w</title>
<path fill="none" stroke="#a6761d" stroke-width="3" d="M363.0101,-1750.3785C380.5819,-1750.3785 387.3429,-1750.3785 401.0296,-1750.3785"/>
<polygon fill="#a6761d" stroke="#a6761d" stroke-width="3" points="401.2071,-1753.8786 411.207,-1750.3785 401.207,-1746.8786 401.2071,-1753.8786"/>
</g>
<!-- x12&#45;&gt;c55 -->
<g id="edge7" class="edge">
<title>x12:e&#45;&gt;c55:w</title>
<path fill="none" stroke="#666666" d="M212.4136,-1697.8895C224.7517,-1703.842 228.8358,-1718.7612 241.1033,-1724.7903"/>
<polygon fill="none" stroke="#666666" points="212.4003,-1697.8868 205.6968,-1700.5443 200.6654,-1695.3785 207.3689,-1692.721 212.4003,-1697.8868"/>
<polygon fill="none" stroke="#666666" points="241.2839,-1724.8295 247.9967,-1722.1953 253.0101,-1727.3785 246.2973,-1730.0128 241.2839,-1724.8295"/>
</g>
<!-- c56&#45;&gt;n30 -->
<g id="edge57" class="edge">
<title>c56:e&#45;&gt;n30:w</title>
<path fill="none" stroke="#1b9e77" stroke-width="3" d="M2304.4643,-645.3785C2391.9883,-645.3785 2416.3693,-645.3785 2499.0836,-645.3785"/>
<polygon fill="#1b9e77" stroke="#1b9e77" stroke-width="3" points="2499.1905,-648.8786 2509.1905,-645.3785 2499.1904,-641.8786 2499.1905,-648.8786"/>
</g>
<!-- x13&#45;&gt;c56 -->
<g id="edge8" class="edge">
<title>x13:e&#45;&gt;c56:w</title>
<path fill="none" stroke="#7570b3" stroke-width="3" d="M2059.5946,-668.3785C2111.7405,-668.3785 2131.2402,-668.3785 2183.4236,-668.3785"/>
<polygon fill="none" stroke="#7570b3" stroke-width="3" points="2059.4643,-668.3786 2053.4642,-672.3786 2047.4643,-668.3785 2053.4643,-664.3786 2059.4643,-668.3786"/>
<polygon fill="none" stroke="#7570b3" stroke-width="3" points="2183.4643,-668.3786 2189.4642,-664.3786 2195.4643,-668.3785 2189.4643,-672.3786 2183.4643,-668.3786"/>
</g>
<!-- x14&#45;&gt;c56 -->
<g id="edge9" class="edge">
<title>x14:e&#45;&gt;c56:w</title>
<path fill="none" stroke="#1b9e77" d="M1053.8786,-281.9171C1218.9695,-296.7587 1106.4357,-613.3785 1285.1803,-613.3785 1285.1803,-613.3785 1285.1803,-613.3785 2009.4643,-613.3785 2088.0248,-613.3785 2110.4609,-621.4877 2183.3213,-622.3113"/>
<polygon fill="none" stroke="#1b9e77" points="1053.4931,-281.9004 1047.3248,-285.6357 1041.5044,-281.3785 1047.6727,-277.6433 1053.4931,-281.9004"/>
<polygon fill="none" stroke="#1b9e77" points="2183.4644,-622.312 2189.4865,-618.3453 2195.4643,-622.3785 2189.4422,-626.3452 2183.4644,-622.312"/>
</g>
<!-- v15 -->
<g id="node61" class="node">
<title>v15</title>
<ellipse fill="none" stroke="#000000" cx="162.6654" cy="-1115.3785" rx="36.2938" ry="18"/>
<text text-anchor="middle" x="162.6654" y="-1111.6785" font-family="Times,serif" font-size="14.00" fill="#000000">3&#39;000</text>
</g>
<!-- c57 -->
<g id="node63" class="node">
<title>c57</title>
<polygon fill="none" stroke="#000000" points="253.5101,-1026.8785 253.5101,-1095.8785 362.5101,-1095.8785 362.5101,-1026.8785 253.5101,-1026.8785"/>
<text text-anchor="middle" x="267.0101" y="-1080.6785" font-family="Times,serif" font-size="14.00" fill="#000000">A</text>
<polyline fill="none" stroke="#000000" points="253.5101,-1072.8785 280.5101,-1072.8785 "/>
<text text-anchor="middle" x="267.0101" y="-1057.6785" font-family="Times,serif" font-size="14.00" fill="#000000">B</text>
<polyline fill="none" stroke="#000000" points="253.5101,-1049.8785 280.5101,-1049.8785 "/>
<text text-anchor="middle" x="267.0101" y="-1034.6785" font-family="Times,serif" font-size="14.00" fill="#000000">S</text>
<polyline fill="none" stroke="#000000" points="280.5101,-1026.8785 280.5101,-1095.8785 "/>
<text text-anchor="middle" x="308.5101" y="-1065.1785" font-family="Times,serif" font-size="14.00" fill="#000000">$13</text>
<text text-anchor="middle" x="308.5101" y="-1050.1785" font-family="Times,serif" font-size="14.00" fill="#000000">$mux</text>
<polyline fill="none" stroke="#000000" points="336.5101,-1026.8785 336.5101,-1095.8785 "/>
<text text-anchor="middle" x="349.5101" y="-1057.6785" font-family="Times,serif" font-size="14.00" fill="#000000">Y</text>
</g>
<!-- v15&#45;&gt;c57 -->
<g id="edge87" class="edge">
<title>v15:e&#45;&gt;c57:w</title>
<path fill="none" stroke="#d95f02" stroke-width="3" d="M199.6654,-1115.3785C223.2306,-1115.3785 225.4381,-1092.4843 242.9965,-1086.0452"/>
<polygon fill="#d95f02" stroke="#d95f02" stroke-width="3" points="243.7205,-1089.473 253.0101,-1084.3785 242.5711,-1082.568 243.7205,-1089.473"/>
</g>
<!-- v16 -->
<g id="node62" class="node">
<title>v16</title>
<ellipse fill="none" stroke="#000000" cx="162.6654" cy="-1061.3785" rx="36.2938" ry="18"/>
<text text-anchor="middle" x="162.6654" y="-1057.6785" font-family="Times,serif" font-size="14.00" fill="#000000">3&#39;100</text>
</g>
<!-- v16&#45;&gt;c57 -->
<g id="edge88" class="edge">
<title>v16:e&#45;&gt;c57:w</title>
<path fill="none" stroke="#666666" stroke-width="3" d="M199.6654,-1061.3785C219.4844,-1061.3785 226.8778,-1061.3785 242.6197,-1061.3785"/>
<polygon fill="#666666" stroke="#666666" stroke-width="3" points="243.0101,-1064.8786 253.0101,-1061.3785 243.0101,-1057.8786 243.0101,-1064.8786"/>
</g>
<!-- c57&#45;&gt;n31 -->
<g id="edge58" class="edge">
<title>c57:e&#45;&gt;n31:w</title>
<path fill="none" stroke="#1b9e77" stroke-width="3" d="M363.0101,-1061.3785C492.7114,-1061.3785 525.1368,-1061.3785 654.8381,-1061.3785 654.8381,-1061.3785 654.8381,-1061.3785 2249.9643,-1061.3785 2349.2437,-1061.3785 2376.6085,-1061.3785 2470.9719,-1061.3785"/>
<polygon fill="#1b9e77" stroke="#1b9e77" stroke-width="3" points="2471.2482,-1064.8786 2481.2482,-1061.3785 2471.2482,-1057.8786 2471.2482,-1064.8786"/>
</g>
<!-- x17&#45;&gt;c57 -->
<g id="edge10" class="edge">
<title>x17:e&#45;&gt;c57:w</title>
<path fill="none" stroke="#e6ab02" d="M212.4136,-1008.8895C224.7517,-1014.842 228.8358,-1029.7612 241.1033,-1035.7903"/>
<polygon fill="none" stroke="#e6ab02" points="212.4003,-1008.8868 205.6968,-1011.5443 200.6654,-1006.3785 207.3689,-1003.721 212.4003,-1008.8868"/>
<polygon fill="none" stroke="#e6ab02" points="241.2839,-1035.8295 247.9967,-1033.1953 253.0101,-1038.3785 246.2973,-1041.0128 241.2839,-1035.8295"/>
</g>
<!-- v18 -->
<g id="node65" class="node">
<title>v18</title>
<ellipse fill="none" stroke="#000000" cx="162.6654" cy="-951.3785" rx="36.2938" ry="18"/>
<text text-anchor="middle" x="162.6654" y="-947.6785" font-family="Times,serif" font-size="14.00" fill="#000000">3&#39;000</text>
</g>
<!-- c58 -->
<g id="node67" class="node">
<title>c58</title>
<polygon fill="none" stroke="#000000" points="253.5101,-862.8785 253.5101,-931.8785 362.5101,-931.8785 362.5101,-862.8785 253.5101,-862.8785"/>
<text text-anchor="middle" x="267.0101" y="-916.6785" font-family="Times,serif" font-size="14.00" fill="#000000">A</text>
<polyline fill="none" stroke="#000000" points="253.5101,-908.8785 280.5101,-908.8785 "/>
<text text-anchor="middle" x="267.0101" y="-893.6785" font-family="Times,serif" font-size="14.00" fill="#000000">B</text>
<polyline fill="none" stroke="#000000" points="253.5101,-885.8785 280.5101,-885.8785 "/>
<text text-anchor="middle" x="267.0101" y="-870.6785" font-family="Times,serif" font-size="14.00" fill="#000000">S</text>
<polyline fill="none" stroke="#000000" points="280.5101,-862.8785 280.5101,-931.8785 "/>
<text text-anchor="middle" x="308.5101" y="-901.1785" font-family="Times,serif" font-size="14.00" fill="#000000">$14</text>
<text text-anchor="middle" x="308.5101" y="-886.1785" font-family="Times,serif" font-size="14.00" fill="#000000">$mux</text>
<polyline fill="none" stroke="#000000" points="336.5101,-862.8785 336.5101,-931.8785 "/>
<text text-anchor="middle" x="349.5101" y="-893.6785" font-family="Times,serif" font-size="14.00" fill="#000000">Y</text>
</g>
<!-- v18&#45;&gt;c58 -->
<g id="edge89" class="edge">
<title>v18:e&#45;&gt;c58:w</title>
<path fill="none" stroke="#1b9e77" stroke-width="3" d="M199.6654,-951.3785C223.2306,-951.3785 225.4381,-928.4843 242.9965,-922.0452"/>
<polygon fill="#1b9e77" stroke="#1b9e77" stroke-width="3" points="243.7205,-925.473 253.0101,-920.3785 242.5711,-918.568 243.7205,-925.473"/>
</g>
<!-- v19 -->
<g id="node66" class="node">
<title>v19</title>
<ellipse fill="none" stroke="#000000" cx="162.6654" cy="-897.3785" rx="36.2938" ry="18"/>
<text text-anchor="middle" x="162.6654" y="-893.6785" font-family="Times,serif" font-size="14.00" fill="#000000">3&#39;111</text>
</g>
<!-- v19&#45;&gt;c58 -->
<g id="edge90" class="edge">
<title>v19:e&#45;&gt;c58:w</title>
<path fill="none" stroke="#d95f02" stroke-width="3" d="M199.6654,-897.3785C219.4844,-897.3785 226.8778,-897.3785 242.6197,-897.3785"/>
<polygon fill="#d95f02" stroke="#d95f02" stroke-width="3" points="243.0101,-900.8786 253.0101,-897.3785 243.0101,-893.8786 243.0101,-900.8786"/>
</g>
<!-- c58&#45;&gt;n33 -->
<g id="edge60" class="edge">
<title>c58:e&#45;&gt;n33:w</title>
<path fill="none" stroke="#e7298a" stroke-width="3" d="M363.0101,-897.3785C492.7114,-897.3785 525.1368,-897.3785 654.8381,-897.3785 654.8381,-897.3785 654.8381,-897.3785 2249.9643,-897.3785 2349.2437,-897.3785 2376.6085,-897.3785 2470.9719,-897.3785"/>
<polygon fill="#e7298a" stroke="#e7298a" stroke-width="3" points="2471.2482,-900.8786 2481.2482,-897.3785 2471.2482,-893.8786 2471.2482,-900.8786"/>
</g>
<!-- x20&#45;&gt;c58 -->
<g id="edge11" class="edge">
<title>x20:e&#45;&gt;c58:w</title>
<path fill="none" stroke="#a6761d" d="M212.4136,-844.8895C224.7517,-850.842 228.8358,-865.7612 241.1033,-871.7903"/>
<polygon fill="none" stroke="#a6761d" points="212.4003,-844.8868 205.6968,-847.5443 200.6654,-842.3785 207.3689,-839.721 212.4003,-844.8868"/>
<polygon fill="none" stroke="#a6761d" points="241.2839,-871.8295 247.9967,-869.1953 253.0101,-874.3785 246.2973,-877.0128 241.2839,-871.8295"/>
</g>
<!-- x21&#45;&gt;n5 -->
<g id="edge78" class="edge">
<title>x21:e&#45;&gt;n5:w</title>
<path fill="none" stroke="#e6ab02" stroke-width="3" d="M692.8381,-577.3785C721.1751,-577.3785 730.6668,-577.3785 754.7342,-577.3785"/>
<polygon fill="#e6ab02" stroke="#e6ab02" stroke-width="3" points="754.7416,-580.8786 764.7416,-577.3785 754.7415,-573.8786 754.7416,-580.8786"/>
</g>
<!-- x22&#45;&gt;n7 -->
<g id="edge81" class="edge">
<title>x22:e&#45;&gt;n7:w</title>
<path fill="none" stroke="#e6ab02" stroke-width="3" d="M200.6654,-88.3785C214.6739,-88.3785 220.4744,-88.3785 230.8919,-88.3785"/>
<polygon fill="#e6ab02" stroke="#e6ab02" stroke-width="3" points="231.0101,-91.8786 241.0101,-88.3785 231.01,-84.8786 231.0101,-91.8786"/>
</g>
<!-- x23&#45;&gt;n8 -->
<g id="edge82" class="edge">
<title>x23:e&#45;&gt;n8:w</title>
<path fill="none" stroke="#e6ab02" stroke-width="3" d="M200.6654,-688.3785C214.6739,-688.3785 220.4744,-688.3785 230.8919,-688.3785"/>
<polygon fill="#e6ab02" stroke="#e6ab02" stroke-width="3" points="231.0101,-691.8786 241.0101,-688.3785 231.01,-684.8786 231.0101,-691.8786"/>
</g>
<!-- x24&#45;&gt;n9 -->
<g id="edge83" class="edge">
<title>x24:e&#45;&gt;n9:w</title>
<path fill="none" stroke="#a6761d" stroke-width="3" d="M200.6654,-623.3785C214.6739,-623.3785 220.4744,-623.3785 230.8919,-623.3785"/>
<polygon fill="#a6761d" stroke="#a6761d" stroke-width="3" points="231.0101,-626.8786 241.0101,-623.3785 231.01,-619.8786 231.0101,-626.8786"/>
</g>
<!-- x25&#45;&gt;n10 -->
<g id="edge13" class="edge">
<title>x25:e&#45;&gt;n10:w</title>
<path fill="none" stroke="#e7298a" d="M200.6654,-787.3785C221.4196,-787.3785 229.0403,-787.3785 245.6904,-787.3785"/>
<polygon fill="#e7298a" stroke="#e7298a" points="246.0101,-790.8786 256.0101,-787.3785 246.01,-783.8786 246.0101,-790.8786"/>
</g>
<!-- x26&#45;&gt;n11 -->
<g id="edge14" class="edge">
<title>x26:e&#45;&gt;n11:w</title>
<path fill="none" stroke="#1b9e77" d="M200.6654,-1357.3785C221.4196,-1357.3785 229.0403,-1357.3785 245.6904,-1357.3785"/>
<polygon fill="#1b9e77" stroke="#1b9e77" points="246.0101,-1360.8786 256.0101,-1357.3785 246.01,-1353.8786 246.0101,-1360.8786"/>
</g>
<!-- x27&#45;&gt;n12 -->
<g id="edge15" class="edge">
<title>x27:e&#45;&gt;n12:w</title>
<path fill="none" stroke="#666666" d="M877.7416,-1537.3785C906.8113,-1537.3785 916.5485,-1537.3785 941.2383,-1537.3785"/>
<polygon fill="#666666" stroke="#666666" points="941.5045,-1540.8786 951.5044,-1537.3785 941.5044,-1533.8786 941.5045,-1540.8786"/>
</g>
<!-- x28&#45;&gt;n16 -->
<g id="edge22" class="edge">
<title>x28:e&#45;&gt;n16:w</title>
<path fill="none" stroke="#a6761d" d="M200.6654,-1302.3785C221.4196,-1302.3785 229.0403,-1302.3785 245.6904,-1302.3785"/>
<polygon fill="#a6761d" stroke="#a6761d" points="246.0101,-1305.8786 256.0101,-1302.3785 246.01,-1298.8786 246.0101,-1305.8786"/>
</g>
<!-- x29&#45;&gt;n17 -->
<g id="edge23" class="edge">
<title>x29:e&#45;&gt;n17:w</title>
<path fill="none" stroke="#a6761d" d="M200.6654,-1208.3785C221.4196,-1208.3785 229.0403,-1208.3785 245.6904,-1208.3785"/>
<polygon fill="#a6761d" stroke="#a6761d" points="246.0101,-1211.8786 256.0101,-1208.3785 246.01,-1204.8786 246.0101,-1211.8786"/>
</g>
<!-- x30&#45;&gt;n18 -->
<g id="edge24" class="edge">
<title>x30:e&#45;&gt;n18:w</title>
<path fill="none" stroke="#e7298a" d="M200.6654,-443.3785C221.4196,-443.3785 229.0403,-443.3785 245.6904,-443.3785"/>
<polygon fill="#e7298a" stroke="#e7298a" points="246.0101,-446.8786 256.0101,-443.3785 246.01,-439.8786 246.0101,-446.8786"/>
</g>
<!-- x31&#45;&gt;n19 -->
<g id="edge25" class="edge">
<title>x31:e&#45;&gt;n19:w</title>
<path fill="none" stroke="#e7298a" d="M200.6654,-388.3785C221.4196,-388.3785 229.0403,-388.3785 245.6904,-388.3785"/>
<polygon fill="#e7298a" stroke="#e7298a" points="246.0101,-391.8786 256.0101,-388.3785 246.01,-384.8786 246.0101,-391.8786"/>
</g>
<!-- x32&#45;&gt;n20 -->
<g id="edge27" class="edge">
<title>x32:e&#45;&gt;n20:w</title>
<path fill="none" stroke="#a6761d" d="M200.6654,-333.3785C221.4196,-333.3785 229.0403,-333.3785 245.6904,-333.3785"/>
<polygon fill="#a6761d" stroke="#a6761d" points="246.0101,-336.8786 256.0101,-333.3785 246.01,-329.8786 246.0101,-336.8786"/>
</g>
<!-- x33&#45;&gt;n21 -->
<g id="edge28" class="edge">
<title>x33:e&#45;&gt;n21:w</title>
<path fill="none" stroke="#d95f02" stroke-width="3" d="M200.6654,-273.3785C221.4196,-273.3785 229.0403,-273.3785 245.6904,-273.3785"/>
<polygon fill="#d95f02" stroke="#d95f02" stroke-width="3" points="246.0101,-276.8786 256.0101,-273.3785 246.01,-269.8786 246.0101,-276.8786"/>
</g>
<!-- x34&#45;&gt;n23 -->
<g id="edge32" class="edge">
<title>x34:e&#45;&gt;n23:w</title>
<path fill="none" stroke="#1b9e77" d="M200.6654,-213.3785C221.4196,-213.3785 229.0403,-213.3785 245.6904,-213.3785"/>
<polygon fill="#1b9e77" stroke="#1b9e77" points="246.0101,-216.8786 256.0101,-213.3785 246.01,-209.8786 246.0101,-216.8786"/>
</g>
<!-- x35&#45;&gt;n24 -->
<g id="edge33" class="edge">
<title>x35:e&#45;&gt;n24:w</title>
<path fill="none" stroke="#e6ab02" stroke-width="3" d="M200.6654,-153.3785C221.4196,-153.3785 229.0403,-153.3785 245.6904,-153.3785"/>
<polygon fill="#e6ab02" stroke="#e6ab02" stroke-width="3" points="246.0101,-156.8786 256.0101,-153.3785 246.01,-149.8786 246.0101,-156.8786"/>
</g>
<!-- x36&#45;&gt;n32 -->
<g id="edge59" class="edge">
<title>x36:e&#45;&gt;n32:w</title>
<path fill="none" stroke="#e7298a" stroke-width="3" d="M1464.0723,-1762.3785C1575.1354,-1762.3785 1602.9012,-1762.3785 1713.9643,-1762.3785 1713.9643,-1762.3785 1713.9643,-1762.3785 2249.9643,-1762.3785 2349.2437,-1762.3785 2376.6085,-1762.3785 2470.9719,-1762.3785"/>
<polygon fill="#e7298a" stroke="#e7298a" stroke-width="3" points="2471.2482,-1765.8786 2481.2482,-1762.3785 2471.2482,-1758.8786 2471.2482,-1765.8786"/>
</g>
<!-- x37&#45;&gt;n34 -->
<g id="edge61" class="edge">
<title>x37:e&#45;&gt;n34:w</title>
<path fill="none" stroke="#7570b3" stroke-width="3" d="M1896.9643,-1244.3785C2001.6309,-1244.3785 2027.7976,-1244.3785 2132.4643,-1244.3785 2132.4643,-1244.3785 2132.4643,-1244.3785 2249.9643,-1244.3785 2349.2437,-1244.3785 2376.6085,-1244.3785 2470.9719,-1244.3785"/>
<polygon fill="#7570b3" stroke="#7570b3" stroke-width="3" points="2471.2482,-1247.8786 2481.2482,-1244.3785 2471.2482,-1240.8786 2471.2482,-1247.8786"/>
</g>
</g>
</svg>
